<svg width="24" height="24" viewBox="0 0 24 24" fill="none" xmlns="http://www.w3.org/2000/svg">
<path fill-rule="evenodd" clip-rule="evenodd" d="M4.5 0C4.08579 0 3.75 0.335786 3.75 0.75C3.75 2.67656 4.74742 4.37114 6.14561 5.56343C6.32514 5.71653 6.51228 5.86227 6.70602 6H2.25C1.65326 6 1.08097 6.23705 0.65901 6.65901C0.237053 7.08097 0 7.65326 0 8.25V10.5C0 10.8978 0.158036 11.2794 0.43934 11.5607C0.720644 11.842 1.10217 12 1.5 12V21.75C1.5 22.3467 1.73705 22.919 2.15901 23.341C2.58097 23.7629 3.15326 24 3.75 24H20.25C20.8467 24 21.419 23.7629 21.841 23.341C22.2629 22.919 22.5 22.3467 22.5 21.75V12C22.8978 12 23.2794 11.842 23.5607 11.5607C23.842 11.2794 24 10.8978 24 10.5V8.25C24 7.65326 23.7629 7.08097 23.341 6.65901C22.919 6.23705 22.3467 6 21.75 6H17.294C17.4877 5.86227 17.6749 5.71653 17.8544 5.56343C19.2526 4.37114 20.25 2.67656 20.25 0.75C20.25 0.335786 19.9142 0 19.5 0C17.6493 0 15.7925 0.745399 14.3956 1.93657C13.1819 2.97151 12.2702 4.38492 12.0507 6H11.9493C11.7298 4.38492 10.8181 2.97151 9.60439 1.93657C8.20752 0.745399 6.35067 0 4.5 0ZM9 7.5H2.25C2.05109 7.5 1.86032 7.57902 1.71967 7.71967C1.57902 7.86032 1.5 8.05109 1.5 8.25V10.5H9V7.5ZM9 12H3V21.75C3 21.9489 3.07902 22.1397 3.21967 22.2803C3.36032 22.421 3.55109 22.5 3.75 22.5H9V12ZM10.5 22.5V12H13.5V22.5H10.5ZM15 22.5H20.25C20.4489 22.5 20.6397 22.421 20.7803 22.2803C20.921 22.1397 21 21.9489 21 21.75V12H15V22.5ZM15 10.5H22.5V8.25C22.5 8.05109 22.421 7.86032 22.2803 7.71967C22.1397 7.57902 21.9489 7.5 21.75 7.5H15V10.5ZM13.5 7.5H10.5V10.5H13.5V7.5ZM15.3689 3.07793C16.3013 2.28283 17.4761 1.73949 18.6675 1.56256C18.4479 2.64157 17.8021 3.63673 16.8811 4.42207C15.9487 5.21717 14.7739 5.76051 13.5825 5.93745C13.8021 4.85843 14.4479 3.86327 15.3689 3.07793ZM7.11889 4.42207C8.05131 5.21717 9.22614 5.76051 10.4175 5.93745C10.1979 4.85843 9.55206 3.86327 8.63111 3.07793C7.69869 2.28283 6.52386 1.73949 5.33247 1.56255C5.5521 2.64157 6.19794 3.63673 7.11889 4.42207Z" fill="#666666"/>
</svg>
