<svg width="24" height="24" viewBox="0 0 24 24" fill="none" xmlns="http://www.w3.org/2000/svg">
<g clip-path="url(#clip0_16777_12532)">
<path fill-rule="evenodd" clip-rule="evenodd" d="M18.3964 13.8935C18.2012 14.0888 18.2012 14.4054 18.3964 14.6006L22.5429 18.7471L18.3964 22.8935C18.2012 23.0888 18.2012 23.4054 18.3964 23.6006C18.5917 23.7959 18.9083 23.7959 19.1036 23.6006L23.6036 19.1006C23.7988 18.9054 23.7988 18.5888 23.6036 18.3935L19.1036 13.8935C18.9083 13.6983 18.5917 13.6983 18.3964 13.8935Z" fill="#BC0055"/>
<path fill-rule="evenodd" clip-rule="evenodd" d="M14 0.74707C14 0.470928 13.7761 0.24707 13.5 0.24707H5.25C3.92392 0.24707 2.65215 0.773854 1.71447 1.71154C0.776785 2.64922 0.25 3.92099 0.25 5.24707V14.2471C0.25 15.5732 0.776785 16.8449 1.71447 17.7826C2.65215 18.7203 3.92392 19.2471 5.25 19.2471H23.25C23.5261 19.2471 23.75 19.0232 23.75 18.7471C23.75 18.4709 23.5261 18.2471 23.25 18.2471H5.25C4.18913 18.2471 3.17172 17.8256 2.42157 17.0755C1.67143 16.3254 1.25 15.3079 1.25 14.2471V5.24707C1.25 4.1862 1.67143 3.16879 2.42157 2.41864C3.17172 1.6685 4.18913 1.24707 5.25 1.24707H13.5C13.7761 1.24707 14 1.02321 14 0.74707Z" fill="#BC0055"/>
</g>
<defs>
<clipPath id="clip0_16777_12532">
<rect width="24" height="24" fill="white"/>
</clipPath>
</defs>
</svg>
