<svg width="24" height="24" viewBox="0 0 24 24" fill="none" xmlns="http://www.w3.org/2000/svg">
<path fill-rule="evenodd" clip-rule="evenodd" d="M0.835786 0.835786C1.21086 0.460714 1.71957 0.25 2.25 0.25H6.75C7.28043 0.25 7.78914 0.460714 8.16421 0.835786C8.53929 1.21086 8.75 1.71957 8.75 2.25V3.25H17.25C17.7804 3.25 18.2891 3.46071 18.6642 3.83579C19.0393 4.21086 19.25 4.71957 19.25 5.25V6.25H20.25C20.7804 6.25 21.2891 6.46071 21.6642 6.83579C22.0393 7.21086 22.25 7.71957 22.25 8.25V9.31301C23.1126 9.53503 23.75 10.3181 23.75 11.25V21.75C23.75 22.8546 22.8546 23.75 21.75 23.75H8.25C7.14543 23.75 6.25 22.8546 6.25 21.75V11.25C6.25 10.1454 7.14543 9.25 8.25 9.25H21.25V8.25C21.25 7.98478 21.1446 7.73043 20.9571 7.54289C20.7696 7.35536 20.5152 7.25 20.25 7.25H5.25C4.98478 7.25 4.73043 7.35536 4.54289 7.54289C4.35536 7.73043 4.25 7.98478 4.25 8.25V20.25C4.25 20.5261 4.02614 20.75 3.75 20.75C3.47386 20.75 3.25 20.5261 3.25 20.25V8.25C3.25 7.71957 3.46071 7.21086 3.83579 6.83579C4.21086 6.46071 4.71957 6.25 5.25 6.25H18.25V5.25C18.25 4.98478 18.1446 4.73043 17.9571 4.54289C17.7696 4.35536 17.5152 4.25 17.25 4.25H8.25C7.97386 4.25 7.75 4.02614 7.75 3.75V2.25C7.75 1.98478 7.64464 1.73043 7.45711 1.54289C7.26957 1.35536 7.01522 1.25 6.75 1.25H2.25C1.98478 1.25 1.73043 1.35536 1.54289 1.54289C1.35536 1.73043 1.25 1.98478 1.25 2.25V18.55C1.25 18.8261 1.02614 19.05 0.75 19.05C0.473858 19.05 0.25 18.8261 0.25 18.55V2.25C0.25 1.71957 0.460714 1.21086 0.835786 0.835786ZM21.75 10.25H8.25C7.69772 10.25 7.25 10.6977 7.25 11.25V21.75C7.25 22.3023 7.69772 22.75 8.25 22.75H21.75C22.3023 22.75 22.75 22.3023 22.75 21.75V11.25C22.75 10.6977 22.3023 10.25 21.75 10.25Z" fill="#BC0055"/>
</svg>
