<svg width="25" height="18" viewBox="0 0 25 18" fill="none" xmlns="http://www.w3.org/2000/svg">
<path d="M2.81579 6.15385C1.84737 6.15385 1 7.01538 1 8C1 8.98462 1.84737 9.84615 2.81579 9.84615C3.78421 9.84615 4.63158 8.98462 4.63158 8C4.63158 7.01538 3.78421 6.15385 2.81579 6.15385ZM2.81579 0C1.84737 0 1 0.861538 1 1.84615C1 2.83077 1.84737 3.69231 2.81579 3.69231C3.78421 3.69231 4.63158 2.83077 4.63158 1.84615C4.63158 0.861538 3.78421 0 2.81579 0ZM2.81579 12.3077C1.84737 12.3077 1 13.1692 1 14.1538C1 15.1385 1.84737 16 2.81579 16C3.78421 16 4.63158 15.1385 4.63158 14.1538C4.63158 13.1692 3.78421 12.3077 2.81579 12.3077ZM7.05263 0.615385V3.07692H24V0.615385H7.05263ZM7.05263 15.3846H24V12.9231H7.05263V15.3846ZM7.05263 9.23077H24V6.76923H7.05263V9.23077Z" fill="#666666"/>
</svg>
