<svg width="25" height="24" viewBox="0 0 25 24" fill="none" xmlns="http://www.w3.org/2000/svg">
<path d="M2.81579 10.1538C1.84737 10.1538 1 11.0154 1 12C1 12.9846 1.84737 13.8462 2.81579 13.8462C3.78421 13.8462 4.63158 12.9846 4.63158 12C4.63158 11.0154 3.78421 10.1538 2.81579 10.1538ZM2.81579 4C1.84737 4 1 4.86154 1 5.84615C1 6.83077 1.84737 7.69231 2.81579 7.69231C3.78421 7.69231 4.63158 6.83077 4.63158 5.84615C4.63158 4.86154 3.78421 4 2.81579 4ZM2.81579 16.3077C1.84737 16.3077 1 17.1692 1 18.1538C1 19.1385 1.84737 20 2.81579 20C3.78421 20 4.63158 19.1385 4.63158 18.1538C4.63158 17.1692 3.78421 16.3077 2.81579 16.3077ZM7.05263 4.61538V7.07692H24V4.61538H7.05263ZM7.05263 19.3846H24V16.9231H7.05263V19.3846ZM7.05263 13.2308H24V10.7692H7.05263V13.2308Z" fill="black"/>
</svg>
