<svg width="24" height="24" viewBox="0 0 24 24" fill="none" xmlns="http://www.w3.org/2000/svg">
<path fill-rule="evenodd" clip-rule="evenodd" d="M6.75 0C5.75544 0 4.80161 0.395088 4.09835 1.09835C3.39509 1.80161 3 2.75544 3 3.75V21C3 21.7956 3.31607 22.5587 3.87868 23.1213C4.44129 23.6839 5.20435 24 6 24H21.75C22.1642 24 22.5 23.6642 22.5 23.25C22.5 22.8358 22.1642 22.5 21.75 22.5H21V19.5C21.3978 19.5 21.7794 19.342 22.0607 19.0607C22.342 18.7794 22.5 18.3978 22.5 18V1.5C22.5 1.10218 22.342 0.720645 22.0607 0.43934C21.7794 0.158035 21.3978 0 21 0H6.75ZM4.5 3.75V18.4019C4.95218 18.1409 5.46883 18 6 18H21V1.5H6.75C6.15326 1.5 5.58097 1.73705 5.15901 2.15901C4.73705 2.58097 4.5 3.15326 4.5 3.75ZM6 19.5H19.5V22.5H6C5.60218 22.5 5.22064 22.342 4.93934 22.0607C4.65804 21.7794 4.5 21.3978 4.5 21C4.5 20.6022 4.65804 20.2206 4.93934 19.9393C5.22064 19.658 5.60218 19.5 6 19.5ZM8.76884 5.7328C9.24054 5.2578 9.88104 4.99032 10.5496 4.99032C11.2182 4.99032 11.8587 5.2578 12.3304 5.7328C12.802 6.20767 13.0663 6.851 13.0663 7.52109C13.0663 8.19117 12.802 8.8345 12.3304 9.30938C12.1153 9.52598 11.8651 9.69943 11.5932 9.82404C12.2096 10.0012 12.7771 10.334 13.238 10.7981C13.9502 11.5153 14.3498 12.4874 14.3498 13.5002C14.3498 13.6328 14.2971 13.76 14.2033 13.8537C14.1095 13.9475 13.9824 14.0002 13.8498 14.0002H7.24976C7.11715 14.0002 6.98997 13.9475 6.8962 13.8537C6.80243 13.76 6.74976 13.6328 6.74976 13.5002C6.74976 12.4874 7.14927 11.5153 7.86152 10.7981C8.32239 10.334 8.8898 10.0012 9.5062 9.82409C9.2342 9.69947 8.98397 9.526 8.76884 9.30938C8.29727 8.8345 8.03296 8.19117 8.03296 7.52109C8.03296 6.851 8.29727 6.20767 8.76884 5.7328ZM14.3512 7.4291C14.7283 7.04932 15.2406 6.83532 15.7754 6.83532C16.3103 6.83532 16.8226 7.04932 17.1997 7.4291C17.5767 7.80876 17.7879 8.32296 17.7879 8.85839C17.7879 9.39383 17.5767 9.90803 17.1997 10.2877C17.0509 10.4375 16.8811 10.5616 16.6971 10.6568C17.1396 10.8016 17.5462 11.0502 17.8809 11.3872C18.438 11.9482 18.7504 12.7084 18.7504 13.5002C18.7504 13.6329 18.6977 13.76 18.6039 13.8538C18.5102 13.9476 18.383 14.0002 18.2504 14.0002L16.0914 14.0002C15.8152 14.0002 15.5914 13.7763 15.5914 13.5002C15.5914 12.7251 15.3952 11.9341 15.0532 11.2493C14.9802 11.1033 14.9832 10.9309 15.061 10.7874C15.0668 10.7769 15.0728 10.7666 15.0792 10.7566C14.8081 10.656 14.5591 10.4971 14.3512 10.2877C13.9741 9.90803 13.7629 9.39383 13.7629 8.85839C13.7629 8.32296 13.9741 7.80876 14.3512 7.4291Z" fill="#FEF8F7"/>
</svg>
