<svg width="24" height="24" viewBox="0 0 24 24" fill="none" xmlns="http://www.w3.org/2000/svg">
<path fill-rule="evenodd" clip-rule="evenodd" d="M6.75 0C5.75544 0 4.80161 0.395088 4.09835 1.09835C3.39509 1.80161 3 2.75544 3 3.75V21C3 21.7956 3.31607 22.5587 3.87868 23.1213C4.44129 23.6839 5.20435 24 6 24H21.75C22.1642 24 22.5 23.6642 22.5 23.25C22.5 22.8358 22.1642 22.5 21.75 22.5H21V19.5C21.3978 19.5 21.7794 19.342 22.0607 19.0607C22.342 18.7794 22.5 18.3978 22.5 18V1.5C22.5 1.10218 22.342 0.720645 22.0607 0.43934C21.7794 0.158035 21.3978 0 21 0H6.75ZM4.5 3.75V18.4019C4.95218 18.1409 5.46883 18 6 18H21V1.5H6.75C6.15326 1.5 5.58097 1.73705 5.15901 2.15901C4.73705 2.58097 4.5 3.15326 4.5 3.75ZM6 19.5H19.5V22.5H6C5.60218 22.5 5.22064 22.342 4.93934 22.0607C4.65804 21.7794 4.5 21.3978 4.5 21C4.5 20.6022 4.65804 20.2206 4.93934 19.9393C5.22064 19.658 5.60218 19.5 6 19.5ZM8.76909 5.73247C9.24078 5.25748 9.88128 4.98999 10.5499 4.98999C11.2185 4.98999 11.859 5.25748 12.3307 5.73247C12.8022 6.20734 13.0665 6.85068 13.0665 7.52076C13.0665 8.19084 12.8022 8.83418 12.3307 9.30905C12.1156 9.52564 11.8654 9.69909 11.5934 9.8237C12.2099 10.0008 12.7773 10.3336 13.2382 10.7977C13.9505 11.515 14.35 12.487 14.35 13.4998C14.35 13.6324 14.2973 13.7596 14.2036 13.8534C14.1098 13.9472 13.9826 13.9998 13.85 13.9998H7.25C7.11739 13.9998 6.99021 13.9472 6.89645 13.8534C6.80268 13.7596 6.75 13.6324 6.75 13.4998C6.75 12.487 7.14952 11.515 7.86176 10.7977C8.32262 10.3337 8.89001 10.0009 9.5064 9.82374C9.23442 9.69913 8.9842 9.52567 8.76909 9.30905C8.29751 8.83418 8.0332 8.19084 8.0332 7.52076C8.0332 6.85068 8.29751 6.20734 8.76909 5.73247ZM14.3519 7.42874C14.729 7.04896 15.2413 6.83496 15.7762 6.83496C16.311 6.83496 16.8233 7.04896 17.2005 7.42874C17.5775 7.8084 17.7887 8.3226 17.7887 8.85804C17.7887 9.39347 17.5775 9.90767 17.2005 10.2873C17.0514 10.4374 16.8812 10.5616 16.6969 10.657C17.1393 10.8017 17.5458 11.0503 17.8804 11.3872C18.4376 11.9482 18.7499 12.7084 18.7499 13.5003C18.7499 13.6329 18.6972 13.76 18.6035 13.8538C18.5097 13.9476 18.3825 14.0003 18.2499 14.0003L16.0909 14.0002C15.8148 14.0002 15.5909 13.7763 15.5909 13.5002C15.5909 12.7251 15.3947 11.9341 15.0527 11.2493C14.9798 11.1033 14.9827 10.9309 15.0606 10.7874C15.0664 10.7767 15.0726 10.7661 15.0792 10.7559C14.8083 10.6554 14.5596 10.4965 14.3519 10.2873C13.9749 9.90767 13.7637 9.39347 13.7637 8.85804C13.7637 8.3226 13.9749 7.8084 14.3519 7.42874Z" fill="black"/>
</svg>
