<svg width="24" height="24" viewBox="0 0 24 24" fill="none" xmlns="http://www.w3.org/2000/svg">
<g clip-path="url(#clip0_4730_49039)">
<path d="M11.9991 19.0001C10.9311 18.9941 9.87211 18.8301 8.85211 18.5131C8.58911 18.4311 8.44111 18.1501 8.52311 17.8871C8.58811 17.6771 8.78011 17.5361 9.00011 17.5361C9.05011 17.5361 9.09911 17.5431 9.14711 17.5581C10.0751 17.8461 11.0351 17.9951 12.0031 18.0001C17.2391 18.0001 21.6961 13.3171 22.8441 12.0021C21.7681 10.7661 20.5511 9.65409 19.2251 8.69309C19.1171 8.61509 19.0461 8.49909 19.0251 8.36709C19.0041 8.23509 19.0351 8.10309 19.1141 7.99509C19.2071 7.86609 19.3591 7.78809 19.5191 7.78809C19.6241 7.78809 19.7261 7.82109 19.8121 7.88309C21.3201 8.97609 22.6901 10.2531 23.8851 11.6791C24.0361 11.8601 24.0401 12.1251 23.8941 12.3101C23.8391 12.3791 22.5331 14.0101 20.4411 15.6441C18.4791 17.1751 15.4231 19.0001 12.0001 19.0001C11.9991 19.0001 11.9991 19.0001 11.9991 19.0001Z" fill="black"/>
<path d="M4.46803 16.2C4.36203 16.2 4.26003 16.167 4.17403 16.105C2.67303 15.017 1.30803 13.744 0.117028 12.322C-0.0349723 12.141 -0.0379723 11.875 0.108028 11.69C0.162028 11.622 1.45303 10.002 3.56003 8.357C5.52103 6.825 8.57603 5 12 5C12.886 5.004 13.77 5.119 14.626 5.341C14.893 5.41 15.053 5.684 14.984 5.95C14.926 6.171 14.728 6.324 14.5 6.324C14.458 6.324 14.415 6.319 14.374 6.308C13.598 6.107 12.798 6.003 11.998 6C6.76103 6 2.30503 10.682 1.15603 11.998C2.22903 13.229 3.44103 14.337 4.76103 15.295C4.86903 15.373 4.94003 15.489 4.96103 15.621C4.98203 15.753 4.95003 15.885 4.87203 15.993C4.77903 16.123 4.62703 16.2 4.46803 16.2Z" fill="black"/>
<path d="M8 12.5C7.724 12.5 7.5 12.276 7.5 12C7.5 9.519 9.519 7.5 12 7.5C12.276 7.5 12.5 7.724 12.5 8C12.5 8.276 12.276 8.5 12 8.5C10.07 8.5 8.5 10.07 8.5 12C8.5 12.276 8.276 12.5 8 12.5Z" fill="black"/>
<path d="M12 16.5C11.724 16.5 11.5 16.276 11.5 16C11.5 15.724 11.724 15.5 12 15.5C13.93 15.5 15.5 13.93 15.5 12C15.5 11.724 15.724 11.5 16 11.5C16.276 11.5 16.5 11.724 16.5 12C16.5 14.481 14.481 16.5 12 16.5Z" fill="black"/>
<path d="M2.25001 22.25C2.11601 22.25 1.99101 22.198 1.89601 22.104C1.70101 21.909 1.70101 21.592 1.89601 21.397L21.396 1.89698C21.49 1.80298 21.616 1.75098 21.75 1.75098C21.884 1.75098 22.009 1.80298 22.104 1.89698C22.299 2.09198 22.299 2.40898 22.104 2.60398L2.60401 22.104C2.50901 22.198 2.38301 22.25 2.25001 22.25Z" fill="black"/>
</g>
<defs>
<clipPath id="clip0_4730_49039">
<rect width="24" height="24" fill="white"/>
</clipPath>
</defs>
</svg>
