<svg width="24" height="24" viewBox="0 0 24 24" fill="none" xmlns="http://www.w3.org/2000/svg">
<path fill-rule="evenodd" clip-rule="evenodd" d="M18.2878 1.5C17.8701 1.5 17.4557 1.58708 17.068 1.75709C16.6803 1.92715 16.3261 2.17723 16.0264 2.49455L3.5499 15.7049L1.71742 22.4959L8.07767 20.5718L20.5492 7.3666C20.849 7.04922 21.0882 6.67091 21.2518 6.25259C21.4155 5.83423 21.5 5.38493 21.5 4.93058C21.5 4.47623 21.4155 4.02693 21.2518 3.60857C21.0882 3.19024 20.849 2.81193 20.5492 2.49455C20.2495 2.17723 19.8953 1.92715 19.5076 1.75709C19.1199 1.58708 18.7055 1.5 18.2878 1.5ZM16.6664 0.841301C17.1795 0.616257 17.7305 0.5 18.2878 0.5C18.8451 0.5 19.3961 0.616257 19.9092 0.841301C20.4223 1.06631 20.8865 1.39527 21.2762 1.80793C21.6659 2.22053 21.9736 2.70882 22.1831 3.24425C22.3925 3.77965 22.5 4.35259 22.5 4.93058C22.5 5.50857 22.3925 6.0815 22.1831 6.6169C21.9736 7.15234 21.6659 7.64063 21.2762 8.05323L8.71332 21.3551C8.65346 21.4185 8.57805 21.4652 8.4946 21.4904L1.14479 23.7139C0.970926 23.7665 0.782209 23.7206 0.651839 23.5941C0.521468 23.4677 0.469955 23.2804 0.517279 23.105L2.61722 15.3229C2.63875 15.2431 2.67971 15.1699 2.73645 15.1098L15.2994 1.80793C15.6891 1.39527 16.1533 1.06631 16.6664 0.841301Z" fill="#BC0055"/>
<path fill-rule="evenodd" clip-rule="evenodd" d="M14.2098 3.14271C14.4033 2.94575 14.7199 2.94299 14.9169 3.13654L19.901 8.03441C20.0979 8.22796 20.1007 8.54453 19.9072 8.74149C19.7136 8.93845 19.397 8.94121 19.2001 8.74766L14.216 3.84979C14.019 3.65624 14.0162 3.33967 14.2098 3.14271Z" fill="#BC0055"/>
<path fill-rule="evenodd" clip-rule="evenodd" d="M3.11409 15.5167C3.30764 15.3198 3.62421 15.317 3.82117 15.5106L8.80528 20.4084C9.00224 20.602 9.005 20.9186 8.81145 21.1155C8.6179 21.3125 8.30133 21.3152 8.10437 21.1217L3.12026 16.2238C2.9233 16.0303 2.92054 15.7137 3.11409 15.5167Z" fill="#BC0055"/>
</svg>
