<svg width="24" height="24" viewBox="0 0 24 24" fill="none" xmlns="http://www.w3.org/2000/svg">
<g clip-path="url(#clip0_4680_48946)">
<path d="M1.5 18.001C0.673 18.001 0 17.328 0 16.501V1.50098C0 0.673977 0.673 0.000976562 1.5 0.000976562H6.882C7.454 0.000976562 7.968 0.318977 8.223 0.830977L9.171 2.72498C9.256 2.89498 9.427 2.99998 9.618 3.00098H19.5C20.327 3.00098 21 3.67398 21 4.50098V9.50098C21 9.77698 20.776 10.001 20.5 10.001C20.224 10.001 20 9.77598 20 9.50098V4.50098C20 4.22498 19.776 4.00098 19.5 4.00098H9.618C9.046 3.99998 8.532 3.68298 8.276 3.17098L7.329 1.27698C7.243 1.10698 7.072 1.00098 6.881 1.00098H1.5C1.224 1.00098 1 1.22498 1 1.50098V16.501C1 16.777 1.224 17.001 1.5 17.001H8.5C8.776 17.001 9 17.225 9 17.501C9 17.777 8.776 18.001 8.5 18.001H1.5Z" fill="black"/>
<path fill-rule="evenodd" clip-rule="evenodd" d="M7.27678 1.19434C7.2964 1.21963 7.31381 1.24705 7.3287 1.27638C7.3288 1.27658 7.3286 1.27618 7.3287 1.27638L8.276 3.17098C8.2762 3.17138 8.2764 3.17178 8.2766 3.17218C8.27666 3.1723 8.27654 3.17205 8.2766 3.17218C8.31302 3.24481 8.35483 3.31388 8.40106 3.3783C8.67591 3.76121 9.1141 3.99294 9.59547 4.00077M9.171 2.72498C9.25479 2.89255 9.42214 2.99697 9.60984 3.00087ZM9.171 2.72498L8.223 0.830977C8.22287 0.83071 8.22313 0.831243 8.223 0.830977C8.2223 0.829577 8.2212 0.827379 8.2205 0.825982C8.17841 0.742224 8.12936 0.663695 8.07426 0.59094C7.79444 0.221501 7.35833 0.000976562 6.882 0.000976562M6.882 0.000976562H1.5C0.673 0.000976562 0 0.673977 0 1.50098V16.501C0 17.328 0.673 18.001 1.5 18.001H8.5C8.776 18.001 9 17.777 9 17.501C9 17.225 8.776 17.001 8.5 17.001H1.5C1.224 17.001 1 16.777 1 16.501V1.50098C1 1.22498 1.224 1.00098 1.5 1.00098H6.881C7.03879 1.00098 7.18294 1.07332 7.27678 1.19434M9.618 3.00098H9.61913ZM9.618 4.00098C9.61625 4.00097 9.61451 4.00097 9.61276 4.00096ZM9.618 4.00098H19.5C19.776 4.00098 20 4.22498 20 4.50098V9.50098C20 9.77598 20.224 10.001 20.5 10.001C20.776 10.001 21 9.77698 21 9.50098V4.50098C21 3.67398 20.327 3.00098 19.5 3.00098H9.61913" fill="black"/>
<path d="M13.6289 23.9997C13.5169 23.9997 13.4039 23.9847 13.2939 23.9557C12.9619 23.8667 12.6849 23.6537 12.5129 23.3567C12.3139 23.0127 12.2869 22.5877 12.4399 22.2197L13.7389 19.2317L11.4089 17.1567C10.8999 16.7057 10.8529 15.9247 11.3039 15.4157C11.5429 15.1477 11.8689 14.9997 12.2229 14.9997L12.2759 15.0007H14.9279L16.3389 11.7327C16.5809 11.2807 17.0259 11.0117 17.5069 11.0117C17.7189 11.0117 17.9309 11.0657 18.1189 11.1667C18.3429 11.2867 18.5249 11.4687 18.6459 11.6927C18.6489 11.6987 18.6619 11.7247 18.6649 11.7317L20.0739 15.0007H22.7399L22.7799 14.9997C23.0839 14.9997 23.3779 15.1167 23.6069 15.3297C23.8489 15.5537 23.9889 15.8587 24.0009 16.1887C24.0149 16.5587 23.8649 16.9117 23.5889 17.1577L21.2599 19.2327L22.5549 22.2137C22.6889 22.5347 22.6899 22.8847 22.5599 23.2027C22.4299 23.5207 22.1829 23.7687 21.8669 23.9007C21.7109 23.9657 21.5449 23.9987 21.3739 23.9987C21.1469 23.9987 20.9249 23.9397 20.7299 23.8277L17.4999 22.0077L14.2659 23.8307C14.0729 23.9407 13.8519 23.9997 13.6289 23.9997ZM12.2369 15.9997C12.1629 15.9997 12.0999 16.0267 12.0539 16.0787C12.0129 16.1247 11.9919 16.1847 11.9959 16.2477C11.9999 16.3107 12.0269 16.3667 12.0739 16.4087L14.6749 18.7257C14.8369 18.8707 14.8869 19.1007 14.8009 19.2987L13.3609 22.6117C13.3299 22.6867 13.3369 22.7817 13.3799 22.8567C13.4179 22.9227 13.4799 22.9697 13.5529 22.9897C13.5779 22.9967 13.6029 22.9997 13.6279 22.9997C13.6769 22.9997 13.7259 22.9867 13.7699 22.9607L17.2539 20.9977C17.3289 20.9557 17.4139 20.9337 17.4999 20.9337C17.5859 20.9337 17.6709 20.9557 17.7459 20.9977L21.2259 22.9587C21.2719 22.9857 21.3229 22.9997 21.3739 22.9997C21.4119 22.9997 21.4479 22.9927 21.4819 22.9787C21.6279 22.9177 21.6959 22.7507 21.6359 22.6057L20.1989 19.2997C20.1129 19.1017 20.1629 18.8717 20.3249 18.7277L22.9249 16.4107C22.9769 16.3637 23.0059 16.2967 23.0029 16.2267C23.0009 16.1647 22.9739 16.1057 22.9279 16.0637C22.8829 16.0217 22.8269 15.9997 22.7659 15.9997H19.7449C19.5449 15.9997 19.3639 15.8807 19.2859 15.6967L17.7579 12.1527C17.7299 12.1077 17.6909 12.0707 17.6449 12.0457C17.6009 12.0217 17.5529 12.0097 17.5029 12.0097C17.3919 12.0097 17.2899 12.0697 17.2379 12.1667L15.7159 15.6977C15.6369 15.8807 15.4569 15.9997 15.2569 15.9997H12.2369Z" fill="black"/>
<path fill-rule="evenodd" clip-rule="evenodd" d="M13.7389 19.2317L12.4399 22.2197C12.4147 22.2804 12.3943 22.3427 12.3788 22.4059C12.3535 22.5092 12.3412 22.615 12.3417 22.7206C12.3429 22.9419 12.4004 23.1622 12.5129 23.3567C12.6849 23.6537 12.9619 23.8667 13.2939 23.9557C13.2994 23.9572 13.305 23.9586 13.3106 23.96C13.415 23.9861 13.5219 23.9996 13.6279 23.9997M13.5562 22.9906C13.5801 22.997 13.604 22.9997 13.6279 22.9997ZM13.5562 22.9906C13.5551 22.9903 13.554 22.99 13.5529 22.9897C13.4799 22.9697 13.4179 22.9227 13.3799 22.8567C13.3531 22.8099 13.3403 22.7554 13.3419 22.7028C13.3424 22.6868 13.3443 22.671 13.3475 22.6557C13.3506 22.6405 13.3551 22.6257 13.3609 22.6117L14.8009 19.2987C14.8043 19.2909 14.8075 19.2829 14.8105 19.275C14.8806 19.0882 14.8334 18.8777 14.6883 18.7382C14.6839 18.7339 14.6795 18.7298 14.6749 18.7257L12.0739 16.4087C12.0269 16.3667 11.9999 16.3107 11.9959 16.2477C11.9919 16.1847 12.0129 16.1247 12.0539 16.0787C12.0975 16.0295 12.1563 16.0026 12.2253 15.9999C12.2291 15.9998 12.233 15.9997 12.2369 15.9997H15.2569C15.4569 15.9997 15.6369 15.8807 15.7159 15.6977L17.2379 12.1667C17.2413 12.1603 17.245 12.1541 17.2488 12.1481C17.3034 12.0621 17.3992 12.0097 17.5029 12.0097C17.5042 12.0097 17.5056 12.0097 17.5069 12.0097C17.5555 12.0104 17.6021 12.0224 17.6449 12.0457C17.6454 12.046 17.6458 12.0462 17.6463 12.0465C17.6466 12.0467 17.647 12.0468 17.6473 12.047C17.6914 12.0716 17.729 12.1072 17.7564 12.1503C17.7568 12.1509 17.7572 12.1515 17.7575 12.1522C17.7577 12.1523 17.7574 12.152 17.7575 12.1522L19.2859 15.6967C19.3639 15.8807 19.5449 15.9997 19.7449 15.9997H22.7659C22.7703 15.9997 22.7746 15.9998 22.7789 16.0001C22.831 16.0028 22.8791 16.0218 22.9192 16.0559C22.9214 16.0579 22.9237 16.0598 22.9259 16.0619C22.9265 16.0624 22.9271 16.063 22.9277 16.0635C22.9277 16.0636 22.9276 16.0634 22.9277 16.0635C22.9733 16.1051 23.0004 16.1636 23.0028 16.225C23.0029 16.2255 23.0029 16.226 23.0029 16.2265C23.0029 16.2266 23.0029 16.2264 23.0029 16.2265C23.0059 16.2965 22.9769 16.3637 22.9249 16.4107L20.3249 18.7277C20.1629 18.8717 20.1129 19.1017 20.1989 19.2997L21.6359 22.6057C21.6367 22.6078 21.6376 22.6098 21.6384 22.6119C21.6659 22.683 21.6631 22.759 21.6357 22.8249C21.6079 22.8917 21.5548 22.948 21.4826 22.9784C21.4486 22.9924 21.4118 22.9997 21.3739 22.9997C21.3433 22.9997 21.3127 22.9947 21.2832 22.9848C21.2635 22.9783 21.2443 22.9695 21.2259 22.9587L17.7459 20.9977C17.7386 20.9937 17.7313 20.9898 17.7239 20.9861C17.6545 20.9517 17.5776 20.9337 17.4999 20.9337C17.4219 20.9337 17.3447 20.9518 17.275 20.9866C17.2679 20.9901 17.2608 20.9938 17.2539 20.9977L13.7699 22.9607C13.726 22.9866 13.6767 22.9996 13.6279 22.9997M13.6279 23.9997C13.8509 23.9997 14.0729 23.9407 14.2659 23.8307L17.4999 22.0077L20.7299 23.8277C20.8079 23.8725 20.8901 23.9088 20.9753 23.9363C21.1032 23.9775 21.2377 23.9987 21.3739 23.9987C21.5432 23.9987 21.7077 23.9664 21.8623 23.9026C21.8638 23.902 21.8654 23.9014 21.8669 23.9007C21.867 23.9007 21.8668 23.9007 21.8669 23.9007C22.1828 23.7687 22.4299 23.5207 22.5599 23.2027C22.6885 22.888 22.6889 22.542 22.559 22.2237C22.5577 22.2204 22.5563 22.2171 22.5549 22.2137L21.2603 19.2336L23.5889 17.1577C23.5892 17.1574 23.5895 17.1572 23.5898 17.1569C23.5916 17.1553 23.5933 17.1538 23.5951 17.1522C23.8657 16.9077 24.0132 16.5596 24.0011 16.1945C24.001 16.1926 24.001 16.1907 24.0009 16.1887C24.0008 16.1871 24.0008 16.1855 24.0007 16.184C23.9876 15.8573 23.849 15.5554 23.6101 15.3327C23.6091 15.3317 23.608 15.3307 23.6069 15.3297C23.6053 15.3282 23.6037 15.3268 23.6021 15.3253C23.5919 15.3159 23.5815 15.3067 23.5711 15.2976C23.3476 15.105 23.0683 14.9997 22.7799 14.9997L22.7399 15.0007H20.0748L18.6649 11.7317C18.6619 11.7247 18.6489 11.6987 18.6459 11.6927C18.6334 11.6696 18.6203 11.6469 18.6065 11.6247C18.4877 11.4332 18.3221 11.2765 18.1231 11.169C18.1227 11.1687 18.1222 11.1685 18.1218 11.1683C18.1208 11.1677 18.1199 11.1672 18.1189 11.1667C17.9309 11.0657 17.7189 11.0117 17.5069 11.0117C17.5056 11.0117 17.5042 11.0117 17.5029 11.0117C17.0367 11.0132 16.6048 11.2673 16.3594 11.6958C16.3524 11.7079 16.3456 11.7203 16.3389 11.7327L14.9279 15.0007H12.2759L12.2229 14.9997C11.8689 14.9997 11.5429 15.1477 11.3039 15.4157C10.8529 15.9247 10.8999 16.7057 11.4089 17.1567L13.7389 19.2317M13.286 23.9534C13.2869 23.9537 13.2878 23.9539 13.2887 23.9542L13.4382 23.4084" fill="black"/>
</g>
<defs>
<clipPath id="clip0_4680_48946">
<rect width="24" height="24" fill="white"/>
</clipPath>
</defs>
</svg>
