<svg width="18" height="19" viewBox="0 0 18 19" fill="none" xmlns="http://www.w3.org/2000/svg">
<g clip-path="url(#clip0_2422_49394)">
<path d="M1.125 14.001C0.50475 14.001 0 13.4962 0 12.876V1.62598C0 1.00573 0.50475 0.500977 1.125 0.500977H5.1615C5.5905 0.500977 5.976 0.739477 6.16725 1.12348L6.87825 2.54398C6.942 2.67148 7.07025 2.75023 7.2135 2.75098H14.625C15.2452 2.75098 15.75 3.25573 15.75 3.87598V7.62598C15.75 7.83298 15.582 8.00098 15.375 8.00098C15.168 8.00098 15 7.83223 15 7.62598V3.87598C15 3.66898 14.832 3.50098 14.625 3.50098H7.2135C6.7845 3.50023 6.399 3.26248 6.207 2.87848L5.49675 1.45798C5.43225 1.33048 5.304 1.25098 5.16075 1.25098H1.125C0.918 1.25098 0.75 1.41898 0.75 1.62598V12.876C0.75 13.083 0.918 13.251 1.125 13.251H6.375C6.582 13.251 6.75 13.419 6.75 13.626C6.75 13.833 6.582 14.001 6.375 14.001H1.125Z" fill="#0098FF"/>
<path d="M10.2217 18.4998C10.1377 18.4998 10.0529 18.4885 9.97042 18.4668C9.72142 18.4 9.51367 18.2403 9.38467 18.0175C9.23542 17.7595 9.21517 17.4408 9.32992 17.1648L10.3042 14.9238L8.55667 13.3675C8.17492 13.0293 8.13967 12.4435 8.47792 12.0618C8.65717 11.8608 8.90167 11.7498 9.16717 11.7498L9.20692 11.7505H11.1959L12.2542 9.29954C12.4357 8.96054 12.7694 8.75879 13.1302 8.75879C13.2892 8.75879 13.4482 8.79929 13.5892 8.87504C13.7572 8.96504 13.8937 9.10154 13.9844 9.26954C13.9867 9.27404 13.9964 9.29354 13.9987 9.29879L15.0554 11.7505H17.0549L17.0849 11.7498C17.3129 11.7498 17.5334 11.8375 17.7052 11.9973C17.8867 12.1653 17.9917 12.394 18.0007 12.6415C18.0112 12.919 17.8987 13.1838 17.6917 13.3683L15.9449 14.9245L16.9162 17.1603C17.0167 17.401 17.0174 17.6635 16.9199 17.902C16.8224 18.1405 16.6372 18.3265 16.4002 18.4255C16.2832 18.4743 16.1587 18.499 16.0304 18.499C15.8602 18.499 15.6937 18.4548 15.5474 18.3708L13.1249 17.0058L10.6994 18.373C10.5547 18.4555 10.3889 18.4998 10.2217 18.4998ZM9.17767 12.4998C9.12217 12.4998 9.07492 12.52 9.04042 12.559C9.00967 12.5935 8.99392 12.6385 8.99692 12.6858C8.99992 12.733 9.02017 12.775 9.05542 12.8065L11.0062 14.5443C11.1277 14.653 11.1652 14.8255 11.1007 14.974L10.0207 17.4588C9.99742 17.515 10.0027 17.5863 10.0349 17.6425C10.0634 17.692 10.1099 17.7273 10.1647 17.7423C10.1834 17.7475 10.2022 17.7498 10.2209 17.7498C10.2577 17.7498 10.2944 17.74 10.3274 17.7205L12.9404 16.2483C12.9967 16.2168 13.0604 16.2003 13.1249 16.2003C13.1894 16.2003 13.2532 16.2168 13.3094 16.2483L15.9194 17.719C15.9539 17.7393 15.9922 17.7498 16.0304 17.7498C16.0589 17.7498 16.0859 17.7445 16.1114 17.734C16.2209 17.6883 16.2719 17.563 16.2269 17.4543L15.1492 14.9748C15.0847 14.8263 15.1222 14.6538 15.2437 14.5458L17.1937 12.808C17.2327 12.7728 17.2544 12.7225 17.2522 12.67C17.2507 12.6235 17.2304 12.5793 17.1959 12.5478C17.1622 12.5163 17.1202 12.4998 17.0744 12.4998H14.8087C14.6587 12.4998 14.5229 12.4105 14.4644 12.2725L13.3184 9.61454C13.2974 9.58079 13.2682 9.55304 13.2337 9.53429C13.2007 9.51629 13.1647 9.50729 13.1272 9.50729C13.0439 9.50729 12.9674 9.55229 12.9284 9.62504L11.7869 12.2733C11.7277 12.4105 11.5927 12.4998 11.4427 12.4998H9.17767Z" fill="#0098FF"/>
</g>
<defs>
<clipPath id="clip0_2422_49394">
<rect width="18" height="18" fill="white" transform="translate(0 0.5)"/>
</clipPath>
</defs>
</svg>
