<svg width="24" height="25" viewBox="0 0 24 25" fill="none" xmlns="http://www.w3.org/2000/svg">
<path fill-rule="evenodd" clip-rule="evenodd" d="M0.43934 1.43543C0.720644 1.15413 1.10218 0.996094 1.5 0.996094H6.882C7.16049 0.996243 7.43371 1.07392 7.67056 1.22042C7.90731 1.36687 8.09863 1.57631 8.22312 1.8253L9.17112 3.7193C9.21261 3.80234 9.27656 3.87248 9.3555 3.92132C9.43445 3.97015 9.52544 3.99604 9.61827 3.99609H19.5C19.8978 3.99609 20.2794 4.15413 20.5607 4.43543C20.842 4.71674 21 5.09827 21 5.49609V10.4961C21 10.7722 20.7761 10.9961 20.5 10.9961C20.2239 10.9961 20 10.7722 20 10.4961V5.49609C20 5.36348 19.9473 5.23631 19.8536 5.14254C19.7598 5.04877 19.6326 4.99609 19.5 4.99609H9.618C9.33951 4.99594 9.06629 4.91827 8.82944 4.77177C8.59269 4.62532 8.40137 4.41588 8.27688 4.16689L7.32888 2.27289C7.28739 2.18985 7.22344 2.1197 7.1445 2.07087C7.06558 2.02205 6.97463 1.99616 6.88183 1.99609H1.5C1.36739 1.99609 1.24021 2.04877 1.14645 2.14254C1.05268 2.23631 1 2.36349 1 2.49609V17.4961C1 17.6287 1.05268 17.7559 1.14645 17.8496C1.24021 17.9434 1.36739 17.9961 1.5 17.9961H8.5C8.77614 17.9961 9 18.22 9 18.4961C9 18.7722 8.77614 18.9961 8.5 18.9961H1.5C1.10218 18.9961 0.720645 18.8381 0.43934 18.5568C0.158035 18.2754 0 17.8939 0 17.4961V2.49609C0 2.09827 0.158035 1.71674 0.43934 1.43543Z" fill="#BC0055"/>
<path d="M18.646 12.6886L18.206 12.9261L18.6651 12.7282L20.0739 15.9961H22.7318C22.9822 15.9888 23.229 16.0579 23.4394 16.1942C23.6527 16.3324 23.8182 16.5332 23.9133 16.769C24.0083 17.0048 24.0282 17.2642 23.9703 17.5118C23.9124 17.7594 23.7793 17.9832 23.5896 18.1525L21.2598 20.2277L22.5585 23.2157C22.6619 23.4637 22.685 23.738 22.6244 23.9998C22.5639 24.2616 22.4228 24.4979 22.2209 24.6754C22.0191 24.8528 21.7667 24.9625 21.4992 24.989C21.2327 25.0154 20.9647 24.9579 20.7325 24.8246L17.5 23.003L14.2675 24.8246C14.0353 24.9579 13.7672 25.0154 13.5008 24.989C13.2333 24.9625 12.9809 24.8528 12.7791 24.6754C12.5772 24.4979 12.4361 24.2616 12.3755 23.9998C12.315 23.738 12.3381 23.4637 12.4415 23.2157L12.4444 23.2088L13.7402 20.2277L11.4109 18.1529C11.2208 17.9843 11.0873 17.7612 11.0288 17.5139C10.9702 17.2664 10.9895 17.0068 11.0841 16.7707C11.1787 16.5346 11.344 16.3335 11.5573 16.1949C11.7676 16.0582 12.0145 15.9889 12.2651 15.9961H14.9282L16.3389 12.728C16.3447 12.7146 16.3511 12.7015 16.358 12.6886C16.4694 12.4823 16.6345 12.3099 16.8359 12.1897C17.0373 12.0695 17.2675 12.0061 17.502 12.0061C17.7365 12.0061 17.9667 12.0695 18.1681 12.1897C18.3695 12.3099 18.5346 12.4823 18.646 12.6886Z" fill="#BC0055"/>
</svg>
