<svg width="16" height="16" viewBox="0 0 16 16" fill="none" xmlns="http://www.w3.org/2000/svg">
<path d="M8 4.25C8.19778 4.25 8.39112 4.30865 8.55557 4.41853C8.72002 4.52841 8.8482 4.68459 8.92388 4.86732C8.99957 5.05004 9.01937 5.25111 8.98078 5.44509C8.9422 5.63907 8.84696 5.81726 8.70711 5.95711C8.56726 6.09696 8.38907 6.1922 8.19509 6.23079C8.00111 6.26937 7.80004 6.24957 7.61732 6.17388C7.43459 6.09819 7.27841 5.97002 7.16853 5.80557C7.05865 5.64112 7 5.44778 7 5.25C7 4.98478 7.10536 4.73043 7.29289 4.54289C7.48043 4.35536 7.73478 4.25 8 4.25Z" fill="#333333"/>
<path d="M8.12465 10.7491V8.12488C8.12465 8.02546 8.08516 7.93011 8.01485 7.8598C7.94455 7.7895 7.84919 7.75 7.74977 7.75H7" stroke="#333333" stroke-width="1.34958" stroke-linecap="round" stroke-linejoin="round"/>
<path d="M7 10.75H9.2493" stroke="#333333" stroke-width="1.34958" stroke-linecap="round" stroke-linejoin="round"/>
<path d="M15 8C15 11.866 11.866 15 8 15C4.13401 15 1 11.866 1 8C1 4.13401 4.13401 1 8 1C11.866 1 15 4.13401 15 8Z" stroke="#333333" stroke-width="2" stroke-linecap="round" stroke-linejoin="round"/>
</svg>
