<svg width="24" height="24" viewBox="0 0 24 24" fill="none" xmlns="http://www.w3.org/2000/svg">
<g clip-path="url(#clip0_1806_64640)">
<path fill-rule="evenodd" clip-rule="evenodd" d="M10.75 18.75C10.75 18.4739 10.9739 18.25 11.25 18.25H15C15.2761 18.25 15.5 18.4739 15.5 18.75C15.5 19.0261 15.2761 19.25 15 19.25H11.75V22.5C11.75 22.7761 11.5261 23 11.25 23C10.9739 23 10.75 22.7761 10.75 22.5V18.75Z" fill="black"/>
<path fill-rule="evenodd" clip-rule="evenodd" d="M11.8309 18.2593C12.1019 18.2062 12.3646 18.3829 12.4177 18.6539C12.6323 19.7498 13.2027 20.7442 14.0402 21.4829C14.8777 22.2216 15.9356 22.6632 17.0497 22.7393C18.1639 22.8153 19.272 22.5215 20.2021 21.9035C21.1322 21.2854 21.8324 20.3777 22.1939 19.3211C22.2833 19.0599 22.5676 18.9205 22.8289 19.0099C23.0901 19.0993 23.2295 19.3836 23.1401 19.6449C22.7072 20.9098 21.869 21.9965 20.7555 22.7364C19.642 23.4763 18.3155 23.828 16.9817 23.7369C15.6479 23.6459 14.3814 23.1172 13.3787 22.2329C12.3761 21.3486 11.6933 20.1581 11.4363 18.8461C11.3832 18.5751 11.5599 18.3124 11.8309 18.2593Z" fill="black"/>
<path fill-rule="evenodd" clip-rule="evenodd" d="M23.25 11.5C23.5261 11.5 23.75 11.7239 23.75 12V15.75C23.75 16.0261 23.5261 16.25 23.25 16.25H19.5C19.2239 16.25 19 16.0261 19 15.75C19 15.4739 19.2239 15.25 19.5 15.25H22.75V12C22.75 11.7239 22.9739 11.5 23.25 11.5Z" fill="black"/>
<path fill-rule="evenodd" clip-rule="evenodd" d="M17.4503 11.7607C16.3361 11.6847 15.228 11.9785 14.2979 12.5965C13.3678 13.2146 12.6676 14.1223 12.3061 15.1789C12.2167 15.4401 11.9324 15.5795 11.6711 15.4901C11.4099 15.4007 11.2705 15.1164 11.3599 14.8551C11.7928 13.5902 12.631 12.5035 13.7445 11.7636C14.858 11.0237 16.1845 10.672 17.5183 10.7631C18.8521 10.8541 20.1186 11.3828 21.1213 12.2671C22.1239 13.1514 22.8067 14.3419 23.0637 15.6539C23.1168 15.9249 22.9401 16.1876 22.6691 16.2407C22.3981 16.2938 22.1354 16.1171 22.0823 15.8461C21.8677 14.7502 21.2973 13.7558 20.4598 13.0171C19.6223 12.2784 18.5644 11.8368 17.4503 11.7607Z" fill="black"/>
<path fill-rule="evenodd" clip-rule="evenodd" d="M3.25 6.75C3.25 6.47386 3.47386 6.25 3.75 6.25H14.25C14.5261 6.25 14.75 6.47386 14.75 6.75C14.75 7.02614 14.5261 7.25 14.25 7.25H3.75C3.47386 7.25 3.25 7.02614 3.25 6.75Z" fill="black"/>
<path fill-rule="evenodd" clip-rule="evenodd" d="M3.25 11.25C3.25 10.9739 3.47386 10.75 3.75 10.75H9.75C10.0261 10.75 10.25 10.9739 10.25 11.25C10.25 11.5261 10.0261 11.75 9.75 11.75H3.75C3.47386 11.75 3.25 11.5261 3.25 11.25Z" fill="black"/>
<path fill-rule="evenodd" clip-rule="evenodd" d="M3.25 15.75C3.25 15.4739 3.47386 15.25 3.75 15.25H7.5C7.77614 15.25 8 15.4739 8 15.75C8 16.0261 7.77614 16.25 7.5 16.25H3.75C3.47386 16.25 3.25 16.0261 3.25 15.75Z" fill="black"/>
<path fill-rule="evenodd" clip-rule="evenodd" d="M2.25 1.25C1.98478 1.25 1.73043 1.35536 1.54289 1.54289C1.35536 1.73043 1.25 1.98478 1.25 2.25V18.75C1.25 19.0152 1.35536 19.2696 1.54289 19.4571C1.73043 19.6446 1.98478 19.75 2.25 19.75H7.5C7.77614 19.75 8 19.9739 8 20.25C8 20.5261 7.77614 20.75 7.5 20.75H2.25C1.71957 20.75 1.21086 20.5393 0.835786 20.1642C0.460714 19.7891 0.25 19.2804 0.25 18.75V2.25C0.25 1.71957 0.460714 1.21086 0.835786 0.835786C1.21086 0.460714 1.71957 0.25 2.25 0.25H12.879C13.4091 0.250113 13.9175 0.460642 14.2924 0.835333L17.1646 3.70745C17.5392 4.08238 17.7499 4.59083 17.75 5.12089V7.5C17.75 7.77614 17.5261 8 17.25 8C16.9739 8 16.75 7.77614 16.75 7.5V5.12111C16.7499 4.85617 16.6447 4.60198 16.4574 4.41455M16.4574 4.41455L13.5856 1.54267C13.3981 1.35542 13.1439 1.25008 12.879 1.25H2.25" fill="black"/>
</g>
<defs>
<clipPath id="clip0_1806_64640">
<rect width="24" height="24" fill="white"/>
</clipPath>
</defs>
</svg>
