<svg width="16" height="16" viewBox="0 0 16 16" fill="none" xmlns="http://www.w3.org/2000/svg">
<path fill-rule="evenodd" clip-rule="evenodd" d="M16 8C16 12.4183 12.4183 16 8 16C3.58172 16 0 12.4183 0 8C0 3.58172 3.58172 0 8 0C12.4183 0 16 3.58172 16 8ZM11.5771 4.42288C11.7854 4.63116 11.7854 4.96884 11.5771 5.17712L8.75425 8L11.5771 10.8229C11.7854 11.0312 11.7854 11.3688 11.5771 11.5771C11.3688 11.7854 11.0312 11.7854 10.8229 11.5771L8 8.75425L5.17712 11.5771C4.96884 11.7854 4.63116 11.7854 4.42288 11.5771C4.2146 11.3688 4.2146 11.0312 4.42288 10.8229L7.24575 8L4.42288 5.17712C4.2146 4.96884 4.2146 4.63116 4.42288 4.42288C4.63116 4.2146 4.96884 4.2146 5.17712 4.42288L8 7.24575L10.8229 4.42288C11.0312 4.2146 11.3688 4.2146 11.5771 4.42288Z" fill="black"/>
</svg>
