<svg width="24" height="24" viewBox="0 0 24 24" fill="none" xmlns="http://www.w3.org/2000/svg">
<g clip-path="url(#clip0_4676_48784)">
<path d="M23.5005 20C23.3155 20 23.1465 19.899 23.0595 19.735C20.7885 15.476 17.5595 14.582 15.2515 14.582C14.2385 14.582 13.4245 14.756 13.0005 14.87V18.499C13.0005 18.691 12.8875 18.869 12.7135 18.951C12.6485 18.982 12.5745 18.999 12.5005 18.999C12.3845 18.999 12.2715 18.958 12.1825 18.884L3.68249 11.884C3.56649 11.791 3.50049 11.65 3.50049 11.5C3.50049 11.35 3.56649 11.209 3.68249 11.114L12.1825 4.114C12.2725 4.04 12.3855 4 12.5005 4C12.5745 4 12.6475 4.017 12.7145 4.048C12.8875 4.13 13.0005 4.308 13.0005 4.5V8C14.4035 8.037 18.0925 8.4 20.8505 11.036C22.9405 13.033 24.0005 15.881 24.0005 19.501C24.0005 19.731 23.8445 19.93 23.6215 19.986C23.5835 19.995 23.5425 20 23.5005 20ZM15.1935 13.615C17.4125 13.615 20.4745 14.328 22.8855 17.584C22.5805 15.154 21.6655 13.197 20.1595 11.758C17.4095 9.13 13.4485 8.997 12.6815 8.997C12.5875 8.997 12.5325 8.999 12.5235 8.999C12.5235 8.999 12.5225 8.999 12.5215 8.999C12.3685 8.999 12.2475 8.951 12.1535 8.86C12.0575 8.768 12.0005 8.636 12.0005 8.5V5.56L4.78749 11.5L12.0005 17.441V14.501C12.0005 14.29 12.1345 14.101 12.3325 14.03C12.3425 14.025 13.5225 13.615 15.1935 13.615Z" fill="black"/>
<path d="M9 19C8.884 19 8.771 18.959 8.682 18.885L0.182 11.886C0.066 11.791 0 11.65 0 11.5C0 11.35 0.066 11.209 0.182 11.114L8.682 4.114C8.771 4.041 8.884 4 9 4C9.15 4 9.291 4.066 9.386 4.182C9.561 4.395 9.531 4.711 9.318 4.886L1.287 11.5L9.318 18.114C9.421 18.199 9.485 18.319 9.498 18.452C9.511 18.585 9.471 18.715 9.386 18.818C9.291 18.934 9.15 19 9 19Z" fill="black"/>
</g>
<defs>
<clipPath id="clip0_4676_48784">
<rect width="24" height="24" fill="white"/>
</clipPath>
</defs>
</svg>
