<svg width="25" height="18" viewBox="0 0 25 18" fill="none" xmlns="http://www.w3.org/2000/svg">
<path d="M19.0003 0.165344H13.909C13.688 0.165344 13.476 0.253142 13.3197 0.409422C13.1635 0.565702 13.0757 0.777664 13.0757 0.998678C13.0757 1.21969 13.1635 1.43165 13.3197 1.58793C13.476 1.74421 13.688 1.83201 13.909 1.83201H14.633C14.6628 1.83202 14.6921 1.84004 14.7178 1.85524C14.7435 1.87044 14.7646 1.89226 14.779 1.91842C14.7934 1.94458 14.8005 1.97411 14.7995 2.00395C14.7986 2.03378 14.7897 2.06281 14.7737 2.08801L7.18699 14.0113C7.15683 14.0586 7.11524 14.0975 7.06606 14.1244C7.01689 14.1513 6.96172 14.1654 6.90566 14.1653H5.00033C4.77931 14.1653 4.56735 14.2531 4.41107 14.4094C4.25479 14.5657 4.16699 14.7777 4.16699 14.9987C4.16699 15.2197 4.25479 15.4317 4.41107 15.5879C4.56735 15.7442 4.77931 15.832 5.00033 15.832H10.0917C10.3127 15.832 10.5246 15.7442 10.6809 15.5879C10.8372 15.4317 10.925 15.2197 10.925 14.9987C10.925 14.7777 10.8372 14.5657 10.6809 14.4094C10.5246 14.2531 10.3127 14.1653 10.0917 14.1653H9.36766C9.33781 14.1653 9.30851 14.1573 9.28282 14.1421C9.25714 14.1269 9.236 14.1051 9.22163 14.0789C9.20725 14.0528 9.20017 14.0232 9.20111 13.9934C9.20206 13.9636 9.21099 13.9345 9.22699 13.9093L16.8137 1.98668C16.8437 1.9393 16.8853 1.90028 16.9345 1.87324C16.9837 1.84621 17.0389 1.83202 17.095 1.83201H19.0003C19.2213 1.83201 19.4333 1.74421 19.5896 1.58793C19.7459 1.43165 19.8337 1.21969 19.8337 0.998678C19.8337 0.777664 19.7459 0.565702 19.5896 0.409422C19.4333 0.253142 19.2213 0.165344 19.0003 0.165344V0.165344Z" fill="#666666"/>
</svg>
