<svg width="24" height="24" viewBox="0 0 24 24" fill="none" xmlns="http://www.w3.org/2000/svg">
<path d="M11.0574 6.85714H14.7459L10.6885 24H7L11.0574 6.85714ZM14.1557 0C13.791 0 13.4344 0.100541 13.1311 0.288909C12.8278 0.477278 12.5915 0.745012 12.4519 1.05826C12.3123 1.3715 12.2758 1.71619 12.3469 2.04873C12.4181 2.38127 12.5937 2.68672 12.8516 2.92647C13.1096 3.16622 13.4382 3.32949 13.7959 3.39563C14.1537 3.46178 14.5245 3.42783 14.8615 3.29808C15.1985 3.16833 15.4865 2.9486 15.6892 2.66669C15.8918 2.38478 16 2.05334 16 1.71429C16 1.25963 15.8057 0.823594 15.4598 0.502103C15.114 0.180612 14.6449 0 14.1557 0Z" fill="black"/>
</svg>
