<svg width="16" height="16" viewBox="0 0 16 16" fill="none" xmlns="http://www.w3.org/2000/svg">
<g clip-path="url(#clip0_47_5850)">
<path fill-rule="evenodd" clip-rule="evenodd" d="M2.55319 4.17021C2.55319 3.27716 3.27716 2.55319 4.17021 2.55319C5.06327 2.55319 5.78723 3.27716 5.78723 4.17021C5.78723 5.06327 5.06327 5.78723 4.17021 5.78723C3.27716 5.78723 2.55319 5.06327 2.55319 4.17021ZM4.17021 3.23404C3.65318 3.23404 3.23404 3.65318 3.23404 4.17021C3.23404 4.68725 3.65318 5.10638 4.17021 5.10638C4.68725 5.10638 5.10638 4.68725 5.10638 4.17021C5.10638 3.65318 4.68725 3.23404 4.17021 3.23404Z" fill="#666666"/>
<path fill-rule="evenodd" clip-rule="evenodd" d="M0 1.3617C0 0.609655 0.609655 0 1.3617 0H14.6383C15.3903 0 16 0.609655 16 1.3617V14.6383C16 15.3903 15.3903 16 14.6383 16H1.3617C0.609655 16 0 15.3903 0 14.6383V1.3617ZM0.680851 1.3617C0.680851 0.985678 0.985678 0.680851 1.3617 0.680851H14.6383C15.0143 0.680851 15.3191 0.985678 15.3191 1.3617V11.234H4.08513L6.03379 8.63583C6.0923 8.55775 6.16692 8.49317 6.25257 8.44645C6.33823 8.39973 6.43292 8.37196 6.53024 8.36503C6.62756 8.3581 6.72524 8.37217 6.81665 8.40628C6.90806 8.44039 6.99108 8.49376 7.06007 8.56276L7.7593 9.26199C7.82908 9.33177 7.92571 9.36784 8.02415 9.36085C8.12259 9.35385 8.21315 9.30448 8.27236 9.22553L10.5192 6.22979C10.5826 6.14523 10.6648 6.0766 10.7594 6.02933C10.8539 5.98206 10.9581 5.95745 11.0639 5.95745C11.1695 5.95745 11.2738 5.98206 11.3683 6.02933C11.4629 6.0766 11.5451 6.14523 11.6085 6.22979L13.4264 8.65362C13.5392 8.80403 13.7526 8.83451 13.903 8.7217C14.0534 8.60889 14.0839 8.39552 13.9711 8.24511L12.1532 5.82128C12.0264 5.65216 11.8619 5.51489 11.6728 5.42035C11.4837 5.32581 11.2752 5.2766 11.0639 5.2766C10.8525 5.2766 10.644 5.32581 10.4549 5.42035C10.2658 5.51489 10.1013 5.65216 9.97449 5.82128L7.96319 8.50301L7.5415 8.08132C7.40353 7.94334 7.23751 7.83662 7.0547 7.7684C6.87187 7.70017 6.67653 7.67204 6.48188 7.6859C6.28724 7.69976 6.09785 7.75529 5.92654 7.84873C5.75526 7.94216 5.606 8.07138 5.48897 8.22749L3.23406 11.234H0.680851V1.3617ZM15.3191 11.9149V14.6383C15.3191 15.0143 15.0143 15.3191 14.6383 15.3191H1.3617C0.985678 15.3191 0.680851 15.0143 0.680851 14.6383V11.9149H3.40032C3.40278 11.9149 3.40525 11.9149 3.40771 11.9149H15.3191Z" fill="#666666"/>
</g>
<defs>
<clipPath id="clip0_47_5850">
<rect width="16" height="16" fill="white"/>
</clipPath>
</defs>
</svg>
