<svg width="151" height="50" viewBox="0 0 151 50" fill="none" xmlns="http://www.w3.org/2000/svg">
<path opacity="0.5" fill-rule="evenodd" clip-rule="evenodd" d="M16.5547 8.06736C16.5547 6.67738 17.9291 5.68399 19.2866 6.09277L42.5089 13.0852C43.3947 13.3519 43.9991 14.1528 43.9991 15.0598V34.4952C43.9991 35.8852 42.6247 36.8785 41.2672 36.4698L18.045 29.4773C17.1591 29.2106 16.5547 28.4097 16.5547 27.5027V8.06736Z" fill="#FF9ABF"/>
<path opacity="0.8" fill-rule="evenodd" clip-rule="evenodd" d="M11.2773 11.3729C11.2773 9.98292 12.6517 8.98953 14.0093 9.39831L37.2315 16.3908C38.1173 16.6575 38.7218 17.4584 38.7218 18.3654V37.8007C38.7218 39.1907 37.3474 40.1841 35.9898 39.7753L12.7676 32.7829C11.8818 32.5161 11.2773 31.7152 11.2773 30.8083V11.3729Z" fill="#F789B2"/>
<path fill-rule="evenodd" clip-rule="evenodd" d="M6 15.5049C6 14.1149 7.3744 13.1215 8.73196 13.5303L31.9542 20.5227C32.84 20.7894 33.4444 21.5903 33.4444 22.4973V41.9327C33.4444 43.3227 32.07 44.316 30.7125 43.9073L7.49026 36.9148C6.60446 36.6481 6 35.8472 6 34.9402V15.5049Z" fill="#FF5B97"/>
<mask id="mask0_19619_6400" style="mask-type:luminance" maskUnits="userSpaceOnUse" x="6" y="13" width="28" height="31">
<path fill-rule="evenodd" clip-rule="evenodd" d="M6 15.5049C6 14.1149 7.3744 13.1215 8.73196 13.5303L31.9542 20.5227C32.84 20.7894 33.4444 21.5903 33.4444 22.4973V41.9327C33.4444 43.3227 32.07 44.316 30.7125 43.9073L7.49026 36.9148C6.60446 36.6481 6 35.8472 6 34.9402V15.5049Z" fill="white"/>
</mask>
<g mask="url(#mask0_19619_6400)">
<g style="mix-blend-mode:multiply">
<path fill-rule="evenodd" clip-rule="evenodd" d="M6 12L33.4444 20.2638L19.6452 32.2948C18.615 33.193 16.9956 32.8984 16.364 31.6979L6 12Z" fill="#F2357A"/>
</g>
</g>
<path d="M60 7.6535H62.5116V9.35163H60V7.6535ZM60 10.1302H62.5116V16.6407H60V10.1302ZM63.9512 10.1302H66.29V11.1908C66.6397 10.7575 66.9935 10.448 67.3514 10.262C67.7093 10.076 68.1454 9.98306 68.6597 9.98306C69.3549 9.98306 69.899 10.1884 70.2919 10.5992C70.6848 11.0099 70.8812 11.6444 70.8812 12.5027V16.6407H68.3573V13.0605C68.3573 12.6518 68.2812 12.3627 68.129 12.1931C67.9768 12.0235 67.7628 11.9387 67.4872 11.9387C67.1828 11.9387 66.9359 12.0531 66.7467 12.282C66.5574 12.5108 66.4628 12.9216 66.4628 13.5142V16.6407H63.9512V10.1302ZM75.0114 10.1302H76.2086V11.9571H75.0114V16.6407H72.4936V11.9571H71.5556V10.1302H72.4936V9.83593C72.4936 9.57028 72.5224 9.27807 72.58 8.95928C72.6376 8.6405 72.7456 8.37996 72.904 8.17766C73.0624 7.97535 73.2846 7.81187 73.5705 7.68722C73.8564 7.56257 74.275 7.50024 74.8263 7.50024L75.0436 7.50387C75.468 7.51717 76.0353 7.56705 76.7455 7.6535L76.4678 9.16159C76.1674 9.11254 75.9247 9.08802 75.7396 9.08802C75.5133 9.08802 75.3508 9.12583 75.2521 9.20144C75.1533 9.27704 75.0834 9.39659 75.0423 9.56007C75.0217 9.64998 75.0114 9.84002 75.0114 10.1302ZM76.4448 13.4038C76.4448 12.4107 76.7822 11.5923 77.4569 10.9486C78.1316 10.3049 79.0428 9.98306 80.1906 9.98306C81.503 9.98306 82.4945 10.3611 83.1651 11.1172C83.704 11.7261 83.9735 12.4761 83.9735 13.3671C83.9735 14.3684 83.6392 15.1888 82.9707 15.8284C82.3021 16.468 81.3775 16.7878 80.1968 16.7878C79.1436 16.7878 78.292 16.5222 77.642 15.9909C76.8439 15.3329 76.4448 14.4705 76.4448 13.4038ZM78.9626 13.3977C78.9626 13.9781 79.0809 14.4072 79.3174 14.6851C79.554 14.963 79.8512 15.102 80.2091 15.102C80.5712 15.102 80.8684 14.9651 81.1009 14.6912C81.3333 14.4174 81.4495 13.9781 81.4495 13.3732C81.4495 12.8092 81.3323 12.3893 81.0978 12.1134C80.8633 11.8375 80.5732 11.6996 80.2277 11.6996C79.8615 11.6996 79.5591 11.8396 79.3205 12.1195C79.0819 12.3995 78.9626 12.8255 78.9626 13.3977ZM85.0366 10.1302H87.3816V11.0804C87.719 10.684 88.0594 10.402 88.4029 10.2344C88.7464 10.0668 89.1609 9.98306 89.6464 9.98306C90.1689 9.98306 90.5823 10.075 90.8867 10.2589C91.1912 10.4428 91.4401 10.7167 91.6334 11.0804C92.0284 10.6554 92.3883 10.3662 92.7134 10.213C93.0384 10.0597 93.4395 9.98306 93.9167 9.98306C94.6202 9.98306 95.1694 10.1905 95.5644 10.6053C95.9593 11.0201 96.1568 11.6689 96.1568 12.5517V16.6407H93.639V12.9318C93.639 12.6375 93.5814 12.4189 93.4662 12.2758C93.2975 12.0511 93.0877 11.9387 92.8368 11.9387C92.5406 11.9387 92.302 12.0449 92.1209 12.2574C91.9399 12.47 91.8494 12.8112 91.8494 13.2812V16.6407H89.3317V13.0544C89.3317 12.7683 89.3152 12.5742 89.2823 12.472C89.2288 12.3085 89.1362 12.1767 89.0046 12.0766C88.8729 11.9765 88.7187 11.9264 88.5418 11.9264C88.2538 11.9264 88.0172 12.0347 87.8321 12.2513C87.647 12.4679 87.5544 12.8235 87.5544 13.318V16.6407H85.0366V10.1302ZM99.7809 12.2391L97.3804 11.9877C97.4709 11.5708 97.6015 11.2429 97.7723 11.0038C97.943 10.7647 98.1888 10.5573 98.5097 10.3815C98.7401 10.2548 99.0569 10.1568 99.46 10.0873C99.8632 10.0178 100.299 9.98306 100.768 9.98306C101.521 9.98306 102.126 10.025 102.583 10.1087C103.039 10.1925 103.42 10.3672 103.724 10.6329C103.938 10.8168 104.107 11.0773 104.23 11.4145C104.354 11.7517 104.415 12.0735 104.415 12.3801V15.2552C104.415 15.5617 104.435 15.8019 104.474 15.9755C104.513 16.1492 104.598 16.371 104.73 16.6407H102.373C102.278 16.4731 102.216 16.3454 102.188 16.2575C102.159 16.1697 102.13 16.0317 102.101 15.8437C101.772 16.1584 101.445 16.3832 101.12 16.5181C100.676 16.6979 100.159 16.7878 99.5711 16.7878C98.7894 16.7878 98.196 16.608 97.7908 16.2484C97.3855 15.8887 97.1829 15.4453 97.1829 14.9181C97.1829 14.4235 97.329 14.0169 97.6211 13.6981C97.8923 13.4021 98.3764 13.1766 99.0733 13.0215L100.403 12.7471C100.708 12.6812 100.931 12.6294 101.071 12.5916C101.35 12.5159 101.647 12.4168 101.959 12.2942C101.959 11.9877 101.896 11.7731 101.768 11.6505C101.64 11.5279 101.416 11.4666 101.095 11.4666C100.684 11.4666 100.375 11.532 100.17 11.6628C100.009 11.765 99.8797 11.9571 99.7809 12.2391ZM101.959 13.551C101.7 13.6429 101.433 13.7268 101.157 13.8027L100.879 13.8759C100.369 14.0108 100.046 14.1436 99.9105 14.2744C99.7706 14.4092 99.7007 14.5625 99.7007 14.7341C99.7007 14.9303 99.7696 15.0907 99.9074 15.2154C100.045 15.34 100.248 15.4024 100.515 15.4024C100.795 15.4024 101.055 15.3349 101.296 15.2001C101.537 15.0652 101.707 14.9007 101.808 14.7066C101.909 14.5124 101.959 14.2601 101.959 13.9494V13.551ZM105.756 10.1302H108.095V11.1908C108.445 10.7575 108.799 10.448 109.156 10.262C109.514 10.076 109.95 9.98306 110.465 9.98306C111.16 9.98306 111.704 10.1884 112.097 10.5992C112.49 11.0099 112.686 11.6444 112.686 12.5027V16.6407H110.162V13.0605C110.162 12.6518 110.086 12.3627 109.934 12.1931C109.782 12.0235 109.568 11.9387 109.292 11.9387C108.988 11.9387 108.741 12.0531 108.552 12.282C108.362 12.5108 108.268 12.9216 108.268 13.5142V16.6407H105.756V10.1302ZM114.114 7.6535H116.625V9.35163H114.114V7.6535ZM114.114 10.1302H116.625V16.6407H114.114V10.1302ZM120.354 12.2391L117.954 11.9877C118.044 11.5708 118.175 11.2429 118.345 11.0038C118.516 10.7647 118.762 10.5573 119.083 10.3815C119.313 10.2548 119.63 10.1568 120.033 10.0873C120.436 10.0178 120.873 9.98306 121.342 9.98306C122.094 9.98306 122.699 10.025 123.156 10.1087C123.612 10.1925 123.993 10.3672 124.297 10.6329C124.511 10.8168 124.68 11.0773 124.803 11.4145C124.927 11.7517 124.989 12.0735 124.989 12.3801V15.2552C124.989 15.5617 125.008 15.8019 125.047 15.9755C125.086 16.1492 125.172 16.371 125.303 16.6407H122.946L122.862 16.4864C122.814 16.3924 122.78 16.3161 122.761 16.2575C122.732 16.1697 122.703 16.0317 122.674 15.8437C122.345 16.1584 122.018 16.3832 121.693 16.5181C121.249 16.6979 120.733 16.7878 120.144 16.7878C119.363 16.7878 118.769 16.608 118.364 16.2484C117.959 15.8887 117.756 15.4453 117.756 14.9181C117.756 14.4235 117.902 14.0169 118.194 13.6981C118.466 13.4021 118.95 13.1766 119.647 13.0215L120.976 12.7471C121.281 12.6812 121.504 12.6294 121.644 12.5916C121.924 12.5159 122.22 12.4168 122.533 12.2942C122.533 11.9877 122.469 11.7731 122.341 11.6505C122.214 11.5279 121.989 11.4666 121.669 11.4666C121.257 11.4666 120.949 11.532 120.743 11.6628C120.582 11.765 120.453 11.9571 120.354 12.2391ZM122.533 13.551C122.273 13.6429 122.006 13.7268 121.731 13.8027L121.453 13.8759C120.942 14.0108 120.62 14.1436 120.484 14.2744C120.344 14.4092 120.274 14.5625 120.274 14.7341C120.274 14.9303 120.343 15.0907 120.481 15.2154C120.618 15.34 120.821 15.4024 121.089 15.4024C121.368 15.4024 121.628 15.3349 121.869 15.2001C122.11 15.0652 122.281 14.9007 122.381 14.7066C122.482 14.5124 122.533 14.2601 122.533 13.9494V13.551ZM126.329 7.6535H128.897V12.2881L130.773 10.1302H133.864L131.513 12.4107L134 16.6407H131.168L129.841 14.0291L128.897 14.9487V16.6407H126.329V7.6535Z" fill="#0098FF"/>
<path d="M140.404 36.5478C140.596 38.9478 142.276 40.1238 143.908 40.1238C145.396 40.1238 146.572 39.5238 147.076 38.3238H149.884C149.284 40.3878 147.364 42.4998 144.028 42.4998C139.876 42.4998 137.5 39.3318 137.5 35.6358C137.5 31.7478 140.164 28.9878 143.836 28.9878C147.796 28.9878 150.268 32.2038 150.028 36.5478H140.404ZM140.404 34.4598H147.124C147.052 32.4438 145.516 31.2198 143.836 31.2198C142.492 31.2198 140.644 32.0118 140.404 34.4598Z" fill="#FAFAFA"/>
<path d="M130.615 25.8678H133.471V29.2758H136.063V31.3398H133.471V38.3718C133.471 39.6918 133.783 40.0038 135.007 40.0038H136.039V42.1878H133.927C131.167 42.1878 130.615 41.4438 130.615 38.8038V31.3398H128.695V29.2758H130.615V25.8678Z" fill="#FAFAFA"/>
<path d="M126.993 24.7878V27.6678H124.137V24.7878H126.993ZM126.993 29.2758V42.1878H124.137V29.2758H126.993Z" fill="#FAFAFA"/>
<path d="M113.759 39.6198H122.519V42.1878H110.711V24.7878H113.759V39.6198Z" fill="#FAFAFA"/>
<path d="M101.821 42.1878H98.9648V24.7878H101.821V42.1878Z" fill="#FAFAFA"/>
<path d="M95.7505 24.7878V27.6678H92.8945V24.7878H95.7505ZM95.7505 29.2758V42.1878H92.8945V29.2758H95.7505Z" fill="#FAFAFA"/>
<path d="M78.4629 38.6358C78.4629 35.4198 82.4229 34.6038 87.1509 34.1238V33.8838C87.1509 31.6758 85.8789 31.0038 84.4629 31.0038C83.0229 31.0038 81.9429 31.7718 81.8709 33.3318H79.0629C79.2549 30.6918 81.4389 28.8918 84.5589 28.8918C87.6549 28.8918 90.0789 30.3078 90.0069 34.4358C90.0069 35.0838 89.9589 36.5958 89.9589 37.7718C89.9589 39.4038 90.1029 41.1078 90.3429 42.1878H87.7269C87.6309 41.6358 87.5349 41.3238 87.4869 40.4358C86.6709 41.8278 85.1349 42.4998 83.2389 42.4998C80.4309 42.4998 78.4629 40.9878 78.4629 38.6358ZM87.2229 36.1158C83.1429 36.4998 81.4869 37.0758 81.4869 38.5638C81.4869 39.6918 82.4229 40.3638 83.8629 40.3638C85.9749 40.3638 87.2229 39.2838 87.2229 37.0998V36.1158Z" fill="#FAFAFA"/>
<path d="M65.392 42.1878L60.976 28.0998V42.1878H58V24.7878H62.728L66.952 38.6598L71.152 24.7878H75.88V42.1878H72.904V28.0998L68.488 42.1878H65.392Z" fill="#FAFAFA"/>
</svg>
