<svg width="176" height="64" viewBox="0 0 176 64" fill="none" xmlns="http://www.w3.org/2000/svg">
<path opacity="0.5" fill-rule="evenodd" clip-rule="evenodd" d="M21.1911 10.3263C21.1911 8.5471 22.9503 7.27556 24.688 7.79879L54.4125 16.7491C55.5463 17.0905 56.32 18.1157 56.32 19.2766V44.1539C56.32 45.9331 54.5608 47.2046 52.8231 46.6814L23.0986 37.7311C21.9648 37.3896 21.1911 36.3645 21.1911 35.2036V10.3263Z" fill="#FF9ABF"/>
<path opacity="0.8" fill-rule="evenodd" clip-rule="evenodd" d="M14.4355 14.5574C14.4355 12.7782 16.1948 11.5066 17.9325 12.0299L47.6569 20.9802C48.7908 21.3216 49.5645 22.3468 49.5645 23.5077V48.385C49.5645 50.1642 47.8052 51.4357 46.0676 50.9125L16.3431 41.9621C15.2093 41.6207 14.4355 40.5956 14.4355 39.4346V14.5574Z" fill="#F789B2"/>
<path fill-rule="evenodd" clip-rule="evenodd" d="M7.67999 19.8463C7.67999 18.0671 9.43923 16.7956 11.1769 17.3188L40.9014 26.2692C42.0352 26.6106 42.8089 27.6357 42.8089 28.7966V53.6739C42.8089 55.4531 41.0497 56.7246 39.312 56.2014L9.58753 47.2511C8.4537 46.9097 7.67999 45.8845 7.67999 44.7236V19.8463Z" fill="#FF5B97"/>
<mask id="mask0_4141_5369" style="mask-type:luminance" maskUnits="userSpaceOnUse" x="7" y="17" width="36" height="40">
<path fill-rule="evenodd" clip-rule="evenodd" d="M7.67999 19.8462C7.67999 18.067 9.43923 16.7955 11.1769 17.3187L40.9014 26.269C42.0352 26.6104 42.8089 27.6356 42.8089 28.7965V53.6738C42.8089 55.453 41.0497 56.7245 39.312 56.2013L9.58753 47.2509C8.4537 46.9095 7.67999 45.8844 7.67999 44.7235V19.8462Z" fill="white"/>
</mask>
<g mask="url(#mask0_4141_5369)">
<g style="mix-blend-mode:multiply">
<path fill-rule="evenodd" clip-rule="evenodd" d="M7.67999 15.36L42.8089 25.9377L25.1459 41.3373C23.8272 42.487 21.7544 42.11 20.9459 40.5734L7.67999 15.36Z" fill="#F2357A"/>
</g>
</g>
<path d="M74.5601 10.1962H77.7749V12.3698H74.5601V10.1962ZM74.5601 13.3663H77.7749V21.6998H74.5601V13.3663ZM79.6176 13.3663H82.6113V14.7239C83.0589 14.1693 83.5118 13.7731 83.9699 13.535C84.428 13.297 84.9862 13.178 85.6445 13.178C86.5344 13.178 87.2308 13.4409 87.7337 13.9666C88.2366 14.4924 88.4881 15.3045 88.4881 16.4031V21.6998H85.2574V17.1172C85.2574 16.594 85.16 16.2239 84.9652 16.0068C84.7703 15.7897 84.4965 15.6812 84.1437 15.6812C83.754 15.6812 83.438 15.8277 83.1958 16.1206C82.9536 16.4136 82.8325 16.9393 82.8325 17.6979V21.6998H79.6176V13.3663ZM93.7747 13.3663H95.3071V15.7047H93.7747V21.6998H90.5519V15.7047H89.3513V13.3663H90.5519V12.9897C90.5519 12.6496 90.5888 12.2756 90.6625 11.8676C90.7362 11.4595 90.8745 11.126 91.0772 10.8671C91.2799 10.6081 91.5643 10.3989 91.9303 10.2393C92.2963 10.0798 92.8321 10 93.5377 10L93.8159 10.0046C94.3592 10.0217 95.0853 10.0855 95.9943 10.1962L95.6388 12.1265C95.2544 12.0637 94.9437 12.0324 94.7067 12.0324C94.4171 12.0324 94.2091 12.0807 94.0827 12.1775C93.9563 12.2743 93.8668 12.4273 93.8142 12.6366C93.7878 12.7517 93.7747 12.9949 93.7747 13.3663ZM95.6095 17.5566C95.6095 16.2854 96.0413 15.2378 96.9049 14.4139C97.7685 13.59 98.9349 13.178 100.404 13.178C102.084 13.178 103.353 13.6619 104.211 14.6297C104.901 15.4092 105.246 16.3691 105.246 17.5095C105.246 18.7912 104.818 19.8414 103.963 20.6601C103.107 21.4788 101.923 21.8881 100.412 21.8881C99.0639 21.8881 97.9739 21.5481 97.1419 20.868C96.1203 20.0258 95.6095 18.922 95.6095 17.5566ZM98.8322 17.5488C98.8322 18.2916 98.9836 18.8409 99.2864 19.1966C99.5892 19.5523 99.9697 19.7302 100.428 19.7302C100.891 19.7302 101.272 19.555 101.569 19.2045C101.867 18.854 102.015 18.2916 102.015 17.5174C102.015 16.7954 101.865 16.2579 101.565 15.9048C101.265 15.5517 100.894 15.3752 100.451 15.3752C99.9828 15.3752 99.5958 15.5543 99.2904 15.9127C98.9849 16.271 98.8322 16.8164 98.8322 17.5488ZM106.607 13.3663H109.609V14.5826C110.04 14.0752 110.476 13.7142 110.916 13.4997C111.356 13.2853 111.886 13.178 112.507 13.178C113.176 13.178 113.705 13.2957 114.095 13.5311C114.485 13.7665 114.803 14.117 115.051 14.5826C115.556 14.0386 116.017 13.6684 116.433 13.4723C116.849 13.2761 117.363 13.178 117.973 13.178C118.874 13.178 119.577 13.4435 120.082 13.9745C120.588 14.5055 120.841 15.3359 120.841 16.4659V21.6998H117.618V16.9524C117.618 16.5757 117.544 16.2959 117.397 16.1128C117.181 15.825 116.912 15.6812 116.591 15.6812C116.212 15.6812 115.907 15.8172 115.675 16.0892C115.443 16.3613 115.327 16.7981 115.327 17.3997V21.6998H112.105V17.1093C112.105 16.7431 112.084 16.4947 112.041 16.3639C111.973 16.1546 111.854 15.9859 111.686 15.8577C111.517 15.7296 111.32 15.6655 111.094 15.6655C110.725 15.6655 110.422 15.8041 110.185 16.0814C109.948 16.3586 109.83 16.8138 109.83 17.4467V21.6998H106.607V13.3663ZM125.48 16.0657L122.407 15.744C122.523 15.2104 122.69 14.7906 122.909 14.4845C123.127 14.1785 123.442 13.913 123.853 13.6881C124.147 13.5259 124.553 13.4003 125.069 13.3114C125.585 13.2225 126.143 13.178 126.743 13.178C127.707 13.178 128.481 13.2316 129.066 13.3389C129.65 13.4461 130.137 13.6698 130.527 14.0098C130.801 14.2452 131.017 14.5787 131.175 15.0103C131.333 15.4419 131.412 15.8538 131.412 16.2462V19.9264C131.412 20.3187 131.437 20.6261 131.487 20.8484C131.537 21.0707 131.646 21.3545 131.815 21.6998H128.797C128.676 21.4853 128.597 21.3218 128.56 21.2094C128.523 21.0969 128.487 20.9203 128.45 20.6797C128.028 21.0825 127.61 21.3702 127.194 21.5429C126.625 21.773 125.964 21.8881 125.211 21.8881C124.211 21.8881 123.451 21.6579 122.932 21.1976C122.414 20.7372 122.154 20.1696 122.154 19.4948C122.154 18.8618 122.341 18.3413 122.715 17.9333C123.062 17.5544 123.682 17.2657 124.574 17.0672L126.275 16.716C126.666 16.6316 126.951 16.5653 127.131 16.5169C127.489 16.4201 127.868 16.2932 128.268 16.1363C128.268 15.744 128.186 15.4693 128.023 15.3124C127.86 15.1554 127.573 15.077 127.162 15.077C126.636 15.077 126.241 15.1607 125.977 15.3281C125.772 15.4589 125.606 15.7047 125.48 16.0657ZM128.268 17.7449C127.936 17.8626 127.594 17.97 127.242 18.0671L126.886 18.1608C126.233 18.3335 125.819 18.5035 125.646 18.6709C125.467 18.8435 125.377 19.0397 125.377 19.2594C125.377 19.5105 125.465 19.7158 125.642 19.8754C125.818 20.0349 126.077 20.1147 126.42 20.1147C126.778 20.1147 127.111 20.0284 127.419 19.8558C127.727 19.6831 127.945 19.4726 128.074 19.2241C128.203 18.9756 128.268 18.6526 128.268 18.255V17.7449ZM133.128 13.3663H136.122V14.7239C136.569 14.1693 137.022 13.7731 137.48 13.535C137.938 13.297 138.497 13.178 139.155 13.178C140.045 13.178 140.741 13.4409 141.244 13.9666C141.747 14.4924 141.999 15.3045 141.999 16.4031V21.6998H138.768V17.1172C138.768 16.594 138.67 16.2239 138.476 16.0068C138.281 15.7897 138.007 15.6812 137.654 15.6812C137.264 15.6812 136.948 15.8277 136.706 16.1206C136.464 16.4136 136.343 16.9393 136.343 17.6979V21.6998H133.128V13.3663ZM143.825 10.1962H147.04V12.3698H143.825V10.1962ZM143.825 13.3663H147.04V21.6998H143.825V13.3663ZM151.813 16.0657L148.741 15.744C148.857 15.2104 149.024 14.7906 149.242 14.4845C149.461 14.1785 149.776 13.913 150.186 13.6881C150.481 13.5259 150.887 13.4003 151.403 13.3114C151.919 13.2225 152.477 13.178 153.077 13.178C154.041 13.178 154.815 13.2316 155.4 13.3389C155.984 13.4461 156.471 13.6698 156.861 14.0098C157.135 14.2452 157.351 14.5787 157.509 15.0103C157.667 15.4419 157.746 15.8538 157.746 16.2462V19.9264C157.746 20.3187 157.771 20.6261 157.821 20.8484C157.871 21.0707 157.98 21.3545 158.148 21.6998H155.131L155.024 21.5023C154.962 21.382 154.919 21.2843 154.894 21.2094C154.857 21.0969 154.82 20.9203 154.783 20.6797C154.362 21.0825 153.944 21.3702 153.528 21.5429C152.959 21.773 152.298 21.8881 151.545 21.8881C150.544 21.8881 149.785 21.6579 149.266 21.1976C148.747 20.7372 148.488 20.1696 148.488 19.4948C148.488 18.8618 148.675 18.3413 149.049 17.9333C149.396 17.5544 150.016 17.2657 150.908 17.0672L152.609 16.716C153 16.6316 153.285 16.5653 153.464 16.5169C153.822 16.4201 154.202 16.2932 154.602 16.1363C154.602 15.744 154.52 15.4693 154.357 15.3124C154.194 15.1554 153.907 15.077 153.496 15.077C152.969 15.077 152.574 15.1607 152.311 15.3281C152.106 15.4589 151.94 15.7047 151.813 16.0657ZM154.602 17.7449C154.27 17.8626 153.928 17.97 153.575 18.0671L153.219 18.1608C152.566 18.3335 152.153 18.5035 151.979 18.6709C151.8 18.8435 151.711 19.0397 151.711 19.2594C151.711 19.5105 151.799 19.7158 151.975 19.8754C152.152 20.0349 152.411 20.1147 152.753 20.1147C153.111 20.1147 153.445 20.0284 153.753 19.8558C154.061 19.6831 154.279 19.4726 154.408 19.2241C154.537 18.9756 154.602 18.6526 154.602 18.255V17.7449ZM159.462 10.1962H162.748V16.1285L165.149 13.3663H169.106L166.097 16.2854L169.28 21.6998H165.655L163.956 18.357L162.748 19.534V21.6998H159.462V10.1962Z" fill="#4CB7FF"/>
<path d="M77.714 30.8562H74.0583V53.1282H77.714V47.8443L79.465 45.9704L84.6567 53.1282H88.9268L81.8919 43.3899L88.2202 36.6008H83.8273L77.714 43.2363V30.8562ZM100.144 53.1282H104.107L109.76 35.0955V53.1282H113.569V30.8562H107.517L102.141 48.6123L96.7345 30.8562H90.6826V53.1282H94.4919V35.0955L100.144 53.1282ZM116.875 48.5816C116.875 51.5922 119.394 53.5275 122.989 53.5275C125.415 53.5275 127.382 52.6674 128.426 50.8856C128.487 52.0223 128.61 52.4216 128.733 53.1282H132.082C131.775 51.7458 131.59 49.5647 131.59 47.4757C131.59 45.9704 131.652 44.035 131.652 43.2056C131.744 37.9218 128.641 36.1093 124.678 36.1093C120.685 36.1093 117.889 38.4133 117.643 41.7925H121.238C121.33 39.7957 122.712 38.8126 124.555 38.8126C126.368 38.8126 127.996 39.6728 127.996 42.499V42.8062C121.944 43.4206 116.875 44.4651 116.875 48.5816ZM128.088 45.356V46.6155C128.088 49.4111 126.491 50.7935 123.787 50.7935C121.944 50.7935 120.746 49.9333 120.746 48.4894C120.746 46.5848 122.866 45.8475 128.088 45.356ZM139.004 30.8562H135.348V34.5426H139.004V30.8562ZM139.004 36.6008H135.348V53.1282H139.004V36.6008ZM146.774 53.1282V30.8562H143.118V53.1282H146.774Z" fill="#F1F1F1"/>
</svg>
