<svg width="139" height="50" viewBox="0 0 139 50" fill="none" xmlns="http://www.w3.org/2000/svg">
<path opacity="0.5" fill-rule="evenodd" clip-rule="evenodd" d="M15.666 6.28498C15.666 4.74868 17.1851 3.65073 18.6855 4.10253L44.3522 11.831C45.3313 12.1258 45.9993 13.011 45.9993 14.0135V35.4947C45.9993 37.031 44.4803 38.1289 42.9798 37.6771L17.3131 29.9486C16.3341 29.6538 15.666 28.7686 15.666 27.7662V6.28498Z" fill="#FF9ABF"/>
<path opacity="0.8" fill-rule="evenodd" clip-rule="evenodd" d="M9.83398 9.9383C9.83398 8.402 11.3531 7.30405 12.8535 7.75585L38.5202 15.4843C39.4992 15.7792 40.1673 16.6644 40.1673 17.6668V39.148C40.1673 40.6843 38.6482 41.7822 37.1478 41.3304L11.4811 33.6019C10.5021 33.3071 9.83398 32.4219 9.83398 31.4195V9.9383Z" fill="#F789B2"/>
<path fill-rule="evenodd" clip-rule="evenodd" d="M4 14.5052C4 12.9689 5.51908 11.8709 7.01953 12.3227L32.6862 20.0512C33.6652 20.346 34.3333 21.2313 34.3333 22.2337V43.7149C34.3333 45.2512 32.8143 46.3491 31.3138 45.8973L5.64713 38.1688C4.66809 37.874 4 36.9888 4 35.9864V14.5052Z" fill="#FF5B97"/>
<mask id="mask0_1_9158" style="mask-type:luminance" maskUnits="userSpaceOnUse" x="4" y="12" width="31" height="34">
<path fill-rule="evenodd" clip-rule="evenodd" d="M4 14.5052C4 12.9689 5.51908 11.8709 7.01953 12.3227L32.6862 20.0512C33.6652 20.346 34.3333 21.2313 34.3333 22.2337V43.7149C34.3333 45.2512 32.8143 46.3491 31.3138 45.8973L5.64713 38.1688C4.66809 37.874 4 36.9888 4 35.9864V14.5052Z" fill="white"/>
</mask>
<g mask="url(#mask0_1_9158)">
<g style="mix-blend-mode:multiply">
<path fill-rule="evenodd" clip-rule="evenodd" d="M4 10.6313L34.3333 19.765L19.0816 33.0624C17.9429 34.0552 16.1531 33.7296 15.4549 32.4027L4 10.6313Z" fill="#F2357A"/>
</g>
</g>
<path d="M60 8.00971H62.5116V9.70783H60V8.00971ZM60 10.4864H62.5116V16.9969H60V10.4864ZM63.9512 10.4864H66.29V11.547C66.6397 11.1137 66.9935 10.8042 67.3514 10.6182C67.7093 10.4322 68.1454 10.3393 68.6597 10.3393C69.3549 10.3393 69.899 10.5446 70.2919 10.9554C70.6848 11.3661 70.8812 12.0006 70.8812 12.8589V16.9969H68.3573V13.4167C68.3573 13.008 68.2812 12.7189 68.129 12.5493C67.9768 12.3797 67.7628 12.2949 67.4872 12.2949C67.1828 12.2949 66.9359 12.4093 66.7467 12.6382C66.5574 12.867 66.4628 13.2778 66.4628 13.8704V16.9969H63.9512V10.4864ZM75.0114 10.4864H76.2086V12.3133H75.0114V16.9969H72.4936V12.3133H71.5556V10.4864H72.4936V10.1921C72.4936 9.92648 72.5224 9.63427 72.58 9.31549C72.6376 8.9967 72.7456 8.73616 72.904 8.53386C73.0624 8.33155 73.2846 8.16808 73.5705 8.04342C73.8564 7.91877 74.275 7.85645 74.8263 7.85645L75.0436 7.86007C75.468 7.87337 76.0353 7.92325 76.7455 8.00971L76.4678 9.51779C76.1674 9.46875 75.9247 9.44422 75.7396 9.44422C75.5133 9.44422 75.3508 9.48203 75.2521 9.55764C75.1533 9.63325 75.0834 9.75279 75.0423 9.91627C75.0217 10.0062 75.0114 10.1962 75.0114 10.4864ZM76.4448 13.76C76.4448 12.7669 76.7822 11.9485 77.4569 11.3048C78.1316 10.6611 79.0428 10.3393 80.1906 10.3393C81.503 10.3393 82.4945 10.7173 83.1651 11.4734C83.704 12.0824 83.9735 12.8323 83.9735 13.7233C83.9735 14.7246 83.6392 15.545 82.9707 16.1846C82.3021 16.8242 81.3775 17.144 80.1968 17.144C79.1436 17.144 78.292 16.8784 77.642 16.3471C76.8439 15.6891 76.4448 14.8267 76.4448 13.76ZM78.9626 13.7539C78.9626 14.3343 79.0809 14.7634 79.3174 15.0413C79.554 15.3192 79.8512 15.4582 80.2092 15.4582C80.5712 15.4582 80.8684 15.3213 81.1009 15.0474C81.3333 14.7736 81.4495 14.3343 81.4495 13.7294C81.4495 13.1654 81.3323 12.7455 81.0978 12.4696C80.8633 12.1937 80.5732 12.0558 80.2277 12.0558C79.8615 12.0558 79.5591 12.1958 79.3205 12.4757C79.0819 12.7557 78.9626 13.1817 78.9626 13.7539ZM85.0366 10.4864H87.3816V11.4366C87.719 11.0402 88.0594 10.7582 88.4029 10.5906C88.7464 10.423 89.1609 10.3393 89.6464 10.3393C90.1689 10.3393 90.5823 10.4312 90.8867 10.6151C91.1912 10.799 91.4401 11.0729 91.6334 11.4366C92.0284 11.0116 92.3883 10.7224 92.7134 10.5692C93.0384 10.4159 93.4395 10.3393 93.9167 10.3393C94.6202 10.3393 95.1694 10.5467 95.5644 10.9615C95.9593 11.3763 96.1568 12.0251 96.1568 12.9079V16.9969H93.639V13.288C93.639 12.9937 93.5814 12.7751 93.4662 12.632C93.2975 12.4073 93.0877 12.2949 92.8368 12.2949C92.5406 12.2949 92.302 12.4011 92.1209 12.6137C91.9399 12.8262 91.8494 13.1674 91.8494 13.6374V16.9969H89.3317V13.4106C89.3317 13.1245 89.3152 12.9304 89.2823 12.8282C89.2288 12.6647 89.1362 12.5329 89.0046 12.4328C88.8729 12.3327 88.7187 12.2826 88.5418 12.2826C88.2538 12.2826 88.0172 12.3909 87.8321 12.6075C87.647 12.8241 87.5544 13.1797 87.5544 13.6742V16.9969H85.0366V10.4864ZM99.7809 12.5953L97.3804 12.3439C97.4709 11.927 97.6015 11.5991 97.7723 11.36C97.943 11.1209 98.1888 10.9135 98.5097 10.7377C98.7401 10.611 99.0569 10.513 99.46 10.4435C99.8632 10.374 100.299 10.3393 100.768 10.3393C101.521 10.3393 102.126 10.3812 102.583 10.4649C103.039 10.5487 103.42 10.7234 103.724 10.9891C103.938 11.173 104.107 11.4335 104.23 11.7707C104.354 12.1079 104.415 12.4297 104.415 12.7363V15.6114C104.415 15.9179 104.435 16.1581 104.474 16.3317C104.513 16.5054 104.598 16.7272 104.73 16.9969H102.373C102.278 16.8293 102.216 16.7016 102.188 16.6137C102.159 16.5259 102.13 16.3879 102.101 16.1999C101.772 16.5146 101.445 16.7394 101.12 16.8743C100.676 17.0541 100.159 17.144 99.5711 17.144C98.7894 17.144 98.196 16.9642 97.7908 16.6046C97.3855 16.2449 97.1829 15.8015 97.1829 15.2743C97.1829 14.7797 97.329 14.3731 97.6211 14.0543C97.8923 13.7583 98.3764 13.5328 99.0733 13.3777L100.403 13.1033C100.708 13.0374 100.931 12.9856 101.071 12.9478C101.35 12.8721 101.647 12.773 101.959 12.6504C101.959 12.3439 101.896 12.1293 101.768 12.0067C101.64 11.8841 101.416 11.8228 101.095 11.8228C100.684 11.8228 100.375 11.8882 100.17 12.019C100.009 12.1212 99.8797 12.3133 99.7809 12.5953ZM101.959 13.9072C101.7 13.9991 101.433 14.083 101.157 14.1589L100.879 14.2321C100.369 14.367 100.046 14.4998 99.9105 14.6306C99.7706 14.7654 99.7007 14.9187 99.7007 15.0903C99.7007 15.2865 99.7696 15.4469 99.9074 15.5716C100.045 15.6962 100.248 15.7586 100.515 15.7586C100.795 15.7586 101.055 15.6911 101.296 15.5563C101.537 15.4214 101.707 15.2569 101.808 15.0628C101.909 14.8686 101.959 14.6163 101.959 14.3056V13.9072ZM105.756 10.4864H108.095V11.547C108.445 11.1137 108.799 10.8042 109.156 10.6182C109.514 10.4322 109.95 10.3393 110.465 10.3393C111.16 10.3393 111.704 10.5446 112.097 10.9554C112.49 11.3661 112.686 12.0006 112.686 12.8589V16.9969H110.162V13.4167C110.162 13.008 110.086 12.7189 109.934 12.5493C109.782 12.3797 109.568 12.2949 109.292 12.2949C108.988 12.2949 108.741 12.4093 108.552 12.6382C108.362 12.867 108.268 13.2778 108.268 13.8704V16.9969H105.756V10.4864ZM114.114 8.00971H116.625V9.70783H114.114V8.00971ZM114.114 10.4864H116.625V16.9969H114.114V10.4864ZM120.354 12.5953L117.954 12.3439C118.044 11.927 118.175 11.5991 118.345 11.36C118.516 11.1209 118.762 10.9135 119.083 10.7377C119.313 10.611 119.63 10.513 120.033 10.4435C120.436 10.374 120.873 10.3393 121.342 10.3393C122.094 10.3393 122.699 10.3812 123.156 10.4649C123.612 10.5487 123.993 10.7234 124.297 10.9891C124.511 11.173 124.68 11.4335 124.803 11.7707C124.927 12.1079 124.989 12.4297 124.989 12.7363V15.6114C124.989 15.9179 125.008 16.1581 125.047 16.3317C125.086 16.5054 125.172 16.7272 125.303 16.9969H122.946L122.862 16.8426C122.814 16.7486 122.78 16.6723 122.761 16.6137C122.732 16.5259 122.703 16.3879 122.674 16.1999C122.345 16.5146 122.018 16.7394 121.693 16.8743C121.249 17.0541 120.733 17.144 120.144 17.144C119.363 17.144 118.769 16.9642 118.364 16.6046C117.959 16.2449 117.756 15.8015 117.756 15.2743C117.756 14.7797 117.902 14.3731 118.194 14.0543C118.466 13.7583 118.95 13.5328 119.647 13.3777L120.976 13.1033C121.281 13.0374 121.504 12.9856 121.644 12.9478C121.924 12.8721 122.22 12.773 122.533 12.6504C122.533 12.3439 122.469 12.1293 122.341 12.0067C122.214 11.8841 121.989 11.8228 121.669 11.8228C121.257 11.8228 120.949 11.8882 120.743 12.019C120.582 12.1212 120.453 12.3133 120.354 12.5953ZM122.533 13.9072C122.273 13.9991 122.006 14.083 121.731 14.1589L121.453 14.2321C120.942 14.367 120.62 14.4998 120.484 14.6306C120.344 14.7654 120.274 14.9187 120.274 15.0903C120.274 15.2865 120.343 15.4469 120.481 15.5716C120.618 15.6962 120.821 15.7586 121.089 15.7586C121.368 15.7586 121.628 15.6911 121.869 15.5563C122.11 15.4214 122.281 15.2569 122.381 15.0628C122.482 14.8686 122.533 14.6163 122.533 14.3056V13.9072ZM126.329 8.00971H128.897V12.6443L130.773 10.4864H133.864L131.513 12.7669L134 16.9969H131.168L129.841 14.3853L128.897 15.3049V16.9969H126.329V8.00971Z" fill="#0098FF"/>
<path d="M67.144 42.144L62.728 28.056V42.144H59.752V24.744H64.48L68.704 38.616L72.904 24.744H77.632V42.144H74.656V28.056L70.24 42.144H67.144ZM80.215 38.592C80.215 35.376 84.175 34.56 88.903 34.08V33.84C88.903 31.632 87.631 30.96 86.215 30.96C84.775 30.96 83.695 31.728 83.623 33.288H80.815C81.007 30.648 83.191 28.848 86.311 28.848C89.407 28.848 91.831 30.264 91.759 34.392C91.759 35.04 91.711 36.552 91.711 37.728C91.711 39.36 91.855 41.064 92.095 42.144H89.479C89.383 41.592 89.287 41.28 89.239 40.392C88.423 41.784 86.887 42.456 84.991 42.456C82.183 42.456 80.215 40.944 80.215 38.592ZM88.975 36.072C84.895 36.456 83.239 37.032 83.239 38.52C83.239 39.648 84.175 40.32 85.615 40.32C87.727 40.32 88.975 39.24 88.975 37.056V36.072ZM97.5031 24.744V27.624H94.6471V24.744H97.5031ZM97.5031 29.232V42.144H94.6471V29.232H97.5031ZM103.573 42.144H100.717V24.744H103.573V42.144Z" fill="#333333"/>
</svg>
