<svg width="24" height="24" viewBox="0 0 24 24" fill="none" xmlns="http://www.w3.org/2000/svg">
<path fill-rule="evenodd" clip-rule="evenodd" d="M12.249 1.25C10.9892 1.25 9.78106 1.75045 8.89027 2.64124C7.99947 3.53204 7.49902 4.74022 7.49902 6C7.49902 6.27614 7.27517 6.5 6.99902 6.5C6.72288 6.5 6.49902 6.27614 6.49902 6C6.49902 4.47501 7.10483 3.01247 8.18316 1.93414C9.26149 0.855802 10.724 0.25 12.249 0.25C13.774 0.25 15.2366 0.855802 16.3149 1.93414C17.3932 3.01247 17.999 4.47501 17.999 6V9.25H19V9.75C19 9.25 18.9997 9.25 19 9.25L19.001 9.25L19.0022 9.25L19.0051 9.25002L19.0124 9.25011L19.0335 9.25064C19.0504 9.25121 19.0728 9.25225 19.1001 9.2542C19.1544 9.25808 19.2287 9.2656 19.3166 9.28024C19.4899 9.30914 19.7288 9.36786 19.9736 9.49029C20.2204 9.61369 20.4824 9.80666 20.6817 10.1055C20.8829 10.4074 21 10.7875 21 11.25V21.75H20.5C21 21.75 21 21.7497 21 21.75L21 21.751L21 21.7522L21 21.7551L20.9999 21.7624L20.9994 21.7835C20.9988 21.8004 20.9977 21.8228 20.9958 21.8501C20.9919 21.9044 20.9844 21.9787 20.9698 22.0666C20.9409 22.2399 20.8821 22.4788 20.7597 22.7236C20.6363 22.9704 20.4433 23.2324 20.1445 23.4317C19.8426 23.6329 19.4625 23.75 19 23.75H5.5V23.25C5.5 23.75 5.50026 23.75 5.5 23.75L5.49895 23.75L5.49776 23.75L5.49494 23.75L5.48763 23.7499L5.4665 23.7494C5.44961 23.7488 5.42716 23.7477 5.39992 23.7458C5.34562 23.7419 5.2713 23.7344 5.18343 23.7198C5.01005 23.6909 4.77125 23.6321 4.52639 23.5097C4.27958 23.3863 4.01755 23.1933 3.81835 22.8945C3.61706 22.5926 3.5 22.2125 3.5 21.75V11.25H4C3.5 11.25 3.5 11.2503 3.5 11.25L3.5 11.249L3.5 11.2478L3.50002 11.2449L3.50011 11.2376L3.50064 11.2165C3.50121 11.1996 3.50225 11.1772 3.5042 11.1499C3.50808 11.0956 3.5156 11.0213 3.53024 10.9334C3.55914 10.7601 3.61786 10.5213 3.74029 10.2764C3.86369 10.0296 4.05666 9.76755 4.35546 9.56835C4.6574 9.36706 5.03751 9.25 5.5 9.25H16.999V6C16.999 4.74022 16.4986 3.53204 15.6078 2.64124C14.717 1.75045 13.5088 1.25 12.249 1.25ZM5.5 10.25C5.21249 10.25 5.0301 10.3204 4.91016 10.4004C4.78709 10.4824 4.69881 10.5954 4.63471 10.7236C4.56964 10.8537 4.53461 10.9899 4.51663 11.0978C4.50784 11.1506 4.50364 11.1934 4.50166 11.2212C4.50067 11.2349 4.50026 11.2447 4.50009 11.2498L4.5 11.2531V21.75C4.5 22.0375 4.57044 22.2199 4.6504 22.3398C4.73245 22.4629 4.84542 22.5512 4.97361 22.6153C5.10375 22.6804 5.23995 22.7154 5.34782 22.7334C5.40058 22.7422 5.44345 22.7464 5.47117 22.7483C5.48495 22.7493 5.49472 22.7497 5.49981 22.7499L5.50288 22.75L5.5017 22.75L19 22.75C19.2875 22.75 19.4699 22.6796 19.5898 22.5996C19.7129 22.5176 19.8012 22.4046 19.8653 22.2764C19.9304 22.1462 19.9654 22.0101 19.9834 21.9022C19.9922 21.8494 19.9964 21.8066 19.9983 21.7788C19.9993 21.7651 19.9997 21.7553 19.9999 21.7502L20 21.7471L20 21.7483L20 11.25C20 10.9625 19.9296 10.7801 19.8496 10.6602C19.7676 10.5371 19.6546 10.4488 19.5264 10.3847C19.3963 10.3196 19.2601 10.2846 19.1522 10.2666C19.0994 10.2578 19.0566 10.2536 19.0288 10.2517C19.0151 10.2507 19.0053 10.2503 19.0002 10.2501L18.9969 10.25H5.5ZM12 14.5C12.2761 14.5 12.5 14.7239 12.5 15V18C12.5 18.2761 12.2761 18.5 12 18.5C11.7239 18.5 11.5 18.2761 11.5 18V15C11.5 14.7239 11.7239 14.5 12 14.5Z" fill="black"/>
</svg>
