<svg width="16" height="16" viewBox="0 0 16 16" fill="none" xmlns="http://www.w3.org/2000/svg">
<g clip-path="url(#clip0_6745_1115)">
<path fill-rule="evenodd" clip-rule="evenodd" d="M3.24733 3.36298C4.52883 2.08148 6.26691 1.36154 8.07922 1.36154C9.89154 1.36154 11.6296 2.08148 12.9111 3.36298C14.1926 4.64448 14.9126 6.38256 14.9126 8.19488C14.9126 10.0072 14.1926 11.7453 12.9111 13.0268C11.6296 14.3083 9.89154 15.0282 8.07922 15.0282C6.26691 15.0282 4.52883 14.3083 3.24733 13.0268C1.96583 11.7453 1.24589 10.0072 1.24589 8.19488C1.24589 6.38256 1.96583 4.64448 3.24733 3.36298ZM8.07922 2.36154C6.53213 2.36154 5.0484 2.97612 3.95443 4.07009C2.86047 5.16405 2.24589 6.64778 2.24589 8.19488C2.24589 9.74197 2.86047 11.2257 3.95443 12.3197C5.0484 13.4136 6.53213 14.0282 8.07922 14.0282C9.62632 14.0282 11.1101 13.4136 12.204 12.3197C13.298 11.2257 13.9126 9.74197 13.9126 8.19488C13.9126 6.64778 13.298 5.16405 12.204 4.07009C11.1101 2.97612 9.62632 2.36154 8.07922 2.36154Z" fill="black"/>
<path fill-rule="evenodd" clip-rule="evenodd" d="M2.19955 0.234942C2.54757 0.129946 2.91409 0.100871 3.27432 0.149681C3.63454 0.19849 3.9801 0.324047 4.28761 0.517875C4.52122 0.665121 4.59123 0.973865 4.44399 1.20747C4.29674 1.44108 3.988 1.51109 3.75439 1.36385C3.56797 1.24635 3.35847 1.17022 3.14005 1.14063C2.92162 1.11103 2.69939 1.12866 2.48838 1.19232C2.27737 1.25598 2.08252 1.36418 1.917 1.50959C1.75148 1.655 1.61914 1.83422 1.52893 2.03512C1.43872 2.23602 1.39274 2.45394 1.39407 2.67412C1.39541 2.8943 1.44403 3.11164 1.53667 3.31144C1.65283 3.56196 1.54391 3.85922 1.29338 3.97538C1.04286 4.09154 0.745606 3.98261 0.629447 3.73209C0.476558 3.40235 0.396293 3.04362 0.39409 2.68018C0.391886 2.31674 0.467797 1.95707 0.616678 1.6255C0.765559 1.29393 0.983934 0.998204 1.25702 0.758307C1.5301 0.518411 1.85153 0.339938 2.19955 0.234942Z" fill="black"/>
<path fill-rule="evenodd" clip-rule="evenodd" d="M13.8003 0.234942C13.4523 0.129946 13.0858 0.100871 12.7256 0.149681C12.3653 0.19849 12.0198 0.324047 11.7123 0.517875C11.4787 0.665121 11.4086 0.973865 11.5559 1.20747C11.7031 1.44108 12.0119 1.51109 12.2455 1.36385C12.4319 1.24635 12.6414 1.17022 12.8598 1.14063C13.0783 1.11103 13.3005 1.12866 13.5115 1.19232C13.7225 1.25598 13.9174 1.36418 14.0829 1.50959C14.2484 1.655 14.3807 1.83422 14.4709 2.03512C14.5612 2.23602 14.6071 2.45394 14.6058 2.67412C14.6045 2.8943 14.5558 3.11164 14.4632 3.31144C14.347 3.56196 14.456 3.85922 14.7065 3.97538C14.957 4.09154 15.2543 3.98261 15.3704 3.73209C15.5233 3.40235 15.6036 3.04362 15.6058 2.68018C15.608 2.31674 15.5321 1.95707 15.3832 1.6255C15.2343 1.29393 15.0159 0.998204 14.7429 0.758307C14.4698 0.518411 14.1484 0.339938 13.8003 0.234942Z" fill="black"/>
<path fill-rule="evenodd" clip-rule="evenodd" d="M8.07918 5.43299C8.35533 5.43299 8.57918 5.65685 8.57918 5.93299V8.1949C8.57918 8.47104 8.35533 8.6949 8.07918 8.6949C7.80304 8.6949 7.57918 8.47104 7.57918 8.1949V5.93299C7.57918 5.65685 7.80304 5.43299 8.07918 5.43299Z" fill="black"/>
<path fill-rule="evenodd" clip-rule="evenodd" d="M5.0234 13.3298C5.21858 13.5251 5.21843 13.8417 5.02308 14.0369L3.33138 15.727C3.13603 15.9222 2.81945 15.9221 2.62427 15.7267C2.4291 15.5314 2.42924 15.2148 2.62459 15.0196L4.31629 13.3294C4.51164 13.1343 4.82823 13.1344 5.0234 13.3298Z" fill="black"/>
<path fill-rule="evenodd" clip-rule="evenodd" d="M11.1337 13.3285C11.3289 13.1331 11.6455 13.133 11.8408 13.3281L13.5338 15.0196C13.7291 15.2148 13.7293 15.5313 13.5341 15.7267C13.3389 15.922 13.0224 15.9222 12.827 15.727L11.134 14.0356C10.9387 13.8404 10.9385 13.5238 11.1337 13.3285Z" fill="black"/>
<path fill-rule="evenodd" clip-rule="evenodd" d="M7.72567 7.84128C7.92095 7.64604 8.23753 7.64608 8.43277 7.84136L11.2599 10.669C11.4551 10.8643 11.4551 11.1809 11.2598 11.3761C11.0645 11.5714 10.7479 11.5714 10.5527 11.3761L7.72559 8.54839C7.53035 8.35311 7.53038 8.03653 7.72567 7.84128Z" fill="black"/>
</g>
<defs>
<clipPath id="clip0_6745_1115">
<rect width="16" height="16" fill="white"/>
</clipPath>
</defs>
</svg>
