<svg width="155" height="113" viewBox="0 0 155 113" fill="none" xmlns="http://www.w3.org/2000/svg">
<path d="M41.1747 66.8153H111.211V106.973C111.211 109.999 108.758 112.452 105.732 112.452H46.6536C43.6277 112.452 41.1747 109.999 41.1747 106.973V66.8153Z" fill="#FAFAFA" stroke="#9F9F9F" stroke-width="0.302456"/>
<path d="M73.9204 93.2147L41.4492 66.8153H110.936L78.4652 93.2147C77.1414 94.2909 75.2442 94.2909 73.9204 93.2147Z" fill="#F1F1F1" stroke="#9F9F9F" stroke-width="0.302456"/>
<path d="M78.1298 45.9632L110.653 66.7003L41.7328 66.7003L74.2565 45.9632C75.4377 45.21 76.9485 45.21 78.1298 45.9632Z" fill="#F1F1F1" stroke="#9F9F9F" stroke-width="0.302456"/>
<path d="M106.124 70.8831L106.179 70.8378V70.7659V53.7054C106.179 52.3586 105.087 51.2667 103.741 51.2667H47.889C46.5422 51.2667 45.4503 52.3586 45.4503 53.7054V70.194V70.266L45.5062 70.3114L76.1007 95.1873L76.1962 95.2649L76.2916 95.1872L106.124 70.8831Z" fill="white" stroke="#9F9F9F" stroke-width="0.302456"/>
<path d="M78.8326 86.6717L105.269 112.474L47.364 112.474L73.8005 86.6717C75.1999 85.3059 77.4333 85.3059 78.8326 86.6717Z" fill="#FAFAFA" stroke="#9F9F9F" stroke-width="0.302456"/>
<path opacity="0.5" fill-rule="evenodd" clip-rule="evenodd" d="M71.7734 60.1062C71.7734 59.3782 72.4933 58.8579 73.2043 59.072L85.3667 62.7343C85.8306 62.874 86.1472 63.2934 86.1472 63.7684V73.9475C86.1472 74.6755 85.4274 75.1958 84.7164 74.9817L72.5539 71.3195C72.09 71.1798 71.7734 70.7603 71.7734 70.2853V60.1062Z" fill="#FF9ABF"/>
<path opacity="0.8" fill-rule="evenodd" clip-rule="evenodd" d="M69.0156 61.8367C69.0156 61.1087 69.7355 60.5884 70.4465 60.8025L82.6089 64.4647C83.0728 64.6044 83.3894 65.0239 83.3894 65.4989V75.678C83.3894 76.406 82.6696 76.9263 81.9586 76.7122L69.7961 73.0499C69.3322 72.9103 69.0156 72.4908 69.0156 72.0158V61.8367Z" fill="#F789B2"/>
<path fill-rule="evenodd" clip-rule="evenodd" d="M66.25 64.0007C66.25 63.2727 66.9698 62.7525 67.6808 62.9666L79.8433 66.6288C80.3072 66.7685 80.6238 67.188 80.6238 67.663V77.8421C80.6238 78.5701 79.904 79.0903 79.1929 78.8762L67.0305 75.214C66.5666 75.0743 66.25 74.6549 66.25 74.1798V64.0007Z" fill="#FF5B97"/>
<mask id="mask0_10707_66183" style="mask-type:luminance" maskUnits="userSpaceOnUse" x="66" y="62" width="15" height="17">
<path fill-rule="evenodd" clip-rule="evenodd" d="M66.25 64.0007C66.25 63.2727 66.9698 62.7525 67.6808 62.9666L79.8433 66.6288C80.3072 66.7685 80.6238 67.188 80.6238 67.663V77.8421C80.6238 78.5701 79.904 79.0903 79.1929 78.8762L67.0305 75.214C66.5666 75.0743 66.25 74.6549 66.25 74.1798V64.0007Z" fill="white"/>
</mask>
<g mask="url(#mask0_10707_66183)">
<g style="mix-blend-mode:multiply">
<path fill-rule="evenodd" clip-rule="evenodd" d="M66.25 62.1641L80.6238 66.4922L73.3966 72.7933C72.857 73.2637 72.0089 73.1094 71.678 72.4807L66.25 62.1641Z" fill="#F2357A"/>
</g>
</g>
<path d="M148.443 41.0716L147.737 37.0876L145.695 37.4494L146.401 41.4334L142.363 40.664L142.025 42.6574L146.045 43.3264L144.283 47.0224L146.259 47.8464L147.937 44.0617L151.013 47.0041L152.346 45.5596L149.46 42.7214L153.073 40.7002L151.971 38.9618L148.443 41.0716Z" fill="#FF8500"/>
<path d="M8.61165 43.0874L6.77862 39.4805L4.92969 40.4201L6.76273 44.027L2.67532 44.4643L2.93172 46.4697L6.97292 45.9415L6.36076 49.9902L8.49093 50.2043L8.99625 46.0956L12.795 48.017L13.6501 46.2476L10.0646 44.3704L12.9341 41.3865L11.3743 40.0434L8.61165 43.0874Z" fill="#FF8500"/>
<path d="M49.3814 25.3569L49.9574 22.6347L48.573 22.3418L47.997 25.064L45.6407 23.5377L44.9158 24.7227L47.2866 26.1803L45.2236 28.086L46.2619 29.1183L48.2939 27.1344L49.4844 29.8002L50.6978 29.2204L49.6014 26.6701L52.4049 26.3074L52.1539 24.9159L49.3814 25.3569Z" fill="#FFC10A"/>
<path d="M93.9631 4.04598V0H91.8891V4.04598L88.0472 2.58399L87.3672 4.48797L91.2092 5.84797L88.8292 9.17995L90.6312 10.3359L92.9431 6.90196L95.4591 10.3359L97.0231 9.14595L94.6771 5.84797L98.5871 4.48797L97.8051 2.58399L93.9631 4.04598Z" fill="#FFC10A"/>
<path d="M148.377 72.5157V69.9844H147.079V72.5157L144.675 71.601L144.25 72.7922L146.654 73.6431L145.165 75.7277L146.292 76.451L147.739 74.3025L149.313 76.451L150.291 75.7064L148.823 73.6431L151.27 72.7922L150.78 71.601L148.377 72.5157Z" fill="#FFC10A"/>
<path d="M118.423 29.7469L116.598 29.1183C116.04 28.9076 115.429 28.862 114.838 28.9866C114.247 29.1113 113.699 29.4012 113.26 29.8223L110.02 33.0545C109.916 33.163 109.845 33.2977 109.814 33.4433C109.783 33.5889 109.793 33.7393 109.844 33.8774C109.894 34.0254 109.981 34.1578 110.096 34.2625C110.211 34.3673 110.351 34.4412 110.503 34.4776L114.904 35.5099" fill="#F1F1F1"/>
<path d="M118.423 29.7469L116.598 29.1183C116.04 28.9076 115.429 28.862 114.838 28.9866C114.247 29.1113 113.699 29.4012 113.26 29.8223L110.02 33.0545C109.916 33.163 109.845 33.2977 109.814 33.4433C109.783 33.5889 109.793 33.7393 109.844 33.8774C109.894 34.0254 109.981 34.1578 110.096 34.2625C110.211 34.3673 110.351 34.4412 110.503 34.4776L114.904 35.5099L118.423 29.7469Z" stroke="#9F9F9F" stroke-width="0.298824" stroke-linecap="round" stroke-linejoin="round"/>
<path d="M125.616 36.8937L126.245 38.7181C126.456 39.2767 126.501 39.8874 126.377 40.4786C126.252 41.0699 125.962 41.6172 125.541 42.0563L122.309 45.2967C122.2 45.4001 122.066 45.4714 121.92 45.5025C121.774 45.5336 121.624 45.5233 121.486 45.4726C121.338 45.4223 121.206 45.3358 121.101 45.2207C120.996 45.1056 120.922 44.9656 120.886 44.8133L119.853 40.4126" fill="#F1F1F1"/>
<path d="M125.616 36.8937L126.245 38.7181C126.456 39.2767 126.501 39.8874 126.377 40.4786C126.252 41.0699 125.962 41.6172 125.541 42.0563L122.309 45.2967C122.2 45.4001 122.066 45.4714 121.92 45.5025C121.774 45.5336 121.624 45.5233 121.486 45.4726C121.338 45.4223 121.206 45.3358 121.101 45.2207C120.996 45.1056 120.922 44.9656 120.886 44.8133L119.853 40.4126L125.616 36.8937Z" stroke="#9F9F9F" stroke-width="0.298824" stroke-linecap="round" stroke-linejoin="round"/>
<path d="M137.585 25.9741L137.585 25.9741L137.585 25.9651L137.278 18.0615C137.275 17.9836 137.213 17.9211 137.135 17.918L129.231 17.6119L129.231 17.6117L129.223 17.6119C128.03 17.6365 126.862 17.9541 125.821 18.5367C124.781 19.1193 123.9 19.9489 123.256 20.9526L123.256 20.9526L123.254 20.9561L114.672 35.17C114.636 35.2288 114.645 35.3042 114.694 35.3528L119.83 40.4957C119.878 40.5444 119.954 40.5536 120.013 40.5181L134.227 31.9423L134.227 31.9424L134.23 31.9404C135.237 31.2989 136.07 30.4189 136.655 29.3782C137.24 28.3375 137.559 27.1683 137.585 25.9741Z" fill="white" stroke="#9F9F9F" stroke-width="0.298824" stroke-linecap="round" stroke-linejoin="round"/>
<path d="M137.128 18.0616L137.435 25.9652C137.435 25.9652 135.598 22.8372 133.976 21.2144C132.353 19.5916 129.225 17.7555 129.225 17.7555L137.128 18.0616Z" fill="#F1F1F1"/>
<path d="M128.195 29.8442C129.772 29.8442 131.05 28.5662 131.05 26.9898C131.05 25.4134 129.772 24.1354 128.195 24.1354C126.619 24.1354 125.341 25.4134 125.341 26.9898C125.341 28.5662 126.619 29.8442 128.195 29.8442Z" fill="#F5F5F5" stroke="#9F9F9F" stroke-width="0.298824" stroke-linecap="round" stroke-linejoin="round"/>
<path d="M115.612 44.4953C115.285 44.8222 114.737 45.0713 114.075 45.2563C113.418 45.44 112.669 45.5551 111.959 45.6265C111.25 45.6979 110.585 45.7253 110.096 45.7348C109.852 45.7395 109.652 45.7398 109.514 45.7389C109.488 45.7388 109.464 45.7386 109.442 45.7383C109.442 45.7167 109.442 45.6927 109.442 45.6666C109.441 45.5282 109.441 45.3285 109.446 45.0843C109.455 44.5958 109.483 43.9302 109.554 43.2213C109.626 42.5117 109.741 41.7626 109.924 41.1055C110.109 40.444 110.358 39.8959 110.685 39.569C112.046 38.2086 114.251 38.2086 115.612 39.569C116.972 40.9293 116.972 43.1349 115.612 44.4953Z" fill="white" stroke="#9F9F9F" stroke-width="0.298824"/>
<path d="M114.615 43.0595C113.926 43.7486 111.496 43.6834 111.496 43.6834C111.496 43.6834 111.43 41.2532 112.119 40.5641C112.809 39.875 113.926 39.875 114.615 40.5641C115.304 41.2532 115.304 42.3704 114.615 43.0595Z" fill="#F1F1F1"/>
</svg>
