<svg width="154" height="113" viewBox="0 0 154 113" fill="none" xmlns="http://www.w3.org/2000/svg">
<path d="M42.4668 68.2403H110.328V107.151C110.328 110.083 107.951 112.46 105.019 112.46H47.7757C44.8437 112.46 42.4668 110.083 42.4668 107.151V68.2403Z" fill="#282828" stroke="#9F9F9F" stroke-width="0.293062"/>
<path d="M74.1956 93.8197L42.7328 68.2403H110.062L78.5992 93.8197C77.3166 94.8626 75.4782 94.8626 74.1956 93.8197Z" fill="#3E3E3E" stroke="#9F9F9F" stroke-width="0.293062"/>
<path d="M78.2732 48.0377L109.787 68.1308L43.0067 68.1308L74.5202 48.0377C75.6648 47.3079 77.1286 47.3079 78.2732 48.0377Z" fill="#3E3E3E" stroke="#9F9F9F" stroke-width="0.293062"/>
<path d="M105.392 72.177L105.446 72.133V72.0634V55.5328C105.446 54.2278 104.388 53.1699 103.083 53.1699H48.9664C47.6614 53.1699 46.6035 54.2278 46.6035 55.5328V71.5093V71.579L46.6576 71.623L76.3019 95.7263L76.3944 95.8016L76.4868 95.7262L105.392 72.177Z" fill="#1A1A1A" stroke="#9F9F9F" stroke-width="0.293062"/>
<path d="M78.9543 87.4856L104.57 112.486L48.463 112.486L74.0785 87.4856C75.4344 86.1622 77.5984 86.1622 78.9543 87.4856Z" fill="#282828" stroke="#9F9F9F" stroke-width="0.293062"/>
<path opacity="0.5" fill-rule="evenodd" clip-rule="evenodd" d="M72.1172 61.7405C72.1172 61.0352 72.8147 60.531 73.5036 60.7385L85.2883 64.287C85.7378 64.4223 86.0445 64.8288 86.0445 65.289V75.152C86.0445 75.8574 85.3471 76.3615 84.6581 76.154L72.8735 72.6056C72.4239 72.4702 72.1172 72.0638 72.1172 71.6035V61.7405Z" fill="#FF9ABF"/>
<path opacity="0.8" fill-rule="evenodd" clip-rule="evenodd" d="M69.4453 63.4163C69.4453 62.7109 70.1428 62.2068 70.8317 62.4143L82.6164 65.9628C83.0659 66.0981 83.3727 66.5046 83.3727 66.9648V76.8278C83.3727 77.5332 82.6752 78.0373 81.9863 77.8298L70.2016 74.2813C69.7521 74.146 69.4453 73.7395 69.4453 73.2793V63.4163Z" fill="#F789B2"/>
<path fill-rule="evenodd" clip-rule="evenodd" d="M66.7656 65.514C66.7656 64.8086 67.4631 64.3045 68.152 64.5119L79.9367 68.0604C80.3862 68.1958 80.693 68.6022 80.693 69.0625V78.9254C80.693 79.6308 79.9955 80.1349 79.3066 79.9275L67.5219 76.379C67.0724 76.2436 66.7656 75.8372 66.7656 75.3769V65.514Z" fill="#FF5B97"/>
<mask id="mask0_19763_42471" style="mask-type:luminance" maskUnits="userSpaceOnUse" x="66" y="64" width="15" height="16">
<path fill-rule="evenodd" clip-rule="evenodd" d="M66.7656 65.514C66.7656 64.8086 67.4631 64.3045 68.152 64.5119L79.9367 68.0604C80.3862 68.1958 80.693 68.6022 80.693 69.0625V78.9254C80.693 79.6308 79.9955 80.1349 79.3066 79.9275L67.5219 76.379C67.0724 76.2436 66.7656 75.8372 66.7656 75.3769V65.514Z" fill="white"/>
</mask>
<g mask="url(#mask0_19763_42471)">
<g style="mix-blend-mode:multiply">
<path fill-rule="evenodd" clip-rule="evenodd" d="M66.7656 63.7344L80.693 67.928L73.6902 74.0334C73.1674 74.4893 72.3456 74.3398 72.0251 73.7306L66.7656 63.7344Z" fill="#F2357A"/>
</g>
</g>
<path d="M147.561 41.0757L146.855 37.0915L144.812 37.4533L145.518 41.4376L141.48 40.6681L141.142 42.6617L145.163 43.3307L143.401 47.0271L145.377 47.851L147.054 44.0661L150.131 47.0088L151.464 45.5641L148.578 42.7257L152.191 40.7043L151.089 38.9658L147.561 41.0757Z" fill="#FFAA4C"/>
<path d="M7.71384 43.0913L5.88066 39.4841L4.03159 40.4238L5.86477 44.031L1.77703 44.4683L2.03345 46.4739L6.07498 45.9457L5.46277 49.9947L7.59311 50.2089L8.09848 46.0998L11.8975 48.0214L12.7527 46.2518L9.16687 44.3744L12.0366 41.3903L10.4768 40.0471L7.71384 43.0913Z" fill="#FFAA4C"/>
<path d="M48.4832 25.3572L49.0593 22.6348L47.6748 22.3418L47.0988 25.0643L44.7423 23.5379L44.0173 24.7229L46.3883 26.1807L44.3252 28.0865L45.3635 29.1189L47.3957 27.1348L48.5863 29.8008L49.7998 29.221L48.7033 26.6706L51.507 26.3077L51.256 24.9161L48.4832 25.3572Z" fill="#FFDF9E"/>
<path d="M93.0809 4.04631V0H91.0067V4.04631L87.1644 2.5842L86.4844 4.48834L90.3267 5.84845L87.9465 9.1807L89.7486 10.3368L92.0608 6.90253L94.577 10.3368L96.1411 9.1467L93.7949 5.84845L97.7052 4.48834L96.9231 2.5842L93.0809 4.04631Z" fill="#FFDF9E"/>
<path d="M147.486 72.5237V69.9922H146.189V72.5237L143.785 71.609L143.359 72.8003L145.763 73.6512L144.274 75.736L145.402 76.4593L146.848 74.3107L148.422 76.4593L149.401 75.7147L147.933 73.6512L150.38 72.8003L149.89 71.609L147.486 72.5237Z" fill="#FFDF9E"/>
<path d="M117.374 32.9205L115.584 32.304C115.037 32.0973 114.438 32.0525 113.858 32.1748C113.278 32.2971 112.741 32.5814 112.311 32.9944L109.133 36.1642C109.031 36.2706 108.961 36.4028 108.931 36.5456C108.9 36.6883 108.91 36.8359 108.96 36.9713C109.009 37.1164 109.094 37.2462 109.207 37.349C109.32 37.4518 109.457 37.5242 109.607 37.5599L113.923 38.5723" fill="#3E3E3E"/>
<path d="M117.374 32.9205L115.584 32.304C115.037 32.0973 114.438 32.0525 113.858 32.1748C113.278 32.2971 112.741 32.5814 112.311 32.9944L109.133 36.1642C109.031 36.2706 108.961 36.4028 108.931 36.5456C108.9 36.6883 108.91 36.8359 108.96 36.9713C109.009 37.1164 109.094 37.2462 109.207 37.349C109.32 37.4518 109.457 37.5242 109.607 37.5599L113.923 38.5723L117.374 32.9205Z" stroke="#9F9F9F" stroke-width="0.293062" stroke-linecap="round" stroke-linejoin="round"/>
<path d="M124.431 39.9311L125.048 41.7203C125.254 42.2682 125.299 42.8671 125.177 43.4469C125.054 44.0268 124.77 44.5635 124.357 44.9941L121.187 48.1721C121.081 48.2735 120.949 48.3434 120.806 48.3739C120.663 48.4045 120.516 48.3943 120.38 48.3445C120.235 48.2953 120.105 48.2104 120.003 48.0975C119.9 47.9847 119.827 47.8474 119.792 47.698L118.779 43.3822" fill="#3E3E3E"/>
<path d="M124.431 39.9311L125.048 41.7203C125.254 42.2682 125.299 42.8671 125.177 43.4469C125.054 44.0268 124.77 44.5635 124.357 44.9941L121.187 48.1721C121.081 48.2735 120.949 48.3434 120.806 48.3739C120.663 48.4045 120.516 48.3943 120.38 48.3445C120.235 48.2953 120.105 48.2104 120.003 48.0975C119.9 47.9847 119.827 47.8474 119.792 47.698L118.779 43.3822L124.431 39.9311Z" stroke="#9F9F9F" stroke-width="0.293062" stroke-linecap="round" stroke-linejoin="round"/>
<path d="M136.162 29.2148L136.162 29.2148L136.162 29.206L135.861 21.4549C135.858 21.3784 135.797 21.3171 135.72 21.3141L127.97 21.0139L127.97 21.0137L127.961 21.0139C126.791 21.038 125.646 21.3495 124.625 21.9208C123.605 22.4922 122.741 23.3059 122.11 24.2902L122.11 24.2902L122.108 24.2936L113.69 38.2334C113.656 38.2911 113.665 38.365 113.712 38.4127L118.749 43.4565C118.797 43.5042 118.871 43.5132 118.929 43.4784L132.868 35.068L132.868 35.068L132.872 35.0661C133.859 34.437 134.676 33.5739 135.25 32.5533C135.824 31.5327 136.137 30.386 136.162 29.2148Z" fill="#1A1A1A" stroke="#9F9F9F" stroke-width="0.293062" stroke-linecap="round" stroke-linejoin="round"/>
<path d="M135.713 21.459L136.014 29.2102C136.014 29.2102 134.213 26.1425 132.621 24.551C131.03 22.9596 127.962 21.1588 127.962 21.1588L135.713 21.459Z" fill="#3E3E3E"/>
<path d="M126.953 33.016C128.499 33.016 129.752 31.7627 129.752 30.2167C129.752 28.6706 128.499 27.4173 126.953 27.4173C125.407 27.4173 124.154 28.6706 124.154 30.2167C124.154 31.7627 125.407 33.016 126.953 33.016Z" fill="#3E3E3E" stroke="#9F9F9F" stroke-width="0.293062" stroke-linecap="round" stroke-linejoin="round"/>
<path d="M114.619 47.3839C114.298 47.7045 113.761 47.9488 113.112 48.1302C112.467 48.3103 111.733 48.4232 111.037 48.4933C110.342 48.5633 109.689 48.5901 109.21 48.5995C108.97 48.6041 108.775 48.6044 108.639 48.6036C108.613 48.6034 108.59 48.6032 108.568 48.603C108.568 48.5817 108.568 48.5583 108.568 48.5326C108.567 48.3968 108.567 48.201 108.572 47.9616C108.581 47.4824 108.608 46.8297 108.678 46.1345C108.748 45.4385 108.861 44.7039 109.041 44.0595C109.223 43.4107 109.467 42.8732 109.787 42.5526C111.122 41.2184 113.285 41.2184 114.619 42.5526C115.953 43.8867 115.953 46.0498 114.619 47.3839Z" fill="#1A1A1A" stroke="#9F9F9F" stroke-width="0.293062"/>
<path d="M113.646 45.9756C112.97 46.6514 110.586 46.5874 110.586 46.5874C110.586 46.5874 110.522 44.2041 111.198 43.5283C111.874 42.8525 112.97 42.8525 113.646 43.5283C114.321 44.2041 114.321 45.2998 113.646 45.9756Z" fill="#3E3E3E"/>
</svg>
