<svg width="20" height="20" viewBox="0 0 20 20" fill="none" xmlns="http://www.w3.org/2000/svg">
<g clip-path="url(#clip0_3268_48883)">
<path d="M16.6689 20.0001C16.5573 20.0001 16.4531 19.9568 16.3739 19.8785L14.4014 17.9068C13.0798 18.7318 11.5623 19.1676 10.0014 19.1676C8.44061 19.1676 6.92395 18.7326 5.60145 17.9068L3.62895 19.8785C3.55145 19.9568 3.44645 20.0001 3.33561 20.0001C3.22478 20.0001 3.11978 19.9568 3.04061 19.8785C2.87811 19.716 2.87811 19.4518 3.04061 19.2893L4.90728 17.4226C2.87478 15.8468 1.66895 13.4018 1.66895 10.8343C1.66895 6.23931 5.40728 2.50098 10.0023 2.50098C14.5973 2.50098 18.3356 6.23931 18.3356 10.8343C18.3356 13.4018 17.1289 15.8468 15.0964 17.4226L16.9631 19.2893C17.1256 19.4518 17.1256 19.716 16.9631 19.8785C16.8848 19.9568 16.7798 20.0001 16.6689 20.0001ZM10.0023 3.33431C5.86645 3.33431 2.50228 6.69848 2.50228 10.8343C2.50228 14.9701 5.86645 18.3343 10.0023 18.3343C14.1381 18.3343 17.5023 14.9701 17.5023 10.8343C17.5023 6.69848 14.1373 3.33431 10.0023 3.33431Z" fill="#0098FF"/>
<path d="M13.0007 10.834C13.1847 10.834 13.334 10.674 13.334 10.4768C13.334 10.2797 13.1847 10.1197 13.0007 10.1197H10.6673V6.19113C10.6673 5.99398 10.518 5.83398 10.334 5.83398C10.15 5.83398 10.0007 5.99398 10.0007 6.19113V10.4768C10.0007 10.674 10.15 10.834 10.334 10.834H13.0007Z" fill="#0098FF"/>
<path d="M1.57848 6.67607C1.47931 6.67607 1.38264 6.64023 1.30681 6.57523C1.04014 6.34607 0.806809 6.08107 0.613476 5.78607C-0.518191 4.0594 -0.0340242 1.73357 1.69264 0.601901C2.30348 0.201901 3.01098 -0.00976562 3.74014 -0.00976562C5.01014 -0.00976562 6.18348 0.621901 6.87681 1.68107C6.93764 1.77357 6.95848 1.88523 6.93598 1.9944C6.91348 2.10273 6.84931 2.1969 6.75681 2.25773C6.68848 2.30273 6.60931 2.32607 6.52848 2.32607C6.38764 2.32607 6.25681 2.25607 6.18014 2.13773C5.64014 1.3144 4.72848 0.823568 3.74014 0.823568C3.17431 0.823568 2.62348 0.987734 2.14931 1.2994C1.49931 1.72523 1.05348 2.3794 0.895143 3.14107C0.736809 3.9019 0.884309 4.6794 1.31098 5.33023C1.46098 5.55857 1.64264 5.7644 1.85014 5.94273C1.93431 6.01523 1.98598 6.11607 1.99431 6.2269C2.00264 6.33773 1.96764 6.44523 1.89514 6.53023C1.81598 6.62273 1.70098 6.67607 1.57848 6.67607Z" fill="#0098FF"/>
<path d="M18.4232 6.67564C18.3016 6.67564 18.1866 6.62314 18.1074 6.53064C18.0349 6.44564 17.9999 6.3373 18.0082 6.22647C18.0166 6.11564 18.0682 6.0148 18.1524 5.9423C18.3599 5.76481 18.5407 5.55814 18.6916 5.32897C19.5716 3.98647 19.1949 2.17897 17.8532 1.29897C17.3766 0.986471 16.8274 0.821471 16.2641 0.821471C16.0641 0.821471 15.8624 0.842305 15.6649 0.883138C14.9032 1.04147 14.2499 1.4873 13.8232 2.1373C13.7466 2.2548 13.6157 2.32564 13.4749 2.32564C13.3932 2.32564 13.3141 2.3023 13.2466 2.2573C13.1541 2.19647 13.0899 2.10314 13.0674 1.99397C13.0449 1.8848 13.0657 1.77397 13.1274 1.68064C13.6757 0.843971 14.5166 0.271471 15.4957 0.0673047C15.7499 0.0148047 16.0091 -0.0126953 16.2657 -0.0126953C16.9916 -0.0126953 17.6991 0.199805 18.3116 0.601471C19.1466 1.14897 19.7191 1.99064 19.9232 2.97064C20.1274 3.95064 19.9382 4.95064 19.3907 5.78564C19.1974 6.08064 18.9641 6.34647 18.6966 6.5748C18.6191 6.6398 18.5232 6.67564 18.4232 6.67564Z" fill="#0098FF"/>
</g>
<defs>
<clipPath id="clip0_3268_48883">
<rect width="20" height="20" fill="white"/>
</clipPath>
</defs>
</svg>
