<svg width="24" height="24" viewBox="0 0 24 24" fill="none" xmlns="http://www.w3.org/2000/svg">
<g clip-path="url(#clip0_33_1178)">
<path fill-rule="evenodd" clip-rule="evenodd" d="M17.7513 20.4705C20.0584 18.6798 21.543 15.8808 21.543 12.735C21.543 7.32887 17.1582 2.94678 11.7499 2.94678C6.34156 2.94678 1.95679 7.32887 1.95679 12.735C1.95679 15.8808 3.44147 18.6798 5.74858 20.4705L3.57086 22.6463C3.37551 22.8414 3.37537 23.158 3.57054 23.3534C3.76572 23.5487 4.0823 23.5489 4.27765 23.3537L6.58231 21.0511C8.08228 21.9842 9.85314 22.5232 11.7499 22.5232C13.6467 22.5232 15.4176 21.9842 16.9176 21.0511L19.2223 23.3537C19.4177 23.5489 19.7342 23.5487 19.9294 23.3534C20.1246 23.158 20.1244 22.8414 19.9291 22.6463L17.7513 20.4705ZM11.7499 3.94678C6.89335 3.94678 2.95679 7.88165 2.95679 12.735C2.95679 15.7276 4.45349 18.371 6.73969 19.9581C6.78136 19.9785 6.82077 20.0051 6.85657 20.0378C8.25541 20.9759 9.93867 21.5232 11.7499 21.5232C13.5554 21.5232 15.2337 20.9794 16.6299 20.0467C16.6727 20.0051 16.7211 19.9727 16.7726 19.9494C19.0518 18.3614 20.543 15.7222 20.543 12.735C20.543 7.88165 16.6064 3.94678 11.7499 3.94678Z" fill="black"/>
<path fill-rule="evenodd" clip-rule="evenodd" d="M12.2391 6.8575C12.5153 6.8575 12.7391 7.08136 12.7391 7.3575V12.7237H15.4853C15.7615 12.7237 15.9853 12.9476 15.9853 13.2237C15.9853 13.4999 15.7615 13.7237 15.4853 13.7237H12.2391C11.963 13.7237 11.7391 13.4999 11.7391 13.2237V7.3575C11.7391 7.08136 11.963 6.8575 12.2391 6.8575Z" fill="black"/>
<path fill-rule="evenodd" clip-rule="evenodd" d="M3.13288 0.187867C3.73679 0.00567029 4.3728 -0.0447831 4.99791 0.0399152C5.62301 0.124614 6.22263 0.342491 6.75624 0.678825C7.28984 1.01516 7.74498 1.46211 8.09086 1.98947C8.2423 2.22038 8.17789 2.53034 7.94698 2.68179C7.71607 2.83323 7.40611 2.76882 7.25467 2.53791C6.98733 2.1303 6.63552 1.7848 6.22301 1.5248C5.81051 1.26479 5.34693 1.09634 4.86364 1.03086C4.38034 0.965376 3.88862 1.00438 3.42172 1.14525C2.95482 1.28611 2.52364 1.52553 2.15735 1.84731C1.79106 2.16908 1.4982 2.56571 1.29855 3.01034C1.09889 3.45498 0.997108 3.93728 1.00006 4.42461C1.00302 4.91194 1.11064 5.39297 1.31567 5.83516C1.5207 6.27735 1.81835 6.6704 2.18852 6.98771C2.39817 7.16743 2.42243 7.48309 2.24271 7.69274C2.06299 7.90239 1.74734 7.92666 1.53769 7.74694C1.05882 7.33644 0.673723 6.82794 0.408445 6.2558C0.143167 5.68367 0.00390342 5.06126 8.08824e-05 4.43067C-0.00374162 3.80008 0.127967 3.17603 0.386289 2.60072C0.644612 2.02542 1.02352 1.51229 1.49737 1.09602C1.97122 0.679758 2.52897 0.370063 3.13288 0.187867Z" fill="black"/>
<path fill-rule="evenodd" clip-rule="evenodd" d="M20.0782 1.14525C19.6113 1.00438 19.1196 0.965376 18.6363 1.03086C18.153 1.09634 17.6894 1.26479 17.2769 1.5248C16.8644 1.7848 16.5126 2.1303 16.2453 2.53791C16.0938 2.76882 15.7839 2.83323 15.553 2.68179C15.3221 2.53034 15.2576 2.22038 15.4091 1.98947C15.755 1.46211 16.2101 1.01516 16.7437 0.678825C17.2773 0.342491 17.8769 0.124614 18.502 0.0399152C19.1271 -0.0447831 19.7632 0.00567029 20.3671 0.187867C20.971 0.370063 21.5287 0.679758 22.0026 1.09602C22.4764 1.51229 22.8553 2.02542 23.1137 2.60072C23.372 3.17603 23.5037 3.80008 23.4999 4.43067C23.496 5.06126 23.3568 5.68367 23.0915 6.2558C22.8262 6.82794 22.4411 7.33644 21.9623 7.74694C21.7526 7.92666 21.437 7.90239 21.2572 7.69274C21.0775 7.48309 21.1018 7.16743 21.3114 6.98771C21.6816 6.6704 21.9793 6.27735 22.1843 5.83516C22.3893 5.39297 22.4969 4.91194 22.4999 4.42461C22.5028 3.93727 22.4011 3.45498 22.2014 3.01034C22.0017 2.56571 21.7089 2.16908 21.3426 1.84731C20.9763 1.52553 20.5451 1.28611 20.0782 1.14525Z" fill="black"/>
</g>
<defs>
<clipPath id="clip0_33_1178">
<rect width="24" height="24" fill="white"/>
</clipPath>
</defs>
</svg>
