<svg width="25" height="18" viewBox="0 0 25 18" fill="none" xmlns="http://www.w3.org/2000/svg">
<g clip-path="url(#clip0_5914_50153)">
<path d="M6.43 0.0499995V16H12.898C16.176 16 19.014 14.746 19.014 11.292C19.014 9.114 17.848 8.146 16.638 7.574C17.474 7.024 18.442 5.704 18.442 4.208C18.442 0.907999 15.45 0.0499995 12.634 0.0499995H6.43ZM9.576 6.628V2.514H12.832C14.284 2.514 15.208 3.262 15.208 4.516C15.208 5.902 14.306 6.628 12.832 6.628H9.576ZM9.576 13.536V9.004H12.92C14.878 9.004 15.802 9.818 15.802 11.292C15.802 12.744 14.878 13.536 13.052 13.536H9.576Z" fill="#666666"/>
</g>
<defs>
<clipPath id="clip0_5914_50153">
<rect width="25" height="18" fill="white"/>
</clipPath>
</defs>
</svg>
