<svg width="24" height="25" viewBox="0 0 24 25" fill="none" xmlns="http://www.w3.org/2000/svg">
<path d="M22.5 19.9727C22.315 19.9727 22.146 19.8717 22.059 19.7077C19.787 15.4477 16.038 14.5537 13.293 14.5537C12.035 14.5537 11.015 14.7427 10.5 14.8607V18.4727C10.5 18.6657 10.387 18.8427 10.213 18.9247C10.147 18.9557 10.073 18.9727 10 18.9727C9.884 18.9727 9.771 18.9317 9.682 18.8577L1.182 11.8577C1.066 11.7637 1 11.6227 1 11.4727C1 11.3227 1.066 11.1817 1.182 11.0867L9.682 4.08666C9.771 4.01366 9.884 3.97266 10 3.97266C10.073 3.97266 10.147 3.98866 10.213 4.02066C10.387 4.10266 10.5 4.28066 10.5 4.47266V7.93166C10.706 7.92066 10.966 7.91166 11.268 7.91166C13.206 7.91166 16.868 8.27566 19.617 10.7147C21.862 12.7057 23 15.6527 23 19.4727C23 19.7027 22.844 19.9017 22.621 19.9577C22.583 19.9677 22.542 19.9727 22.5 19.9727ZM13.211 13.5887C15.823 13.5887 19.366 14.3087 21.895 17.6057C21.587 14.9877 20.6 12.9247 18.956 11.4647C16.462 9.25066 13.02 8.91966 11.19 8.91966C10.491 8.91966 10.063 8.96866 10.058 8.96866C10.036 8.97066 10.019 8.97166 10.002 8.97166C9.877 8.97166 9.759 8.92666 9.667 8.84566C9.561 8.75166 9.5 8.61566 9.5 8.47266V5.53266L2.287 11.4727L9.5 17.4127V14.4727C9.5 14.2527 9.648 14.0557 9.859 13.9937C9.871 13.9897 11.263 13.5887 13.211 13.5887Z" fill="#0098FF"/>
</svg>
