<?xml version="1.0" encoding="UTF-8" standalone="no"?>
<!DOCTYPE svg PUBLIC "-//W3C//DTD SVG 1.1//EN" "http://www.w3.org/Graphics/SVG/1.1/DTD/svg11.dtd">
<!-- Created with Vectornator (http://vectornator.io/) -->
<svg height="149.99999999999994px" stroke-miterlimit="10" style="fill-rule:nonzero;clip-rule:evenodd;stroke-linecap:round;stroke-linejoin:round;" version="1.1" viewBox="0 0 375 150" width="375.0px" xml:space="preserve" xmlns="http://www.w3.org/2000/svg" xmlns:xlink="http://www.w3.org/1999/xlink">
<defs/>
<g id="Calque-1">
<g opacity="1">
<path d="M147.602 90.8658L226.032 90.8658L226.032 135.836C226.032 139.226 223.285 141.972 219.896 141.972L153.738 141.972C150.348 141.972 147.602 139.226 147.602 135.836L147.602 90.8658Z" fill="#fafafa" fill-rule="nonzero" opacity="1" stroke="#9f9f9f" stroke-linecap="butt" stroke-linejoin="miter" stroke-width="0.5"/>
<path d="M184.272 120.429L147.909 90.8658L225.725 90.8658L189.361 120.429C187.879 121.635 185.754 121.635 184.272 120.429Z" fill="#f5f5f5" fill-rule="nonzero" opacity="1" stroke="#9f9f9f" stroke-linecap="butt" stroke-linejoin="miter" stroke-width="0.5"/>
<path d="M188.983 67.5161L225.405 90.7384L148.224 90.7384L184.646 67.5161C185.969 66.6726 187.66 66.6726 188.983 67.5161Z" fill="#f5f5f5" fill-rule="nonzero" opacity="1" stroke="#9f9f9f" stroke-linecap="butt" stroke-linejoin="miter" stroke-width="0.5"/>
<path d="M220.331 95.4186L220.394 95.3678L220.394 95.2879L220.394 76.1824C220.394 74.6741 219.171 73.4514 217.662 73.4514L155.117 73.4514C153.608 73.4514 152.385 74.674 152.385 76.1824L152.385 94.6471L152.385 94.7277L152.448 94.7785L186.71 122.636L186.816 122.723L186.923 122.636L220.331 95.4186Z" fill="#ffffff" fill-rule="nonzero" opacity="1" stroke="#9f9f9f" stroke-linecap="butt" stroke-linejoin="miter" stroke-width="0.5"/>
<path d="M189.778 113.108L219.383 142.002L154.538 142.002L184.143 113.108C185.71 111.578 188.211 111.578 189.778 113.108Z" fill="#fafafa" fill-rule="nonzero" opacity="1" stroke="#9f9f9f" stroke-linecap="butt" stroke-linejoin="miter" stroke-width="0.5"/>
<path d="M181.864 83.3566C181.864 82.541 182.67 81.9585 183.466 82.1983L197.087 86.2993C197.606 86.4558 197.96 86.9259 197.96 87.4577L197.96 98.8565C197.96 99.6721 197.154 100.255 196.358 100.015L182.738 95.9138C182.218 95.7574 181.864 95.2872 181.864 94.7555L181.864 83.3566Z" fill="#ff9abf" fill-rule="evenodd" opacity="0.5" stroke="none"/>
<path d="M178.773 85.2934C178.773 84.4784 179.58 83.8959 180.375 84.1357L193.996 88.2367C194.515 88.3932 194.869 88.8626 194.869 89.3944L194.869 100.794C194.869 101.609 194.063 102.191 193.267 101.952L179.647 97.8506C179.128 97.6941 178.773 97.2246 178.773 96.6929L178.773 85.2934Z" fill="#f789b2" fill-rule="evenodd" opacity="0.8" stroke="none"/>
<path d="M175.677 87.7198C175.677 86.9049 176.483 86.3223 177.28 86.5622L190.9 90.6632C191.419 90.8197 191.774 91.2891 191.774 91.8209L191.774 103.22C191.774 104.035 190.968 104.618 190.172 104.378L176.551 100.277C176.032 100.121 175.677 99.6511 175.677 99.1193L175.677 87.7198Z" fill="#ff5b97" fill-rule="evenodd" opacity="1" stroke="none"/>
<g opacity="1">
<clipPath clip-rule="evenodd" id="ClipPath">
<path d="M175.677 87.7171C175.677 86.9022 176.483 86.3196 177.28 86.5594L190.9 90.6605C191.419 90.817 191.774 91.2864 191.774 91.8182L191.774 103.218C191.774 104.033 190.968 104.615 190.172 104.376L176.551 100.274C176.032 100.118 175.677 99.6484 175.677 99.1166L175.677 87.7171Z"/>
</clipPath>
<g clip-path="url(#ClipPath)">
<path d="M175.677 85.6578L191.774 90.5047L183.681 97.5613C183.076 98.0883 182.126 97.9149 181.756 97.2111L175.677 85.6578Z" fill="#f2357a" fill-rule="evenodd" opacity="1" stroke="none"/>
</g>
</g>
<path d="M269.068 59.4734L268.252 54.8686L265.892 55.2868L266.708 59.8915L262.04 59.0023L261.65 61.3064L266.297 62.0796L264.26 66.3516L266.544 67.304L268.483 62.9295L272.039 66.3305L273.579 64.6608L270.244 61.3803L274.42 59.0441L273.146 57.0348L269.068 59.4734Z" fill="#ff8500" fill-rule="nonzero" opacity="1" stroke="none"/>
<path d="M107.442 61.8037L105.323 57.6346L103.186 58.7206L105.304 62.8897L100.58 63.3951L100.876 65.7131L105.547 65.1026L104.84 69.7822L107.302 70.0298L107.886 65.2806L112.277 67.5015L113.265 65.4563L109.121 63.2865L112.438 59.8377L110.635 58.2853L107.442 61.8037Z" fill="#ff8500" fill-rule="nonzero" opacity="1" stroke="none"/>
<path d="M154.565 41.3086L155.231 38.1622L153.631 37.8237L152.965 40.97L150.241 39.2059L149.403 40.5756L152.144 42.2604L149.759 44.4631L150.96 45.6562L153.308 43.3631L154.684 46.4444L156.086 45.7743L154.819 42.8266L158.059 42.4072L157.77 40.7989L154.565 41.3086Z" fill="#ffc10a" fill-rule="nonzero" opacity="1" stroke="none"/>
<path d="M206.1 16.6765L206.1 12L203.703 12L203.703 16.6765L199.262 14.9867L198.477 17.1874L202.917 18.7593L200.166 22.6106L202.249 23.9467L204.922 19.9776L207.83 23.9467L209.637 22.5713L206.925 18.7593L211.445 17.1874L210.541 14.9867L206.1 16.6765Z" fill="#ffc10a" fill-rule="nonzero" opacity="1" stroke="none"/>
<path d="M268.987 95.8183L268.987 92.8926L267.487 92.8926L267.487 95.8183L264.709 94.7609L264.217 96.1381L266.996 97.1217L265.274 99.5312L266.578 100.367L268.249 97.8837L270.069 100.367L271.2 99.5062L269.503 97.1217L272.331 96.1381L271.765 94.7609L268.987 95.8183Z" fill="#ffc10a" fill-rule="nonzero" opacity="1" stroke="none"/>
<path d="M234.176 50.047L232.108 49.3345C231.475 49.0957 230.783 49.0439 230.113 49.1853C229.443 49.3266 228.823 49.6552 228.325 50.1325L224.652 53.796C224.535 53.919 224.453 54.0717 224.418 54.2368C224.383 54.4017 224.395 54.5723 224.453 54.7288C224.51 54.8965 224.607 55.0465 224.738 55.1653C224.869 55.284 225.027 55.3678 225.2 55.4091L230.188 56.5791" fill="#f5f5f5" fill-rule="nonzero" opacity="1" stroke="none"/>
<path d="M234.176 50.047L232.108 49.3345C231.475 49.0957 230.783 49.0439 230.113 49.1853C229.443 49.3266 228.823 49.6552 228.325 50.1325L224.652 53.796C224.535 53.919 224.453 54.0717 224.418 54.2368C224.383 54.4017 224.395 54.5723 224.453 54.7288C224.51 54.8965 224.607 55.0465 224.738 55.1653C224.869 55.284 225.027 55.3678 225.2 55.4091L230.188 56.5791L234.176 50.047Z" fill="none" opacity="1" stroke="#9f9f9f" stroke-linecap="round" stroke-linejoin="round" stroke-width="0.5"/>
<path d="M242.33 58.1479L243.042 60.2159C243.281 60.849 243.333 61.5412 243.192 62.2113C243.05 62.8815 242.722 63.5018 242.245 63.9996L238.581 67.6724C238.458 67.7896 238.305 67.8705 238.14 67.9057C237.975 67.941 237.805 67.9292 237.648 67.8718C237.481 67.8148 237.33 67.7167 237.212 67.5863C237.093 67.4559 237.009 67.2972 236.968 67.1246L235.798 62.1365" fill="#f5f5f5" fill-rule="nonzero" opacity="1" stroke="none"/>
<path d="M242.33 58.1479L243.042 60.2159C243.281 60.849 243.333 61.5412 243.192 62.2113C243.05 62.8815 242.722 63.5018 242.245 63.9996L238.581 67.6724C238.458 67.7896 238.305 67.8705 238.14 67.9057C237.975 67.941 237.805 67.9292 237.648 67.8718C237.481 67.8148 237.33 67.7167 237.212 67.5863C237.093 67.4559 237.009 67.2972 236.968 67.1246L235.798 62.1365L242.33 58.1479Z" fill="none" opacity="1" stroke="#9f9f9f" stroke-linecap="round" stroke-linejoin="round" stroke-width="0.5"/>
<path d="M255.891 45.7637C255.891 45.7603 255.891 45.7569 255.891 45.7535L255.544 36.7952C255.541 36.7067 255.469 36.6359 255.381 36.6324L246.423 36.2855C246.42 36.2854 246.416 36.2853 246.414 36.2854C245.062 36.3134 243.737 36.6734 242.559 37.3337C241.379 37.994 240.381 38.9344 239.651 40.0721L239.651 40.072L239.648 40.0759L229.92 56.1869C229.88 56.2536 229.89 56.339 229.946 56.3941L235.767 62.2235C235.822 62.2786 235.908 62.289 235.974 62.2488L252.085 52.5285L252.085 52.5285L252.089 52.5263C253.23 51.7992 254.174 50.8017 254.837 49.6221C255.501 48.4425 255.863 47.1173 255.891 45.7637Z" fill="#ffffff" fill-rule="nonzero" opacity="1" stroke="#9f9f9f" stroke-linecap="round" stroke-linejoin="round" stroke-width="0.5"/>
<path d="M255.374 36.8002L255.721 45.7585C255.721 45.7585 253.64 42.213 251.801 40.3737C249.962 38.5343 246.416 36.4532 246.416 36.4532L255.374 36.8002Z" fill="#f5f5f5" fill-rule="nonzero" opacity="1" stroke="none"/>
<path d="M245.249 50.1567C247.036 50.1567 248.485 48.7083 248.485 46.9214C248.485 45.1346 247.036 43.6861 245.249 43.6861C243.463 43.6861 242.014 45.1346 242.014 46.9214C242.014 48.7083 243.463 50.1567 245.249 50.1567Z" fill="#f5f5f5" fill-rule="nonzero" opacity="1" stroke="#9f9f9f" stroke-linecap="round" stroke-linejoin="round" stroke-width="0.5"/>
<path d="M230.984 66.764C230.614 67.1344 229.993 67.4168 229.243 67.6264C228.498 67.8347 227.649 67.9651 226.845 68.0461C226.041 68.127 225.287 68.1581 224.733 68.1688C224.456 68.1743 224.23 68.1745 224.073 68.1735C224.044 68.1734 224.016 68.1731 223.991 68.1728C223.991 68.1483 223.991 68.1212 223.991 68.0916C223.99 67.9347 223.99 67.7083 223.995 67.4315C224.006 66.8778 224.037 66.1235 224.119 65.3199C224.199 64.5156 224.33 63.6666 224.538 62.9217C224.748 62.1719 225.03 61.5507 225.4 61.1801C226.943 59.6382 229.443 59.6382 230.984 61.1801C232.526 62.722 232.526 65.222 230.984 66.764Z" fill="#ffffff" fill-rule="nonzero" opacity="1" stroke="#9f9f9f" stroke-linecap="butt" stroke-linejoin="miter" stroke-width="0.5"/>
<path d="M229.856 65.1381C229.075 65.9192 226.32 65.8452 226.32 65.8452C226.32 65.8452 226.246 63.0907 227.027 62.3096C227.808 61.5286 229.075 61.5286 229.856 62.3096C230.637 63.0907 230.637 64.357 229.856 65.1381Z" fill="#f5f5f5" fill-rule="nonzero" opacity="1" stroke="none"/>
</g>
</g>
</svg>
