<?xml version="1.0" encoding="UTF-8" standalone="no"?>
<!DOCTYPE svg PUBLIC "-//W3C//DTD SVG 1.1//EN" "http://www.w3.org/Graphics/SVG/1.1/DTD/svg11.dtd">
<!-- Created with Vectornator (http://vectornator.io/) -->
<svg height="149.99999999999994px" stroke-miterlimit="10" style="fill-rule:nonzero;clip-rule:evenodd;stroke-linecap:round;stroke-linejoin:round;" version="1.1" viewBox="0 0 375 150" width="375.0px" xml:space="preserve" xmlns="http://www.w3.org/2000/svg" xmlns:xlink="http://www.w3.org/1999/xlink">
<defs/>
<g id="Calque-1">
<g opacity="1">
<path d="M147.602 90.8644L226.031 90.8644L226.031 135.834C226.031 139.223 223.284 141.97 219.896 141.97L153.738 141.97C150.349 141.97 147.602 139.223 147.602 135.834L147.602 90.8644Z" fill="#282828" fill-rule="nonzero" opacity="1" stroke="#9f9f9f" stroke-linecap="butt" stroke-linejoin="miter" stroke-width="0.5"/>
<path d="M184.272 120.427L147.91 90.8644L225.724 90.8644L189.361 120.427C187.879 121.633 185.754 121.633 184.272 120.427Z" fill="#3e3e3e" fill-rule="nonzero" opacity="1" stroke="#9f9f9f" stroke-linecap="butt" stroke-linejoin="miter" stroke-width="0.5"/>
<path d="M188.983 67.5151L225.404 90.737L148.225 90.737L184.646 67.5151C185.969 66.6717 187.66 66.6717 188.983 67.5151Z" fill="#3e3e3e" fill-rule="nonzero" opacity="1" stroke="#9f9f9f" stroke-linecap="butt" stroke-linejoin="miter" stroke-width="0.5"/>
<path d="M220.331 95.4172L220.393 95.3664L220.393 95.2864L220.393 76.1812C220.393 74.673 219.17 73.4503 217.662 73.4503L155.117 73.4503C153.609 73.4503 152.386 74.6729 152.386 76.1812L152.386 94.6456L152.386 94.7262L152.449 94.777L186.71 122.634L186.816 122.721L186.923 122.634L220.331 95.4172Z" fill="#1a1a1a" fill-rule="nonzero" opacity="1" stroke="#9f9f9f" stroke-linecap="butt" stroke-linejoin="miter" stroke-width="0.5"/>
<path d="M189.778 113.106L219.382 142L154.538 142L184.143 113.106C185.71 111.577 188.211 111.577 189.778 113.106Z" fill="#282828" fill-rule="nonzero" opacity="1" stroke="#9f9f9f" stroke-linecap="butt" stroke-linejoin="miter" stroke-width="0.5"/>
<path d="M181.864 83.3554C181.864 82.5398 182.67 81.9572 183.466 82.197L197.086 86.298C197.606 86.4545 197.96 86.9246 197.96 87.4564L197.96 98.855C197.96 99.6706 197.154 100.253 196.358 100.013L182.738 95.9124C182.218 95.7559 181.864 95.2858 181.864 94.754L181.864 83.3554Z" fill="#ff9abf" fill-rule="evenodd" opacity="0.5" stroke="none"/>
<path d="M178.774 85.2921C178.774 84.4772 179.58 83.8946 180.376 84.1344L193.995 88.2354C194.515 88.3919 194.869 88.8613 194.869 89.3931L194.869 100.792C194.869 101.607 194.063 102.19 193.267 101.95L179.647 97.8491C179.128 97.6926 178.774 97.2231 178.774 96.6914L178.774 85.2921Z" fill="#f789b2" fill-rule="evenodd" opacity="0.8" stroke="none"/>
<path d="M175.677 87.7185C175.677 86.9036 176.483 86.321 177.28 86.5608L190.9 90.6618C191.419 90.8183 191.774 91.2877 191.774 91.8195L191.774 103.219C191.774 104.034 190.967 104.616 190.171 104.376L176.552 100.276C176.032 100.119 175.677 99.6496 175.677 99.1178L175.677 87.7185Z" fill="#ff5b97" fill-rule="evenodd" opacity="1" stroke="none"/>
<g opacity="1">
<clipPath clip-rule="evenodd" id="ClipPath">
<path d="M175.677 87.7158C175.677 86.9009 176.483 86.3183 177.28 86.5581L190.9 90.6591C191.419 90.8156 191.774 91.285 191.774 91.8168L191.774 103.216C191.774 104.031 190.967 104.614 190.171 104.374L176.552 100.273C176.032 100.116 175.677 99.6469 175.677 99.1151L175.677 87.7158Z"/>
</clipPath>
<g clip-path="url(#ClipPath)">
<path d="M175.677 85.6565L191.774 90.5033L183.681 97.5598C183.076 98.0868 182.126 97.9134 181.756 97.2096L175.677 85.6565Z" fill="#f2357a" fill-rule="evenodd" opacity="1" stroke="none"/>
</g>
</g>
<path d="M269.067 59.4725L268.251 54.8678L265.891 55.286L266.706 59.8907L262.039 59.0015L261.649 61.3055L266.296 62.0787L264.259 66.3507L266.543 67.303L268.482 62.9286L272.037 66.3295L273.578 64.6599L270.243 61.3794L274.418 59.0433L273.144 57.034L269.067 59.4725Z" fill="#ffaa4c" fill-rule="nonzero" opacity="1" stroke="none"/>
<path d="M107.443 61.8028L105.324 57.6338L103.187 58.7198L105.306 62.8888L100.582 63.3942L100.878 65.7121L105.549 65.1017L104.841 69.7812L107.303 70.0287L107.887 65.2797L112.278 67.5005L113.266 65.4554L109.122 63.2856L112.439 59.8369L110.636 58.2845L107.443 61.8028Z" fill="#ffaa4c" fill-rule="nonzero" opacity="1" stroke="none"/>
<path d="M154.565 41.3081L155.231 38.1618L153.631 37.8232L152.965 40.9695L150.242 39.2055L149.404 40.5751L152.144 42.2599L149.76 44.4625L150.96 45.6556L153.309 43.3626L154.685 46.4437L156.087 45.7737L154.82 42.826L158.06 42.4066L157.77 40.7984L154.565 41.3081Z" fill="#ffdf9e" fill-rule="nonzero" opacity="1" stroke="none"/>
<path d="M206.1 16.6765L206.1 12L203.703 12L203.703 16.6765L199.262 14.9866L198.476 17.1873L202.917 18.7592L200.166 22.6104L202.249 23.9465L204.921 19.9774L207.829 23.9465L209.637 22.5711L206.925 18.7592L211.445 17.1873L210.54 14.9866L206.1 16.6765Z" fill="#ffdf9e" fill-rule="nonzero" opacity="1" stroke="none"/>
<path d="M268.986 95.8168L268.986 92.8912L267.486 92.8912L267.486 95.8168L264.707 94.7594L264.215 96.1366L266.994 97.1202L265.273 99.5297L266.576 100.366L268.248 97.8822L270.068 100.366L271.198 99.5046L269.502 97.1202L272.329 96.1366L271.764 94.7594L268.986 95.8168Z" fill="#ffdf9e" fill-rule="nonzero" opacity="1" stroke="none"/>
<path d="M234.175 50.0464L232.107 49.3339C231.475 49.0951 230.782 49.0433 230.112 49.1846C229.442 49.326 228.822 49.6546 228.324 50.1319L224.651 53.7953C224.534 53.9183 224.453 54.071 224.417 54.236C224.382 54.401 224.394 54.5715 224.452 54.728C224.509 54.8957 224.606 55.0458 224.737 55.1645C224.868 55.2833 225.026 55.3671 225.199 55.4083L230.187 56.5783" fill="#3e3e3e" fill-rule="nonzero" opacity="1" stroke="none"/>
<path d="M234.175 50.0464L232.107 49.3339C231.475 49.0951 230.782 49.0433 230.112 49.1846C229.442 49.326 228.822 49.6546 228.324 50.1319L224.651 53.7953C224.534 53.9183 224.453 54.071 224.417 54.236C224.382 54.401 224.394 54.5715 224.452 54.728C224.509 54.8957 224.606 55.0458 224.737 55.1645C224.868 55.2833 225.026 55.3671 225.199 55.4083L230.187 56.5783L234.175 50.0464Z" fill="none" opacity="1" stroke="#9f9f9f" stroke-linecap="round" stroke-linejoin="round" stroke-width="0.5"/>
<path d="M242.329 58.1471L243.041 60.215C243.28 60.8481 243.332 61.5403 243.191 62.2105C243.049 62.8806 242.721 63.5009 242.244 63.9987L238.58 67.6715C238.457 67.7886 238.304 67.8695 238.14 67.9048C237.974 67.94 237.804 67.9283 237.647 67.8708C237.48 67.8138 237.329 67.7158 237.211 67.5853C237.092 67.4549 237.008 67.2962 236.967 67.1236L235.797 62.1356" fill="#3e3e3e" fill-rule="nonzero" opacity="1" stroke="none"/>
<path d="M242.329 58.1471L243.041 60.215C243.28 60.8481 243.332 61.5403 243.191 62.2105C243.049 62.8806 242.721 63.5009 242.244 63.9987L238.58 67.6715C238.457 67.7886 238.304 67.8695 238.14 67.9048C237.974 67.94 237.804 67.9283 237.647 67.8708C237.48 67.8138 237.329 67.7158 237.211 67.5853C237.092 67.4549 237.008 67.2962 236.967 67.1236L235.797 62.1356L242.329 58.1471Z" fill="none" opacity="1" stroke="#9f9f9f" stroke-linecap="round" stroke-linejoin="round" stroke-width="0.5"/>
<path d="M255.89 45.7631C255.89 45.7597 255.89 45.7563 255.89 45.7529L255.543 36.7947C255.539 36.7063 255.468 36.6355 255.38 36.632L246.422 36.2851C246.419 36.285 246.415 36.2849 246.413 36.285C245.061 36.3129 243.736 36.6729 242.558 37.3333C241.378 37.9935 240.38 38.9339 239.65 40.0716L239.65 40.0715L239.647 40.0754L229.919 56.1861C229.879 56.2528 229.89 56.3383 229.945 56.3933L235.766 62.2226C235.821 62.2777 235.907 62.2882 235.973 62.2479L252.084 52.5278L252.084 52.5278L252.088 52.5256C253.229 51.7985 254.173 50.801 254.836 49.6214C255.499 48.4419 255.862 47.1167 255.89 45.7631Z" fill="#1a1a1a" fill-rule="nonzero" opacity="1" stroke="#9f9f9f" stroke-linecap="round" stroke-linejoin="round" stroke-width="0.5"/>
<path d="M255.373 36.7997L255.72 45.7579C255.72 45.7579 253.639 42.2125 251.8 40.3732C249.961 38.5339 246.415 36.4528 246.415 36.4528L255.373 36.7997Z" fill="#3e3e3e" fill-rule="nonzero" opacity="1" stroke="none"/>
<path d="M245.248 50.156C247.035 50.156 248.484 48.7076 248.484 46.9208C248.484 45.134 247.035 43.6855 245.248 43.6855C243.462 43.6855 242.013 45.134 242.013 46.9208C242.013 48.7076 243.462 50.156 245.248 50.156Z" fill="#3e3e3e" fill-rule="nonzero" opacity="1" stroke="#9f9f9f" stroke-linecap="round" stroke-linejoin="round" stroke-width="0.5"/>
<path d="M230.984 66.763C230.613 67.1335 229.992 67.4159 229.242 67.6255C228.497 67.8337 227.648 67.9642 226.844 68.0451C226.041 68.126 225.286 68.1571 224.732 68.1679C224.455 68.1733 224.229 68.1735 224.072 68.1725C224.043 68.1724 224.016 68.1721 223.991 68.1719C223.991 68.1473 223.991 68.1202 223.99 68.0906C223.989 67.9337 223.989 67.7074 223.995 67.4306C224.006 66.8769 224.037 66.1225 224.118 65.319C224.199 64.5146 224.329 63.6656 224.537 62.9208C224.747 62.171 225.029 61.5498 225.4 61.1792C226.942 59.6373 229.442 59.6373 230.984 61.1792C232.525 62.7211 232.525 65.2211 230.984 66.763Z" fill="#1a1a1a" fill-rule="nonzero" opacity="1" stroke="#9f9f9f" stroke-linecap="butt" stroke-linejoin="miter" stroke-width="0.5"/>
<path d="M229.855 65.1372C229.074 65.9182 226.319 65.8443 226.319 65.8443C226.319 65.8443 226.245 63.0898 227.026 62.3087C227.807 61.5277 229.074 61.5277 229.855 62.3087C230.636 63.0898 230.636 64.3561 229.855 65.1372Z" fill="#3e3e3e" fill-rule="nonzero" opacity="1" stroke="none"/>
</g>
</g>
</svg>
