<svg width="18" height="18" viewBox="0 0 18 18" fill="none" xmlns="http://www.w3.org/2000/svg">
<path fill-rule="evenodd" clip-rule="evenodd" d="M8.21775 1.6875C8.21775 1.16973 8.63748 0.75 9.15525 0.75C9.67302 0.75 10.0927 1.16973 10.0927 1.6875V9.30975C10.0925 9.35954 10.1122 9.40735 10.1474 9.44255C10.1827 9.47776 10.2305 9.49745 10.2802 9.49725H11.8965C12.1998 9.49731 12.4732 9.68005 12.5893 9.96026C12.7053 10.2405 12.6412 10.563 12.4268 10.7775L9.68775 13.5165C9.39487 13.8093 8.92013 13.8093 8.62725 13.5165L5.8875 10.7775C5.67373 10.5637 5.60925 10.2424 5.72397 9.96267C5.83869 9.68293 6.11016 9.49942 6.4125 9.49725H8.03025C8.1338 9.49725 8.21775 9.4133 8.21775 9.30975V1.6875ZM16.6875 15.816C17.2053 15.816 17.625 16.2357 17.625 16.7535C17.625 17.2713 17.2053 17.691 16.6875 17.691H0.9375C0.419733 17.691 0 17.2713 0 16.7535C0 16.2357 0.419733 15.816 0.9375 15.816H16.6875Z" fill="#666666"/>
<mask id="mask0_4730_49212" style="mask-type:alpha" maskUnits="userSpaceOnUse" x="0" y="0" width="18" height="18">
<path fill-rule="evenodd" clip-rule="evenodd" d="M8.21775 1.6875C8.21775 1.16973 8.63748 0.75 9.15525 0.75C9.67302 0.75 10.0927 1.16973 10.0927 1.6875V9.30975C10.0925 9.35954 10.1122 9.40735 10.1474 9.44255C10.1827 9.47776 10.2305 9.49745 10.2802 9.49725H11.8965C12.1998 9.49731 12.4732 9.68005 12.5893 9.96026C12.7053 10.2405 12.6412 10.563 12.4268 10.7775L9.68775 13.5165C9.39487 13.8093 8.92013 13.8093 8.62725 13.5165L5.8875 10.7775C5.67373 10.5637 5.60925 10.2424 5.72397 9.96267C5.83869 9.68293 6.11016 9.49942 6.4125 9.49725H8.03025C8.1338 9.49725 8.21775 9.4133 8.21775 9.30975V1.6875ZM16.6875 15.816C17.2053 15.816 17.625 16.2357 17.625 16.7535C17.625 17.2713 17.2053 17.691 16.6875 17.691H0.9375C0.419733 17.691 0 17.2713 0 16.7535C0 16.2357 0.419733 15.816 0.9375 15.816H16.6875Z" fill="white"/>
</mask>
<g mask="url(#mask0_4730_49212)">
</g>
</svg>
