<svg width="24" height="24" viewBox="0 0 24 24" fill="none" xmlns="http://www.w3.org/2000/svg">
<path fill-rule="evenodd" clip-rule="evenodd" d="M18 11C18.7956 11 19.5585 11.3163 20.1211 11.8789C20.6837 12.4415 21 13.2044 21 14V15.001H21.5C21.7474 15.001 22.0036 15.0687 22.2236 15.1787C22.4079 15.2709 22.6074 15.417 22.7598 15.6455C22.9142 15.8771 23 16.1635 23 16.501V22.5107C22.9989 22.5801 22.9942 22.8797 22.8223 23.2236C22.7301 23.4079 22.584 23.6074 22.3555 23.7598C22.1238 23.9142 21.8375 24 21.5 24H14.5C14.2503 24 13.999 23.9336 13.7764 23.8223C13.5921 23.7301 13.3926 23.584 13.2402 23.3555C13.0858 23.1239 13 22.8375 13 22.5V16.501C13 16.2513 13.0664 15.9999 13.1777 15.7773C13.2699 15.593 13.416 15.3935 13.6445 15.2412C13.8762 15.0868 14.1625 15.001 14.5 15.001H15V14C15 13.2044 15.3163 12.4415 15.8789 11.8789C16.4415 11.3163 17.2044 11 18 11ZM17.998 17.75C17.7564 17.751 17.5554 17.9233 17.5098 18.1514L17.5 18.252L17.5098 20.752L17.5205 20.8525C17.568 21.0802 17.7702 21.2508 18.0117 21.25C18.2534 21.249 18.4543 21.0767 18.5 20.8486L18.5098 20.748L18.5 18.248L18.4893 18.1475C18.4418 17.9198 18.2397 17.7491 17.998 17.75ZM18 12C17.4696 12 16.961 12.2109 16.5859 12.5859C16.2109 12.961 16 13.4696 16 14V15H20V14C19.9736 13.4671 19.799 12.9709 19.4141 12.5859C19.039 12.2109 18.5304 12 18 12Z" fill="black"/>
<path d="M22.5 4C22.8978 4 23.2792 4.15815 23.5605 4.43945C23.8419 4.72076 24 5.10218 24 5.5V10.5215C23.9997 10.7974 23.776 11.0215 23.5 11.0215C23.224 11.0215 23.0003 10.7974 23 10.5215V5.5C23 5.36739 22.9473 5.24025 22.8535 5.14648C22.7597 5.05272 22.6326 5 22.5 5H1.5C1.36739 5 1.24025 5.05272 1.14648 5.14648C1.05272 5.24025 1 5.36739 1 5.5V12.5C1 12.6326 1.05272 12.7597 1.14648 12.8535C1.24025 12.9473 1.36739 13 1.5 13H10.5C10.7761 13 11 13.2239 11 13.5C11 13.7761 10.7761 14 10.5 14H1.5C1.10217 14 0.720757 13.8419 0.439453 13.5605C0.158149 13.2792 0 12.8978 0 12.5V5.5C0 5.10218 0.158149 4.72076 0.439453 4.43945C0.720757 4.15815 1.10217 4 1.5 4H22.5Z" fill="black"/>
<path d="M4.5 6.5C4.77604 6.50012 5 6.72393 5 7V8.07422L5.89844 7.48535C6.12921 7.33404 6.43929 7.39834 6.59082 7.62891C6.74196 7.85975 6.678 8.1699 6.44727 8.32129L5.40625 9.00293L6.44141 9.69336L6.51953 9.75781C6.68317 9.92285 6.71373 10.1857 6.58008 10.3867C6.44595 10.5877 6.191 10.661 5.97559 10.5732L5.88672 10.5254L5 9.93359V11C5 11.2761 4.77604 11.4999 4.5 11.5C4.22394 11.4999 4 11.2761 4 11V9.92676L3.10254 10.5156C2.87176 10.6669 2.56167 10.6017 2.41016 10.3711C2.25909 10.1404 2.32329 9.83117 2.55371 9.67969L3.59375 8.99609L2.55859 8.30566L2.48047 8.24121C2.31686 8.07604 2.28599 7.81328 2.41992 7.6123C2.55407 7.41146 2.80907 7.3381 3.02441 7.42578L3.11328 7.47363L4 8.06445V7C4 6.72392 4.22394 6.50009 4.5 6.5Z" fill="black"/>
<path d="M10.5 6.5C10.776 6.50012 11 6.72393 11 7V8.07422L11.8984 7.48535L11.9883 7.43848C12.2043 7.3524 12.4582 7.42708 12.5908 7.62891C12.723 7.83086 12.6911 8.09396 12.5264 8.25781L12.4473 8.32129L11.4062 9.00293L12.4414 9.69336L12.5195 9.75781C12.6832 9.92285 12.7137 10.1857 12.5801 10.3867C12.446 10.5877 12.191 10.661 11.9756 10.5732L11.8867 10.5254L11 9.93359V11C11 11.2761 10.776 11.4999 10.5 11.5C10.2239 11.4999 10 11.2761 10 11V9.92676L9.10254 10.5156C8.87177 10.6669 8.56167 10.6017 8.41016 10.3711C8.25909 10.1404 8.32329 9.83117 8.55371 9.67969L9.59375 8.99609L8.55859 8.30566L8.48047 8.24121C8.31686 8.07604 8.28599 7.81328 8.41992 7.6123C8.55407 7.41146 8.80907 7.3381 9.02441 7.42578L9.11328 7.47363L10 8.06445V7C10 6.72392 10.2239 6.50009 10.5 6.5Z" fill="black"/>
</svg>
