<svg width="75" height="75" viewBox="0 0 75 75" fill="none" xmlns="http://www.w3.org/2000/svg">
<g clip-path="url(#clip0_8705_56971)">
<path d="M8.5 12.5C8.5 11.6712 8.82924 10.8763 9.41529 10.2903C10.0013 9.70424 10.7962 9.375 11.625 9.375H64.75C65.5788 9.375 66.3737 9.70424 66.9597 10.2903C67.5458 10.8763 67.875 11.6712 67.875 12.5V21.875" stroke="#BC0055" stroke-width="4" stroke-linecap="round" stroke-linejoin="round"/>
<path d="M73.9144 27.4088C73.4678 26.8375 72.9045 26.3774 72.2658 26.0621C71.627 25.7467 70.9288 25.5841 70.2221 25.5859H32.4712C32.1038 25.5868 31.7474 25.455 31.4625 25.2129C31.1776 24.9708 30.9818 24.6334 30.9083 24.2578L30.0234 19.626C29.8064 18.4974 29.2214 17.4821 28.3677 16.7527C27.5141 16.0233 26.4447 15.6248 25.3412 15.625H4.77872C4.07037 15.6244 3.37075 15.7881 2.73059 16.1045C2.09043 16.4208 1.52576 16.8817 1.07752 17.4539C0.629277 18.026 0.308695 18.695 0.139011 19.4124C-0.030672 20.1298 -0.0452049 20.8776 0.0964662 21.6016L8.37238 64.7656C8.59263 65.8911 9.17908 66.9026 10.0324 67.6287C10.8857 68.3549 11.9534 68.751 13.0546 68.75H63.8592C64.9599 68.7502 66.0268 68.3538 66.8795 67.6277C67.7322 66.9016 68.3181 65.8906 68.5383 64.7656L74.9044 31.5625C75.0457 30.8369 75.0302 30.0876 74.859 29.3691C74.6877 28.6505 74.3651 27.9809 73.9144 27.4088Z" fill="url(#paint0_linear_8705_56971)"/>
</g>
<defs>
<linearGradient id="paint0_linear_8705_56971" x1="0.89523" y1="17.2852" x2="68.2111" y2="67.6523" gradientUnits="userSpaceOnUse">
<stop stop-color="#BC0055"/>
<stop offset="1" stop-color="#FF4388"/>
</linearGradient>
<clipPath id="clip0_8705_56971">
<rect width="75" height="75" fill="white"/>
</clipPath>
</defs>
</svg>
