<svg width="75" height="75" viewBox="0 0 75 75" fill="none" xmlns="http://www.w3.org/2000/svg">
<path d="M8.5 12.5049C8.5 11.6761 8.82924 10.8812 9.41529 10.2952C10.0013 9.70912 10.7962 9.37988 11.625 9.37988H64.75C65.5788 9.37988 66.3737 9.70912 66.9597 10.2952C67.5458 10.8812 67.875 11.6761 67.875 12.5049V21.8799" stroke="#E07FA3" stroke-width="4" stroke-linecap="round" stroke-linejoin="round"/>
<path d="M73.9144 27.4137C73.4678 26.8424 72.9045 26.3823 72.2658 26.067C71.627 25.7516 70.9288 25.5889 70.2221 25.5908H32.4712C32.1038 25.5917 31.7474 25.4599 31.4625 25.2178C31.1776 24.9757 30.9818 24.6382 30.9083 24.2627L30.0234 19.6309C29.8064 18.5023 29.2214 17.487 28.3677 16.7576C27.5141 16.0281 26.4447 15.6297 25.3412 15.6299H4.77872C4.07037 15.6292 3.37075 15.793 2.73059 16.1093C2.09043 16.4257 1.52576 16.8866 1.07752 17.4587C0.629277 18.0309 0.308695 18.6999 0.139011 19.4173C-0.030672 20.1347 -0.0452049 20.8825 0.0964662 21.6064L8.37238 64.7705C8.59263 65.896 9.17908 66.9075 10.0324 67.6336C10.8857 68.3598 11.9534 68.7559 13.0546 68.7549H63.8592C64.9599 68.7551 66.0268 68.3586 66.8795 67.6326C67.7322 66.9065 68.3181 65.8954 68.5383 64.7705L74.9044 31.5674C75.0457 30.8418 75.0302 30.0925 74.859 29.3739C74.6877 28.6554 74.3651 27.9857 73.9144 27.4137Z" fill="url(#paint0_linear_9801_62521)"/>
<defs>
<linearGradient id="paint0_linear_9801_62521" x1="0.89523" y1="17.29" x2="68.2111" y2="67.6572" gradientUnits="userSpaceOnUse">
<stop stop-color="#E07FA3"/>
<stop offset="1" stop-color="#FF4388"/>
</linearGradient>
</defs>
</svg>
