<svg width="24" height="24" viewBox="0 0 24 24" fill="none" xmlns="http://www.w3.org/2000/svg">
<path d="M3.5 24C2.673 24 2 23.327 2 22.5V1.5C2 0.673 2.673 0 3.5 0H16.793C17.214 0.012 17.578 0.163 17.853 0.437L21.561 4.147C21.844 4.43 22 4.807 22 5.207V22.5C22 23.327 21.327 24 20.5 24H3.5ZM3.5 1C3.224 1 3 1.224 3 1.5V22.5C3 22.776 3.224 23 3.5 23H20.5C20.776 23 21 22.776 21 22.5V5.207C21 5.074 20.948 4.948 20.854 4.853L17.147 1.144C17.052 1.051 16.93 1.001 16.792 1H3.5Z" fill="#FF540B"/>
<path d="M6.14786 20.3508C6.07586 20.3508 6.00387 20.3458 5.93087 20.3368C5.33287 20.2628 4.81086 19.8778 4.60086 19.3558C4.38986 18.8318 4.50287 18.2608 4.91887 17.7488C5.96687 16.5128 7.17587 15.4438 8.51887 14.5648C8.66187 13.6768 8.71987 12.7178 8.69387 11.7128C8.68487 11.3608 8.66387 10.9978 8.63287 10.6318C7.57087 9.59381 6.66087 8.41981 5.92787 7.13981C5.56486 6.53881 5.56087 5.86681 5.91887 5.30081C6.22487 4.81981 6.75987 4.50781 7.28187 4.50781C7.32787 4.50781 7.37487 4.50981 7.42087 4.51481C7.93287 4.56881 8.34386 4.91481 8.54686 5.46281C9.03187 6.77681 9.42186 8.52781 9.59386 10.1658C10.5959 11.0988 11.7179 11.8918 12.9329 12.5248C14.4599 12.0768 16.0509 11.8488 17.6629 11.8488H17.7739C18.4779 11.8748 19.0389 12.2188 19.3209 12.7908C19.5929 13.3428 19.5489 14.0338 19.2099 14.5108C18.9369 14.8958 18.5139 15.1078 18.0179 15.1078C17.9459 15.1078 17.8729 15.1028 17.7989 15.0938C16.0799 14.8688 14.4129 14.3658 12.8409 13.5968C11.6449 13.9808 10.4979 14.5098 9.42787 15.1688C9.09887 16.8578 8.46786 18.3498 7.55287 19.6058C7.20387 20.0868 6.70486 20.3508 6.14786 20.3508ZM8.19587 16.0148C7.27787 16.7098 6.43687 17.5048 5.68887 18.3878C5.56887 18.5358 5.44086 18.7628 5.52886 18.9838C5.60386 19.1708 5.81486 19.3158 6.05486 19.3458C6.08086 19.3488 6.11187 19.3518 6.14487 19.3518C6.38287 19.3518 6.58486 19.2408 6.74486 19.0208C7.38187 18.1448 7.86887 17.1358 8.19587 16.0148ZM14.3859 13.1888C15.5269 13.6388 16.7149 13.9458 17.9249 14.1048C17.9559 14.1088 17.9879 14.1108 18.0199 14.1108C18.1869 14.1108 18.3099 14.0528 18.3939 13.9348C18.5239 13.7518 18.5359 13.4638 18.4239 13.2348C18.2749 12.9328 17.9759 12.8588 17.7509 12.8498H17.6589C16.5519 12.8498 15.4549 12.9638 14.3859 13.1888ZM9.69387 11.6868C9.71387 12.4538 9.68687 13.1978 9.61387 13.9068C10.2719 13.5448 10.9549 13.2278 11.6559 12.9578C10.9679 12.5468 10.3099 12.0858 9.68986 11.5778C9.69186 11.6138 9.69287 11.6498 9.69387 11.6868ZM7.28087 5.50781C7.09887 5.50781 6.88586 5.64281 6.76386 5.83581C6.65686 6.00481 6.57487 6.27881 6.78787 6.62981C7.25787 7.45081 7.80187 8.22281 8.41487 8.93781C8.22087 7.80581 7.93687 6.69881 7.60887 5.80981C7.53987 5.62381 7.44186 5.52281 7.31587 5.50981C7.30487 5.50881 7.29287 5.50781 7.28087 5.50781Z" fill="#FF540B"/>
</svg>
