<svg width="24" height="24" viewBox="0 0 24 24" fill="none" xmlns="http://www.w3.org/2000/svg">
<path d="M1 19.5H23" stroke="#BC0055" stroke-linecap="round" stroke-linejoin="round"/>
<mask id="mask0_18357_16010" style="mask-type:alpha" maskUnits="userSpaceOnUse" x="0" y="0" width="24" height="17">
<rect width="24" height="17" transform="matrix(1 0 0 -1 0 17)" fill="#D9D9D9"/>
</mask>
<g mask="url(#mask0_18357_16010)">
<path d="M12 1C12.2761 1 12.5 1.22386 12.5 1.5V3C12.5 3.27614 12.2761 3.5 12 3.5C11.7239 3.5 11.5 3.27614 11.5 3V1.5C11.5 1.22386 11.7239 1 12 1Z" fill="#BC0055"/>
<path fill-rule="evenodd" clip-rule="evenodd" d="M6.34315 7.34315C7.84344 5.84286 9.87827 5.00001 12 5.00001C14.1217 5.00001 16.1566 5.84286 17.6569 7.34315C19.1571 8.84344 20 10.8783 20 13C20 15.1217 19.1571 17.1566 17.6569 18.6569C16.1566 20.1572 14.1217 21 12 21C9.87827 21 7.84344 20.1572 6.34315 18.6569C4.84285 17.1566 4 15.1217 4 13C4 10.8783 4.84285 8.84344 6.34315 7.34315ZM12 6.00001C10.1435 6.00001 8.36301 6.7375 7.05025 8.05026C5.7375 9.36301 5 11.1435 5 13C5 14.8565 5.7375 16.637 7.05025 17.9498C8.36301 19.2625 10.1435 20 12 20C13.8565 20 15.637 19.2625 16.9497 17.9498C18.2625 16.637 19 14.8565 19 13C19 11.1435 18.2625 9.36301 16.9497 8.05026C15.637 6.7375 13.8565 6.00001 12 6.00001Z" fill="#BC0055"/>
<path d="M20.7171 4.98991C20.9124 4.79464 20.9124 4.47806 20.7171 4.2828C20.5219 4.08754 20.2053 4.08754 20.01 4.2828L18.9646 5.32825C18.7693 5.52352 18.7693 5.8401 18.9646 6.03536C19.1598 6.23062 19.4764 6.23062 19.6717 6.03536L20.7171 4.98991Z" fill="#BC0055"/>
<path d="M21.5 13C21.5 12.7239 21.7239 12.5 22 12.5H23.5C23.7761 12.5 24 12.7239 24 13C24 13.2761 23.7761 13.5 23.5 13.5H22C21.7239 13.5 21.5 13.2761 21.5 13Z" fill="#BC0055"/>
<path d="M19.6717 19.9646C19.4764 19.7694 19.1598 19.7694 18.9646 19.9646C18.7693 20.1599 18.7693 20.4765 18.9646 20.6717L20.01 21.7172C20.2053 21.9124 20.5219 21.9124 20.7171 21.7172C20.9124 21.5219 20.9124 21.2053 20.7171 21.0101L19.6717 19.9646Z" fill="#BC0055"/>
<path d="M12 22.5C12.2761 22.5 12.5 22.7239 12.5 23V24.5C12.5 24.7761 12.2761 25 12 25C11.7239 25 11.5 24.7761 11.5 24.5V23C11.5 22.7239 11.7239 22.5 12 22.5Z" fill="#BC0055"/>
<path d="M5.03548 20.6717C5.23074 20.4765 5.23074 20.1599 5.03548 19.9646C4.84022 19.7694 4.52364 19.7694 4.32838 19.9646L3.28292 21.0101C3.08766 21.2053 3.08766 21.5219 3.28292 21.7172C3.47818 21.9124 3.79477 21.9124 3.99003 21.7172L5.03548 20.6717Z" fill="#BC0055"/>
<path d="M0 13C0 12.7239 0.223858 12.5 0.5 12.5H2C2.27614 12.5 2.5 12.7239 2.5 13C2.5 13.2761 2.27614 13.5 2 13.5H0.5C0.223858 13.5 0 13.2761 0 13Z" fill="#BC0055"/>
<path d="M3.99003 4.2828C3.79477 4.08754 3.47818 4.08754 3.28292 4.2828C3.08766 4.47806 3.08766 4.79464 3.28292 4.98991L4.32838 6.03536C4.52364 6.23062 4.84022 6.23062 5.03548 6.03536C5.23074 5.8401 5.23074 5.52352 5.03548 5.32825L3.99003 4.2828Z" fill="#BC0055"/>
</g>
</svg>
