<svg width="25" height="24" viewBox="0 0 25 24" fill="none" xmlns="http://www.w3.org/2000/svg">
<g clip-path="url(#clip0_3268_49407)">
<path d="M1 12.2595H25V14.1865H19.179C19.4948 14.8252 19.6542 15.5253 19.6449 16.2328C19.6635 16.904 19.514 17.5697 19.209 18.1734C18.9039 18.7771 18.4524 19.3011 17.8925 19.701C16.5439 20.6153 14.917 21.0694 13.27 20.9914C12.0666 20.9992 10.8749 20.7633 9.77221 20.299C8.76516 19.8964 7.89223 19.2351 7.24869 18.3872C6.65616 17.5776 6.3435 16.6087 6.35515 15.6181V15.4725H6.73812V15.4711H7.19344V15.4725H9.02667V15.6181C9.00578 16.0695 9.09842 16.5191 9.29671 16.9286C9.495 17.3381 9.79306 17.6953 10.1655 17.9699C11.0687 18.5895 12.1627 18.897 13.27 18.8425C14.2475 18.9041 15.2193 18.6578 16.0389 18.1408C16.3427 17.9244 16.5868 17.6394 16.7498 17.311C16.9128 16.9825 16.9898 16.6206 16.9739 16.2568C16.9952 15.9054 16.9278 15.5542 16.7776 15.2333C16.6274 14.9124 16.3987 14.6314 16.1113 14.4141C15.9935 14.3318 15.8711 14.2558 15.7447 14.1864H1V12.2595ZM18.793 5.65226C18.2309 4.81083 17.4361 4.13737 16.4981 3.70778C15.4525 3.22785 14.3057 2.98768 13.1476 3.0061C11.5328 2.93933 9.9451 3.42239 8.66292 4.37058C8.11247 4.78019 7.66845 5.30756 7.36597 5.91098C7.06349 6.51441 6.91084 7.17736 6.92008 7.84742C6.91542 8.48242 7.06212 9.10998 7.34888 9.68174H10.8111C10.6999 9.61282 10.564 9.54586 10.4742 9.47537C10.2029 9.28256 9.98269 9.03077 9.83144 8.7405C9.68019 8.45022 9.60218 8.12965 9.60376 7.80485C9.58365 7.43408 9.65657 7.0641 9.81635 6.72625C9.97613 6.3884 10.2181 6.09262 10.5217 5.86398C11.2898 5.35071 12.2145 5.10079 13.1476 5.15429C14.1622 5.09214 15.1641 5.39865 15.9556 6.01334C16.2866 6.31369 16.5459 6.67983 16.7153 7.08636C16.8848 7.49289 16.9604 7.93008 16.937 8.36759V8.51329H19.6079V8.36759C19.6123 7.40589 19.3294 6.46326 18.793 5.65226V5.65226Z" fill="black"/>
</g>
<defs>
<clipPath id="clip0_3268_49407">
<rect width="24" height="24" fill="white" transform="translate(0.876953)"/>
</clipPath>
</defs>
</svg>
