<svg width="25" height="18" viewBox="0 0 25 18" fill="none" xmlns="http://www.w3.org/2000/svg">
<path d="M3 8.23063H21V9.94351H16.6342C16.8711 10.5113 16.9906 11.1336 16.9836 11.7625C16.9977 12.3591 16.8855 12.9508 16.6567 13.4875C16.428 14.0241 16.0893 14.4899 15.6694 14.8453C14.6579 15.658 13.4378 16.0617 12.2025 15.9923C11.3 15.9993 10.4062 15.7896 9.57916 15.3769C8.82387 15.0191 8.16917 14.4312 7.68652 13.6775C7.24212 12.9579 7.00762 12.0966 7.01636 11.2161V11.0866H7.30359V11.0854H7.64508V11.0866H9.02V11.2161C9.00433 11.6173 9.07382 12.017 9.22253 12.3809C9.37125 12.7449 9.59479 13.0625 9.87413 13.3066C10.5515 13.8573 11.372 14.1307 12.2025 14.0822C12.9356 14.137 13.6645 13.9181 14.2792 13.4585C14.507 13.2661 14.6901 13.0128 14.8124 12.7209C14.9346 12.4289 14.9923 12.1072 14.9804 11.7838C14.9964 11.4715 14.9459 11.1593 14.8332 10.8741C14.7205 10.5888 14.5491 10.339 14.3335 10.1459C14.2451 10.0728 14.1533 10.0052 14.0585 9.94347H3V8.23063ZM16.3447 2.35757C15.9232 1.60962 15.3271 1.01099 14.6236 0.629141C13.8394 0.202529 12.9793 -0.0109506 12.1107 0.00542321C10.8996 -0.0539316 9.70883 0.375453 8.74719 1.21829C8.33435 1.58239 8.00134 2.05116 7.77448 2.58754C7.54762 3.12392 7.43313 3.71321 7.44006 4.30882C7.43656 4.87326 7.54659 5.43109 7.76166 5.93932H10.3583C10.275 5.87806 10.173 5.81854 10.1056 5.75589C9.90219 5.5845 9.73702 5.36069 9.62358 5.10266C9.51014 4.84464 9.45164 4.55969 9.45282 4.27097C9.43773 3.9414 9.49242 3.61254 9.61226 3.31222C9.73209 3.01191 9.91354 2.749 10.1412 2.54576C10.7173 2.08952 11.4109 1.86737 12.1107 1.91492C12.8717 1.85968 13.6231 2.13214 14.2167 2.67853C14.465 2.9455 14.6594 3.27096 14.7865 3.63232C14.9136 3.99368 14.9703 4.3823 14.9527 4.77119V4.9007H16.9559V4.77119C16.9592 3.91635 16.7471 3.07846 16.3447 2.35757V2.35757Z" fill="#666666"/>
</svg>
