<svg width="24" height="25" viewBox="0 0 24 25" fill="none" xmlns="http://www.w3.org/2000/svg">
<path d="M4.07934 6.63134C6.76515 3.15632 9.60051 2.28046 13.1467 3.5581C12.8549 3.67501 12.5894 3.76978 12.3938 3.8335L12.1697 3.90088L12.0744 3.9287C11.6663 4.04147 11.3158 4.26901 11.0491 4.56739C10.2019 4.4452 9.45339 4.50728 8.7639 4.73584C7.6518 5.10484 6.49702 5.95681 5.26585 7.54981L5.22337 7.604L5.1765 7.65527C4.30239 8.59169 3.30916 9.85286 2.56615 11.0874C2.19514 11.7039 1.90444 12.2834 1.71946 12.7895C1.52785 13.3141 1.48704 13.6582 1.50267 13.8413L1.50853 13.9043V13.9687C1.51051 17.1573 3.75054 20.1675 6.9768 21.6724C10.1086 23.133 13.9403 23.0565 17.0828 20.3877C17.765 19.4758 18.5829 17.8557 19.0764 16.0533C19.3844 14.9277 19.535 13.8403 19.5041 12.8818C19.7664 12.6243 19.9656 12.2991 20.0696 11.9282L20.1252 11.7305C20.1357 11.6954 20.1464 11.6577 20.1603 11.6147C20.2295 11.4032 20.3336 11.1088 20.4636 10.7886C20.4962 10.7084 20.5317 10.6314 20.5647 10.5557C21.9321 13.9456 19.877 19.2658 18.1887 21.4189L17.8415 21.7105C10.616 27.5655 0.344095 21.8377 0.0158564 14.3335L0.0085322 13.9702C-0.160368 12.0041 2.21269 8.63107 4.07934 6.63134ZM17.9997 0.00146484C18.2913 0.00146484 18.5463 0.195386 18.6237 0.476074V0.480469C18.6237 0.480469 18.6272 0.491042 18.6296 0.499511C18.6345 0.515272 18.6432 0.540604 18.6516 0.572753C18.671 0.638086 18.699 0.735182 18.7365 0.852539C18.8139 1.09086 18.9285 1.41911 19.0749 1.77832C19.3773 2.5223 19.7829 3.31247 20.2365 3.76612C20.6903 4.21976 21.4803 4.62529 22.2243 4.92773C22.5836 5.07412 22.913 5.18869 23.1501 5.26612C23.2674 5.30483 23.3631 5.33171 23.4284 5.35108C23.4608 5.36063 23.4863 5.36674 23.5031 5.37158C23.5104 5.374 23.5185 5.37623 23.5221 5.37743H23.5266C23.8071 5.45612 24.0012 5.71139 24.0012 6.00293C24.0011 6.25675 23.8536 6.48479 23.6277 6.58886L23.5251 6.62402H23.5208C23.5208 6.62402 23.5101 6.62746 23.5017 6.62989C23.4858 6.63472 23.4593 6.64226 23.427 6.65185C23.3616 6.67121 23.2659 6.70081 23.1486 6.73828C22.9103 6.81571 22.5819 6.9301 22.2228 7.07519C21.479 7.37762 20.6886 7.78328 20.235 8.23681C19.7816 8.69038 19.3773 9.47938 19.0749 10.2231C18.9285 10.5837 18.8126 10.9133 18.735 11.1504C18.6963 11.269 18.6695 11.3634 18.6501 11.4287C18.6405 11.4609 18.6318 11.4851 18.6281 11.5019C18.6257 11.5092 18.6264 11.5188 18.6252 11.5225C18.5466 11.8031 18.2913 12 17.9997 12C17.7446 11.9999 17.5178 11.8512 17.4138 11.625L17.3772 11.5225C17.3772 11.5225 17.3736 11.5104 17.3714 11.5019C17.3664 11.4862 17.3604 11.4599 17.3508 11.4272C17.3315 11.3619 17.3018 11.2674 17.2644 11.1489C17.187 10.9108 17.0721 10.582 16.926 10.2231C16.6235 9.47908 16.218 8.68904 15.7644 8.23535C15.3107 7.7818 14.5204 7.37614 13.7766 7.07372C13.4173 6.92734 13.0879 6.81304 12.8508 6.73681C12.7323 6.69809 12.6378 6.66854 12.5725 6.65039C12.5415 6.64087 12.5162 6.6347 12.4993 6.62989C12.492 6.62746 12.4824 6.62524 12.4788 6.62402H12.4744C12.1938 6.5453 11.9997 6.29029 11.9997 5.99999C11.9998 5.70976 12.1938 5.45344 12.4744 5.37598H12.4788C12.4788 5.37598 12.4908 5.37253 12.4993 5.37011C12.515 5.36528 12.5401 5.35772 12.5725 5.34814C12.6261 5.33225 12.6996 5.30873 12.7893 5.28076L12.8508 5.26318C13.089 5.18579 13.4163 5.06948 13.7751 4.92334C13.9612 4.84769 14.1503 4.76491 14.3362 4.67725C14.8931 4.41451 15.4244 4.10318 15.7644 3.76318C16.218 3.30946 16.6236 2.51938 16.926 1.77539C17.0724 1.41611 17.187 1.08672 17.2644 0.84961C17.3031 0.731131 17.3327 0.633911 17.3508 0.569824C17.3603 0.538799 17.3664 0.513407 17.3714 0.496582C17.3736 0.489578 17.376 0.483755 17.3772 0.479003V0.473144C17.4536 0.1927 17.7098 0 18.0012 0L17.9997 0.00146484Z" fill="#BC0055"/>
</svg>
