<svg width="16" height="16" viewBox="0 0 16 16" fill="none" xmlns="http://www.w3.org/2000/svg">
<path fill-rule="evenodd" clip-rule="evenodd" d="M7.5403 0.00880005C4.85857 0.173034 2.47982 1.62529 1.10924 3.935C0.329748 5.24861 -0.0731138 6.87723 0.0109588 8.37487C0.111972 10.1742 0.724726 11.7481 1.86288 13.1319C2.05813 13.3692 2.60916 13.9232 2.84222 14.1164C3.66825 14.8013 4.56075 15.2959 5.54181 15.6124C7.71276 16.313 10.071 16.0561 12.0414 14.9046C12.2577 14.7781 12.7349 14.4557 12.831 14.3711C12.8738 14.3334 12.9287 14.2608 12.9553 14.2065C12.9956 14.1244 13.003 14.0881 13.003 13.9723C13.003 13.8521 12.9965 13.8228 12.9503 13.7343C12.8888 13.6162 12.7589 13.501 12.6507 13.4686C12.6108 13.4566 12.5247 13.4473 12.4593 13.4479C12.316 13.4492 12.2673 13.4717 12.0012 13.6597C11.7035 13.8701 11.4799 14.0044 11.1424 14.1758C10.3668 14.5697 9.55947 14.8081 8.67871 14.9034C8.37768 14.9359 7.55369 14.9301 7.24295 14.8932C6.37149 14.7898 5.63553 14.5686 4.86418 14.1785C4.16379 13.8242 3.62056 13.4251 3.05371 12.8483C2.51319 12.2982 2.14032 11.7777 1.80065 11.0989C1.06394 9.62667 0.87481 7.92084 1.27215 6.33197C1.57502 5.12082 2.16803 4.05422 3.02894 3.17219C3.42147 2.77 3.76658 2.48217 4.18453 2.20836C5.58864 1.28847 7.25162 0.905603 8.8996 1.12279C11.0094 1.40084 12.8611 2.62176 13.9615 4.46035C14.3658 5.13583 14.672 5.95603 14.819 6.75696C14.9175 7.29378 14.9226 7.38529 14.9228 8.60993C14.923 9.84968 14.9263 9.80482 14.8178 10.0625C14.6479 10.4664 14.2682 10.7926 13.8356 10.9063C13.6445 10.9565 13.3306 10.9574 13.1288 10.9083C12.8582 10.8425 12.6741 10.7388 12.4621 10.5328C12.3037 10.3788 12.1995 10.2278 12.1274 10.0477C12.0205 9.7807 12.0207 9.7834 12.0157 8.71193C12.0129 8.12183 12.0033 7.66371 11.9915 7.55595C11.8927 6.65501 11.4835 5.80525 10.8371 5.15853C10.1866 4.50774 9.36625 4.11207 8.44128 4.00299C8.25578 3.98111 7.74234 3.98111 7.55685 4.00299C6.4922 4.12855 5.54342 4.64663 4.87951 5.46498C4.39728 6.05938 4.09796 6.77579 4.00611 7.5555C3.98424 7.74109 3.98424 8.25479 4.00611 8.44037C4.09779 9.21862 4.39376 9.92778 4.87856 10.5309C4.93492 10.601 5.06944 10.7464 5.17748 10.854C5.80171 11.4755 6.62655 11.8766 7.50448 11.9855C7.76283 12.0176 8.25052 12.0167 8.50369 11.9837C9.37979 11.8696 10.1818 11.4822 10.799 10.8751C10.9011 10.7746 11.0235 10.6467 11.071 10.5909L11.1573 10.4893L11.2054 10.5909C11.559 11.3372 12.2913 11.8717 13.1252 11.9922C13.4041 12.0325 13.83 12.0075 14.1126 11.9342C15.004 11.7031 15.7062 10.9858 15.9262 10.0818C15.9962 9.79384 16.0063 9.56407 15.9971 8.47041C15.9883 7.42279 15.9775 7.23222 15.8999 6.74846C15.6347 5.09626 14.8901 3.61254 13.726 2.41679C12.3956 1.05015 10.6611 0.217319 8.76367 0.0340616C8.43528 0.00234012 7.84475 -0.00984864 7.5403 0.00880005ZM7.77818 5.05722C6.51959 5.15456 5.47938 6.02128 5.14656 7.24995C5.02422 7.70158 5.02422 8.2943 5.14656 8.74593C5.42829 9.78597 6.21636 10.5741 7.25211 10.8515C7.71173 10.9746 8.2864 10.9746 8.74601 10.8515C9.78197 10.574 10.5738 9.78174 10.8512 8.74526C10.9725 8.29217 10.9725 7.70371 10.8512 7.25061C10.4816 5.86922 9.19086 4.94798 7.77818 5.05722Z" fill="#B12658"/>
</svg>
