<svg width="16" height="16" viewBox="0 0 16 16" fill="none" xmlns="http://www.w3.org/2000/svg">
<g clip-path="url(#clip0_22518_6261)">
<path fill-rule="evenodd" clip-rule="evenodd" d="M4.68105 0.905642C6.27911 0.157904 8.08303 -0.0283292 9.80019 0.376996C11.5173 0.782335 13.0476 1.75533 14.1426 3.13871C15.2376 4.5221 15.8332 6.23515 15.8334 7.99939V9.49939C15.8334 10.1182 15.5873 10.7122 15.1498 11.1498C14.7122 11.5872 14.1188 11.8327 13.5001 11.8327C12.8813 11.8327 12.2879 11.5873 11.8503 11.1498C11.5464 10.8459 11.3346 10.4667 11.2338 10.056C11.2183 10.0804 11.2037 10.1055 11.1876 10.1296C10.7664 10.76 10.1673 11.2516 9.46686 11.5417C8.76648 11.8318 7.99552 11.9077 7.25201 11.7598C6.50852 11.6119 5.82582 11.2463 5.28977 10.7103C4.75374 10.1743 4.38824 9.49157 4.24029 8.74809C4.0924 8.00458 4.16834 7.23363 4.45839 6.53325C4.74853 5.8328 5.24012 5.23375 5.8705 4.81254C6.50085 4.39141 7.24197 4.16671 8.00006 4.16671C9.0167 4.16672 9.99147 4.57088 10.7103 5.28976C11.4291 6.00851 11.8332 6.98296 11.8334 7.99939V9.49939C11.8334 9.94138 12.0092 10.3659 12.3217 10.6784C12.6342 10.9909 13.0581 11.1661 13.5001 11.1661C13.942 11.166 14.3659 10.9909 14.6784 10.6784C14.9909 10.3659 15.1667 9.94135 15.1667 9.49939V7.99939C15.1665 6.38537 14.6215 4.81838 13.6199 3.55278C12.6181 2.28712 11.2182 1.39629 9.6472 1.02543C8.07617 0.654601 6.42566 0.825687 4.9636 1.50981C3.5016 2.19395 2.31313 3.3519 1.59121 4.79562C0.86943 6.23932 0.655906 7.88487 0.985738 9.46489C1.31567 11.0449 2.1698 12.4671 3.40891 13.5013C4.64824 14.5357 6.20081 15.1215 7.81451 15.1635C9.42812 15.2054 11.0088 14.7016 12.3002 13.7331C12.4474 13.6229 12.6566 13.6524 12.767 13.7995C12.8774 13.9468 12.8471 14.1558 12.6999 14.2663C11.2884 15.3249 9.56074 15.876 7.79694 15.8301C6.03316 15.7842 4.33643 15.1442 2.98183 14.0137C1.62728 12.8832 0.694012 11.3281 0.333394 9.60095C-0.0271301 7.87393 0.205914 6.07546 0.994852 4.49744C1.78394 2.91938 3.08301 1.65343 4.68105 0.905642ZM8.00006 4.83338C7.37377 4.83338 6.76169 5.01929 6.24095 5.36723C5.7202 5.71519 5.31396 6.20983 5.07428 6.78845C4.83472 7.367 4.77178 8.00373 4.89394 8.61788C5.01614 9.23211 5.31829 9.79614 5.76113 10.239C6.20398 10.6818 6.76798 10.984 7.38222 11.1062C7.99638 11.2283 8.63311 11.1654 9.21165 10.9258C9.79026 10.6862 10.2849 10.2799 10.6329 9.75916C10.9808 9.23844 11.1667 8.62629 11.1667 8.00004C11.1667 7.16023 10.8328 6.35497 10.239 5.76111C9.64514 5.16726 8.83989 4.83339 8.00006 4.83338Z" fill="#BC0055"/>
</g>
<defs>
<clipPath id="clip0_22518_6261">
<rect width="16" height="16" fill="white"/>
</clipPath>
</defs>
</svg>
