<svg width="80" height="80" viewBox="0 0 80 80" fill="none" xmlns="http://www.w3.org/2000/svg">
<mask id="path-1-inside-1_4275_4143" fill="white">
<path d="M56.7143 16.8067C56.7143 12.3493 54.9436 8.07445 51.7917 4.92258C48.6398 1.7707 44.365 3.36526e-07 39.9075 0C35.4501 -3.36526e-07 31.1753 1.7707 28.0234 4.92257C24.8715 8.07445 23.1008 12.3493 23.1008 16.8067L26.4622 16.8067C26.4622 13.2408 27.8787 9.8209 30.4002 7.2994C32.9217 4.77791 36.3416 3.36134 39.9075 3.36134C43.4735 3.36134 46.8934 4.77791 49.4149 7.2994C51.9364 9.8209 53.3529 13.2408 53.3529 16.8067H56.7143Z"/>
</mask>
<path d="M56.7143 16.8067C56.7143 12.3493 54.9436 8.07445 51.7917 4.92258C48.6398 1.7707 44.365 3.36526e-07 39.9075 0C35.4501 -3.36526e-07 31.1753 1.7707 28.0234 4.92257C24.8715 8.07445 23.1008 12.3493 23.1008 16.8067L26.4622 16.8067C26.4622 13.2408 27.8787 9.8209 30.4002 7.2994C32.9217 4.77791 36.3416 3.36134 39.9075 3.36134C43.4735 3.36134 46.8934 4.77791 49.4149 7.2994C51.9364 9.8209 53.3529 13.2408 53.3529 16.8067H56.7143Z" fill="#F1F1F1" stroke="#9F9F9F" mask="url(#path-1-inside-1_4275_4143)"/>
<path d="M15.1642 16.3843H64.6509C66.8111 16.3843 68.5651 18.1475 68.5651 20.326V57.174C68.5651 58.966 67.7745 60.6651 66.4077 61.812C59.2613 67.8088 53.4943 72.3017 49.1043 75.2942C46.9091 76.7906 45.0632 77.9084 43.5648 78.6511C42.0576 79.3981 40.9324 79.7498 40.168 79.7498C39.4031 79.7498 38.2679 79.3978 36.7408 78.6506C35.2225 77.9077 33.3472 76.7898 31.1127 75.2934C26.6443 72.3009 20.7597 67.8081 13.4568 61.8118C12.0606 60.6654 11.25 58.9474 11.25 57.1327V20.326C11.25 18.1475 13.004 16.3843 15.1642 16.3843Z" fill="#F5F5F5" stroke="#9F9F9F" stroke-width="0.5"/>
<path d="M17.7226 24.8739C18.8365 24.8739 19.7394 23.971 19.7394 22.8571C19.7394 21.7433 18.8365 20.8403 17.7226 20.8403C16.6088 20.8403 15.7058 21.7433 15.7058 22.8571C15.7058 23.971 16.6088 24.8739 17.7226 24.8739Z" fill="#E0E0E0"/>
<path d="M62.0924 24.8739C63.2062 24.8739 64.1092 23.971 64.1092 22.8571C64.1092 21.7433 63.2062 20.8403 62.0924 20.8403C60.9785 20.8403 60.0756 21.7433 60.0756 22.8571C60.0756 23.971 60.9785 24.8739 62.0924 24.8739Z" fill="#E0E0E0"/>
<path d="M39.9075 75.2944C41.0214 75.2944 41.9244 74.3914 41.9244 73.2775C41.9244 72.1637 41.0214 71.2607 39.9075 71.2607C38.7937 71.2607 37.8907 72.1637 37.8907 73.2775C37.8907 74.3914 38.7937 75.2944 39.9075 75.2944Z" fill="#E0E0E0"/>
<mask id="path-6-inside-2_4275_4143" fill="white">
<path fill-rule="evenodd" clip-rule="evenodd" d="M39.9077 35.9663C38.7938 35.9663 37.8909 36.8693 37.8909 37.9831V40.4529C36.301 41.2081 35.2018 42.8287 35.2018 44.7059C35.2018 47.3049 37.3087 49.4118 39.9077 49.4118C42.5066 49.4118 44.6135 47.3049 44.6135 44.7059C44.6135 42.8287 43.5144 41.2082 41.9245 40.4529V37.9831C41.9245 36.8693 41.0215 35.9663 39.9077 35.9663Z"/>
</mask>
<path fill-rule="evenodd" clip-rule="evenodd" d="M39.9077 35.9663C38.7938 35.9663 37.8909 36.8693 37.8909 37.9831V40.4529C36.301 41.2081 35.2018 42.8287 35.2018 44.7059C35.2018 47.3049 37.3087 49.4118 39.9077 49.4118C42.5066 49.4118 44.6135 47.3049 44.6135 44.7059C44.6135 42.8287 43.5144 41.2082 41.9245 40.4529V37.9831C41.9245 36.8693 41.0215 35.9663 39.9077 35.9663Z" fill="white"/>
<path d="M37.8909 40.4529L38.1054 40.9045L38.3909 40.7689V40.4529H37.8909ZM41.9245 40.4529H41.4245V40.7689L41.71 40.9045L41.9245 40.4529ZM38.3909 37.9831C38.3909 37.1454 39.07 36.4663 39.9077 36.4663V35.4663C38.5177 35.4663 37.3909 36.5931 37.3909 37.9831H38.3909ZM38.3909 40.4529V37.9831H37.3909V40.4529H38.3909ZM35.7018 44.7059C35.7018 43.0289 36.6833 41.5801 38.1054 40.9045L37.6763 40.0012C35.9187 40.8362 34.7018 42.6284 34.7018 44.7059H35.7018ZM39.9077 48.9118C37.5848 48.9118 35.7018 47.0288 35.7018 44.7059H34.7018C34.7018 47.581 37.0325 49.9118 39.9077 49.9118V48.9118ZM44.1135 44.7059C44.1135 47.0288 42.2305 48.9118 39.9077 48.9118V49.9118C42.7828 49.9118 45.1135 47.581 45.1135 44.7059H44.1135ZM41.71 40.9045C43.1321 41.5801 44.1135 43.0289 44.1135 44.7059H45.1135C45.1135 42.6285 43.8967 40.8362 42.1391 40.0013L41.71 40.9045ZM41.4245 37.9831V40.4529H42.4245V37.9831H41.4245ZM39.9077 36.4663C40.7454 36.4663 41.4245 37.1454 41.4245 37.9831H42.4245C42.4245 36.5931 41.2977 35.4663 39.9077 35.4663V36.4663Z" fill="#9F9F9F" mask="url(#path-6-inside-2_4275_4143)"/>
</svg>
