<svg width="80" height="108" viewBox="0 0 80 108" fill="none" xmlns="http://www.w3.org/2000/svg">
<mask id="path-1-inside-1_3560_18347" fill="white">
<path d="M62.6892 22.6891C62.6892 16.6716 60.2987 10.9005 56.0437 6.64548C51.7886 2.39045 46.0176 4.5431e-07 40 0C33.9825 -4.5431e-07 28.2114 2.39045 23.9564 6.64547C19.7014 10.9005 17.3109 16.6716 17.3109 22.6891L21.8487 22.6891C21.8487 17.8751 23.7611 13.2582 27.1651 9.8542C30.5692 6.45017 35.186 4.53781 40 4.53782C44.8141 4.53782 49.4309 6.45018 52.8349 9.8542C56.239 13.2582 58.1513 17.8751 58.1513 22.6891H62.6892Z"/>
</mask>
<path d="M62.6892 22.6891C62.6892 16.6716 60.2987 10.9005 56.0437 6.64548C51.7886 2.39045 46.0176 4.5431e-07 40 0C33.9825 -4.5431e-07 28.2114 2.39045 23.9564 6.64547C19.7014 10.9005 17.3109 16.6716 17.3109 22.6891L21.8487 22.6891C21.8487 17.8751 23.7611 13.2582 27.1651 9.8542C30.5692 6.45017 35.186 4.53781 40 4.53782C44.8141 4.53782 49.4309 6.45018 52.8349 9.8542C56.239 13.2582 58.1513 17.8751 58.1513 22.6891H62.6892Z" fill="#666666" stroke="#E0E0E0" stroke-width="0.569712" mask="url(#path-1-inside-1_3560_18347)"/>
<path d="M6.59638 21.9237H73.4037C76.4289 21.9237 78.8829 24.3926 78.8829 27.44V77.1848C78.8829 79.6615 77.7902 82.0101 75.9007 83.5956C66.2512 91.6928 58.4599 97.7631 52.5256 101.808C49.5582 103.831 47.0581 105.345 45.0239 106.354C42.9848 107.364 41.4314 107.857 40.3516 107.857C39.2716 107.857 37.7049 107.364 35.6391 106.353C33.5784 105.345 31.0386 103.831 28.0184 101.808C21.9783 97.7631 14.0284 91.6932 4.16757 83.5966C2.23739 82.0118 1.11716 79.6371 1.11716 77.1292V27.44C1.11716 24.3926 3.57117 21.9237 6.59638 21.9237Z" fill="#333333" stroke="#E0E0E0" stroke-width="0.284856"/>
<path d="M10.0504 33.5797C11.5541 33.5797 12.7731 32.3607 12.7731 30.857C12.7731 29.3533 11.5541 28.1343 10.0504 28.1343C8.54674 28.1343 7.32776 29.3533 7.32776 30.857C7.32776 32.3607 8.54674 33.5797 10.0504 33.5797Z" fill="#666666"/>
<path d="M69.9497 33.5797C71.4534 33.5797 72.6724 32.3607 72.6724 30.857C72.6724 29.3533 71.4534 28.1343 69.9497 28.1343C68.446 28.1343 67.2271 29.3533 67.2271 30.857C67.2271 32.3607 68.446 33.5797 69.9497 33.5797Z" fill="#666666"/>
<path d="M40 101.647C41.5037 101.647 42.7227 100.428 42.7227 98.9243C42.7227 97.4206 41.5037 96.2017 40 96.2017C38.4963 96.2017 37.2773 97.4206 37.2773 98.9243C37.2773 100.428 38.4963 101.647 40 101.647Z" fill="#666666"/>
<mask id="path-6-inside-2_3560_18347" fill="white">
<path fill-rule="evenodd" clip-rule="evenodd" d="M40.0002 48.5542C38.4965 48.5542 37.2775 49.7732 37.2775 51.2769V54.6109C35.1311 55.6306 33.6472 57.8182 33.6472 60.3525C33.6472 63.8612 36.4915 66.7055 40.0002 66.7055C43.5088 66.7055 46.3531 63.8612 46.3531 60.3525C46.3531 57.8182 44.8692 55.6306 42.7229 54.6109V51.2769C42.7229 49.7732 41.5039 48.5542 40.0002 48.5542Z"/>
</mask>
<path fill-rule="evenodd" clip-rule="evenodd" d="M40.0002 48.5542C38.4965 48.5542 37.2775 49.7732 37.2775 51.2769V54.6109C35.1311 55.6306 33.6472 57.8182 33.6472 60.3525C33.6472 63.8612 36.4915 66.7055 40.0002 66.7055C43.5088 66.7055 46.3531 63.8612 46.3531 60.3525C46.3531 57.8182 44.8692 55.6306 42.7229 54.6109V51.2769C42.7229 49.7732 41.5039 48.5542 40.0002 48.5542Z" fill="#1A1A1A"/>
<path d="M37.2775 54.6109L37.3997 54.8682L37.5623 54.791V54.6109H37.2775ZM42.7229 54.6109H42.438V54.791L42.6006 54.8682L42.7229 54.6109ZM37.5623 51.2769C37.5623 49.9305 38.6538 48.8391 40.0002 48.8391V48.2693C38.3391 48.2693 36.9926 49.6159 36.9926 51.2769H37.5623ZM37.5623 54.6109V51.2769H36.9926V54.6109H37.5623ZM33.9321 60.3525C33.9321 57.9323 35.3489 55.8425 37.3997 54.8682L37.1552 54.3536C34.9133 55.4187 33.3624 57.7042 33.3624 60.3525H33.9321ZM40.0002 66.4206C36.6489 66.4206 33.9321 63.7038 33.9321 60.3525H33.3624C33.3624 64.0185 36.3342 66.9903 40.0002 66.9903V66.4206ZM46.0683 60.3525C46.0683 63.7038 43.3515 66.4206 40.0002 66.4206V66.9903C43.6661 66.9903 46.638 64.0185 46.638 60.3525H46.0683ZM42.6006 54.8682C44.6514 55.8425 46.0683 57.9323 46.0683 60.3525H46.638C46.638 57.7042 45.087 55.4187 42.8451 54.3536L42.6006 54.8682ZM42.438 51.2769V54.6109H43.0077V51.2769H42.438ZM40.0002 48.8391C41.3466 48.8391 42.438 49.9305 42.438 51.2769H43.0077C43.0077 49.6159 41.6612 48.2693 40.0002 48.2693V48.8391Z" fill="#E0E0E0" mask="url(#path-6-inside-2_3560_18347)"/>
</svg>
