<svg width="187" height="187" viewBox="0 0 187 187" fill="none" xmlns="http://www.w3.org/2000/svg">
<circle cx="93.5" cy="93.5" r="93.5" fill="#2D2E30"/>
<path fill-rule="evenodd" clip-rule="evenodd" d="M93.5 47C79.4167 47 68 58.4167 68 72.5V98H76V72.5C76 62.835 83.835 55 93.5 55C103.165 55 111 62.835 111 72.5V98H119V72.5C119 58.4167 107.583 47 93.5 47Z" fill="#BCBCBC"/>
<path d="M61 87C61 85.3431 62.3431 84 64 84H123C124.657 84 126 85.3431 126 87V129C126 135.627 120.627 141 114 141H73C66.3726 141 61 135.627 61 129V87Z" fill="#FFCC01"/>
<path fill-rule="evenodd" clip-rule="evenodd" d="M93.8422 84H123C124.657 84 126 85.3431 126 87V129C126 135.627 120.627 141 114 141H93.5887L93.8422 84Z" fill="#FFC000"/>
<path d="M92.6935 122V117.67L95.1553 115.317L98.6146 122H106L99.5157 111.175L105.646 105.338H97.5849L92.6935 110.861V99H86V122H92.6935Z" fill="white"/>
</svg>
