<svg width="80" height="108" viewBox="0 0 80 108" fill="none" xmlns="http://www.w3.org/2000/svg">
<mask id="path-1-inside-1_3560_18338" fill="white">
<path d="M62.689 22.6891C62.689 16.6716 60.2986 10.9005 56.0436 6.64548C51.7885 2.39045 46.0175 4.5431e-07 40 0C33.9825 -4.5431e-07 28.2115 2.39045 23.9565 6.64547C19.7015 10.9005 17.311 16.6716 17.311 22.6891L21.8488 22.6891C21.8488 17.8751 23.7612 13.2582 27.1652 9.85419C30.5692 6.45017 35.186 4.53781 40 4.53782C44.814 4.53782 49.4308 6.45018 52.8348 9.8542C56.2389 13.2582 58.1512 17.8751 58.1512 22.6891H62.689Z"/>
</mask>
<path d="M62.689 22.6891C62.689 16.6716 60.2986 10.9005 56.0436 6.64548C51.7885 2.39045 46.0175 4.5431e-07 40 0C33.9825 -4.5431e-07 28.2115 2.39045 23.9565 6.64547C19.7015 10.9005 17.311 16.6716 17.311 22.6891L21.8488 22.6891C21.8488 17.8751 23.7612 13.2582 27.1652 9.85419C30.5692 6.45017 35.186 4.53781 40 4.53782C44.814 4.53782 49.4308 6.45018 52.8348 9.8542C56.2389 13.2582 58.1512 17.8751 58.1512 22.6891H62.689Z" fill="#F1F1F1" stroke="#9F9F9F" stroke-width="0.56971" mask="url(#path-1-inside-1_3560_18338)"/>
<path d="M6.59659 21.9242H73.4035C76.4287 21.9242 78.8827 24.393 78.8827 27.4405V77.1853C78.8827 79.662 77.79 82.0106 75.9005 83.5961C66.2511 91.6933 58.4598 97.7635 52.5255 101.809C49.5582 103.832 47.058 105.346 45.0239 106.354C42.9848 107.365 41.4314 107.858 40.3516 107.858C39.2716 107.858 37.7049 107.365 35.6392 106.354C33.5785 105.346 31.0386 103.831 28.0184 101.809C21.9784 97.7636 14.0286 91.6937 4.1678 83.5971C2.23763 82.0123 1.1174 79.6376 1.1174 77.1297V27.4405C1.1174 24.393 3.5714 21.9242 6.59659 21.9242Z" fill="#F5F5F5" stroke="#9F9F9F" stroke-width="0.284855"/>
<path d="M10.0506 33.5797C11.5542 33.5797 12.7732 32.3607 12.7732 30.857C12.7732 29.3533 11.5542 28.1343 10.0506 28.1343C8.54686 28.1343 7.32788 29.3533 7.32788 30.857C7.32788 32.3607 8.54686 33.5797 10.0506 33.5797Z" fill="#E0E0E0"/>
<path d="M69.9495 33.5797C71.4532 33.5797 72.6722 32.3607 72.6722 30.857C72.6722 29.3533 71.4532 28.1343 69.9495 28.1343C68.4458 28.1343 67.2268 29.3533 67.2268 30.857C67.2268 32.3607 68.4458 33.5797 69.9495 33.5797Z" fill="#E0E0E0"/>
<path d="M40 101.647C41.5037 101.647 42.7227 100.428 42.7227 98.9243C42.7227 97.4206 41.5037 96.2017 40 96.2017C38.4963 96.2017 37.2773 97.4206 37.2773 98.9243C37.2773 100.428 38.4963 101.647 40 101.647Z" fill="#E0E0E0"/>
<mask id="path-6-inside-2_3560_18338" fill="white">
<path fill-rule="evenodd" clip-rule="evenodd" d="M40.0001 48.5547C38.4964 48.5547 37.2774 49.7737 37.2774 51.2774V54.6114C35.1311 55.631 33.6472 57.8187 33.6472 60.353C33.6472 63.8616 36.4915 66.7059 40.0001 66.7059C43.5087 66.7059 46.353 63.8616 46.353 60.353C46.353 57.8187 44.8691 55.631 42.7228 54.6114V51.2774C42.7228 49.7737 41.5038 48.5547 40.0001 48.5547Z"/>
</mask>
<path fill-rule="evenodd" clip-rule="evenodd" d="M40.0001 48.5547C38.4964 48.5547 37.2774 49.7737 37.2774 51.2774V54.6114C35.1311 55.631 33.6472 57.8187 33.6472 60.353C33.6472 63.8616 36.4915 66.7059 40.0001 66.7059C43.5087 66.7059 46.353 63.8616 46.353 60.353C46.353 57.8187 44.8691 55.631 42.7228 54.6114V51.2774C42.7228 49.7737 41.5038 48.5547 40.0001 48.5547Z" fill="white"/>
<path d="M37.2774 54.6114L37.3997 54.8687L37.5623 54.7915V54.6114H37.2774ZM42.7228 54.6114H42.438V54.7914L42.6006 54.8687L42.7228 54.6114ZM37.5623 51.2774C37.5623 49.931 38.6538 48.8395 40.0001 48.8395V48.2698C38.3391 48.2698 36.9926 49.6164 36.9926 51.2774H37.5623ZM37.5623 54.6114V51.2774H36.9926V54.6114H37.5623ZM33.9321 60.353C33.9321 57.9328 35.3489 55.8429 37.3997 54.8687L37.1552 54.3541C34.9133 55.4191 33.3624 57.7046 33.3624 60.353H33.9321ZM40.0001 66.4211C36.6488 66.4211 33.9321 63.7043 33.9321 60.353H33.3624C33.3624 64.0189 36.3342 66.9908 40.0001 66.9908V66.4211ZM46.0682 60.353C46.0682 63.7043 43.3514 66.4211 40.0001 66.4211V66.9908C43.6661 66.9908 46.6379 64.0189 46.6379 60.353H46.0682ZM42.6006 54.8687C44.6513 55.8429 46.0682 57.9328 46.0682 60.353H46.6379C46.6379 57.7046 45.0869 55.4191 42.845 54.3541L42.6006 54.8687ZM42.438 51.2774V54.6114H43.0077V51.2774H42.438ZM40.0001 48.8395C41.3465 48.8395 42.438 49.931 42.438 51.2774H43.0077C43.0077 49.6164 41.6611 48.2698 40.0001 48.2698V48.8395Z" fill="#9F9F9F" mask="url(#path-6-inside-2_3560_18338)"/>
</svg>
