<svg width="402" height="314" viewBox="0 0 402 314" fill="none" xmlns="http://www.w3.org/2000/svg">
<g filter="url(#filter0_d_1341_18688)">
<rect x="5" y="5" width="392" height="304" rx="10" fill="#1A1A1A"/>
</g>
<rect x="37" y="40" width="260" height="8" rx="4" fill="#666666"/>
<rect x="37" y="20" width="85" height="12" rx="6" fill="#666666"/>
<rect x="345.776" y="23" width="37.3513" height="7.28806" rx="3.64403" fill="#666666"/>
<circle cx="22" cy="41" r="4" fill="#4CB7FF"/>
<rect x="37" y="90" width="260" height="8" rx="4" fill="#666666"/>
<rect x="37" y="70" width="85" height="12" rx="6" fill="#666666"/>
<rect x="345.776" y="73.1733" width="37.3513" height="7.28806" rx="3.64403" fill="#666666"/>
<circle cx="22" cy="91.1733" r="4" fill="#4CB7FF"/>
<rect x="37" y="140" width="260" height="8" rx="4" fill="#666666"/>
<rect x="37" y="120" width="85" height="12" rx="6" fill="#666666"/>
<rect x="345.776" y="123.347" width="37.3513" height="7.28806" rx="3.64403" fill="#666666"/>
<circle cx="22" cy="141.347" r="4" fill="#4CB7FF"/>
<rect x="37" y="189" width="260" height="8" rx="4" fill="#666666"/>
<rect x="37" y="170" width="85" height="12" rx="6" fill="#666666"/>
<rect x="345.776" y="172.52" width="37.3513" height="7.28806" rx="3.64403" fill="#666666"/>
<circle cx="22" cy="190.52" r="4" fill="#4CB7FF"/>
<rect x="37" y="238" width="260" height="8" rx="4" fill="#666666"/>
<rect x="37" y="219" width="85" height="12" rx="6" fill="#666666"/>
<rect x="345.776" y="221.52" width="37.3513" height="7.28806" rx="3.64403" fill="#666666"/>
<circle cx="22" cy="239.52" r="4" fill="#4CB7FF"/>
<rect x="37" y="287" width="260" height="8" rx="4" fill="#666666"/>
<rect x="37" y="268" width="85" height="12" rx="6" fill="#666666"/>
<rect x="345.776" y="270.52" width="37.3513" height="7.28806" rx="3.64403" fill="#666666"/>
<circle cx="22" cy="288.52" r="4" fill="#4CB7FF"/>
<defs>
<filter id="filter0_d_1341_18688" x="0" y="0" width="402" height="314" filterUnits="userSpaceOnUse" color-interpolation-filters="sRGB">
<feFlood flood-opacity="0" result="BackgroundImageFix"/>
<feColorMatrix in="SourceAlpha" type="matrix" values="0 0 0 0 0 0 0 0 0 0 0 0 0 0 0 0 0 0 127 0" result="hardAlpha"/>
<feMorphology radius="2" operator="dilate" in="SourceAlpha" result="effect1_dropShadow_1341_18688"/>
<feOffset/>
<feGaussianBlur stdDeviation="1.5"/>
<feComposite in2="hardAlpha" operator="out"/>
<feColorMatrix type="matrix" values="0 0 0 0 0.4 0 0 0 0 0.4 0 0 0 0 0.4 0 0 0 0.3 0"/>
<feBlend mode="normal" in2="BackgroundImageFix" result="effect1_dropShadow_1341_18688"/>
<feBlend mode="normal" in="SourceGraphic" in2="effect1_dropShadow_1341_18688" result="shape"/>
</filter>
</defs>
</svg>
