<svg width="24" height="24" viewBox="0 0 24 24" fill="none" xmlns="http://www.w3.org/2000/svg">
<path fill-rule="evenodd" clip-rule="evenodd" d="M20.3281 0H3.49011C2.66559 0.00549692 2.00009 0.675462 2.00011 1.5V7.764C1.97662 14.533 5.70042 20.7593 11.6751 23.941C11.7471 23.9795 11.8275 23.9997 11.9091 24C11.9911 23.9999 12.0718 23.9796 12.1441 23.941C18.1179 20.7586 21.8411 14.5326 21.8181 7.764V1.5C21.8181 0.675462 21.1526 0.00549692 20.3281 0V0ZM16.5291 13.2002C16.9194 13.5907 16.9194 14.2237 16.5291 14.6142C16.1366 14.9997 15.5076 14.9997 15.1151 14.6142L12.3491 11.8532C12.1538 11.658 11.8373 11.658 11.6421 11.8532L8.87707 14.6182C8.47997 14.9923 7.86016 14.9923 7.46307 14.6182C7.07269 14.2277 7.07269 13.5947 7.46307 13.2042L10.2281 10.4392C10.3221 10.3454 10.375 10.218 10.375 10.0852C10.375 9.95237 10.3221 9.825 10.2281 9.7312L7.46307 6.9662C7.20311 6.71512 7.09885 6.34332 7.19037 5.99369C7.28189 5.64406 7.55493 5.37101 7.90456 5.2795C8.25419 5.18798 8.62599 5.29224 8.87707 5.5522L11.6421 8.3172C11.8373 8.51239 12.1538 8.51239 12.3491 8.3172L15.1151 5.5522C15.5074 5.17322 16.1312 5.17864 16.5169 5.56438C16.9026 5.95011 16.908 6.57382 16.5291 6.9662L13.7641 9.7312C13.67 9.825 13.6172 9.95237 13.6172 10.0852C13.6172 10.218 13.67 10.3454 13.7641 10.4392L16.5291 13.2002Z" fill="#3EBF4D"/>
</svg>
