<svg width="24" height="24" viewBox="0 0 24 24" fill="none" xmlns="http://www.w3.org/2000/svg">
<path fill-rule="evenodd" clip-rule="evenodd" d="M11.3943 0.189664C11.5743 0.0661641 11.788 0 12.007 0C12.2259 0 12.4397 0.0661641 12.6197 0.189664C12.7997 0.313166 12.9374 0.48813 13.0145 0.69121L13.0184 0.701508L15.6159 8.00012H22.9289C22.9289 8.00012 22.9289 8.00012 22.9289 8.00012C23.1489 8.00011 23.3637 8.06693 23.5443 8.19156C23.7248 8.31621 23.8625 8.4927 23.9387 8.69725C24.0149 8.90181 24.0261 9.1246 23.9706 9.33562C23.9152 9.54665 23.7958 9.73575 23.6286 9.87748L23.6223 9.88277L17.4765 14.9321L20.0512 22.5967C20.1232 22.8114 20.1245 23.0434 20.0548 23.2589C19.9851 23.4743 19.8481 23.6622 19.6636 23.7955C19.4791 23.9287 19.2566 24.0003 19.0284 24C18.8001 23.9997 18.5778 23.9275 18.3936 23.7938L12.0058 19.1492L5.61072 23.7968C5.42645 23.9279 5.20507 23.9979 4.97823 23.9969C4.75139 23.9959 4.53067 23.9239 4.34758 23.7912C4.16449 23.6585 4.02839 23.4719 3.9587 23.2579C3.88902 23.044 3.88931 22.8137 3.95955 22.6L3.96065 22.5967L6.53529 14.9321L0.382144 9.87753C0.214912 9.7358 0.0955691 9.54665 0.0401143 9.33562C-0.0153405 9.1246 -0.00420124 8.90181 0.0720313 8.69725C0.148264 8.4927 0.285927 8.31621 0.466477 8.19156C0.647012 8.06693 0.861757 8.00011 1.08179 8.00012C1.08177 8.00012 1.0818 8.00012 1.08179 8.00012H8.39603L10.9994 0.691171C11.0765 0.488088 11.2143 0.313164 11.3943 0.189664ZM12.007 1.06702L9.28428 8.71098C9.20834 8.92421 9.00496 9.0668 8.77679 9.0668H1.08184L7.50569 14.3437C7.67658 14.4841 7.74297 14.7141 7.67286 14.9228L4.98303 22.9303L11.6876 18.0577C11.8771 17.92 12.1348 17.92 12.3243 18.0577L19.0298 22.9333L16.339 14.9228C16.2689 14.7141 16.3352 14.4842 16.5061 14.3438L22.9289 9.0668H15.235C15.0068 9.0668 14.8034 8.92415 14.7275 8.71086L12.007 1.06702Z" fill="white"/>
</svg>
