<svg width="402" height="314" viewBox="0 0 402 314" fill="none" xmlns="http://www.w3.org/2000/svg">
<g filter="url(#filter0_d_1340_11936)">
<rect x="5" y="5" width="392" height="304" rx="10" fill="#1A1A1A"/>
</g>
<rect x="77.2271" y="59.1733" width="148" height="8" rx="4" fill="#666666"/>
<rect x="77.2271" y="44.5972" width="220" height="8" rx="4" fill="#666666"/>
<rect x="77.2271" y="25" width="72" height="12" rx="6" fill="#666666"/>
<rect x="345.776" y="28" width="37.3513" height="7.28806" rx="3.64403" fill="#666666"/>
<circle cx="49.2271" cy="46" r="16" fill="#86DEEA"/>
<path d="M39.3782 58.6104C39.8987 57.2019 40.7203 55.9077 41.8025 54.8255C43.7717 52.8563 46.4424 51.7501 49.2272 51.7501C52.0119 51.7501 54.6827 52.8563 56.6518 54.8255C57.734 55.9077 58.5556 57.2019 59.0762 58.6104C56.3607 60.7342 52.9418 62.0001 49.2272 62.0001C45.5126 62.0001 42.0936 60.7342 39.3782 58.6104Z" fill="#0AB2F5"/>
<path d="M55.6438 43.5834C55.6438 47.1272 52.771 50.0001 49.2272 50.0001C45.6833 50.0001 42.8105 47.1272 42.8105 43.5834C42.8105 40.0396 45.6833 37.1667 49.2272 37.1667C52.771 37.1667 55.6438 40.0396 55.6438 43.5834Z" fill="#0AB2F5"/>
<circle cx="22" cy="46" r="4" fill="#4CB7FF"/>
<rect x="77.2271" y="133.347" width="148" height="8" rx="4" fill="#666666"/>
<rect x="77.2271" y="118.771" width="220" height="8" rx="4" fill="#666666"/>
<rect x="77.2271" y="99.1733" width="72" height="12" rx="6" fill="#666666"/>
<rect x="345.776" y="102.173" width="37.3513" height="7.28806" rx="3.64403" fill="#666666"/>
<circle cx="49.2271" cy="120" r="16" fill="#CC8FD6"/>
<path d="M39.3782 132.61C39.8987 131.202 40.7203 129.907 41.8025 128.825C43.7717 126.856 46.4424 125.75 49.2272 125.75C52.0119 125.75 54.6827 126.856 56.6518 128.825C57.734 129.907 58.5556 131.202 59.0762 132.61C56.3607 134.734 52.9418 136 49.2272 136C45.5126 136 42.0936 134.734 39.3782 132.61Z" fill="#956DDD"/>
<path d="M55.6438 117.583C55.6438 121.127 52.771 124 49.2272 124C45.6833 124 42.8105 121.127 42.8105 117.583C42.8105 114.039 45.6833 111.167 49.2272 111.167C52.771 111.167 55.6438 114.039 55.6438 117.583Z" fill="#956DDD"/>
<circle cx="22" cy="120.173" r="4" fill="#4CB7FF"/>
<rect x="77.2271" y="207.52" width="148" height="8" rx="4" fill="#666666"/>
<rect x="77.2271" y="192.944" width="220" height="8" rx="4" fill="#666666"/>
<rect x="77.2271" y="173.347" width="72" height="12" rx="6" fill="#666666"/>
<rect x="345.776" y="176.347" width="37.3513" height="7.28806" rx="3.64403" fill="#666666"/>
<circle cx="49.2271" cy="194" r="16" fill="#FFDF9E"/>
<path d="M39.3782 206.61C39.8987 205.202 40.7203 203.907 41.8025 202.825C43.7717 200.856 46.4424 199.75 49.2272 199.75C52.0119 199.75 54.6827 200.856 56.6518 202.825C57.734 203.907 58.5556 205.202 59.0762 206.61C56.3607 208.734 52.9418 210 49.2272 210C45.5126 210 42.0936 208.734 39.3782 206.61Z" fill="#FD9459"/>
<path d="M55.6438 191.583C55.6438 195.127 52.771 198 49.2272 198C45.6833 198 42.8105 195.127 42.8105 191.583C42.8105 188.039 45.6833 185.167 49.2272 185.167C52.771 185.167 55.6438 188.039 55.6438 191.583Z" fill="#FD9459"/>
<circle cx="22" cy="194.347" r="4" fill="#4CB7FF"/>
<rect x="77.2271" y="281.693" width="148" height="8" rx="4" fill="#666666"/>
<rect x="77.2271" y="267.117" width="220" height="8" rx="4" fill="#666666"/>
<rect x="77.2271" y="247.52" width="72" height="12" rx="6" fill="#666666"/>
<rect x="345.776" y="250.52" width="37.3513" height="7.28806" rx="3.64403" fill="#666666"/>
<circle cx="49.2271" cy="268" r="16" fill="#A3DAFF"/>
<path d="M39.3782 280.61C39.8987 279.202 40.7203 277.907 41.8025 276.825C43.7717 274.856 46.4424 273.75 49.2272 273.75C52.0119 273.75 54.6827 274.856 56.6518 276.825C57.734 277.907 58.5556 279.202 59.0762 280.61C56.3607 282.734 52.9418 284 49.2272 284C45.5126 284 42.0936 282.734 39.3782 280.61Z" fill="#956DDD"/>
<path d="M55.6438 265.583C55.6438 269.127 52.771 272 49.2272 272C45.6833 272 42.8105 269.127 42.8105 265.583C42.8105 262.039 45.6833 259.167 49.2272 259.167C52.771 259.167 55.6438 262.039 55.6438 265.583Z" fill="#956DDD"/>
<circle cx="22" cy="268.52" r="4" fill="#4CB7FF"/>
<defs>
<filter id="filter0_d_1340_11936" x="0" y="0" width="402" height="314" filterUnits="userSpaceOnUse" color-interpolation-filters="sRGB">
<feFlood flood-opacity="0" result="BackgroundImageFix"/>
<feColorMatrix in="SourceAlpha" type="matrix" values="0 0 0 0 0 0 0 0 0 0 0 0 0 0 0 0 0 0 127 0" result="hardAlpha"/>
<feMorphology radius="2" operator="dilate" in="SourceAlpha" result="effect1_dropShadow_1340_11936"/>
<feOffset/>
<feGaussianBlur stdDeviation="1.5"/>
<feComposite in2="hardAlpha" operator="out"/>
<feColorMatrix type="matrix" values="0 0 0 0 0.4 0 0 0 0 0.4 0 0 0 0 0.4 0 0 0 0.3 0"/>
<feBlend mode="normal" in2="BackgroundImageFix" result="effect1_dropShadow_1340_11936"/>
<feBlend mode="normal" in="SourceGraphic" in2="effect1_dropShadow_1340_11936" result="shape"/>
</filter>
</defs>
</svg>
