<svg width="16" height="17" viewBox="0 0 16 17" fill="none" xmlns="http://www.w3.org/2000/svg">
<path fill-rule="evenodd" clip-rule="evenodd" d="M4.00004 4V6H3.50004C3.16255 6 2.87619 6.08581 2.64457 6.24023C2.41607 6.39255 2.26998 6.59208 2.17783 6.77639C2.08567 6.96071 2.00005 7.24479 2.00004 7.5C1.99995 10.2337 2.00004 14.5 2.00004 14.5C2.00004 14.8375 2.08585 15.1239 2.24027 15.3555C2.39259 15.584 2.59212 15.7301 2.77643 15.8222C2.96075 15.9144 3.20905 16 3.50004 16H12.5C12.8375 16 13.1239 15.9142 13.3555 15.7598C13.584 15.6074 13.76 15.3533 13.76 15.3533C13.76 15.3533 14 15 14 14.5V7.5C14 7.16251 13.9142 6.87615 13.7598 6.64453C13.6054 6.4129 13.0527 6 12.5 6H12V4C12 2.93913 11.5786 1.92172 10.8285 1.17157C10.0783 0.421427 9.06091 0 8.00004 0C6.93917 0 5.92176 0.421427 5.17161 1.17157C4.42147 1.92172 4.00004 2.93913 4.00004 4ZM8.00004 1C7.20439 1 6.44133 1.31607 5.87872 1.87868C5.31611 2.44129 5.00004 3.20435 5.00004 4V6H11V4C11 3.20435 10.684 2.44129 10.1214 1.87868C9.55875 1.31607 8.79569 1 8.00004 1ZM8.50004 10C8.50004 9.72386 8.27618 9.5 8.00004 9.5C7.7239 9.5 7.50004 9.72386 7.50004 10V12C7.50004 12.2761 7.7239 12.5 8.00004 12.5C8.27618 12.5 8.50004 12.2761 8.50004 12V10Z" fill="black"/>
</svg>
