<svg width="20" height="20" viewBox="0 0 20 20" fill="none" xmlns="http://www.w3.org/2000/svg">
<path fill-rule="evenodd" clip-rule="evenodd" d="M4.1668 9.97679C4.16612 10.5282 4.40296 11.0532 4.8168 11.4176L14.1101 19.5935C14.7506 20.1309 15.703 20.0587 16.2552 19.4309C16.8074 18.8031 16.7574 17.8493 16.1426 17.2826L8.01597 10.1335C7.97084 10.0939 7.94496 10.0368 7.94496 9.97679C7.94496 9.91678 7.97084 9.85968 8.01597 9.82013L16.1426 2.67096C16.7574 2.10431 16.8074 1.15048 16.2552 0.522667C15.703 -0.105148 14.7506 -0.177315 14.1101 0.360126L4.82013 8.53346C4.40529 8.8985 4.16732 9.42421 4.1668 9.97679Z" fill="#666666"/>
<mask id="mask0_3268_49059" style="mask-type:alpha" maskUnits="userSpaceOnUse" x="4" y="0" width="13" height="20">
<path fill-rule="evenodd" clip-rule="evenodd" d="M4.1668 9.97679C4.16612 10.5282 4.40296 11.0532 4.8168 11.4176L14.1101 19.5935C14.7506 20.1309 15.703 20.0587 16.2552 19.4309C16.8074 18.8031 16.7574 17.8493 16.1426 17.2826L8.01597 10.1335C7.97084 10.0939 7.94496 10.0368 7.94496 9.97679C7.94496 9.91678 7.97084 9.85968 8.01597 9.82013L16.1426 2.67096C16.7574 2.10431 16.8074 1.15048 16.2552 0.522667C15.703 -0.105148 14.7506 -0.177315 14.1101 0.360126L4.82013 8.53346C4.40529 8.8985 4.16732 9.42421 4.1668 9.97679Z" fill="white"/>
</mask>
<g mask="url(#mask0_3268_49059)">
</g>
</svg>
