<svg width="24" height="24" viewBox="0 0 24 24" fill="none" xmlns="http://www.w3.org/2000/svg">
<path fill-rule="evenodd" clip-rule="evenodd" d="M5.00006 11.9722C4.99924 12.6339 5.28345 13.2639 5.78006 13.7012L16.9321 23.5122C17.7007 24.1571 18.8435 24.0705 19.5062 23.3171C20.1688 22.5637 20.1088 21.4191 19.3711 20.7392L9.61906 12.1602C9.56491 12.1127 9.53385 12.0442 9.53385 11.9722C9.53385 11.9001 9.56491 11.8316 9.61906 11.7842L19.3711 3.20515C20.1088 2.52517 20.1688 1.38058 19.5062 0.6272C18.8435 -0.126178 17.7007 -0.212778 16.9321 0.432151L5.78406 10.2402C5.28625 10.6782 5.00069 11.3091 5.00006 11.9722Z" fill="black"/>
</svg>
