<svg width="24" height="24" viewBox="0 0 24 24" fill="none" xmlns="http://www.w3.org/2000/svg">
<path fill-rule="evenodd" clip-rule="evenodd" d="M18.675 0.409212C19.1393 0.920056 19.1016 1.71061 18.5908 2.17497L7.78222 12L18.5908 21.825C19.1016 22.2894 19.1393 23.08 18.675 23.5908C18.2106 24.1017 17.42 24.1393 16.9092 23.675L5.64087 13.432C5.64065 13.4318 5.64043 13.4316 5.64021 13.4314C5.44621 13.2552 5.2852 13.0394 5.17277 12.7929C5.06002 12.5457 5 12.2759 5 12C5 11.7241 5.06002 11.4543 5.17277 11.2071C5.2853 10.9604 5.4465 10.7445 5.64074 10.5681C5.64078 10.5681 5.64082 10.568 5.64087 10.568L16.9092 0.325044C17.42 -0.139316 18.2106 -0.101632 18.675 0.409212Z" fill="black"/>
</svg>
