<svg width="24" height="24" viewBox="0 0 24 24" fill="none" xmlns="http://www.w3.org/2000/svg">
<g clip-path="url(#clip0_3097_169010)">
<rect width="24" height="24" rx="12" fill="#8D4AFF"/>
<g clip-path="url(#clip1_3097_169010)">
<path fill-rule="evenodd" clip-rule="evenodd" d="M17.7882 3.29688C17.4976 3.29688 17.2621 3.53243 17.2621 3.823C17.2621 4.57303 16.6576 5.17748 15.9076 5.17748C15.617 5.17748 15.3815 5.41304 15.3815 5.70361C15.3815 5.99418 15.617 6.22973 15.9076 6.22973C16.6576 6.22973 17.2621 6.83418 17.2621 7.58422C17.2621 7.87479 17.4976 8.11034 17.7882 8.11034C18.0788 8.11034 18.3143 7.87479 18.3143 7.58422C18.3143 6.83418 18.9188 6.22973 19.6688 6.22973C19.9594 6.22973 20.1949 5.99418 20.1949 5.70361C20.1949 5.41304 19.9594 5.17748 19.6688 5.17748C18.9188 5.17748 18.3143 4.57303 18.3143 3.823C18.3143 3.53243 18.0788 3.29688 17.7882 3.29688ZM17.7882 5.32663C17.8995 5.46579 18.026 5.59227 18.1652 5.70361C18.026 5.81494 17.8995 5.94143 17.7882 6.08058C17.6769 5.94143 17.5504 5.81494 17.4112 5.70361C17.5504 5.59227 17.6769 5.46579 17.7882 5.32663Z" fill="white"/>
<path fill-rule="evenodd" clip-rule="evenodd" d="M7.26587 6.22974C6.9753 6.22974 6.73975 6.46529 6.73975 6.75586V16.2261C6.73975 16.5166 6.9753 16.7522 7.26587 16.7522H16.7361C17.0267 16.7522 17.2622 16.5166 17.2622 16.2261V9.38648C17.2622 9.09591 17.4978 8.86035 17.7883 8.86035C18.0789 8.86035 18.3145 9.09591 18.3145 9.38648V16.2261C18.3145 17.0978 17.6078 17.8044 16.7361 17.8044H7.26587C6.39416 17.8044 5.6875 17.0978 5.6875 16.2261V6.75586C5.6875 5.88415 6.39416 5.17749 7.26587 5.17749H14.1055C14.396 5.17749 14.6316 5.41305 14.6316 5.70362C14.6316 5.99419 14.396 6.22974 14.1055 6.22974H7.26587Z" fill="white"/>
<path fill-rule="evenodd" clip-rule="evenodd" d="M13.5793 8.22901C13.928 8.22901 14.2107 8.51167 14.2107 8.86035V10.9648C14.2107 11.3135 13.928 11.5962 13.5793 11.5962C13.2307 11.5962 12.948 11.3135 12.948 10.9648V8.86035C12.948 8.51167 13.2307 8.22901 13.5793 8.22901Z" fill="white"/>
<path fill-rule="evenodd" clip-rule="evenodd" d="M10.4226 8.22901C10.7713 8.22901 11.054 8.51167 11.054 8.86035V10.9648C11.054 11.3135 10.7713 11.5962 10.4226 11.5962C10.0739 11.5962 9.79126 11.3135 9.79126 10.9648V8.86035C9.79126 8.51167 10.0739 8.22901 10.4226 8.22901Z" fill="white"/>
<path d="M9.32098 13.0694H14.6812C14.6812 14.4947 13.5258 15.6501 12.1005 15.6501H11.9017C10.4764 15.6501 9.32098 14.4947 9.32098 13.0694Z" fill="white"/>
<path d="M16.4203 12.5433C16.4203 12.892 16.1376 13.1746 15.7889 13.1746C15.4402 13.1746 15.1576 12.892 15.1576 12.5433C15.1576 12.1946 15.4402 11.9119 15.7889 11.9119C16.1376 11.9119 16.4203 12.1946 16.4203 12.5433Z" fill="white"/>
<path d="M8.84419 12.5432C8.84419 12.8919 8.56152 13.1746 8.21282 13.1746C7.86413 13.1746 7.58146 12.8919 7.58146 12.5432C7.58146 12.1946 7.86413 11.9119 8.21282 11.9119C8.56152 11.9119 8.84419 12.1946 8.84419 12.5432Z" fill="white"/>
</g>
</g>
<defs>
<clipPath id="clip0_3097_169010">
<rect width="24" height="24" rx="12" fill="white"/>
</clipPath>
<clipPath id="clip1_3097_169010">
<rect width="16.8359" height="16.8359" fill="white" transform="translate(3.58203 3.07812)"/>
</clipPath>
</defs>
</svg>
