<svg width="24" height="24" viewBox="0 0 24 24" fill="none" xmlns="http://www.w3.org/2000/svg">
<g clip-path="url(#clip0_4747_50027)">
<path d="M1.27027 14.1032C0.55158 13.3845 0.157914 12.4277 0.161696 11.4104C0.169517 9.30644 1.88737 7.58858 3.99138 7.58076L18.4112 7.52775C19.7702 7.52269 21.0472 8.04718 22.0049 9.00485C22.9625 9.96252 23.4876 11.2389 23.4826 12.5979C23.4781 13.9576 22.9435 15.2379 21.9787 16.2027C21.0139 17.1675 19.7342 17.7015 18.3745 17.7071L8.15978 17.7463C8.04898 17.7467 7.94424 17.7035 7.86556 17.6248C7.78687 17.5461 7.74424 17.4419 7.74406 17.3306C7.74492 17.1007 7.93244 16.9132 8.16229 16.9123L18.377 16.8732C19.5139 16.8684 20.5841 16.4218 21.3909 15.6149C22.1978 14.808 22.6444 13.7379 22.6486 12.6004C22.6528 11.4642 22.2136 10.3967 21.4127 9.59581C20.6118 8.79492 19.545 8.35628 18.4075 8.36051L3.98828 8.41411C3.19147 8.41707 2.44183 8.72986 1.87631 9.29538C1.31079 9.8609 0.998009 10.6105 0.995048 11.4073C0.99209 12.203 1.2999 12.9509 1.86181 13.5128C2.42373 14.0747 3.17107 14.382 3.96611 14.3796C3.96611 14.3796 17.8279 14.3068 17.845 14.3062C18.188 14.2978 18.5085 14.157 18.7464 13.9086C18.9848 13.6607 19.1127 13.3355 19.1075 12.9931C19.1023 12.6614 18.9696 12.3489 18.7348 12.114C18.4858 11.8651 18.1551 11.7331 17.8032 11.7409L7.58023 11.7789C7.46944 11.7793 7.36469 11.7361 7.28601 11.6574C7.20733 11.5787 7.1647 11.4746 7.16452 11.3632C7.16538 11.1333 7.3529 10.9458 7.58275 10.945L17.7975 10.907C18.3716 10.8931 18.9153 11.1115 19.3246 11.5207C19.7121 11.9083 19.9306 12.4237 19.9392 12.9718C19.9483 13.5369 19.7371 14.0734 19.3442 14.4827C18.9508 14.8914 18.423 15.1244 17.8578 15.1377C17.8307 15.139 17.8018 15.1385 17.7717 15.138L3.96301 15.2118C2.94578 15.2155 1.98896 14.8219 1.27027 14.1032Z" fill="black"/>
</g>
<defs>
<clipPath id="clip0_4747_50027">
<rect width="24" height="24" fill="white"/>
</clipPath>
</defs>
</svg>
