<svg width="24" height="24" viewBox="0 0 24 24" fill="none" xmlns="http://www.w3.org/2000/svg">
<path d="M3.5 24C2.673 24 2 23.327 2 22.5V1.5C2 0.673 2.673 0 3.5 0H16.793C17.194 0 17.57 0.156 17.854 0.439L21.561 4.146C21.844 4.43 22 4.807 22 5.207V22.5C22 23.327 21.327 24 20.5 24H3.5ZM3.5 1C3.224 1 3 1.224 3 1.5V22.5C3 22.776 3.224 23 3.5 23H20.5C20.776 23 21 22.776 21 22.5V5.207C21 5.074 20.948 4.948 20.854 4.853L17.147 1.146C17.053 1.053 16.925 1 16.793 1H3.5Z" fill="#CD68DE"/>
<path d="M9.5 20C9.224 20 9 19.776 9 19.5C9 19.224 9.224 19 9.5 19H11V10H8V11.5C8 11.776 7.776 12 7.5 12C7.224 12 7 11.776 7 11.5V10C7 9.449 7.449 9 8 9H15C15.552 9 16 9.449 16 10V11.5C16 11.776 15.776 12 15.5 12C15.224 12 15 11.776 15 11.5V10H12V19H13.5C13.776 19 14 19.224 14 19.5C14 19.776 13.776 20 13.5 20H9.5Z" fill="#CD68DE"/>
</svg>
