<svg width="24" height="24" viewBox="0 0 24 24" fill="none" xmlns="http://www.w3.org/2000/svg">
<path fill-rule="evenodd" clip-rule="evenodd" d="M12 5C10.2051 5 8.75 6.45507 8.75 8.25C8.75 10.0449 10.2051 11.5 12 11.5C13.7949 11.5 15.25 10.0449 15.25 8.25C15.25 6.45507 13.7949 5 12 5ZM7.75 8.25C7.75 5.90279 9.65279 4 12 4C14.3472 4 16.25 5.90279 16.25 8.25C16.25 10.5972 14.3472 12.5 12 12.5C9.65279 12.5 7.75 10.5972 7.75 8.25Z" fill="black"/>
<path fill-rule="evenodd" clip-rule="evenodd" d="M12 1.25C10.1435 1.25 8.36301 1.9875 7.05025 3.30025C5.7375 4.61301 5 6.39348 5 8.25C5 9.00481 5.28768 10.1052 5.78819 11.4189C6.28292 12.7175 6.96442 14.1715 7.70666 15.6131C9.19119 18.4964 10.9005 21.2951 11.7917 22.6386C11.8145 22.673 11.8454 22.7012 11.8818 22.7207C11.9181 22.7402 11.9587 22.7504 12 22.7504C12.0413 22.7504 12.0819 22.7402 12.1182 22.7207C12.1546 22.7012 12.1855 22.673 12.2083 22.6386C13.0995 21.2951 14.8088 18.4964 16.2933 15.6131C17.0356 14.1715 17.7171 12.7175 18.2118 11.4189C18.7123 10.1052 19 9.00481 19 8.25C19 6.39348 18.2625 4.61301 16.9497 3.30025C15.637 1.9875 13.8565 1.25 12 1.25ZM12 0.25C9.87827 0.25 7.84344 1.09285 6.34315 2.59315C4.84285 4.09344 4 6.12827 4 8.25C4 9.19869 4.34657 10.4438 4.85371 11.7749C5.36664 13.1213 6.0662 14.6115 6.81759 16.0709C8.32031 18.9896 10.0485 21.8199 10.9583 23.1914C11.0724 23.3633 11.2271 23.5043 11.4089 23.6018C11.5907 23.6994 11.7937 23.7504 12 23.7504C12.2063 23.7504 12.4093 23.6994 12.5911 23.6018C12.7729 23.5043 12.9276 23.3633 13.0417 23.1914C13.9515 21.8199 15.6797 18.9896 17.1824 16.0709C17.9338 14.6115 18.6334 13.1213 19.1463 11.7749C19.6534 10.4438 20 9.19869 20 8.25C20 6.12827 19.1571 4.09344 17.6569 2.59315C16.1566 1.09285 14.1217 0.25 12 0.25Z" fill="black"/>
</svg>
