<svg width="24" height="24" viewBox="0 0 24 24" fill="none" xmlns="http://www.w3.org/2000/svg">
<g clip-path="url(#clip0_18617_40)">
<path fill-rule="evenodd" clip-rule="evenodd" d="M7.875 8.625C7.875 6.34683 9.72183 4.5 12 4.5C14.2782 4.5 16.125 6.34683 16.125 8.625C16.125 10.9032 14.2782 12.75 12 12.75C9.72183 12.75 7.875 10.9032 7.875 8.625ZM12 6C10.5503 6 9.375 7.17525 9.375 8.625C9.375 10.0747 10.5503 11.25 12 11.25C13.4497 11.25 14.625 10.0747 14.625 8.625C14.625 7.17525 13.4497 6 12 6Z" fill="#FEF8F7"/>
<path fill-rule="evenodd" clip-rule="evenodd" d="M3.375 6C1.51104 6 6.0445e-09 7.51104 6.0445e-09 9.375C6.0445e-09 10.6173 0.671165 11.7028 1.67066 12.2887C1.18736 12.4548 0.729511 12.691 0.312226 12.9911C-0.0240811 13.2329 -0.100688 13.7015 0.141119 14.0378C0.382927 14.3741 0.851581 14.4508 1.18789 14.2089C1.6439 13.8811 2.16773 13.6598 2.7207 13.5615C3.27368 13.4632 3.84167 13.4904 4.38274 13.641C4.92381 13.7916 5.42414 14.0619 5.84678 14.4318C6.15814 14.7043 6.42149 15.0258 6.62694 15.3826C5.89437 16.3256 5.41795 17.4514 5.25678 18.6501C5.20158 19.0606 5.48962 19.4381 5.90014 19.4933C6.31066 19.5485 6.6882 19.2605 6.7434 18.85C6.91455 17.5771 7.5417 16.4097 8.50843 15.5642C9.47517 14.7188 10.7158 14.2528 12.0001 14.2528C13.2844 14.2528 14.525 14.7188 15.4917 15.5642C16.4585 16.4097 17.0856 17.5771 17.2568 18.85C17.312 19.2605 17.6895 19.5485 18.1 19.4933C18.5106 19.4381 18.7986 19.0606 18.7434 18.6501C18.5822 17.4514 18.1058 16.3256 17.3732 15.3826C17.5786 15.0257 17.842 14.7043 18.1533 14.4318C18.5759 14.0619 19.0763 13.7916 19.6173 13.641C20.1584 13.4904 20.7264 13.4632 21.2794 13.5615C21.8324 13.6598 22.3562 13.8811 22.8122 14.2089C23.1485 14.4508 23.6172 14.3741 23.859 14.0378C24.1008 13.7015 24.0242 13.2329 23.6879 12.9911C23.2706 12.691 22.8127 12.4548 22.3294 12.2887C23.3288 11.7027 24 10.6172 24 9.375C24 7.51104 22.489 6 20.625 6C18.761 6 17.25 7.51104 17.25 9.375C17.25 10.6167 17.9205 11.7017 18.9192 12.2878C18.2752 12.5088 17.6793 12.8533 17.1654 13.303C16.835 13.5922 16.5432 13.9208 16.296 14.2805C15.0843 13.2939 13.5675 12.7528 12.0001 12.7528C10.4326 12.7528 8.9158 13.2939 7.70409 14.2806C7.45693 13.9208 7.16512 13.5922 6.83467 13.303C6.3208 12.8533 5.7249 12.5088 5.08085 12.2878C6.07951 11.7017 6.75 10.6166 6.75 9.375C6.75 7.51104 5.23896 6 3.375 6ZM1.5 9.375C1.5 8.33947 2.33947 7.5 3.375 7.5C4.41053 7.5 5.25 8.33947 5.25 9.375C5.25 10.4105 4.41053 11.25 3.375 11.25C2.33947 11.25 1.5 10.4105 1.5 9.375ZM20.625 7.5C19.5895 7.5 18.75 8.33947 18.75 9.375C18.75 10.4105 19.5895 11.25 20.625 11.25C21.6605 11.25 22.5 10.4105 22.5 9.375C22.5 8.33947 21.6605 7.5 20.625 7.5Z" fill="#FEF8F7"/>
</g>
<defs>
<clipPath id="clip0_18617_40">
<rect width="24" height="24" fill="white"/>
</clipPath>
</defs>
</svg>
