<svg xmlns="http://www.w3.org/2000/svg" width="24" height="24" fill="none"><path fill="#000" d="M6.917 18.224a.5.5 0 0 1-.99-.134l.99.134ZM12.047 6a3.665 3.665 0 0 1 3.664 3.664l-.005.18a3.667 3.667 0 0 1-1.068 2.41 3.66 3.66 0 0 1-.979.698c.9.244 1.74.69 2.453 1.313l.007.005a4.718 4.718 0 0 1 2.746-2.063c.084-.023.168-.044.252-.063-.4-.146-.77-.376-1.078-.683a2.961 2.961 0 0 1-.853-1.8l-.014-.294a2.96 2.96 0 1 1 5.055 2.094c-.31.309-.68.538-1.083.684a4.718 4.718 0 0 1 1.74.777.5.5 0 1 1-.582.811 3.723 3.723 0 0 0-4.62.221 3.72 3.72 0 0 0-.841 1.069 6.174 6.174 0 0 1 1.326 3.067.5.5 0 0 1-.99.134 5.179 5.179 0 0 0-5.13-4.487 5.176 5.176 0 0 0-5.13 4.487l-.495-.068-.495-.066a6.176 6.176 0 0 1 1.325-3.069 3.72 3.72 0 0 0-.84-1.067 3.724 3.724 0 0 0-3.1-.862 3.72 3.72 0 0 0-1.52.641l-.088.051a.5.5 0 0 1-.496-.862l.219-.149a4.7 4.7 0 0 1 1.522-.627 2.956 2.956 0 0 1-1.082-.685 2.96 2.96 0 0 1-.852-1.8L1 9.366a2.961 2.961 0 1 1 5.922 0l-.015.293a2.96 2.96 0 0 1-.852 1.8 2.954 2.954 0 0 1-1.08.684 4.72 4.72 0 0 1 2.998 2.126l.008-.005a6.177 6.177 0 0 1 2.453-1.313 3.66 3.66 0 0 1-2.046-3.108l-.005-.18A3.665 3.665 0 0 1 12.047 6Zm0 1a2.665 2.665 0 0 0-2.664 2.664l.013.262a2.665 2.665 0 0 0 5.315-.262l-.013-.262A2.665 2.665 0 0 0 12.047 7Zm-8.086.406A1.961 1.961 0 0 0 2 9.367l.01.194a1.961 1.961 0 0 0 3.912-.194l-.01-.193a1.96 1.96 0 0 0-1.951-1.768Zm16.172 0a1.961 1.961 0 1 0 0 3.923 1.961 1.961 0 0 0 0-3.923Z"/></svg>