<svg width="16" height="17" viewBox="0 0 16 17" fill="none" xmlns="http://www.w3.org/2000/svg">
<path fill-rule="evenodd" clip-rule="evenodd" d="M14.9947 13.8498L12.0219 10.877C13.8972 8.06976 13.3372 4.29776 10.7272 2.15638C8.11723 0.0150054 4.30852 0.202715 1.92172 2.59035C-0.465075 4.97799 -0.651438 8.78678 1.49086 11.396C3.63316 14.0053 7.40536 14.5639 10.2119 12.6876L13.1847 15.6597C13.6881 16.1508 14.4913 16.1508 14.9947 15.6597C15.4944 15.1599 15.4944 14.3497 14.9947 13.8498ZM6.56971 2.59477C9.13231 2.59477 11.2097 4.67217 11.2097 7.23477C11.2097 9.79737 9.13231 11.8748 6.56971 11.8748C4.00711 11.8748 1.92971 9.79737 1.92971 7.23477C1.93253 4.67334 4.00828 2.59759 6.56971 2.59477Z" fill="#9F9F9F"/>
</svg>
