<svg width="24" height="24" viewBox="0 0 24 24" fill="none" xmlns="http://www.w3.org/2000/svg">
<path fill-rule="evenodd" clip-rule="evenodd" d="M23.0654 20.2783L18.4925 15.7054C21.3772 11.3872 20.5159 5.58498 16.501 2.29104C12.4862 -1.00291 6.62753 -0.714169 2.95607 2.95859C-0.715396 6.63135 -1.00207 12.4902 2.2933 16.5038C5.58867 20.5175 11.3912 21.3768 15.7084 18.4905L20.2813 23.0624C21.0556 23.8177 22.291 23.8177 23.0654 23.0624C23.834 22.2935 23.834 21.0472 23.0654 20.2783ZM10.1057 2.96495C14.0476 2.96495 17.2431 6.16049 17.2431 10.1024C17.2431 14.0443 14.0476 17.2398 10.1057 17.2398C6.16383 17.2398 2.96829 14.0443 2.96829 10.1024C2.97263 6.16229 6.16563 2.96929 10.1057 2.96495Z" fill="black"/>
</svg>
