<svg width="24" height="24" viewBox="0 0 24 24" fill="none" xmlns="http://www.w3.org/2000/svg">
<path fill-rule="evenodd" clip-rule="evenodd" d="M17.8998 16.1321C19.2161 14.4387 20 12.3109 20 10C20 4.47715 15.5228 0 10 0C4.47715 0 0 4.47715 0 10C0 15.5228 4.47715 20 10 20C12.3109 20 14.4387 19.2161 16.1321 17.8998L21.8661 23.6339C22.3543 24.122 23.1457 24.122 23.6339 23.6339C24.122 23.1457 24.122 22.3543 23.6339 21.8661L17.8998 16.1321ZM17.5 10C17.5 14.1421 14.1421 17.5 10 17.5C5.85786 17.5 2.5 14.1421 2.5 10C2.5 5.85786 5.85786 2.5 10 2.5C14.1421 2.5 17.5 5.85786 17.5 10Z" fill="black"/>
</svg>
