<svg width="24" height="24" viewBox="0 0 24 24" fill="none" xmlns="http://www.w3.org/2000/svg">
<g clip-path="url(#clip0_3268_48641)">
<path d="M12 15.9884C11.724 15.9884 11.5 15.7644 11.5 15.4884V14.3754C11.509 13.6624 12.02 13.0474 12.715 12.9094C14.186 12.5844 15.256 11.2474 15.254 9.73238C15.253 8.86338 14.913 8.04737 14.298 7.43437C13.684 6.82237 12.869 6.48537 12.002 6.48537C11.128 6.48637 10.312 6.82637 9.69901 7.44137C9.08601 8.05637 8.74901 8.87337 8.75001 9.74137C8.75001 10.0174 8.52601 10.2414 8.25101 10.2424C7.97501 10.2424 7.75101 10.0184 7.75001 9.74337C7.74801 8.60737 8.18901 7.53838 8.99101 6.73438C9.79301 5.93037 10.86 5.48638 11.996 5.48438C13.136 5.48438 14.202 5.92537 15.004 6.72537C15.808 7.52737 16.252 8.59437 16.254 9.73037C16.257 11.7114 14.855 13.4604 12.92 13.8884C12.678 13.9364 12.503 14.1434 12.5 14.3814V15.4884C12.5 15.7644 12.276 15.9884 12 15.9884Z" fill="#0098FF"/>
<path d="M12 18.9922C12.4142 18.9922 12.75 18.6564 12.75 18.2422C12.75 17.828 12.4142 17.4922 12 17.4922C11.5858 17.4922 11.25 17.828 11.25 18.2422C11.25 18.6564 11.5858 18.9922 12 18.9922Z" fill="#0098FF"/>
<path d="M12 24.001C5.383 24.001 0 18.618 0 12.001C0 5.38398 5.383 0.000976562 12 0.000976562C18.617 0.000976562 24 5.38398 24 12.001C24 18.618 18.617 24.001 12 24.001ZM12 1.00098C5.935 1.00098 1 5.93598 1 12.001C1 18.066 5.935 23.001 12 23.001C18.065 23.001 23 18.066 23 12.001C23 5.93598 18.065 1.00098 12 1.00098Z" fill="#0098FF"/>
</g>
<defs>
<clipPath id="clip0_3268_48641">
<rect width="24" height="24" fill="white"/>
</clipPath>
</defs>
</svg>
