<svg width="100" height="93" viewBox="0 0 100 93" fill="none" xmlns="http://www.w3.org/2000/svg">
<path d="M70.9156 48.5246L70.9011 48.29H70.666H18.4641H18.2291L18.2146 48.5246L15.5376 91.8923L15.5212 92.1577H15.7871H73.3431H73.609L73.5926 91.8923L70.9156 48.5246Z" fill="#FAFAFA" stroke="#9F9F9F" stroke-width="0.5"/>
<path d="M42.8419 61.8001C42.8419 65.1796 44.1018 68.4352 45.2901 71.5697C45.8053 72.9287 46.4698 74.3451 46.5786 75.8097C46.6246 76.4286 46.8579 77.4295 46.5285 77.9963C45.9404 79.0083 43.1367 78.7721 42.2835 78.7532C39.505 78.6916 36.6844 78.2104 34.1084 77.1623C33.5293 76.9267 32.4573 76.5422 32.8127 75.7186C33.3246 74.5326 35.326 73.7846 36.3705 73.2587C39.7264 71.5691 43.1918 70.3827 46.9079 69.7545C48.6268 69.464 50.4064 69.0737 52.1551 68.9976C52.4414 68.9852 53.3906 68.8973 52.5345 69.0467C47.7497 69.8819 42.9946 70.9012 38.2174 71.7799C35.5446 72.2716 32.8566 72.7295 30.1712 73.1536C29.3583 73.2819 26.9313 73.6974 27.723 73.4759C29.7593 72.9064 31.7164 71.9972 33.7219 71.3314C39.2075 69.5102 45.065 68.2087 50.8022 67.4488C54.2484 66.9923 57.7168 66.7717 61.1677 66.3695C62.0904 66.262 63.0418 66.0892 63.9739 66.0892" stroke="#BB0055" stroke-width="0.5" stroke-linecap="round"/>
<path d="M15.7871 13.2209H15.5173L15.5378 13.49L18.2146 48.559L18.2322 48.7899H18.4638H70.6601H70.8918L70.9094 48.559L72.7892 23.9304L72.7975 23.8217L72.7236 23.7417L63.0813 13.3013L63.007 13.2209H62.8976H15.7871Z" fill="#FAFAFA" stroke="#9F9F9F" stroke-width="0.5"/>
<path d="M63.3597 13.7084L62.9993 13.3223L62.9292 13.8458L61.5842 23.8782L61.5463 24.1612L61.8319 24.1614L72.5464 24.1678L73.1221 24.1681L72.7293 23.7472L63.3597 13.7084Z" fill="#F1F1F1" stroke="#9F9F9F" stroke-width="0.5"/>
<rect x="25.1582" y="25.5176" width="28.1087" height="2.14162" rx="1.07081" fill="#9F9F9F"/>
<rect x="25.1582" y="30.8716" width="38.0137" height="2.14162" rx="1.07081" fill="#9F9F9F"/>
<rect x="25.1582" y="36.2256" width="38.0137" height="2.14162" rx="1.07081" fill="#9F9F9F"/>
<rect x="25.1582" y="41.5797" width="38.0137" height="2.14162" rx="1.07081" fill="#9F9F9F"/>
<rect x="87.8633" y="49.608" width="8.24852" height="26.7252" transform="rotate(48.6406 87.8633 49.608)" fill="#EF8BA4"/>
<rect x="89.6055" y="51.5893" width="2.96947" height="26.7252" transform="rotate(48.6406 89.6055 51.5893)" fill="#C82468"/>
<path d="M92.5677 45.4655C93.6618 44.5023 95.3297 44.6084 96.293 45.7025L98.2551 47.9314C99.2184 49.0255 99.1123 50.6934 98.0181 51.6567L93.8081 55.363L88.3577 49.1718L92.5677 45.4655Z" fill="#EF8BA4"/>
<path fill-rule="evenodd" clip-rule="evenodd" d="M70.7084 73.0627C71.1187 72.7015 71.7441 72.7413 72.1054 73.1516C72.4666 73.5619 72.4268 74.1873 72.0165 74.5486L70.7084 73.0627ZM69.2708 69.9323C68.9096 69.522 68.2841 69.4822 67.8738 69.8435L69.2904 71.4526C69.2902 71.4527 69.29 71.4529 69.2898 71.4531L70.707 73.0628C71.1173 72.7015 71.1571 72.0761 70.7958 71.6658L70.6868 71.542C70.332 71.1389 69.7222 71.0934 69.3118 71.4343C69.7025 71.0705 69.7348 70.4594 69.3798 70.0562L69.2708 69.9323ZM66.5655 68.3575C66.9758 67.9963 67.6013 68.0361 67.9625 68.4464C68.3237 68.8567 68.2839 69.4821 67.8736 69.8434L66.5655 68.3575ZM66.5647 68.3578L72.0152 74.549L63.2585 77.5768C62.7006 77.7697 62.1895 77.1891 62.4515 76.6602L66.5647 68.3578Z" fill="#F1F1F1"/>
<path d="M63.8809 73.7974L66.2791 76.5215L63.1922 77.6396C62.6284 77.8438 62.1065 77.251 62.3805 76.7176L63.8809 73.7974Z" fill="#C82468"/>
<circle cx="16.2059" cy="16.2982" r="14.5091" transform="rotate(-7.16694 16.2059 16.2982)" fill="#BB0055"/>
<g clip-path="url(#clip0_13587_48043)">
<path d="M15.3007 9.1004C15.5492 9.06916 15.7759 9.24524 15.8072 9.4937L15.9203 10.3934C15.9515 10.6419 15.7755 10.8686 15.527 10.8999C15.2786 10.9311 15.0518 10.755 15.0206 10.5066L14.9074 9.60683C14.8762 9.35838 15.0523 9.13164 15.3007 9.1004Z" fill="#FAFAFA"/>
<path fill-rule="evenodd" clip-rule="evenodd" d="M14.3899 20.028C13.6871 19.7418 13.0681 19.2799 12.5931 18.6849C12.0709 18.0308 11.744 17.2425 11.6502 16.4107L11.65 16.4087C11.5213 15.2213 11.8587 14.0303 12.591 13.0867C13.3234 12.1432 14.3934 11.5208 15.5756 11.3508C15.5809 11.35 15.5863 11.3494 15.5916 11.3488C16.7787 11.2209 17.969 11.5586 18.912 12.291C19.855 13.0233 20.4769 14.093 20.6469 15.2747L20.6472 15.2767C20.7627 16.1062 20.6415 16.9514 20.2976 17.715C19.9847 18.4096 19.499 19.0108 18.8886 19.4624L19.1905 21.8637C19.2355 22.2216 19.1365 22.5828 18.9152 22.8677C18.694 23.1526 18.3686 23.338 18.0106 23.383L16.2112 23.6093C15.8532 23.6543 15.4921 23.5553 15.2072 23.334C14.9222 23.1127 14.7369 22.7873 14.6919 22.4294L14.3899 20.028ZM15.3088 20.0669L15.4219 20.9666L18.1211 20.6272L18.008 19.7275L15.3088 20.0669ZM15.535 21.8664L15.5916 22.3162C15.6066 22.4356 15.6684 22.544 15.7634 22.6178C15.8583 22.6915 15.9787 22.7245 16.098 22.7095L17.8975 22.4833C18.0168 22.4683 18.1253 22.4065 18.199 22.3115C18.2728 22.2165 18.3058 22.0961 18.2908 21.9768L18.2342 21.527L15.535 21.8664ZM13.3074 13.6427C13.894 12.887 14.7503 12.3878 15.6968 12.2495C16.6476 12.1492 17.6005 12.4206 18.3558 13.0072C19.1129 13.5952 19.6124 14.454 19.7491 15.4028C19.8409 16.0627 19.7444 16.7351 19.4708 17.3426C19.2111 17.9189 18.8021 18.4145 18.2868 18.7785L14.8037 19.2165C14.2147 18.9915 13.6959 18.6129 13.3018 18.1192C12.8864 17.5988 12.6263 16.9717 12.5514 16.3101C12.4484 15.3566 12.7194 14.4004 13.3074 13.6427Z" fill="#FAFAFA"/>
<path d="M9.79455 16.1905C9.54609 16.2217 9.37001 16.4485 9.40125 16.6969C9.43249 16.9454 9.65923 17.1215 9.90768 17.0902L10.8074 16.9771C11.0559 16.9458 11.232 16.7191 11.2007 16.4706C11.1695 16.2222 10.9427 16.0461 10.6943 16.0773L9.79455 16.1905Z" fill="#FAFAFA"/>
<path d="M10.2715 11.7011C10.4211 11.5003 10.7052 11.4588 10.906 11.6084L11.6455 12.1594C11.8463 12.3091 11.8878 12.5931 11.7381 12.7939C11.5885 12.9947 11.3045 13.0362 11.1037 12.8866L10.3641 12.3356C10.1633 12.1859 10.1218 11.9019 10.2715 11.7011Z" fill="#FAFAFA"/>
<path d="M21.4911 14.7197C21.2426 14.751 21.0665 14.9777 21.0978 15.2262C21.129 15.4746 21.3558 15.6507 21.6042 15.6195L22.504 15.5063C22.7524 15.4751 22.9285 15.2483 22.8973 14.9999C22.866 14.7514 22.6393 14.5753 22.3908 14.6066L21.4911 14.7197Z" fill="#FAFAFA"/>
<path d="M20.8172 10.375C21.0119 10.5325 21.042 10.818 20.8845 11.0127L20.3045 11.7297C20.147 11.9243 19.8615 11.9545 19.6668 11.797C19.4721 11.6395 19.442 11.354 19.5995 11.1593L20.1796 10.4423C20.3371 10.2476 20.6226 10.2175 20.8172 10.375Z" fill="#FAFAFA"/>
</g>
<defs>
<clipPath id="clip0_13587_48043">
<rect width="14.5091" height="14.5091" fill="white" transform="translate(8.10352 10.0055) rotate(-7.16694)"/>
</clipPath>
</defs>
</svg>
