<svg width="24" height="24" viewBox="0 0 24 24" fill="none" xmlns="http://www.w3.org/2000/svg">
<path d="M3.5 24C2.673 24 2 23.327 2 22.5V1.5C2 0.673 2.673 0 3.5 0H16.793C17.214 0.012 17.578 0.163 17.853 0.437L21.561 4.147C21.844 4.43 22 4.807 22 5.207V22.5C22 23.327 21.327 24 20.5 24H3.5ZM3.5 1C3.224 1 3 1.224 3 1.5V22.5C3 22.776 3.224 23 3.5 23H20.5C20.776 23 21 22.776 21 22.5V5.207C21 5.074 20.948 4.948 20.854 4.853L17.147 1.144C17.052 1.051 16.93 1.001 16.792 1H3.5Z" fill="#4BAF50"/>
<path d="M6.5 19.999C5.673 19.999 5 19.438 5 18.749V8.24902C5 7.56002 5.673 6.99902 6.5 6.99902H17.5C18.327 6.99902 19 7.56002 19 8.24902V18.749C19 19.438 18.327 19.999 17.5 19.999H6.5ZM17.5 18.999C17.79 18.999 18 18.85 18 18.749V16.999H10V18.999H17.5ZM6 18.749C6 18.85 6.21 18.999 6.5 18.999H9V16.999H6V18.749ZM18 15.999V13.999H10V15.999H18ZM9 15.999V13.999H6V15.999H9ZM18 12.999V10.999H10V12.999H18ZM9 12.999V10.999H6V12.999H9ZM18 9.99902V8.24902C18 8.14802 17.79 7.99902 17.5 7.99902H10V9.99902H18ZM9 9.99902V7.99902H6.5C6.21 7.99902 6 8.14802 6 8.24902V9.99902H9Z" fill="#4BAF50"/>
</svg>
