<svg width="12" height="12" viewBox="0 0 12 12" fill="none" xmlns="http://www.w3.org/2000/svg">
<g clip-path="url(#clip0_30_3371)">
<path fill-rule="evenodd" clip-rule="evenodd" d="M6.22503 0.00946392C6.0006 0.0699565 5.87712 0.314832 5.95975 0.535538C5.99259 0.62327 6.08359 0.719882 6.17166 0.760537C6.23177 0.788286 6.23644 0.788427 7.25292 0.794771L8.27383 0.801142L5.50199 5.99614L2.73016 11.1911H1.51609C0.173494 11.1911 0.227843 11.1879 0.116366 11.273C-0.133423 11.4636 -0.0811395 11.8318 0.214546 11.9645C0.263004 11.9863 0.398092 11.9876 2.92369 11.9912C4.85749 11.994 5.60268 11.9911 5.65833 11.9806C5.79534 11.9549 5.90865 11.8589 5.95929 11.7257C6.02914 11.542 5.93889 11.3227 5.75667 11.2333L5.68383 11.1975L4.66199 11.1911L3.64014 11.1848L6.41093 5.99295L9.18172 0.801142L10.416 0.794351C11.0949 0.790618 11.6647 0.782579 11.6822 0.776489C11.8104 0.731909 11.9238 0.601458 11.95 0.468216C11.9901 0.264595 11.8543 0.050578 11.6567 0.00574364C11.567 -0.0145904 6.30088 -0.0109848 6.22503 0.00946392Z" fill="#666666"/>
</g>
<defs>
<clipPath id="clip0_30_3371">
<rect width="12" height="12" fill="white"/>
</clipPath>
</defs>
</svg>
