<svg width="16" height="16" viewBox="0 0 16 16" fill="none" xmlns="http://www.w3.org/2000/svg">
<path d="M7 16C5.23333 16 4 14.6293 4 12.6667V4.33333C4 1.82267 5.682 0 8 0C10.318 0 12 1.82267 12 4.33333V10.3333C12 10.5173 11.8507 10.6667 11.6667 10.6667C11.4827 10.6667 11.3333 10.5173 11.3333 10.3333V4.33333C11.3333 2.20867 9.93133 0.666667 8 0.666667C6.06867 0.666667 4.66667 2.20867 4.66667 4.33333V12.6667C4.66667 14.2367 5.626 15.3333 7 15.3333C8.374 15.3333 9.33333 14.2367 9.33333 12.6667V6.33333C9.33333 5.94267 9.23733 4.66667 8 4.66667C6.76267 4.66667 6.66667 5.94267 6.66667 6.33333V11.3333C6.66667 11.5173 6.51733 11.6667 6.33333 11.6667C6.14933 11.6667 6 11.5173 6 11.3333V6.33333C6 4.916 6.78533 4 8 4C9.21533 4 10 4.916 10 6.33333V12.6667C10 14.6293 8.766 16 7 16Z" fill="#666666"/>
</svg>
