<svg width="24" height="24" viewBox="0 0 24 24" fill="none" xmlns="http://www.w3.org/2000/svg">
<path d="M2.556 20.2873C0.932 20.2873 0 19.4508 0 17.9929V8.01621C0 6.7696 0.695 6.04353 2.013 5.90619L2.028 5.38757C2.04 4.62213 2.677 3.99402 3.479 3.96041H4.444C5.265 3.96809 5.947 4.58659 5.999 5.37028L6 5.88122H8.5C8.655 5.88026 8.804 5.80727 8.897 5.6853C9.065 5.46729 9.218 5.2656 9.36 5.07736C10.375 3.73759 10.935 3 12 3H17C18.411 3 19.107 4.43101 19.666 5.58157L19.676 5.6027C19.759 5.7727 19.937 5.88122 20.13 5.88122H21.444C23.14 5.88122 24 6.59961 24 8.01621V17.9929C24 19.4508 23.068 20.2873 21.444 20.2873H2.556ZM12 3.96041C11.444 3.96041 11.044 4.48767 10.169 5.64304C10.021 5.838 9.868 6.03969 9.702 6.25578C9.423 6.61977 8.975 6.83875 8.503 6.84163H2.5C1.116 6.84163 1 7.42171 1 8.01621V17.9929C1 18.9159 1.48 19.3269 2.556 19.3269H21.444C22.52 19.3269 23 18.9159 23 17.9929V8.01621C23 7.42171 22.88 6.84163 21.444 6.84163H20.13C19.549 6.84163 19.016 6.51509 18.771 6.00992L18.76 5.98783C18.275 4.99092 17.774 3.96041 17 3.96041H12ZM5 5.88122V5.40102C4.982 5.14555 4.73 4.9237 4.439 4.92081H3.506C3.246 4.93426 3.032 5.15227 3.028 5.40774L3.014 5.88122H5Z" fill="black"/>
<path d="M14.5 18.3657C11.192 18.3657 8.5 15.7803 8.5 12.6033C8.5 9.42624 11.192 6.84082 14.5 6.84082C17.808 6.84082 20.5 9.42624 20.5 12.6033C20.5 15.7803 17.808 18.3657 14.5 18.3657ZM14.5 7.80123C11.743 7.80123 9.5 9.95542 9.5 12.6033C9.5 15.2511 11.743 17.4053 14.5 17.4053C17.257 17.4053 19.5 15.2511 19.5 12.6033C19.5 9.95542 17.257 7.80123 14.5 7.80123Z" fill="black"/>
<path d="M14.5 15.966C12.57 15.966 11 14.4582 11 12.6046C11 10.751 12.57 9.24316 14.5 9.24316C16.43 9.24316 18 10.751 18 12.6046C18 14.4582 16.43 15.966 14.5 15.966ZM14.5 10.2036C13.122 10.2036 12 11.2802 12 12.6046C12 13.928 13.122 15.0056 14.5 15.0056C15.878 15.0056 17 13.928 17 12.6046C17 11.2802 15.878 10.2036 14.5 10.2036Z" fill="black"/>
<path d="M4 11.6434C2.897 11.6434 2 10.7819 2 9.72257C2 8.66324 2.897 7.80176 4 7.80176C5.103 7.80176 6 8.66324 6 9.72257C6 10.7819 5.103 11.6434 4 11.6434ZM4 8.76216C3.449 8.76216 3 9.19339 3 9.72257C3 10.2518 3.449 10.683 4 10.683C4.551 10.683 5 10.2518 5 9.72257C5 9.19339 4.551 8.76216 4 8.76216Z" fill="black"/>
</svg>
