<svg width="24" height="24" viewBox="0 0 24 24" fill="none" xmlns="http://www.w3.org/2000/svg">
<path d="M6.375 24C4.44475 24 2.875 22.206 2.875 20V13.5C2.875 13.224 3.071 13 3.3125 13C3.554 13 3.75 13.224 3.75 13.5V20C3.75 21.654 4.92775 23 6.375 23C7.82225 23 9 21.654 9 20V17.934L8.36825 18.416C8.29562 18.471 8.21163 18.5 8.12587 18.5C7.97888 18.5 7.84237 18.417 7.76188 18.278C7.69712 18.167 7.67437 18.034 7.69712 17.903C7.71987 17.772 7.78638 17.659 7.8835 17.585L8.51525 17.103C8.65963 16.993 8.82675 16.935 9.00087 16.935C9.294 16.935 9.56612 17.101 9.72887 17.379C9.82512 17.545 9.87675 17.737 9.87675 17.936V20C9.875 22.206 8.30525 24 6.375 24Z" fill="black"/>
<path d="M4.1875 12.5C4.07025 12.5 3.96087 12.448 3.87775 12.354L2.12775 10.354C2.0455 10.259 2 10.134 2 10C2 9.866 2.0455 9.741 2.12775 9.646C2.21 9.551 2.32112 9.5 2.4375 9.5C2.55387 9.5 2.66412 9.552 2.74725 9.646L4.49725 11.646C4.5795 11.74 4.625 11.866 4.625 12C4.625 12.134 4.5795 12.259 4.49725 12.354C4.415 12.449 4.30475 12.5 4.1875 12.5Z" fill="black"/>
<path d="M4.1875 9.5C4.07025 9.5 3.96087 9.448 3.87775 9.354L2.12775 7.354C2.0455 7.259 2 7.134 2 7C2 6.866 2.0455 6.741 2.12775 6.646C2.21 6.551 2.32112 6.5 2.4375 6.5C2.55387 6.5 2.66412 6.552 2.74725 6.646L4.49725 8.646C4.5795 8.741 4.625 8.866 4.625 9C4.625 9.134 4.5795 9.259 4.49725 9.354C4.415 9.449 4.30475 9.5 4.1875 9.5Z" fill="black"/>
<path d="M4.1875 6.5C4.07025 6.5 3.96087 6.448 3.87775 6.354L2.12775 4.354C2.0455 4.259 2 4.134 2 4C2 3.866 2.0455 3.741 2.12775 3.646C2.21 3.551 2.32112 3.5 2.4375 3.5C2.55387 3.5 2.66412 3.552 2.74725 3.646L4.49725 5.646C4.5795 5.741 4.625 5.866 4.625 6C4.625 6.134 4.5795 6.259 4.49725 6.354C4.415 6.449 4.30475 6.5 4.1875 6.5Z" fill="black"/>
<path d="M3.3125 3C3.071 3 2.875 2.776 2.875 2.5V0.5C2.875 0.224 3.071 0 3.3125 0C3.554 0 3.75 0.224 3.75 0.5V2.5C3.75 2.776 3.554 3 3.3125 3Z" fill="black"/>
<path d="M17.7481 6.86719C17.574 6.86719 17.4104 6.79019 17.287 6.65019C17.1689 6.51619 17.1006 6.33819 17.0945 6.14819C17.0936 6.13819 17.0928 6.12719 17.0928 6.11719C17.0928 5.70319 17.3868 5.36719 17.749 5.36719C18.1121 5.36719 18.4062 5.70319 18.4062 6.11719C18.4062 6.12919 18.4053 6.14219 18.4035 6.15519C18.3843 6.55119 18.0973 6.86619 17.7525 6.86719C17.7525 6.86719 17.7516 6.86719 17.7508 6.86719H17.7481Z" fill="black"/>
<path d="M17.7499 10.6163C16.6973 10.6163 15.7085 10.1493 14.9656 9.30029C14.8834 9.20629 14.8379 9.08029 14.8379 8.94629C14.8379 8.81229 14.8834 8.68729 14.9656 8.59229C15.0479 8.49729 15.1581 8.44629 15.2754 8.44629C15.3926 8.44629 15.502 8.49829 15.5851 8.59229C16.1626 9.25229 16.9318 9.61529 17.7508 9.61529C18.5698 9.61529 19.3389 9.25229 19.9164 8.59229C19.9986 8.49829 20.1089 8.44629 20.2261 8.44629C20.3434 8.44629 20.4528 8.49829 20.5359 8.59229C20.619 8.68629 20.6636 8.81229 20.6636 8.94629C20.6636 9.08029 20.6173 9.20529 20.5341 9.30029C19.7913 10.1483 18.8025 10.6163 17.7499 10.6163Z" fill="black"/>
<path d="M15.1667 23C14.9296 22.999 14.7073 22.893 14.5411 22.701C14.3748 22.509 14.2838 22.255 14.2847 21.986C14.2847 21.928 14.29 21.868 14.2987 21.809C14.4553 20.761 14.962 19.842 15.725 19.225C16.054 18.959 16.4127 18.763 16.7968 18.641C13.8052 15.232 12.3965 12.011 12.61 9.06198C12.8068 6.34598 14.3696 3.85898 17.2545 1.66798C17.405 1.55798 17.5756 1.50098 17.7497 1.50098C17.923 1.50098 18.091 1.55698 18.2353 1.66298C21.1263 3.85698 22.69 6.34498 22.8868 9.06198C23.1003 12.011 21.6925 15.233 18.7 18.641C19.9853 19.056 20.9688 20.287 21.1972 21.817C21.2392 22.078 21.1885 22.345 21.0537 22.567C20.919 22.789 20.7177 22.937 20.485 22.985C20.4368 22.994 20.3835 23 20.3292 23H15.1667ZM17.6823 19.491C17.16 19.505 16.6586 19.695 16.2316 20.041C15.6593 20.504 15.2787 21.194 15.1606 21.984L20.3292 22C20.1481 20.733 19.2862 19.746 18.1898 19.532C18.0726 19.509 17.9457 19.496 17.804 19.493C17.7926 19.496 17.7725 19.5 17.7488 19.5C17.7226 19.5 17.6998 19.496 17.6823 19.491ZM17.7506 2.49998C17.7445 2.49998 17.7383 2.50198 17.7331 2.50598C15.088 4.51398 13.6565 6.74798 13.4823 9.14398C13.2828 11.896 14.7187 14.98 17.7488 18.311C20.7798 14.979 22.2148 11.896 22.0153 9.14398C21.8421 6.74798 20.4097 4.51298 17.7585 2.50098L17.7506 2.49998Z" fill="black"/>
</svg>
