<svg width="135" height="120" viewBox="0 0 135 120" fill="none" xmlns="http://www.w3.org/2000/svg">
<path d="M85.5 102C112.838 102 135 98.6421 135 94.5C135 90.3579 112.838 87 85.5 87C58.1619 87 36 90.3579 36 94.5C36 98.6421 58.1619 102 85.5 102Z" fill="#DDDDDD"/>
<mask id="mask0_6552_55845" style="mask-type:alpha" maskUnits="userSpaceOnUse" x="48" y="18" width="78" height="77">
<path d="M125.215 84.2485L93.0902 21.7521C91.9036 19.4453 89.5583 18 87.0017 18C84.4452 18 82.0998 19.4453 80.9132 21.7521L48.7848 84.2485C47.6686 86.4193 47.7476 89.0266 48.9931 91.1231C50.2386 93.2197 52.4694 94.5 54.875 94.5H119.125C121.531 94.5 123.761 93.2197 125.007 91.1231C126.252 89.0266 126.331 86.4193 125.215 84.2485ZM83.5631 43.7151C83.5631 41.7815 85.1018 40.214 87 40.214C88.8982 40.214 90.4369 41.7815 90.4369 43.7151V64.7223C90.4369 66.656 88.8982 68.2235 87 68.2235C85.1018 68.2235 83.5631 66.656 83.5631 64.7223V43.7151ZM87.1718 84.0139H87.0756C84.2593 84.0047 81.9515 81.7341 81.8446 78.8672C81.7946 77.481 82.2937 76.1325 83.2296 75.125C84.1656 74.1176 85.4599 73.5357 86.8213 73.5103H86.9175C89.7334 73.5137 92.0448 75.7803 92.1554 78.6466C92.2093 80.036 91.7108 81.3888 90.7728 82.399C89.8349 83.4092 88.5366 83.9914 87.1718 84.0139Z" fill="white"/>
</mask>
<g mask="url(#mask0_6552_55845)">
<path d="M125.215 84.2485L93.0902 21.7521C91.9036 19.4453 89.5583 18 87.0017 18C84.4452 18 82.0998 19.4453 80.9132 21.7521L48.7848 84.2485C47.6686 86.4193 47.7476 89.0266 48.9931 91.1231C50.2386 93.2197 52.4694 94.5 54.875 94.5H119.125C121.531 94.5 123.761 93.2197 125.007 91.1231C126.252 89.0266 126.331 86.4193 125.215 84.2485ZM83.5631 43.7151C83.5631 41.7815 85.1018 40.214 87 40.214C88.8982 40.214 90.4369 41.7815 90.4369 43.7151V64.7223C90.4369 66.656 88.8982 68.2235 87 68.2235C85.1018 68.2235 83.5631 66.656 83.5631 64.7223V43.7151ZM87.1718 84.0139H87.0756C84.2593 84.0047 81.9515 81.7341 81.8446 78.8672C81.7946 77.481 82.2937 76.1325 83.2296 75.125C84.1656 74.1176 85.4599 73.5357 86.8213 73.5103H86.9175C89.7334 73.5137 92.0448 75.7803 92.1554 78.6466C92.2093 80.036 91.7108 81.3888 90.7728 82.399C89.8349 83.4092 88.5366 83.9914 87.1718 84.0139Z" fill="#CF3520"/>
</g>
<path d="M20.0898 33.573L28.7191 42.2022H24.4045V47.5955C24.4045 53.2552 28.4526 58.382 34.1123 58.382C34.2925 58.382 34.4721 58.379 34.651 58.373L34.6515 62.6892C34.4723 62.6941 34.2926 62.6966 34.1123 62.6966C26.0699 62.6966 20.0898 55.6379 20.0898 47.5955V33.573Z" fill="#666666"/>
<path d="M39.8256 56.8455L69.0337 79.8072L57.9216 86.6744L11.1121 86.4883L0 79.6683L29.6012 56.8163C32.6167 54.4883 36.8254 54.5008 39.8256 56.8455ZM34.5169 57.7079C32.8042 57.7079 31.4157 59.0963 31.4157 60.809C31.4157 62.5217 32.8042 63.9102 34.5169 63.9102C36.2296 63.9102 37.618 62.5217 37.618 60.809C37.618 59.0963 36.2296 57.7079 34.5169 57.7079Z" fill="#FB77A7"/>
<path d="M59.3107 66.7673V89.3303L40.3188 100.03L39.8257 99.6437C36.8255 97.299 32.6168 97.2866 29.6012 99.6145L29.1248 99.9826L9.72314 89.1442V66.7673C9.72314 66.3838 10.0341 66.0728 10.4176 66.0728H58.6162C58.9997 66.0728 59.3107 66.3838 59.3107 66.7673Z" fill="#F5F5F5"/>
<path d="M43.9928 73.0134H24.6856C24.1101 73.0134 23.6438 72.547 23.6438 71.9717C23.6438 71.3964 24.1101 70.9299 24.6856 70.9299H43.9928C44.5682 70.9299 45.0345 71.3964 45.0345 71.9717C45.0345 72.547 44.5682 73.0134 43.9928 73.0134Z" fill="#E0E0E0"/>
<path d="M50.2434 87.1813H18.4351C17.8596 87.1813 17.3933 86.7149 17.3933 86.1395C17.3933 85.5642 17.8596 85.0978 18.4351 85.0978H50.2434C50.8188 85.0978 51.2851 85.5642 51.2851 86.1395C51.2851 86.7149 50.8188 87.1813 50.2434 87.1813Z" fill="#E0E0E0"/>
<path d="M26.8393 80.0517H18.4426C17.8672 80.0517 17.4009 79.5852 17.4009 79.0099C17.4009 78.4346 17.8672 77.9681 18.4426 77.9681H26.8393C27.4148 77.9681 27.8811 78.4346 27.8811 79.0099C27.8811 79.5852 27.4147 80.0517 26.8393 80.0517Z" fill="#E0E0E0"/>
<path d="M50.2358 80.0517H32.3826C31.8071 80.0517 31.3408 79.5852 31.3408 79.0099C31.3408 78.4346 31.8071 77.9681 32.3826 77.9681H50.2358C50.8112 77.9681 51.2775 78.4346 51.2775 79.0099C51.2775 79.5852 50.8112 80.0517 50.2358 80.0517Z" fill="#E0E0E0"/>
<path d="M69.0338 79.8071V117.033C69.0338 117.141 69.0213 117.246 68.9977 117.348C68.9935 117.366 68.9894 117.384 68.9838 117.402C68.9769 117.427 68.9699 117.452 68.9616 117.477C68.9533 117.498 68.9463 117.519 68.938 117.54C68.9338 117.552 68.9283 117.565 68.9227 117.577C68.9088 117.609 68.8949 117.64 68.8782 117.67C68.8755 117.677 68.8727 117.683 68.8685 117.688C68.8338 117.753 68.7935 117.816 68.7477 117.874C68.7407 117.885 68.7324 117.897 68.7227 117.908C68.7199 117.912 68.7157 117.916 68.7116 117.92C68.6893 117.947 68.6671 117.973 68.6421 117.998C68.6213 118.02 68.5991 118.041 68.5768 118.062L68.5754 118.063L51.1073 106.889L40.8356 96.3891L40.3188 95.9849L43.8539 93.9931L59.3108 85.2854L69.0338 79.8071Z" fill="#F2357A"/>
<path d="M29.1247 95.9377L28.6025 96.3405L18.1279 106.889L0.461151 118.066C0.437538 118.044 0.413924 118.022 0.3917 117.998C0.148624 117.748 0 117.408 0 117.033V79.6682L9.72306 85.0992L23.6326 92.8693L25.3563 93.8319L29.1247 95.9377Z" fill="#F2357A"/>
<path d="M29.1247 95.9378L28.6025 96.3406L18.1279 106.889L0.461151 118.066C0.437538 118.044 0.413924 118.022 0.3917 117.998C0.148624 117.748 0 117.408 0 117.033V116.98L25.3563 93.832L29.1247 95.9378Z" fill="#FB77A7"/>
<path d="M69.0337 116.98V117.033C69.0337 117.141 69.0212 117.247 68.9975 117.348C68.9934 117.366 68.9892 117.384 68.9837 117.402C68.9767 117.427 68.9698 117.452 68.9614 117.477C68.9531 117.498 68.9462 117.519 68.9378 117.54C68.9337 117.552 68.9281 117.565 68.9225 117.577C68.9086 117.609 68.8948 117.64 68.8781 117.67C68.8753 117.677 68.8725 117.683 68.8684 117.688C68.8336 117.754 68.7934 117.816 68.7475 117.874C68.7406 117.885 68.7322 117.897 68.7225 117.908C68.7197 117.912 68.7156 117.916 68.7114 117.92C68.6892 117.947 68.667 117.973 68.642 117.998C68.6211 118.02 68.5989 118.041 68.5767 118.062L68.5753 118.063C68.5739 118.065 68.5739 118.065 68.5725 118.066L50.9057 106.889L40.4312 96.3406L39.9089 95.9378L40.1131 95.8239L40.3187 95.985L43.8537 93.9932L69.0337 116.98Z" fill="#FB77A7"/>
<path d="M68.5754 118.063C68.574 118.065 68.574 118.065 68.5726 118.066C68.3267 118.287 68.0017 118.422 67.6447 118.422H1.38904C1.0529 118.422 0.745928 118.302 0.50563 118.103C0.490351 118.092 0.475072 118.08 0.461182 118.066L16.739 105.5L28.6025 96.3405L29.1248 95.9377L29.6012 95.5696C31.0527 94.4501 32.7806 93.8709 34.5169 93.8334C36.3879 93.7945 38.27 94.382 39.8257 95.5988L40.1132 95.8238L40.3188 95.9849L40.8355 96.3891L52.4962 105.5L68.5754 118.063Z" fill="#F2357A"/>
<path d="M46.873 0.133885L47.149 0.134853C51.8584 0.171527 54.6068 2.95013 54.6068 7.68541C54.6068 10.5741 52.9457 13.0354 51.2027 15.5191L50.7472 16.1678C50.216 16.9259 49.69 17.6897 49.2136 18.4719V21.7079H44.899V18.4719C44.598 17.9777 44.2771 17.4909 43.9477 17.0082L43.6158 16.5267C43.5601 16.4466 43.5043 16.3667 43.4485 16.2868L42.7773 15.3304L42.445 14.8529C40.3552 11.8285 38.5963 8.77715 40.0224 4.88631C41.1656 1.96397 44.0118 0.0663333 47.149 0.134853L46.873 0.133885ZM47.0563 4.44946C44.6735 4.44946 43.8203 5.30267 43.8203 7.68541C43.8203 10.0682 44.6735 13.0787 47.0563 13.0787C49.439 13.0787 50.2922 10.0682 50.2922 7.68541C50.2922 5.30267 49.439 4.44946 47.0563 4.44946Z" fill="#999999"/>
<path d="M49.2136 30.3372V49.7529C49.2136 57.6152 42.4675 62.4756 34.6513 62.6894L34.6511 58.3731C34.6481 58.3732 34.6451 58.3733 34.6421 58.3734C40.0879 58.1937 44.899 55.2355 44.899 49.7529V30.3372H49.2136Z" fill="#666666"/>
<path d="M49.2136 21.7079H44.899C43.7076 21.7079 42.7417 22.6737 42.7417 23.8652C42.7417 25.0566 43.7076 26.0225 44.899 26.0225H49.2136C50.4051 26.0225 51.3709 25.0566 51.3709 23.8652C51.3709 22.6737 50.4051 21.7079 49.2136 21.7079Z" fill="#CF3520"/>
<path d="M49.2136 26.0225H44.899C43.7076 26.0225 42.7417 26.9883 42.7417 28.1798C42.7417 29.3712 43.7076 30.3371 44.899 30.3371H49.2136C50.4051 30.3371 51.3709 29.3712 51.3709 28.1798C51.3709 26.9883 50.4051 26.0225 49.2136 26.0225Z" fill="#999999"/>
</svg>
