<svg width="24" height="24" viewBox="0 0 24 24" fill="none" xmlns="http://www.w3.org/2000/svg">
<path d="M12.001 16C9.79498 16 8.00098 14.206 8.00098 12C8.00098 9.794 9.79498 8 12.001 8C14.207 8 16.001 9.794 16.001 12C16.001 14.206 14.206 16 12.001 16ZM12.001 9C10.347 9 9.00098 10.346 9.00098 12C9.00098 13.654 10.347 15 12.001 15C13.655 15 15.001 13.654 15.001 12C15.001 10.346 13.655 9 12.001 9Z" fill="black"/>
<path d="M12.0009 19C6.2809 19 1.5599 14.146 0.249895 12.658C-0.0771049 12.282 -0.0771049 11.718 0.247895 11.343C1.5589 9.855 6.2809 5 12.0009 5C17.7149 5 22.4329 9.845 23.7479 11.337C23.7499 11.339 23.7519 11.341 23.7539 11.344C24.0789 11.718 24.0789 12.282 23.7539 12.656C22.4419 14.145 17.7199 19 12.0009 19ZM12.0009 6C6.7009 6 2.2399 10.594 0.999895 12.003C2.2409 13.406 6.6999 18 12.0009 18C17.3009 18 21.7609 13.406 23.0019 11.997C21.7599 10.594 17.2999 6 12.0009 6Z" fill="black"/>
</svg>
