<svg width="24" height="24" viewBox="0 0 24 24" fill="none" xmlns="http://www.w3.org/2000/svg">
<g clip-path="url(#clip0_1806_64491)">
<path fill-rule="evenodd" clip-rule="evenodd" d="M4 14.502C4.27614 14.502 4.5 14.7259 4.5 15.002V23.2558C4.5 23.5319 4.27614 23.7558 4 23.7558C3.72386 23.7558 3.5 23.5319 3.5 23.2558V15.002C3.5 14.7259 3.72386 14.502 4 14.502Z" fill="black"/>
<path fill-rule="evenodd" clip-rule="evenodd" d="M4 0.502C4.27614 0.502 4.5 0.725858 4.5 1.002V9.25579C4.5 9.53193 4.27614 9.75579 4 9.75579C3.72386 9.75579 3.5 9.53193 3.5 9.25579V1.002C3.5 0.725858 3.72386 0.502 4 0.502Z" fill="black"/>
<path fill-rule="evenodd" clip-rule="evenodd" d="M3.64645 13.6484C3.84171 13.4532 4.15829 13.4532 4.35355 13.6484L7.35355 16.6484C7.54882 16.8437 7.54882 17.1603 7.35355 17.3556C7.15829 17.5508 6.84171 17.5508 6.64645 17.3556L4 14.7091L1.35355 17.3556C1.15829 17.5508 0.841709 17.5508 0.646447 17.3556C0.451184 17.1603 0.451184 16.8437 0.646447 16.6484L3.64645 13.6484Z" fill="black"/>
<path fill-rule="evenodd" clip-rule="evenodd" d="M0.646447 6.64845C0.841709 6.45318 1.15829 6.45318 1.35355 6.64845L4 9.29489L6.64645 6.64845C6.84171 6.45318 7.15829 6.45318 7.35355 6.64845C7.54882 6.84371 7.54882 7.16029 7.35355 7.35555L4.35355 10.3556C4.15829 10.5508 3.84171 10.5508 3.64645 10.3556L0.646447 7.35555C0.451184 7.16029 0.451184 6.84371 0.646447 6.64845Z" fill="black"/>
<path fill-rule="evenodd" clip-rule="evenodd" d="M15.25 0.75C15.25 0.473858 15.4739 0.25 15.75 0.25H23.25C23.5261 0.25 23.75 0.473858 23.75 0.75C23.75 1.02614 23.5261 1.25 23.25 1.25H15.75C15.4739 1.25 15.25 1.02614 15.25 0.75Z" fill="black"/>
<path fill-rule="evenodd" clip-rule="evenodd" d="M10.75 5.25C10.75 4.97386 10.9739 4.75 11.25 4.75H23.25C23.5261 4.75 23.75 4.97386 23.75 5.25C23.75 5.52614 23.5261 5.75 23.25 5.75H11.25C10.9739 5.75 10.75 5.52614 10.75 5.25Z" fill="black"/>
<path fill-rule="evenodd" clip-rule="evenodd" d="M10.75 9.75C10.75 9.47386 10.9739 9.25 11.25 9.25H23.25C23.5261 9.25 23.75 9.47386 23.75 9.75C23.75 10.0261 23.5261 10.25 23.25 10.25H11.25C10.9739 10.25 10.75 10.0261 10.75 9.75Z" fill="black"/>
<path fill-rule="evenodd" clip-rule="evenodd" d="M15.25 14.25C15.25 13.9739 15.4739 13.75 15.75 13.75H23.25C23.5261 13.75 23.75 13.9739 23.75 14.25C23.75 14.5261 23.5261 14.75 23.25 14.75H15.75C15.4739 14.75 15.25 14.5261 15.25 14.25Z" fill="black"/>
<path fill-rule="evenodd" clip-rule="evenodd" d="M10.75 18.75C10.75 18.4739 10.9739 18.25 11.25 18.25H23.25C23.5261 18.25 23.75 18.4739 23.75 18.75C23.75 19.0261 23.5261 19.25 23.25 19.25H11.25C10.9739 19.25 10.75 19.0261 10.75 18.75Z" fill="black"/>
<path fill-rule="evenodd" clip-rule="evenodd" d="M10.75 23.25C10.75 22.9739 10.9739 22.75 11.25 22.75H23.25C23.5261 22.75 23.75 22.9739 23.75 23.25C23.75 23.5261 23.5261 23.75 23.25 23.75H11.25C10.9739 23.75 10.75 23.5261 10.75 23.25Z" fill="black"/>
</g>
<defs>
<clipPath id="clip0_1806_64491">
<rect width="24" height="24" fill="white"/>
</clipPath>
</defs>
</svg>
