<svg width="24" height="24" viewBox="0 0 24 24" fill="none" xmlns="http://www.w3.org/2000/svg">
<path d="M14.3 3.15C14.3 4.33741 13.3374 5.3 12.15 5.3C10.9626 5.3 10 4.33741 10 3.15C10 1.96259 10.9626 1 12.15 1C13.3374 1 14.3 1.96259 14.3 3.15Z" fill="black"/>
<path d="M14.3 11.6114C14.3 12.7988 13.3374 13.7614 12.15 13.7614C10.9626 13.7614 10 12.7988 10 11.6114C10 10.424 10.9626 9.46143 12.15 9.46143C13.3374 9.46143 14.3 10.424 14.3 11.6114Z" fill="black"/>
<path d="M14.3 20.0731C14.3 21.2605 13.3374 22.2231 12.15 22.2231C10.9626 22.2231 10 21.2605 10 20.0731C10 18.8857 10.9626 17.9231 12.15 17.9231C13.3374 17.9231 14.3 18.8857 14.3 20.0731Z" fill="black"/>
</svg>
