<svg width="24" height="24" viewBox="0 0 24 24" fill="none" xmlns="http://www.w3.org/2000/svg">
<g clip-path="url(#clip0_4139_49270)">
<path d="M7.5 19.999C7.224 19.999 7 19.775 7 19.499C7 19.223 7.224 18.999 7.5 18.999H16.5C16.776 18.999 17 19.223 17 19.499C17 19.775 16.776 19.999 16.5 19.999H7.5Z" fill="black"/>
<path d="M7.5 16.999C7.224 16.999 7 16.775 7 16.499C7 16.223 7.224 15.999 7.5 15.999H16.5C16.776 15.999 17 16.223 17 16.499C17 16.775 16.776 16.999 16.5 16.999H7.5Z" fill="black"/>
<path d="M6.5 24C5.673 24 5 23.327 5 22.5V17H2.5C1.125 16.996 0.004 15.875 0 14.501V8.5C0.004 7.125 1.125 6.004 2.499 6H21.5C22.875 6.004 23.996 7.125 24 8.499V14.5C23.996 15.875 22.875 16.996 21.501 17H19V22.5C19 23.327 18.327 24 17.5 24H6.5ZM6 22.5C6 22.776 6.224 23 6.5 23H17.5C17.776 23 18 22.776 18 22.5V14H6V22.5ZM21.5 16C22.324 15.998 22.998 15.324 23 14.499V8.5C22.998 7.676 22.324 7.003 21.499 7H2.5C1.676 7.003 1.003 7.676 1 8.502V14.5C1.003 15.324 1.676 15.998 2.501 16H5V13.5C5 13.225 5.224 13 5.5 13H18.5C18.776 13 19 13.224 19 13.5V16H21.5Z" fill="black"/>
<path d="M18.479 4.99902H14.5C14.224 4.99902 14 4.77502 14 4.49902V1.00002H6V4.50002C6 4.77602 5.776 5.00002 5.5 5.00002C5.224 5.00002 5 4.77602 5 4.50002V0.500023C5 0.224023 5.224 2.34375e-05 5.5 2.34375e-05H14.479C14.486 2.34375e-05 14.493 -0.000976562 14.5 -0.000976562C14.507 -0.000976562 14.514 2.34375e-05 14.521 2.34375e-05H15.085C15.486 2.34375e-05 15.862 0.156023 16.146 0.439023L18.56 2.85302C18.844 3.13702 19 3.51402 19 3.91402V4.50002C19 4.77602 18.776 5.00002 18.5 5.00002C18.493 5.00002 18.486 5.00002 18.479 4.99902ZM18 3.99902V3.91402C18 3.78102 17.948 3.65502 17.854 3.56002L15.44 1.14602C15.345 1.05202 15.219 1.00002 15.086 1.00002H15V3.99902H18Z" fill="black"/>
<path d="M3.5 10.999C2.673 10.999 2 10.326 2 9.49902C2 8.67202 2.673 7.99902 3.5 7.99902C4.327 7.99902 5 8.67202 5 9.49902C5 10.326 4.327 10.999 3.5 10.999ZM3.5 8.99902C3.224 8.99902 3 9.22302 3 9.49902C3 9.77502 3.224 9.99902 3.5 9.99902C3.776 9.99902 4 9.77502 4 9.49902C4 9.22302 3.776 8.99902 3.5 8.99902Z" fill="black"/>
</g>
<defs>
<clipPath id="clip0_4139_49270">
<rect width="24" height="24" fill="white"/>
</clipPath>
</defs>
</svg>
