<svg width="24" height="24" viewBox="0 0 24 24" fill="none" xmlns="http://www.w3.org/2000/svg">
<g clip-path="url(#clip0_4740_49968)">
<path d="M12 0C9.62663 0 7.30655 0.703788 5.33316 2.02236C3.35977 3.34094 1.8217 5.21509 0.913451 7.4078C0.00519943 9.60051 -0.232441 12.0133 0.230582 14.3411C0.693605 16.6689 1.83649 18.8071 3.51472 20.4853C5.19295 22.1635 7.33115 23.3064 9.65892 23.7694C11.9867 24.2324 14.3995 23.9948 16.5922 23.0866C18.7849 22.1783 20.6591 20.6402 21.9776 18.6668C23.2962 16.6935 24 14.3734 24 12C23.9966 8.81846 22.7312 5.76821 20.4815 3.51852C18.2318 1.26883 15.1815 0.00344108 12 0V0ZM8.50001 12C8.50001 12.3956 8.38271 12.7822 8.16294 13.1111C7.94318 13.44 7.63082 13.6964 7.26537 13.8478C6.89992 13.9991 6.49779 14.0387 6.10982 13.9616C5.72186 13.8844 5.3655 13.6939 5.08579 13.4142C4.80609 13.1345 4.6156 12.7781 4.53843 12.3902C4.46126 12.0022 4.50087 11.6001 4.65225 11.2346C4.80362 10.8692 5.05997 10.5568 5.38886 10.3371C5.71776 10.1173 6.10444 10 6.50001 10C7.03044 10 7.53915 10.2107 7.91422 10.5858C8.28929 10.9609 8.50001 11.4696 8.50001 12ZM12 10C12.3956 10 12.7822 10.1173 13.1111 10.3371C13.44 10.5568 13.6964 10.8692 13.8478 11.2346C13.9991 11.6001 14.0387 12.0022 13.9616 12.3902C13.8844 12.7781 13.6939 13.1345 13.4142 13.4142C13.1345 13.6939 12.7781 13.8844 12.3902 13.9616C12.0022 14.0387 11.6001 13.9991 11.2346 13.8478C10.8692 13.6964 10.5568 13.44 10.3371 13.1111C10.1173 12.7822 10 12.3956 10 12C10 11.4696 10.2107 10.9609 10.5858 10.5858C10.9609 10.2107 11.4696 10 12 10V10ZM17.5 14C17.1044 14 16.7178 13.8827 16.3889 13.6629C16.06 13.4432 15.8036 13.1308 15.6522 12.7654C15.5009 12.3999 15.4613 11.9978 15.5384 11.6098C15.6156 11.2219 15.8061 10.8655 16.0858 10.5858C16.3655 10.3061 16.7219 10.1156 17.1098 10.0384C17.4978 9.96126 17.8999 10.0009 18.2654 10.1522C18.6308 10.3036 18.9432 10.56 19.1629 10.8889C19.3827 11.2178 19.5 11.6044 19.5 12C19.5 12.5304 19.2893 13.0391 18.9142 13.4142C18.5391 13.7893 18.0304 14 17.5 14Z" fill="black"/>
</g>
<defs>
<clipPath id="clip0_4740_49968">
<rect width="24" height="24" fill="white"/>
</clipPath>
</defs>
</svg>
