<svg width="24" height="24" viewBox="0 0 24 24" fill="none" xmlns="http://www.w3.org/2000/svg">
<path d="M11 24C10.173 24 9.49999 23.327 9.49999 22.5V12.758L1.78899 2.399C1.59699 2.142 1.48999 1.822 1.48999 1.5C1.48999 0.673 2.16299 0 2.98999 0H21.011C21.334 0 21.653 0.106 21.911 0.3C22.232 0.54 22.44 0.891 22.496 1.288C22.552 1.685 22.452 2.079 22.211 2.399L14.5 12.758V22.5C14.5 23.327 13.827 24 13 24H11ZM2.98999 1C2.71399 1 2.48999 1.224 2.48999 1.5C2.48999 1.608 2.52599 1.714 2.58999 1.8L10.401 12.294C10.465 12.379 10.5 12.485 10.5 12.592V22.5C10.5 22.776 10.724 23 11 23H13C13.276 23 13.5 22.776 13.5 22.5V12.592C13.5 12.485 13.535 12.378 13.6 12.293L21.411 1.8C21.491 1.693 21.525 1.561 21.506 1.429C21.488 1.297 21.418 1.18 21.311 1.1C21.225 1.036 21.118 1 21.011 1H2.98999Z" fill="black"/>
</svg>
