<svg width="12" height="12" viewBox="0 0 12 12" fill="none" xmlns="http://www.w3.org/2000/svg">
<g clip-path="url(#clip0_211_7799)">
<path fill-rule="evenodd" clip-rule="evenodd" d="M1.34533 0.0113521C0.843978 0.0645543 0.386711 0.385705 0.157919 0.845304C-0.0632767 1.28961 -0.0507728 1.82503 0.190855 2.25712C0.411898 2.65237 0.793898 2.92795 1.23874 3.01306C1.39987 3.04388 1.66029 3.04183 1.81814 3.00847C2.43201 2.87878 2.89454 2.40964 3.01118 1.79839C3.03956 1.6497 3.03935 1.39095 3.01075 1.24098C2.88426 0.577865 2.34901 0.0850117 1.67524 0.0112373C1.53814 -0.00377757 1.48767 -0.00375207 1.34533 0.0113521ZM1.35005 0.819952C1.10076 0.874123 0.870298 1.1075 0.816778 1.35997C0.762709 1.61507 0.830301 1.84307 1.01382 2.02457C1.1257 2.13525 1.20314 2.18047 1.34124 2.21579C1.5943 2.28051 1.83538 2.2132 2.02317 2.02541C2.21096 1.83763 2.27827 1.59655 2.21355 1.34348C2.17823 1.20538 2.133 1.12795 2.02233 1.01606C1.84011 0.831831 1.60757 0.763996 1.35005 0.819952ZM4.01937 1.13752C3.88767 1.17293 3.7684 1.30373 3.74071 1.44312C3.69957 1.65013 3.84024 1.86423 4.04614 1.908C4.14258 1.92849 11.5897 1.92849 11.6862 1.908C11.8323 1.87693 11.9583 1.74848 11.9892 1.59915C12.0317 1.39359 11.8947 1.17581 11.6959 1.13319C11.5939 1.11131 4.1011 1.11555 4.01937 1.13752ZM1.25217 4.5048C0.472531 4.64559 -0.072849 5.36688 0.00792301 6.15036C0.0885293 6.93215 0.735151 7.51806 1.51709 7.51785C2.30528 7.51762 2.95485 6.92458 3.02831 6.13812C3.10158 5.35388 2.55289 4.63945 1.77352 4.50429C1.63296 4.47992 1.38863 4.48015 1.25217 4.5048ZM1.42938 5.28913C1.14614 5.3155 0.896326 5.53324 0.82375 5.81701C0.791642 5.9426 0.791642 6.0596 0.82375 6.18519C0.857195 6.31595 0.912271 6.4101 1.0143 6.51094C1.15832 6.65329 1.30994 6.71562 1.51223 6.71565C1.72571 6.71566 1.87567 6.65533 2.02283 6.51019C2.30538 6.23154 2.3081 5.77681 2.02885 5.49757C1.86284 5.33155 1.67505 5.26625 1.42938 5.28913ZM3.98794 5.62719C3.91018 5.65476 3.80333 5.75713 3.76754 5.83833C3.74518 5.88909 3.73794 5.92887 3.73794 6.0011C3.73794 6.12808 3.77337 6.20932 3.86541 6.29344C3.9898 6.40713 3.57192 6.39676 7.88557 6.39311L11.7155 6.38986L11.7728 6.36011C11.9174 6.28511 11.9944 6.16044 11.9944 6.0011C11.9944 5.84176 11.9174 5.71709 11.7728 5.64209L11.7155 5.61234L7.8789 5.61013C4.4832 5.60818 4.03608 5.61014 3.98794 5.62719ZM1.36565 8.97114C0.701438 9.03903 0.168728 9.52319 0.0265578 10.1882C-0.00329356 10.3278 -0.00329356 10.6349 0.0265578 10.7745C0.0891921 11.0675 0.219266 11.3184 0.4159 11.5254C0.893789 12.0286 1.65295 12.1457 2.25488 11.8091C2.65016 11.588 2.92596 11.2057 3.01075 10.7612C3.03935 10.6112 3.03956 10.3525 3.01118 10.2038C2.86324 9.42854 2.14616 8.89138 1.36565 8.97114ZM1.33622 9.78701C1.20246 9.82205 1.1242 9.86847 1.01173 9.97948C0.935252 10.055 0.902903 10.0985 0.869508 10.1709C0.798321 10.3253 0.780298 10.492 0.817644 10.6504C0.877615 10.9047 1.10501 11.1296 1.356 11.1828C1.61294 11.2373 1.84034 11.1701 2.02233 10.9861C2.133 10.8743 2.17823 10.7968 2.21355 10.6587C2.27827 10.4057 2.21096 10.1646 2.02317 9.97679C1.83522 9.78883 1.58895 9.72081 1.33622 9.78701ZM4.03607 10.0953C3.89827 10.126 3.77056 10.2607 3.74136 10.4061C3.70045 10.6098 3.83861 10.8266 4.03638 10.869C4.12419 10.8878 11.6134 10.888 11.6964 10.8692C11.837 10.8373 11.9616 10.7046 11.9899 10.5565C12.0298 10.3484 11.8914 10.1378 11.6862 10.0942C11.5967 10.0752 4.12166 10.0763 4.03607 10.0953Z" fill="#666666"/>
</g>
<defs>
<clipPath id="clip0_211_7799">
<rect width="12" height="12" fill="white"/>
</clipPath>
</defs>
</svg>
