<?xml version="1.0" encoding="UTF-8" standalone="no"?>
<!DOCTYPE svg PUBLIC "-//W3C//DTD SVG 1.1//EN" "http://www.w3.org/Graphics/SVG/1.1/DTD/svg11.dtd">
<!-- Created with Vectornator (http://vectornator.io/) -->
<svg height="100%" stroke-miterlimit="10" style="fill-rule:nonzero;clip-rule:evenodd;stroke-linecap:round;stroke-linejoin:round;" version="1.1" viewBox="0 0 24 24" width="100%" xml:space="preserve" xmlns="http://www.w3.org/2000/svg" xmlns:xlink="http://www.w3.org/1999/xlink">
<defs/>
<g id="Sans-titre">
<g opacity="1">
<clipPath clip-rule="nonzero" id="ClipPath">
<path d="M0 0L24 0L24 0L24 24L24 24L0 24L0 24L0 0L0 0Z"/>
</clipPath>
<g clip-path="url(#ClipPath)">
<path d="M2.69066 0.0227042C1.68796 0.129109 0.773422 0.77141 0.315838 1.69061C-0.126553 2.57922-0.101546 3.65006 0.38171 4.51424C0.823796 5.30474 1.5878 5.8559 2.47748 6.02612C2.79974 6.08776 3.32058 6.08366 3.63628 6.01694C4.86402 5.75756 5.78908 4.81928 6.02236 3.59678C6.07912 3.2994 6.0787 2.7819 6.0215 2.48196C5.76852 1.15573 4.69802 0.170023 3.35048 0.0224746C3.07628-0.00755514 2.97534-0.00750414 2.69066 0.0227042ZM2.7001 1.6399C2.20152 1.74825 1.7406 2.215 1.63356 2.71994C1.52542 3.23014 1.6606 3.68614 2.02764 4.04914C2.2514 4.2705 2.40628 4.36094 2.68248 4.43158C3.1886 4.56102 3.67076 4.4264 4.04634 4.05082C4.42192 3.67526 4.55654 3.1931 4.4271 2.68696C4.35646 2.41076 4.266 2.2559 4.04466 2.03212C3.68022 1.66366 3.21514 1.52799 2.7001 1.6399ZM8.03874 2.27504C7.77534 2.34586 7.5368 2.60746 7.48142 2.88624C7.39914 3.30026 7.68048 3.72846 8.09228 3.816C8.28516 3.85698 23.1794 3.85698 23.3724 3.816C23.6646 3.75386 23.9166 3.49696 23.9784 3.1983C24.0634 2.78718 23.7894 2.35162 23.3918 2.26638C23.1878 2.22262 8.2022 2.2311 8.03874 2.27504ZM2.50434 9.0096C0.945062 9.29118-0.145698 10.7338 0.015846 12.3007C0.177059 13.8643 1.4703 15.0361 3.03418 15.0357C4.61056 15.0352 5.9097 13.8492 6.05662 12.2762C6.20316 10.7078 5.10578 9.2789 3.54704 9.00858C3.26592 8.95984 2.77726 8.9603 2.50434 9.0096ZM2.85876 10.5783C2.29228 10.631 1.79265 11.0665 1.6475 11.634C1.58328 11.8852 1.58328 12.1192 1.6475 12.3704C1.71439 12.6319 1.82454 12.8202 2.0286 13.0219C2.31664 13.3066 2.61988 13.4312 3.02446 13.4313C3.45142 13.4313 3.75134 13.3107 4.04566 13.0204C4.61076 12.4631 4.6162 11.5536 4.0577 10.9951C3.72568 10.6631 3.3501 10.5325 2.85876 10.5783ZM7.97588 11.2544C7.82036 11.3095 7.60666 11.5143 7.53508 11.6767C7.49036 11.7782 7.47588 11.8577 7.47588 12.0022C7.47588 12.2562 7.54674 12.4186 7.73082 12.5869C7.9796 12.8143 7.14384 12.7935 15.7711 12.7862L23.431 12.7797L23.5456 12.7202C23.8348 12.5702 23.9888 12.3209 23.9888 12.0022C23.9888 11.6835 23.8348 11.4342 23.5456 11.2842L23.431 11.2247L15.7578 11.2203C8.9664 11.2164 8.07216 11.2203 7.97588 11.2544ZM2.7313 17.9423C1.40288 18.0781 0.337456 19.0464 0.0531156 20.3764C-0.00658712 20.6556-0.00658712 21.2698 0.0531156 21.549C0.178384 22.135 0.438532 22.6368 0.8318 23.0508C1.78758 24.0572 3.3059 24.2914 4.50976 23.6182C5.30032 23.176 5.85192 22.4114 6.0215 21.5224C6.0787 21.2224 6.07912 20.705 6.02236 20.4076C5.72648 18.8571 4.29232 17.7828 2.7313 17.9423ZM2.67244 19.574C2.40492 19.6441 2.2484 19.7369 2.02346 19.959C1.8705 20.11 1.80581 20.197 1.73902 20.3418C1.59664 20.6506 1.5606 20.984 1.63529 21.3008C1.75523 21.8094 2.21002 22.2592 2.712 22.3656C3.22588 22.4746 3.68068 22.3402 4.04466 21.9722C4.266 21.7486 4.35646 21.5936 4.4271 21.3174C4.55654 20.8114 4.42192 20.3292 4.04634 19.9536C3.67044 19.5777 3.1779 19.4416 2.67244 19.574ZM8.07214 20.1906C7.79654 20.252 7.54112 20.5214 7.48272 20.8122C7.4009 21.2196 7.67722 21.6532 8.07276 21.738C8.24838 21.7756 23.2268 21.776 23.3928 21.7384C23.674 21.6746 23.9232 21.4092 23.9798 21.113C24.0596 20.6968 23.7828 20.2756 23.3724 20.1884C23.1934 20.1504 8.24332 20.1526 8.07214 20.1906Z" fill="#666666" fill-rule="evenodd" opacity="1" stroke="none"/>
</g>
</g>
</g>
</svg>
