<svg width="24" height="24" viewBox="0 0 24 24" fill="none" xmlns="http://www.w3.org/2000/svg">
<path d="M1.5 24C0.673 24 0 23.327 0 22.5V1.5C0 0.673 0.673 0 1.5 0H22.5C23.327 0 24 0.673 24 1.5V22.5C24 23.327 23.327 24 22.5 24H1.5ZM1 22.5C1 22.776 1.224 23 1.5 23H22.5C22.776 23 23 22.776 23 22.5V18H1V22.5ZM23 17V1.5C23 1.224 22.776 1 22.5 1H1.5C1.224 1 1 1.224 1 1.5V17H3.169C3.763 15.644 5.588 12 8 12C10.005 12 11.653 13.64 12.446 14.601L15.084 10.08C15.473 9.416 16.194 9.003 16.966 9.003C17.351 9.003 17.73 9.106 18.063 9.301C18.429 9.516 18.722 9.83 18.911 10.209L22.309 17H23ZM21.19 17L18.015 10.656C17.913 10.45 17.754 10.28 17.556 10.164C17.376 10.059 17.171 10.003 16.963 10.003C16.545 10.003 16.155 10.226 15.945 10.585L12.93 15.752C12.843 15.902 12.687 15.995 12.513 16H12.512C12.329 16 12.176 15.917 12.083 15.778C12.066 15.75 10.19 13 8 13C6.652 13 5.223 15.005 4.271 17H21.19Z" fill="black"/>
<path d="M6.50045 9C6.25445 9 6.01345 8.955 5.78345 8.867C4.75445 8.471 4.23945 7.311 4.63545 6.282C4.93045 5.515 5.68145 5 6.50345 5C6.56145 5 6.61845 5.003 6.67645 5.008C7.09145 3.819 8.22145 3.004 9.49945 3C11.1545 3 12.5005 4.346 12.5005 6C12.5005 7.654 11.1545 9 9.50045 9H6.50045ZM6.50345 6C6.09145 6 5.71645 6.258 5.56845 6.641C5.37045 7.156 5.62845 7.735 6.14345 7.933C6.25745 7.978 6.37745 8 6.50045 8H9.50045C10.6035 8 11.5005 7.103 11.5005 6C11.5005 4.897 10.6035 4 9.50145 4C8.51945 4.003 7.69145 4.71 7.53445 5.68C7.50945 5.829 7.42045 5.958 7.28945 6.033C7.21345 6.077 7.12745 6.1 7.04045 6.1C6.97845 6.1 6.91845 6.089 6.86145 6.067C6.74645 6.022 6.62545 6 6.50345 6Z" fill="black"/>
</svg>
