<svg width="14" height="12" viewBox="0 0 14 12" fill="none" xmlns="http://www.w3.org/2000/svg">
<path d="M2.85268 1.43304C2.85268 1.82589 2.71429 2.16071 2.4375 2.4375C2.16071 2.71429 1.82589 2.85268 1.43304 2.85268C1.03125 2.85268 0.691964 2.71429 0.415179 2.4375C0.138393 2.16071 0 1.82589 0 1.43304C0 1.03125 0.138393 0.691964 0.415179 0.415179C0.691964 0.138393 1.03125 0 1.43304 0C1.82589 0 2.16071 0.138393 2.4375 0.415179C2.71429 0.691964 2.85268 1.03125 2.85268 1.43304ZM4.86161 1.99554H13.1384C13.2991 1.99554 13.433 1.94196 13.5402 1.83482C13.6562 1.71875 13.7143 1.58482 13.7143 1.43304C13.7143 1.27232 13.6562 1.13839 13.5402 1.03125C13.433 0.915179 13.2991 0.857143 13.1384 0.857143H4.86161C4.70089 0.857143 4.5625 0.915179 4.44643 1.03125C4.33929 1.13839 4.28571 1.27232 4.28571 1.43304C4.28571 1.58482 4.33929 1.71875 4.44643 1.83482C4.5625 1.94196 4.70089 1.99554 4.86161 1.99554ZM2.85268 6C2.85268 6.39286 2.71429 6.73214 2.4375 7.01786C2.16071 7.29464 1.82589 7.43304 1.43304 7.43304C1.03125 7.43304 0.691964 7.29464 0.415179 7.01786C0.138393 6.73214 0 6.39286 0 6C0 5.60714 0.138393 5.27232 0.415179 4.99554C0.691964 4.70982 1.03125 4.56696 1.43304 4.56696C1.82589 4.56696 2.16071 4.70982 2.4375 4.99554C2.71429 5.27232 2.85268 5.60714 2.85268 6ZM13.1384 5.42411H4.86161C4.70089 5.42411 4.5625 5.48214 4.44643 5.59821C4.33929 5.70536 4.28571 5.83929 4.28571 6C4.28571 6.16071 4.33929 6.29911 4.44643 6.41518C4.5625 6.52232 4.70089 6.57589 4.86161 6.57589H13.1384C13.2991 6.57589 13.433 6.52232 13.5402 6.41518C13.6562 6.29911 13.7143 6.16071 13.7143 6C13.7143 5.83929 13.6562 5.70536 13.5402 5.59821C13.433 5.48214 13.2991 5.42411 13.1384 5.42411ZM2.85268 10.567C2.85268 10.9598 2.71429 11.2991 2.4375 11.5848C2.16071 11.8616 1.82589 12 1.43304 12C1.03125 12 0.691964 11.8616 0.415179 11.5848C0.138393 11.2991 0 10.9598 0 10.567C0 10.1741 0.138393 9.83928 0.415179 9.5625C0.691964 9.28571 1.03125 9.14732 1.43304 9.14732C1.82589 9.14732 2.16071 9.28571 2.4375 9.5625C2.71429 9.83928 2.85268 10.1741 2.85268 10.567ZM13.1384 10.0045H4.86161C4.70089 10.0045 4.5625 10.0625 4.44643 10.1786C4.33929 10.2857 4.28571 10.4152 4.28571 10.567C4.28571 10.7277 4.33929 10.8661 4.44643 10.9821C4.5625 11.0893 4.70089 11.1429 4.86161 11.1429H13.1384C13.2991 11.1429 13.433 11.0893 13.5402 10.9821C13.6562 10.8661 13.7143 10.7277 13.7143 10.567C13.7143 10.4152 13.6562 10.2857 13.5402 10.1786C13.433 10.0625 13.2991 10.0045 13.1384 10.0045Z" fill="#666666"/>
</svg>
