<svg width="24" height="24" viewBox="0 0 24 24" fill="none" xmlns="http://www.w3.org/2000/svg">
<path fill-rule="evenodd" clip-rule="evenodd" d="M12 24C18.6274 24 24 18.6274 24 12C24 5.37258 18.6274 0 12 0C5.37258 0 0 5.37258 0 12C0 18.6274 5.37258 24 12 24ZM18.6693 8.45508C18.9603 8.13029 18.9266 7.62958 18.5947 7.34672C18.2748 7.07408 17.796 7.10568 17.5147 7.41799L10.128 15.6197L6.43674 12.4512C6.11316 12.1735 5.6272 12.2041 5.34108 12.5203C5.04447 12.8481 5.07615 13.3559 5.4112 13.6443L9.52903 17.1888C9.94175 17.5441 10.5629 17.5038 10.9262 17.0982L18.6693 8.45508Z" fill="black"/>
</svg>
