<svg width="16" height="16" viewBox="0 0 16 16" fill="none" xmlns="http://www.w3.org/2000/svg">
<g clip-path="url(#clip0_2038_16866)">
<path fill-rule="evenodd" clip-rule="evenodd" d="M8 1.75C4.54822 1.75 1.75 4.54822 1.75 8C1.75 11.4518 4.54822 14.25 8 14.25C11.4518 14.25 14.25 11.4518 14.25 8C14.25 4.54822 11.4518 1.75 8 1.75ZM0.25 8C0.25 3.71979 3.71979 0.25 8 0.25C12.2802 0.25 15.75 3.71979 15.75 8C15.75 12.2802 12.2802 15.75 8 15.75C3.71979 15.75 0.25 12.2802 0.25 8Z" fill="black"/>
<path fill-rule="evenodd" clip-rule="evenodd" d="M11.3303 5.73028C11.6232 5.43739 11.6232 4.96251 11.3303 4.66962C11.0374 4.37673 10.5626 4.37673 10.2697 4.66962L8.00001 6.93929L5.73034 4.66962C5.43745 4.37673 4.96258 4.37673 4.66968 4.66962C4.37679 4.96251 4.37679 5.43739 4.66968 5.73028L6.93935 7.99995L4.66968 10.2696C4.37679 10.5625 4.37679 11.0374 4.66968 11.3303C4.96258 11.6232 5.43745 11.6232 5.73034 11.3303L8.00001 9.06061L10.2697 11.3303C10.5626 11.6232 11.0374 11.6232 11.3303 11.3303C11.6232 11.0374 11.6232 10.5625 11.3303 10.2696L9.06067 7.99995L11.3303 5.73028Z" fill="black"/>
</g>
<defs>
<clipPath id="clip0_2038_16866">
<rect width="16" height="16" fill="white"/>
</clipPath>
</defs>
</svg>
