<svg width="24" height="24" viewBox="0 0 24 24" fill="none" xmlns="http://www.w3.org/2000/svg">
<g clip-path="url(#clip0_4139_49164)">
<path d="M14.5 20.9541C14.431 20.9541 14.364 20.9401 14.301 20.9121C14.119 20.8351 14 20.6541 14 20.4541V15.9541H0.5C0.224 15.9541 0 15.7301 0 15.4541V8.4541C0 8.1781 0.224 7.9541 0.5 7.9541H14V3.4541C14 3.2541 14.119 3.0741 14.302 2.9951C14.365 2.9681 14.431 2.9541 14.5 2.9541C14.628 2.9541 14.75 3.0021 14.844 3.0901L23.844 11.5901C23.944 11.6841 24.001 11.8171 24.001 11.9541C24.001 12.0911 23.944 12.2241 23.844 12.3181L14.844 20.8181C14.75 20.9061 14.628 20.9541 14.5 20.9541ZM14.5 14.9541C14.776 14.9541 15 15.1781 15 15.4541V19.2941L22.772 11.9541L15 4.6141V8.4541C15 8.7301 14.776 8.9541 14.5 8.9541H1V14.9541H14.5Z" fill="black"/>
</g>
<defs>
<clipPath id="clip0_4139_49164">
<rect width="24" height="24" fill="white"/>
</clipPath>
</defs>
</svg>
