<svg width="24" height="24" viewBox="0 0 24 24" fill="none" xmlns="http://www.w3.org/2000/svg">
<path d="M6.9458 1.21875H17.0083" stroke="#9F9F9F" stroke-linecap="round" stroke-linejoin="round"/>
<path d="M15.5708 8.40625V1.21875H8.38332V8.40625L1.92702 18.3394C1.64515 18.773 1.48547 19.2746 1.46482 19.7914C1.44416 20.3082 1.56329 20.821 1.80965 21.2757C2.05601 21.7304 2.42047 22.1103 2.86463 22.3753C3.3088 22.6403 3.81621 22.7805 4.3334 22.7812H19.6169C20.1344 22.7812 20.6423 22.6414 21.087 22.3767C21.5317 22.112 21.8967 21.7323 22.1436 21.2774C22.3904 20.8225 22.5099 20.3095 22.4894 19.7924C22.4689 19.2753 22.3091 18.7733 22.0271 18.3394L15.5708 8.40625Z" stroke="#9F9F9F" stroke-linecap="round" stroke-linejoin="round"/>
<path d="M5.5802 12.7188H18.3739" stroke="#9F9F9F" stroke-linecap="round" stroke-linejoin="round"/>
<path d="M14.1333 17.0312H17.0083" stroke="#9F9F9F" stroke-linecap="round" stroke-linejoin="round"/>
<path d="M15.5708 15.5938V18.4688" stroke="#9F9F9F" stroke-linecap="round" stroke-linejoin="round"/>
<path d="M15.5708 4.09375H12.6958" stroke="#9F9F9F" stroke-linecap="round" stroke-linejoin="round"/>
<path d="M15.5708 6.96875H12.6958" stroke="#9F9F9F" stroke-linecap="round" stroke-linejoin="round"/>
<path d="M6.9458 19.5469C6.74733 19.5469 6.58643 19.386 6.58643 19.1875C6.58643 18.989 6.74733 18.8281 6.9458 18.8281" stroke="#9F9F9F"/>
<path d="M6.9458 19.5469C7.14428 19.5469 7.30518 19.386 7.30518 19.1875C7.30518 18.989 7.14428 18.8281 6.9458 18.8281" stroke="#9F9F9F"/>
<path d="M9.8208 16.6719C9.62233 16.6719 9.46143 16.511 9.46143 16.3125C9.46143 16.114 9.62233 15.9531 9.8208 15.9531" stroke="#9F9F9F"/>
<path d="M9.8208 16.6719C10.0193 16.6719 10.1802 16.511 10.1802 16.3125C10.1802 16.114 10.0193 15.9531 9.8208 15.9531" stroke="#9F9F9F"/>
</svg>
