<svg width="404" height="311" viewBox="0 0 404 311" fill="none" xmlns="http://www.w3.org/2000/svg">
<g filter="url(#filter0_d_4730_49101)">
<rect x="5" y="5" width="393" height="300" rx="10" fill="white"/>
</g>
<mask id="mask0_4730_49101" style="mask-type:alpha" maskUnits="userSpaceOnUse" x="5" y="5" width="393" height="300">
<rect x="5" y="5" width="393" height="300" rx="10" fill="#C4C4C4"/>
</mask>
<g mask="url(#mask0_4730_49101)">
<g filter="url(#filter1_d_4730_49101)">
<path d="M399 5H14.9998C9.47692 5 4.99976 9.47715 4.99976 15V295C4.99976 300.523 9.47691 305 14.9998 305H399V5Z" fill="white"/>
</g>
<path d="M375.906 52.0585L377.271 56.2604L377.383 56.6058H377.747H382.165L378.59 59.2028L378.297 59.4163L378.409 59.7618L379.774 63.9637L376.2 61.3668L375.906 61.1532L375.612 61.3668L372.038 63.9637L373.403 59.7618L373.515 59.4163L373.221 59.2028L369.647 56.6058H374.065H374.428L374.541 56.2604L375.906 52.0585Z" stroke="#C4C4C4"/>
<rect x="84.3411" y="44.085" width="220.464" height="7.28808" rx="3.64404" fill="#C4C4C4"/>
<rect x="84.3411" y="19.4873" width="69.2366" height="12.7541" rx="6.37706" fill="#9F9F9F"/>
<rect x="84.3411" y="58.6611" width="149.772" height="7.28808" rx="3.64404" fill="#C4C4C4"/>
<rect x="344.89" y="22.2207" width="37.3513" height="7.28806" rx="3.64403" fill="#C4C4C4"/>
<circle cx="51.6279" cy="34.0634" r="14.5761" fill="#FC8878"/>
<mask id="mask1_4730_49101" style="mask-type:alpha" maskUnits="userSpaceOnUse" x="37" y="19" width="30" height="30">
<circle cx="51.6276" cy="34.0634" r="14.5761" fill="#FFA82C"/>
</mask>
<g mask="url(#mask1_4730_49101)">
<path fill-rule="evenodd" clip-rule="evenodd" d="M51.4998 37C54.5373 37 56.9998 34.5376 56.9998 31.5C56.9998 28.4624 54.5373 26 51.4998 26C48.4622 26 45.9998 28.4624 45.9998 31.5C45.9998 34.5376 48.4622 37 51.4998 37ZM41.9998 48C42.0058 42.7558 46.2556 38.5061 51.4998 38.5C56.7439 38.5061 60.9937 42.7558 60.9998 48C60.9998 48.2761 60.7759 48.5 60.4998 48.5H42.4998C42.2236 48.5 41.9998 48.2761 41.9998 48Z" fill="#4051B5"/>
</g>
<path d="M375.906 129.571L377.271 133.773L377.383 134.119H377.747H382.165L378.59 136.715L378.297 136.929L378.409 137.274L379.774 141.476L376.2 138.879L375.906 138.666L375.612 138.879L372.038 141.476L373.403 137.274L373.515 136.929L373.221 136.715L369.647 134.119H374.065H374.428L374.541 133.773L375.906 129.571Z" stroke="#C4C4C4"/>
<rect x="84.3411" y="121.598" width="220.464" height="7.28808" rx="3.64404" fill="#C4C4C4"/>
<rect x="84.3411" y="97" width="69.2366" height="12.7541" rx="6.37706" fill="#9F9F9F"/>
<rect x="84.3411" y="136.174" width="149.772" height="7.28808" rx="3.64404" fill="#C4C4C4"/>
<rect x="344.89" y="99.7334" width="37.3513" height="7.28806" rx="3.64403" fill="#C4C4C4"/>
<circle cx="51.6279" cy="111.576" r="14.5761" fill="#78D383"/>
<mask id="mask2_4730_49101" style="mask-type:alpha" maskUnits="userSpaceOnUse" x="37" y="97" width="30" height="30">
<circle cx="51.6276" cy="111.576" r="14.5761" fill="#78D383"/>
</mask>
<g mask="url(#mask2_4730_49101)">
<path fill-rule="evenodd" clip-rule="evenodd" d="M51.4998 115C54.5373 115 56.9998 112.538 56.9998 109.5C56.9998 106.462 54.5373 104 51.4998 104C48.4622 104 45.9998 106.462 45.9998 109.5C45.9998 112.538 48.4622 115 51.4998 115ZM41.9998 126C42.0058 120.756 46.2556 116.506 51.4998 116.5C56.7439 116.506 60.9937 120.756 60.9998 126C60.9998 126.276 60.7759 126.5 60.4998 126.5H42.4998C42.2236 126.5 41.9998 126.276 41.9998 126Z" fill="#275F86"/>
</g>
<path d="M375.906 207.571L377.271 211.773L377.383 212.119H377.747H382.165L378.59 214.715L378.297 214.929L378.409 215.274L379.774 219.476L376.2 216.879L375.906 216.666L375.612 216.879L372.038 219.476L373.403 215.274L373.515 214.929L373.221 214.715L369.647 212.119H374.065H374.428L374.541 211.773L375.906 207.571Z" stroke="#C4C4C4"/>
<rect x="84.3411" y="199.598" width="220.464" height="7.28808" rx="3.64404" fill="#C4C4C4"/>
<rect x="84.3411" y="175" width="69.2366" height="12.7541" rx="6.37706" fill="#9F9F9F"/>
<rect x="84.3411" y="214.174" width="149.772" height="7.28808" rx="3.64404" fill="#C4C4C4"/>
<rect x="344.89" y="177.733" width="37.3513" height="7.28806" rx="3.64403" fill="#C4C4C4"/>
<circle cx="51.6279" cy="189.576" r="14.5761" fill="#FFAA4C"/>
<mask id="mask3_4730_49101" style="mask-type:alpha" maskUnits="userSpaceOnUse" x="37" y="175" width="30" height="30">
<circle cx="51.6276" cy="189.576" r="14.5761" fill="#FFAA4C"/>
</mask>
<g mask="url(#mask3_4730_49101)">
<path fill-rule="evenodd" clip-rule="evenodd" d="M51.4998 193C54.5373 193 56.9998 190.538 56.9998 187.5C56.9998 184.462 54.5373 182 51.4998 182C48.4622 182 45.9998 184.462 45.9998 187.5C45.9998 190.538 48.4622 193 51.4998 193ZM41.9998 204C42.0058 198.756 46.2556 194.506 51.4998 194.5C56.7439 194.506 60.9937 198.756 60.9998 204C60.9998 204.276 60.7759 204.5 60.4998 204.5H42.4998C42.2236 204.5 41.9998 204.276 41.9998 204Z" fill="#B92D5C"/>
</g>
<path d="M375.906 285.571L377.271 289.773L377.383 290.119H377.747H382.165L378.59 292.715L378.297 292.929L378.409 293.274L379.774 297.476L376.2 294.879L375.906 294.666L375.612 294.879L372.038 297.476L373.403 293.274L373.515 292.929L373.221 292.715L369.647 290.119H374.065H374.428L374.541 289.773L375.906 285.571Z" stroke="#C4C4C4"/>
<rect x="84.3411" y="277.598" width="220.464" height="7.28808" rx="3.64404" fill="#C4C4C4"/>
<rect x="84.3411" y="253" width="69.2366" height="12.7541" rx="6.37706" fill="#9F9F9F"/>
<rect x="84.3411" y="292.174" width="149.772" height="7.28808" rx="3.64404" fill="#C4C4C4"/>
<rect x="344.89" y="255.733" width="37.3513" height="7.28806" rx="3.64403" fill="#C4C4C4"/>
<circle cx="51.6279" cy="267.576" r="14.5761" fill="#C595CD"/>
<mask id="mask4_4730_49101" style="mask-type:alpha" maskUnits="userSpaceOnUse" x="37" y="253" width="30" height="30">
<circle cx="51.6276" cy="267.576" r="14.5761" fill="#C595CD"/>
</mask>
<g mask="url(#mask4_4730_49101)">
<path fill-rule="evenodd" clip-rule="evenodd" d="M51.4998 271C54.5373 271 56.9998 268.538 56.9998 265.5C56.9998 262.462 54.5373 260 51.4998 260C48.4622 260 45.9998 262.462 45.9998 265.5C45.9998 268.538 48.4622 271 51.4998 271ZM41.9998 282C42.0058 276.756 46.2556 272.506 51.4998 272.5C56.7439 272.506 60.9937 276.756 60.9998 282C60.9998 282.276 60.7759 282.5 60.4998 282.5H42.4998C42.2236 282.5 41.9998 282.276 41.9998 282Z" fill="#006AB3"/>
</g>
</g>
<defs>
<filter id="filter0_d_4730_49101" x="0.5" y="0.5" width="403" height="310" filterUnits="userSpaceOnUse" color-interpolation-filters="sRGB">
<feFlood flood-opacity="0" result="BackgroundImageFix"/>
<feColorMatrix in="SourceAlpha" type="matrix" values="0 0 0 0 0 0 0 0 0 0 0 0 0 0 0 0 0 0 127 0" result="hardAlpha"/>
<feOffset dx="0.5" dy="0.5"/>
<feGaussianBlur stdDeviation="2.5"/>
<feComposite in2="hardAlpha" operator="out"/>
<feColorMatrix type="matrix" values="0 0 0 0 0 0 0 0 0 0 0 0 0 0 0 0 0 0 0.1 0"/>
<feBlend mode="normal" in2="BackgroundImageFix" result="effect1_dropShadow_4730_49101"/>
<feBlend mode="normal" in="SourceGraphic" in2="effect1_dropShadow_4730_49101" result="shape"/>
</filter>
<filter id="filter1_d_4730_49101" x="1.99976" y="3" width="400" height="306" filterUnits="userSpaceOnUse" color-interpolation-filters="sRGB">
<feFlood flood-opacity="0" result="BackgroundImageFix"/>
<feColorMatrix in="SourceAlpha" type="matrix" values="0 0 0 0 0 0 0 0 0 0 0 0 0 0 0 0 0 0 127 0" result="hardAlpha"/>
<feOffset dy="1"/>
<feGaussianBlur stdDeviation="1.5"/>
<feComposite in2="hardAlpha" operator="out"/>
<feColorMatrix type="matrix" values="0 0 0 0 0 0 0 0 0 0 0 0 0 0 0 0 0 0 0.33 0"/>
<feBlend mode="normal" in2="BackgroundImageFix" result="effect1_dropShadow_4730_49101"/>
<feBlend mode="normal" in="SourceGraphic" in2="effect1_dropShadow_4730_49101" result="shape"/>
</filter>
</defs>
</svg>
