<svg width="24" height="25" viewBox="0 0 24 25" fill="none" xmlns="http://www.w3.org/2000/svg">
<g clip-path="url(#clip0_3268_48897)">
<path d="M14.5 20.9727C14.431 20.9727 14.364 20.9587 14.301 20.9307C14.119 20.8537 14 20.6727 14 20.4727V15.9727H0.5C0.224 15.9727 0 15.7487 0 15.4727V8.47266C0 8.19666 0.224 7.97266 0.5 7.97266H14V3.47266C14 3.27266 14.119 3.09266 14.302 3.01366C14.365 2.98666 14.431 2.97266 14.5 2.97266C14.628 2.97266 14.75 3.02066 14.844 3.10866L23.844 11.6087C23.944 11.7027 24.001 11.8357 24.001 11.9727C24.001 12.1097 23.944 12.2427 23.844 12.3367L14.844 20.8367C14.75 20.9247 14.628 20.9727 14.5 20.9727ZM14.5 14.9727C14.776 14.9727 15 15.1967 15 15.4727V19.3127L22.772 11.9727L15 4.63266V8.47266C15 8.74866 14.776 8.97266 14.5 8.97266H1V14.9727H14.5Z" fill="#0098FF"/>
</g>
<defs>
<clipPath id="clip0_3268_48897">
<rect width="24" height="24" fill="white" transform="translate(0 0.0185547)"/>
</clipPath>
</defs>
</svg>
