<svg width="225" height="51" viewBox="0 0 225 51" fill="none" xmlns="http://www.w3.org/2000/svg">
<rect width="225" height="43" rx="4" fill="#362B45"/>
<rect x="35" y="8" width="172" height="6" fill="#8068A1"/>
<rect x="35" y="18" width="172" height="6" fill="#A897BE"/>
<rect x="35" y="28" width="137" height="6" fill="#C2B7D2"/>
<rect x="181" y="35" width="35" height="16" rx="2" fill="#BF99FF"/>
<path d="M186.298 38.3H189.574C191.158 38.3 192.706 38.732 192.706 40.52C192.706 41.336 192.25 42.068 191.734 42.38C192.454 42.704 193.042 43.268 193.042 44.42C193.042 46.292 191.566 47 189.79 47H186.298V38.3ZM187.822 41.936H189.718C190.606 41.936 191.158 41.54 191.158 40.688C191.158 39.92 190.582 39.524 189.718 39.524H187.822V41.936ZM187.822 45.776H189.85C190.93 45.776 191.47 45.284 191.47 44.42C191.47 43.532 190.93 43.1 189.766 43.1H187.822V45.776ZM195.484 44.18C195.58 45.38 196.42 45.968 197.236 45.968C197.98 45.968 198.568 45.668 198.82 45.068H200.224C199.924 46.1 198.964 47.156 197.296 47.156C195.22 47.156 194.032 45.572 194.032 43.724C194.032 41.78 195.364 40.4 197.2 40.4C199.18 40.4 200.416 42.008 200.296 44.18H195.484ZM195.484 43.136H198.844C198.808 42.128 198.04 41.516 197.2 41.516C196.528 41.516 195.604 41.912 195.484 43.136ZM201.676 38.84H203.104V40.544H204.4V41.576H203.104V45.092C203.104 45.752 203.26 45.908 203.872 45.908H204.388V47H203.332C201.952 47 201.676 46.628 201.676 45.308V41.576H200.716V40.544H201.676V38.84ZM205.166 45.224C205.166 43.616 207.146 43.208 209.51 42.968V42.848C209.51 41.744 208.874 41.408 208.166 41.408C207.446 41.408 206.906 41.792 206.87 42.572H205.466C205.562 41.252 206.654 40.352 208.214 40.352C209.762 40.352 210.974 41.06 210.938 43.124C210.938 43.448 210.914 44.204 210.914 44.792C210.914 45.608 210.986 46.46 211.106 47H209.798C209.75 46.724 209.702 46.568 209.678 46.124C209.27 46.82 208.502 47.156 207.554 47.156C206.15 47.156 205.166 46.4 205.166 45.224ZM209.546 43.964C207.506 44.156 206.678 44.444 206.678 45.188C206.678 45.752 207.146 46.088 207.866 46.088C208.922 46.088 209.546 45.548 209.546 44.456V43.964Z" fill="#1A1A1A"/>
<path d="M25.2526 9.07031C25.2526 10.5537 26.45 11.7512 27.9334 11.7512C26.45 11.7512 25.2526 12.9486 25.2526 14.432C25.2526 12.9486 24.0551 11.7512 22.5717 11.7512C24.0551 11.7512 25.2526 10.5537 25.2526 9.07031Z" stroke="#BF99FF" stroke-width="1.5" stroke-linecap="round" stroke-linejoin="round"/>
<path d="M20 11.75H10.25C9.42157 11.75 8.75 12.4216 8.75 13.25V26.75C8.75 27.5784 9.42157 28.25 10.25 28.25H23.75C24.5784 28.25 25.25 27.5784 25.25 26.75V17" stroke="#BF99FF" stroke-width="1.5" stroke-linecap="round"/>
<path d="M19.25 16.25L19.25 19.25" stroke="#BF99FF" stroke-width="1.8" stroke-linecap="round"/>
<path d="M14.75 16.25L14.75 19.25" stroke="#BF99FF" stroke-width="1.8" stroke-linecap="round"/>
<path d="M13.1797 22.25H17.0002H20.8208C20.8208 24.2818 19.1737 25.9289 17.1419 25.9289H16.8586C14.8268 25.9289 13.1797 24.2818 13.1797 22.25Z" fill="#BF99FF"/>
<path d="M23.2992 21.5016C23.2992 21.9986 22.8962 22.4016 22.3992 22.4016C21.9021 22.4016 21.4992 21.9986 21.4992 21.5016C21.4992 21.0045 21.9021 20.6016 22.3992 20.6016C22.8962 20.6016 23.2992 21.0045 23.2992 21.5016Z" fill="#BF99FF"/>
<path d="M12.4995 21.5015C12.4995 21.9986 12.0966 22.4015 11.5995 22.4015C11.1025 22.4015 10.6995 21.9986 10.6995 21.5015C10.6995 21.0045 11.1025 20.6015 11.5995 20.6015C12.0966 20.6015 12.4995 21.0045 12.4995 21.5015Z" fill="#BF99FF"/>
</svg>
