<svg width="112" height="80" viewBox="0 0 112 80" fill="none" xmlns="http://www.w3.org/2000/svg">
<rect x="0.25" y="30.6404" width="75.1757" height="49.1096" rx="5.75001" fill="#FAFAFA" stroke="#9F9F9F" stroke-width="0.5"/>
<path d="M40.4617 52.04L68.7568 79.75L6.9189 79.75L35.214 52.04C36.6719 50.6123 39.0038 50.6123 40.4617 52.04Z" fill="#FAFAFA" stroke="#9F9F9F" stroke-width="0.5"/>
<path d="M35.2141 58.3504L6.91892 30.6404H68.7568L40.4617 58.3504C39.0038 59.7781 36.6719 59.7781 35.2141 58.3504Z" fill="#F1F1F1" stroke="#9F9F9F" stroke-width="0.5"/>
<path d="M79.647 42.9846L84.5078 35.3472L110.968 52.5339C112.012 53.2119 112.314 54.6164 111.643 55.6709L109.213 59.4897C108.541 60.5442 107.151 60.8494 106.107 60.1714L79.647 42.9846Z" fill="#0098FF"/>
<path fill-rule="evenodd" clip-rule="evenodd" d="M84.6765 36.1309L80.4233 42.8137L106.411 59.6936C107.194 60.2021 108.237 59.9731 108.74 59.1823L111.17 55.3635C111.674 54.5726 111.447 53.5193 110.664 53.0108L84.6765 36.1309ZM79.647 42.9841L106.107 60.1709C107.151 60.8489 108.541 60.5437 109.213 59.4892L111.643 55.6704C112.314 54.6159 112.012 53.2115 110.968 52.5335L84.5078 35.3467L79.647 42.9841Z" fill="#0098FF"/>
<path fill-rule="evenodd" clip-rule="evenodd" d="M87.7472 42.8488C95.9686 29.9311 92.2675 12.7262 79.4805 4.42074C66.6936 -3.88475 49.6631 -0.145768 41.4417 12.772C33.2203 25.6898 36.9214 42.8946 49.7084 51.2001C62.4953 59.5056 79.5258 55.7666 87.7472 42.8488ZM82.0771 39.1662C88.2851 29.412 85.4904 16.4206 75.835 10.1491C66.1795 3.87756 53.3197 6.70088 47.1117 16.4551C40.9038 26.2093 43.6985 39.2007 53.3539 45.4722C63.0093 51.7437 75.8692 48.9204 82.0771 39.1662Z" fill="#0098FF"/>
<path fill-rule="evenodd" clip-rule="evenodd" d="M87.2746 42.5419C95.3282 29.8878 91.7026 13.0341 79.1767 4.89808C66.6507 -3.23791 49.9677 0.424768 41.9141 13.0789C33.8606 25.733 37.4861 42.5868 50.0121 50.7227C62.538 58.8587 79.2211 55.1961 87.2746 42.5419ZM76.1387 9.67172C86.0551 16.1127 88.9253 29.4552 82.5496 39.4731C76.1738 49.491 62.9664 52.3906 53.0501 45.9496C43.1337 39.5086 40.2634 26.1661 46.6392 16.1482C53.0149 6.13034 66.2223 3.23072 76.1387 9.67172ZM79.4805 4.42074C92.2674 12.7262 95.9685 29.9311 87.7472 42.8488C79.5258 55.7666 62.4952 59.5056 49.7083 51.2001C36.9214 42.8946 33.2203 25.6898 41.4416 12.772C49.663 -0.145767 66.6936 -3.88475 79.4805 4.42074ZM75.8349 10.1491C85.4903 16.4206 88.285 29.412 82.0771 39.1662C75.8691 48.9204 63.0093 51.7437 53.3539 45.4722C43.6984 39.2007 40.9037 26.2093 47.1117 16.4551C53.3197 6.70088 66.1795 3.87756 75.8349 10.1491Z" fill="#0098FF"/>
</svg>
