<svg width="113" height="80" viewBox="0 0 113 80" fill="none" xmlns="http://www.w3.org/2000/svg">
<rect x="0.781493" y="32.1562" width="72.4275" height="47.211" rx="7.34369" fill="#FAFAFA" stroke="#9F9F9F" stroke-width="0.312498"/>
<path d="M40.3783 53.4628L66.9197 79.3672L7.07059 79.3672L33.612 53.4628C35.4936 51.6263 38.4967 51.6263 40.3783 53.4628Z" fill="#FAFAFA" stroke="#9F9F9F" stroke-width="0.312498"/>
<path d="M33.6122 58.0606L7.07081 32.1562H66.9199L40.3785 58.0606C38.4969 59.8971 35.4938 59.8971 33.6122 58.0606Z" fill="#F1F1F1" stroke="#9F9F9F" stroke-width="0.312498"/>
<path d="M78.0686 45.2748L83.2228 37.2305L111.28 55.333C112.387 56.0471 112.708 57.5264 111.996 58.6371L109.419 62.6593C108.707 63.77 107.233 64.0915 106.126 63.3773L78.0686 45.2748Z" fill="#0098FF"/>
<path fill-rule="evenodd" clip-rule="evenodd" d="M83.4017 38.0558L78.8918 45.0946L106.448 62.8738C107.278 63.4094 108.384 63.1683 108.918 62.3353L111.495 58.3131C112.029 57.4801 111.788 56.3706 110.958 55.835L83.4017 38.0558ZM78.0686 45.2741L106.126 63.3766C107.233 64.0907 108.707 63.7692 109.419 62.6586L111.996 58.6364C112.708 57.5257 112.387 56.0464 111.28 55.3322L83.2228 37.2297L78.0686 45.2741Z" fill="#0098FF"/>
<path fill-rule="evenodd" clip-rule="evenodd" d="M86.6579 45.1319C95.3755 31.5258 91.451 13.4043 77.8922 4.65629C64.3334 -4.09173 46.2748 -0.153534 37.5571 13.4525C28.8395 27.0585 32.764 45.1801 46.3228 53.9281C59.8816 62.6761 77.9402 58.7379 86.6579 45.1319ZM80.6455 41.253C87.2282 30.9791 84.2648 17.2955 74.0265 10.6898C63.7882 4.08416 50.1521 7.05791 43.5694 17.3318C36.9867 27.6058 39.9501 41.2894 50.1884 47.8951C60.4267 54.5007 74.0628 51.527 80.6455 41.253Z" fill="#0098FF"/>
<path fill-rule="evenodd" clip-rule="evenodd" d="M86.1568 44.8086C94.6966 31.4803 90.8521 13.7285 77.57 5.15906C64.288 -3.41043 46.5979 0.447399 38.0581 13.7758C29.5184 27.1041 33.3628 44.8558 46.6449 53.4253C59.927 61.9948 77.6171 58.137 86.1568 44.8086ZM74.3487 10.187C84.8636 16.9712 87.9071 31.0246 81.1465 41.5763C74.3859 52.1279 60.3813 55.182 49.8663 48.3978C39.3513 41.6136 36.3078 27.5602 43.0684 17.0086C49.829 6.45697 63.8337 3.40286 74.3487 10.187ZM77.8922 4.65629C91.451 13.4043 95.3755 31.5258 86.6579 45.1319C77.9402 58.7379 59.8816 62.6761 46.3228 53.9281C32.764 45.1801 28.8395 27.0585 37.5571 13.4525C46.2748 -0.153534 64.3334 -4.09173 77.8922 4.65629ZM74.0265 10.6898C84.2648 17.2955 87.2282 30.9791 80.6455 41.253C74.0628 51.527 60.4267 54.5007 50.1884 47.8951C39.9501 41.2894 36.9867 27.6058 43.5694 17.3318C50.1521 7.05791 63.7882 4.08416 74.0265 10.6898Z" fill="#0098FF"/>
</svg>
