<svg width="113" height="80" viewBox="0 0 113 80" fill="none" xmlns="http://www.w3.org/2000/svg">
<rect x="0.906249" y="32.1562" width="72.4275" height="47.211" rx="7.34369" fill="#666666" stroke="#E0E0E0" stroke-width="0.312498"/>
<path d="M67.4283 79.5234L40.6123 53.351C38.67 51.4553 35.57 51.4553 33.6277 53.351L6.81168 79.5234" stroke="#E0E0E0" stroke-width="0.312498"/>
<path d="M33.7369 58.0606L7.19556 32.1562H67.0446L40.5033 58.0606C38.6217 59.8971 35.6185 59.8971 33.7369 58.0606Z" fill="#333333" stroke="#E0E0E0" stroke-width="0.312498"/>
<path d="M77.9438 45.2748L83.098 37.2305L111.156 55.333C112.262 56.0471 112.583 57.5264 111.871 58.6371L109.294 62.6593C108.582 63.77 107.108 64.0915 106.001 63.3773L77.9438 45.2748Z" fill="#4CB7FF"/>
<path fill-rule="evenodd" clip-rule="evenodd" d="M83.2769 38.0558L78.767 45.0946L106.324 62.8738C107.154 63.4094 108.259 63.1683 108.793 62.3353L111.37 58.3131C111.904 57.4801 111.664 56.3706 110.833 55.835L83.2769 38.0558ZM77.9438 45.2741L106.001 63.3766C107.108 64.0907 108.582 63.7692 109.294 62.6586L111.871 58.6364C112.583 57.5257 112.262 56.0464 111.156 55.3322L83.098 37.2297L77.9438 45.2741Z" fill="#4CB7FF"/>
<path fill-rule="evenodd" clip-rule="evenodd" d="M86.5331 45.1319C95.2507 31.5258 91.3262 13.4043 77.7674 4.65629C64.2086 -4.09173 46.15 -0.153534 37.4324 13.4525C28.7147 27.0585 32.6392 45.1801 46.198 53.9281C59.7568 62.6761 77.8154 58.7379 86.5331 45.1319ZM80.5207 41.253C87.1035 30.9791 84.14 17.2955 73.9018 10.6898C63.6635 4.08416 50.0274 7.05791 43.4447 17.3318C36.862 27.6058 39.8254 41.2894 50.0637 47.8951C60.3019 54.5007 73.938 51.527 80.5207 41.253Z" fill="#4CB7FF"/>
<path fill-rule="evenodd" clip-rule="evenodd" d="M86.0321 44.8086C94.5718 31.4803 90.7274 13.7285 77.4453 5.15906C64.1632 -3.41043 46.4731 0.447399 37.9334 13.7758C29.3936 27.1041 33.2381 44.8558 46.5202 53.4253C59.8023 61.9948 77.4923 58.137 86.0321 44.8086ZM74.2239 10.187C84.7389 16.9712 87.7824 31.0246 81.0218 41.5763C74.2611 52.1279 60.2565 55.182 49.7415 48.3978C39.2265 41.6136 36.183 27.5602 42.9436 17.0086C49.7043 6.45697 63.7089 3.40286 74.2239 10.187ZM77.7674 4.65629C91.3262 13.4043 95.2507 31.5258 86.5331 45.1319C77.8154 58.7379 59.7568 62.6761 46.198 53.9281C32.6392 45.1801 28.7147 27.0585 37.4324 13.4525C46.15 -0.153534 64.2086 -4.09173 77.7674 4.65629ZM73.9018 10.6898C84.14 17.2955 87.1035 30.9791 80.5207 41.253C73.938 51.527 60.3019 54.5007 50.0637 47.8951C39.8254 41.2894 36.862 27.6058 43.4447 17.3318C50.0274 7.05791 63.6635 4.08416 73.9018 10.6898Z" fill="#4CB7FF"/>
</svg>
