<?xml version="1.0" encoding="UTF-8" standalone="no"?>
<!DOCTYPE svg PUBLIC "-//W3C//DTD SVG 1.1//EN" "http://www.w3.org/Graphics/SVG/1.1/DTD/svg11.dtd">
<!-- Created with Vectornator (http://vectornator.io/) -->
<svg height="100%" stroke-miterlimit="10" style="fill-rule:nonzero;clip-rule:evenodd;stroke-linecap:round;stroke-linejoin:round;" version="1.1" viewBox="0 0 24 24" width="100%" xml:space="preserve" xmlns="http://www.w3.org/2000/svg" xmlns:xlink="http://www.w3.org/1999/xlink">
<defs/>
<g id="Sans-titre">
<g opacity="1">
<clipPath clip-rule="nonzero" id="ClipPath">
<path d="M0 0L24 0L24 0L24 24L24 24L0 24L0 24L0 0L0 0Z"/>
</clipPath>
<g clip-path="url(#ClipPath)">
<path d="M0.573827 0.0334548C0.0647506 0.17775-0.163873 0.797129 0.12981 1.23641C0.238768 1.39941 22.6541 23.7978 22.7945 23.8842C22.9359 23.971 23.1643 24.011 23.3347 23.9786C23.5683 23.9344 23.7331 23.8262 23.8611 23.6336C24.0295 23.3802 24.0355 23.0294 23.8759 22.7826C23.8343 22.7182 18.7262 17.5949 12.5248 11.3976C3.20314 2.08215 1.22867 0.1207 1.1291 0.0770773C0.977437 0.0106243 0.724493-0.00925052 0.573827 0.0334548ZM5.05954 0.0353148C4.61074 0.156296 4.36384 0.646029 4.52906 1.08743C4.59474 1.26289 4.7767 1.4561 4.95282 1.53741L5.07352 1.59314L8.44502 1.59997C11.4423 1.60603 11.8165 1.6111 11.8165 1.64553C11.8165 1.66685 11.6436 2.97665 11.4323 4.55623C11.1471 6.68703 11.0519 7.46377 11.0633 7.56619C11.0948 7.84953 11.3381 8.14309 11.6058 8.22087C11.7989 8.27701 12.0478 8.26005 12.207 8.17995C12.3546 8.10565 12.5171 7.93581 12.5829 7.78715C12.6182 7.70743 12.7363 6.88641 13.0271 4.69957C13.245 3.06109 13.4291 1.69475 13.4362 1.66321L13.4491 1.60588L17.2917 1.60626C21.5451 1.60667 21.2961 1.59711 21.6309 1.77298C21.9427 1.93674 22.2417 2.29837 22.3461 2.63783C22.3649 2.69911 22.3837 2.98863 22.3933 3.36403C22.4089 3.98171 22.4097 3.98983 22.4805 4.13389C22.7225 4.62617 23.3695 4.73789 23.7539 4.35371C23.9617 4.14605 23.9857 4.06419 23.9977 3.52459C24.0099 2.97395 23.9751 2.57339 23.8867 2.24379C23.5695 1.062 22.5393 0.178897 21.3007 0.0270846C20.9655-0.0140153 5.2129-0.00603992 5.05954 0.0353148ZM10.3968 15.0587C10.1525 15.1821 10.0136 15.3684 9.9595 15.6456C9.94446 15.7227 9.7344 17.2732 9.4927 19.0912L9.05326 22.3968L7.0634 22.4036L5.07352 22.4106L4.92786 22.4822C4.56348 22.661 4.38302 23.0996 4.5227 23.467C4.62392 23.7334 4.85052 23.9252 5.12452 23.9768C5.23552 23.9978 6.53248 24.0036 9.85352 23.998L14.4296 23.9904L14.5739 23.9196C14.7327 23.8416 14.8679 23.7074 14.957 23.5392C15.0419 23.3792 15.0416 23.0206 14.9564 22.8566C14.8727 22.6952 14.712 22.5384 14.5596 22.4694L14.4296 22.4106L12.5494 22.4036C11.5154 22.3998 10.6693 22.3938 10.6693 22.3906C10.6693 22.3872 10.8643 20.9228 11.1027 19.1364C11.3411 17.35 11.5361 15.8184 11.5361 15.7328C11.5361 15.6104 11.5195 15.5441 11.4584 15.4219C11.3162 15.1375 11.1059 15.005 10.7713 14.9892C10.5689 14.9796 10.5442 14.9842 10.3968 15.0587Z" fill="#666666" fill-rule="evenodd" opacity="1" stroke="none"/>
</g>
</g>
</g>
</svg>
