<svg width="348" height="195" viewBox="0 0 348 195" fill="none" xmlns="http://www.w3.org/2000/svg">
<path d="M273.561 126.278C270.123 123.734 265.277 124.457 262.732 127.893C260.188 131.329 260.911 136.177 264.349 138.722C267.784 141.267 272.633 140.543 275.177 137.106C277.722 133.671 276.998 128.822 273.561 126.278Z" fill="#BD95A7"/>
<path d="M260.86 143.429C259.451 142.386 257.462 142.684 256.417 144.092C255.376 145.501 255.671 147.491 257.081 148.534C258.49 149.578 260.481 149.281 261.524 147.871C262.568 146.462 262.271 144.471 260.86 143.429Z" fill="#BD95A7"/>
<path d="M308.395 48.5576C286.521 48.5576 268.79 66.2889 268.79 88.1622C268.79 110.036 286.521 127.765 308.395 127.765C330.268 127.765 348 110.036 348 88.1622C348 66.2889 330.268 48.5576 308.395 48.5576Z" fill="#F5F5F5"/>
<path d="M325.184 95.4081L325.131 95.4415C325.131 95.4292 325.133 95.4186 325.133 95.4081C323.969 95.0522 319.222 92.9062 318.02 92.0764L298.772 91.7998C297.56 92.8939 292.873 95.0416 291.739 95.3781C291.742 95.3834 291.744 95.3869 291.746 95.3922C286.533 96.9603 281.363 102.706 281.363 108.412L282.024 117.697C289.027 123.955 298.265 127.764 308.397 127.764C318.568 127.764 327.839 123.927 334.853 117.625L335.509 108.412C335.509 102.727 330.369 96.992 325.184 95.4081Z" fill="#BD95A7"/>
<path d="M298.771 91.8009C300.623 89.8928 301.442 89.669 301.442 83.5642C301.442 77.4612 316.032 77.3854 316.032 83.5642C316.032 89.7448 316.367 90.964 318.018 92.0775C318.018 92.0775 318.393 99.2112 308.444 99.2112C298.495 99.2112 298.771 91.8009 298.771 91.8009Z" fill="#EFD6CE"/>
<path d="M306.422 94.0243C307.478 94.7238 309.019 94.6938 310.094 94.6938C311.186 94.6938 312.742 94.7132 313.811 93.9944C314.62 93.4517 315.658 92.2096 316.69 90.5693C316.171 89.403 316.035 87.4808 316.035 83.5642C316.035 77.3854 301.443 77.4612 301.443 83.5642C301.443 84.7376 301.413 85.6925 301.352 86.4854C302.897 90.0707 304.985 93.0712 306.422 94.0243Z" fill="#D3B6AE"/>
<path d="M319.384 73.1256C317.945 60.5618 314.777 59.9663 308.753 59.9663C302.73 59.9663 299.562 60.5618 298.122 73.1256C297.129 73.3528 296.36 74.7711 296.36 76.5048C296.36 78.3952 297.271 79.9281 298.395 79.9281C298.521 79.9281 298.64 79.9034 298.758 79.8664C300.187 84.8683 303.193 89.6464 305.08 90.8991C306.135 91.5968 307.677 91.5687 308.753 91.5687C309.844 91.5687 311.401 91.588 312.471 90.8674C314.301 89.6394 317.307 84.8595 318.743 79.8664C318.863 79.9034 318.984 79.9281 319.111 79.9281C320.235 79.9281 321.146 78.3952 321.146 76.5048C321.146 74.7711 320.378 73.3528 319.384 73.1256Z" fill="#EFD6CE"/>
<path d="M299.732 77.8565C299.732 74.583 299.77 74.4737 300.26 72.7929C310.162 71.2302 313.139 67.9302 315.893 66.6652C318.053 68.9979 317.747 73.3902 317.747 77.8565C319.413 77.8406 318.196 73.3514 319.908 73.3514C319.711 65.3597 320.509 62.7451 316.168 59.1932C311.862 55.6695 305.736 57.2781 301.249 59.9667C296.937 62.5495 297.776 64.5651 297.779 73.2387C299.566 73.6985 298.093 77.8565 299.732 77.8565Z" fill="#C6AC9F"/>
<path d="M59.4153 83.3676C55.4376 84.935 53.4832 89.4313 55.0524 93.4085C56.6198 97.3862 61.1162 99.3406 65.0934 97.7715C69.0711 96.2041 71.0255 91.7077 69.4581 87.73C67.8889 83.7528 63.393 81.8001 59.4153 83.3676Z" fill="#BF4C80"/>
<path d="M67.2432 103.22C65.6112 103.862 64.8089 105.707 65.4522 107.339C66.0955 108.971 67.9394 109.773 69.5727 109.13C71.2043 108.486 72.0049 106.641 71.3637 105.011C70.7188 103.38 68.8748 102.577 67.2432 103.22Z" fill="#BF4C80"/>
<path d="M39.6048 0C17.7313 0 0 17.7312 0 39.6046C0 61.478 17.7313 79.2074 39.6048 79.2074C61.4782 79.2074 79.2096 61.478 79.2096 39.6046C79.2096 17.7312 61.4782 0 39.6048 0Z" fill="#F5F5F5"/>
<path d="M23.6733 49.0659V20.9591C23.6733 12.8793 30.2838 6.26709 38.3655 6.26709H40.8426C48.9243 6.26709 55.5348 12.8793 55.5348 20.9591V49.0659H23.6733Z" fill="#C6AC9F"/>
<path d="M56.3548 49.0964L22.9588 49.0664C17.7226 50.6204 13.8729 55.4848 13.8729 61.2073V69.6959C20.7953 75.6228 29.7807 79.2081 39.6066 79.2081C49.4325 79.2081 58.4162 75.6228 65.3385 69.6959V61.2073C65.3385 55.5218 61.54 50.682 56.3548 49.0964Z" fill="#BF4C80"/>
<path d="M52.6276 48.5479C45.8868 48.5479 45.8868 42.2563 45.8868 36.474V29.2539H33.2261V36.474C33.2261 42.2563 32.7803 48.5479 26.4852 48.5479C25.2449 48.5479 24.045 48.7311 22.9104 49.0677C26.0729 55.065 32.3645 59.156 39.6146 59.156C46.854 59.156 53.1386 55.0773 56.3046 49.0976C55.14 48.74 53.905 48.5479 52.6276 48.5479Z" fill="#EFD6CE"/>
<path d="M41.3897 48.3294C43.2801 48.3294 45.2235 47.1014 46.9325 45.1599C45.893 42.8149 45.8824 39.5748 45.8824 36.474V29.2539H33.2217V36.474C33.2217 37.9539 33.1918 39.4656 33.042 40.8962C35.158 45.1493 38.3399 48.3294 41.3897 48.3294Z" fill="#D3B6AE"/>
<path d="M48.4584 20.0781C46.4728 21.5951 43.726 22.7191 40.6076 23.1244C36.5588 23.6476 32.8131 22.8389 30.3624 21.1722C30.1439 22.4355 28.0684 24.9532 27.5451 25.1663C27.3355 25.7019 27.2122 26.3433 27.2122 27.0357C27.2122 28.9067 28.1054 30.4219 29.2119 30.4537C30.5808 37.3407 35.2304 43.8613 39.6051 43.8613C43.9798 43.8613 48.6275 37.3407 49.9965 30.4537C51.1029 30.4219 51.9962 28.9067 51.9962 27.0357C51.9962 26.3626 51.8799 25.7407 51.6808 25.2139C50.3224 24.4422 48.8143 22.0038 48.4584 20.0781Z" fill="#EFD6CE"/>
<path d="M104.599 187.28V31.6005H223.483V187.28H104.599Z" fill="white" stroke="#E0E0E0" stroke-width="1.2"/>
<path d="M223.744 187.725L229.331 193.631H110.965L105.392 187.725H223.744Z" fill="#F5F5F5" stroke="#E0E0E0" stroke-width="1.2"/>
<path d="M117.999 191H135.999" stroke="#E0E0E0" stroke-width="1.2"/>
<path d="M224.219 32.2368L230.125 38.1156V192.79L224.219 186.926V32.2368Z" fill="#F5F5F5" stroke="#E0E0E0" stroke-width="1.2"/>
<path d="M112 31H104V188H112V31Z" fill="#E0E0E0"/>
<path d="M116 194H110.521L104 188H111.63L116 194Z" fill="#E0E0E0"/>
<path d="M185.658 31.0435H204.064V65.4685L194.861 54.4033L185.658 65.4685V31.0435Z" fill="#E0E0E0"/>
<path d="M187.739 109.369C187.739 122.276 177.276 132.739 164.37 132.739C151.463 132.739 141 122.276 141 109.369C141 96.4628 151.463 86 164.37 86C177.276 86 187.739 96.4628 187.739 109.369Z" fill="white" stroke="#E0E0E0" stroke-width="2"/>
<path fill-rule="evenodd" clip-rule="evenodd" d="M177.772 100.943L163.225 120.94C162.878 121.406 162.361 121.712 161.789 121.788C161.218 121.864 160.64 121.704 160.186 121.345L149.798 112.932C148.882 112.188 148.733 110.833 149.467 109.905C150.2 108.976 151.538 108.826 152.455 109.569L161.117 116.589L174.35 98.396C174.784 97.7364 175.541 97.3717 176.32 97.4467C177.099 97.5217 177.774 98.0244 178.077 98.755C178.381 99.4857 178.263 100.326 177.772 100.943Z" fill="#BC0055"/>
</svg>
