<svg width="20" height="20" viewBox="0 0 20 20" fill="none" xmlns="http://www.w3.org/2000/svg">
<path d="M8.375 19C6.3875 19 5 17.458 5 15.25V5.875C5 3.0505 6.89225 1 9.5 1C12.1077 1 14 3.0505 14 5.875V12.625C14 12.832 13.832 13 13.625 13C13.418 13 13.25 12.832 13.25 12.625V5.875C13.25 3.48475 11.6728 1.75 9.5 1.75C7.32725 1.75 5.75 3.48475 5.75 5.875V15.25C5.75 17.0163 6.82925 18.25 8.375 18.25C9.92075 18.25 11 17.0163 11 15.25V8.125C11 7.6855 10.892 6.25 9.5 6.25C8.108 6.25 8 7.6855 8 8.125V13.75C8 13.957 7.832 14.125 7.625 14.125C7.418 14.125 7.25 13.957 7.25 13.75V8.125C7.25 6.5305 8.1335 5.5 9.5 5.5C10.8672 5.5 11.75 6.5305 11.75 8.125V15.25C11.75 17.458 10.3617 19 8.375 19Z" fill="#333333"/>
</svg>
