<svg width="20" height="10" viewBox="0 0 20 10" fill="none" xmlns="http://www.w3.org/2000/svg">
<path d="M15.471 8.57143L5.83078 8.57143C3.61593 8.57143 1.81401 6.96929 1.81401 5C1.81401 3.03071 3.61593 1.42857 5.83078 1.42857L15.471 1.42857C16.7998 1.42857 17.8811 2.39 17.8811 3.57143C17.8811 4.75286 16.7998 5.71429 15.471 5.71429L8.24084 5.71429C7.79819 5.71429 7.43749 5.39357 7.43749 5C7.43749 4.60643 7.79819 4.28571 8.24084 4.28571L14.6677 4.28571L14.6677 2.85714L8.24084 2.85714C6.90968 2.85714 5.83078 3.81643 5.83078 5C5.83078 6.18357 6.90968 7.14286 8.24084 7.14286L15.471 7.14286C17.6891 7.14286 19.4878 5.54357 19.4878 3.57143C19.4878 1.59929 17.6891 -6.93244e-08 15.471 -1.54811e-07L5.83078 -5.26358e-07C2.72501 -6.46058e-07 0.207304 2.23857 0.207304 5C0.207304 7.76143 2.72501 10 5.83078 10L15.471 10L15.471 8.57143Z" fill="#666666"/>
</svg>
