<svg width="8" height="16" viewBox="0 0 8 16" fill="none" xmlns="http://www.w3.org/2000/svg">
<path d="M3 16C1.23333 16 0 14.6293 0 12.6667V4.33333C0 1.82267 1.682 0 4 0C6.318 0 8 1.82267 8 4.33333V10.3333C8 10.5173 7.85067 10.6667 7.66667 10.6667C7.48267 10.6667 7.33333 10.5173 7.33333 10.3333V4.33333C7.33333 2.20867 5.93133 0.666667 4 0.666667C2.06867 0.666667 0.666667 2.20867 0.666667 4.33333V12.6667C0.666667 14.2367 1.626 15.3333 3 15.3333C4.374 15.3333 5.33333 14.2367 5.33333 12.6667V6.33333C5.33333 5.94267 5.23733 4.66667 4 4.66667C2.76267 4.66667 2.66667 5.94267 2.66667 6.33333V11.3333C2.66667 11.5173 2.51733 11.6667 2.33333 11.6667C2.14933 11.6667 2 11.5173 2 11.3333V6.33333C2 4.916 2.78533 4 4 4C5.21533 4 6 4.916 6 6.33333V12.6667C6 14.6293 4.766 16 3 16Z" fill="#333333"/>
</svg>
