<?xml version="1.0" encoding="UTF-8"?>
<svg width="233px" height="102px" viewBox="0 0 233 102" version="1.1" xmlns="http://www.w3.org/2000/svg" xmlns:xlink="http://www.w3.org/1999/xlink">
    <title>mail_quota copy</title>
    <defs>
        <rect id="path-1" x="43.2179669" y="42.2938064" width="36" height="33" rx="1"></rect>
        <filter x="-23.6%" y="-19.7%" width="147.2%" height="151.5%" filterUnits="objectBoundingBox" id="filter-2">
            <feOffset dx="0" dy="2" in="SourceAlpha" result="shadowOffsetOuter1"></feOffset>
            <feGaussianBlur stdDeviation="2.5" in="shadowOffsetOuter1" result="shadowBlurOuter1"></feGaussianBlur>
            <feColorMatrix values="0 0 0 0 0   0 0 0 0 0   0 0 0 0 0  0 0 0 0.5 0" type="matrix" in="shadowBlurOuter1"></feColorMatrix>
        </filter>
        <rect id="path-3" x="31.2945431" y="31.5133394" width="36" height="43" rx="1"></rect>
        <filter x="-23.6%" y="-15.1%" width="147.2%" height="139.5%" filterUnits="objectBoundingBox" id="filter-4">
            <feOffset dx="0" dy="2" in="SourceAlpha" result="shadowOffsetOuter1"></feOffset>
            <feGaussianBlur stdDeviation="2.5" in="shadowOffsetOuter1" result="shadowBlurOuter1"></feGaussianBlur>
            <feColorMatrix values="0 0 0 0 0   0 0 0 0 0   0 0 0 0 0  0 0 0 0.5 0" type="matrix" in="shadowBlurOuter1"></feColorMatrix>
        </filter>
        <rect id="path-5" x="20.7848882" y="40.9762751" width="36" height="43" rx="1"></rect>
        <filter x="-23.6%" y="-15.1%" width="147.2%" height="139.5%" filterUnits="objectBoundingBox" id="filter-6">
            <feOffset dx="0" dy="2" in="SourceAlpha" result="shadowOffsetOuter1"></feOffset>
            <feGaussianBlur stdDeviation="2.5" in="shadowOffsetOuter1" result="shadowBlurOuter1"></feGaussianBlur>
            <feColorMatrix values="0 0 0 0 0   0 0 0 0 0   0 0 0 0 0  0 0 0 0.5 0" type="matrix" in="shadowBlurOuter1"></feColorMatrix>
        </filter>
        <rect id="path-7" x="29.9818978" y="37.4527806" width="36" height="43" rx="1"></rect>
        <filter x="-23.6%" y="-15.1%" width="147.2%" height="139.5%" filterUnits="objectBoundingBox" id="filter-8">
            <feOffset dx="0" dy="2" in="SourceAlpha" result="shadowOffsetOuter1"></feOffset>
            <feGaussianBlur stdDeviation="2.5" in="shadowOffsetOuter1" result="shadowBlurOuter1"></feGaussianBlur>
            <feColorMatrix values="0 0 0 0 0   0 0 0 0 0   0 0 0 0 0  0 0 0 0.5 0" type="matrix" in="shadowBlurOuter1"></feColorMatrix>
        </filter>
        <rect id="path-9" x="18.360194" y="47.862543" width="36" height="36" rx="1"></rect>
        <filter x="-23.6%" y="-18.1%" width="147.2%" height="147.2%" filterUnits="objectBoundingBox" id="filter-10">
            <feOffset dx="0" dy="2" in="SourceAlpha" result="shadowOffsetOuter1"></feOffset>
            <feGaussianBlur stdDeviation="2.5" in="shadowOffsetOuter1" result="shadowBlurOuter1"></feGaussianBlur>
            <feColorMatrix values="0 0 0 0 0   0 0 0 0 0   0 0 0 0 0  0 0 0 0.5 0" type="matrix" in="shadowBlurOuter1"></feColorMatrix>
        </filter>
        <rect id="path-11" x="35.9534122" y="49.8035236" width="36" height="36" rx="1"></rect>
        <filter x="-23.6%" y="-18.1%" width="147.2%" height="147.2%" filterUnits="objectBoundingBox" id="filter-12">
            <feOffset dx="0" dy="2" in="SourceAlpha" result="shadowOffsetOuter1"></feOffset>
            <feGaussianBlur stdDeviation="2.5" in="shadowOffsetOuter1" result="shadowBlurOuter1"></feGaussianBlur>
            <feColorMatrix values="0 0 0 0 0   0 0 0 0 0   0 0 0 0 0  0 0 0 0.5 0" type="matrix" in="shadowBlurOuter1"></feColorMatrix>
        </filter>
        <rect id="path-13" x="17.3874794" y="9.5849368" width="18.4615385" height="22.0512821" rx="0.512820513"></rect>
        <filter x="-27.1%" y="-18.1%" width="154.2%" height="145.3%" filterUnits="objectBoundingBox" id="filter-14">
            <feOffset dx="0" dy="1" in="SourceAlpha" result="shadowOffsetOuter1"></feOffset>
            <feGaussianBlur stdDeviation="1.5" in="shadowOffsetOuter1" result="shadowBlurOuter1"></feGaussianBlur>
            <feColorMatrix values="0 0 0 0 0   0 0 0 0 0   0 0 0 0 0  0 0 0 0.5 0" type="matrix" in="shadowBlurOuter1"></feColorMatrix>
        </filter>
        <rect id="path-15" x="10.9579964" y="11.9243932" width="18.4615385" height="22.0512821" rx="0.512820513"></rect>
        <filter x="-27.1%" y="-18.1%" width="154.2%" height="145.3%" filterUnits="objectBoundingBox" id="filter-16">
            <feOffset dx="0" dy="1" in="SourceAlpha" result="shadowOffsetOuter1"></feOffset>
            <feGaussianBlur stdDeviation="1.5" in="shadowOffsetOuter1" result="shadowBlurOuter1"></feGaussianBlur>
            <feColorMatrix values="0 0 0 0 0   0 0 0 0 0   0 0 0 0 0  0 0 0 0.5 0" type="matrix" in="shadowBlurOuter1"></feColorMatrix>
        </filter>
    </defs>
    <g id="mail_quota-copy" stroke="none" stroke-width="1" fill="none" fill-rule="evenodd">
        <path d="M82.5588248,54 L93.596072,58 L82.5588248,62 L84.547,59.967 L64,62.4393347 L70.0216948,58.41764 L64,54.3959452 L84.387,56.553 L82.5588248,54 Z" id="Combined-Shape" fill="#FFC31D"></path>
        <g id="Group-2" transform="translate(170.905831, 49.928910) rotate(-345.000000) translate(-170.905831, -49.928910) translate(110.405831, 2.928910)">
            <polygon id="Star" fill="#FFCE1D" transform="translate(9.500000, 19.384567) rotate(3.000000) translate(-9.500000, -19.384567) " points="9.5 23.3845668 4.50382536 25.8567028 5.45800981 20.6206348 1.41601961 16.9124309 7.00191268 16.1484988 9.5 11.3845668 11.9980873 16.1484988 17.5839804 16.9124309 13.5419902 20.6206348 14.4961746 25.8567028"></polygon>
            <polygon id="Star-Copy-2" fill="#FFDA55" transform="translate(111.499545, 60.278855) rotate(3.000000) translate(-111.499545, -60.278855) " points="111.499545 64.5288548 106.503371 67.1554992 107.457555 61.592177 103.415565 57.6522103 109.001458 56.8405325 111.499545 51.7788548 113.997632 56.8405325 119.583526 57.6522103 115.541535 61.592177 116.49572 67.1554992"></polygon>
            <polygon id="Star-Copy-3" fill="#FFC31D" transform="translate(105.052296, 20.887447) rotate(3.000000) translate(-105.052296, -20.887447) " points="105.052296 26.6374473 97.9988734 30.1911427 99.3459573 22.664295 93.6396182 17.3337518 101.525585 16.2355996 105.052296 9.38744727 108.579008 16.2355996 116.464975 17.3337518 110.758636 22.664295 112.105719 30.1911427"></polygon>
            <polygon id="Star-Copy-4" fill="#FFF7D8" transform="translate(74.227744, 26.281607) rotate(3.000000) translate(-74.227744, -26.281607) " points="74.2277439 28.5316073 71.5827103 29.9221838 72.0878668 26.9768956 69.9479896 24.8910309 72.9052271 24.4613191 74.2277439 21.7816073 75.5502607 24.4613191 78.5074982 24.8910309 76.3676211 26.9768956 76.8727775 29.9221838"></polygon>
            <polygon id="Star-Copy" fill="#FFE277" transform="translate(40.690904, 7.000000) rotate(3.000000) translate(-40.690904, -7.000000) " points="40.6909042 10 37.1641927 11.854102 37.8377346 7.92705098 34.9845651 5.14589803 38.9275484 4.57294902 40.6909042 1 42.45426 4.57294902 46.3972433 5.14589803 43.5440737 7.92705098 44.2176157 11.854102"></polygon>
            <rect id="Rectangle" fill="#E10B59" fill-rule="nonzero" transform="translate(47.406778, 69.926721) rotate(3.000000) translate(-47.406778, -69.926721) " x="8.40677798" y="48.4377206" width="78" height="42.978"></rect>
            <path d="M46.6043967,27.1012708 L10.1071209,48.4459193 L10.1071209,48.4822456 L88.1071209,48.4822456 L88.1071209,48.4459193 L51.609845,27.1012708 C50.2004657,26.2759039 48.013776,26.2759039 46.6043967,27.1012708 Z" id="Path" fill="#E10B59" fill-rule="nonzero" transform="translate(49.107121, 37.482246) rotate(3.000000) translate(-49.107121, -37.482246) "></path>
            <g id="Rectangle" transform="translate(61.217967, 58.793806) rotate(17.000000) translate(-61.217967, -58.793806) ">
                <use fill="black" fill-opacity="1" filter="url(#filter-2)" xlink:href="#path-1"></use>
                <use fill="#FFFFFF" fill-rule="evenodd" xlink:href="#path-1"></use>
            </g>
            <g id="Rectangle" transform="translate(49.294543, 53.013339) rotate(17.000000) translate(-49.294543, -53.013339) ">
                <use fill="black" fill-opacity="1" filter="url(#filter-4)" xlink:href="#path-3"></use>
                <use fill="#FFFFFF" fill-rule="evenodd" xlink:href="#path-3"></use>
            </g>
            <g id="Rectangle" transform="translate(38.784888, 62.476275) rotate(5.000000) translate(-38.784888, -62.476275) ">
                <use fill="black" fill-opacity="1" filter="url(#filter-6)" xlink:href="#path-5"></use>
                <use fill="#FFFFFF" fill-rule="evenodd" xlink:href="#path-5"></use>
            </g>
            <g id="Rectangle">
                <use fill="black" fill-opacity="1" filter="url(#filter-8)" xlink:href="#path-7"></use>
                <use fill="#FFFFFF" fill-rule="evenodd" xlink:href="#path-7"></use>
            </g>
            <g id="Rectangle" transform="translate(36.360194, 65.862543) rotate(-1.000000) translate(-36.360194, -65.862543) ">
                <use fill="black" fill-opacity="1" filter="url(#filter-10)" xlink:href="#path-9"></use>
                <use fill="#FFFFFF" fill-rule="evenodd" xlink:href="#path-9"></use>
            </g>
            <g id="Rectangle" transform="translate(53.953412, 67.803524) rotate(10.000000) translate(-53.953412, -67.803524) ">
                <use fill="black" fill-opacity="1" filter="url(#filter-12)" xlink:href="#path-11"></use>
                <use fill="#FFFFFF" fill-rule="evenodd" xlink:href="#path-11"></use>
            </g>
            <path d="M8.50245026,48.9510054 L85.8448296,91.596833 C85.8004503,91.7689709 85.8058296,91.7461089 85.7614503,91.9182468 L8.55355371,91.9182468 C8.45807095,91.9182468 8.38007095,91.8402468 8.38007095,91.744764 L8.38007095,49.0236261 C8.38007095,48.9604192 8.44731233,48.9200744 8.50245026,48.9510054 Z" id="Path" fill="#D81B60" fill-rule="nonzero" transform="translate(47.112450, 70.429313) rotate(3.000000) translate(-47.112450, -70.429313) "></path>
            <path d="M86.2315096,49.9682305 L47.3538889,71.4047822 L85.8186475,92.6140581 C85.7742682,92.7848512 85.7796475,92.7646787 85.7352682,92.9354718 L86.1804062,92.9354718 C86.2758889,92.9354718 86.3538889,92.8574718 86.3538889,92.7619891 L86.3538889,50.0395063 C86.3538889,49.9776443 86.2866475,49.9372994 86.2315096,49.9682305 Z" id="Path" fill="#FF4388" fill-rule="nonzero" transform="translate(66.853889, 71.446529) rotate(3.000000) translate(-66.853889, -71.446529) "></path>
        </g>
        <g id="Group" transform="translate(21.100604, 57.585591) rotate(-15.000000) translate(-21.100604, -57.585591) translate(-1.399396, 38.085591)">
            <path d="M19.7165517,3.31048287 L1,14.0162627 L1,14.0344828 L41,14.0344828 L41,14.0162627 L22.2834483,3.31048287 C21.5606897,2.89650571 20.4393103,2.89650571 19.7165517,3.31048287 Z" id="Path" fill="#D81B60" fill-rule="nonzero" transform="translate(21.000000, 8.517241) rotate(-7.000000) translate(-21.000000, -8.517241) "></path>
            <rect id="Rectangle" fill="#B61550" fill-rule="nonzero" transform="translate(23.015383, 24.931217) rotate(-7.000000) translate(-23.015383, -24.931217) " x="3.01538275" y="13.9112167" width="40" height="22.04"></rect>
            <g id="Rectangle" transform="translate(26.618249, 20.610578) rotate(7.000000) translate(-26.618249, -20.610578) ">
                <use fill="black" fill-opacity="1" filter="url(#filter-14)" xlink:href="#path-13"></use>
                <use fill="#FFFFFF" fill-rule="evenodd" xlink:href="#path-13"></use>
            </g>
            <g id="Rectangle" transform="translate(20.188766, 22.950034) rotate(-5.000000) translate(-20.188766, -22.950034) ">
                <use fill="black" fill-opacity="1" filter="url(#filter-16)" xlink:href="#path-15"></use>
                <use fill="#FFFFFF" fill-rule="evenodd" xlink:href="#path-15"></use>
            </g>
            <path d="M3.07916848,13.9334592 L42.7419271,35.8031143 C42.7191685,35.8913902 42.7219271,35.8796661 42.6991685,35.9679419 L3.10537538,35.9679419 C3.05640986,35.9679419 3.01640986,35.9279419 3.01640986,35.8789764 L3.01640986,13.9707006 C3.01640986,13.9382868 3.05089262,13.9175971 3.07916848,13.9334592 Z" id="Path" fill="#D81B60" fill-rule="nonzero" transform="translate(22.879168, 24.947976) rotate(-7.000000) translate(-22.879168, -24.947976) "></path>
            <path d="M42.8770045,12.689206 L22.9397631,23.6823095 L42.6652804,34.5588612 C42.6425218,34.6464474 42.6452804,34.6361026 42.6225218,34.7236888 L42.8507976,34.7236888 C42.8997631,34.7236888 42.9397631,34.6836888 42.9397631,34.6347233 L42.9397631,12.7257578 C42.9397631,12.6940336 42.9052804,12.673344 42.8770045,12.689206 Z" id="Path" fill="#FF4388" fill-rule="nonzero" transform="translate(32.939763, 23.703718) rotate(-7.000000) translate(-32.939763, -23.703718) "></path>
        </g>
    </g>
</svg>