<svg width="24" height="24" viewBox="0 0 24 24" fill="none" xmlns="http://www.w3.org/2000/svg">
<g clip-path="url(#clip0_3268_48582)">
<path d="M1.5 19.0004C0.673 19.0004 0 18.3273 0 17.5003V11.5002C0 11.4852 0.002 11.4662 0.005 11.4492C0.008 11.4192 0.015 11.3922 0.021 11.3742C0.028 11.3502 0.035 11.3242 0.047 11.2962C0.053 11.2792 0.06 11.2622 0.068 11.2492L3.279 5.74802C3.544 5.28901 4.04 5.002 4.573 5L19 5.00195C19.276 5.00195 17.5 5.22595 17.5 5.50195C17.5 5.77796 19.776 6.00195 19.5 6.00195L4.574 6.00003C4.398 6.00103 4.233 6.09603 4.144 6.25003L1.371 11.0002H7.5C7.776 11.0002 8 11.2242 8 11.5002V12.5002C8.003 13.3242 8.676 13.9982 9.501 14.0002H14.5C15.324 13.9982 15.998 13.3242 16 12.4992V11.5002C16 11.2242 16.224 11.0002 16.5 11.0002H22.629L19.857 6.25203C19.767 6.09703 19.602 6.00003 19.424 6.00003H17.5C17.224 6.00003 4 5.77796 4 5.50195C4 5.22595 17.224 5 17.5 5H19.426C19.959 5.002 20.456 5.28901 20.722 5.75002L23.931 11.2482C23.939 11.2622 23.947 11.2792 23.953 11.2972C23.965 11.3262 23.972 11.3502 23.977 11.3672C23.985 11.3982 23.99 11.4222 23.994 11.4452C23.998 11.4642 24 11.4842 24 11.5002V17.5003C24 18.3273 23.327 19.0004 22.5 19.0004H1.5ZM1 17.5003C1 17.7763 1.224 18.0003 1.5 18.0003H22.5C22.776 18.0003 23 17.7763 23 17.5003V12.0002H17V12.5002C16.996 13.8752 15.875 14.9963 14.501 15.0003H9.5C8.125 14.9963 7.004 13.8752 7 12.5012V12.0002H1V17.5003Z" fill="#0098FF" stroke="#0098FF" stroke-width="0.4"/>
</g>
<defs>
<clipPath id="clip0_3268_48582">
<rect width="24" height="24" fill="white"/>
</clipPath>
</defs>
</svg>
