<svg width="24" height="24" viewBox="0 0 24 24" fill="none" xmlns="http://www.w3.org/2000/svg">
<path d="M1.5 19.002C0.673 19.002 0 18.3289 0 17.502V11.502C0 11.487 0.002 11.468 0.005 11.451C0.008 11.421 0.015 11.394 0.021 11.376C0.028 11.352 0.035 11.326 0.047 11.298C0.053 11.281 0.06 11.264 0.068 11.251L3.279 5.74995C3.544 5.29095 4.04 5.00395 4.573 5.00195H17.5C17.776 5.00195 17.5 5.22595 17.5 5.50195C17.5 5.77795 17.776 6.00195 17.5 6.00195H4.574C4.398 6.00295 4.233 6.09795 4.144 6.25195L1.371 11.002H7.5C7.776 11.002 8 11.226 8 11.502V12.502C8.003 13.326 8.676 14 9.501 14.002H14.5C15.324 14 15.998 13.326 16 12.501V11.502C16 11.226 16.224 11.002 16.5 11.002H22.629L19.857 6.25395C19.767 6.09895 19.602 6.00195 19.424 6.00195H17.5C17.224 6.00195 17.5 5.77795 17.5 5.50195C17.5 5.22595 17.224 5.00195 17.5 5.00195H19.426C19.959 5.00395 20.456 5.29095 20.722 5.75195L23.931 11.25C23.939 11.264 23.947 11.281 23.953 11.299C23.965 11.328 23.972 11.352 23.977 11.369C23.985 11.4 23.99 11.424 23.994 11.447C23.998 11.466 24 11.486 24 11.502V17.502C24 18.3289 23.327 19.002 22.5 19.002H1.5ZM1 17.502C1 17.778 1.224 18.002 1.5 18.002H22.5C22.776 18.002 23 17.778 23 17.502V12.002H17V12.502C16.996 13.877 15.875 14.998 14.501 15.002H9.5C8.125 14.998 7.004 13.877 7 12.503V12.002H1V17.502Z" fill="black"/>
</svg>
