<svg width="24" height="24" viewBox="0 0 24 24" fill="none" xmlns="http://www.w3.org/2000/svg">
<path d="M5.25 11.25H18.75M5.25 17.25H18.75M3.75 6V4.5M20.25 6V4.5M2.25 6H21.75C22.5784 6 23.25 6.67157 23.25 7.5V21C23.25 21.8284 22.5784 22.5 21.75 22.5H2.25C1.42157 22.5 0.75 21.8284 0.75 21V7.5C0.75 6.67157 1.42157 6 2.25 6ZM15.342 2.525C15.2423 2.22646 15.0513 1.96683 14.7959 1.78288C14.5405 1.59892 14.2337 1.49996 13.919 1.5H10.081C9.76626 1.49996 9.45948 1.59892 9.2041 1.78288C8.94872 1.96683 8.75767 2.22646 8.658 2.525L7.5 6H16.5L15.342 2.525Z" stroke="black" stroke-linecap="round" stroke-linejoin="round"/>
</svg>
