<svg width="17" height="17" viewBox="0 0 17 17" fill="none" xmlns="http://www.w3.org/2000/svg">
<path d="M14.3746 0.659575C14.3746 0.659575 14.3746 0.652824 14.3678 0.646073C14.3678 0.646073 14.3611 0.646073 14.3543 0.639322C14.3475 0.632571 14.3408 0.619069 14.334 0.612318C14.057 0.328773 13.6787 0.166748 13.2869 0.166748H1.64631C1.25446 0.166748 0.86937 0.328773 0.592375 0.612318C0.585619 0.619069 0.578863 0.632571 0.572107 0.639322C0.572107 0.639322 0.565351 0.639322 0.565351 0.646073C0.565351 0.646073 0.565351 0.652824 0.558595 0.659575C0.308624 0.936368 0.166748 1.29417 0.166748 1.67223V8.99038C0.166748 9.38869 0.31538 9.76675 0.592375 10.0503C0.86937 10.3338 1.2477 10.4959 1.63955 10.4959H7.11189C7.38889 10.4959 7.61859 10.2663 7.61859 9.98953C7.61859 9.71274 7.38889 9.4832 7.11189 9.4832H1.64631C1.5247 9.4832 1.40985 9.43595 1.32202 9.34143C1.23419 9.24692 1.18014 9.11865 1.18014 8.99038V1.81401L7.14567 6.72202C7.24026 6.79628 7.35511 6.83679 7.46996 6.83679C7.58481 6.83679 7.69966 6.79628 7.79425 6.72202L13.7598 1.81401V7.32287C13.7598 7.59966 13.9895 7.8292 14.2665 7.8292C14.5435 7.8292 14.7732 7.59966 14.7732 7.32287V1.67223C14.7732 1.29417 14.6313 0.943119 14.3881 0.666326L14.3746 0.659575ZM7.4632 5.66886L2.00437 1.17941H12.9288L7.46996 5.67561L7.4632 5.66886Z" fill="black"/>
<path d="M15.996 13.7026L13.1382 7.99797C12.9963 7.71443 12.7802 7.47814 12.5099 7.30936C11.9694 6.97856 11.2533 6.97856 10.7128 7.30936C10.4426 7.47814 10.2264 7.71443 10.0845 7.99797L7.22674 13.7026C7.09838 13.9592 7.03758 14.2494 7.05109 14.5397C7.0646 14.83 7.15243 15.1136 7.30106 15.3566C7.45645 15.6064 7.66588 15.8089 7.92261 15.9507C8.17934 16.0925 8.46309 16.1667 8.75359 16.1667H14.4624C14.7529 16.1667 15.0367 16.0925 15.2934 15.9507C15.5501 15.8089 15.7595 15.6064 15.9149 15.3566C16.0703 15.1136 16.1514 14.83 16.1649 14.5397C16.1784 14.2494 16.1176 13.9592 15.9892 13.7026H15.996ZM11.1114 10.0908C11.1114 9.814 11.3411 9.58447 11.6181 9.58447C11.8951 9.58447 12.1248 9.814 12.1248 10.0908V12.1161C12.1248 12.3929 11.8951 12.6224 11.6181 12.6224C11.3411 12.6224 11.1114 12.3929 11.1114 12.1161V10.0908ZM12.2464 14.317C12.1654 14.4385 12.0505 14.533 11.9086 14.5938C11.8141 14.6343 11.7195 14.6545 11.6181 14.6545C11.5708 14.6545 11.5168 14.6545 11.4695 14.641C11.3209 14.614 11.1857 14.5397 11.0777 14.4317C10.9696 14.3237 10.902 14.1887 10.875 14.0402C10.8479 13.8984 10.8615 13.7431 10.9155 13.6081C10.9763 13.4663 11.0709 13.3516 11.1925 13.2705C11.4965 13.068 11.9086 13.1153 12.1586 13.3651C12.3005 13.5068 12.3816 13.7026 12.3816 13.9051C12.3816 14.0604 12.3343 14.2089 12.2532 14.3305L12.2464 14.317Z" fill="black"/>
</svg>
