<svg width="24" height="24" viewBox="0 0 24 24" fill="none" xmlns="http://www.w3.org/2000/svg">
<g clip-path="url(#clip0_1793_62668)">
<path fill-rule="evenodd" clip-rule="evenodd" d="M2.25 6.75C1.83579 6.75 1.5 7.08579 1.5 7.5V21C1.5 21.4142 1.83579 21.75 2.25 21.75H21.75C22.1642 21.75 22.5 21.4142 22.5 21V7.5C22.5 7.08579 22.1642 6.75 21.75 6.75H2.25ZM0 7.5C0 6.25736 1.00736 5.25 2.25 5.25H21.75C22.9926 5.25 24 6.25736 24 7.5V21C24 22.2426 22.9926 23.25 21.75 23.25H2.25C1.00736 23.25 0 22.2426 0 21V7.5Z" fill="black"/>
<path fill-rule="evenodd" clip-rule="evenodd" d="M4.5 11.25C4.5 10.8358 4.83579 10.5 5.25 10.5H18.75C19.1642 10.5 19.5 10.8358 19.5 11.25C19.5 11.6642 19.1642 12 18.75 12H5.25C4.83579 12 4.5 11.6642 4.5 11.25Z" fill="black"/>
<path fill-rule="evenodd" clip-rule="evenodd" d="M4.5 17.25C4.5 16.8358 4.83579 16.5 5.25 16.5H18.75C19.1642 16.5 19.5 16.8358 19.5 17.25C19.5 17.6642 19.1642 18 18.75 18H5.25C4.83579 18 4.5 17.6642 4.5 17.25Z" fill="black"/>
<path fill-rule="evenodd" clip-rule="evenodd" d="M10.081 0.75C9.60893 0.749959 9.1488 0.898402 8.76575 1.17432L10.081 0.75ZM10.0809 2.25C9.92353 2.24998 9.77014 2.29946 9.64245 2.39144C9.51482 2.48337 9.41932 2.61311 9.36947 2.7623L8.54047 5.25H15.4595L14.6306 2.7625C14.5808 2.61325 14.4852 2.4834 14.3575 2.39144C14.2299 2.29946 14.0765 2.24998 13.9191 2.25H10.0809ZM10.081 0.75H13.9189C14.391 0.749959 14.8512 0.898402 15.2343 1.17432C15.6173 1.45025 15.9039 1.83969 16.0534 2.2875L17.2115 5.76289C17.2877 5.9916 17.2494 6.243 17.1084 6.43856C16.9674 6.63412 16.7411 6.75 16.5 6.75H7.5C7.25893 6.75 7.03255 6.63412 6.89159 6.43856C6.75062 6.243 6.71225 5.9916 6.78847 5.76289L7.94647 2.28789C8.09597 1.84008 8.38267 1.45025 8.76575 1.17432" fill="black"/>
<path fill-rule="evenodd" clip-rule="evenodd" d="M3.75 3.75C4.16421 3.75 4.5 4.08579 4.5 4.5V6C4.5 6.41421 4.16421 6.75 3.75 6.75C3.33579 6.75 3 6.41421 3 6V4.5C3 4.08579 3.33579 3.75 3.75 3.75Z" fill="black"/>
<path fill-rule="evenodd" clip-rule="evenodd" d="M20.25 3.75C20.6642 3.75 21 4.08579 21 4.5V6C21 6.41421 20.6642 6.75 20.25 6.75C19.8358 6.75 19.5 6.41421 19.5 6V4.5C19.5 4.08579 19.8358 3.75 20.25 3.75Z" fill="black"/>
</g>
<defs>
<clipPath id="clip0_1793_62668">
<rect width="24" height="24" fill="white"/>
</clipPath>
</defs>
</svg>
