<svg width="25" height="24" viewBox="0 0 25 24" fill="none" xmlns="http://www.w3.org/2000/svg">
<g clip-path="url(#clip0_17_5714)">
<path fill-rule="evenodd" clip-rule="evenodd" d="M1.58113 4.68789C1.75364 4.47226 2.06829 4.43731 2.28391 4.60982L12.9973 13.181L23.7118 4.6098C23.9275 4.4373 24.2421 4.47227 24.4146 4.68791C24.5871 4.90354 24.5522 5.21819 24.3365 5.39069L13.3097 14.2117C13.127 14.3578 12.8676 14.3578 12.685 14.2117L1.6592 5.39067C1.44357 5.21816 1.40862 4.90351 1.58113 4.68789Z" fill="black"/>
<path fill-rule="evenodd" clip-rule="evenodd" d="M2.99689 5C2.4446 5 1.99689 5.44772 1.99689 6V18C1.99689 18.5523 2.4446 19 2.99689 19H22.9969C23.5492 19 23.9969 18.5523 23.9969 18V6C23.9969 5.44772 23.5492 5 22.9969 5H2.99689ZM0.996887 6C0.996887 4.89543 1.89232 4 2.99689 4H22.9969C24.1015 4 24.9969 4.89543 24.9969 6V18C24.9969 19.1046 24.1015 20 22.9969 20H2.99689C1.89232 20 0.996887 19.1046 0.996887 18V6Z" fill="black"/>
</g>
<defs>
<clipPath id="clip0_17_5714">
<rect width="24" height="24" fill="white" transform="translate(0.997314)"/>
</clipPath>
</defs>
</svg>
