<svg width="16" height="16" viewBox="0 0 16 16" fill="none" xmlns="http://www.w3.org/2000/svg">
<path fill-rule="evenodd" clip-rule="evenodd" d="M1.54069 16H14.5281C14.7959 16 15.0637 15.9333 15.2645 15.7998C15.4654 15.6663 15.6662 15.4661 15.8001 15.2659C15.934 15.0657 16.0009 14.7987 16.0009 14.5318C16.0009 14.2649 16.0009 13.9979 15.8671 13.7977L9.50722 0.917623C9.37333 0.650678 9.17249 0.450469 8.90471 0.250261C8.36915 -0.0834202 7.63275 -0.0834202 7.09718 0.250261C6.8294 0.383733 6.62856 0.650678 6.49467 0.917623L0.134837 13.7977C0.0678916 13.9979 0.000946045 14.2649 0.000946045 14.5318C0.000946045 14.7987 0.0678916 15.0657 0.268728 15.2659C0.40262 15.4661 0.603456 15.6663 0.804293 15.7998C1.00513 15.9333 1.27291 16 1.54069 16ZM7.58427 12.1264C7.70761 12.044 7.85261 12 8.00095 12C8.19986 12 8.39062 12.079 8.53128 12.2197C8.67193 12.3603 8.75095 12.5511 8.75095 12.75C8.75095 12.8983 8.70696 13.0433 8.62455 13.1667C8.54214 13.29 8.425 13.3861 8.28796 13.4429C8.15091 13.4997 8.00011 13.5145 7.85463 13.4856C7.70915 13.4566 7.57551 13.3852 7.47062 13.2803C7.36572 13.1754 7.2943 13.0418 7.26536 12.8963C7.23642 12.7508 7.25127 12.6 7.30804 12.463C7.3648 12.3259 7.46093 12.2088 7.58427 12.1264ZM8.50095 5.49999C8.50095 5.22385 8.27709 4.99999 8.00095 4.99999C7.7248 4.99999 7.50095 5.22385 7.50095 5.49999V10.5C7.50095 10.7761 7.7248 11 8.00095 11C8.27709 11 8.50095 10.7761 8.50095 10.5V5.49999Z" fill="#FF8500"/>
</svg>
