<svg width="163" height="38" viewBox="0 0 163 38" fill="none" xmlns="http://www.w3.org/2000/svg">
<path d="M23.9322 2.56123C23.5954 1.98706 23.1197 1.51206 22.5515 1.18233C21.9832 0.852595 21.3416 0.679321 20.689 0.679321C20.0363 0.679321 19.3947 0.852595 18.8264 1.18233C18.2582 1.51206 17.7826 1.98706 17.4457 2.56123L12.1106 11.9465C16.1864 14.0365 19.659 17.1851 22.1837 21.0798C24.7084 24.9744 26.1972 29.4796 26.5025 34.148H22.7565C22.4519 30.1463 21.1351 26.2957 18.9365 22.9772C16.738 19.6587 13.7338 16.9874 10.2214 15.2276L5.28355 23.9966C7.25814 24.9062 8.97839 26.311 10.2861 28.082C11.5938 29.8529 12.4471 31.9332 12.7673 34.1314H4.16463C4.0626 34.124 3.96398 34.0906 3.87765 34.0342C3.79132 33.9779 3.72 33.9004 3.67012 33.8087C3.62025 33.717 3.59338 33.6139 3.59195 33.5089C3.59052 33.4039 3.61457 33.3001 3.66192 33.207L6.04571 29.0432C5.23809 28.3511 4.31508 27.815 3.32138 27.4609L0.961925 31.6247C0.716293 32.0575 0.556831 32.536 0.492801 33.0326C0.428772 33.5291 0.461452 34.0338 0.588942 34.5173C0.716433 35.0008 0.936193 35.4534 1.23545 35.8489C1.53472 36.2444 1.90752 36.5749 2.33219 36.8212C2.89173 37.145 3.5224 37.317 4.16463 37.3209H15.9457C16.1645 34.5478 15.6824 31.7637 14.546 29.2382C13.4095 26.7127 11.6574 24.5315 9.45922 22.9057L11.3322 19.5746C14.1063 21.5316 16.3357 24.1976 17.8002 27.3098C19.2648 30.4219 19.9139 33.8724 19.6835 37.3209H29.6646C29.8971 32.0969 28.7906 26.9018 26.4557 22.2547C24.1208 17.6075 20.6394 13.6712 16.3592 10.8389L20.1457 4.1768C20.2301 4.0316 20.3669 3.92651 20.5263 3.8844C20.6858 3.84229 20.855 3.86657 20.9971 3.95195C21.4268 4.19345 37.4484 32.9072 37.7484 33.2403C37.8013 33.3376 37.8282 33.4476 37.8264 33.559C37.8246 33.6704 37.7942 33.7794 37.7382 33.8749C37.6823 33.9704 37.6028 34.049 37.5077 34.1028C37.4127 34.1566 37.3055 34.1837 37.1971 34.1813H33.3376C33.3862 35.2417 33.3862 36.2993 33.3376 37.3542H37.2133C37.7054 37.3575 38.1933 37.2605 38.6487 37.0688C39.1041 36.8772 39.518 36.5947 39.8664 36.2376C40.2147 35.8806 40.4907 35.4561 40.6783 34.9888C40.8659 34.5215 40.9614 34.0206 40.9592 33.5151C40.9597 32.8475 40.7861 32.1919 40.4565 31.6164L23.9322 2.56123ZM101.219 24.2298L89.2511 8.35728H86.2673V29.6344H89.2917V13.3289L101.6 29.6344H104.243V8.35728H101.219V24.2298ZM71.0808 20.2825H81.8079V17.5177H71.0727V11.1137H83.1781V8.34895H67.9917V29.6344H83.3322V26.8697H71.0727L71.0808 20.2825ZM58.4646 17.5843C54.2889 16.5517 53.1214 15.7356 53.1214 13.7536C53.1214 11.9715 54.6538 10.764 56.9403 10.764C59.0226 10.8266 61.0309 11.5706 62.6727 12.8875L64.2944 10.5308C62.2159 8.85734 59.6374 7.97458 56.9971 8.0325C52.8944 8.0325 50.0322 10.5308 50.0322 14.0867C50.0322 17.9174 52.4646 19.2415 56.8917 20.3491C60.8322 21.2818 62.0403 22.1479 62.0403 24.0882C62.0403 26.0286 60.4187 27.2277 57.9133 27.2277C55.419 27.216 53.0189 26.2478 51.1835 24.5129L49.3592 26.7531C51.71 28.8277 54.7085 29.9656 57.8079 29.9592C62.2511 29.9592 65.1052 27.5026 65.1052 23.7051C65.0808 20.4907 63.2322 18.7668 58.4646 17.5843ZM159.094 8.35728L152.859 18.3505L146.665 8.35728H143.048L151.23 21.2235V29.6428H154.343V21.1236L162.581 8.35728H159.094ZM106.692 11.2386H113.478V29.6428H116.592V11.2386H123.378V8.35728H106.7L106.692 11.2386ZM137.778 21.3318C140.908 20.4407 142.643 18.1922 142.643 14.9778C142.643 10.8889 139.732 8.31564 135.038 8.31564H125.827V29.6261H128.908V21.9813H134.138L139.392 29.6428H142.992L137.316 21.465L137.778 21.3318ZM128.9 19.2499V11.172H134.713C137.746 11.172 139.481 12.646 139.481 15.2026C139.481 17.7592 137.624 19.2499 134.746 19.2499H128.9Z" fill="white"/>
</svg>
