<svg width="163" height="36" viewBox="0 0 163 36" fill="none" xmlns="http://www.w3.org/2000/svg">
<path d="M24.2258 2.06581C23.5444 0.934955 22.3205 0.24353 21.0003 0.24353C19.68 0.24353 18.4561 0.934955 17.7747 2.06581L12.4688 11.1537C20.717 15.2717 26.1643 23.4534 26.782 32.6518H23.0565C22.44 24.7675 17.6976 17.7981 10.5899 14.3308L5.67907 22.822C9.66976 24.6118 12.4747 28.3101 13.1219 32.6356H4.56627C4.36014 32.621 4.17524 32.5036 4.07447 32.3232C3.9737 32.1427 3.97063 31.9237 4.06631 31.7405L6.43706 27.7087C5.63386 27.0385 4.71589 26.5194 3.72763 26.1765L1.38107 30.2084C0.887621 31.0548 0.754011 32.0637 1.01013 33.0093C1.26624 33.955 1.89071 34.7585 2.74385 35.2402C3.30033 35.5538 3.92755 35.7203 4.56627 35.7241H16.2829C16.7255 30.2626 14.2784 24.9676 9.83192 21.7656L11.6947 18.5401C17.3081 22.3956 20.4665 28.9301 20.0004 35.7241H29.9269C30.3973 25.4298 25.3569 15.6624 16.6942 10.0812L20.46 3.63019C20.6346 3.33755 21.0125 3.24038 21.3067 3.41246C21.7341 3.64631 37.6681 31.4503 37.9665 31.7728C38.0735 31.9646 38.0696 32.1991 37.9563 32.3873C37.8431 32.5755 37.6377 32.6887 37.4181 32.684H33.5798C33.6282 33.7108 33.6282 34.7349 33.5798 35.7564H37.4343C38.4229 35.7628 39.373 35.3735 40.0728 34.6751C40.7727 33.9768 41.1641 33.0275 41.1598 32.0389C41.1602 31.3924 40.9876 30.7576 40.6598 30.2004L24.2258 2.06581ZM101.09 23.0478L89.1876 7.67821H86.2202V28.2812H89.228V12.4923L101.469 28.2812H104.098V7.67821H101.09V23.0478ZM71.1167 19.2255H81.7851V16.5484H71.1086V10.3473H83.1479V7.67014H68.0444V28.2812H83.3011V25.604H71.1086L71.1167 19.2255ZM58.5694 16.6129C54.4166 15.613 53.2554 14.8227 53.2554 12.9035C53.2554 11.1779 54.7795 10.0086 57.0534 10.0086C59.1243 10.0693 61.1217 10.7897 62.7545 12.0649L64.3673 9.78286C62.3002 8.16243 59.7358 7.30764 57.1099 7.36372C53.0296 7.36372 50.1831 9.78286 50.1831 13.2261C50.1831 16.9354 52.6022 18.2176 57.0051 19.2901C60.9241 20.1932 62.1256 21.0318 62.1256 22.9107C62.1256 24.7896 60.5128 25.9507 58.0211 25.9507C55.5404 25.9394 53.1535 25.0019 51.3282 23.322L49.5138 25.4911C51.8518 27.5 54.8338 28.6018 57.9163 28.5957C62.3352 28.5957 65.1737 26.2169 65.1737 22.5398C65.1495 19.4271 63.3109 17.7579 58.5694 16.6129ZM158.649 7.67821L152.448 17.3548L146.287 7.67821H142.691L150.827 20.1368V28.2892H153.924V20.04L162.117 7.67821H158.649ZM106.533 10.4683H113.282V28.2892H116.379V10.4683H123.128V7.67821H106.541L106.533 10.4683ZM137.449 20.2416C140.562 19.3788 142.288 17.2015 142.288 14.0889C142.288 10.1296 139.393 7.63789 134.724 7.63789H125.563V28.2731H128.628V20.8706H133.829L139.054 28.2892H142.634L136.99 20.3706L137.449 20.2416ZM128.62 18.2256V10.4038H134.401C137.417 10.4038 139.143 11.8311 139.143 14.3066C139.143 16.7822 137.296 18.2256 134.434 18.2256H128.62Z" fill="black"/>
</svg>
