<svg width="163" height="72" viewBox="0 0 163 72" fill="none" xmlns="http://www.w3.org/2000/svg">
<path d="M24.2258 20.0658C23.5444 18.935 22.3205 18.2435 21.0003 18.2435C19.68 18.2435 18.4561 18.935 17.7747 20.0658L12.4688 29.1537C20.717 33.2717 26.1643 41.4534 26.782 50.6518H23.0565C22.44 42.7675 17.6976 35.7981 10.5899 32.3308L5.67907 40.822C9.66976 42.6118 12.4747 46.3101 13.1219 50.6356H4.56627C4.36014 50.621 4.17524 50.5036 4.07447 50.3232C3.9737 50.1427 3.97063 49.9237 4.06631 49.7405L6.43706 45.7087C5.63386 45.0385 4.71589 44.5194 3.72763 44.1765L1.38107 48.2084C0.887621 49.0548 0.754011 50.0637 1.01013 51.0093C1.26624 51.955 1.89071 52.7585 2.74385 53.2402C3.30033 53.5538 3.92755 53.7203 4.56627 53.7241H16.2829C16.7255 48.2626 14.2784 42.9676 9.83192 39.7656L11.6947 36.5401C17.3081 40.3956 20.4665 46.9301 20.0004 53.7241H29.9269C30.3973 43.4298 25.3569 33.6624 16.6942 28.0812L20.46 21.6302C20.6346 21.3376 21.0125 21.2404 21.3067 21.4125C21.7341 21.6463 37.6681 49.4503 37.9665 49.7728C38.0735 49.9646 38.0696 50.1991 37.9563 50.3873C37.8431 50.5755 37.6377 50.6887 37.4181 50.684H33.5798C33.6282 51.7108 33.6282 52.7349 33.5798 53.7564H37.4343C38.4229 53.7628 39.373 53.3735 40.0728 52.6751C40.7727 51.9768 41.1641 51.0275 41.1598 50.0389C41.1602 49.3924 40.9876 48.7576 40.6598 48.2004L24.2258 20.0658ZM101.09 41.0478L89.1876 25.6782H86.2202V46.2812H89.228V30.4923L101.469 46.2812H104.098V25.6782H101.09V41.0478ZM71.1167 37.2255H81.7851V34.5484H71.1086V28.3473H83.1479V25.6701H68.0444V46.2812H83.3011V43.604H71.1086L71.1167 37.2255ZM58.5694 34.6129C54.4166 33.613 53.2554 32.8227 53.2554 30.9035C53.2554 29.1779 54.7795 28.0086 57.0534 28.0086C59.1243 28.0693 61.1217 28.7897 62.7545 30.0649L64.3673 27.7829C62.3002 26.1624 59.7358 25.3076 57.1099 25.3637C53.0296 25.3637 50.1831 27.7829 50.1831 31.2261C50.1831 34.9354 52.6022 36.2176 57.0051 37.2901C60.9241 38.1932 62.1256 39.0318 62.1256 40.9107C62.1256 42.7896 60.5128 43.9507 58.0211 43.9507C55.5404 43.9394 53.1535 43.0019 51.3282 41.322L49.5138 43.4911C51.8518 45.5 54.8338 46.6018 57.9163 46.5957C62.3352 46.5957 65.1737 44.2169 65.1737 40.5398C65.1495 37.4271 63.3109 35.7579 58.5694 34.6129ZM158.649 25.6782L152.448 35.3548L146.287 25.6782H142.691L150.827 38.1368V46.2892H153.924V38.04L162.117 25.6782H158.649ZM106.533 28.4683H113.282V46.2892H116.379V28.4683H123.128V25.6782H106.541L106.533 28.4683ZM137.449 38.2416C140.562 37.3788 142.288 35.2015 142.288 32.0889C142.288 28.1296 139.393 25.6379 134.724 25.6379H125.563V46.2731H128.628V38.8706H133.829L139.054 46.2892H142.634L136.99 38.3706L137.449 38.2416ZM128.62 36.2256V28.4038H134.401C137.417 28.4038 139.143 29.8311 139.143 32.3066C139.143 34.7822 137.296 36.2256 134.434 36.2256H128.62Z" fill="black"/>
</svg>
