<svg width="24" height="24" viewBox="0 0 24 24" fill="none" xmlns="http://www.w3.org/2000/svg">
<path d="M3.5 24C2.673 24 2 23.327 2 22.5V1.5C2 0.673 2.673 0 3.5 0H16.793C17.194 0 17.57 0.156 17.854 0.439L21.561 4.146C21.844 4.43 22 4.807 22 5.207V22.5C22 23.327 21.327 24 20.5 24H3.5ZM3.5 1C3.224 1 3 1.224 3 1.5V22.5C3 22.776 3.224 23 3.5 23H20.5C20.776 23 21 22.776 21 22.5V5.207C21 5.074 20.948 4.948 20.854 4.853L17.147 1.146C17.053 1.053 16.925 1 16.793 1H3.5Z" fill="#02A9F4"/>
<path d="M8 18.0002C6.897 18.0002 6 17.1032 6 16.0002C6 14.8972 6.897 14.0002 8 14.0002C8.357 14.0002 8.699 14.0932 9 14.2682V10.2542C9 9.5882 9.448 8.9952 10.088 8.8122L15.088 7.3832C15.223 7.3442 15.363 7.3252 15.502 7.3252C15.754 7.3252 16.005 7.3902 16.228 7.5142C16.578 7.7082 16.832 8.0282 16.942 8.4132C16.98 8.5472 17 8.6862 17 8.8262V15.0002C17 16.1032 16.103 17.0002 15 17.0002C13.897 17.0002 13 16.1032 13 15.0002C13 13.8972 13.897 13.0002 15 13.0002C15.357 13.0002 15.699 13.0932 16 13.2682V8.8262C16 8.7792 15.993 8.7322 15.981 8.6872C15.92 8.4742 15.722 8.3252 15.5 8.3252C15.454 8.3252 15.408 8.3312 15.363 8.3442L10.363 9.7732C10.149 9.8352 10 10.0322 10 10.2542V16.0002C10 17.1032 9.103 18.0002 8 18.0002ZM8 15.0002C7.449 15.0002 7 15.4482 7 16.0002C7 16.5522 7.449 17.0002 8 17.0002C8.551 17.0002 9 16.5522 9 16.0002C9 15.4482 8.551 15.0002 8 15.0002ZM15 14.0002C14.448 14.0002 14 14.4482 14 15.0002C14 15.5522 14.448 16.0002 15 16.0002C15.552 16.0002 16 15.5522 16 15.0002C16 14.4482 15.552 14.0002 15 14.0002Z" fill="#02A9F4"/>
</svg>
