<svg width="380" height="78" viewBox="0 0 380 78" fill="none" xmlns="http://www.w3.org/2000/svg">
<g clip-path="url(#clip0_6552_55874)">
<path fill-rule="evenodd" clip-rule="evenodd" d="M93.0606 64.8023C92.4564 65.4848 91.6808 65.8591 90.7339 65.9253L43.599 69.2213C42.6521 69.2875 41.8319 69.0248 41.1386 68.4331C40.4452 67.8414 40.0661 67.0806 40.001 66.1509L39.0764 52.9275C39.0643 52.7553 39.078 52.5727 39.1174 52.3796C39.1567 52.1865 39.2242 52.0175 39.3198 51.8724L45.3623 39.2518L45.3587 39.2002C45.6637 38.5214 46.1442 37.96 46.8004 37.5162C47.4566 37.0724 48.188 36.8223 48.9946 36.7658L80.8738 34.5366C81.6804 34.4802 82.4401 34.6347 83.1529 35.0001C83.8657 35.3656 84.4378 35.8619 84.8694 36.4892L92.6096 48.146L92.606 48.0943C92.6881 48.2616 92.7621 48.4381 92.828 48.6238C92.8938 48.8095 92.9328 48.9885 92.9448 49.1607L93.8695 62.384C93.9345 63.3138 93.6649 64.1199 93.0606 64.8023ZM61.2976 56.991L72.4773 56.2092C73.3828 56.1459 74.1436 55.7653 74.7598 55.0675C75.3759 54.3696 75.6508 53.5452 75.5843 52.5943C75.5523 52.1364 75.6085 51.6901 75.7531 51.2552C75.8977 50.8204 76.0995 50.4524 76.3584 50.1511C76.6497 49.8122 76.9894 49.5407 77.3776 49.3366C77.7658 49.1325 78.1863 49.0146 78.6391 48.983L86.841 48.4094C86.9803 48.3997 87.0985 48.3383 87.1956 48.2254C87.2927 48.1124 87.3351 47.9679 87.3228 47.7918L87.3135 47.6597C87.3098 47.6069 87.2893 47.564 87.252 47.5313L81.6051 38.8479C81.5629 38.7447 81.4964 38.6697 81.4057 38.623C81.3149 38.5763 81.2173 38.5565 81.1128 38.5638L50.1895 40.7793L50.0407 40.8096L49.9077 40.8786C49.8244 40.9376 49.7689 41.0211 49.7415 41.1292L45.4588 50.4537C45.4265 50.4914 45.4121 50.5366 45.4158 50.5895L45.4251 50.7215C45.4374 50.8976 45.4995 51.0349 45.6113 51.1332C45.7232 51.2316 45.8488 51.2759 45.9881 51.2661L54.1378 50.6963C55.0781 50.6305 55.8932 50.9009 56.5831 51.5074C57.273 52.1139 57.6512 52.8927 57.7177 53.8436C57.7842 54.7946 58.1711 55.5727 58.8784 56.178C59.5856 56.7833 60.392 57.0543 61.2976 56.991Z" fill="#D81B60"/>
<path fill-rule="evenodd" clip-rule="evenodd" d="M146.438 54.1661L144.609 51.6123L155.646 55.6123L144.609 59.6123L146.598 57.5794L126.05 60.0516L132.072 56.0299L126.05 52.0082L146.438 54.1661Z" fill="#FFC31D"/>
<path fill-rule="evenodd" clip-rule="evenodd" d="M187.341 74.6068L182.222 76.814L183.449 71.6351L179.607 67.7204L185.225 67.2499L187.969 62.6232L190.214 67.5113L195.753 68.5666L191.522 72.0582L192.201 77.337L187.341 74.6068Z" fill="#FFCE1D"/>
<path fill-rule="evenodd" clip-rule="evenodd" d="M333.328 67.3565L328.201 69.718L329.445 64.2123L325.615 60.0662L331.236 59.5479L333.995 54.6239L336.225 59.8094L341.761 60.9123L337.518 64.6353L338.18 70.241L333.328 67.3565Z" fill="#FFDA55"/>
<path fill-rule="evenodd" clip-rule="evenodd" d="M261.749 17.8544L254.52 21.0341L256.259 13.588L250.839 7.96615L258.772 7.28222L262.652 0.628031L265.816 7.65137L273.633 9.16074L267.656 14.1853L268.607 21.7724L261.749 17.8544Z" fill="#FFC31D"/>
<path fill-rule="evenodd" clip-rule="evenodd" d="M252.433 76.3592L249.718 77.6094L250.377 74.6946L248.349 72.4996L251.325 72.2253L252.786 69.6184L253.966 72.3637L256.897 72.9476L254.651 74.9186L255.001 77.8863L252.433 76.3592Z" fill="#FFF7D8"/>
<path fill-rule="evenodd" clip-rule="evenodd" d="M201.893 27.6082L198.274 29.2752L199.153 25.3888L196.449 22.4621L200.416 22.0963L202.364 18.6205L203.938 22.2809L207.846 23.0594L204.851 25.6874L205.318 29.6443L201.893 27.6082Z" fill="#FFE277"/>
<path fill-rule="evenodd" clip-rule="evenodd" d="M287.06 72.6583L281.894 72.0063L286.77 67.4596L287.06 72.6583Z" fill="#E1E1E1"/>
<path d="M263.443 65.7188C263.443 65.7188 280.783 66.2272 285.555 70.8425" stroke="#E1E1E1"/>
<path fill-rule="evenodd" clip-rule="evenodd" d="M287.181 49.485L282.709 52.1516L283.752 45.567L287.181 49.485Z" fill="#E1E1E1"/>
<path d="M265.872 48.6862C265.872 48.6862 282.287 48.1403 284.303 48.7147" stroke="#E1E1E1"/>
<path fill-rule="evenodd" clip-rule="evenodd" d="M286.972 25.1782L288.2 30.0422L282.481 27.3577L286.972 25.1782Z" fill="#E1E1E1"/>
<path d="M265.406 39.5281C265.406 39.5281 283.22 32.8588 286.273 27.5357" stroke="#E1E1E1"/>
<path fill-rule="evenodd" clip-rule="evenodd" d="M251.12 61.7142C250.493 62.313 249.723 62.6123 248.809 62.6123H203.309C202.395 62.6123 201.625 62.313 200.999 61.7142C200.372 61.1155 200.059 60.3793 200.059 59.5055V47.0783C200.059 46.9165 200.084 46.7466 200.135 46.5686C200.186 46.3906 200.262 46.2369 200.364 46.1075L207.016 34.6997V34.6511C207.355 34.0363 207.854 33.5427 208.514 33.1706C209.174 32.7984 209.894 32.6123 210.672 32.6123H241.446C242.224 32.6123 242.944 32.8065 243.604 33.1948C244.264 33.5832 244.78 34.0848 245.153 34.6997L251.805 46.1075V46.0589C251.873 46.2207 251.932 46.3906 251.983 46.5686C252.034 46.7466 252.059 46.9165 252.059 47.0783V59.5055C252.059 60.3793 251.746 61.1155 251.12 61.7142ZM220.089 52.6123H231.029C231.915 52.6123 232.682 52.3049 233.33 51.6902C233.977 51.0754 234.301 50.3195 234.301 49.4223C234.301 48.9903 234.386 48.5749 234.557 48.1762C234.727 47.7774 234.949 47.4451 235.221 47.1793C235.528 46.8802 235.877 46.6476 236.269 46.4815C236.661 46.3153 237.079 46.2322 237.522 46.2322H245.548C245.684 46.2322 245.803 46.1824 245.906 46.0827C246.008 45.983 246.059 45.8501 246.059 45.684V45.5593C246.059 45.5095 246.042 45.468 246.008 45.4347L241.1 36.9114C241.066 36.8117 241.007 36.7369 240.921 36.6871C240.836 36.6372 240.742 36.6123 240.64 36.6123L210.376 36.6621L210.229 36.6808L210.095 36.7369C210.009 36.7868 209.95 36.8615 209.916 36.9612L205.11 45.4347C205.076 45.468 205.059 45.5095 205.059 45.5593V45.684C205.059 45.8501 205.11 45.983 205.212 46.0827C205.315 46.1824 205.434 46.2322 205.57 46.2322H213.545C214.466 46.2322 215.241 46.5396 215.871 47.1544C216.502 47.7691 216.817 48.5251 216.817 49.4223C216.817 50.3195 217.141 51.0754 217.789 51.6902C218.436 52.3049 219.203 52.6123 220.089 52.6123Z" fill="#D81B60"/>
<path fill-rule="evenodd" clip-rule="evenodd" d="M318.053 74.7765C317.807 75.0537 317.491 75.2059 317.105 75.2329L297.902 76.5757C297.516 76.6026 297.182 76.496 296.9 76.2556C296.617 76.0153 296.463 75.7063 296.437 75.3286L296.061 69.9566C296.056 69.8866 296.062 69.8124 296.078 69.734C296.094 69.6556 296.121 69.5869 296.16 69.5279L298.623 64.4003L298.621 64.3793C298.746 64.1035 298.942 63.8754 299.209 63.695C299.476 63.5147 299.774 63.413 300.103 63.39L313.091 62.4818C313.419 62.4588 313.729 62.5216 314.019 62.6699C314.31 62.8183 314.543 63.0199 314.718 63.2748L317.871 68.0097L317.869 67.9888C317.903 68.0567 317.933 68.1284 317.96 68.2039C317.987 68.2793 318.002 68.352 318.007 68.4219L318.383 73.7939C318.409 74.1717 318.299 74.4992 318.053 74.7765ZM304.759 71.084L309.551 70.7489C309.939 70.7218 310.266 70.5833 310.534 70.3335C310.801 70.0837 310.923 69.791 310.9 69.4554C310.889 69.2938 310.915 69.1358 310.979 68.9814C311.044 68.827 311.132 68.6959 311.244 68.5881C311.371 68.4668 311.518 68.3691 311.685 68.295C311.852 68.2208 312.033 68.177 312.227 68.1634L315.742 67.9176C315.802 67.9134 315.853 67.8911 315.895 67.8507C315.937 67.8103 315.956 67.759 315.952 67.6968L315.948 67.6502C315.947 67.6316 315.939 67.6166 315.923 67.6052L313.551 64.567C313.533 64.5307 313.505 64.5046 313.466 64.4886C313.428 64.4725 313.386 64.4661 313.341 64.4692L300.088 65.4147L300.024 65.4262L299.967 65.4513C299.931 65.4725 299.907 65.5023 299.894 65.5407L298.011 68.8576C297.997 68.8711 297.991 68.8872 297.992 68.9058L297.996 68.9524C298 69.0146 298.026 69.0628 298.073 69.0969C298.121 69.1311 298.174 69.1461 298.234 69.1419L301.727 68.8977C302.13 68.8695 302.477 68.9607 302.769 69.1714C303.062 69.382 303.219 69.6552 303.243 69.9908C303.266 70.3264 303.428 70.5993 303.728 70.8095C304.027 71.0196 304.371 71.1111 304.759 71.084Z" fill="#0091FF"/>
<path fill-rule="evenodd" clip-rule="evenodd" d="M318.433 53.8972C318.159 54.1473 317.829 54.2655 317.443 54.252L298.204 53.5802C297.818 53.5667 297.497 53.4257 297.241 53.1572C296.985 52.8887 296.864 52.5652 296.877 52.1868L297.065 46.805C297.068 46.7349 297.081 46.6617 297.105 46.5853C297.129 46.509 297.164 46.4436 297.209 46.389L300.194 41.5469L300.195 41.5258C300.347 41.2645 300.566 41.0582 300.85 40.9068C301.135 40.7553 301.442 40.6854 301.771 40.6969L314.783 41.1512C315.112 41.1627 315.414 41.2575 315.687 41.4354C315.96 41.6133 316.171 41.8382 316.319 42.11L318.959 47.1485L318.96 47.1275C318.986 47.1986 319.008 47.273 319.027 47.3509C319.046 47.4287 319.054 47.5027 319.052 47.5727L318.864 52.9546C318.851 53.333 318.707 53.6472 318.433 53.8972ZM305.598 48.8354L310.398 49.003C310.787 49.0166 311.127 48.9131 311.42 48.6927C311.712 48.4722 311.864 48.1938 311.875 47.8576C311.881 47.6957 311.924 47.5413 312.004 47.3945C312.084 47.2477 312.185 47.1265 312.308 47.0311C312.447 46.9237 312.603 46.8419 312.777 46.7856C312.952 46.7294 313.136 46.7046 313.33 46.7114L316.852 46.8344C316.912 46.8365 316.965 46.8196 317.011 46.7838C317.057 46.748 317.081 46.699 317.083 46.6367L317.085 46.59C317.086 46.5713 317.079 46.5555 317.064 46.5425L315.022 43.273C315.009 43.2352 314.983 43.2062 314.947 43.1862C314.91 43.1662 314.869 43.1555 314.824 43.1539L301.545 42.7089L301.48 42.7136L301.421 42.7326C301.383 42.75 301.355 42.7771 301.339 42.8139L299.12 45.9159C299.104 45.9279 299.096 45.9432 299.096 45.9618L299.094 46.0085C299.092 46.0708 299.113 46.1214 299.156 46.1603C299.2 46.1993 299.252 46.2198 299.311 46.2219L302.81 46.344C303.214 46.3581 303.55 46.4852 303.819 46.7253C304.088 46.9653 304.216 47.2535 304.204 47.5897C304.192 47.926 304.325 48.2142 304.601 48.4545C304.877 48.6949 305.209 48.8218 305.598 48.8354Z" fill="#003A62"/>
<path fill-rule="evenodd" clip-rule="evenodd" d="M318.006 31.7594C317.69 31.9526 317.343 32.0057 316.966 31.9187L298.21 27.5884C297.833 27.5014 297.545 27.3017 297.345 26.9893C297.145 26.6769 297.088 26.3363 297.173 25.9673L298.384 20.7202C298.4 20.6519 298.427 20.5826 298.465 20.5123C298.504 20.442 298.55 20.3843 298.605 20.3393L302.459 16.1558L302.464 16.1353C302.663 15.9079 302.917 15.747 303.225 15.6527C303.534 15.5584 303.849 15.5483 304.17 15.6224L316.855 18.5511C317.176 18.6253 317.454 18.7757 317.688 19.0025C317.923 19.2293 318.087 19.4902 318.18 19.7853L319.81 25.2351L319.815 25.2146C319.827 25.2893 319.835 25.3667 319.839 25.4467C319.842 25.5267 319.836 25.6009 319.82 25.6692L318.609 30.9163C318.524 31.2852 318.323 31.5663 318.006 31.7594ZM306.373 24.3415L311.053 25.4219C311.432 25.5095 311.786 25.4729 312.115 25.3122C312.444 25.1515 312.646 24.9073 312.722 24.5795C312.758 24.4216 312.829 24.2783 312.936 24.1494C313.043 24.0205 313.165 23.921 313.304 23.8508C313.461 23.7718 313.63 23.7213 313.812 23.6993C313.993 23.6773 314.179 23.6882 314.368 23.7319L317.802 24.5246C317.86 24.5381 317.915 24.5316 317.967 24.5053C318.02 24.479 318.053 24.4355 318.067 24.3747L318.077 24.3292C318.081 24.311 318.078 24.2941 318.066 24.2786L316.685 20.6796C316.679 20.6398 316.66 20.6066 316.628 20.58C316.596 20.5534 316.558 20.535 316.514 20.5249L303.563 17.5542L303.499 17.5465L303.437 17.5538C303.396 17.5636 303.364 17.585 303.341 17.6181L300.571 20.2396C300.554 20.2484 300.543 20.2619 300.539 20.2801L300.528 20.3256C300.514 20.3863 300.525 20.44 300.56 20.4865C300.595 20.533 300.642 20.563 300.7 20.5765L304.112 21.3641C304.506 21.4549 304.811 21.6438 305.029 21.9307C305.247 22.2176 305.318 22.525 305.242 22.8528C305.167 23.1806 305.242 23.4888 305.467 23.7774C305.692 24.066 305.994 24.254 306.373 24.3415Z" fill="#44D7B6"/>
</g>
<defs>
</defs>
</svg>
