<svg width="24" height="24" viewBox="0 0 24 24" fill="none" xmlns="http://www.w3.org/2000/svg">
<path d="M12 17.615C11.93 17.615 11.86 17.6 11.793 17.569C11.776 17.561 11.744 17.541 11.729 17.529C11.714 17.52 11.679 17.498 11.644 17.462C11.63 17.45 11.618 17.437 11.608 17.425L7.60997 12.427C7.52697 12.323 7.48897 12.192 7.50297 12.059C7.51797 11.926 7.58297 11.807 7.68797 11.724C7.77597 11.654 7.88697 11.615 7.99997 11.615C8.15297 11.615 8.29497 11.683 8.39097 11.803L11.5 15.69V0.5C11.5 0.224 11.724 0 12 0C12.276 0 12.5 0.224 12.5 0.5V15.69L15.609 11.803C15.705 11.683 15.848 11.615 16 11.615C16.113 11.615 16.223 11.654 16.312 11.724C16.528 11.896 16.562 12.212 16.391 12.427L12.391 17.427C12.381 17.439 12.369 17.452 12.356 17.463C12.321 17.498 12.285 17.522 12.26 17.537C12.261 17.537 12.239 17.555 12.205 17.57C12.14 17.6 12.07 17.615 12 17.615Z" fill="#000000"/>
<path d="M5 24C4.173 24 3.5 23.327 3.5 22.5V8.5C3.5 7.673 4.173 7 5 7H9.5C9.776 7 10 7.224 10 7.5C10 7.776 9.776 8 9.5 8H5C4.724 8 4.5 8.224 4.5 8.5V22.5C4.5 22.776 4.724 23 5 23H19C19.276 23 19.5 22.776 19.5 22.5V8.5C19.5 8.224 19.276 8 19 8H14.5C14.224 8 14 7.776 14 7.5C14 7.224 14.224 7 14.5 7H19C19.827 7 20.5 7.673 20.5 8.5V22.5C20.5 23.327 19.827 24 19 24H5Z" fill="#000000"/>
</svg>
