<svg width="24" height="24" viewBox="0 0 24 24" fill="none" xmlns="http://www.w3.org/2000/svg">
<path d="M11.9998 17.615C11.9298 17.615 11.8598 17.6 11.7928 17.569C11.7758 17.561 11.7438 17.541 11.7288 17.529C11.7138 17.52 11.6788 17.498 11.6438 17.462C11.6298 17.45 11.6178 17.437 11.6078 17.425L7.60984 12.427C7.52684 12.323 7.48884 12.192 7.50284 12.059C7.51784 11.926 7.58284 11.807 7.68784 11.724C7.77584 11.654 7.88684 11.615 7.99984 11.615C8.15284 11.615 8.29484 11.683 8.39084 11.803L11.4998 15.69V0.5C11.4998 0.224 11.7238 0 11.9998 0C12.2758 0 12.4998 0.224 12.4998 0.5V15.69L15.6088 11.803C15.7048 11.683 15.8478 11.615 15.9998 11.615C16.1128 11.615 16.2228 11.654 16.3118 11.724C16.5278 11.896 16.5618 12.212 16.3908 12.427L12.3908 17.427C12.3808 17.439 12.3688 17.452 12.3558 17.463C12.3208 17.498 12.2848 17.522 12.2598 17.537C12.2608 17.537 12.2388 17.555 12.2048 17.57C12.1398 17.6 12.0698 17.615 11.9998 17.615Z" fill="#0098FF"/>
<path d="M5 24C4.173 24 3.5 23.327 3.5 22.5V8.5C3.5 7.673 4.173 7 5 7H9.5C9.776 7 10 7.224 10 7.5C10 7.776 9.776 8 9.5 8H5C4.724 8 4.5 8.224 4.5 8.5V22.5C4.5 22.776 4.724 23 5 23H19C19.276 23 19.5 22.776 19.5 22.5V8.5C19.5 8.224 19.276 8 19 8H14.5C14.224 8 14 7.776 14 7.5C14 7.224 14.224 7 14.5 7H19C19.827 7 20.5 7.673 20.5 8.5V22.5C20.5 23.327 19.827 24 19 24H5Z" fill="#0098FF"/>
</svg>
