<svg width="92" height="64" viewBox="0 0 92 64" fill="none" xmlns="http://www.w3.org/2000/svg">
<path d="M0.285706 3.93814C0.285706 1.76289 2.09785 -0.000488281 4.33324 -0.000488281H32.6309C33.9246 -0.000488281 35.1404 0.601305 35.9022 1.61878L42.0784 9.86742C42.8402 10.8849 44.056 11.4867 45.3497 11.4867H87.3078C89.5432 11.4867 91.3553 13.2501 91.3553 15.4253V60.0609C91.3553 62.2361 89.5432 63.9995 87.3078 63.9995H4.33324C2.09785 63.9995 0.285706 62.2361 0.285706 60.0609V3.93814Z" fill="#333333"/>
<path fill-rule="evenodd" clip-rule="evenodd" d="M91.2099 60.0609V15.4253C91.2099 13.5211 89.6236 11.9774 87.6667 11.9774H45.7086C44.2537 11.9774 42.8864 11.3007 42.0297 10.1564L35.8535 1.90777C35.1866 1.01707 34.1223 0.490261 32.9898 0.490261H4.69217C2.73531 0.490261 1.14896 2.03393 1.14896 3.93814V60.0609C1.14896 61.9651 2.73531 63.5087 4.69217 63.5087H87.6667C89.6236 63.5087 91.2099 61.9651 91.2099 60.0609ZM4.69217 -0.000488281C2.45678 -0.000488281 0.644638 1.76289 0.644638 3.93814V60.0609C0.644638 62.2361 2.45678 63.9995 4.69217 63.9995H87.6667C89.9021 63.9995 91.7142 62.2361 91.7142 60.0609V15.4253C91.7142 13.2501 89.9021 11.4867 87.6667 11.4867H45.7086C44.4149 11.4867 43.1991 10.8849 42.4373 9.86742L36.2611 1.61878C35.4993 0.601305 34.2835 -0.000488281 32.9898 -0.000488281H4.69217Z" fill="#666666"/>
</svg>
