<svg width="22" height="21" viewBox="0 0 22 21" fill="none" xmlns="http://www.w3.org/2000/svg">
<path opacity="0.504232" fill-rule="evenodd" clip-rule="evenodd" d="M8.24512 1.45197C8.24512 0.7304 8.96274 0.241362 9.61319 0.519672L11.3153 1.24797C11.5758 1.35944 11.7773 1.57974 11.8687 1.85319L12.5454 3.8779C12.6544 4.20384 12.918 4.45052 13.245 4.53236L20.327 6.30518C20.7689 6.4158 21.0797 6.82113 21.0797 7.28674V15.7444C21.0797 16.4242 20.4369 16.9101 19.8021 16.7102L8.94205 13.2901C8.5278 13.1596 8.24512 12.7679 8.24512 12.3243V1.45197Z" fill="#A2BFFF"/>
<path opacity="0.8" fill-rule="evenodd" clip-rule="evenodd" d="M5.77734 3.47248C5.77734 2.75091 6.49497 2.26187 7.14541 2.54018L8.84755 3.26848C9.10806 3.37995 9.30948 3.60025 9.40088 3.87369L10.0776 5.8984C10.1866 6.22435 10.4503 6.47103 10.7772 6.55287L17.8592 8.32569C18.3011 8.43631 18.6119 8.84164 18.6119 9.30724V17.7649C18.6119 18.4447 17.9692 18.9306 17.3343 18.7307L6.47428 15.3106C6.06002 15.1801 5.77734 14.7884 5.77734 14.3448V3.47248Z" fill="#A0BDFF"/>
<path fill-rule="evenodd" clip-rule="evenodd" d="M3.30859 5.19123C3.30859 4.46966 4.02622 3.98062 4.67666 4.25893L6.3788 4.98723C6.63931 5.0987 6.84073 5.319 6.93213 5.59244L7.60889 7.61715C7.71784 7.9431 7.98152 8.18978 8.30846 8.27162L15.3905 10.0444C15.8323 10.1551 16.1432 10.5604 16.1432 11.026V19.4836C16.1432 20.1635 15.5004 20.6494 14.8656 20.4494L4.00553 17.0293C3.59127 16.8989 3.30859 16.5071 3.30859 16.0635V5.19123Z" fill="#1A47FF"/>
<path fill-rule="evenodd" clip-rule="evenodd" d="M0.977862 10.0493C0.712102 9.27863 1.40371 8.52065 2.17309 8.73939L13.1423 11.858C13.4734 11.9522 13.7329 12.2158 13.8273 12.554L15.8935 19.9557C16.0012 20.3412 15.6482 20.6953 15.2737 20.5774L3.78415 16.959C3.48524 16.8649 3.24758 16.6314 3.1435 16.3295L0.977862 10.0493Z" fill="#5287FF"/>
</svg>
