<svg width="404" height="311" viewBox="0 0 404 311" fill="none" xmlns="http://www.w3.org/2000/svg">
<g filter="url(#filter0_d_4735_49404)">
<rect x="5" y="5" width="393" height="300" rx="10" fill="white"/>
</g>
<mask id="mask0_4735_49404" style="mask-type:alpha" maskUnits="userSpaceOnUse" x="5" y="5" width="393" height="300">
<rect x="5" y="5" width="393" height="300" rx="10" fill="#C4C4C4"/>
</mask>
<g mask="url(#mask0_4735_49404)">
<g filter="url(#filter1_d_4735_49404)">
<path d="M399 5H14.9999C9.47704 5 4.99988 9.47715 4.99988 15V295C4.99988 300.523 9.47703 305 14.9999 305H399V5Z" fill="white"/>
</g>
<path d="M375.906 33.618L377.271 37.8199L377.384 38.1654H377.747H382.165L378.591 40.7623L378.297 40.9759L378.409 41.3213L379.774 45.5232L376.2 42.9263L375.906 42.7128L375.612 42.9263L372.038 45.5232L373.403 41.3213L373.515 40.9759L373.221 40.7623L369.647 38.1654H374.065H374.428L374.541 37.8199L375.906 33.618Z" stroke="#C4C4C4"/>
<rect x="62.9999" y="41" width="220" height="7" rx="3.5" fill="#C4C4C4"/>
<rect x="62.9999" y="20" width="60" height="13" rx="6.5" fill="#9F9F9F"/>
<rect x="344.89" y="21.2207" width="37.3513" height="7.28806" rx="3.64403" fill="#C4C4C4"/>
<circle cx="39.7273" cy="34.8181" r="3.72727" fill="#F2357A"/>
<path d="M375.906 76.618L377.271 80.8199L377.384 81.1654H377.747H382.165L378.591 83.7623L378.297 83.9759L378.409 84.3213L379.774 88.5232L376.2 85.9263L375.906 85.7128L375.612 85.9263L372.038 88.5232L373.403 84.3213L373.515 83.9759L373.221 83.7623L369.647 81.1654H374.065H374.428L374.541 80.8199L375.906 76.618Z" stroke="#C4C4C4"/>
<rect x="62.9999" y="84" width="220" height="7" rx="3.5" fill="#C4C4C4"/>
<rect x="62.9999" y="63" width="60" height="13" rx="6.5" fill="#9F9F9F"/>
<rect x="344.89" y="64.2207" width="37.3513" height="7.28806" rx="3.64403" fill="#C4C4C4"/>
<circle cx="39.7273" cy="77.8181" r="3.72727" fill="#F2357A"/>
<path d="M375.906 119.618L377.271 123.82L377.384 124.165H377.747H382.165L378.591 126.762L378.297 126.976L378.409 127.321L379.774 131.523L376.2 128.926L375.906 128.713L375.612 128.926L372.038 131.523L373.403 127.321L373.515 126.976L373.221 126.762L369.647 124.165H374.065H374.428L374.541 123.82L375.906 119.618Z" stroke="#C4C4C4"/>
<rect x="62.9999" y="127" width="220" height="7" rx="3.5" fill="#C4C4C4"/>
<rect x="62.9999" y="106" width="60" height="13" rx="6.5" fill="#9F9F9F"/>
<rect x="344.89" y="107.221" width="37.3513" height="7.28806" rx="3.64403" fill="#C4C4C4"/>
<circle cx="39.7273" cy="120.818" r="3.72727" fill="#F2357A"/>
<path d="M375.906 162.618L377.271 166.82L377.384 167.165H377.747H382.165L378.591 169.762L378.297 169.976L378.409 170.321L379.774 174.523L376.2 171.926L375.906 171.713L375.612 171.926L372.038 174.523L373.403 170.321L373.515 169.976L373.221 169.762L369.647 167.165H374.065H374.428L374.541 166.82L375.906 162.618Z" stroke="#C4C4C4"/>
<rect x="62.9999" y="170" width="220" height="7" rx="3.5" fill="#C4C4C4"/>
<rect x="62.9999" y="149" width="60" height="13" rx="6.5" fill="#9F9F9F"/>
<rect x="344.89" y="150.221" width="37.3513" height="7.28806" rx="3.64403" fill="#C4C4C4"/>
<circle cx="39.7273" cy="163.818" r="3.72727" fill="#F2357A"/>
<path d="M375.906 205.618L377.271 209.82L377.384 210.165H377.747H382.165L378.591 212.762L378.297 212.976L378.409 213.321L379.774 217.523L376.2 214.926L375.906 214.713L375.612 214.926L372.038 217.523L373.403 213.321L373.515 212.976L373.221 212.762L369.647 210.165H374.065H374.428L374.541 209.82L375.906 205.618Z" stroke="#C4C4C4"/>
<rect x="62.9999" y="213" width="220" height="7" rx="3.5" fill="#C4C4C4"/>
<rect x="62.9999" y="192" width="60" height="13" rx="6.5" fill="#9F9F9F"/>
<rect x="344.89" y="193.221" width="37.3513" height="7.28806" rx="3.64403" fill="#C4C4C4"/>
<circle cx="39.7273" cy="206.818" r="3.72727" fill="#F2357A"/>
<path d="M375.906 248.618L377.271 252.82L377.384 253.165H377.747H382.165L378.591 255.762L378.297 255.976L378.409 256.321L379.774 260.523L376.2 257.926L375.906 257.713L375.612 257.926L372.038 260.523L373.403 256.321L373.515 255.976L373.221 255.762L369.647 253.165H374.065H374.428L374.541 252.82L375.906 248.618Z" stroke="#C4C4C4"/>
<rect x="62.9999" y="256" width="220" height="7" rx="3.5" fill="#C4C4C4"/>
<rect x="62.9999" y="235" width="60" height="13" rx="6.5" fill="#9F9F9F"/>
<rect x="344.89" y="236.221" width="37.3513" height="7.28806" rx="3.64403" fill="#C4C4C4"/>
<circle cx="39.7273" cy="249.818" r="3.72727" fill="#F2357A"/>
<path d="M375.906 291.618L377.271 295.82L377.384 296.165H377.747H382.165L378.591 298.762L378.297 298.976L378.409 299.321L379.774 303.523L376.2 300.926L375.906 300.713L375.612 300.926L372.038 303.523L373.403 299.321L373.515 298.976L373.221 298.762L369.647 296.165H374.065H374.428L374.541 295.82L375.906 291.618Z" stroke="#C4C4C4"/>
<rect x="62.9999" y="299" width="220" height="7" rx="3.5" fill="#C4C4C4"/>
<rect x="62.9999" y="278" width="60" height="13" rx="6.5" fill="#9F9F9F"/>
<rect x="344.89" y="279.221" width="37.3513" height="7.28806" rx="3.64403" fill="#C4C4C4"/>
<circle cx="39.7273" cy="292.818" r="3.72727" fill="#F2357A"/>
</g>
<defs>
<filter id="filter0_d_4735_49404" x="0.5" y="0.5" width="403" height="310" filterUnits="userSpaceOnUse" color-interpolation-filters="sRGB">
<feFlood flood-opacity="0" result="BackgroundImageFix"/>
<feColorMatrix in="SourceAlpha" type="matrix" values="0 0 0 0 0 0 0 0 0 0 0 0 0 0 0 0 0 0 127 0" result="hardAlpha"/>
<feOffset dx="0.5" dy="0.5"/>
<feGaussianBlur stdDeviation="2.5"/>
<feComposite in2="hardAlpha" operator="out"/>
<feColorMatrix type="matrix" values="0 0 0 0 0 0 0 0 0 0 0 0 0 0 0 0 0 0 0.1 0"/>
<feBlend mode="normal" in2="BackgroundImageFix" result="effect1_dropShadow_4735_49404"/>
<feBlend mode="normal" in="SourceGraphic" in2="effect1_dropShadow_4735_49404" result="shape"/>
</filter>
<filter id="filter1_d_4735_49404" x="1.99988" y="3" width="400" height="306" filterUnits="userSpaceOnUse" color-interpolation-filters="sRGB">
<feFlood flood-opacity="0" result="BackgroundImageFix"/>
<feColorMatrix in="SourceAlpha" type="matrix" values="0 0 0 0 0 0 0 0 0 0 0 0 0 0 0 0 0 0 127 0" result="hardAlpha"/>
<feOffset dy="1"/>
<feGaussianBlur stdDeviation="1.5"/>
<feComposite in2="hardAlpha" operator="out"/>
<feColorMatrix type="matrix" values="0 0 0 0 0 0 0 0 0 0 0 0 0 0 0 0 0 0 0.33 0"/>
<feBlend mode="normal" in2="BackgroundImageFix" result="effect1_dropShadow_4735_49404"/>
<feBlend mode="normal" in="SourceGraphic" in2="effect1_dropShadow_4735_49404" result="shape"/>
</filter>
</defs>
</svg>
