<svg width="24" height="24" viewBox="0 0 24 24" fill="none" xmlns="http://www.w3.org/2000/svg">
<path d="M13.9217 2.01165C13.7839 1.75175 13.5947 1.52261 13.3655 1.33816C13.1363 1.15372 12.872 1.01784 12.5887 0.938781C12.3053 0.859724 12.0088 0.839148 11.7173 0.878304C11.4257 0.91746 11.1452 1.01553 10.8927 1.16654C10.553 1.3723 10.2734 1.66374 10.0819 2.01165L6.9209 7.71824L7.72743 8.20079C9.97136 9.58177 11.8459 11.4875 13.1897 13.7539C14.5335 16.0203 15.3063 18.5794 15.4414 21.2108H13.2223C13.0858 18.9786 12.4136 16.8121 11.2626 14.8947C10.1116 12.9773 8.51563 11.3653 6.60977 10.1953L5.80323 9.71443L2.85823 15.0508L3.66476 15.5325C4.6536 16.149 5.49201 16.9789 6.11859 17.9614C6.74518 18.9439 7.14406 20.0541 7.28602 21.2108H2.21797C2.11901 21.2103 2.02427 21.1706 1.95453 21.1004C1.88479 21.0302 1.84576 20.9352 1.84599 20.8362C1.84505 20.767 1.86218 20.6988 1.8957 20.6382L3.30821 18.0875C2.83494 17.6705 2.28823 17.3453 1.69599 17.1284L0.298059 19.6731C0.00307561 20.2036 -0.076643 20.8272 0.0754049 21.4148C0.227453 22.0024 0.599624 22.509 1.11488 22.8298C1.44802 23.0302 1.82923 23.1365 2.21797 23.1375H9.19308V22.1759C9.20198 20.6682 8.86082 19.179 8.19644 17.8256C7.53207 16.4721 6.56261 15.2914 5.3644 14.3762L6.47863 12.3723C8.01347 13.501 9.25948 14.9768 10.1148 16.6792C10.9702 18.3816 11.4106 20.2621 11.4001 22.1673V23.1324H17.3141V22.169C17.3302 19.1958 16.6213 16.2636 15.2488 13.6261C13.8763 10.9886 11.8816 8.72545 9.43735 7.03256L11.6812 2.97589C11.7041 2.93312 11.7354 2.89543 11.7732 2.8651C11.811 2.83477 11.8546 2.81244 11.9014 2.79946C11.9481 2.78648 11.9969 2.78312 12.045 2.78958C12.0931 2.79603 12.1393 2.81218 12.1809 2.83704C12.237 2.87074 12.2831 2.91864 12.3146 2.97589L22.0968 20.6382C22.1455 20.7256 22.1589 20.8283 22.1342 20.9253C22.1095 21.0222 22.0485 21.106 21.9639 21.1593C21.9071 21.1946 21.8413 21.2124 21.7745 21.2108H19.486C19.5143 21.8553 19.5177 22.4964 19.486 23.141H21.7822C22.3827 23.1281 22.9535 22.8775 23.3693 22.444C23.785 22.0106 24.0117 21.4298 23.9995 20.8293C24.0001 20.4256 23.898 20.0283 23.703 19.6748L13.9217 2.01165Z" fill="black"/>
</svg>
