<svg width="24" height="22" viewBox="0 0 24 22" fill="none" xmlns="http://www.w3.org/2000/svg">
<path d="M13.9095 1.50522C13.7099 1.17393 13.428 0.899859 13.0912 0.709605C12.7545 0.51935 12.3743 0.419373 11.9875 0.419373C11.6007 0.419373 11.2205 0.51935 10.8837 0.709605C10.5469 0.899859 10.2651 1.17393 10.0655 1.50522L6.90377 6.92046C9.31918 8.12637 11.3771 9.94312 12.8733 12.1903C14.3695 14.4375 15.2518 17.037 15.4327 19.7306H13.2127C13.0322 17.4217 12.2519 15.1999 10.949 13.2851C9.64605 11.3704 7.86574 9.82904 5.78421 8.81363L2.85796 13.8733C4.02814 14.3981 5.04759 15.2087 5.82257 16.2305C6.59755 17.2524 7.10319 18.4526 7.29298 19.721H2.19487C2.13441 19.7167 2.07596 19.6975 2.0248 19.6649C1.97364 19.6324 1.93138 19.5877 1.90182 19.5348C1.87226 19.4819 1.85634 19.4224 1.85549 19.3618C1.85464 19.3012 1.86889 19.2414 1.89696 19.1876L3.30963 16.7851C2.83102 16.3858 2.28403 16.0765 1.69515 15.8722L0.296894 18.2747C0.151328 18.5244 0.056828 18.8005 0.018883 19.087C-0.0190619 19.3735 0.000304651 19.6647 0.0758578 19.9437C0.151411 20.2226 0.281644 20.4838 0.458992 20.712C0.63634 20.9402 0.857267 21.1309 1.10894 21.273C1.44053 21.4598 1.81427 21.5591 2.19487 21.5613H9.17654C9.30621 19.9613 9.02047 18.3549 8.34702 16.8977C7.67357 15.4405 6.63521 14.1819 5.33254 13.2438L6.44249 11.3218C8.08649 12.451 9.40765 13.9893 10.2756 15.785C11.1435 17.5806 11.5282 19.5716 11.3916 21.5613H17.3066C17.4444 18.5471 16.7886 15.5496 15.4049 12.8682C14.0212 10.1868 11.9581 7.91558 9.4216 6.2814L11.6655 2.43739C11.7155 2.35362 11.7966 2.29298 11.8911 2.26868C11.9856 2.24439 12.0858 2.25839 12.1701 2.30766C12.4247 2.447 21.9194 19.0147 22.0972 19.2069C22.1285 19.263 22.1445 19.3265 22.1434 19.3907C22.1423 19.455 22.1243 19.5179 22.0912 19.573C22.058 19.6281 22.0109 19.6735 21.9546 19.7045C21.8983 19.7356 21.8347 19.7512 21.7705 19.7498H19.4833C19.5121 20.3617 19.5121 20.9719 19.4833 21.5805H21.7801C22.0717 21.5824 22.3609 21.5265 22.6307 21.4159C22.9006 21.3053 23.1459 21.1423 23.3523 20.9363C23.5588 20.7303 23.7223 20.4854 23.8335 20.2157C23.9447 19.9461 24.0013 19.6571 24 19.3654C24.0003 18.9802 23.8974 18.6019 23.7021 18.2699L13.9095 1.50522Z" fill="white"/>
</svg>
