<svg width="24" height="24" viewBox="0 0 24 24" fill="none" xmlns="http://www.w3.org/2000/svg">
<path fill-rule="evenodd" clip-rule="evenodd" d="M11.9722 19.0004C12.6339 19.0012 13.2639 18.717 13.7012 18.2204L23.5122 7.06843C24.1571 6.29984 24.0705 5.15696 23.3171 4.49432C22.5637 3.83168 21.4191 3.89167 20.7392 4.62943L12.1602 14.3814C12.1127 14.4356 12.0442 14.4666 11.9722 14.4666C11.9001 14.4666 11.8316 14.4356 11.7842 14.3814L3.20515 4.62943C2.52517 3.89167 1.38058 3.83168 0.6272 4.49432C-0.126178 5.15696 -0.212778 6.29984 0.432151 7.06843L10.2402 18.2164C10.6782 18.7142 11.3091 18.9998 11.9722 19.0004Z" fill="black"/>
</svg>
