<svg width="24" height="24" viewBox="0 0 24 24" fill="none" xmlns="http://www.w3.org/2000/svg">
<path fill-rule="evenodd" clip-rule="evenodd" d="M12 0.25C12.2761 0.25 12.5 0.473858 12.5 0.75V23.25C12.5 23.5261 12.2761 23.75 12 23.75C11.7239 23.75 11.5 23.5261 11.5 23.25V0.75C11.5 0.473858 11.7239 0.25 12 0.25Z" fill="#666666"/>
<path fill-rule="evenodd" clip-rule="evenodd" d="M7.89645 19.1464C8.09171 18.9512 8.40829 18.9512 8.60355 19.1464L12 22.5429L15.3964 19.1464C15.5917 18.9512 15.9083 18.9512 16.1036 19.1464C16.2988 19.3417 16.2988 19.6583 16.1036 19.8536L12.3536 23.6036C12.1583 23.7988 11.8417 23.7988 11.6464 23.6036L7.89645 19.8536C7.70118 19.6583 7.70118 19.3417 7.89645 19.1464Z" fill="#666666"/>
</svg>
