<svg width="12" height="12" viewBox="0 0 12 12" fill="none" xmlns="http://www.w3.org/2000/svg">
<g clip-path="url(#clip0_3533_1963)">
<path fill-rule="evenodd" clip-rule="evenodd" d="M0.227075 3.21231C0.524034 2.92354 0.998862 2.93018 1.28763 3.22714L5.99993 8.07307L10.7122 3.22714C11.001 2.93018 11.4758 2.92354 11.7728 3.21231C12.0697 3.50108 12.0764 3.97591 11.7876 4.27286L6.78535 9.41699C6.78522 9.41712 6.78509 9.41726 6.78496 9.4174C6.68392 9.52135 6.56282 9.60499 6.428 9.66248C6.29295 9.72007 6.14742 9.75 5.99993 9.75C5.85244 9.75 5.70691 9.72007 5.57187 9.66248C5.43705 9.60499 5.31595 9.52135 5.21491 9.4174C5.21478 9.41726 5.21464 9.41712 5.21451 9.41699L0.212247 4.27286C-0.0765228 3.97591 -0.0698841 3.50108 0.227075 3.21231Z" fill="black"/>
</g>
<defs>
<clipPath id="clip0_3533_1963">
<rect width="12" height="12" fill="white"/>
</clipPath>
</defs>
</svg>
