<svg width="24" height="24" viewBox="0 0 24 24" fill="none" xmlns="http://www.w3.org/2000/svg">
<path fill-rule="evenodd" clip-rule="evenodd" d="M0.386388 5.3463C0.885486 4.86934 1.67674 4.88729 2.1537 5.38639L12 15.6897L21.8463 5.38639C22.3233 4.88729 23.1145 4.86934 23.6136 5.3463C24.1127 5.82326 24.1307 6.61452 23.6537 7.11362L13.4108 17.8319C13.231 18.0204 13.0144 18.173 12.7717 18.2783C12.5289 18.3837 12.2665 18.4388 12 18.4388C11.7335 18.4388 11.4711 18.3837 11.2283 18.2783C10.9857 18.1731 10.7691 18.0204 10.5893 17.832C10.5893 17.832 10.5892 17.832 10.5892 17.8319L0.346304 7.11362C-0.130657 6.61452 -0.112711 5.82326 0.386388 5.3463Z" fill="black"/>
</svg>
