<svg width="14" height="14" viewBox="0 0 14 14" fill="none" xmlns="http://www.w3.org/2000/svg">
<path d="M2.57625 7.71686L6.98251 3.3106C7.99485 2.29826 9.64897 2.30518 10.6698 3.32603C11.6907 4.34687 11.6976 6.001 10.6852 7.01334L6.27899 11.4196C5.67166 12.0269 4.67903 12.0228 4.0666 11.4103C3.45417 10.7979 3.45001 9.80529 4.05734 9.19796L7.36204 5.89326C7.56436 5.69094 7.89548 5.69233 8.0995 5.89635C8.30352 6.10037 8.30491 6.43149 8.10259 6.63381L5.16508 9.57132L5.90563 10.3119L8.84314 7.37436C9.45157 6.76593 9.44742 5.77552 8.83388 5.16197C8.22033 4.54843 7.22992 4.54428 6.62149 5.15271L3.31679 8.45741C2.30299 9.47122 2.3099 11.1224 3.33222 12.1447C4.35455 13.1671 6.00573 13.174 7.01954 12.1602L11.4258 7.75389C12.8453 6.33434 12.8357 4.02313 11.4042 2.59165C9.97272 1.16017 7.66151 1.1505 6.24196 2.57005L1.8357 6.97631L2.57625 7.71686Z" fill="#666666"/>
</svg>
