<svg width="32" height="20" viewBox="0 0 32 20" fill="none" xmlns="http://www.w3.org/2000/svg">
<path d="M21.9975 9.99893C24.4825 9.99893 26.497 7.98445 26.497 5.49947C26.497 3.01448 24.4825 1 21.9975 1C19.5125 1 17.498 3.01448 17.498 5.49947C17.498 7.98445 19.5125 9.99893 21.9975 9.99893Z" stroke="#0098FF" stroke-linecap="round" stroke-linejoin="round"/>
<path d="M30.9967 19V19.5C31.1511 19.5 31.2968 19.4287 31.3916 19.3068C31.4863 19.1849 31.5194 19.0261 31.4812 18.8765L30.9967 19ZM17.873 12.8744L17.649 12.4274C17.5054 12.4994 17.4051 12.636 17.3795 12.7946C17.3538 12.9531 17.4059 13.1144 17.5195 13.228L17.873 12.8744ZM21.3464 19L20.856 19.0976C20.9026 19.3316 21.1079 19.5 21.3464 19.5V19ZM31.4812 18.8765C30.9439 16.7691 29.7199 14.9008 28.0026 13.5665L27.3891 14.3561C28.9309 15.5541 30.0298 17.2316 30.5122 19.1235L31.4812 18.8765ZM28.0026 13.5665C26.2854 12.2322 24.1726 11.5078 21.9978 11.5078V12.5078C23.9503 12.5078 25.8473 13.1582 27.3891 14.3561L28.0026 13.5665ZM21.9978 11.5078C20.3162 11.5078 18.9852 11.7577 17.649 12.4274L18.0971 13.3214C19.2606 12.7382 20.4293 12.5078 21.9978 12.5078V11.5078ZM17.5195 13.228C19.3294 15.0379 20.528 17.4502 20.856 19.0976L21.8367 18.9024C21.4674 17.0476 20.1663 14.4605 18.2266 12.5209L17.5195 13.228ZM21.3464 19.5H30.9967V18.5H21.3464V19.5Z" fill="#0098FF"/>
<path d="M9.99849 9.99893C12.4835 9.99893 14.498 7.98445 14.498 5.49947C14.498 3.01448 12.4835 1 9.99849 1C7.5135 1 5.49902 3.01448 5.49902 5.49947C5.49902 7.98445 7.5135 9.99893 9.99849 9.99893Z" stroke="#0098FF" stroke-linecap="round" stroke-linejoin="round"/>
<path d="M18.9979 19C18.488 17.0003 17.3265 15.2275 15.697 13.9613C14.0674 12.6952 12.0626 12.0078 9.99893 12.0078C7.93529 12.0078 5.93043 12.6952 4.30087 13.9613C2.67132 15.2275 1.50991 17.0003 1 19H18.9979Z" stroke="#0098FF" stroke-linecap="round" stroke-linejoin="round"/>
</svg>
