<svg width="24" height="24" viewBox="0 0 24 24" fill="none" xmlns="http://www.w3.org/2000/svg">
<path d="M0.930236 15.8404C0.92984 16.3322 1.12674 16.8037 1.47682 17.149L6.87701 22.5281C7.22191 22.8733 7.68998 23.0671 8.17789 23.0665L15.7551 23.0767C16.2392 23.0772 16.7038 22.8864 17.0477 22.5457L22.5228 17.1527C22.8752 16.8057 23.0746 16.3323 23.0767 15.8377V8.2653C23.078 7.77687 22.8842 7.30813 22.5385 6.96322L17.0699 1.4677C16.724 1.1181 16.2524 0.921834 15.7607 0.922856H8.1899C7.69642 0.922572 7.22308 1.11859 6.87424 1.4677L1.45742 6.97154C1.1148 7.31598 0.922575 7.78218 0.922852 8.26807L0.930236 15.8404Z" stroke="black"/>
<path d="M11.7009 18.7527C10.952 18.7527 10.2259 18.4416 9.70939 17.8992C9.70275 17.8926 9.69555 17.8838 9.68844 17.8745L6.79829 14.0301C6.59017 13.8292 6.47068 13.5599 6.46242 13.2697C6.45362 12.9757 6.55933 12.696 6.76085 12.4818C6.96292 12.2681 7.23603 12.1454 7.53005 12.1366L7.56034 12.1361C7.84335 12.1361 8.1126 12.2423 8.31742 12.4361L9.39444 13.3765L8.61089 7.9525C8.55143 7.67885 8.60594 7.38703 8.76617 7.14091C8.92639 6.89423 9.17251 6.72465 9.45887 6.66298C9.53595 6.64646 9.61469 6.6382 9.69232 6.6382C9.90315 6.6382 10.1091 6.69932 10.2881 6.81494C10.5353 6.97462 10.7054 7.22074 10.7671 7.50816L11.1498 9.28495V6.6393C11.1498 6.03198 11.6436 5.53809 12.251 5.53809C12.8583 5.53809 13.3521 6.03198 13.3521 6.6393V9.40449L13.7359 7.70638C13.8565 7.20697 14.2964 6.85899 14.8075 6.85899C14.8762 6.85899 14.9451 6.8656 15.0134 6.87826C15.6097 6.99169 16.0028 7.56928 15.8899 8.16559L15.2545 11.6306L15.9962 10.4638C16.2021 10.1489 16.5474 9.96221 16.9212 9.96221C17.1134 9.96221 17.3028 10.0134 17.4696 10.1093C17.724 10.2562 17.9062 10.4935 17.9827 10.7777C18.0594 11.0618 18.0202 11.3585 17.8737 11.6135L16.6987 13.8197C16.4911 14.2096 16.381 14.6495 16.381 15.0911C16.381 17.5551 15.4808 18.7527 13.628 18.7527H11.7009ZM10.1185 17.5309C10.5308 17.9571 11.1074 18.2021 11.7009 18.2021H13.628C15.151 18.2021 15.8305 17.2429 15.8305 15.0911C15.8305 14.5592 15.9626 14.0301 16.2131 13.561L17.3925 11.3465C17.5478 11.0772 17.4581 10.7381 17.1949 10.5866C17.1112 10.5387 17.0165 10.5128 16.9207 10.5128C16.734 10.5128 16.5611 10.6059 16.4592 10.7622L14.9616 13.1194C14.9104 13.1987 14.8234 13.2466 14.7287 13.2466C14.694 13.2466 14.6604 13.2405 14.6285 13.2279C14.5063 13.18 14.4342 13.0511 14.4583 12.9217L15.3487 8.06482C15.4054 7.7653 15.2088 7.47622 14.9109 7.41951C14.8768 7.4129 14.8416 7.4096 14.8069 7.4096C14.5519 7.4096 14.3323 7.58304 14.2728 7.83137L13.3456 11.9307C13.317 12.0573 13.2074 12.1454 13.078 12.1454C13.0675 12.1454 13.0565 12.1448 13.046 12.1437C12.9073 12.1283 12.8022 12.0105 12.8022 11.87V6.6393C12.8022 6.33592 12.5554 6.08869 12.2515 6.08869C11.9476 6.08869 11.7009 6.33592 11.7009 6.6393V11.87C11.7009 12.0111 11.5951 12.1289 11.4547 12.1437C11.4443 12.1448 11.435 12.1454 11.425 12.1454C11.294 12.1454 11.1839 12.0562 11.1563 11.9279L10.2291 7.62379C10.1746 7.37161 9.94828 7.18881 9.69065 7.18881C9.65207 7.18881 9.61302 7.19321 9.57499 7.20092C9.27822 7.26534 9.08827 7.55881 9.15214 7.85559L10.0458 14.0329C10.0623 14.1462 10.0056 14.2597 9.90481 14.3142C9.86521 14.3362 9.81952 14.3478 9.77382 14.3478C9.70718 14.3478 9.64275 14.3236 9.59262 14.2795L7.94797 12.8435C7.83729 12.74 7.70239 12.6866 7.55318 12.6866V12.5489L7.54382 12.6866C7.399 12.691 7.26245 12.7521 7.1617 12.8589C7.06094 12.9664 7.00753 13.1062 7.01193 13.2532C7.01633 13.4002 7.07745 13.5367 7.18482 13.6375L7.19914 13.6507C7.21125 13.6617 7.22336 13.6745 7.23383 13.6888L10.1185 17.5309Z" fill="black" stroke="black" stroke-width="0.2"/>
</svg>
