<svg width="26" height="26" viewBox="0 0 26 26" fill="none" xmlns="http://www.w3.org/2000/svg">
<path d="M1.008 17.1607C1.00757 17.6935 1.22088 18.2042 1.60013 18.5783L7.45034 24.4057C7.82398 24.7797 8.33106 24.9896 8.85963 24.989L17.0683 25C17.5927 25.0005 18.096 24.7938 18.4686 24.4248L24.3999 18.5823C24.7817 18.2064 24.9977 17.6936 25 17.1577V8.95432C25.0014 8.42518 24.7915 7.91738 24.4169 7.54373L18.4926 1.59025C18.1179 1.21151 17.607 0.998893 17.0743 1H8.87264C8.33803 0.999693 7.82525 1.21205 7.44734 1.59025L1.57912 7.55274C1.20794 7.92589 0.9997 8.43094 1 8.95732L1.008 17.1607Z" stroke="#0098FF"/>
<path d="M12.6756 20.3158C11.8643 20.3158 11.0776 19.9788 10.5181 19.3912C10.5109 19.3841 10.5031 19.3745 10.4954 19.3644L7.36441 15.1997C7.13894 14.982 7.0095 14.6903 7.00055 14.3759C6.99101 14.0574 7.10553 13.7544 7.32385 13.5224C7.54276 13.2909 7.83862 13.1579 8.15715 13.1484L8.18996 13.1478C8.49655 13.1478 8.78824 13.2629 9.01013 13.4728L10.1769 14.4916L9.32806 8.61561C9.26364 8.31916 9.32269 8.00302 9.49627 7.73639C9.66985 7.46916 9.93648 7.28544 10.2467 7.21863C10.3302 7.20074 10.4155 7.19179 10.4996 7.19179C10.728 7.19179 10.9511 7.258 11.145 7.38326C11.4128 7.55625 11.5971 7.82288 11.6639 8.13425L12.0785 10.0591V7.19298C12.0785 6.53505 12.6135 6 13.2715 6C13.9294 6 14.4644 6.53505 14.4644 7.19298V10.1886L14.8802 8.34898C15.0108 7.80796 15.4874 7.43098 16.041 7.43098C16.1155 7.43098 16.1901 7.43814 16.2641 7.45186C16.9101 7.57474 17.336 8.20046 17.2137 8.84646L16.5253 12.6002L17.3288 11.3362C17.5519 10.995 17.9259 10.7928 18.3309 10.7928C18.5391 10.7928 18.7443 10.8483 18.925 10.9521C19.2006 11.1113 19.398 11.3684 19.4809 11.6762C19.5639 11.984 19.5215 12.3055 19.3628 12.5817L18.0899 14.9718C17.865 15.3941 17.7457 15.8707 17.7457 16.3491C17.7457 19.0184 16.7705 20.3158 14.7633 20.3158H12.6756ZM10.9613 18.9922C11.408 19.4539 12.0326 19.7193 12.6756 19.7193H14.7633C16.4132 19.7193 17.1493 18.6802 17.1493 16.3491C17.1493 15.7729 17.2924 15.1997 17.5638 14.6915L18.8415 12.2924C19.0097 12.0007 18.9125 11.6333 18.6274 11.4692C18.5367 11.4173 18.4341 11.3893 18.3303 11.3893C18.1281 11.3893 17.9408 11.4901 17.8304 11.6595L16.208 14.2131C16.1525 14.299 16.0583 14.3509 15.9557 14.3509C15.9181 14.3509 15.8817 14.3443 15.8471 14.3306C15.7147 14.2787 15.6366 14.1391 15.6628 13.9989L16.6273 8.7373C16.6888 8.41281 16.4758 8.09965 16.1531 8.03821C16.1161 8.03105 16.078 8.02747 16.0404 8.02747C15.7642 8.02747 15.5262 8.21537 15.4618 8.48439L14.4573 12.9253C14.4263 13.0625 14.3076 13.1579 14.1674 13.1579C14.1561 13.1579 14.1441 13.1573 14.1328 13.1561C13.9825 13.1394 13.8686 13.0118 13.8686 12.8596V7.19298C13.8686 6.86432 13.6013 6.59649 13.2721 6.59649C12.9428 6.59649 12.6756 6.86432 12.6756 7.19298V12.8596C12.6756 13.0124 12.561 13.14 12.4089 13.1561C12.3976 13.1573 12.3875 13.1579 12.3767 13.1579C12.2348 13.1579 12.1155 13.0613 12.0856 12.9223L11.0811 8.25951C11.0221 7.98632 10.7769 7.78828 10.4978 7.78828C10.456 7.78828 10.4137 7.79305 10.3725 7.8014C10.051 7.87119 9.84522 8.18912 9.91441 8.51063L10.8825 15.2027C10.9004 15.3255 10.839 15.4484 10.7298 15.5075C10.6869 15.5313 10.6374 15.5439 10.5879 15.5439C10.5157 15.5439 10.4459 15.5176 10.3916 15.4699L8.60989 13.9142C8.48999 13.8021 8.34385 13.7442 8.1822 13.7442V13.5951L8.17206 13.7442C8.01518 13.749 7.86725 13.8152 7.7581 13.9309C7.64894 14.0473 7.59108 14.1988 7.59585 14.358C7.60062 14.5173 7.66683 14.6652 7.78315 14.7744L7.79866 14.7887C7.81178 14.8006 7.8249 14.8144 7.83624 14.8299L10.9613 18.9922Z" fill="#0098FF" stroke="#0098FF" stroke-width="0.2"/>
</svg>
