<svg width="24" height="24" viewBox="0 0 24 24" fill="none" xmlns="http://www.w3.org/2000/svg">
<path d="M16.3007 11.6992C18.1507 11.6992 19.6503 10.1995 19.6503 8.34958C19.6503 6.49966 18.1507 5 16.3007 5C14.4508 5 12.9512 6.49966 12.9512 8.34958C12.9512 10.1995 14.4508 11.6992 16.3007 11.6992Z" stroke="black" stroke-linecap="round" stroke-linejoin="round"/>
<path d="M22.9998 18.3996C22.6202 16.911 21.7556 15.5912 20.5425 14.6486C19.3294 13.706 17.8369 13.1943 16.3006 13.1943C15.0909 13.1943 14.1604 13.3731 13.23 13.8395C14.6256 15.2351 15.5561 17.096 15.8157 18.3996H22.9998Z" stroke="black" stroke-linecap="round" stroke-linejoin="round"/>
<path d="M7.36911 11.6992C9.21903 11.6992 10.7187 10.1995 10.7187 8.34958C10.7187 6.49966 9.21903 5 7.36911 5C5.51919 5 4.01953 6.49966 4.01953 8.34958C4.01953 10.1995 5.51919 11.6992 7.36911 11.6992Z" stroke="black" stroke-linecap="round" stroke-linejoin="round"/>
<path d="M14.0677 18.3996C13.6881 16.911 12.8235 15.5912 11.6104 14.6486C10.3973 13.706 8.90484 13.1943 7.36859 13.1943C5.83233 13.1943 4.33983 13.706 3.12673 14.6486C1.91363 15.5912 1.04903 16.911 0.669434 18.3996H14.0677Z" stroke="black" stroke-linecap="round" stroke-linejoin="round"/>
</svg>
