<svg width="290" height="279" viewBox="0 0 290 279" fill="none" xmlns="http://www.w3.org/2000/svg">
<path d="M182.19 73.5668H233.654C238.413 73.5668 242.306 69.6741 242.306 64.9133V63.1855C242.306 58.4271 238.413 54.5332 233.654 54.5332H195.499C190.74 54.5332 186.846 58.4271 186.846 63.1855V64.9133C186.846 69.6741 186.846 72.5289 182.19 73.5668Z" fill="#CC3F6D"/>
<path d="M200.718 59.2831V60.791H199.223V59.2831H200.718ZM200.718 61.6329V68.3933H199.223V61.6329H200.718ZM203.896 59.2831V64.3471L206.397 61.6329H208.194L205.605 64.4099L208.483 68.3933H206.736L204.612 65.4655L203.896 66.232V68.3933H202.401V59.2831H203.896ZM209.244 68.3933V66.6844H210.953V68.3933H209.244ZM213.946 68.3933H212.451V61.6329H213.946V62.5753C214.336 61.8716 215.002 61.4821 215.907 61.4821C216.95 61.4821 217.565 61.9219 217.88 62.6758C218.458 61.8214 219.249 61.4821 220.079 61.4821C221.674 61.4821 222.29 62.5376 222.29 64.146V68.3933H220.795V64.5105C220.795 63.5931 220.707 62.701 219.601 62.701C218.495 62.701 218.118 63.5806 218.118 64.7995V68.3933H216.623V64.5105C216.623 63.5931 216.535 62.701 215.429 62.701C214.323 62.701 213.946 63.5806 213.946 64.7995V68.3933ZM224.919 65.4403C225.02 66.6969 225.899 67.3126 226.754 67.3126C227.533 67.3126 228.149 66.9985 228.413 66.3702H229.883C229.569 67.4509 228.563 68.5567 226.817 68.5567C224.643 68.5567 223.399 66.898 223.399 64.9628C223.399 62.9272 224.794 61.4821 226.716 61.4821C228.79 61.4821 230.084 63.1659 229.958 65.4403H224.919ZM224.919 64.3471H228.438C228.4 63.2916 227.596 62.6507 226.716 62.6507C226.012 62.6507 225.045 63.0654 224.919 64.3471Z" fill="#191919"/>
<path d="M198.382 181.043H280.687C285.446 181.043 289.34 177.151 289.34 172.39V170.662C289.34 165.904 285.446 162.01 280.687 162.01H211.691C206.932 162.01 203.038 165.904 203.038 170.662V172.39C203.038 177.151 203.038 180.005 198.382 181.043Z" fill="#F9DADF"/>
<path d="M216.91 166.76V168.268H215.414V166.76H216.91ZM216.91 169.109V175.87H215.414V169.109H216.91ZM220.088 166.76V171.824L222.589 169.109H224.386L221.797 171.886L224.675 175.87H222.928L220.804 172.942L220.088 173.709V175.87H218.593V166.76H220.088ZM226.813 175.87H225.317V169.109H226.813V170.052C227.202 169.348 227.868 168.959 228.773 168.959C229.816 168.959 230.432 169.398 230.746 170.152C231.324 169.298 232.116 168.959 232.945 168.959C234.541 168.959 235.156 170.014 235.156 171.623V175.87H233.661V171.987C233.661 171.07 233.573 170.178 232.467 170.178C231.362 170.178 230.985 171.057 230.985 172.276V175.87H229.489V171.987C229.489 171.07 229.401 170.178 228.296 170.178C227.19 170.178 226.813 171.057 226.813 172.276V175.87ZM236.315 174.01C236.315 172.326 238.389 171.899 240.864 171.648V171.522C240.864 170.366 240.198 170.014 239.457 170.014C238.703 170.014 238.137 170.416 238.1 171.233H236.63C236.73 169.851 237.874 168.908 239.507 168.908C241.128 168.908 242.397 169.65 242.36 171.811C242.36 172.15 242.334 172.942 242.334 173.558C242.334 174.412 242.41 175.304 242.536 175.87H241.166C241.116 175.581 241.065 175.418 241.04 174.953C240.613 175.681 239.809 176.033 238.816 176.033C237.346 176.033 236.315 175.242 236.315 174.01ZM240.902 172.691C238.766 172.892 237.899 173.193 237.899 173.972C237.899 174.563 238.389 174.915 239.143 174.915C240.249 174.915 240.902 174.349 240.902 173.206V172.691ZM245.367 166.76V168.268H243.872V166.76H245.367ZM245.367 169.109V175.87H243.872V169.109H245.367ZM248.545 175.87H247.05V166.76H248.545V175.87ZM250.04 175.87V174.161H251.749V175.87H250.04ZM258.907 171.422H257.449C257.324 170.705 256.695 170.203 255.879 170.203C254.949 170.203 254.107 170.894 254.107 172.49C254.107 174.098 254.961 174.789 255.841 174.789C256.57 174.789 257.311 174.462 257.5 173.558H258.957C258.656 175.141 257.261 176.033 255.816 176.033C253.855 176.033 252.561 174.513 252.561 172.502C252.561 170.492 253.868 168.959 255.879 168.959C257.349 168.959 258.656 169.914 258.907 171.422ZM266.351 172.502C266.351 174.94 264.667 176.033 263.021 176.033C261.375 176.033 259.691 174.94 259.691 172.502C259.691 170.064 261.375 168.959 263.021 168.959C264.667 168.959 266.351 170.064 266.351 172.502ZM263.021 174.814C263.964 174.814 264.805 174.06 264.805 172.502C264.805 170.944 263.964 170.178 263.021 170.178C262.079 170.178 261.237 170.944 261.237 172.502C261.237 174.06 262.079 174.814 263.021 174.814ZM269.075 175.87H267.58V169.109H269.075V170.052C269.465 169.348 270.131 168.959 271.036 168.959C272.079 168.959 272.694 169.398 273.008 170.152C273.586 169.298 274.378 168.959 275.207 168.959C276.803 168.959 277.419 170.014 277.419 171.623V175.87H275.924V171.987C275.924 171.07 275.836 170.178 274.73 170.178C273.624 170.178 273.247 171.057 273.247 172.276V175.87H271.752V171.987C271.752 171.07 271.664 170.178 270.558 170.178C269.452 170.178 269.075 171.057 269.075 172.276V175.87Z" fill="#191919"/>
<path d="M78.1238 156.868H10.7714C6.01303 156.868 2.11914 152.975 2.11914 148.214V146.486C2.11914 141.728 6.01303 137.834 10.7714 137.834H64.8143C69.5739 137.834 73.4678 141.728 73.4678 146.486V148.214C73.4678 152.975 73.4678 155.83 78.1238 156.868Z" fill="#EF8BA4"/>
<path d="M13.3751 148.618C13.4756 149.874 14.3552 150.49 15.2097 150.49C15.9888 150.49 16.6045 150.176 16.8684 149.548H18.3386C18.0245 150.628 17.0192 151.734 15.2725 151.734C13.0987 151.734 11.8546 150.075 11.8546 148.14C11.8546 146.105 13.2494 144.66 15.172 144.66C17.2454 144.66 18.5397 146.343 18.414 148.618H13.3751ZM13.3751 147.525H16.8935C16.8558 146.469 16.0516 145.828 15.172 145.828C14.4683 145.828 13.5008 146.243 13.3751 147.525ZM19.8589 143.026H21.3542V144.81H22.7113V145.891H21.3542V149.573C21.3542 150.264 21.5176 150.427 22.1585 150.427H22.6988V151.571H21.593C20.1479 151.571 19.8589 151.181 19.8589 149.799V145.891H18.8536V144.81H19.8589V143.026ZM25.411 142.461V143.968H23.9157V142.461H25.411ZM25.411 144.81V151.571H23.9157V144.81H25.411ZM28.5893 142.461V147.525L31.0899 144.81H32.8869L30.2983 147.587L33.1759 151.571H31.4292L29.3056 148.643L28.5893 149.409V151.571H27.094V142.461H28.5893ZM33.937 151.571V149.862H35.646V151.571H33.937ZM42.8042 147.122H41.3465C41.2209 146.406 40.5926 145.904 39.7758 145.904C38.8459 145.904 38.004 146.595 38.004 148.191C38.004 149.799 38.8585 150.49 39.7381 150.49C40.4669 150.49 41.2083 150.163 41.3968 149.259H42.8544C42.5529 150.842 41.1581 151.734 39.713 151.734C37.7527 151.734 36.4584 150.214 36.4584 148.203C36.4584 146.193 37.7653 144.66 39.7758 144.66C41.246 144.66 42.5529 145.615 42.8042 147.122ZM50.2483 148.203C50.2483 150.641 48.5645 151.734 46.9183 151.734C45.2722 151.734 43.5884 150.641 43.5884 148.203C43.5884 145.765 45.2722 144.66 46.9183 144.66C48.5645 144.66 50.2483 145.765 50.2483 148.203ZM46.9183 150.515C47.8608 150.515 48.7027 149.761 48.7027 148.203C48.7027 146.645 47.8608 145.878 46.9183 145.878C45.9759 145.878 45.134 146.645 45.134 148.203C45.134 149.761 45.9759 150.515 46.9183 150.515ZM52.9725 151.571H51.4772V144.81H52.9725V145.753C53.3621 145.049 54.0281 144.66 54.9328 144.66C55.9758 144.66 56.5915 145.099 56.9056 145.853C57.4837 144.999 58.2753 144.66 59.1047 144.66C60.7005 144.66 61.3163 145.715 61.3163 147.324V151.571H59.8209V147.688C59.8209 146.771 59.733 145.878 58.6272 145.878C57.5214 145.878 57.1444 146.758 57.1444 147.977V151.571H55.6491V147.688C55.6491 146.771 55.5611 145.878 54.4553 145.878C53.3495 145.878 52.9725 146.758 52.9725 147.977V151.571Z" fill="#191919"/>
<rect x="223.493" y="102.037" width="35.9025" height="35.9025" rx="3.59025" transform="rotate(-7.24 223.493 102.037)" fill="#333333"/>
<path opacity="0.50372" fill-rule="evenodd" clip-rule="evenodd" d="M237.382 107.42C237.28 106.618 237.991 105.946 238.794 106.083L252.54 108.434C253.064 108.524 253.467 108.942 253.534 109.464L255.184 122.457C255.286 123.258 254.576 123.93 253.772 123.793L240.027 121.443C239.502 121.353 239.099 120.935 239.033 120.412L237.382 107.42Z" fill="#C2F1F9"/>
<path opacity="0.8" fill-rule="evenodd" clip-rule="evenodd" d="M234.662 110.065C234.56 109.263 235.271 108.591 236.074 108.729L249.82 111.079C250.344 111.169 250.747 111.587 250.814 112.109L252.464 125.102C252.566 125.903 251.856 126.575 251.052 126.438L237.307 124.088C236.782 123.998 236.379 123.58 236.313 123.057L234.662 110.065Z" fill="#8AE3F3"/>
<path fill-rule="evenodd" clip-rule="evenodd" d="M231.942 112.71C231.84 111.909 232.551 111.237 233.354 111.374L247.1 113.724C247.624 113.814 248.027 114.232 248.094 114.755L249.744 127.747C249.846 128.549 249.135 129.221 248.332 129.084L234.586 126.733C234.062 126.644 233.659 126.226 233.592 125.703L231.942 112.71Z" fill="#36D0EB"/>
<path fill-rule="evenodd" clip-rule="evenodd" d="M237.636 123.244L241.532 123.918L241.47 123.433L238.203 122.877L239.66 120.989C240.042 120.484 240.298 120.052 240.429 119.693C240.56 119.333 240.605 118.99 240.564 118.664C240.49 118.086 240.273 117.608 239.911 117.23C239.55 116.853 239.087 116.629 238.52 116.555C238.149 116.506 237.83 116.554 237.562 116.696C237.295 116.838 237.102 117.056 236.985 117.351C236.868 117.645 236.834 117.984 236.883 118.368L237.389 118.44C237.329 117.97 237.409 117.606 237.628 117.346C237.847 117.086 238.165 116.983 238.581 117.038C238.984 117.092 239.316 117.262 239.578 117.549C239.84 117.836 239.999 118.2 240.055 118.639C240.091 118.92 240.059 119.198 239.96 119.474C239.884 119.688 239.748 119.94 239.552 120.23L239.371 120.487L237.581 122.812L237.636 123.244ZM244.352 124.406L244.864 124.495L243.955 117.336L243.87 117.325L241.876 117.939L241.944 118.48L243.538 117.997L244.352 124.406Z" fill="white"/>
<path fill-rule="evenodd" clip-rule="evenodd" d="M239.02 122.559L240.021 121.261L240.021 121.261L240.023 121.258C240.417 120.738 240.703 120.264 240.856 119.846L240.857 119.845C241.008 119.429 241.066 119.014 241.015 118.607C240.931 117.946 240.677 117.375 240.242 116.92L240.241 116.919C239.802 116.461 239.24 116.194 238.58 116.108C238.137 116.05 237.717 116.103 237.348 116.3C236.98 116.495 236.717 116.798 236.562 117.187C236.411 117.565 236.375 117.983 236.431 118.425C236.457 118.626 236.614 118.784 236.816 118.813L237.323 118.886C237.463 118.906 237.605 118.86 237.707 118.761C237.809 118.663 237.858 118.523 237.84 118.383C237.79 117.986 237.867 117.765 237.977 117.634L237.977 117.634C238.072 117.521 238.217 117.444 238.519 117.485C238.82 117.525 239.053 117.646 239.24 117.851C239.431 118.061 239.558 118.335 239.604 118.696C239.63 118.905 239.608 119.112 239.532 119.324M239.02 122.559L241.548 122.989C241.745 123.023 241.896 123.179 241.921 123.376L241.983 123.861C242.001 124.002 241.95 124.145 241.845 124.243C241.74 124.342 241.595 124.386 241.452 124.361L237.556 123.687C237.36 123.653 237.209 123.497 237.184 123.301L237.13 122.87C237.115 122.752 237.147 122.634 237.219 122.54L239.004 120.222L239.177 119.976C239.36 119.705 239.473 119.489 239.532 119.324M243.736 116.895C243.799 116.876 243.865 116.87 243.931 116.879L244.015 116.89C244.22 116.917 244.38 117.076 244.406 117.279L245.315 124.437C245.333 124.579 245.282 124.721 245.178 124.82C245.073 124.919 244.927 124.963 244.785 124.938L244.272 124.849C244.076 124.816 243.925 124.659 243.9 124.463L243.154 118.584L242.076 118.911C241.948 118.95 241.809 118.931 241.697 118.859C241.584 118.787 241.51 118.669 241.493 118.538L241.424 117.996C241.397 117.779 241.53 117.574 241.741 117.509L243.736 116.895Z" fill="white"/>
<rect y="32.925" width="35.9025" height="35.9025" rx="7.1805" transform="rotate(-7.24 0 32.925)" fill="#333333"/>
<path opacity="0.504232" fill-rule="evenodd" clip-rule="evenodd" d="M14.7849 38.2026C14.6761 37.346 15.4746 36.6546 16.3071 36.8845L18.4859 37.4864C18.8193 37.5785 19.0974 37.8089 19.2497 38.1194L20.3777 40.4187C20.5593 40.7888 20.917 41.041 21.3267 41.0876L30.2021 42.0988C30.7558 42.1619 31.1948 42.5951 31.265 43.1479L32.5406 53.1889C32.6431 53.996 31.9352 54.6721 31.1334 54.5328L17.4174 52.1493C16.8942 52.0584 16.4916 51.637 16.4247 51.1103L14.7849 38.2026Z" fill="#A2BFFF"/>
<path opacity="0.8" fill-rule="evenodd" clip-rule="evenodd" d="M12.0896 40.9831C11.9807 40.1265 12.7792 39.4351 13.6118 39.6651L15.7906 40.2669C16.124 40.359 16.4021 40.5894 16.5544 40.8999L17.6824 43.1992C17.8639 43.5693 18.2216 43.8215 18.6314 43.8682L27.5067 44.8793C28.0605 44.9424 28.4995 45.3756 28.5697 45.9284L29.8453 55.9694C29.9478 56.7765 29.2399 57.4526 28.438 57.3133L14.7221 54.9298C14.1989 54.8389 13.7963 54.4175 13.7294 53.8908L12.0896 40.9831Z" fill="#A0BDFF"/>
<path fill-rule="evenodd" clip-rule="evenodd" d="M9.34885 43.4038C9.24002 42.5471 10.0385 41.8557 10.8711 42.0857L13.0498 42.6875C13.3833 42.7796 13.6613 43.0101 13.8137 43.3206L14.9416 45.6198C15.1232 45.99 15.4809 46.2421 15.8907 46.2888L24.766 47.3C25.3198 47.3631 25.7588 47.7963 25.829 48.3491L27.1046 58.39C27.2071 59.1972 26.4991 59.8733 25.6973 59.7339L11.9814 57.3505C11.4582 57.2596 11.0555 56.8381 10.9886 56.3115L9.34885 43.4038Z" fill="#1A47FF"/>
<path fill-rule="evenodd" clip-rule="evenodd" d="M7.24812 49.532C6.80886 48.6581 7.53518 47.6514 8.50333 47.7923L22.3065 49.801C22.7232 49.8616 23.0783 50.1345 23.2441 50.5215L26.8718 58.9898C27.0608 59.4309 26.6851 59.9057 26.2122 59.8236L11.7012 57.3019C11.3237 57.2363 10.9996 56.9958 10.8276 56.6535L7.24812 49.532Z" fill="#5287FF"/>
<rect x="25.1318" y="242.955" width="35.9025" height="35.9025" rx="3.59025" transform="rotate(-7.24 25.1318 242.955)" fill="#333333"/>
<path fill-rule="evenodd" clip-rule="evenodd" d="M39.0888 246.839C38.9905 246.065 39.6623 245.418 40.4241 245.552L53.4554 247.851C53.9525 247.939 54.3354 248.343 54.3996 248.848L56.4311 264.839C56.5293 265.613 55.8576 266.26 55.0958 266.126L42.0645 263.827C41.5674 263.739 41.1844 263.335 41.1203 262.83L39.0888 246.839Z" fill="#C79BFF" fill-opacity="0.3"/>
<path opacity="0.8" fill-rule="evenodd" clip-rule="evenodd" d="M36.5317 249.5C36.4334 248.726 37.1052 248.079 37.867 248.214L50.8983 250.513C51.3953 250.6 51.7783 251.005 51.8424 251.509L53.8739 267.501C53.9722 268.274 53.3004 268.921 52.5386 268.787L39.5073 266.488C39.0102 266.4 38.6273 265.996 38.5632 265.491L36.5317 249.5Z" fill="#CCAFEF"/>
<path fill-rule="evenodd" clip-rule="evenodd" d="M33.9743 252.162C33.876 251.388 34.5478 250.741 35.3096 250.875L48.3409 253.174C48.838 253.262 49.2209 253.666 49.2851 254.171L51.3166 270.162C51.4148 270.936 50.7431 271.583 49.9813 271.449L36.95 269.15C36.4529 269.062 36.0699 268.658 36.0058 268.153L33.9743 252.162Z" fill="#9D66E1"/>
<path d="M42.6619 252.173L43.6211 259.724C43.6357 259.84 43.7185 259.936 43.8307 259.967C43.943 259.998 44.0626 259.958 44.1336 259.865L45.1118 258.59C45.1351 258.56 45.1694 258.54 45.2073 258.535C45.2451 258.53 45.2834 258.541 45.3135 258.565L46.6716 260.28C46.7636 260.352 46.8895 260.361 46.9904 260.303C47.0913 260.245 47.1474 260.131 47.1324 260.015L46.2153 252.795L42.6619 252.173Z" fill="#6129C6"/>
<path fill-rule="evenodd" clip-rule="evenodd" d="M33.9631 252.072C33.8846 251.455 34.5128 250.769 35.2572 250.864L36.8761 251.151L39.2129 269.545L36.8582 269.127C36.403 269.007 36.0637 268.608 36.0131 268.21L33.9631 252.072Z" fill="#6129C6"/>
<path d="M157.461 21.4181L79.8486 31.067C76.2889 31.5144 73.0519 33.3551 70.8474 36.1854C68.6428 39.0158 67.6506 42.6049 68.0885 46.1656L92.3978 241.702C92.8452 245.262 94.686 248.499 97.5164 250.703C100.347 252.908 103.936 253.9 107.497 253.462L185.105 243.814C188.664 243.366 191.901 241.526 194.106 238.695C196.311 235.865 197.303 232.276 196.865 228.715L172.556 33.1782C172.108 29.6194 170.268 26.3831 167.439 24.1787C164.609 21.9743 161.021 20.9816 157.461 21.4181Z" fill="#4C4C4C"/>
<path d="M107.049 249.631C104.503 249.948 101.936 249.242 99.9107 247.669C97.885 246.096 96.5657 243.784 96.2421 241.239L71.9311 45.6891C71.6231 43.1433 72.3366 40.5791 73.9152 38.5582C75.4939 36.5373 77.8091 35.2243 80.3538 34.9068L91.1752 33.5614L91.273 34.3479C91.5258 36.3812 92.5741 38.2314 94.1884 39.4932C95.8027 40.755 97.8513 41.3256 99.8855 41.08L140.5 36.0308C142.535 35.7717 144.385 34.7177 145.646 33.0989C146.907 31.4802 147.476 29.4283 147.229 27.3914L147.131 26.6049L157.948 25.2602C160.49 24.949 163.052 25.6575 165.073 27.2308C167.094 28.804 168.41 31.1139 168.732 33.6547L193.043 229.205C193.353 231.747 192.643 234.309 191.069 236.329C189.494 238.349 187.184 239.664 184.643 239.985L107.049 249.631Z" fill="#191919"/>
<path d="M108.438 222.954C104.953 223.392 102.482 226.572 102.92 230.057C103.358 233.542 106.538 236.012 110.024 235.574C113.509 235.136 115.979 231.956 115.541 228.471C115.103 224.986 111.923 222.516 108.438 222.954Z" fill="#3E3E3E"/>
<path d="M106.882 231.09L106.319 226.612C106.157 225.324 107.078 224.138 108.366 223.977L108.76 223.927C110.048 223.765 111.234 224.686 111.395 225.974L111.958 230.452L106.882 231.09Z" fill="#996452"/>
<path d="M112.089 230.44L106.768 231.104C105.965 231.456 105.449 232.309 105.563 233.22L105.733 234.573C106.955 235.379 108.458 235.77 110.024 235.573C111.589 235.377 112.949 234.625 113.933 233.542L113.763 232.19C113.649 231.284 112.947 230.589 112.089 230.44Z" fill="#824D65"/>
<path d="M111.484 230.428C110.41 230.563 110.284 229.56 110.168 228.639L110.024 227.488L108.007 227.742L108.151 228.892C108.267 229.814 108.322 230.825 107.319 230.951C107.121 230.976 106.934 231.029 106.76 231.105C107.384 231.998 108.468 232.524 109.623 232.378C110.777 232.233 111.696 231.458 112.081 230.442C111.888 230.408 111.688 230.402 111.484 230.428Z" fill="#EFD6CE"/>
<path d="M109.69 230.618C109.991 230.58 110.276 230.346 110.509 230.002C110.297 229.649 110.23 229.133 110.168 228.639L110.023 227.489L108.006 227.742L108.151 228.893C108.18 229.128 108.206 229.37 108.211 229.601C108.633 230.236 109.204 230.679 109.69 230.618Z" fill="#D3B6AE"/>
<path d="M110.25 225.976C109.964 226.257 109.549 226.492 109.06 226.619C108.426 226.783 107.813 226.729 107.389 226.513C107.379 226.718 107.099 227.161 107.02 227.205C106.997 227.295 106.99 227.4 107.004 227.51C107.042 227.808 107.214 228.032 107.391 228.014C107.747 229.084 108.619 230.03 109.316 229.943C110.013 229.855 110.623 228.723 110.703 227.598C110.879 227.571 110.991 227.312 110.953 227.014C110.94 226.906 110.909 226.81 110.866 226.73C110.635 226.634 110.345 226.276 110.25 225.976Z" fill="#EFD6CE"/>
<path d="M105.805 195.305C102.323 195.765 99.8724 198.96 100.332 202.442C100.791 205.925 103.986 208.375 107.469 207.916C110.951 207.456 113.402 204.261 112.942 200.779C112.483 197.296 109.288 194.846 105.805 195.305Z" fill="#3E3E3E"/>
<path d="M109.461 202.411L109.454 202.417C109.453 202.415 109.453 202.414 109.453 202.412C109.26 202.38 108.46 202.138 108.251 202.031L105.181 202.391C105.011 202.591 104.31 203.031 104.136 203.109C104.137 203.109 104.137 203.11 104.137 203.111C103.34 203.47 102.638 204.493 102.758 205.402L103.058 206.866C104.304 207.715 105.855 208.128 107.468 207.915C109.088 207.701 110.483 206.896 111.467 205.745L111.378 204.264C111.259 203.359 110.32 202.554 109.461 202.411Z" fill="#D0759F"/>
<path d="M105.18 202.392C105.435 202.05 105.561 201.997 105.433 201.025C105.305 200.053 107.626 199.735 107.756 200.718C107.885 201.702 107.964 201.889 108.25 202.032C108.25 202.032 108.46 203.16 106.876 203.369C105.292 203.578 105.18 202.392 105.18 202.392Z" fill="#EFD6CE"/>
<path d="M106.445 202.585C106.628 202.674 106.872 202.637 107.044 202.615C107.218 202.592 107.466 202.562 107.621 202.425C107.738 202.322 107.877 202.102 108.007 201.82C107.9 201.645 107.838 201.342 107.756 200.718C107.626 199.734 105.304 200.053 105.433 201.025C105.457 201.211 105.473 201.364 105.479 201.492C105.801 202.03 106.196 202.464 106.445 202.585Z" fill="#D3B6AE"/>
<path d="M108.071 198.986C107.578 197.016 107.061 196.987 106.102 197.114C105.143 197.24 104.651 197.402 104.686 199.432C104.532 199.489 104.44 199.731 104.476 200.007C104.516 200.308 104.693 200.533 104.872 200.509C104.892 200.507 104.91 200.5 104.928 200.492C105.261 201.258 105.84 201.956 106.167 202.116C106.349 202.205 106.594 202.168 106.765 202.145C106.939 202.122 107.187 202.093 107.343 201.955C107.608 201.721 107.986 200.897 108.11 200.072C108.13 200.076 108.15 200.077 108.17 200.074C108.349 200.051 108.462 199.787 108.422 199.487C108.386 199.21 108.234 199.001 108.071 198.986Z" fill="#EFD6CE"/>
<path d="M105.041 200.152C104.972 199.631 104.976 199.613 105.019 199.335C106.562 198.878 106.967 198.29 107.379 198.031C107.772 198.357 107.815 199.063 107.909 199.774C108.174 199.736 107.886 199.047 108.158 199.011C107.959 197.743 108.031 197.31 107.266 196.835C106.506 196.365 105.565 196.75 104.907 197.272C104.274 197.774 104.45 198.077 104.633 199.458C104.927 199.493 104.78 200.186 105.041 200.152Z" fill="#838383"/>
<path d="M103.135 169.584C99.6556 170.068 97.2284 173.282 97.7131 176.761C98.1978 180.239 101.411 182.666 104.89 182.182C108.369 181.697 110.796 178.484 110.311 175.005C109.827 171.526 106.614 169.099 103.135 169.584Z" fill="#3E3E3E"/>
<path d="M106.844 176.663L106.836 176.669C106.836 176.667 106.836 176.665 106.835 176.664C106.642 176.633 105.84 176.397 105.63 176.291L104.364 178.349L102.563 176.674C102.394 176.875 101.696 177.32 101.523 177.399C101.524 177.4 101.525 177.4 101.525 177.401C100.73 177.766 100.036 178.794 100.162 179.702L100.473 181.164C101.726 182.004 103.279 182.405 104.89 182.181C106.508 181.956 107.898 181.14 108.874 179.982L108.774 178.502C108.648 177.598 107.703 176.8 106.844 176.663Z" fill="#DA2B7A"/>
<path d="M102.562 176.675C102.815 176.331 102.94 176.277 102.804 175.306C102.669 174.335 104.988 174 105.125 174.983C105.262 175.966 105.342 176.152 105.63 176.293L104.364 178.35L102.562 176.675Z" fill="#875744"/>
<path opacity="0.256859" d="M103.828 176.859C104.011 176.947 104.255 176.908 104.427 176.884C104.6 176.86 104.848 176.829 105.002 176.691C105.119 176.587 105.257 176.366 105.384 176.082C105.276 175.908 105.211 175.606 105.125 174.983C104.988 174 102.669 174.335 102.804 175.306C102.83 175.493 102.846 175.645 102.854 175.773C103.179 176.309 103.578 176.74 103.828 176.859Z" fill="black"/>
<path d="M105.427 173.248C104.92 171.281 104.402 171.257 103.444 171.39C102.486 171.524 101.927 171.729 101.977 173.759C101.824 173.817 101.778 174.026 101.84 174.295C101.908 174.591 102.061 174.82 102.239 174.795C102.259 174.792 102.278 174.785 102.296 174.777C102.634 175.541 103.218 176.234 103.546 176.392C103.729 176.479 103.974 176.44 104.145 176.417C104.318 176.392 104.566 176.361 104.721 176.223C104.984 175.987 105.356 175.16 105.474 174.334C105.494 174.337 105.514 174.338 105.534 174.336C105.713 174.311 105.824 174.047 105.782 173.746C105.744 173.47 105.59 173.262 105.427 173.248Z" fill="#875744"/>
<path d="M102.418 174.434C102.345 173.913 102.242 173.259 102.336 172.981C102.43 172.702 104.064 171.786 105.012 172.608C105.168 173.033 105.184 173.324 105.283 174.034C105.544 173.998 105.243 173.313 105.515 173.276C105.548 172.642 105.658 170.689 103.183 170.972C102.561 171.042 101.952 171.05 101.952 171.05C101.952 171.05 101.711 171.496 101.724 172.161C101.737 172.826 101.977 173.759 101.977 173.759C102.271 173.792 102.157 174.47 102.418 174.434Z" fill="#241E20"/>
<path d="M100.475 144.032C96.993 144.497 94.5476 147.697 95.0126 151.178C95.4777 154.66 98.6769 157.105 102.159 156.64C105.64 156.175 108.086 152.976 107.621 149.494C107.156 146.013 103.956 143.567 100.475 144.032Z" fill="#3E3E3E"/>
<path d="M98.9822 152.181L98.3846 147.707C98.2128 146.421 99.1245 145.228 100.411 145.056L100.805 145.004C102.092 144.832 103.284 145.744 103.456 147.03L104.054 151.504L98.9822 152.181Z" fill="#996452"/>
<path d="M104.184 151.491L98.8679 152.196C98.0674 152.554 97.5581 153.411 97.6797 154.321L97.8602 155.673C99.0881 156.469 100.595 156.848 102.159 156.64C103.723 156.431 105.076 155.669 106.052 154.578L105.872 153.227C105.751 152.322 105.043 151.633 104.184 151.491Z" fill="#BF4C80"/>
<path d="M103.579 151.483C102.506 151.626 102.372 150.625 102.249 149.704L102.096 148.555L100.08 148.824L100.234 149.973C100.357 150.894 100.42 151.905 99.4177 152.039C99.2202 152.065 99.0332 152.12 98.8597 152.197C99.4906 153.085 100.579 153.602 101.733 153.448C102.885 153.294 103.799 152.511 104.176 151.492C103.983 151.46 103.782 151.456 103.579 151.483Z" fill="#EFD6CE"/>
<path d="M101.786 151.687C102.087 151.647 102.37 151.41 102.601 151.065C102.386 150.713 102.315 150.198 102.249 149.704L102.096 148.555L100.08 148.824L100.234 149.974C100.265 150.209 100.293 150.45 100.299 150.681C100.726 151.313 101.301 151.752 101.786 151.687Z" fill="#D3B6AE"/>
<path d="M102.31 147.041C102.026 147.324 101.613 147.561 101.125 147.692C100.492 147.862 99.8787 147.813 99.4532 147.599C99.4452 147.805 99.1684 148.25 99.0896 148.295C99.0677 148.385 99.0617 148.489 99.0764 148.6C99.1162 148.897 99.2906 149.12 99.4673 149.101C99.8317 150.168 100.71 151.107 101.407 151.014C102.103 150.921 102.704 149.785 102.776 148.659C102.951 148.631 103.061 148.371 103.021 148.073C103.007 147.966 102.975 147.869 102.932 147.789C102.7 147.696 102.408 147.339 102.31 147.041Z" fill="#EFD6CE"/>
<path d="M94.4676 95.3516C90.9859 95.8166 88.5405 99.0159 89.0056 102.498C89.4706 105.979 92.6698 108.424 96.1515 107.959C99.6331 107.494 102.079 104.295 101.614 100.814C101.148 97.332 97.9492 94.8866 94.4676 95.3516Z" fill="#3E3E3E"/>
<path d="M98.135 102.452L98.1273 102.458C98.1271 102.456 98.1271 102.454 98.1269 102.453C97.934 102.421 97.1328 102.18 96.9239 102.074L93.8543 102.439C93.6846 102.639 92.9843 103.08 92.8108 103.158C92.8115 103.159 92.8119 103.159 92.8122 103.16C92.0158 103.52 91.3151 104.545 91.4364 105.453L91.739 106.917C92.9868 107.764 94.5381 108.174 96.1509 107.959C97.7699 107.742 99.164 106.935 100.146 105.782L100.055 104.302C99.934 103.397 98.994 102.593 98.135 102.452Z" fill="#AE366D"/>
<path d="M93.8544 102.44C94.1086 102.097 94.2343 102.044 94.1045 101.072C93.9747 100.1 96.2954 99.7781 96.4268 100.762C96.5582 101.745 96.6374 101.932 96.9238 102.075C96.9238 102.075 97.1352 103.202 95.5516 103.414C93.968 103.625 93.8544 102.44 93.8544 102.44Z" fill="#EFD6CE"/>
<path d="M95.1191 102.631C95.3019 102.72 95.5467 102.682 95.7178 102.66C95.8916 102.636 96.1397 102.606 96.2946 102.469C96.4118 102.366 96.5506 102.146 96.68 101.863C96.5725 101.688 96.5101 101.385 96.4268 100.762C96.2954 99.7783 93.9744 100.101 94.1042 101.072C94.1291 101.259 94.1447 101.411 94.1517 101.539C94.4739 102.077 94.87 102.51 95.1191 102.631Z" fill="#D3B6AE"/>
<path d="M96.739 99.0287C96.2427 97.0595 95.7259 97.0321 94.767 97.1601C93.8082 97.2882 93.3167 97.4503 93.3546 99.4807C93.2013 99.538 93.1092 99.7801 93.146 100.056C93.1862 100.357 93.3638 100.582 93.5427 100.558C93.5626 100.555 93.5812 100.549 93.5992 100.54C93.933 101.306 94.513 102.003 94.8399 102.162C95.0228 102.25 95.2675 102.213 95.4389 102.19C95.6125 102.167 95.8608 102.137 96.0157 102C96.281 101.765 96.6578 100.941 96.7802 100.115C96.8 100.119 96.8199 100.12 96.8401 100.117C97.019 100.093 97.1314 99.83 97.0912 99.5291C97.0544 99.2532 96.902 99.0438 96.739 99.0287Z" fill="#EFD6CE"/>
<path d="M93.7113 100.2C93.6417 99.6788 93.6456 99.6605 93.6878 99.3826C95.2307 98.9233 95.6344 98.3348 96.0459 98.0749C96.4393 98.4003 96.4839 99.1059 96.5788 99.8168C96.8438 99.7789 96.5545 99.0902 96.8271 99.0538C96.6258 97.7859 96.6973 97.3528 95.9308 96.8797C95.1705 96.4104 94.2296 96.7966 93.5725 97.32C92.9411 97.8228 93.1175 98.1258 93.3024 99.5063C93.5966 99.5415 93.4505 100.235 93.7113 100.2Z" fill="#996452"/>
<path d="M152.869 90.1492L108.025 95.6965L108.416 98.8546L153.26 93.3072L152.869 90.1492Z" fill="#4C4C4C"/>
<path d="M132.332 100.385L108.963 103.276L109.353 106.434L132.723 103.543L132.332 100.385Z" fill="#4C4C4C"/>
<path d="M165.553 112.167L110.603 118.964L110.994 122.122L165.944 115.325L165.553 112.167Z" fill="#4C4C4C"/>
<path d="M140.176 123.001L111.541 126.543L111.931 129.702L140.567 126.159L140.176 123.001Z" fill="#4C4C4C"/>
<path d="M158.104 138.124L113.26 143.671L113.65 146.829L158.494 141.282L158.104 138.124Z" fill="#4C4C4C"/>
<path d="M137.567 148.359L114.197 151.25L114.588 154.408L137.957 151.517L137.567 148.359Z" fill="#4C4C4C"/>
<path d="M160.839 164.271L115.994 169.818L116.385 172.976L161.229 167.429L160.839 164.271Z" fill="#4C4C4C"/>
<path d="M140.301 174.506L116.932 177.397L117.322 180.555L140.692 177.664L140.301 174.506Z" fill="#4C4C4C"/>
<path d="M174.233 189.266L118.651 196.142L119.042 199.3L174.623 192.424L174.233 189.266Z" fill="#4C4C4C"/>
<path d="M148.554 200.138L119.589 203.721L119.979 206.879L148.944 203.296L148.554 200.138Z" fill="#4C4C4C"/>
<path d="M166.151 217.726L121.307 223.273L121.698 226.431L166.542 220.884L166.151 217.726Z" fill="#4C4C4C"/>
<path d="M145.614 227.961L122.245 230.852L122.635 234.01L146.005 231.119L145.614 227.961Z" fill="#4C4C4C"/>
<rect x="76.2773" y="81.3171" width="97.4266" height="9.54635" transform="rotate(-7.12135 76.2773 81.3171)" fill="#282828"/>
<path d="M82.2985 70.3969C82.1219 68.9822 83.3857 67.6598 85.1213 67.4431L123.67 62.6307C125.405 62.414 126.955 63.3852 127.132 64.7998C127.309 66.2145 126.045 67.5369 124.309 67.7536L85.7608 72.566C84.0253 72.7827 82.4751 71.8116 82.2985 70.3969Z" fill="#4C4C4C"/>
<path d="M157.869 224.504C158.229 227.39 160.861 229.437 163.747 229.077L177.767 227.327C180.653 226.966 182.7 224.335 182.34 221.449C181.98 218.563 179.348 216.515 176.462 216.875L162.442 218.626C159.556 218.986 157.508 221.618 157.869 224.504Z" fill="#EF8BA4"/>
<path d="M156.833 60.775C157.039 62.4278 158.602 63.5933 160.324 63.3784C162.045 63.1635 163.274 61.6494 163.067 59.9967L163.036 59.7473C162.83 58.0945 161.267 56.9289 159.545 57.1439C157.824 57.3588 156.595 58.8729 156.802 60.5256L156.833 60.775Z" fill="#EF8BA4"/>
<path d="M98.2555 55.1176C98.4752 56.8774 100.08 58.1259 101.84 57.9062L131.919 54.1511C133.679 53.9314 134.927 52.3267 134.707 50.5669C134.488 48.8071 132.883 47.5587 131.123 47.7783L101.044 51.5335C99.2843 51.7531 98.0358 53.3578 98.2555 55.1176Z" fill="#4C4C4C"/>
<path d="M154.343 48.2236C154.554 49.913 156.095 51.1115 157.784 50.9006C159.473 50.6897 160.672 49.1492 160.461 47.4598L160.429 47.2049C160.218 45.5155 158.678 44.317 156.988 44.5279C155.299 44.7388 154.1 46.2793 154.311 47.9687L154.343 48.2236Z" fill="#666666"/>
<path d="M144.674 49.1556C144.909 51.0445 146.696 52.3766 148.663 52.1309C150.631 51.8853 152.035 50.1549 151.799 48.2661L151.763 47.9811C151.527 46.0922 149.741 44.7601 147.774 45.0057C145.806 45.2514 144.402 46.9817 144.638 48.8706L144.674 49.1556Z" fill="#EF8BA4"/>
<path d="M80.4107 57.0867C80.6465 58.9756 82.4327 60.3077 84.4002 60.0621C86.3678 59.8164 87.7717 58.0861 87.5359 56.1972L87.5003 55.9122C87.2645 54.0234 85.4783 52.6913 83.5107 52.9369C81.5432 53.1825 80.1393 54.9129 80.3751 56.8017L80.4107 57.0867Z" fill="#EF8BA4"/>
<path d="M97.3089 118.358C93.8272 118.823 91.3818 122.022 91.8469 125.504C92.3119 128.985 95.5111 131.43 98.9928 130.965C102.474 130.5 104.92 127.301 104.455 123.82C103.99 120.338 100.791 117.893 97.3089 118.358Z" fill="#3E3E3E"/>
<path d="M97.6396 119.329L97.2451 119.382C95.959 119.554 95.0471 120.747 95.2188 122.033L95.395 123.352C95.5668 124.638 96.7598 125.55 98.0459 125.378L98.4405 125.325C99.7266 125.153 100.638 123.961 100.466 122.674L100.29 121.356C100.119 120.069 98.9257 119.158 97.6396 119.329Z" fill="#241E20"/>
<path d="M100.413 125.808C99.3404 125.951 99.2066 124.95 99.0837 124.03L98.9302 122.88L96.915 123.15L97.0684 124.299C97.1914 125.219 97.2539 126.23 96.2522 126.364C96.0547 126.39 95.8677 126.445 95.6939 126.523C96.3248 127.41 97.4135 127.927 98.5675 127.773C99.7199 127.619 100.633 126.837 101.01 125.817C100.817 125.785 100.617 125.781 100.413 125.808Z" fill="#D7AD83"/>
<path d="M101.018 125.816C100.641 126.835 99.728 127.618 98.5757 127.772C97.4217 127.926 96.333 127.409 95.7021 126.521C94.9017 126.88 94.3923 127.736 94.514 128.647L94.6944 129.998C95.9223 130.794 97.4285 131.174 98.9927 130.965C100.557 130.756 101.91 129.994 102.886 128.904L102.706 127.553C102.585 126.648 101.877 125.958 101.018 125.816Z" fill="#D0759F"/>
<path d="M98.6202 126.012C98.9214 125.972 99.2044 125.735 99.4351 125.39C99.2198 125.039 99.1492 124.523 99.0833 124.03L98.9298 122.881L96.9146 123.15L97.0681 124.299C97.0995 124.535 97.1269 124.776 97.1335 125.007C97.5607 125.639 98.1348 126.077 98.6202 126.012Z" fill="#C59264"/>
<path d="M98.5861 121.144C98.4743 121.728 96.5828 122.53 96.1156 122.353C95.9649 122.413 95.8737 122.651 95.9102 122.925C95.95 123.222 96.1244 123.445 96.3014 123.426C96.6657 124.493 97.5444 125.432 98.2408 125.339C98.9368 125.246 99.5383 124.11 99.6098 122.984C99.7855 122.956 99.8952 122.696 99.8554 122.398C99.8413 122.292 99.8101 122.197 99.7684 122.118C99.5007 122.033 98.8884 121.697 98.5861 121.144Z" fill="#D7AD83"/>
<path d="M157.504 43.9955C155.485 44.2652 154.066 46.121 154.336 48.1405C154.606 50.16 156.461 51.5783 158.481 51.3085C160.501 51.0388 161.919 49.1832 161.649 47.1637C161.379 45.1442 159.524 43.7258 157.504 43.9955Z" fill="#EF8BA4"/>
<path d="M157.694 44.5591L157.465 44.5897C156.719 44.6892 156.191 45.381 156.29 46.1267L156.392 46.8912C156.492 47.6371 157.184 48.1656 157.929 48.066L158.158 48.0355C158.904 47.9359 159.432 47.2443 159.333 46.4985L159.231 45.7339C159.131 44.9883 158.44 44.4595 157.694 44.5591Z" fill="#D0BE7C"/>
<path d="M159.303 48.3157C158.681 48.3988 158.604 47.8181 158.532 47.2845L158.443 46.6181L157.275 46.7742L157.364 47.4405C157.435 47.9742 157.471 48.5603 156.891 48.6379C156.776 48.6532 156.668 48.6849 156.567 48.73C156.933 49.2445 157.564 49.5445 158.233 49.4551C158.901 49.3659 159.431 48.912 159.649 48.3211C159.538 48.3024 159.421 48.2999 159.303 48.3157Z" fill="#EFD6CE"/>
<path d="M159.654 48.3194C159.435 48.9105 158.905 49.3642 158.237 49.4535C157.568 49.5428 156.937 49.243 156.571 48.7283C156.107 48.9363 155.812 49.4327 155.882 49.9608L155.987 50.7442C156.699 51.2059 157.572 51.426 158.479 51.3049C159.386 51.1838 160.171 50.7421 160.737 50.1098L160.632 49.3264C160.562 48.8017 160.152 48.4019 159.654 48.3194Z" fill="#EF0057"/>
<path d="M158.263 48.4335C158.438 48.4101 158.602 48.2729 158.736 48.0726C158.611 47.869 158.57 47.5701 158.532 47.2839L158.443 46.6176L157.274 46.7737L157.363 47.44C157.382 47.5766 157.398 47.7165 157.401 47.8503C157.649 48.2168 157.982 48.471 158.263 48.4335Z" fill="#D3B6AE"/>
<path d="M158.244 45.6111C158.179 45.9499 157.082 46.4148 156.811 46.3123C156.724 46.347 156.671 46.4851 156.692 46.6436C156.715 46.8163 156.816 46.9452 156.919 46.9344C157.13 47.5532 157.64 48.0976 158.043 48.0437C158.447 47.9898 158.796 47.3307 158.837 46.6782C158.939 46.6616 159.003 46.5108 158.979 46.3381C158.971 46.277 158.953 46.222 158.929 46.1762C158.774 46.1266 158.419 45.9319 158.244 45.6111Z" fill="#EFD6CE"/>
<path d="M22.8857 69.4116L27.2281 103.574C27.7281 107.508 31.3227 110.292 35.2567 109.792L71.9675 105.126" stroke="#F9DADF" stroke-width="0.897563" stroke-linecap="round" stroke-dasharray="7.18 7.18"/>
<path d="M43.3911 236.355L39.0511 202.192C38.5513 198.258 41.3354 194.663 45.2694 194.164L81.9805 189.5" stroke="#F9DADF" stroke-width="0.897563" stroke-linecap="round" stroke-dasharray="7.18 7.18"/>
<path d="M221.887 121.193L188.052 125.491" stroke="#F9DADF" stroke-width="0.897563" stroke-linecap="round" stroke-dasharray="7.18 7.18"/>
<path d="M83.6803 269.946L83.3068 267.006L81.7997 267.197L82.1732 270.137L79.2466 269.429L78.9282 270.876L81.8455 271.509L80.4237 274.15L81.8398 274.824L83.2027 272.115L85.3479 274.378L86.3745 273.369L84.3654 271.189L87.081 269.84L86.337 268.529L83.6803 269.946Z" fill="#F9DADF"/>
<path d="M237.163 211.604L236.79 208.664L235.283 208.855L235.656 211.795L232.729 211.088L232.411 212.534L235.328 213.167L233.907 215.808L235.323 216.482L236.686 213.773L238.831 216.036L239.857 215.027L237.848 212.847L240.564 211.498L239.82 210.187L237.163 211.604Z" fill="#F9DADF"/>
<path d="M92.6559 3.36672L92.2824 0.426765L90.7753 0.618217L91.1488 3.55817L88.2221 2.85049L87.9038 4.29677L90.8211 4.93033L89.3992 7.57117L90.8154 8.24482L92.1783 5.53614L94.3235 7.79914L95.3501 6.79008L93.341 4.6102L96.0566 3.26105L95.3126 1.94973L92.6559 3.36672Z" fill="#F9DADF"/>
<path d="M20.8507 122.745L20.4772 119.805L18.9702 119.997L19.3436 122.937L16.417 122.229L16.0986 123.675L19.0159 124.309L17.5941 126.95L19.0102 127.623L20.3732 124.915L22.5184 127.178L23.545 126.168L21.5358 123.989L24.2514 122.639L23.5074 121.328L20.8507 122.745Z" fill="#F9DADF"/>
<path d="M207.625 246.497L207.14 242.679L205.183 242.927L205.668 246.745L201.867 245.826L201.453 247.705L205.242 248.527L203.395 251.957L205.235 252.832L207.005 249.314L209.791 252.253L211.124 250.943L208.515 248.112L212.041 246.36L211.075 244.657L207.625 246.497Z" fill="#F3B4C2"/>
<path d="M249.689 23.1735L249.052 18.1553L246.479 18.4821L247.117 23.5003L242.121 22.2923L241.578 24.761L246.557 25.8424L244.13 30.35L246.547 31.4999L248.874 26.8764L252.536 30.7392L254.288 29.0168L250.859 25.296L255.494 22.9931L254.224 20.7548L249.689 23.1735Z" fill="#F9DADF"/>
</svg>
