<svg width="291" height="276" viewBox="0 0 291 276" fill="none" xmlns="http://www.w3.org/2000/svg">
<path d="M181.162 72.2952H232.102C236.812 72.2952 240.666 68.4422 240.666 63.7299V62.0197C240.666 57.3098 236.812 53.4556 232.102 53.4556H194.336C189.625 53.4556 185.771 57.3098 185.771 62.0197V63.7299C185.771 68.4422 185.771 71.2679 181.162 72.2952Z" fill="#CC3F6D"/>
<path d="M199.502 57.3097V58.8023H198.022V57.3097H199.502ZM199.502 59.6356V66.3271H198.022V59.6356H199.502ZM202.648 57.3097V62.3222L205.123 59.6356H206.902L204.339 62.3844L207.188 66.3271H205.459L203.357 63.4291L202.648 64.1878V66.3271H201.168V57.3097H202.648ZM207.941 66.3271V64.6356H209.633V66.3271H207.941ZM212.596 66.3271H211.116V59.6356H212.596V60.5684C212.981 59.8719 213.64 59.4863 214.536 59.4863C215.568 59.4863 216.178 59.9217 216.489 60.6679C217.061 59.8222 217.844 59.4863 218.665 59.4863C220.245 59.4863 220.854 60.5311 220.854 62.1232V66.3271H219.374V62.4839C219.374 61.5759 219.287 60.6928 218.193 60.6928C217.098 60.6928 216.725 61.5635 216.725 62.7699V66.3271H215.245V62.4839C215.245 61.5759 215.158 60.6928 214.063 60.6928C212.969 60.6928 212.596 61.5635 212.596 62.7699V66.3271ZM223.457 63.4043C223.556 64.648 224.427 65.2575 225.273 65.2575C226.044 65.2575 226.653 64.9465 226.914 64.3247H228.37C228.059 65.3943 227.064 66.4888 225.335 66.4888C223.183 66.4888 221.952 64.847 221.952 62.9316C221.952 60.9167 223.332 59.4863 225.235 59.4863C227.288 59.4863 228.569 61.153 228.444 63.4043H223.457ZM223.457 62.3222H226.939C226.902 61.2774 226.106 60.6431 225.235 60.6431C224.539 60.6431 223.581 61.0535 223.457 62.3222Z" fill="white"/>
<path d="M197.19 178.677H278.657C283.367 178.677 287.222 174.824 287.222 170.111V168.401C287.222 163.691 283.367 159.837 278.657 159.837H210.364C205.653 159.837 201.799 163.691 201.799 168.401V170.111C201.799 174.824 201.799 177.649 197.19 178.677Z" fill="#EC5B86"/>
<path d="M215.191 173.026H213.711V166.335H215.191V167.268C215.577 166.571 216.236 166.186 217.132 166.186C218.164 166.186 218.773 166.621 219.084 167.367C219.657 166.521 220.44 166.186 221.261 166.186C222.841 166.186 223.45 167.23 223.45 168.822V173.026H221.97V169.183C221.97 168.275 221.883 167.392 220.788 167.392C219.694 167.392 219.321 168.263 219.321 169.469V173.026H217.841V169.183C217.841 168.275 217.754 167.392 216.659 167.392C215.565 167.392 215.191 168.263 215.191 169.469V173.026ZM224.597 171.186C224.597 169.519 226.649 169.096 229.1 168.847V168.723C229.1 167.579 228.44 167.23 227.707 167.23C226.96 167.23 226.401 167.628 226.363 168.437H224.908C225.008 167.069 226.139 166.136 227.756 166.136C229.361 166.136 230.617 166.87 230.58 169.009C230.58 169.345 230.555 170.128 230.555 170.738C230.555 171.584 230.63 172.467 230.754 173.026H229.398C229.348 172.74 229.299 172.579 229.274 172.118C228.851 172.84 228.055 173.188 227.072 173.188C225.617 173.188 224.597 172.404 224.597 171.186ZM229.137 169.88C227.023 170.079 226.164 170.377 226.164 171.148C226.164 171.733 226.649 172.081 227.396 172.081C228.49 172.081 229.137 171.521 229.137 170.39V169.88ZM233.557 164.009V165.501H232.076V164.009H233.557ZM233.557 166.335V173.026H232.076V166.335H233.557ZM236.702 173.026H235.222V164.009H236.702V173.026ZM238.182 173.026V171.335H239.873V173.026H238.182ZM246.959 168.623H245.516C245.391 167.914 244.769 167.417 243.961 167.417C243.041 167.417 242.207 168.101 242.207 169.681C242.207 171.273 243.053 171.957 243.924 171.957C244.645 171.957 245.379 171.633 245.566 170.738H247.008C246.71 172.305 245.329 173.188 243.899 173.188C241.959 173.188 240.677 171.683 240.677 169.693C240.677 167.703 241.971 166.186 243.961 166.186C245.416 166.186 246.71 167.131 246.959 168.623ZM254.327 169.693C254.327 172.106 252.66 173.188 251.031 173.188C249.401 173.188 247.735 172.106 247.735 169.693C247.735 167.28 249.401 166.186 251.031 166.186C252.66 166.186 254.327 167.28 254.327 169.693ZM251.031 171.982C251.964 171.982 252.797 171.235 252.797 169.693C252.797 168.151 251.964 167.392 251.031 167.392C250.098 167.392 249.265 168.151 249.265 169.693C249.265 171.235 250.098 171.982 251.031 171.982ZM257.023 173.026H255.543V166.335H257.023V167.268C257.409 166.571 258.068 166.186 258.964 166.186C259.996 166.186 260.605 166.621 260.916 167.367C261.488 166.521 262.272 166.186 263.093 166.186C264.673 166.186 265.282 167.23 265.282 168.822V173.026H263.802V169.183C263.802 168.275 263.715 167.392 262.62 167.392C261.526 167.392 261.153 168.263 261.153 169.469V173.026H259.673V169.183C259.673 168.275 259.585 167.392 258.491 167.392C257.396 167.392 257.023 168.263 257.023 169.469V173.026Z" fill="white"/>
<path d="M78.1569 154.747H11.4909C6.78096 154.747 2.92676 150.894 2.92676 146.182V144.471C2.92676 139.761 6.78096 135.907 11.4909 135.907H64.983C69.6941 135.907 73.5483 139.761 73.5483 144.471V146.182C73.5483 150.894 73.5483 153.72 78.1569 154.747Z" fill="#BC0055"/>
<path d="M14.0673 145.734C14.1668 146.978 15.0375 147.588 15.8832 147.588C16.6544 147.588 17.2638 147.277 17.525 146.655H18.9802C18.6693 147.724 17.6743 148.819 15.9454 148.819C13.7937 148.819 12.5623 147.177 12.5623 145.262C12.5623 143.247 13.9429 141.816 15.8459 141.816C17.8982 141.816 19.1793 143.483 19.0549 145.734H14.0673ZM14.0673 144.652H17.5499C17.5126 143.607 16.7166 142.973 15.8459 142.973C15.1494 142.973 14.1917 143.384 14.0673 144.652ZM20.485 140.2H21.9651V141.966H23.3084V143.035H21.9651V146.68C21.9651 147.364 22.1268 147.525 22.7612 147.525H23.296V148.657H22.2015C20.7711 148.657 20.485 148.272 20.485 146.903V143.035H19.49V141.966H20.485V140.2ZM25.9806 139.64V141.132H24.5005V139.64H25.9806ZM25.9806 141.966V148.657H24.5005V141.966H25.9806ZM29.1265 139.64V144.652L31.6016 141.966H33.3802L30.818 144.714L33.6663 148.657H31.9374L29.8355 145.759L29.1265 146.518V148.657H27.6464V139.64H29.1265ZM34.4197 148.657V146.966H36.1112V148.657H34.4197ZM43.1965 144.254H41.7537C41.6293 143.545 41.0074 143.048 40.199 143.048C39.2786 143.048 38.4453 143.732 38.4453 145.311C38.4453 146.903 39.291 147.588 40.1617 147.588C40.8831 147.588 41.6169 147.264 41.8035 146.369H43.2463C42.9477 147.936 41.5671 148.819 40.1368 148.819C38.1965 148.819 36.9154 147.314 36.9154 145.324C36.9154 143.334 38.2089 141.816 40.199 141.816C41.6542 141.816 42.9477 142.762 43.1965 144.254ZM50.5647 145.324C50.5647 147.737 48.8981 148.819 47.2687 148.819C45.6394 148.819 43.9727 147.737 43.9727 145.324C43.9727 142.911 45.6394 141.816 47.2687 141.816C48.8981 141.816 50.5647 142.911 50.5647 145.324ZM47.2687 147.612C48.2016 147.612 49.0349 146.866 49.0349 145.324C49.0349 143.782 48.2016 143.023 47.2687 143.023C46.3359 143.023 45.5026 143.782 45.5026 145.324C45.5026 146.866 46.3359 147.612 47.2687 147.612ZM53.2612 148.657H51.7811V141.966H53.2612V142.899C53.6468 142.202 54.306 141.816 55.2015 141.816C56.2339 141.816 56.8433 142.252 57.1543 142.998C57.7264 142.152 58.51 141.816 59.3309 141.816C60.9105 141.816 61.5199 142.861 61.5199 144.453V148.657H60.0398V144.814C60.0398 143.906 59.9528 143.023 58.8582 143.023C57.7637 143.023 57.3906 143.894 57.3906 145.1V148.657H55.9105V144.814C55.9105 143.906 55.8234 143.023 54.7289 143.023C53.6344 143.023 53.2612 143.894 53.2612 145.1V148.657Z" fill="white"/>
<path d="M156.878 20.6795L79.9949 30.2377C76.4686 30.6809 73.2621 32.5043 71.0782 35.3081C68.8944 38.1119 67.9115 41.6672 68.3452 45.1945L92.4262 238.894C92.8694 242.42 94.6929 245.627 97.4968 247.811C100.301 249.994 103.856 250.977 107.383 250.543L184.262 240.986C187.788 240.542 190.995 238.719 193.179 235.915C195.363 233.112 196.346 229.556 195.912 226.029L171.831 32.3291C171.388 28.8037 169.565 25.5978 166.762 23.4141C163.959 21.2304 160.405 20.2471 156.878 20.6795Z" fill="#E0E0E0"/>
<path d="M106.948 246.746C104.426 247.059 101.884 246.36 99.8769 244.802C97.8702 243.244 96.5633 240.953 96.2428 238.433L72.1602 44.7196C71.8551 42.1977 72.5618 39.6577 74.1256 37.6558C75.6894 35.6538 77.9829 34.3532 80.5037 34.0386L91.2235 32.7059L91.3203 33.485C91.5707 35.4992 92.6092 37.332 94.2083 38.5819C95.8075 39.8319 97.8369 40.3972 99.852 40.1539L140.085 35.1521C142.101 34.8954 143.934 33.8513 145.183 32.2477C146.432 30.6442 146.995 28.6116 146.751 26.5939L146.654 25.8148L157.369 24.4826C159.887 24.1743 162.425 24.8762 164.427 26.4347C166.429 27.9932 167.733 30.2813 168.051 32.7983L192.134 226.512C192.441 229.03 191.738 231.568 190.179 233.569C188.619 235.57 186.33 236.872 183.813 237.19L106.948 246.746Z" fill="white"/>
<path d="M108.32 220.329C104.868 220.763 102.421 223.913 102.855 227.366C103.289 230.818 106.439 233.265 109.891 232.831C113.344 232.397 115.791 229.247 115.357 225.795C114.923 222.342 111.773 219.895 108.32 220.329Z" fill="#F5F5F5"/>
<path d="M106.779 228.389L106.221 223.952C106.061 222.677 106.973 221.502 108.249 221.342L108.64 221.293C109.915 221.132 111.09 222.045 111.25 223.32L111.807 227.757L106.779 228.389Z" fill="#340E00"/>
<path d="M111.936 227.745L106.665 228.403C105.869 228.752 105.358 229.596 105.471 230.499L105.64 231.839C106.85 232.637 108.339 233.025 109.89 232.83C111.441 232.635 112.788 231.891 113.763 230.818L113.594 229.479C113.482 228.581 112.786 227.893 111.936 227.745Z" fill="#824D65"/>
<path d="M111.33 227.733C110.266 227.867 110.141 226.874 110.027 225.961L109.883 224.822L107.885 225.073L108.028 226.212C108.143 227.125 108.197 228.127 107.204 228.252C107.008 228.276 106.822 228.329 106.65 228.405C107.268 229.289 108.342 229.809 109.486 229.666C110.629 229.522 111.54 228.754 111.921 227.747C111.73 227.714 111.532 227.708 111.33 227.733Z" fill="#EFD6CE"/>
<path d="M109.554 227.918C109.853 227.88 110.135 227.648 110.366 227.307C110.156 226.958 110.09 226.447 110.028 225.957L109.885 224.818L107.887 225.069L108.03 226.208C108.059 226.442 108.085 226.681 108.089 226.91C108.508 227.539 109.073 227.978 109.554 227.918Z" fill="#D3B6AE"/>
<path d="M110.12 223.328C109.837 223.606 109.425 223.838 108.941 223.964C108.313 224.127 107.705 224.074 107.286 223.859C107.276 224.063 106.998 224.501 106.92 224.546C106.898 224.634 106.891 224.738 106.905 224.847C106.942 225.143 107.113 225.364 107.288 225.347C107.641 226.407 108.504 227.344 109.194 227.257C109.885 227.17 110.489 226.049 110.569 224.935C110.743 224.908 110.854 224.651 110.816 224.356C110.803 224.249 110.772 224.154 110.73 224.074C110.501 223.979 110.214 223.625 110.12 223.328Z" fill="#EFD6CE"/>
<path d="M105.705 192.938C102.255 193.393 99.8279 196.558 100.283 200.008C100.738 203.457 103.903 205.885 107.353 205.43C110.803 204.975 113.23 201.81 112.775 198.36C112.32 194.91 109.155 192.483 105.705 192.938Z" fill="#F5F5F5"/>
<path d="M109.329 199.978L109.321 199.984C109.321 199.982 109.321 199.98 109.321 199.979C109.13 199.947 108.337 199.707 108.13 199.601L105.088 199.958C104.92 200.156 104.226 200.592 104.054 200.669C104.054 200.67 104.055 200.67 104.055 200.671C103.265 201.027 102.57 202.04 102.688 202.94L102.986 204.391C104.22 205.232 105.757 205.641 107.355 205.43C108.959 205.218 110.341 204.42 111.316 203.28L111.228 201.814C111.109 200.917 110.18 200.12 109.329 199.978Z" fill="#BC0055"/>
<path d="M105.079 199.961C105.331 199.621 105.456 199.569 105.329 198.606C105.202 197.644 107.501 197.328 107.63 198.303C107.758 199.278 107.836 199.463 108.12 199.604C108.12 199.604 108.328 200.721 106.758 200.928C105.189 201.135 105.079 199.961 105.079 199.961Z" fill="#EFD6CE"/>
<path d="M106.337 200.148C106.518 200.237 106.76 200.2 106.93 200.178C107.102 200.155 107.348 200.126 107.502 199.99C107.618 199.888 107.756 199.67 107.884 199.39C107.778 199.217 107.717 198.917 107.635 198.299C107.507 197.324 105.207 197.64 105.334 198.602C105.358 198.787 105.373 198.939 105.38 199.065C105.699 199.598 106.09 200.028 106.337 200.148Z" fill="#D3B6AE"/>
<path d="M107.942 196.582C107.454 194.631 106.942 194.603 105.992 194.728C105.042 194.853 104.554 195.013 104.589 197.025C104.437 197.081 104.345 197.321 104.381 197.594C104.421 197.892 104.596 198.115 104.773 198.092C104.793 198.089 104.811 198.083 104.829 198.074C105.159 198.834 105.732 199.525 106.056 199.683C106.237 199.771 106.479 199.734 106.649 199.712C106.821 199.689 107.067 199.66 107.221 199.524C107.484 199.292 107.859 198.476 107.981 197.659C108.001 197.662 108.02 197.663 108.04 197.661C108.218 197.637 108.33 197.377 108.29 197.078C108.254 196.805 108.103 196.597 107.942 196.582Z" fill="#EFD6CE"/>
<path d="M104.956 197.738C104.888 197.222 104.892 197.204 104.934 196.928C106.463 196.476 106.864 195.893 107.272 195.637C107.661 195.96 107.704 196.659 107.797 197.363C108.06 197.326 107.774 196.643 108.044 196.608C107.847 195.351 107.919 194.922 107.16 194.453C106.408 193.986 105.475 194.368 104.823 194.885C104.197 195.382 104.371 195.682 104.552 197.05C104.843 197.086 104.698 197.772 104.956 197.738Z" fill="#838383"/>
<path d="M103.064 167.458C99.6179 167.938 97.2135 171.121 97.6936 174.568C98.1738 178.014 101.357 180.418 104.803 179.938C108.249 179.458 110.654 176.275 110.174 172.829C109.693 169.382 106.51 166.978 103.064 167.458Z" fill="#F5F5F5"/>
<path d="M106.733 174.471L106.726 174.478C106.726 174.476 106.726 174.474 106.725 174.472C106.534 174.442 105.739 174.208 105.532 174.104L104.278 176.141L102.493 174.483C102.326 174.682 101.635 175.123 101.463 175.201C101.464 175.202 101.464 175.202 101.465 175.203C100.678 175.564 99.9894 176.583 100.115 177.482L100.422 178.931C101.663 179.763 103.202 180.16 104.799 179.938C106.401 179.714 107.778 178.906 108.745 177.759L108.646 176.294C108.521 175.398 107.585 174.607 106.733 174.471Z" fill="#DFBDCC"/>
<path d="M102.505 174.481C102.754 174.14 102.878 174.087 102.744 173.125C102.61 172.164 104.908 171.831 105.043 172.805C105.179 173.779 105.258 173.963 105.543 174.102L104.289 176.14L102.505 174.481Z" fill="#875744"/>
<path opacity="0.256859" d="M103.743 174.665C103.925 174.752 104.167 174.714 104.336 174.69C104.508 174.666 104.754 174.635 104.907 174.498C105.022 174.395 105.158 174.177 105.285 173.895C105.177 173.723 105.114 173.423 105.028 172.806C104.892 171.833 102.595 172.165 102.729 173.126C102.755 173.311 102.771 173.462 102.779 173.589C103.101 174.12 103.495 174.547 103.743 174.665Z" fill="black"/>
<path d="M105.332 171.088C104.829 169.14 104.317 169.116 103.368 169.248C102.419 169.381 101.865 169.584 101.914 171.595C101.762 171.652 101.717 171.86 101.779 172.126C101.846 172.419 101.997 172.645 102.174 172.621C102.194 172.618 102.212 172.612 102.23 172.603C102.565 173.36 103.144 174.047 103.468 174.203C103.65 174.289 103.892 174.251 104.062 174.227C104.234 174.204 104.479 174.172 104.632 174.035C104.894 173.802 105.262 172.983 105.379 172.164C105.399 172.168 105.418 172.169 105.438 172.166C105.615 172.141 105.725 171.88 105.684 171.582C105.646 171.309 105.493 171.102 105.332 171.088Z" fill="#875744"/>
<path d="M102.347 172.263C102.275 171.748 102.173 171.1 102.266 170.824C102.359 170.548 103.978 169.641 104.917 170.455C105.071 170.876 105.087 171.164 105.185 171.868C105.444 171.832 105.146 171.154 105.415 171.116C105.447 170.488 105.556 168.554 103.104 168.834C102.489 168.904 101.885 168.912 101.885 168.912C101.885 168.912 101.646 169.353 101.66 170.012C101.673 170.67 101.91 171.595 101.91 171.595C102.201 171.628 102.089 172.299 102.347 172.263Z" fill="#241E20"/>
<path d="M100.423 142.147C96.9745 142.608 94.5521 145.777 95.0128 149.226C95.4734 152.675 98.6426 155.097 102.092 154.636C105.541 154.175 107.963 151.007 107.502 147.558C107.042 144.109 103.872 141.686 100.423 142.147Z" fill="#F5F5F5"/>
<path d="M98.9482 150.216L98.3563 145.784C98.1861 144.51 99.0892 143.329 100.363 143.158L100.754 143.106C102.028 142.936 103.21 143.839 103.38 145.113L103.972 149.545L98.9482 150.216Z" fill="#C6AC9F"/>
<path d="M104.106 149.538L98.8399 150.237C98.047 150.592 97.5424 151.44 97.6629 152.343L97.8417 153.681C99.058 154.47 100.55 154.846 102.1 154.639C103.649 154.432 104.99 153.677 105.957 152.597L105.778 151.259C105.658 150.362 104.957 149.679 104.106 149.538Z" fill="#BF4C80"/>
<path d="M103.496 149.527C102.433 149.669 102.301 148.677 102.179 147.765L102.027 146.627L100.031 146.894L100.183 148.032C100.305 148.944 100.367 149.945 99.3743 150.078C99.1787 150.104 98.9934 150.158 98.8216 150.235C99.4465 151.114 100.525 151.627 101.668 151.474C102.809 151.321 103.714 150.546 104.088 149.536C103.897 149.505 103.698 149.5 103.496 149.527Z" fill="#EFD6CE"/>
<path d="M101.729 149.727C102.027 149.687 102.307 149.452 102.536 149.11C102.323 148.762 102.253 148.251 102.187 147.763L102.035 146.624L100.039 146.891L100.191 148.029C100.222 148.263 100.249 148.502 100.256 148.73C100.679 149.356 101.248 149.791 101.729 149.727Z" fill="#D3B6AE"/>
<path d="M102.232 145.124C101.951 145.405 101.541 145.64 101.058 145.77C100.431 145.938 99.8231 145.889 99.4016 145.678C99.3937 145.882 99.1195 146.322 99.0415 146.367C99.0197 146.456 99.0138 146.56 99.0284 146.669C99.0678 146.964 99.2405 147.184 99.4157 147.166C99.7765 148.223 100.647 149.153 101.337 149.061C102.027 148.969 102.622 147.843 102.693 146.728C102.867 146.7 102.976 146.442 102.936 146.147C102.922 146.041 102.891 145.945 102.848 145.866C102.618 145.773 102.329 145.42 102.232 145.124Z" fill="#EFD6CE"/>
<path d="M94.4772 93.9233C91.0282 94.3839 88.6058 97.5531 89.0665 101.002C89.5271 104.451 92.6963 106.873 96.1453 106.412C99.5942 105.952 102.017 102.783 101.556 99.3339C101.095 95.885 97.9261 93.4626 94.4772 93.9233Z" fill="#F5F5F5"/>
<path d="M98.1017 100.961L98.0941 100.967C98.0939 100.965 98.0939 100.964 98.0937 100.962C97.9026 100.931 97.109 100.692 96.902 100.587L93.8612 100.948C93.6931 101.146 92.9994 101.584 92.8276 101.661C92.8282 101.661 92.8286 101.662 92.829 101.663C92.04 102.02 91.3459 103.035 91.4661 103.934L91.7658 105.384C93.0018 106.224 94.5386 106.63 96.1362 106.416C97.74 106.202 99.121 105.402 100.094 104.261L100.004 102.794C99.8838 101.898 98.9527 101.102 98.1017 100.961Z" fill="#BD95A7"/>
<path d="M93.8624 100.945C94.1142 100.605 94.2386 100.552 94.1101 99.5899C93.9815 98.6276 96.2804 98.3084 96.4106 99.2826C96.5407 100.257 96.6192 100.442 96.9029 100.583C96.9029 100.583 97.1123 101.7 95.5436 101.91C93.9748 102.119 93.8624 100.945 93.8624 100.945Z" fill="#EFD6CE"/>
<path d="M95.1275 101.134C95.3087 101.223 95.5511 101.185 95.7206 101.163C95.8928 101.14 96.1385 101.11 96.292 100.974C96.4081 100.872 96.5456 100.654 96.6738 100.373C96.5673 100.201 96.5054 99.9003 96.423 99.2827C96.2928 98.3085 93.9937 98.6277 94.1222 99.59C94.1469 99.775 94.1623 99.9262 94.1693 100.053C94.4884 100.585 94.8808 101.014 95.1275 101.134Z" fill="#D3B6AE"/>
<path d="M96.7219 97.5676C96.2304 95.6169 95.7183 95.5897 94.7685 95.7165C93.8187 95.8434 93.3318 96.004 93.3694 98.0154C93.2175 98.0721 93.1262 98.3119 93.1628 98.5853C93.2026 98.8834 93.3785 99.1059 93.5557 99.0822C93.5754 99.0796 93.5938 99.0732 93.6116 99.0648C93.9423 99.8234 94.5168 100.514 94.8407 100.671C95.0218 100.759 95.2643 100.722 95.4341 100.7C95.606 100.677 95.852 100.647 96.0055 100.511C96.2682 100.278 96.6415 99.4615 96.7628 98.644C96.7824 98.6473 96.8021 98.6486 96.8221 98.6459C96.9994 98.6223 97.1107 98.3614 97.0709 98.0633C97.0344 97.7899 96.8834 97.5825 96.7219 97.5676Z" fill="#EFD6CE"/>
<path d="M93.7347 98.7249C93.6658 98.2088 93.6696 98.1907 93.7114 97.9154C95.2397 97.4605 95.6397 96.8774 96.0473 96.62C96.437 96.9423 96.4812 97.6413 96.5752 98.3455C96.8377 98.3079 96.5512 97.6257 96.8212 97.5897C96.6218 96.3337 96.6926 95.9046 95.9333 95.436C95.1801 94.9711 94.2481 95.3537 93.5971 95.8722C92.9717 96.3702 93.1464 96.6704 93.3296 98.0379C93.621 98.0728 93.4763 98.7594 93.7347 98.7249Z" fill="#C6AC9F"/>
<path d="M152.32 88.7675L107.897 94.2627L108.284 97.3911L152.707 91.8958L152.32 88.7675Z" fill="#E0E0E0"/>
<path d="M131.98 98.9117L108.83 101.775L109.217 104.904L132.367 102.04L131.98 98.9117Z" fill="#E0E0E0"/>
<path d="M164.885 110.581L110.451 117.315L110.838 120.443L165.272 113.71L164.885 110.581Z" fill="#E0E0E0"/>
<path d="M139.751 121.319L111.384 124.828L111.771 127.956L140.138 124.447L139.751 121.319Z" fill="#E0E0E0"/>
<path d="M157.506 136.291L113.083 141.786L113.47 144.915L157.893 139.419L157.506 136.291Z" fill="#E0E0E0"/>
<path d="M137.166 146.435L114.016 149.299L114.403 152.427L137.553 149.563L137.166 146.435Z" fill="#E0E0E0"/>
<path d="M160.212 162.195L115.789 167.69L116.176 170.818L160.599 165.323L160.212 162.195Z" fill="#E0E0E0"/>
<path d="M139.872 172.339L116.722 175.203L117.109 178.331L140.259 175.467L139.872 172.339Z" fill="#E0E0E0"/>
<path d="M173.486 186.958L118.427 193.769L118.814 196.897L173.873 190.086L173.486 186.958Z" fill="#E0E0E0"/>
<path d="M148.049 197.732L119.356 201.282L119.743 204.41L148.436 200.861L148.049 197.732Z" fill="#E0E0E0"/>
<path d="M165.484 215.148L121.061 220.643L121.448 223.771L165.87 218.276L165.484 215.148Z" fill="#E0E0E0"/>
<path d="M145.143 225.291L121.993 228.155L122.38 231.283L145.53 228.419L145.143 225.291Z" fill="#E0E0E0"/>
<rect x="76.4521" y="80.0234" width="96.5113" height="9.45666" transform="rotate(-7.12135 76.4521 80.0234)" fill="#FAFAFA"/>
<path d="M82.4183 69.2063C82.2434 67.805 83.4953 66.4949 85.2146 66.2803L123.401 61.5131C125.12 61.2985 126.656 62.2605 126.831 63.6619C127.006 65.0632 125.754 66.3732 124.034 66.5879L85.8481 71.3551C84.1288 71.5697 82.5933 70.6077 82.4183 69.2063Z" fill="#E0E0E0"/>
<path d="M157.277 221.863C157.634 224.722 160.24 226.75 163.099 226.393L176.988 224.659C179.847 224.303 181.875 221.696 181.518 218.837C181.161 215.978 178.554 213.95 175.695 214.306L161.807 216.04C158.948 216.397 156.92 219.004 157.277 221.863Z" fill="#BC0055"/>
<path d="M156.198 59.2544C156.432 61.124 158.2 62.4426 160.147 62.1994C162.095 61.9563 163.484 60.2436 163.251 58.374L163.216 58.0919C162.982 56.2222 161.214 54.9037 159.267 55.1468C157.319 55.39 155.93 57.1027 156.163 58.9723L156.198 59.2544Z" fill="#BC0055"/>
<path d="M98.2222 54.0667C98.4398 55.81 100.029 57.0467 101.773 56.8291L131.569 53.1093C133.312 52.8916 134.549 51.302 134.332 49.5588C134.114 47.8155 132.524 46.5788 130.781 46.7964L100.985 50.5163C99.2413 50.7339 98.0045 52.3235 98.2222 54.0667Z" fill="#E0E0E0"/>
<path d="M153.781 47.2379C153.99 48.9114 155.516 50.0987 157.189 49.8898C158.863 49.6809 160.05 48.1548 159.841 46.4813L159.81 46.2288C159.601 44.5553 158.075 43.368 156.401 43.5769C154.728 43.7859 153.54 45.3119 153.749 46.9854L153.781 47.2379Z" fill="#666666"/>
<path d="M144.201 48.1631C144.435 50.0327 146.203 51.3512 148.15 51.1081C150.098 50.865 151.487 49.1523 151.254 47.2826L151.219 47.0005C150.985 45.1309 149.217 43.8124 147.27 44.0555C145.322 44.2987 143.933 46.0114 144.166 47.881L144.201 48.1631Z" fill="#BC0055"/>
<path d="M80.5481 56.022C80.7815 57.8916 82.5495 59.2101 84.497 58.967C86.4445 58.7239 87.8341 57.0112 87.6007 55.1415L87.5655 54.8594C87.332 52.9898 85.5641 51.6713 83.6165 51.9144C81.669 52.1575 80.2795 53.8703 80.5129 55.7399L80.5481 56.022Z" fill="#BC0055"/>
<path d="M97.2731 116.715C93.8241 117.175 91.4017 120.345 91.8624 123.794C92.323 127.243 95.4922 129.665 98.9412 129.204C102.39 128.743 104.812 125.574 104.352 122.125C103.891 118.677 100.722 116.254 97.2731 116.715Z" fill="#F5F5F5"/>
<path d="M97.6049 117.675L97.2141 117.727C95.9401 117.897 95.0367 119.079 95.2069 120.353L95.3813 121.659C95.5515 122.933 96.7333 123.836 98.0074 123.666L98.3982 123.614C99.6722 123.444 100.575 122.262 100.405 120.988L100.231 119.682C100.061 118.408 98.8789 117.504 97.6049 117.675Z" fill="#241E20"/>
<path d="M100.347 124.096C99.2843 124.238 99.1518 123.245 99.0301 122.334L98.878 121.195L96.8817 121.462L97.0338 122.6C97.1555 123.512 97.2175 124.514 96.2252 124.646C96.0296 124.672 95.8443 124.726 95.6722 124.803C96.2971 125.682 97.3756 126.195 98.5188 126.042C99.6602 125.89 100.565 125.114 100.939 124.105C100.747 124.073 100.549 124.069 100.347 124.096Z" fill="#D7AD83"/>
<path d="M100.957 124.107C100.583 125.117 99.6785 125.892 98.537 126.044C97.3939 126.197 96.3154 125.685 95.6904 124.805C94.8975 125.161 94.393 126.009 94.5135 126.911L94.6923 128.249C95.9086 129.038 97.4006 129.414 98.9502 129.207C100.5 129 101.841 128.246 102.807 127.166L102.628 125.827C102.509 124.931 101.808 124.248 100.957 124.107Z" fill="#BC0055"/>
<path d="M98.5783 124.295C98.8767 124.255 99.157 124.021 99.3855 123.678C99.1722 123.331 99.1023 122.82 99.037 122.331L98.885 121.192L96.8887 121.459L97.0407 122.598C97.0719 122.831 97.099 123.07 97.1055 123.299C97.5287 123.925 98.0974 124.359 98.5783 124.295Z" fill="#C59264"/>
<path d="M98.535 119.479C98.4243 120.058 96.5505 120.852 96.0877 120.677C95.9384 120.736 95.8481 120.972 95.8843 121.243C95.9237 121.538 96.0964 121.758 96.2718 121.74C96.6327 122.797 97.5032 123.727 98.193 123.635C98.8825 123.543 99.4783 122.417 99.5491 121.302C99.7231 121.274 99.8318 121.016 99.7924 120.721C99.7785 120.617 99.7475 120.523 99.7063 120.445C99.441 120.36 98.8345 120.027 98.535 119.479Z" fill="#D7AD83"/>
<path d="M156.911 43.0496C154.911 43.3167 153.507 45.1542 153.774 47.1539C154.041 49.1537 155.878 50.558 157.878 50.2909C159.878 50.0238 161.282 48.1865 161.015 46.1868C160.748 44.1871 158.91 42.7825 156.911 43.0496Z" fill="#BC0055"/>
<path d="M157.093 43.6097L156.867 43.6399C156.128 43.7386 155.604 44.4238 155.703 45.1625L155.804 45.9199C155.903 46.6587 156.588 47.1823 157.327 47.0837L157.553 47.0534C158.292 46.9547 158.816 46.2697 158.717 45.5308L158.616 44.7735C158.517 44.0348 157.832 43.511 157.093 43.6097Z" fill="#D0BE7C"/>
<path d="M158.691 47.3302C158.075 47.4125 157.998 46.8373 157.927 46.3087L157.839 45.6486L156.682 45.8032L156.77 46.4633C156.84 46.9919 156.876 47.5726 156.301 47.6494C156.187 47.6646 156.08 47.696 155.98 47.7406C156.343 48.2503 156.968 48.5475 157.631 48.4589C158.293 48.3705 158.817 47.9209 159.034 47.3356C158.923 47.3171 158.808 47.3146 158.691 47.3302Z" fill="#EFD6CE"/>
<path d="M159.042 47.3326C158.826 47.9182 158.301 48.3676 157.639 48.456C156.977 48.5445 156.351 48.2475 155.989 47.7377C155.529 47.9437 155.237 48.4354 155.306 48.9586L155.41 49.7346C156.115 50.1919 156.98 50.41 157.879 50.29C158.777 50.1701 159.555 49.7326 160.115 49.1062L160.012 48.3302C159.942 47.8104 159.536 47.4143 159.042 47.3326Z" fill="#FF5B97"/>
<path d="M157.661 47.4428C157.834 47.4197 157.997 47.2837 158.129 47.0853C158.005 46.8836 157.965 46.5876 157.927 46.3041L157.839 45.644L156.681 45.7986L156.77 46.4587C156.788 46.594 156.803 46.7325 156.807 46.8651C157.053 47.2281 157.382 47.48 157.661 47.4428Z" fill="#D3B6AE"/>
<path d="M157.644 44.6471C157.58 44.9827 156.494 45.4433 156.225 45.3417C156.139 45.3761 156.086 45.5129 156.107 45.67C156.13 45.841 156.23 45.9686 156.332 45.958C156.541 46.5709 157.046 47.1103 157.446 47.0569C157.846 47.0035 158.191 46.3506 158.232 45.7042C158.333 45.6878 158.396 45.5384 158.373 45.3673C158.365 45.3068 158.347 45.2523 158.323 45.2069C158.17 45.1578 157.818 44.9649 157.644 44.6471Z" fill="#EFD6CE"/>
<rect x="222.045" y="100.476" width="35.5366" height="35.5366" rx="3.55366" transform="rotate(-7.24 222.045 100.476)" fill="#F5F5F5"/>
<path opacity="0.50372" fill-rule="evenodd" clip-rule="evenodd" d="M235.792 105.803C235.692 105.01 236.395 104.344 237.19 104.48L250.796 106.807C251.315 106.895 251.714 107.309 251.78 107.827L253.413 120.687C253.514 121.48 252.811 122.145 252.015 122.009L238.41 119.683C237.891 119.594 237.492 119.18 237.426 118.663L235.792 105.803Z" fill="#C2F1F9"/>
<path opacity="0.8" fill-rule="evenodd" clip-rule="evenodd" d="M233.101 108.422C233 107.628 233.703 106.963 234.499 107.099L248.104 109.425C248.623 109.514 249.022 109.928 249.088 110.445L250.722 123.305C250.823 124.099 250.119 124.764 249.324 124.628L235.719 122.302C235.2 122.213 234.801 121.799 234.735 121.281L233.101 108.422Z" fill="#8AE3F3"/>
<path fill-rule="evenodd" clip-rule="evenodd" d="M230.409 111.04C230.308 110.246 231.011 109.581 231.806 109.717L245.412 112.043C245.931 112.132 246.33 112.546 246.396 113.064L248.029 125.924C248.13 126.717 247.427 127.382 246.632 127.246L233.026 124.92C232.507 124.831 232.108 124.417 232.042 123.9L230.409 111.04Z" fill="#36D0EB"/>
<path fill-rule="evenodd" clip-rule="evenodd" d="M236.044 121.465L239.901 122.133L239.84 121.653L236.606 121.103L238.048 119.233C238.425 118.734 238.679 118.306 238.809 117.951C238.939 117.595 238.983 117.256 238.942 116.933C238.87 116.361 238.654 115.887 238.297 115.513C237.939 115.14 237.48 114.918 236.919 114.845C236.552 114.797 236.236 114.844 235.971 114.985C235.707 115.125 235.516 115.341 235.4 115.633C235.284 115.924 235.25 116.259 235.299 116.639L235.8 116.711C235.741 116.246 235.82 115.885 236.037 115.628C236.253 115.37 236.568 115.268 236.98 115.323C237.378 115.377 237.707 115.545 237.967 115.828C238.226 116.113 238.383 116.473 238.439 116.908C238.474 117.185 238.443 117.461 238.345 117.734C238.269 117.946 238.135 118.196 237.941 118.483L237.761 118.737L235.99 121.039L236.044 121.465ZM242.692 122.616L243.199 122.704L242.299 115.618L242.215 115.607L240.241 116.215L240.309 116.751L241.886 116.273L242.692 122.616Z" fill="white"/>
<path fill-rule="evenodd" clip-rule="evenodd" d="M237.414 120.788L238.405 119.504L238.405 119.504L238.407 119.5C238.797 118.985 239.08 118.517 239.232 118.102L239.232 118.102C239.382 117.69 239.44 117.279 239.389 116.876C239.306 116.222 239.055 115.657 238.624 115.206L238.623 115.206C238.188 114.753 237.632 114.488 236.979 114.403C236.54 114.346 236.125 114.398 235.759 114.592C235.395 114.786 235.134 115.086 234.982 115.47C234.832 115.845 234.796 116.258 234.852 116.696C234.877 116.895 235.033 117.052 235.233 117.081L235.734 117.152C235.873 117.172 236.014 117.127 236.115 117.029C236.215 116.931 236.264 116.793 236.246 116.655C236.196 116.262 236.273 116.042 236.382 115.914L236.382 115.913C236.476 115.801 236.62 115.725 236.919 115.765C237.217 115.805 237.447 115.926 237.632 116.128C237.822 116.336 237.947 116.607 237.992 116.965C238.018 117.171 237.996 117.376 237.921 117.586M237.414 120.788L239.917 121.214C240.112 121.247 240.261 121.402 240.286 121.596L240.347 122.076C240.365 122.217 240.314 122.357 240.211 122.455C240.107 122.553 239.963 122.597 239.822 122.572L235.965 121.905C235.771 121.871 235.622 121.716 235.597 121.522L235.543 121.095C235.528 120.979 235.56 120.862 235.632 120.769L237.398 118.474L237.57 118.232C237.75 117.964 237.862 117.75 237.921 117.586M242.082 115.182C242.144 115.163 242.21 115.157 242.275 115.166L242.359 115.177C242.561 115.203 242.72 115.361 242.745 115.562L243.645 122.647C243.663 122.788 243.613 122.928 243.509 123.026C243.405 123.124 243.261 123.167 243.12 123.143L242.613 123.055C242.419 123.022 242.27 122.867 242.245 122.673L241.506 116.854L240.439 117.177C240.312 117.216 240.175 117.197 240.064 117.126C239.952 117.054 239.879 116.938 239.862 116.808L239.794 116.272C239.767 116.057 239.899 115.854 240.108 115.789L242.082 115.182Z" fill="white"/>
<rect x="0.829102" y="32.0674" width="35.5366" height="35.5366" rx="7.10733" transform="rotate(-7.24 0.829102 32.0674)" fill="#F5F5F5"/>
<path opacity="0.504232" fill-rule="evenodd" clip-rule="evenodd" d="M15.4635 37.2912C15.3558 36.4433 16.1461 35.7589 16.9702 35.9866L19.1268 36.5822C19.4568 36.6734 19.7321 36.9015 19.8828 37.2089L20.9993 39.4847C21.179 39.8511 21.5331 40.1006 21.9387 40.1468L30.7236 41.1477C31.2717 41.2101 31.7062 41.6389 31.7757 42.1861L33.0383 52.1247C33.1398 52.9237 32.439 53.5929 31.6454 53.4549L18.0692 51.0958C17.5514 51.0058 17.1528 50.5887 17.0866 50.0674L15.4635 37.2912Z" fill="#A2BFFF"/>
<path opacity="0.8" fill-rule="evenodd" clip-rule="evenodd" d="M12.7955 40.0432C12.6878 39.1952 13.4782 38.5109 14.3023 38.7385L16.4588 39.3342C16.7889 39.4254 17.0641 39.6535 17.2149 39.9608L18.3313 42.2366C18.5111 42.603 18.8651 42.8526 19.2707 42.8988L28.0556 43.8996C28.6037 43.9621 29.0382 44.3909 29.1077 44.938L30.3703 54.8767C30.4718 55.6756 29.7711 56.3448 28.9774 56.2069L15.4013 53.8477C14.8834 53.7577 14.4848 53.3406 14.4186 52.8193L12.7955 40.0432Z" fill="#A0BDFF"/>
<path fill-rule="evenodd" clip-rule="evenodd" d="M10.0826 42.4392C9.97493 41.5912 10.7653 40.9069 11.5894 41.1345L13.7459 41.7302C14.076 41.8214 14.3512 42.0495 14.502 42.3568L15.6184 44.6326C15.7982 44.999 16.1522 45.2486 16.5578 45.2948L25.3427 46.2956C25.8909 46.3581 26.3253 46.7869 26.3948 47.334L27.6574 57.2727C27.7589 58.0716 27.0582 58.7408 26.2645 58.6029L12.6884 56.2437C12.1705 56.1537 11.7719 55.7366 11.7057 55.2153L10.0826 42.4392Z" fill="#1A47FF"/>
<path fill-rule="evenodd" clip-rule="evenodd" d="M8.00339 48.5046C7.5686 47.6395 8.28752 46.6431 9.2458 46.7826L22.9083 48.7708C23.3208 48.8308 23.6723 49.101 23.8364 49.484L27.4271 57.8659C27.6142 58.3025 27.2423 58.7726 26.7742 58.6912L12.4111 56.1953C12.0374 56.1304 11.7167 55.8923 11.5464 55.5535L8.00339 48.5046Z" fill="#5287FF"/>
<rect x="25.7051" y="239.957" width="35.5366" height="35.5366" rx="3.55366" transform="rotate(-7.24 25.7051 239.957)" fill="#F5F5F5"/>
<path fill-rule="evenodd" clip-rule="evenodd" d="M39.5197 243.801C39.4224 243.035 40.0873 242.395 40.8414 242.528L53.7399 244.803C54.2319 244.89 54.6109 245.29 54.6744 245.79L56.6852 261.618C56.7825 262.384 56.1176 263.024 55.3635 262.891L42.465 260.616C41.973 260.529 41.594 260.129 41.5305 259.629L39.5197 243.801Z" fill="#C79BFF" fill-opacity="0.3"/>
<path opacity="0.8" fill-rule="evenodd" clip-rule="evenodd" d="M36.9884 246.436C36.8912 245.671 37.5561 245.03 38.3101 245.163L51.2086 247.439C51.7006 247.525 52.0797 247.926 52.1432 248.425L54.154 264.253C54.2512 265.019 53.5863 265.66 52.8323 265.527L39.9338 263.251C39.4418 263.164 39.0627 262.764 38.9992 262.264L36.9884 246.436Z" fill="#CCAFEF"/>
<path fill-rule="evenodd" clip-rule="evenodd" d="M34.4572 249.071C34.3599 248.305 35.0248 247.664 35.7789 247.797L48.6774 250.073C49.1694 250.16 49.5484 250.56 49.6119 251.06L51.6227 266.888C51.72 267.653 51.0551 268.294 50.301 268.161L37.4025 265.885C36.9105 265.799 36.5315 265.398 36.468 264.899L34.4572 249.071Z" fill="#9D66E1"/>
<path d="M43.0566 249.082L44.0061 256.555C44.0205 256.671 44.1025 256.766 44.2136 256.797C44.3247 256.827 44.4431 256.787 44.5134 256.696L45.4816 255.433C45.5047 255.403 45.5387 255.384 45.5761 255.379C45.6136 255.374 45.6514 255.385 45.6813 255.408L47.0255 257.106C47.1166 257.177 47.2412 257.186 47.3411 257.129C47.441 257.071 47.4965 256.959 47.4816 256.844L46.5738 249.698L43.0566 249.082Z" fill="#6129C6"/>
<path fill-rule="evenodd" clip-rule="evenodd" d="M34.4461 248.982C34.3684 248.371 34.9902 247.692 35.727 247.786L37.3294 248.07L39.6424 266.277L37.3117 265.862C36.8611 265.744 36.5253 265.349 36.4753 264.955L34.4461 248.982Z" fill="#6129C6"/>
<path d="M23.4824 68.7017L27.7805 102.516C28.2755 106.41 31.8334 109.165 35.7273 108.671L72.064 104.052" stroke="#EC5B86" stroke-width="0.888416" stroke-linecap="round" stroke-dasharray="7.11 7.11"/>
<path d="M43.7783 233.944L39.4825 200.129C38.9879 196.235 41.7435 192.677 45.6375 192.183L81.9745 187.567" stroke="#EC5B86" stroke-width="0.888416" stroke-linecap="round" stroke-dasharray="7.11 7.11"/>
<path d="M220.455 119.955L186.965 124.209" stroke="#EC5B86" stroke-width="0.888416" stroke-linecap="round" stroke-dasharray="7.11 7.11"/>
<path d="M83.6567 267.192L83.287 264.282L81.7953 264.472L82.165 267.382L79.2681 266.681L78.953 268.113L81.8406 268.74L80.4333 271.354L81.8349 272.02L83.184 269.339L85.3074 271.579L86.3235 270.581L84.3349 268.423L87.0228 267.087L86.2864 265.79L83.6567 267.192Z" fill="#EC5B86"/>
<path d="M237.807 210.561L237.437 207.651L235.946 207.84L236.315 210.75L233.419 210.05L233.103 211.481L235.991 212.108L234.584 214.722L235.985 215.389L237.334 212.708L239.458 214.948L240.474 213.949L238.485 211.792L241.173 210.456L240.437 209.158L237.807 210.561Z" fill="#EC5B86"/>
<path d="M92.5405 3.33222L92.1708 0.422227L90.6791 0.611728L91.0488 3.52172L88.1519 2.82126L87.8368 4.2528L90.7244 4.8799L89.317 7.49383L90.7187 8.16061L92.0678 5.47954L94.1911 7.71948L95.2073 6.72069L93.2186 4.56303L95.9066 3.22763L95.1702 1.92967L92.5405 3.33222Z" fill="#EC5B86"/>
<path d="M21.4672 121.492L21.0975 118.582L19.6059 118.771L19.9755 121.681L17.0787 120.981L16.7636 122.412L19.6511 123.04L18.2438 125.654L19.6455 126.32L20.9946 123.639L23.1179 125.879L24.134 124.88L22.1454 122.723L24.8333 121.387L24.0969 120.089L21.4672 121.492Z" fill="#EC5B86"/>
<path d="M206.338 243.982L205.858 240.203L203.921 240.449L204.401 244.228L200.639 243.319L200.23 245.178L203.98 245.992L202.152 249.387L203.973 250.253L205.725 246.771L208.482 249.68L209.802 248.383L207.219 245.581L210.71 243.847L209.754 242.161L206.338 243.982Z" fill="#CC3F6D"/>
<path d="M247.975 22.9374L247.344 17.9703L244.798 18.2938L245.429 23.2608L240.484 22.0652L239.946 24.5087L244.875 25.5791L242.473 30.0408L244.865 31.1789L247.168 26.6026L250.792 30.426L252.527 28.7211L249.132 25.0382L253.72 22.7588L252.463 20.5434L247.975 22.9374Z" fill="#EC5B86"/>
</svg>
