<svg width="323" height="310" viewBox="0 0 323 310" fill="none" xmlns="http://www.w3.org/2000/svg">
<path d="M202.983 81.3754H260.321C265.623 81.3754 269.961 77.0384 269.961 71.7343V69.8093C269.961 64.5078 265.623 60.1696 260.321 60.1696H217.812C212.509 60.1696 208.171 64.5078 208.171 69.8093V71.7343C208.171 77.0384 208.171 80.219 202.983 81.3754Z" fill="#CC3F6D"/>
<path d="M223.626 64.7495H221.96V66.4295H223.626V64.7495ZM223.626 67.3675H221.96V74.8995H223.626V67.3675ZM227.167 64.7495H225.501V74.8995H227.167V72.4915L227.965 71.6375L230.331 74.8995H232.277L229.071 70.4615L231.955 67.3675H229.953L227.167 70.3915V64.7495ZM233.125 74.8995H235.029V72.9955H233.125V74.8995ZM238.364 74.8995V70.8955C238.364 69.5375 238.784 68.5575 240.016 68.5575C241.248 68.5575 241.346 69.5515 241.346 70.5735V74.8995H243.012V70.8955C243.012 69.5375 243.432 68.5575 244.664 68.5575C245.896 68.5575 245.994 69.5515 245.994 70.5735V74.8995H247.66V70.1675C247.66 68.3755 246.974 67.1995 245.196 67.1995C244.272 67.1995 243.39 67.5775 242.746 68.5295C242.396 67.6895 241.71 67.1995 240.548 67.1995C239.54 67.1995 238.798 67.6335 238.364 68.4175V67.3675H236.698V74.8995H238.364ZM250.589 71.6095H256.203C256.343 69.0755 254.901 67.1995 252.591 67.1995C250.449 67.1995 248.895 68.8095 248.895 71.0775C248.895 73.2335 250.281 75.0815 252.703 75.0815C254.649 75.0815 255.769 73.8495 256.119 72.6455H254.481C254.187 73.3455 253.501 73.6955 252.633 73.6955C251.681 73.6955 250.701 73.0095 250.589 71.6095ZM250.589 70.3915C250.729 68.9635 251.807 68.5015 252.591 68.5015C253.571 68.5015 254.467 69.2155 254.509 70.3915H250.589Z" fill="white"/>
<path d="M221.023 201.118H312.723C318.024 201.118 322.362 196.781 322.362 191.477V189.552C322.362 184.251 318.024 179.912 312.723 179.912H235.852C230.549 179.912 226.211 184.251 226.211 189.552V191.477C226.211 196.781 226.211 199.962 221.023 201.118Z" fill="#EC5B86"/>
<path d="M241.666 184.492H240V186.172H241.666V184.492ZM241.666 187.11H240V194.642H241.666V187.11ZM245.207 184.492H243.541V194.642H245.207V192.234L246.005 191.38L248.371 194.642H250.317L247.111 190.204L249.995 187.11H247.993L245.207 190.134V184.492ZM252.699 194.642V190.638C252.699 189.28 253.119 188.3 254.351 188.3C255.583 188.3 255.681 189.294 255.681 190.316V194.642H257.347V190.638C257.347 189.28 257.767 188.3 258.999 188.3C260.231 188.3 260.329 189.294 260.329 190.316V194.642H261.995V189.91C261.995 188.118 261.309 186.942 259.531 186.942C258.607 186.942 257.725 187.32 257.081 188.272C256.731 187.432 256.045 186.942 254.883 186.942C253.875 186.942 253.133 187.376 252.699 188.16V187.11H251.033V194.642H252.699ZM263.287 192.57C263.287 193.942 264.435 194.824 266.073 194.824C267.179 194.824 268.075 194.432 268.551 193.62C268.579 194.138 268.635 194.32 268.691 194.642H270.217C270.077 194.012 269.993 193.018 269.993 192.066C269.993 191.38 270.021 190.498 270.021 190.12C270.063 187.712 268.649 186.886 266.843 186.886C265.023 186.886 263.749 187.936 263.637 189.476H265.275C265.317 188.566 265.947 188.118 266.787 188.118C267.613 188.118 268.355 188.51 268.355 189.798V189.938C265.597 190.218 263.287 190.694 263.287 192.57ZM268.397 191.1V191.674C268.397 192.948 267.669 193.578 266.437 193.578C265.597 193.578 265.051 193.186 265.051 192.528C265.051 191.66 266.017 191.324 268.397 191.1ZM273.371 184.492H271.705V186.172H273.371V184.492ZM273.371 187.11H271.705V194.642H273.371V187.11ZM276.912 194.642V184.492H275.246V194.642H276.912ZM278.577 194.642H280.481V192.738H278.577V194.642ZM288.457 189.686C288.177 188.006 286.721 186.942 285.083 186.942C282.843 186.942 281.387 188.65 281.387 190.89C281.387 193.13 282.829 194.824 285.013 194.824C286.623 194.824 288.177 193.83 288.513 192.066H286.889C286.679 193.074 285.853 193.438 285.041 193.438C284.061 193.438 283.109 192.668 283.109 190.876C283.109 189.098 284.047 188.328 285.083 188.328C285.993 188.328 286.693 188.888 286.833 189.686H288.457ZM296.75 190.89C296.75 188.174 294.874 186.942 293.04 186.942C291.206 186.942 289.33 188.174 289.33 190.89C289.33 193.606 291.206 194.824 293.04 194.824C294.874 194.824 296.75 193.606 296.75 190.89ZM293.04 193.466C291.99 193.466 291.052 192.626 291.052 190.89C291.052 189.154 291.99 188.3 293.04 188.3C294.09 188.3 295.028 189.154 295.028 190.89C295.028 192.626 294.09 193.466 293.04 193.466ZM299.785 194.642V190.638C299.785 189.28 300.205 188.3 301.437 188.3C302.669 188.3 302.767 189.294 302.767 190.316V194.642H304.433V190.638C304.433 189.28 304.853 188.3 306.085 188.3C307.317 188.3 307.415 189.294 307.415 190.316V194.642H309.081V189.91C309.081 188.118 308.395 186.942 306.617 186.942C305.693 186.942 304.811 187.32 304.167 188.272C303.817 187.432 303.131 186.942 301.969 186.942C300.961 186.942 300.219 187.376 299.785 188.16V187.11H298.119V194.642H299.785Z" fill="white"/>
<path d="M87.0403 174.183H12.0011C6.69962 174.183 2.36133 169.846 2.36133 164.542V162.617C2.36133 157.316 6.69962 152.977 12.0011 152.977H72.2118C77.5146 152.977 81.8529 157.316 81.8529 162.617V164.542C81.8529 169.846 81.8529 173.027 87.0403 174.183Z" fill="#BC0055"/>
<path d="M14.9019 164.28H20.5159C20.6559 161.746 19.2139 159.87 16.9039 159.87C14.7619 159.87 13.2079 161.48 13.2079 163.748C13.2079 165.904 14.5939 167.752 17.0159 167.752C18.9619 167.752 20.0819 166.52 20.4319 165.316H18.7939C18.4999 166.016 17.8139 166.366 16.9459 166.366C15.9939 166.366 15.0139 165.68 14.9019 164.28ZM14.9019 163.062C15.0419 161.634 16.1199 161.172 16.9039 161.172C17.8839 161.172 18.7799 161.886 18.8219 163.062H14.9019ZM22.1257 158.05V160.038H21.0057V161.242H22.1257V165.596C22.1257 167.136 22.4477 167.57 24.0577 167.57H25.2897V166.296H24.6877C23.9737 166.296 23.7917 166.114 23.7917 165.344V161.242H25.3037V160.038H23.7917V158.05H22.1257ZM28.3115 157.42H26.6455V159.1H28.3115V157.42ZM28.3115 160.038H26.6455V167.57H28.3115V160.038ZM31.8525 157.42H30.1865V167.57H31.8525V165.162L32.6505 164.308L35.0165 167.57H36.9625L33.7565 163.132L36.6405 160.038H34.6385L31.8525 163.062V157.42ZM37.8105 167.57H39.7145V165.666H37.8105V167.57ZM47.6897 162.614C47.4097 160.934 45.9537 159.87 44.3157 159.87C42.0757 159.87 40.6197 161.578 40.6197 163.818C40.6197 166.058 42.0617 167.752 44.2457 167.752C45.8557 167.752 47.4097 166.758 47.7457 164.994H46.1217C45.9117 166.002 45.0857 166.366 44.2737 166.366C43.2937 166.366 42.3417 165.596 42.3417 163.804C42.3417 162.026 43.2797 161.256 44.3157 161.256C45.2257 161.256 45.9257 161.816 46.0657 162.614H47.6897ZM55.9834 163.818C55.9834 161.102 54.1074 159.87 52.2734 159.87C50.4394 159.87 48.5634 161.102 48.5634 163.818C48.5634 166.534 50.4394 167.752 52.2734 167.752C54.1074 167.752 55.9834 166.534 55.9834 163.818ZM52.2734 166.394C51.2234 166.394 50.2854 165.554 50.2854 163.818C50.2854 162.082 51.2234 161.228 52.2734 161.228C53.3234 161.228 54.2614 162.082 54.2614 163.818C54.2614 165.554 53.3234 166.394 52.2734 166.394ZM59.0186 167.57V163.566C59.0186 162.208 59.4386 161.228 60.6706 161.228C61.9026 161.228 62.0006 162.222 62.0006 163.244V167.57H63.6666V163.566C63.6666 162.208 64.0866 161.228 65.3186 161.228C66.5506 161.228 66.6486 162.222 66.6486 163.244V167.57H68.3146V162.838C68.3146 161.046 67.6286 159.87 65.8506 159.87C64.9266 159.87 64.0446 160.248 63.4006 161.2C63.0506 160.36 62.3646 159.87 61.2026 159.87C60.1946 159.87 59.4526 160.304 59.0186 161.088V160.038H57.3526V167.57H59.0186Z" fill="white"/>
<path d="M175.648 23.2766L89.1086 34.0353C85.1395 34.5342 81.5302 36.5866 79.0721 39.7426C76.614 42.8985 75.5077 46.9004 75.9958 50.8707L103.101 268.899C103.6 272.868 105.653 276.477 108.809 278.935C111.965 281.393 115.967 282.499 119.937 282.011L206.472 271.253C210.441 270.754 214.05 268.702 216.508 265.546C218.966 262.39 220.073 258.388 219.585 254.418L192.479 36.3894C191.98 32.4213 189.929 28.8127 186.774 26.3548C183.619 23.8968 179.618 22.7899 175.648 23.2766Z" fill="#E0E0E0"/>
<path d="M119.448 277.738C116.61 278.09 113.748 277.304 111.489 275.55C109.231 273.796 107.76 271.217 107.399 268.381L80.2914 50.3372C79.9479 47.4986 80.7434 44.6395 82.5037 42.3862C84.2639 40.1328 86.8454 38.6688 89.6828 38.3147L101.749 36.8146L101.858 37.6916C102.14 39.9587 103.309 42.0217 105.109 43.4287C106.909 44.8356 109.193 45.4719 111.461 45.198L156.747 39.568C159.017 39.2791 161.08 38.1038 162.486 36.2989C163.891 34.494 164.526 32.206 164.25 29.9349L164.141 29.0579L176.202 27.5585C179.037 27.2115 181.894 28.0016 184.147 29.7558C186.401 31.51 187.868 34.0855 188.226 36.9186L215.334 254.962C215.68 257.797 214.888 260.653 213.133 262.906C211.377 265.158 208.801 266.624 205.968 266.981L119.448 277.738Z" fill="white"/>
<path d="M120.992 248.003C117.106 248.491 114.351 252.037 114.84 255.923C115.328 259.809 118.874 262.563 122.76 262.075C126.646 261.586 129.4 258.041 128.912 254.155C128.424 250.269 124.878 247.514 120.992 248.003Z" fill="#F5F5F5"/>
<path d="M119.257 257.074L118.63 252.081C118.449 250.645 119.476 249.323 120.912 249.142L121.352 249.087C122.788 248.907 124.11 249.934 124.29 251.369L124.918 256.363L119.257 257.074Z" fill="#340E00"/>
<path d="M125.063 256.35L119.129 257.09C118.233 257.483 117.658 258.433 117.786 259.45L117.975 260.958C119.337 261.856 121.014 262.293 122.759 262.073C124.505 261.854 126.021 261.017 127.119 259.809L126.929 258.301C126.802 257.291 126.019 256.516 125.063 256.35Z" fill="#824D65"/>
<path d="M124.38 256.337C123.182 256.487 123.042 255.369 122.913 254.342L122.751 253.059L120.502 253.342L120.663 254.625C120.792 255.652 120.854 256.78 119.735 256.92C119.515 256.948 119.306 257.007 119.112 257.092C119.808 258.087 121.017 258.674 122.305 258.512C123.591 258.35 124.616 257.485 125.045 256.352C124.83 256.315 124.607 256.308 124.38 256.337Z" fill="#EFD6CE"/>
<path d="M122.381 256.544C122.716 256.502 123.034 256.24 123.295 255.857C123.058 255.464 122.983 254.889 122.914 254.338L122.753 253.055L120.504 253.338L120.665 254.62C120.698 254.883 120.726 255.152 120.732 255.41C121.202 256.118 121.839 256.612 122.381 256.544Z" fill="#D3B6AE"/>
<path d="M123.018 251.377C122.699 251.691 122.236 251.952 121.691 252.094C120.983 252.277 120.3 252.217 119.827 251.976C119.817 252.205 119.504 252.699 119.416 252.748C119.391 252.848 119.383 252.965 119.398 253.088C119.44 253.42 119.633 253.67 119.83 253.65C120.227 254.843 121.199 255.898 121.976 255.8C122.753 255.703 123.433 254.441 123.523 253.186C123.719 253.156 123.843 252.867 123.802 252.535C123.787 252.415 123.752 252.307 123.705 252.218C123.446 252.111 123.124 251.712 123.018 251.377Z" fill="#EFD6CE"/>
<path d="M118.049 217.171C114.166 217.683 111.433 221.246 111.946 225.129C112.458 229.012 116.021 231.744 119.904 231.232C123.786 230.719 126.519 227.157 126.007 223.274C125.494 219.391 121.932 216.658 118.049 217.171Z" fill="#F5F5F5"/>
<path d="M122.127 225.095L122.119 225.102C122.118 225.1 122.118 225.098 122.118 225.096C121.903 225.06 121.01 224.79 120.777 224.671L117.354 225.073C117.165 225.295 116.383 225.786 116.189 225.873C116.19 225.874 116.19 225.874 116.191 225.875C115.302 226.275 114.519 227.416 114.653 228.43L114.987 230.062C116.377 231.009 118.106 231.469 119.905 231.232C121.711 230.994 123.266 230.095 124.364 228.812L124.265 227.162C124.131 226.152 123.085 225.255 122.127 225.095Z" fill="#BC0055"/>
<path d="M117.345 225.076C117.629 224.694 117.769 224.635 117.626 223.551C117.483 222.468 120.071 222.112 120.216 223.209C120.361 224.306 120.449 224.515 120.768 224.674C120.768 224.674 121.002 225.932 119.235 226.165C117.469 226.398 117.345 225.076 117.345 225.076Z" fill="#EFD6CE"/>
<path d="M118.76 225.287C118.964 225.386 119.237 225.345 119.428 225.32C119.622 225.294 119.898 225.261 120.071 225.108C120.202 224.993 120.357 224.748 120.502 224.433C120.383 224.238 120.313 223.9 120.222 223.205C120.077 222.108 117.489 222.463 117.631 223.546C117.659 223.755 117.676 223.925 117.684 224.067C118.042 224.667 118.483 225.151 118.76 225.287Z" fill="#D3B6AE"/>
<path d="M120.567 221.273C120.017 219.076 119.441 219.045 118.371 219.186C117.302 219.327 116.754 219.507 116.792 221.771C116.621 221.834 116.518 222.104 116.559 222.412C116.603 222.748 116.801 222.998 117 222.972C117.022 222.969 117.043 222.962 117.063 222.953C117.434 223.807 118.079 224.585 118.444 224.763C118.647 224.862 118.92 224.821 119.111 224.796C119.305 224.77 119.582 224.737 119.755 224.584C120.051 224.323 120.473 223.405 120.611 222.485C120.633 222.488 120.655 222.49 120.678 222.487C120.877 222.461 121.003 222.167 120.959 221.832C120.918 221.524 120.748 221.29 120.567 221.273Z" fill="#EFD6CE"/>
<path d="M117.206 222.574C117.129 221.992 117.134 221.972 117.181 221.662C118.902 221.153 119.354 220.497 119.813 220.208C120.251 220.572 120.299 221.359 120.404 222.152C120.699 222.11 120.378 221.341 120.682 221.301C120.46 219.887 120.54 219.404 119.687 218.876C118.84 218.351 117.79 218.78 117.056 219.362C116.351 219.922 116.547 220.26 116.751 221.8C117.079 221.839 116.915 222.612 117.206 222.574Z" fill="#838383"/>
<path d="M115.076 188.491C111.197 189.032 108.49 192.614 109.031 196.494C109.571 200.373 113.154 203.079 117.033 202.538C120.912 201.998 123.619 198.415 123.078 194.536C122.538 190.657 118.955 187.951 115.076 188.491Z" fill="#F5F5F5"/>
<path d="M119.205 196.385L119.197 196.392C119.196 196.39 119.196 196.388 119.196 196.386C118.981 196.352 118.086 196.088 117.852 195.971L116.441 198.265L114.432 196.397C114.244 196.621 113.466 197.118 113.273 197.206C113.274 197.207 113.274 197.207 113.275 197.208C112.389 197.615 111.614 198.762 111.755 199.774L112.102 201.404C113.498 202.341 115.231 202.788 117.027 202.538C118.831 202.286 120.381 201.377 121.469 200.086L121.358 198.436C121.217 197.428 120.164 196.538 119.205 196.385Z" fill="#DFBDCC"/>
<path d="M114.446 196.396C114.727 196.012 114.867 195.952 114.716 194.87C114.565 193.787 117.151 193.413 117.304 194.509C117.457 195.605 117.546 195.813 117.866 195.97L116.455 198.264L114.446 196.396Z" fill="#875744"/>
<path opacity="0.256859" d="M115.84 196.603C116.044 196.701 116.317 196.658 116.508 196.631C116.701 196.604 116.978 196.569 117.15 196.415C117.28 196.299 117.433 196.053 117.575 195.737C117.454 195.543 117.383 195.205 117.286 194.511C117.133 193.415 114.548 193.789 114.698 194.871C114.727 195.079 114.746 195.249 114.754 195.392C115.117 195.989 115.561 196.47 115.84 196.603Z" fill="black"/>
<path d="M117.629 192.577C117.063 190.385 116.487 190.357 115.419 190.506C114.35 190.655 113.727 190.884 113.782 193.148C113.611 193.212 113.561 193.445 113.629 193.745C113.705 194.075 113.876 194.33 114.075 194.302C114.097 194.299 114.118 194.292 114.137 194.282C114.515 195.134 115.166 195.907 115.531 196.083C115.736 196.18 116.009 196.137 116.199 196.111C116.393 196.084 116.67 196.049 116.841 195.894C117.136 195.631 117.55 194.71 117.682 193.789C117.704 193.792 117.726 193.793 117.749 193.79C117.948 193.763 118.072 193.468 118.025 193.133C117.982 192.826 117.811 192.593 117.629 192.577Z" fill="#875744"/>
<path d="M114.269 193.9C114.188 193.319 114.073 192.591 114.178 192.28C114.282 191.969 116.105 190.948 117.162 191.864C117.335 192.338 117.353 192.663 117.464 193.455C117.755 193.414 117.419 192.651 117.723 192.609C117.759 191.902 117.881 189.725 115.122 190.04C114.429 190.119 113.75 190.127 113.75 190.127C113.75 190.127 113.481 190.624 113.495 191.366C113.51 192.107 113.777 193.148 113.777 193.148C114.105 193.185 113.978 193.94 114.269 193.9Z" fill="#241E20"/>
<path d="M112.103 160C108.221 160.519 105.495 164.086 106.013 167.968C106.532 171.85 110.099 174.577 113.981 174.058C117.863 173.539 120.59 169.973 120.071 166.09C119.553 162.208 115.985 159.482 112.103 160Z" fill="#F5F5F5"/>
<path d="M110.443 169.083L109.776 164.095C109.585 162.661 110.601 161.33 112.036 161.139L112.475 161.08C113.91 160.889 115.24 161.905 115.431 163.339L116.098 168.328L110.443 169.083Z" fill="#C6AC9F"/>
<path d="M116.249 168.32L110.321 169.107C109.429 169.507 108.861 170.461 108.996 171.477L109.198 172.983C110.567 173.871 112.246 174.295 113.99 174.062C115.734 173.829 117.244 172.979 118.332 171.763L118.13 170.257C117.996 169.248 117.207 168.479 116.249 168.32Z" fill="#BF4C80"/>
<path d="M115.563 168.308C114.366 168.468 114.217 167.351 114.08 166.325L113.909 165.043L111.662 165.344L111.833 166.625C111.97 167.651 112.04 168.778 110.923 168.928C110.703 168.957 110.494 169.018 110.301 169.105C111.004 170.094 112.218 170.671 113.505 170.499C114.789 170.328 115.808 169.455 116.228 168.318C116.013 168.283 115.789 168.278 115.563 168.308Z" fill="#EFD6CE"/>
<path d="M113.573 168.532C113.908 168.487 114.224 168.223 114.482 167.838C114.241 167.446 114.163 166.872 114.089 166.321L113.918 165.04L111.671 165.34L111.842 166.621C111.877 166.884 111.908 167.153 111.915 167.41C112.392 168.115 113.032 168.604 113.573 168.532Z" fill="#D3B6AE"/>
<path d="M114.139 163.352C113.823 163.668 113.362 163.933 112.818 164.079C112.112 164.267 111.428 164.213 110.953 163.975C110.944 164.204 110.636 164.7 110.548 164.751C110.523 164.851 110.517 164.967 110.533 165.09C110.577 165.422 110.772 165.67 110.969 165.65C111.375 166.839 112.355 167.886 113.131 167.783C113.908 167.679 114.578 166.412 114.658 165.157C114.854 165.125 114.976 164.835 114.932 164.503C114.916 164.383 114.88 164.276 114.833 164.187C114.573 164.082 114.248 163.685 114.139 163.352Z" fill="#EFD6CE"/>
<path d="M105.411 105.72C101.529 106.238 98.8022 109.806 99.3207 113.688C99.8392 117.57 103.406 120.296 107.289 119.778C111.171 119.259 113.897 115.692 113.379 111.81C112.86 107.928 109.293 105.201 105.411 105.72Z" fill="#F5F5F5"/>
<path d="M109.49 113.642L109.482 113.649C109.481 113.647 109.482 113.645 109.481 113.643C109.266 113.607 108.373 113.339 108.14 113.22L104.717 113.627C104.528 113.85 103.747 114.342 103.554 114.429C103.554 114.43 103.555 114.43 103.555 114.431C102.667 114.833 101.886 115.976 102.021 116.988L102.359 118.621C103.75 119.565 105.48 120.022 107.278 119.782C109.083 119.541 110.638 118.64 111.733 117.355L111.631 115.705C111.496 114.696 110.448 113.8 109.49 113.642Z" fill="#BD95A7"/>
<path d="M104.718 113.624C105.002 113.241 105.142 113.182 104.997 112.098C104.852 111.015 107.44 110.656 107.586 111.752C107.733 112.849 107.821 113.058 108.141 113.216C108.141 113.216 108.376 114.474 106.611 114.709C104.845 114.945 104.718 113.624 104.718 113.624Z" fill="#EFD6CE"/>
<path d="M106.143 113.837C106.347 113.936 106.62 113.894 106.81 113.869C107.004 113.843 107.281 113.809 107.454 113.657C107.584 113.541 107.739 113.296 107.883 112.98C107.763 112.786 107.694 112.448 107.601 111.753C107.454 110.656 104.867 111.015 105.011 112.099C105.039 112.307 105.056 112.477 105.064 112.619C105.423 113.219 105.865 113.702 106.143 113.837Z" fill="#D3B6AE"/>
<path d="M107.937 109.822C107.384 107.627 106.808 107.596 105.739 107.739C104.669 107.881 104.121 108.062 104.164 110.326C103.993 110.39 103.89 110.66 103.931 110.968C103.976 111.303 104.174 111.554 104.373 111.527C104.396 111.524 104.416 111.517 104.436 111.508C104.809 112.361 105.455 113.138 105.82 113.316C106.024 113.415 106.297 113.373 106.488 113.348C106.681 113.322 106.958 113.288 107.131 113.135C107.427 112.874 107.847 111.954 107.983 111.034C108.005 111.038 108.028 111.039 108.05 111.036C108.25 111.009 108.375 110.716 108.33 110.38C108.289 110.073 108.119 109.839 107.937 109.822Z" fill="#EFD6CE"/>
<path d="M104.576 111.125C104.498 110.544 104.502 110.523 104.549 110.213C106.27 109.701 106.72 109.045 107.179 108.755C107.617 109.118 107.667 109.905 107.773 110.698C108.068 110.655 107.746 109.887 108.05 109.847C107.825 108.433 107.905 107.95 107.05 107.423C106.202 106.899 105.153 107.33 104.421 107.913C103.717 108.474 103.913 108.812 104.12 110.351C104.448 110.391 104.285 111.163 104.576 111.125Z" fill="#C6AC9F"/>
<path d="M170.519 99.9164L120.517 106.102L120.952 109.623L170.955 103.438L170.519 99.9164Z" fill="#E0E0E0"/>
<path d="M147.624 111.334L121.566 114.558L122.002 118.079L148.059 114.856L147.624 111.334Z" fill="#E0E0E0"/>
<path d="M184.661 124.471L123.391 132.05L123.826 135.571L185.097 127.992L184.661 124.471Z" fill="#E0E0E0"/>
<path d="M156.37 136.556L124.44 140.506L124.876 144.027L156.805 140.077L156.37 136.556Z" fill="#E0E0E0"/>
<path d="M176.356 153.409L126.354 159.594L126.79 163.116L176.792 156.93L176.356 153.409Z" fill="#E0E0E0"/>
<path d="M153.461 164.827L127.403 168.05L127.839 171.572L153.897 168.348L153.461 164.827Z" fill="#E0E0E0"/>
<path d="M179.402 182.566L129.4 188.752L129.835 192.273L179.838 186.088L179.402 182.566Z" fill="#E0E0E0"/>
<path d="M156.507 193.984L130.449 197.208L130.885 200.729L156.942 197.506L156.507 193.984Z" fill="#E0E0E0"/>
<path d="M194.343 210.44L132.368 218.107L132.803 221.628L194.778 213.962L194.343 210.44Z" fill="#E0E0E0"/>
<path d="M165.712 222.568L133.415 226.563L133.851 230.084L166.147 226.089L165.712 222.568Z" fill="#E0E0E0"/>
<path d="M185.335 242.17L135.333 248.355L135.769 251.877L185.771 245.691L185.335 242.17Z" fill="#E0E0E0"/>
<path d="M162.44 253.587L136.382 256.811L136.818 260.332L162.876 257.108L162.44 253.587Z" fill="#E0E0E0"/>
<rect x="85.1201" y="90.0743" width="108.633" height="10.6444" transform="rotate(-7.12135 85.1201 90.0743)" fill="#FAFAFA"/>
<path d="M91.836 77.8984C91.6391 76.3211 93.0483 74.8465 94.9835 74.6049L137.966 69.2389C139.901 68.9974 141.63 70.0802 141.827 71.6576C142.023 73.235 140.614 74.7095 138.679 74.9511L95.6966 80.3171C93.7614 80.5587 92.033 79.4758 91.836 77.8984Z" fill="#E0E0E0"/>
<path d="M176.095 249.729C176.497 252.947 179.431 255.23 182.649 254.828L198.282 252.877C201.5 252.475 203.783 249.541 203.381 246.323C202.98 243.105 200.045 240.822 196.827 241.223L181.195 243.175C177.977 243.577 175.694 246.511 176.095 249.729Z" fill="#BC0055"/>
<path d="M174.883 66.6969C175.146 68.8013 177.136 70.2855 179.328 70.0118C181.52 69.7381 183.084 67.8103 182.821 65.7059L182.782 65.3883C182.519 63.2839 180.529 61.7998 178.337 62.0734C176.145 62.3471 174.581 64.2749 174.843 66.3794L174.883 66.6969Z" fill="#BC0055"/>
<path d="M109.625 60.8578C109.87 62.82 111.659 64.2121 113.621 63.9671L147.16 59.7801C149.122 59.5351 150.515 57.7458 150.27 55.7837C150.025 53.8215 148.235 52.4294 146.273 52.6743L112.734 56.8614C110.772 57.1063 109.38 58.8956 109.625 60.8578Z" fill="#E0E0E0"/>
<path d="M172.162 53.1712C172.397 55.0549 174.115 56.3913 175.999 56.1561C177.882 55.9209 179.219 54.2033 178.984 52.3196L178.948 52.0353C178.713 50.1516 176.995 48.8152 175.112 49.0504C173.228 49.2855 171.891 51.0032 172.127 52.8869L172.162 53.1712Z" fill="#666666"/>
<path d="M161.378 54.2124C161.641 56.3168 163.631 57.801 165.823 57.5273C168.015 57.2536 169.579 55.3258 169.317 53.2214L169.277 52.9038C169.014 50.7994 167.024 49.3153 164.832 49.5889C162.64 49.8626 161.076 51.7904 161.339 53.8949L161.378 54.2124Z" fill="#BC0055"/>
<path d="M89.7299 63.0579C89.9926 65.1623 91.9826 66.6464 94.1748 66.3728C96.3669 66.0991 97.931 64.1713 97.6682 62.0668L97.6286 61.7493C97.3659 59.6449 95.3758 58.1607 93.1837 58.4344C90.9916 58.7081 89.4275 60.6359 89.6902 62.7403L89.7299 63.0579Z" fill="#BC0055"/>
<path d="M108.557 131.374C104.675 131.893 101.949 135.46 102.467 139.342C102.986 143.224 106.553 145.95 110.435 145.432C114.317 144.913 117.044 141.346 116.525 137.464C116.006 133.582 112.44 130.856 108.557 131.374Z" fill="#F5F5F5"/>
<path d="M108.93 132.454L108.49 132.513C107.056 132.704 106.04 134.035 106.231 135.469L106.427 136.939C106.619 138.373 107.949 139.39 109.383 139.198L109.823 139.139C111.257 138.948 112.274 137.618 112.082 136.184L111.886 134.713C111.694 133.279 110.364 132.263 108.93 132.454Z" fill="#241E20"/>
<path d="M112.017 139.682C110.821 139.842 110.672 138.725 110.534 137.699L110.363 136.417L108.116 136.717L108.287 137.999C108.425 139.025 108.494 140.152 107.377 140.301C107.157 140.331 106.949 140.392 106.755 140.478C107.458 141.468 108.672 142.045 109.959 141.873C111.244 141.701 112.262 140.829 112.683 139.692C112.468 139.656 112.244 139.651 112.017 139.682Z" fill="#D7AD83"/>
<path d="M112.703 139.694C112.283 140.831 111.264 141.703 109.979 141.875C108.693 142.047 107.479 141.47 106.775 140.48C105.883 140.88 105.315 141.835 105.45 142.851L105.652 144.357C107.021 145.245 108.7 145.668 110.444 145.435C112.188 145.202 113.698 144.353 114.786 143.137L114.585 141.631C114.45 140.622 113.661 139.853 112.703 139.694Z" fill="#BC0055"/>
<path d="M110.027 139.906C110.363 139.861 110.678 139.597 110.936 139.212C110.696 138.82 110.617 138.245 110.543 137.695L110.372 136.414L108.125 136.714L108.296 137.995C108.331 138.258 108.362 138.527 108.369 138.784C108.846 139.489 109.486 139.978 110.027 139.906Z" fill="#C59264"/>
<path d="M109.978 134.486C109.853 135.137 107.744 136.031 107.223 135.834C107.055 135.901 106.953 136.167 106.994 136.471C107.038 136.803 107.233 137.051 107.43 137.031C107.836 138.22 108.816 139.268 109.593 139.164C110.369 139.06 111.039 137.793 111.119 136.538C111.315 136.506 111.437 136.216 111.393 135.884C111.377 135.766 111.342 135.66 111.296 135.572C110.997 135.477 110.315 135.103 109.978 134.486Z" fill="#D7AD83"/>
<path d="M175.685 48.4562C173.434 48.7568 171.853 50.8251 172.154 53.076C172.454 55.3269 174.523 56.9076 176.774 56.607C179.024 56.3063 180.605 54.2382 180.305 51.9873C180.004 49.7365 177.936 48.1555 175.685 48.4562Z" fill="#BC0055"/>
<path d="M175.89 49.0869L175.635 49.1209C174.803 49.232 174.214 50.0033 174.325 50.8348L174.439 51.6872C174.55 52.5189 175.321 53.1082 176.153 52.9972L176.408 52.9631C177.239 52.8521 177.829 52.081 177.718 51.2493L177.604 50.3968C177.493 49.5654 176.721 48.9758 175.89 49.0869Z" fill="#D0BE7C"/>
<path d="M177.688 53.2741C176.995 53.3668 176.908 52.7193 176.829 52.1243L176.73 51.3813L175.427 51.5553L175.526 52.2983C175.605 52.8934 175.646 53.5469 174.998 53.6334C174.871 53.6505 174.75 53.6858 174.637 53.7361C175.045 54.3098 175.749 54.6442 176.495 54.5446C177.24 54.4451 177.831 53.939 178.074 53.2802C177.95 53.2594 177.82 53.2566 177.688 53.2741Z" fill="#EFD6CE"/>
<path d="M178.084 53.2771C177.84 53.9362 177.25 54.4421 176.505 54.5416C175.759 54.6412 175.055 54.3069 174.647 53.733C174.13 53.9649 173.8 54.5184 173.879 55.1073L173.996 55.9808C174.789 56.4955 175.763 56.741 176.775 56.6059C177.786 56.4709 178.661 55.9785 179.292 55.2734L179.175 54.3999C179.097 53.8148 178.639 53.369 178.084 53.2771Z" fill="#FF5B97"/>
<path d="M176.529 53.401C176.724 53.375 176.907 53.2219 177.056 52.9986C176.917 52.7716 176.871 52.4383 176.829 52.1192L176.73 51.3763L175.427 51.5503L175.526 52.2932C175.546 52.4455 175.564 52.6015 175.568 52.7508C175.844 53.1594 176.216 53.4429 176.529 53.401Z" fill="#D3B6AE"/>
<path d="M176.511 50.2542C176.438 50.632 175.216 51.1503 174.913 51.036C174.816 51.0747 174.757 51.2287 174.781 51.4055C174.806 51.598 174.919 51.7417 175.034 51.7297C175.269 52.4196 175.837 53.0267 176.287 52.9666C176.737 52.9065 177.126 52.1716 177.172 51.444C177.286 51.4256 177.357 51.2574 177.331 51.0648C177.322 50.9967 177.302 50.9353 177.275 50.8843C177.102 50.829 176.706 50.6119 176.511 50.2542Z" fill="#EFD6CE"/>
<rect x="249" y="113.095" width="40" height="40" rx="4" transform="rotate(-7.24 249 113.095)" fill="#F5F5F5"/>
<path opacity="0.50372" fill-rule="evenodd" clip-rule="evenodd" d="M264.475 119.092C264.361 118.199 265.153 117.45 266.048 117.603L281.362 120.222C281.946 120.321 282.396 120.787 282.47 121.37L284.309 135.845C284.422 136.738 283.63 137.487 282.735 137.334L267.421 134.715C266.837 134.615 266.388 134.149 266.314 133.567L264.475 119.092Z" fill="#C2F1F9"/>
<path opacity="0.8" fill-rule="evenodd" clip-rule="evenodd" d="M261.444 122.039C261.331 121.146 262.122 120.397 263.017 120.55L278.332 123.169C278.916 123.269 279.365 123.734 279.439 124.317L281.278 138.792C281.391 139.685 280.6 140.434 279.705 140.281L264.39 137.662C263.806 137.562 263.357 137.097 263.283 136.514L261.444 122.039Z" fill="#8AE3F3"/>
<path fill-rule="evenodd" clip-rule="evenodd" d="M258.414 124.986C258.3 124.093 259.092 123.344 259.987 123.497L275.301 126.116C275.885 126.216 276.335 126.681 276.409 127.264L278.247 141.739C278.361 142.632 277.569 143.381 276.674 143.228L261.36 140.609C260.776 140.509 260.326 140.044 260.252 139.461L258.414 124.986Z" fill="#36D0EB"/>
<path fill-rule="evenodd" clip-rule="evenodd" d="M264.757 136.722L269.098 137.473L269.029 136.932L265.389 136.313L267.012 134.209C267.437 133.647 267.723 133.166 267.869 132.766C268.015 132.365 268.065 131.983 268.019 131.62C267.937 130.975 267.695 130.442 267.292 130.021C266.89 129.602 266.373 129.352 265.742 129.269C265.329 129.215 264.973 129.268 264.675 129.427C264.377 129.585 264.163 129.828 264.032 130.156C263.902 130.484 263.864 130.861 263.918 131.289L264.482 131.37C264.416 130.847 264.505 130.441 264.749 130.151C264.993 129.861 265.347 129.746 265.811 129.808C266.259 129.868 266.629 130.057 266.921 130.376C267.213 130.697 267.39 131.102 267.452 131.592C267.492 131.904 267.457 132.214 267.347 132.522C267.262 132.76 267.11 133.041 266.893 133.364L266.69 133.65L264.696 136.241L264.757 136.722ZM272.239 138.016L272.811 138.115L271.797 130.14L271.703 130.128L269.481 130.811L269.557 131.415L271.332 130.877L272.239 138.016Z" fill="white"/>
<path fill-rule="evenodd" clip-rule="evenodd" d="M266.3 135.959L267.415 134.513L267.415 134.513L267.417 134.509C267.856 133.93 268.175 133.402 268.346 132.936L268.346 132.935C268.515 132.472 268.58 132.009 268.522 131.556C268.428 130.819 268.146 130.183 267.661 129.676L267.66 129.675C267.171 129.165 266.544 128.868 265.81 128.772C265.316 128.707 264.848 128.766 264.437 128.985C264.027 129.202 263.733 129.541 263.561 129.973C263.393 130.395 263.353 130.86 263.415 131.353C263.444 131.577 263.619 131.753 263.844 131.786L264.409 131.867C264.565 131.889 264.724 131.838 264.837 131.728C264.95 131.618 265.005 131.462 264.985 131.306C264.929 130.864 265.015 130.617 265.137 130.472L265.138 130.471C265.244 130.346 265.406 130.26 265.742 130.305C266.077 130.35 266.337 130.486 266.545 130.714C266.758 130.947 266.899 131.253 266.95 131.655C266.979 131.887 266.954 132.119 266.87 132.355M266.3 135.959L269.116 136.438C269.336 136.475 269.504 136.65 269.532 136.869L269.601 137.409C269.621 137.567 269.564 137.725 269.447 137.835C269.331 137.946 269.168 137.994 269.01 137.967L264.669 137.216C264.45 137.178 264.282 137.003 264.255 136.785L264.194 136.305C264.177 136.174 264.213 136.042 264.294 135.937L266.281 133.355L266.475 133.081C266.678 132.78 266.804 132.539 266.87 132.355M271.554 129.648C271.624 129.627 271.698 129.621 271.771 129.63L271.865 129.643C272.093 129.672 272.272 129.85 272.3 130.076L273.313 138.051C273.334 138.21 273.277 138.368 273.16 138.478C273.043 138.588 272.881 138.637 272.722 138.61L272.151 138.511C271.933 138.473 271.765 138.298 271.737 138.08L270.905 131.531L269.705 131.894C269.562 131.938 269.407 131.916 269.282 131.836C269.157 131.756 269.074 131.625 269.055 131.479L268.978 130.875C268.948 130.634 269.097 130.405 269.332 130.332L271.554 129.648Z" fill="white"/>
<rect y="36.0953" width="40" height="40" rx="8" transform="rotate(-7.24 0 36.0953)" fill="#F5F5F5"/>
<path opacity="0.504232" fill-rule="evenodd" clip-rule="evenodd" d="M16.4717 41.9749C16.3505 41.0205 17.2401 40.2502 18.1677 40.5064L20.5951 41.1769C20.9666 41.2795 21.2764 41.5363 21.4461 41.8822L22.7028 44.4439C22.9051 44.8563 23.3036 45.1372 23.7601 45.1892L33.6484 46.3158C34.2654 46.3861 34.7545 46.8687 34.8327 47.4846L36.2539 58.6715C36.3681 59.5708 35.5794 60.324 34.686 60.1688L19.4047 57.5133C18.8218 57.412 18.3732 56.9425 18.2987 56.3558L16.4717 41.9749Z" fill="#A2BFFF"/>
<path opacity="0.8" fill-rule="evenodd" clip-rule="evenodd" d="M13.4688 45.0727C13.3476 44.1183 14.2372 43.348 15.1648 43.6042L17.5922 44.2747C17.9637 44.3773 18.2735 44.6341 18.4432 44.98L19.6999 47.5417C19.9022 47.9541 20.3007 48.235 20.7572 48.287L30.6455 49.4136C31.2625 49.4839 31.7515 49.9665 31.8298 50.5824L33.251 61.7693C33.3652 62.6686 32.5764 63.4218 31.6831 63.2666L16.4018 60.6111C15.8189 60.5098 15.3703 60.0403 15.2957 59.4535L13.4688 45.0727Z" fill="#A0BDFF"/>
<path fill-rule="evenodd" clip-rule="evenodd" d="M10.4156 47.7695C10.2943 46.8151 11.184 46.0448 12.1116 46.301L14.539 46.9715C14.9105 47.0741 15.2203 47.3308 15.39 47.6768L16.6467 50.2385C16.849 50.6508 17.2475 50.9318 17.704 50.9838L27.5923 52.1103C28.2093 52.1806 28.6983 52.6633 28.7766 53.2791L30.1977 64.4661C30.312 65.3653 29.5232 66.1186 28.6299 65.9634L13.3486 63.3079C12.7657 63.2066 12.317 62.7371 12.2425 62.1503L10.4156 47.7695Z" fill="#1A47FF"/>
<path fill-rule="evenodd" clip-rule="evenodd" d="M8.07502 54.597C7.58562 53.6233 8.39483 52.5017 9.47348 52.6587L24.852 54.8966C25.3162 54.9642 25.7119 55.2683 25.8966 55.6994L29.9384 65.1341C30.1489 65.6255 29.7303 66.1546 29.2035 66.0631L13.0363 63.2537C12.6157 63.1806 12.2547 62.9126 12.063 62.5312L8.07502 54.597Z" fill="#5287FF"/>
<rect x="28" y="270.095" width="40" height="40" rx="4" transform="rotate(-7.24 28 270.095)" fill="#F5F5F5"/>
<path fill-rule="evenodd" clip-rule="evenodd" d="M43.5496 274.422C43.4401 273.56 44.1885 272.839 45.0372 272.989L59.5558 275.551C60.1096 275.648 60.5363 276.099 60.6077 276.661L62.8711 294.477C62.9806 295.339 62.2321 296.06 61.3834 295.91L46.8648 293.349C46.311 293.251 45.8844 292.801 45.8129 292.239L43.5496 274.422Z" fill="#C79BFF" fill-opacity="0.3"/>
<path opacity="0.8" fill-rule="evenodd" clip-rule="evenodd" d="M40.7005 277.388C40.591 276.526 41.3394 275.805 42.1881 275.955L56.7067 278.516C57.2605 278.614 57.6872 279.064 57.7586 279.627L60.022 297.443C60.1314 298.305 59.383 299.026 58.5343 298.876L44.0157 296.315C43.4619 296.217 43.0352 295.766 42.9638 295.204L40.7005 277.388Z" fill="#CCAFEF"/>
<path fill-rule="evenodd" clip-rule="evenodd" d="M37.8513 280.353C37.7418 279.491 38.4903 278.77 39.339 278.92L53.8576 281.481C54.4114 281.579 54.838 282.03 54.9095 282.592L57.1728 300.408C57.2823 301.27 56.5339 301.991 55.6852 301.841L41.1666 299.28C40.6128 299.182 40.1861 298.732 40.1147 298.169L37.8513 280.353Z" fill="#9D66E1"/>
<path d="M47.5303 280.366L48.599 288.778C48.6152 288.908 48.7075 289.015 48.8325 289.05C48.9576 289.084 49.0909 289.039 49.17 288.936L50.2598 287.515C50.2858 287.482 50.324 287.46 50.3662 287.454C50.4084 287.449 50.451 287.461 50.4846 287.487L51.9977 289.398C52.1001 289.479 52.2404 289.489 52.3528 289.424C52.4653 289.359 52.5278 289.232 52.5111 289.103L51.4892 281.059L47.5303 280.366Z" fill="#6129C6"/>
<path fill-rule="evenodd" clip-rule="evenodd" d="M37.8388 280.254C37.7514 279.566 38.4512 278.802 39.2806 278.907L41.0843 279.227L43.6878 299.721L41.0643 299.254C40.5572 299.121 40.1792 298.676 40.1229 298.233L37.8388 280.254Z" fill="#6129C6"/>
<path d="M25.498 77.3307L30.336 115.392C30.8931 119.775 34.8979 122.877 39.2809 122.32L80.1814 117.121" stroke="#EC5B86" stroke-linecap="round" stroke-dasharray="8 8"/>
<path d="M48.3438 263.327L43.5084 225.265C42.9516 220.882 46.0534 216.877 50.4364 216.32L91.3373 211.124" stroke="#EC5B86" stroke-linecap="round" stroke-dasharray="8 8"/>
<path d="M247.211 135.021L209.514 139.81" stroke="#EC5B86" stroke-linecap="round" stroke-dasharray="8 8"/>
<path d="M93.2306 300.751L92.8145 297.475L91.1354 297.689L91.5516 300.964L88.2909 300.176L87.9362 301.787L91.1864 302.493L89.6023 305.435L91.18 306.186L92.6986 303.168L95.0886 305.689L96.2324 304.565L93.9939 302.136L97.0195 300.633L96.1906 299.172L93.2306 300.751Z" fill="#EC5B86"/>
<path d="M244.231 225.751L243.814 222.475L242.135 222.689L242.552 225.964L239.291 225.176L238.936 226.787L242.186 227.493L240.602 230.435L242.18 231.186L243.699 228.168L246.089 230.689L247.232 229.565L244.994 227.136L248.019 225.633L247.191 224.172L244.231 225.751Z" fill="#EC5B86"/>
<path d="M233.231 42.751L232.814 39.4756L231.135 39.6889L231.552 42.9644L228.291 42.1759L227.936 43.7872L231.186 44.4931L229.602 47.4353L231.18 48.1859L232.699 45.1681L235.089 47.6893L236.232 46.5651L233.994 44.1364L237.019 42.6333L236.191 41.1723L233.231 42.751Z" fill="#EC5B86"/>
<path d="M103.231 3.75105L102.814 0.47556L101.135 0.688862L101.552 3.96435L98.2909 3.1759L97.9362 4.78724L101.186 5.49312L99.6023 8.43535L101.18 9.18587L102.699 6.16806L105.089 8.68934L106.232 7.56511L103.994 5.13645L107.019 3.63332L106.191 2.17233L103.231 3.75105Z" fill="#EC5B86"/>
<path d="M23.2306 136.751L22.8145 133.476L21.1354 133.689L21.5516 136.964L18.2909 136.176L17.9362 137.787L21.1864 138.493L19.6023 141.435L21.18 142.186L22.6986 139.168L25.0886 141.689L26.2324 140.565L23.9939 138.136L27.0195 136.633L26.1906 135.172L23.2306 136.751Z" fill="#EC5B86"/>
<path d="M231.321 274.626L230.781 270.372L228.6 270.649L229.14 274.903L224.906 273.879L224.445 275.972L228.666 276.889L226.609 280.71L228.658 281.684L230.63 277.765L233.734 281.04L235.219 279.58L232.312 276.425L236.242 274.473L235.165 272.576L231.321 274.626Z" fill="#CC3F6D"/>
<path d="M219.321 99.6264L218.781 95.3725L216.6 95.6496L217.14 99.9034L212.906 98.8795L212.445 100.972L216.666 101.889L214.609 105.71L216.658 106.685L218.63 102.765L221.734 106.04L223.219 104.58L220.312 101.426L224.242 99.4735L223.165 97.5761L219.321 99.6264Z" fill="#CC3F6D"/>
<path d="M50.321 80.6264L49.7806 76.3725L47.6 76.6496L48.1404 80.9034L43.9058 79.8795L43.4451 81.9721L47.6662 82.8888L45.6089 86.7099L47.6579 87.6846L49.63 83.7654L52.7339 87.0397L54.2194 85.5797L51.3123 82.4256L55.2416 80.4735L54.1651 78.5761L50.321 80.6264Z" fill="#CC3F6D"/>
<path d="M278.186 25.8184L277.476 20.2275L274.61 20.5916L275.32 26.1825L269.755 24.8367L269.149 27.5871L274.697 28.7919L271.993 33.814L274.686 35.0951L277.278 29.944L281.358 34.2475L283.31 32.3286L279.489 28.1831L284.653 25.6174L283.239 23.1237L278.186 25.8184Z" fill="#EC5B86"/>
<path d="M67.1862 191.818L66.4759 186.227L63.61 186.592L64.3203 192.182L58.7546 190.837L58.1492 193.587L63.6969 194.792L60.9931 199.814L63.6861 201.095L66.2781 195.944L70.3576 200.248L72.3099 198.329L68.4892 194.183L73.6534 191.617L72.2386 189.124L67.1862 191.818Z" fill="#EC5B86"/>
<path d="M297.186 234.818L296.476 229.227L293.61 229.591L294.32 235.182L288.755 233.837L288.149 236.587L293.697 237.792L290.993 242.814L293.686 244.095L296.278 238.944L300.358 243.247L302.31 241.328L298.489 237.183L303.653 234.617L302.239 232.124L297.186 234.818Z" fill="#EC5B86"/>
</svg>
