<svg width="323" height="312" viewBox="0 0 323 312" fill="none" xmlns="http://www.w3.org/2000/svg">
<path d="M202.983 82.9597H260.321C265.623 82.9597 269.961 78.6228 269.961 73.3187V71.3937C269.961 66.0922 265.623 61.7539 260.321 61.7539H217.812C212.509 61.7539 208.171 66.0922 208.171 71.3937V73.3187C208.171 78.6228 208.171 81.8034 202.983 82.9597Z" fill="#CC3F6D"/>
<path d="M223.626 66.3339H221.96V68.0139H223.626V66.3339ZM223.626 68.9519H221.96V76.4839H223.626V68.9519ZM227.167 66.3339H225.501V76.4839H227.167V74.0759L227.965 73.2219L230.331 76.4839H232.277L229.071 72.0459L231.955 68.9519H229.953L227.167 71.9759V66.3339ZM233.125 76.4839H235.029V74.5799H233.125V76.4839ZM238.364 76.4839V72.4799C238.364 71.1219 238.784 70.1419 240.016 70.1419C241.248 70.1419 241.346 71.1359 241.346 72.1579V76.4839H243.012V72.4799C243.012 71.1219 243.432 70.1419 244.664 70.1419C245.896 70.1419 245.994 71.1359 245.994 72.1579V76.4839H247.66V71.7519C247.66 69.9599 246.974 68.7839 245.196 68.7839C244.272 68.7839 243.39 69.1619 242.746 70.1139C242.396 69.2739 241.71 68.7839 240.548 68.7839C239.54 68.7839 238.798 69.2179 238.364 70.0019V68.9519H236.698V76.4839H238.364ZM250.589 73.1939H256.203C256.343 70.6599 254.901 68.7839 252.591 68.7839C250.449 68.7839 248.895 70.3939 248.895 72.6619C248.895 74.8179 250.281 76.6659 252.703 76.6659C254.649 76.6659 255.769 75.4339 256.119 74.2299H254.481C254.187 74.9299 253.501 75.2799 252.633 75.2799C251.681 75.2799 250.701 74.5939 250.589 73.1939ZM250.589 71.9759C250.729 70.5479 251.807 70.0859 252.591 70.0859C253.571 70.0859 254.467 70.7999 254.509 71.9759H250.589Z" fill="#191919"/>
<path d="M221.023 202.703H312.723C318.024 202.703 322.362 198.366 322.362 193.062V191.137C322.362 185.835 318.024 181.497 312.723 181.497H235.852C230.549 181.497 226.211 185.835 226.211 191.137V193.062C226.211 198.366 226.211 201.546 221.023 202.703Z" fill="#F9DADF"/>
<path d="M241.666 186.077H240V187.757H241.666V186.077ZM241.666 188.695H240V196.227H241.666V188.695ZM245.207 186.077H243.541V196.227H245.207V193.819L246.005 192.965L248.371 196.227H250.317L247.111 191.789L249.995 188.695H247.993L245.207 191.719V186.077ZM252.699 196.227V192.223C252.699 190.865 253.119 189.885 254.351 189.885C255.583 189.885 255.681 190.879 255.681 191.901V196.227H257.347V192.223C257.347 190.865 257.767 189.885 258.999 189.885C260.231 189.885 260.329 190.879 260.329 191.901V196.227H261.995V191.495C261.995 189.703 261.309 188.527 259.531 188.527C258.607 188.527 257.725 188.905 257.081 189.857C256.731 189.017 256.045 188.527 254.883 188.527C253.875 188.527 253.133 188.961 252.699 189.745V188.695H251.033V196.227H252.699ZM263.287 194.155C263.287 195.527 264.435 196.409 266.073 196.409C267.179 196.409 268.075 196.017 268.551 195.205C268.579 195.723 268.635 195.905 268.691 196.227H270.217C270.077 195.597 269.993 194.603 269.993 193.651C269.993 192.965 270.021 192.083 270.021 191.705C270.063 189.297 268.649 188.471 266.843 188.471C265.023 188.471 263.749 189.521 263.637 191.061H265.275C265.317 190.151 265.947 189.703 266.787 189.703C267.613 189.703 268.355 190.095 268.355 191.383V191.523C265.597 191.803 263.287 192.279 263.287 194.155ZM268.397 192.685V193.259C268.397 194.533 267.669 195.163 266.437 195.163C265.597 195.163 265.051 194.771 265.051 194.113C265.051 193.245 266.017 192.909 268.397 192.685ZM273.371 186.077H271.705V187.757H273.371V186.077ZM273.371 188.695H271.705V196.227H273.371V188.695ZM276.912 196.227V186.077H275.246V196.227H276.912ZM278.577 196.227H280.481V194.323H278.577V196.227ZM288.457 191.271C288.177 189.591 286.721 188.527 285.083 188.527C282.843 188.527 281.387 190.235 281.387 192.475C281.387 194.715 282.829 196.409 285.013 196.409C286.623 196.409 288.177 195.415 288.513 193.651H286.889C286.679 194.659 285.853 195.023 285.041 195.023C284.061 195.023 283.109 194.253 283.109 192.461C283.109 190.683 284.047 189.913 285.083 189.913C285.993 189.913 286.693 190.473 286.833 191.271H288.457ZM296.75 192.475C296.75 189.759 294.874 188.527 293.04 188.527C291.206 188.527 289.33 189.759 289.33 192.475C289.33 195.191 291.206 196.409 293.04 196.409C294.874 196.409 296.75 195.191 296.75 192.475ZM293.04 195.051C291.99 195.051 291.052 194.211 291.052 192.475C291.052 190.739 291.99 189.885 293.04 189.885C294.09 189.885 295.028 190.739 295.028 192.475C295.028 194.211 294.09 195.051 293.04 195.051ZM299.785 196.227V192.223C299.785 190.865 300.205 189.885 301.437 189.885C302.669 189.885 302.767 190.879 302.767 191.901V196.227H304.433V192.223C304.433 190.865 304.853 189.885 306.085 189.885C307.317 189.885 307.415 190.879 307.415 191.901V196.227H309.081V191.495C309.081 189.703 308.395 188.527 306.617 188.527C305.693 188.527 304.811 188.905 304.167 189.857C303.817 189.017 303.131 188.527 301.969 188.527C300.961 188.527 300.219 188.961 299.785 189.745V188.695H298.119V196.227H299.785Z" fill="#191919"/>
<path d="M87.0403 175.767H12.0011C6.69962 175.767 2.36133 171.43 2.36133 166.126V164.201C2.36133 158.9 6.69962 154.562 12.0011 154.562H72.2118C77.5146 154.562 81.8529 158.9 81.8529 164.201V166.126C81.8529 171.43 81.8529 174.611 87.0403 175.767Z" fill="#EF8BA4"/>
<path d="M14.9019 165.864H20.5159C20.6559 163.33 19.2139 161.454 16.9039 161.454C14.7619 161.454 13.2079 163.064 13.2079 165.332C13.2079 167.488 14.5939 169.336 17.0159 169.336C18.9619 169.336 20.0819 168.104 20.4319 166.9H18.7939C18.4999 167.6 17.8139 167.95 16.9459 167.95C15.9939 167.95 15.0139 167.264 14.9019 165.864ZM14.9019 164.646C15.0419 163.218 16.1199 162.756 16.9039 162.756C17.8839 162.756 18.7799 163.47 18.8219 164.646H14.9019ZM22.1257 159.634V161.622H21.0057V162.826H22.1257V167.18C22.1257 168.72 22.4477 169.154 24.0577 169.154H25.2897V167.88H24.6877C23.9737 167.88 23.7917 167.698 23.7917 166.928V162.826H25.3037V161.622H23.7917V159.634H22.1257ZM28.3115 159.004H26.6455V160.684H28.3115V159.004ZM28.3115 161.622H26.6455V169.154H28.3115V161.622ZM31.8525 159.004H30.1865V169.154H31.8525V166.746L32.6505 165.892L35.0165 169.154H36.9625L33.7565 164.716L36.6405 161.622H34.6385L31.8525 164.646V159.004ZM37.8105 169.154H39.7145V167.25H37.8105V169.154ZM47.6897 164.198C47.4097 162.518 45.9537 161.454 44.3157 161.454C42.0757 161.454 40.6197 163.162 40.6197 165.402C40.6197 167.642 42.0617 169.336 44.2457 169.336C45.8557 169.336 47.4097 168.342 47.7457 166.578H46.1217C45.9117 167.586 45.0857 167.95 44.2737 167.95C43.2937 167.95 42.3417 167.18 42.3417 165.388C42.3417 163.61 43.2797 162.84 44.3157 162.84C45.2257 162.84 45.9257 163.4 46.0657 164.198H47.6897ZM55.9834 165.402C55.9834 162.686 54.1074 161.454 52.2734 161.454C50.4394 161.454 48.5634 162.686 48.5634 165.402C48.5634 168.118 50.4394 169.336 52.2734 169.336C54.1074 169.336 55.9834 168.118 55.9834 165.402ZM52.2734 167.978C51.2234 167.978 50.2854 167.138 50.2854 165.402C50.2854 163.666 51.2234 162.812 52.2734 162.812C53.3234 162.812 54.2614 163.666 54.2614 165.402C54.2614 167.138 53.3234 167.978 52.2734 167.978ZM59.0186 169.154V165.15C59.0186 163.792 59.4386 162.812 60.6706 162.812C61.9026 162.812 62.0006 163.806 62.0006 164.828V169.154H63.6666V165.15C63.6666 163.792 64.0866 162.812 65.3186 162.812C66.5506 162.812 66.6486 163.806 66.6486 164.828V169.154H68.3146V164.422C68.3146 162.63 67.6286 161.454 65.8506 161.454C64.9266 161.454 64.0446 161.832 63.4006 162.784C63.0506 161.944 62.3646 161.454 61.2026 161.454C60.1946 161.454 59.4526 161.888 59.0186 162.672V161.622H57.3526V169.154H59.0186Z" fill="#191919"/>
<rect x="249" y="114.68" width="40" height="40" rx="4" transform="rotate(-7.24 249 114.68)" fill="#333333"/>
<path opacity="0.50372" fill-rule="evenodd" clip-rule="evenodd" d="M264.475 120.676C264.361 119.783 265.153 119.034 266.048 119.187L281.362 121.806C281.946 121.906 282.396 122.372 282.47 122.954L284.309 137.429C284.422 138.322 283.63 139.071 282.735 138.918L267.421 136.299C266.837 136.2 266.388 135.734 266.314 135.151L264.475 120.676Z" fill="#C2F1F9"/>
<path opacity="0.8" fill-rule="evenodd" clip-rule="evenodd" d="M261.444 123.623C261.331 122.73 262.122 121.981 263.017 122.134L278.332 124.753C278.916 124.853 279.365 125.319 279.439 125.901L281.278 140.376C281.391 141.269 280.6 142.018 279.705 141.865L264.39 139.246C263.806 139.147 263.357 138.681 263.283 138.098L261.444 123.623Z" fill="#8AE3F3"/>
<path fill-rule="evenodd" clip-rule="evenodd" d="M258.414 126.57C258.3 125.678 259.092 124.929 259.987 125.082L275.301 127.7C275.885 127.8 276.335 128.266 276.409 128.849L278.247 143.324C278.361 144.217 277.569 144.965 276.674 144.812L261.36 142.194C260.776 142.094 260.326 141.628 260.252 141.046L258.414 126.57Z" fill="#36D0EB"/>
<path fill-rule="evenodd" clip-rule="evenodd" d="M264.757 138.306L269.098 139.057L269.029 138.517L265.389 137.898L267.012 135.794C267.437 135.232 267.723 134.75 267.869 134.35C268.015 133.95 268.065 133.567 268.019 133.204C267.937 132.56 267.695 132.027 267.292 131.606C266.89 131.187 266.373 130.936 265.742 130.854C265.329 130.8 264.973 130.853 264.675 131.011C264.377 131.169 264.163 131.413 264.032 131.741C263.902 132.068 263.864 132.446 263.918 132.874L264.482 132.954C264.416 132.431 264.505 132.025 264.749 131.736C264.993 131.445 265.347 131.331 265.811 131.392C266.259 131.452 266.629 131.642 266.921 131.961C267.213 132.281 267.39 132.686 267.452 133.176C267.492 133.488 267.457 133.798 267.347 134.106C267.262 134.345 267.11 134.626 266.893 134.949L266.69 135.235L264.696 137.826L264.757 138.306ZM272.239 139.601L272.811 139.7L271.797 131.725L271.703 131.712L269.481 132.396L269.557 132.999L271.332 132.461L272.239 139.601Z" fill="white"/>
<path fill-rule="evenodd" clip-rule="evenodd" d="M266.3 137.543L267.415 136.098L267.415 136.098L267.417 136.094C267.856 135.514 268.175 134.987 268.346 134.52L268.346 134.52C268.515 134.056 268.58 133.594 268.522 133.14C268.428 132.404 268.146 131.768 267.661 131.26L267.66 131.26C267.171 130.75 266.544 130.452 265.81 130.356C265.316 130.292 264.848 130.35 264.437 130.569C264.027 130.787 263.733 131.125 263.561 131.558C263.393 131.979 263.353 132.445 263.415 132.937C263.444 133.161 263.619 133.338 263.844 133.37L264.409 133.451C264.565 133.473 264.724 133.422 264.837 133.312C264.95 133.202 265.005 133.046 264.985 132.891C264.929 132.449 265.015 132.202 265.137 132.057L265.138 132.056C265.244 131.93 265.406 131.845 265.742 131.89C266.077 131.934 266.337 132.07 266.545 132.298C266.758 132.532 266.899 132.837 266.95 133.24C266.979 133.472 266.954 133.703 266.87 133.939M266.3 137.543L269.116 138.022C269.336 138.06 269.504 138.234 269.532 138.453L269.601 138.993C269.621 139.151 269.564 139.31 269.447 139.42C269.331 139.53 269.168 139.579 269.01 139.551L264.669 138.8C264.45 138.762 264.282 138.588 264.255 138.37L264.194 137.889C264.177 137.759 264.213 137.627 264.294 137.522L266.281 134.939L266.475 134.666C266.678 134.364 266.804 134.123 266.87 133.939M271.554 131.233C271.624 131.211 271.698 131.205 271.771 131.215L271.865 131.227C272.093 131.257 272.272 131.435 272.3 131.661L273.313 139.636C273.334 139.794 273.277 139.952 273.16 140.062C273.043 140.173 272.881 140.221 272.722 140.194L272.151 140.095C271.933 140.057 271.765 139.883 271.737 139.665L270.905 133.115L269.705 133.479C269.562 133.522 269.407 133.501 269.282 133.421C269.157 133.341 269.074 133.21 269.055 133.063L268.978 132.46C268.948 132.218 269.097 131.989 269.332 131.917L271.554 131.233Z" fill="white"/>
<rect y="37.6797" width="40" height="40" rx="8" transform="rotate(-7.24 0 37.6797)" fill="#333333"/>
<path opacity="0.504232" fill-rule="evenodd" clip-rule="evenodd" d="M16.4717 43.5594C16.3505 42.605 17.2401 41.8347 18.1677 42.0909L20.5951 42.7614C20.9666 42.864 21.2764 43.1208 21.4461 43.4667L22.7028 46.0284C22.9051 46.4408 23.3036 46.7217 23.7601 46.7737L33.6484 47.9003C34.2654 47.9705 34.7545 48.4532 34.8327 49.0691L36.2539 60.256C36.3681 61.1553 35.5794 61.9085 34.686 61.7533L19.4047 59.0978C18.8218 58.9965 18.3732 58.527 18.2987 57.9402L16.4717 43.5594Z" fill="#A2BFFF"/>
<path opacity="0.8" fill-rule="evenodd" clip-rule="evenodd" d="M13.4688 46.6573C13.3476 45.7029 14.2372 44.9326 15.1648 45.1888L17.5922 45.8593C17.9637 45.9619 18.2735 46.2187 18.4432 46.5646L19.6999 49.1263C19.9022 49.5387 20.3007 49.8196 20.7572 49.8716L30.6455 50.9982C31.2625 51.0684 31.7515 51.5511 31.8298 52.167L33.251 63.3539C33.3652 64.2532 32.5764 65.0064 31.6831 64.8512L16.4018 62.1957C15.8189 62.0944 15.3703 61.6249 15.2957 61.0381L13.4688 46.6573Z" fill="#A0BDFF"/>
<path fill-rule="evenodd" clip-rule="evenodd" d="M10.4156 49.3541C10.2943 48.3997 11.184 47.6293 12.1116 47.8856L14.539 48.5561C14.9105 48.6587 15.2203 48.9154 15.39 49.2614L16.6467 51.8231C16.849 52.2354 17.2475 52.5164 17.704 52.5684L27.5923 53.6949C28.2093 53.7652 28.6983 54.2479 28.7766 54.8637L30.1977 66.0507C30.312 66.9499 29.5232 67.7032 28.6299 67.548L13.3486 64.8925C12.7657 64.7912 12.317 64.3217 12.2425 63.7349L10.4156 49.3541Z" fill="#1A47FF"/>
<path fill-rule="evenodd" clip-rule="evenodd" d="M8.07502 56.1814C7.58562 55.2078 8.39483 54.0862 9.47348 54.2432L24.852 56.4811C25.3162 56.5487 25.7119 56.8527 25.8966 57.2839L29.9384 66.7186C30.1489 67.21 29.7303 67.7391 29.2035 67.6475L13.0363 64.8381C12.6157 64.765 12.2547 64.4971 12.063 64.1157L8.07502 56.1814Z" fill="#5287FF"/>
<rect x="28" y="271.68" width="40" height="40" rx="4" transform="rotate(-7.24 28 271.68)" fill="#333333"/>
<path fill-rule="evenodd" clip-rule="evenodd" d="M43.5496 276.007C43.4401 275.145 44.1885 274.424 45.0372 274.574L59.5558 277.135C60.1096 277.233 60.5363 277.683 60.6077 278.246L62.8711 296.062C62.9806 296.924 62.2321 297.645 61.3834 297.495L46.8648 294.934C46.311 294.836 45.8844 294.385 45.8129 293.823L43.5496 276.007Z" fill="#C79BFF" fill-opacity="0.3"/>
<path opacity="0.8" fill-rule="evenodd" clip-rule="evenodd" d="M40.7005 278.972C40.591 278.11 41.3394 277.389 42.1881 277.539L56.7067 280.101C57.2605 280.198 57.6872 280.649 57.7586 281.211L60.022 299.027C60.1314 299.889 59.383 300.61 58.5343 300.461L44.0157 297.899C43.4619 297.801 43.0352 297.351 42.9638 296.789L40.7005 278.972Z" fill="#CCAFEF"/>
<path fill-rule="evenodd" clip-rule="evenodd" d="M37.8513 281.938C37.7418 281.076 38.4903 280.355 39.339 280.505L53.8576 283.066C54.4114 283.164 54.838 283.614 54.9095 284.176L57.1728 301.993C57.2823 302.855 56.5339 303.576 55.6852 303.426L41.1666 300.864C40.6128 300.767 40.1861 300.316 40.1147 299.754L37.8513 281.938Z" fill="#9D66E1"/>
<path d="M47.5303 281.95L48.599 290.363C48.6152 290.492 48.7075 290.6 48.8325 290.634C48.9576 290.669 49.0909 290.624 49.17 290.521L50.2598 289.1C50.2858 289.066 50.324 289.044 50.3662 289.039C50.4084 289.033 50.451 289.045 50.4846 289.071L51.9977 290.983C52.1001 291.063 52.2404 291.073 52.3528 291.008C52.4653 290.944 52.5278 290.817 52.5111 290.687L51.4892 282.644L47.5303 281.95Z" fill="#6129C6"/>
<path fill-rule="evenodd" clip-rule="evenodd" d="M37.8388 281.838C37.7514 281.15 38.4512 280.387 39.2806 280.492L41.0843 280.811L43.6878 301.305L41.0643 300.839C40.5572 300.706 40.1792 300.261 40.1229 299.817L37.8388 281.838Z" fill="#6129C6"/>
<path d="M175.433 24.8595L88.9623 35.6096C84.9964 36.1081 81.39 38.1588 78.9338 41.3122C76.4777 44.4656 75.3723 48.4643 75.8601 52.4314L102.944 270.285C103.442 274.25 105.493 277.857 108.647 280.313C111.8 282.769 115.799 283.874 119.766 283.386L206.231 272.637C210.197 272.138 213.804 270.088 216.26 266.934C218.716 263.781 219.821 259.782 219.334 255.815L192.25 37.9617C191.752 33.9968 189.701 30.3912 186.549 27.9352C183.397 25.4792 179.399 24.3732 175.433 24.8595Z" fill="#4C4C4C"/>
<path d="M119.267 279.118C116.431 279.471 113.572 278.685 111.315 276.932C109.058 275.179 107.588 272.603 107.227 269.769L80.1419 51.9006C79.7987 49.0643 80.5936 46.2075 82.3524 43.956C84.1112 41.7044 86.6906 40.2416 89.5258 39.8878L101.582 38.3889L101.691 39.2652C101.973 41.5305 103.141 43.5918 104.939 44.9976C106.738 46.4035 109.02 47.0392 111.287 46.7656L156.536 41.1401C158.804 40.8514 160.865 39.6771 162.27 37.8736C163.675 36.0701 164.309 33.784 164.033 31.5147L163.924 30.6385L175.976 29.1402C178.808 28.7935 181.663 29.5829 183.914 31.3357C186.166 33.0886 187.632 35.662 187.99 38.4928L215.076 256.361C215.421 259.194 214.63 262.047 212.876 264.298C211.122 266.549 208.548 268.013 205.717 268.371L119.267 279.118Z" fill="#191919"/>
<path d="M120.814 249.396C116.931 249.884 114.179 253.427 114.667 257.31C115.155 261.193 118.698 263.944 122.581 263.457C126.464 262.969 129.216 259.426 128.728 255.543C128.24 251.66 124.697 248.908 120.814 249.396Z" fill="#3E3E3E"/>
<path d="M119.081 258.461L118.454 253.471C118.273 252.037 119.299 250.716 120.734 250.536L121.174 250.48C122.608 250.3 123.929 251.326 124.11 252.761L124.737 257.75L119.081 258.461Z" fill="#996452"/>
<path d="M124.883 257.737L118.954 258.477C118.059 258.869 117.484 259.819 117.612 260.834L117.801 262.341C119.162 263.239 120.837 263.675 122.581 263.456C124.326 263.237 125.84 262.4 126.937 261.193L126.748 259.686C126.621 258.677 125.839 257.903 124.883 257.737Z" fill="#824D65"/>
<path d="M124.208 257.723C123.012 257.873 122.871 256.756 122.742 255.73L122.581 254.448L120.334 254.731L120.495 256.012C120.624 257.039 120.685 258.166 119.567 258.306C119.347 258.334 119.138 258.393 118.944 258.478C119.64 259.472 120.848 260.058 122.135 259.896C123.42 259.735 124.444 258.871 124.873 257.738C124.658 257.701 124.435 257.694 124.208 257.723Z" fill="#EFD6CE"/>
<path d="M122.209 257.935C122.544 257.893 122.862 257.631 123.122 257.249C122.885 256.856 122.811 256.281 122.742 255.73L122.581 254.448L120.333 254.731L120.494 256.013C120.527 256.275 120.556 256.544 120.561 256.802C121.031 257.509 121.667 258.003 122.209 257.935Z" fill="#D3B6AE"/>
<path d="M122.833 252.763C122.514 253.077 122.052 253.338 121.507 253.479C120.8 253.662 120.117 253.602 119.645 253.361C119.635 253.59 119.322 254.083 119.234 254.133C119.209 254.233 119.201 254.349 119.217 254.472C119.258 254.804 119.451 255.053 119.648 255.034C120.045 256.226 121.015 257.28 121.792 257.183C122.569 257.085 123.248 255.824 123.338 254.571C123.533 254.54 123.658 254.251 123.616 253.919C123.601 253.8 123.567 253.692 123.52 253.603C123.261 253.496 122.939 253.097 122.833 252.763Z" fill="#EFD6CE"/>
<path d="M117.881 218.592C114.002 219.104 111.271 222.664 111.783 226.544C112.295 230.424 115.855 233.153 119.735 232.642C123.615 232.13 126.345 228.57 125.833 224.69C125.321 220.81 121.761 218.08 117.881 218.592Z" fill="#3E3E3E"/>
<path d="M121.955 226.509L121.946 226.516C121.946 226.514 121.946 226.512 121.946 226.51C121.731 226.474 120.839 226.205 120.606 226.086L117.186 226.487C116.996 226.709 116.215 227.2 116.022 227.286C116.023 227.287 116.023 227.288 116.023 227.289C115.135 227.689 114.353 228.829 114.486 229.841L114.821 231.472C116.209 232.419 117.937 232.878 119.734 232.641C121.539 232.403 123.093 231.505 124.19 230.223L124.09 228.574C123.957 227.566 122.912 226.669 121.955 226.509Z" fill="#D0759F"/>
<path d="M117.185 226.488C117.469 226.106 117.609 226.047 117.466 224.965C117.324 223.882 119.91 223.527 120.054 224.623C120.199 225.72 120.287 225.928 120.606 226.087C120.606 226.087 120.839 227.343 119.074 227.576C117.31 227.809 117.185 226.488 117.185 226.488Z" fill="#EFD6CE"/>
<path d="M118.594 226.703C118.798 226.802 119.071 226.761 119.261 226.736C119.455 226.71 119.731 226.677 119.904 226.525C120.035 226.41 120.19 226.165 120.335 225.85C120.215 225.655 120.146 225.318 120.055 224.623C119.91 223.527 117.323 223.882 117.466 224.964C117.494 225.172 117.511 225.342 117.518 225.485C117.876 226.084 118.317 226.568 118.594 226.703Z" fill="#D3B6AE"/>
<path d="M120.405 222.693C119.856 220.498 119.28 220.466 118.212 220.607C117.143 220.748 116.595 220.928 116.634 223.19C116.463 223.254 116.36 223.523 116.401 223.831C116.445 224.166 116.642 224.417 116.842 224.39C116.864 224.387 116.885 224.38 116.905 224.371C117.275 225.225 117.92 226.002 118.284 226.18C118.488 226.279 118.76 226.238 118.951 226.213C119.145 226.187 119.422 226.154 119.594 226.001C119.89 225.741 120.312 224.823 120.449 223.903C120.472 223.907 120.494 223.909 120.516 223.906C120.716 223.879 120.841 223.586 120.797 223.251C120.757 222.943 120.587 222.71 120.405 222.693Z" fill="#EFD6CE"/>
<path d="M117.03 223.992C116.953 223.411 116.958 223.391 117.005 223.081C118.725 222.573 119.176 221.918 119.635 221.629C120.072 221.992 120.121 222.778 120.225 223.57C120.521 223.529 120.2 222.761 120.503 222.721C120.281 221.308 120.362 220.825 119.509 220.297C118.662 219.773 117.613 220.201 116.88 220.783C116.176 221.342 116.372 221.68 116.576 223.219C116.903 223.258 116.739 224.03 117.03 223.992Z" fill="#838383"/>
<path d="M114.906 189.935C111.03 190.475 108.325 194.055 108.866 197.931C109.406 201.807 112.985 204.511 116.861 203.971C120.737 203.431 123.442 199.851 122.902 195.975C122.362 192.099 118.782 189.395 114.906 189.935Z" fill="#3E3E3E"/>
<path d="M119.038 197.822L119.029 197.829C119.029 197.827 119.029 197.825 119.029 197.823C118.814 197.789 117.92 197.525 117.686 197.408L116.276 199.7L114.268 197.834C114.08 198.058 113.303 198.554 113.111 198.642C113.111 198.643 113.112 198.644 113.112 198.644C112.227 199.051 111.453 200.197 111.594 201.208L111.94 202.837C113.336 203.773 115.067 204.22 116.862 203.97C118.664 203.719 120.212 202.81 121.3 201.52L121.188 199.871C121.048 198.864 119.996 197.974 119.038 197.822Z" fill="#DA2B7A"/>
<path d="M114.268 197.836C114.549 197.452 114.689 197.392 114.538 196.31C114.387 195.229 116.971 194.855 117.124 195.95C117.276 197.045 117.366 197.253 117.686 197.409L116.275 199.701L114.268 197.836Z" fill="#875744"/>
<path opacity="0.256859" d="M115.678 198.041C115.882 198.139 116.154 198.095 116.345 198.069C116.538 198.042 116.815 198.007 116.987 197.853C117.117 197.737 117.27 197.491 117.412 197.175C117.291 196.981 117.22 196.644 117.123 195.95C116.97 194.855 114.386 195.229 114.537 196.31C114.566 196.518 114.584 196.688 114.593 196.83C114.955 197.427 115.399 197.907 115.678 198.041Z" fill="black"/>
<path d="M117.459 194.017C116.894 191.826 116.318 191.799 115.251 191.948C114.183 192.096 113.56 192.325 113.615 194.587C113.445 194.652 113.394 194.885 113.463 195.184C113.539 195.514 113.709 195.768 113.908 195.741C113.93 195.738 113.951 195.73 113.971 195.721C114.348 196.572 114.998 197.344 115.364 197.52C115.568 197.617 115.84 197.574 116.031 197.548C116.224 197.521 116.501 197.486 116.672 197.332C116.967 197.069 117.381 196.148 117.512 195.227C117.534 195.231 117.557 195.232 117.579 195.229C117.778 195.202 117.902 194.907 117.855 194.572C117.812 194.265 117.641 194.033 117.459 194.017Z" fill="#875744"/>
<path d="M114.107 195.338C114.026 194.758 113.911 194.03 114.016 193.719C114.121 193.409 115.942 192.389 116.997 193.304C117.171 193.777 117.189 194.102 117.299 194.893C117.591 194.853 117.255 194.09 117.558 194.048C117.594 193.342 117.717 191.167 114.959 191.481C114.267 191.56 113.588 191.568 113.588 191.568C113.588 191.568 113.319 192.065 113.334 192.806C113.349 193.547 113.616 194.587 113.616 194.587C113.943 194.624 113.817 195.379 114.107 195.338Z" fill="#241E20"/>
<path d="M111.942 161.467C108.063 161.986 105.338 165.55 105.857 169.429C106.375 173.308 109.939 176.032 113.818 175.514C117.697 174.996 120.422 171.432 119.903 167.553C119.385 163.674 115.821 160.949 111.942 161.467Z" fill="#3E3E3E"/>
<path d="M110.279 170.546L109.613 165.562C109.422 164.129 110.437 162.799 111.871 162.608L112.31 162.549C113.743 162.358 115.072 163.374 115.263 164.807L115.929 169.791L110.279 170.546Z" fill="#996452"/>
<path d="M116.075 169.777L110.152 170.563C109.26 170.962 108.693 171.916 108.828 172.931L109.029 174.436C110.397 175.323 112.076 175.746 113.818 175.514C115.561 175.281 117.069 174.432 118.156 173.217L117.955 171.712C117.82 170.704 117.032 169.935 116.075 169.777Z" fill="#BF4C80"/>
<path d="M115.4 169.768C114.205 169.928 114.056 168.812 113.919 167.787L113.748 166.506L111.503 166.806L111.674 168.087C111.811 169.112 111.881 170.238 110.764 170.387C110.544 170.417 110.336 170.478 110.143 170.564C110.846 171.553 112.058 172.129 113.344 171.958C114.628 171.786 115.646 170.914 116.065 169.779C115.85 169.743 115.627 169.738 115.4 169.768Z" fill="#EFD6CE"/>
<path d="M113.403 169.996C113.738 169.951 114.054 169.687 114.311 169.302C114.071 168.911 113.992 168.337 113.919 167.787L113.748 166.506L111.503 166.806L111.674 168.087C111.709 168.349 111.739 168.618 111.746 168.875C112.222 169.579 112.862 170.068 113.403 169.996Z" fill="#D3B6AE"/>
<path d="M113.987 164.819C113.671 165.135 113.21 165.399 112.667 165.545C111.961 165.734 111.278 165.679 110.804 165.441C110.795 165.671 110.487 166.166 110.399 166.216C110.374 166.316 110.368 166.433 110.384 166.556C110.428 166.888 110.623 167.135 110.82 167.115C111.226 168.304 112.205 169.35 112.98 169.246C113.756 169.143 114.426 167.876 114.506 166.622C114.701 166.591 114.824 166.301 114.779 165.969C114.763 165.849 114.728 165.742 114.68 165.653C114.421 165.549 114.096 165.152 113.987 164.819Z" fill="#EFD6CE"/>
<path d="M105.25 107.231C101.371 107.749 98.6465 111.314 99.1646 115.193C99.6827 119.072 103.247 121.796 107.126 121.278C111.005 120.76 113.73 117.195 113.212 113.316C112.693 109.437 109.129 106.713 105.25 107.231Z" fill="#3E3E3E"/>
<path d="M109.336 115.141L109.327 115.148C109.327 115.146 109.327 115.144 109.327 115.142C109.112 115.107 108.22 114.839 107.987 114.72L104.567 115.127C104.378 115.35 103.597 115.842 103.404 115.928C103.405 115.929 103.405 115.93 103.406 115.93C102.518 116.332 101.738 117.473 101.873 118.485L102.21 120.116C103.6 121.06 105.329 121.517 107.125 121.277C108.929 121.036 110.482 120.136 111.577 118.852L111.475 117.203C111.34 116.195 110.293 115.299 109.336 115.141Z" fill="#AE366D"/>
<path d="M104.567 115.128C104.85 114.746 104.99 114.687 104.846 113.604C104.701 112.522 107.287 112.163 107.433 113.259C107.579 114.355 107.668 114.563 107.987 114.721C107.987 114.721 108.222 115.977 106.458 116.213C104.693 116.449 104.567 115.128 104.567 115.128Z" fill="#EFD6CE"/>
<path d="M105.976 115.341C106.18 115.44 106.452 115.398 106.643 115.373C106.836 115.347 107.113 115.314 107.285 115.161C107.416 115.045 107.571 114.801 107.715 114.485C107.595 114.291 107.525 113.953 107.433 113.259C107.286 112.163 104.701 112.522 104.845 113.604C104.873 113.812 104.89 113.982 104.898 114.124C105.257 114.724 105.698 115.206 105.976 115.341Z" fill="#D3B6AE"/>
<path d="M107.781 111.328C107.228 109.134 106.652 109.103 105.584 109.246C104.516 109.388 103.968 109.569 104.01 111.831C103.84 111.895 103.737 112.165 103.778 112.472C103.823 112.807 104.021 113.058 104.22 113.031C104.242 113.028 104.263 113.021 104.283 113.012C104.655 113.865 105.301 114.641 105.665 114.818C105.869 114.917 106.142 114.876 106.332 114.85C106.526 114.824 106.803 114.791 106.975 114.638C107.271 114.377 107.691 113.458 107.827 112.538C107.849 112.542 107.871 112.543 107.894 112.54C108.093 112.514 108.218 112.22 108.173 111.885C108.132 111.578 107.963 111.344 107.781 111.328Z" fill="#EFD6CE"/>
<path d="M104.407 112.633C104.33 112.052 104.334 112.032 104.381 111.722C106.1 111.21 106.55 110.555 107.008 110.265C107.447 110.628 107.496 111.414 107.602 112.206C107.897 112.164 107.575 111.396 107.879 111.356C107.654 109.943 107.734 109.461 106.88 108.933C106.033 108.411 104.985 108.841 104.253 109.424C103.549 109.984 103.746 110.322 103.952 111.86C104.28 111.899 104.117 112.671 104.407 112.633Z" fill="#996452"/>
<path d="M170.317 101.435L120.354 107.615L120.79 111.134L170.752 104.953L170.317 101.435Z" fill="#4C4C4C"/>
<path d="M147.436 112.839L121.399 116.06L121.834 119.579L147.871 116.358L147.436 112.839Z" fill="#4C4C4C"/>
<path d="M184.448 125.965L123.227 133.538L123.662 137.057L184.884 129.484L184.448 125.965Z" fill="#4C4C4C"/>
<path d="M156.176 138.036L124.271 141.983L124.707 145.501L156.611 141.555L156.176 138.036Z" fill="#4C4C4C"/>
<path d="M176.149 154.885L126.187 161.065L126.622 164.584L176.584 158.403L176.149 154.885Z" fill="#4C4C4C"/>
<path d="M153.268 166.288L127.231 169.509L127.666 173.028L153.703 169.807L153.268 166.288Z" fill="#4C4C4C"/>
<path d="M179.196 184.016L129.233 190.196L129.669 193.715L179.631 187.534L179.196 184.016Z" fill="#4C4C4C"/>
<path d="M156.315 195.42L130.278 198.64L130.713 202.159L156.75 198.938L156.315 195.42Z" fill="#4C4C4C"/>
<path d="M194.118 211.864L132.193 219.524L132.628 223.042L194.553 215.382L194.118 211.864Z" fill="#4C4C4C"/>
<path d="M165.508 223.976L133.237 227.968L133.673 231.487L165.943 227.495L165.508 223.976Z" fill="#4C4C4C"/>
<path d="M185.115 243.571L135.152 249.752L135.588 253.27L185.55 247.09L185.115 243.571Z" fill="#4C4C4C"/>
<path d="M162.233 254.975L136.197 258.196L136.632 261.714L162.669 258.493L162.233 254.975Z" fill="#4C4C4C"/>
<rect x="84.9834" y="91.595" width="108.546" height="10.6359" transform="rotate(-7.12135 84.9834 91.595)" fill="#282828"/>
<path d="M91.6917 79.4282C91.495 77.8521 92.903 76.3788 94.8366 76.1374L137.785 70.7757C139.718 70.5343 141.445 71.6163 141.642 73.1924C141.839 74.7685 140.431 76.2419 138.497 76.4833L95.5492 81.8449C93.6155 82.0863 91.8885 81.0044 91.6917 79.4282Z" fill="#4C4C4C"/>
<path d="M175.886 251.123C176.288 254.338 179.22 256.62 182.435 256.218L198.055 254.268C201.271 253.867 203.552 250.935 203.151 247.719C202.749 244.504 199.817 242.223 196.602 242.624L180.982 244.574C177.766 244.976 175.485 247.908 175.886 251.123Z" fill="#EF8BA4"/>
<path d="M174.733 68.7084C174.963 70.5497 176.704 71.8484 178.622 71.6089C180.54 71.3694 181.909 69.6826 181.679 67.8412L181.644 67.5634C181.414 65.722 179.673 64.4234 177.755 64.6628C175.837 64.9023 174.468 66.5891 174.698 68.4305L174.733 68.7084Z" fill="#EF8BA4"/>
<path d="M109.47 62.4051C109.715 64.3657 111.503 65.7567 113.464 65.5119L146.976 61.3282C148.936 61.0834 150.327 59.2956 150.082 57.335C149.838 55.3744 148.05 53.9834 146.089 54.2282L112.577 58.4119C110.617 58.6566 109.226 60.4445 109.47 62.4051Z" fill="#4C4C4C"/>
<path d="M171.96 54.7241C172.195 56.6063 173.911 57.9416 175.793 57.7066C177.675 57.4716 179.011 55.7553 178.776 53.8732L178.74 53.5892C178.505 51.707 176.789 50.3716 174.907 50.6066C173.025 50.8416 171.689 52.5579 171.924 54.4401L171.96 54.7241Z" fill="#666666"/>
<path d="M161.186 55.7623C161.449 57.8668 163.439 59.3509 165.631 59.0772C167.823 58.8036 169.387 56.8757 169.124 54.7713L169.085 54.4538C168.822 52.3493 166.832 50.8652 164.64 51.1389C162.448 51.4125 160.884 53.3404 161.146 55.4448L161.186 55.7623Z" fill="#EF8BA4"/>
<path d="M89.5888 64.599C89.8515 66.7034 91.8415 68.1876 94.0336 67.9139C96.2258 67.6402 97.7899 65.7124 97.5271 63.608L97.4875 63.2904C97.2248 61.186 95.2347 59.7019 93.0426 59.9755C90.8505 60.2492 89.2864 62.177 89.5491 64.2815L89.5888 64.599Z" fill="#EF8BA4"/>
<path d="M108.416 132.863C104.537 133.381 101.812 136.945 102.33 140.824C102.848 144.703 106.413 147.427 110.292 146.909C114.171 146.391 116.895 142.827 116.377 138.948C115.859 135.069 112.295 132.345 108.416 132.863Z" fill="#3E3E3E"/>
<path d="M108.784 133.945L108.344 134.004C106.911 134.195 105.895 135.524 106.087 136.957L106.283 138.426C106.474 139.859 107.804 140.875 109.236 140.684L109.676 140.625C111.109 140.434 112.125 139.105 111.933 137.671L111.737 136.202C111.546 134.77 110.217 133.753 108.784 133.945Z" fill="#241E20"/>
<path d="M111.874 141.163C110.679 141.323 110.53 140.207 110.393 139.182L110.222 137.901L107.977 138.201L108.148 139.482C108.285 140.507 108.354 141.633 107.238 141.782C107.018 141.812 106.81 141.873 106.616 141.959C107.319 142.948 108.532 143.524 109.818 143.353C111.102 143.181 112.119 142.309 112.539 141.174C112.324 141.138 112.101 141.133 111.874 141.163Z" fill="#D7AD83"/>
<path d="M112.549 141.172C112.128 142.308 111.111 143.18 109.827 143.351C108.541 143.523 107.328 142.947 106.625 141.958C105.734 142.357 105.166 143.311 105.302 144.326L105.503 145.831C106.871 146.718 108.549 147.141 110.292 146.909C112.034 146.676 113.542 145.827 114.63 144.612L114.429 143.107C114.294 142.099 113.505 141.33 112.549 141.172Z" fill="#D0759F"/>
<path d="M109.877 141.391C110.212 141.346 110.527 141.082 110.784 140.697C110.545 140.306 110.466 139.732 110.392 139.182L110.221 137.901L107.976 138.201L108.147 139.482C108.182 139.744 108.213 140.013 108.22 140.27C108.696 140.974 109.336 141.463 109.877 141.391Z" fill="#C59264"/>
<path d="M109.839 135.966C109.714 136.617 107.607 137.511 107.086 137.314C106.918 137.38 106.817 137.646 106.858 137.95C106.902 138.282 107.096 138.53 107.293 138.509C107.699 139.698 108.678 140.744 109.454 140.641C110.23 140.537 110.9 139.271 110.979 138.017C111.175 137.985 111.297 137.695 111.253 137.363C111.237 137.246 111.203 137.14 111.156 137.052C110.858 136.957 110.176 136.583 109.839 135.966Z" fill="#D7AD83"/>
<path d="M175.48 50.0135C173.23 50.314 171.65 52.3815 171.95 54.6315C172.251 56.8815 174.318 58.4617 176.568 58.1611C178.818 57.8606 180.399 55.7933 180.098 53.5433C179.798 51.2933 177.73 49.713 175.48 50.0135Z" fill="#EF8BA4"/>
<path d="M175.691 50.6416L175.436 50.6757C174.606 50.7866 174.017 51.5573 174.128 52.3881L174.241 53.2399C174.352 54.0709 175.123 54.6598 175.954 54.5488L176.209 54.5148C177.039 54.4038 177.628 53.6333 177.517 52.8024L177.404 51.9506C177.293 51.1198 176.522 50.5307 175.691 50.6416Z" fill="#D0BE7C"/>
<path d="M177.485 54.8267C176.792 54.9193 176.705 54.2724 176.626 53.6778L176.527 52.9354L175.225 53.1093L175.324 53.8517C175.403 54.4462 175.444 55.0993 174.797 55.1857C174.669 55.2027 174.548 55.2381 174.436 55.2883C174.844 55.8615 175.547 56.1957 176.292 56.0962C177.037 55.9967 177.627 55.4911 177.87 54.8327C177.746 54.8119 177.616 54.8091 177.485 54.8267Z" fill="#EFD6CE"/>
<path d="M177.875 54.8308C177.631 55.4893 177.041 55.9948 176.297 56.0942C175.551 56.1938 174.848 55.8598 174.441 55.2864C173.924 55.518 173.594 56.0711 173.673 56.6595L173.79 57.5323C174.583 58.0466 175.556 58.2919 176.566 58.157C177.577 58.022 178.451 57.53 179.081 56.8255L178.965 55.9527C178.887 55.3681 178.43 54.9227 177.875 54.8308Z" fill="#EF0057"/>
<path d="M176.326 54.9581C176.521 54.9321 176.704 54.7792 176.853 54.5561C176.714 54.3292 176.668 53.9962 176.625 53.6774L176.526 52.935L175.225 53.1089L175.324 53.8512C175.344 54.0034 175.362 54.1593 175.366 54.3084C175.642 54.7167 176.013 55 176.326 54.9581Z" fill="#D3B6AE"/>
<path d="M176.304 51.8136C176.232 52.1911 175.01 52.709 174.708 52.5948C174.611 52.6334 174.552 52.7873 174.575 52.964C174.601 53.1564 174.714 53.2999 174.828 53.2879C175.063 53.9773 175.631 54.5839 176.081 54.5238C176.53 54.4638 176.919 53.7294 176.965 53.0025C177.079 52.984 177.149 52.816 177.124 52.6236C177.115 52.5555 177.095 52.4942 177.068 52.4432C176.895 52.3879 176.499 52.171 176.304 51.8136Z" fill="#EFD6CE"/>
<path d="M25.498 78.3306L30.336 116.392C30.8931 120.775 34.8979 123.877 39.2809 123.319L80.1814 118.121" stroke="#F9DADF" stroke-linecap="round" stroke-dasharray="8 8"/>
<path d="M48.3438 264.327L43.5084 226.265C42.9516 221.882 46.0534 217.877 50.4364 217.32L91.3373 212.124" stroke="#F9DADF" stroke-linecap="round" stroke-dasharray="8 8"/>
<path d="M247.211 136.021L209.514 140.81" stroke="#F9DADF" stroke-linecap="round" stroke-dasharray="8 8"/>
<path d="M93.2306 301.751L92.8145 298.475L91.1354 298.689L91.5516 301.964L88.2909 301.176L87.9362 302.787L91.1864 303.493L89.6023 306.435L91.18 307.186L92.6986 304.168L95.0886 306.689L96.2324 305.565L93.9939 303.136L97.0195 301.633L96.1906 300.172L93.2306 301.751Z" fill="#F9DADF"/>
<path d="M244.231 226.751L243.814 223.475L242.135 223.689L242.552 226.964L239.291 226.176L238.936 227.787L242.186 228.493L240.602 231.435L242.18 232.186L243.699 229.168L246.089 231.689L247.232 230.565L244.994 228.136L248.019 226.633L247.191 225.172L244.231 226.751Z" fill="#F9DADF"/>
<path d="M233.231 43.7509L232.814 40.4754L231.135 40.6887L231.552 43.9642L228.291 43.1758L227.936 44.7871L231.186 45.493L229.602 48.4352L231.18 49.1858L232.699 46.1679L235.089 48.6892L236.232 47.565L233.994 45.1363L237.019 43.6332L236.191 42.1722L233.231 43.7509Z" fill="#F9DADF"/>
<path d="M103.231 4.748L102.814 1.47251L101.135 1.68581L101.552 4.9613L98.2909 4.17285L97.9362 5.78419L101.186 6.49006L99.6023 9.4323L101.18 10.1828L102.699 7.16501L105.089 9.68628L106.232 8.56205L103.994 6.1334L107.019 4.63026L106.191 3.16928L103.231 4.748Z" fill="#F9DADF"/>
<path d="M23.2306 137.751L22.8145 134.475L21.1354 134.689L21.5516 137.964L18.2909 137.176L17.9362 138.787L21.1864 139.493L19.6023 142.435L21.18 143.186L22.6986 140.168L25.0886 142.689L26.2324 141.565L23.9939 139.136L27.0195 137.633L26.1906 136.172L23.2306 137.751Z" fill="#F9DADF"/>
<path d="M231.321 275.626L230.781 271.372L228.6 271.649L229.14 275.903L224.906 274.879L224.445 276.972L228.666 277.889L226.609 281.71L228.658 282.684L230.63 278.765L233.734 282.04L235.219 280.58L232.312 277.425L236.242 275.473L235.165 273.576L231.321 275.626Z" fill="#F3B4C2"/>
<path d="M219.321 100.626L218.781 96.3724L216.6 96.6494L217.14 100.903L212.906 99.8793L212.445 101.972L216.666 102.889L214.609 106.71L216.658 107.684L218.63 103.765L221.734 107.04L223.219 105.58L220.312 102.425L224.242 100.473L223.165 98.576L219.321 100.626Z" fill="#F3B4C2"/>
<path d="M50.321 81.6263L49.7806 77.3724L47.6 77.6494L48.1404 81.9033L43.9058 80.8793L43.4451 82.972L47.6662 83.8887L45.6089 87.7098L47.6579 88.6845L49.63 84.7652L52.7339 88.0396L54.2194 86.5796L51.3123 83.4255L55.2416 81.4734L54.1651 79.576L50.321 81.6263Z" fill="#F3B4C2"/>
<path d="M278.186 26.8153L277.476 21.2244L274.61 21.5885L275.32 27.1794L269.755 25.8336L269.149 28.584L274.697 29.7889L271.993 34.8109L274.686 36.092L277.278 30.9409L281.358 35.2445L283.31 33.3255L279.489 29.1801L284.653 26.6144L283.239 24.1206L278.186 26.8153Z" fill="#F9DADF"/>
<path d="M67.1862 192.818L66.4759 187.227L63.61 187.591L64.3203 193.182L58.7546 191.837L58.1492 194.587L63.6969 195.792L60.9931 200.814L63.6861 202.095L66.2781 196.944L70.3576 201.247L72.3099 199.328L68.4892 195.183L73.6534 192.617L72.2386 190.124L67.1862 192.818Z" fill="#F9DADF"/>
<path d="M297.186 235.818L296.476 230.227L293.61 230.591L294.32 236.182L288.755 234.837L288.149 237.587L293.697 238.792L290.993 243.814L293.686 245.095L296.278 239.944L300.358 244.247L302.31 242.328L298.489 238.183L303.653 235.617L302.239 233.124L297.186 235.818Z" fill="#F9DADF"/>
</svg>
