<svg width="24" height="24" viewBox="0 0 24 24" fill="none" xmlns="http://www.w3.org/2000/svg">
<g clip-path="url(#clip0_1806_62774)">
<path fill-rule="evenodd" clip-rule="evenodd" d="M4 14.252C4.41421 14.252 4.75 14.5878 4.75 15.002V23.2558C4.75 23.67 4.41421 24.0058 4 24.0058C3.58579 24.0058 3.25 23.67 3.25 23.2558V15.002C3.25 14.5878 3.58579 14.252 4 14.252Z" fill="black"/>
<path fill-rule="evenodd" clip-rule="evenodd" d="M4 0.252C4.41421 0.252 4.75 0.587786 4.75 1.002V9.25579C4.75 9.67 4.41421 10.0058 4 10.0058C3.58579 10.0058 3.25 9.67 3.25 9.25579V1.002C3.25 0.587786 3.58579 0.252 4 0.252Z" fill="black"/>
<path fill-rule="evenodd" clip-rule="evenodd" d="M3.46967 13.4717C3.76256 13.1788 4.23744 13.1788 4.53033 13.4717L7.53033 16.4717C7.82322 16.7646 7.82322 17.2394 7.53033 17.5323C7.23744 17.8252 6.76256 17.8252 6.46967 17.5323L4 15.0627L1.53033 17.5323C1.23744 17.8252 0.762563 17.8252 0.46967 17.5323C0.176777 17.2394 0.176777 16.7646 0.46967 16.4717L3.46967 13.4717Z" fill="black"/>
<path fill-rule="evenodd" clip-rule="evenodd" d="M0.46967 6.47167C0.762563 6.17878 1.23744 6.17878 1.53033 6.47167L4 8.94134L6.46967 6.47167C6.76256 6.17878 7.23744 6.17878 7.53033 6.47167C7.82322 6.76456 7.82322 7.23944 7.53033 7.53233L4.53033 10.5323C4.23744 10.8252 3.76256 10.8252 3.46967 10.5323L0.46967 7.53233C0.176777 7.23944 0.176777 6.76456 0.46967 6.47167Z" fill="black"/>
<path fill-rule="evenodd" clip-rule="evenodd" d="M15 0.75C15 0.335786 15.3358 0 15.75 0H23.25C23.6642 0 24 0.335786 24 0.75C24 1.16421 23.6642 1.5 23.25 1.5H15.75C15.3358 1.5 15 1.16421 15 0.75Z" fill="black"/>
<path fill-rule="evenodd" clip-rule="evenodd" d="M10.5 5.25C10.5 4.83579 10.8358 4.5 11.25 4.5H23.25C23.6642 4.5 24 4.83579 24 5.25C24 5.66421 23.6642 6 23.25 6H11.25C10.8358 6 10.5 5.66421 10.5 5.25Z" fill="black"/>
<path fill-rule="evenodd" clip-rule="evenodd" d="M10.5 9.75C10.5 9.33579 10.8358 9 11.25 9H23.25C23.6642 9 24 9.33579 24 9.75C24 10.1642 23.6642 10.5 23.25 10.5H11.25C10.8358 10.5 10.5 10.1642 10.5 9.75Z" fill="black"/>
<path fill-rule="evenodd" clip-rule="evenodd" d="M15 14.25C15 13.8358 15.3358 13.5 15.75 13.5H23.25C23.6642 13.5 24 13.8358 24 14.25C24 14.6642 23.6642 15 23.25 15H15.75C15.3358 15 15 14.6642 15 14.25Z" fill="black"/>
<path fill-rule="evenodd" clip-rule="evenodd" d="M10.5 18.75C10.5 18.3358 10.8358 18 11.25 18H23.25C23.6642 18 24 18.3358 24 18.75C24 19.1642 23.6642 19.5 23.25 19.5H11.25C10.8358 19.5 10.5 19.1642 10.5 18.75Z" fill="black"/>
<path fill-rule="evenodd" clip-rule="evenodd" d="M10.5 23.25C10.5 22.8358 10.8358 22.5 11.25 22.5H23.25C23.6642 22.5 24 22.8358 24 23.25C24 23.6642 23.6642 24 23.25 24H11.25C10.8358 24 10.5 23.6642 10.5 23.25Z" fill="black"/>
</g>
<defs>
<clipPath id="clip0_1806_62774">
<rect width="24" height="24" fill="white"/>
</clipPath>
</defs>
</svg>
