<svg width="24" height="24" viewBox="0 0 24 24" fill="none" xmlns="http://www.w3.org/2000/svg">
<path d="M8.5 1.00002C9.06753 0.997253 9.58749 1.34844 9.842 1.90643L10.789 3.99643C10.8738 4.18252 11.0468 4.30002 11.236 4.30003H22.5C23.3284 4.30003 24 5.03876 24 5.95003V21.35C24 22.2613 23.3284 23 22.5 23H1.5C0.671573 23 0 22.2613 0 21.35V2.65003C0 1.73876 0.671573 1.00002 1.5 1.00002H8.5ZM10.7661 5.7143H6.75V19.8571H10.7661V17.1945L12.2432 15.7474L14.3188 19.8571H18.75L14.8594 13.2006L18.5376 9.61178H13.7009L10.7661 13.0076V5.7143Z" fill="white"/>
<path d="M8.5 1.00002C9.06753 0.997253 9.58749 1.34844 9.842 1.90643L10.789 3.99643C10.8738 4.18252 11.0468 4.30002 11.236 4.30003H22.5C23.3284 4.30003 24 5.03876 24 5.95003V21.35C24 22.2613 23.3284 23 22.5 23H1.5C0.671573 23 0 22.2613 0 21.35V2.65003C0 1.73876 0.671573 1.00002 1.5 1.00002H8.5ZM10.7661 5.7143H6.75V19.8571H10.7661V17.1945L12.2432 15.7474L14.3188 19.8571H18.75L14.8594 13.2006L18.5376 9.61178H13.7009L10.7661 13.0076V5.7143Z" fill="black"/>
</svg>
