<svg width="26" height="26" viewBox="0 0 26 26" fill="none" xmlns="http://www.w3.org/2000/svg">
<g clip-path="url(#clip0_3268_48578)">
<path d="M13.0024 26.0068C12.7088 26.0068 12.4184 25.9559 12.1378 25.8573C11.4054 25.5973 10.8366 25.0274 10.5755 24.2949L10.088 22.9243C9.95476 22.5494 9.68282 22.2482 9.32421 22.0781C9.12162 21.9817 8.9071 21.9329 8.68609 21.9329C8.51599 21.9329 8.34807 21.9621 8.18555 22.0196C8.13897 22.0369 8.0913 22.0553 8.0458 22.077L6.73271 22.7022C6.38168 22.8701 6.00899 22.9557 5.62438 22.9557C5.33403 22.9557 5.04584 22.9059 4.76849 22.8084C4.12061 22.5808 3.60058 22.1138 3.30264 21.4941C2.96354 20.7876 2.96354 19.9761 3.30264 19.2697L3.9256 17.9575C4.27879 17.2164 3.96244 16.3258 3.22139 15.9737C3.17588 15.952 3.12821 15.9325 3.08054 15.9152L1.70895 15.4276C1.06107 15.1979 0.542121 14.7298 0.247435 14.109C-0.0483353 13.4881 -0.0840877 12.7893 0.145594 12.1424C0.405612 11.4089 0.975484 10.839 1.71003 10.5779L3.08054 10.0903C3.45432 9.95701 3.75442 9.68613 3.9256 9.32641C4.09678 8.96561 4.11736 8.56147 3.98519 8.18766C3.96785 8.13999 3.94835 8.0934 3.92668 8.04789L3.30264 6.73469C2.69052 5.45725 3.23222 3.9176 4.51064 3.30434C4.86166 3.13532 5.23652 3.0508 5.62221 3.0508C6.00791 3.0508 6.38385 3.1364 6.73487 3.30434L8.04688 3.92735C8.24839 4.0227 8.46182 4.07146 8.68284 4.07146C9.25704 4.07146 9.78575 3.73774 10.0317 3.22091C10.0533 3.17649 10.0718 3.13098 10.088 3.08439L10.5755 1.71377C10.9396 0.689866 11.9146 0.00292969 13.0013 0.00292969C13.2949 0.00292969 13.5842 0.0527705 13.8626 0.152452C14.595 0.412491 15.1638 0.98241 15.4238 1.71377L15.9113 3.08439C16.0446 3.45928 16.3154 3.75941 16.674 3.9306C16.8766 4.02703 17.0912 4.07579 17.3122 4.07579C17.4812 4.07579 17.6491 4.04654 17.8116 3.98911C17.8604 3.97178 17.907 3.95227 17.9535 3.9306L19.2666 3.30434C19.6155 3.13748 19.9871 3.05297 20.3717 3.05297C21.3598 3.05297 22.272 3.62722 22.6967 4.51678C23.0336 5.22105 23.0336 6.02934 22.6967 6.73469L22.0705 8.04897C21.9004 8.40761 21.8787 8.81175 22.012 9.18664C22.1452 9.56153 22.4161 9.86166 22.7747 10.0329C22.8202 10.0545 22.8679 10.074 22.9156 10.0914L24.2861 10.5789C24.9339 10.8086 25.4529 11.2778 25.7487 11.8976C26.0444 12.5184 26.0802 13.2162 25.8505 13.8652C25.5905 14.5987 25.0195 15.1686 24.2861 15.4297L22.9156 15.9173C22.5407 16.0506 22.2406 16.3215 22.0694 16.6801C21.8993 17.0387 21.8776 17.4429 22.0109 17.8178C22.0282 17.8665 22.0477 17.9142 22.0694 17.9597L22.6945 19.2707C22.9903 19.8905 23.0282 20.5894 22.7985 21.2373C22.5699 21.8852 22.1019 22.4053 21.4811 22.7022C21.1301 22.8701 20.7574 22.9546 20.3717 22.9546C19.986 22.9546 19.6133 22.8701 19.2634 22.7022L17.9503 22.0792C17.7466 21.9827 17.5321 21.9329 17.3111 21.9329C17.1421 21.9329 16.9741 21.9621 16.8116 22.0196C16.4368 22.1528 16.1367 22.4237 15.9655 22.7824C15.9438 22.8279 15.9243 22.8755 15.907 22.9232L15.4195 24.2949C15.1887 24.9428 14.7196 25.4618 14.0988 25.7566C13.7553 25.9223 13.3848 26.0068 13.0024 26.0068ZM8.68717 20.8483C9.06961 20.8483 9.44122 20.9328 9.79008 21.0986C10.4109 21.3933 10.8789 21.9134 11.1097 22.5602L11.5972 23.9309C11.7478 24.3545 12.0772 24.6839 12.5008 24.8345C12.6633 24.893 12.8323 24.9223 13.0013 24.9223C13.2223 24.9223 13.4368 24.8735 13.6394 24.7771C13.9991 24.6059 14.271 24.3057 14.4043 23.9309L14.8918 22.5602C14.9211 22.4768 14.9558 22.3955 14.9926 22.3165C15.2884 21.6956 15.8073 21.2275 16.4541 20.9978C16.7336 20.8982 17.024 20.8483 17.3165 20.8483C17.6989 20.8483 18.0706 20.9328 18.4205 21.0986L19.7336 21.7227C19.9373 21.8202 20.1539 21.869 20.3771 21.869C20.6003 21.869 20.8159 21.8202 21.0196 21.7227C21.3782 21.5515 21.649 21.2503 21.7812 20.8754C21.9145 20.5005 21.8928 20.0964 21.7216 19.7366L21.0954 18.4245C21.0575 18.3444 21.0239 18.2631 20.9936 18.1797C20.7639 17.5328 20.8007 16.835 21.0954 16.2142C21.3912 15.5934 21.9091 15.1242 22.5559 14.8945L23.9264 14.4069C24.3511 14.2563 24.6815 13.9259 24.8321 13.5011C24.9654 13.1262 24.9448 12.7221 24.7736 12.3624C24.6024 12.0026 24.3012 11.7318 23.9275 11.5985L22.5569 11.1109C22.4746 11.0817 22.3923 11.0481 22.3132 11.0102C21.6924 10.7144 21.2244 10.1954 20.9947 9.54853C20.765 8.90168 20.8007 8.20283 21.0954 7.58199L21.7216 6.2677C21.9167 5.85923 21.9167 5.39116 21.7216 4.98376C21.4757 4.4691 20.947 4.13647 20.375 4.13647C20.1529 4.13647 19.9373 4.18522 19.7358 4.28166L18.4216 4.90792C18.3414 4.94584 18.2591 4.97943 18.1767 5.00977C17.8994 5.10836 17.6112 5.15821 17.3187 5.15821C16.2309 5.15821 15.2569 4.47018 14.8929 3.44628L14.4054 2.07566C14.2548 1.65201 13.9254 1.32263 13.5018 1.17202C13.3415 1.1146 13.1736 1.08643 13.0045 1.08643C12.3751 1.08643 11.8095 1.48407 11.5994 2.07674L11.1118 3.44736C11.0826 3.52863 11.0501 3.60772 11.0132 3.68573C10.7164 4.30658 10.1974 4.77573 9.54956 5.00652C9.26896 5.1062 8.97861 5.15604 8.685 5.15604C8.30256 5.15604 7.93204 5.07153 7.58318 4.90575L6.26901 4.28274C6.06316 4.18414 5.84648 4.1343 5.6233 4.1343C5.40012 4.1343 5.18343 4.18414 4.97975 4.28166C4.62115 4.45393 4.35138 4.75514 4.2192 5.13003C4.08703 5.50492 4.1087 5.90907 4.28096 6.2677L4.90608 7.58415C4.94292 7.66216 4.9765 7.74234 5.00576 7.82469C5.23652 8.47262 5.20077 9.17039 4.905 9.79123C4.60923 10.4121 4.09136 10.8801 3.44348 11.1109L2.07297 11.5985C1.64828 11.7491 1.31784 12.0796 1.16725 12.5043C1.03399 12.8792 1.05457 13.2833 1.22575 13.6431C1.39693 14.0028 1.69703 14.2737 2.07189 14.4069L3.44348 14.8945C3.52582 14.9238 3.60708 14.9573 3.68725 14.9953C4.96784 15.6053 5.51387 17.1428 4.905 18.4234L4.28096 19.7377C4.08378 20.1484 4.08378 20.6175 4.27987 21.0271C4.45214 21.3857 4.75332 21.6566 5.12818 21.7877C5.28853 21.844 5.45537 21.8733 5.6233 21.8733C5.8454 21.8733 6.06208 21.8235 6.26576 21.7259L7.57885 21.1008C7.65794 21.0628 7.73919 21.0293 7.82153 21C8.10322 20.8992 8.39357 20.8483 8.68717 20.8483Z" fill="#0098FF"/>
<path d="M13 18.4209C10.0131 18.4209 7.58301 15.9906 7.58301 13.0034C7.58301 10.0162 10.0131 7.58594 13 7.58594C15.987 7.58594 18.4171 10.0162 18.4171 13.0034C18.4171 15.9906 15.987 18.4209 13 18.4209ZM13 8.66943C10.61 8.66943 8.66641 10.6132 8.66641 13.0034C8.66641 15.3936 10.61 17.3374 13 17.3374C15.39 17.3374 17.3337 15.3936 17.3337 13.0034C17.3337 10.6132 15.39 8.66943 13 8.66943Z" fill="#0098FF"/>
</g>
<defs>
<clipPath id="clip0_3268_48578">
<rect width="26" height="26" fill="white"/>
</clipPath>
</defs>
</svg>
