<svg width="25" height="24" viewBox="0 0 25 24" fill="none" xmlns="http://www.w3.org/2000/svg">
<g clip-path="url(#clip0_9739_69399)">
<path d="M3.04724 5.25049C4.28988 5.25049 5.29724 4.24313 5.29724 3.00049C5.29724 1.75785 4.28988 0.750488 3.04724 0.750488C1.8046 0.750488 0.797241 1.75785 0.797241 3.00049C0.797241 4.24313 1.8046 5.25049 3.04724 5.25049Z" stroke="#9F9F9F" stroke-width="1.5" stroke-linecap="round" stroke-linejoin="round"/>
<path d="M3.04724 14.2505C4.28988 14.2505 5.29724 13.2431 5.29724 12.0005C5.29724 10.7578 4.28988 9.75049 3.04724 9.75049C1.8046 9.75049 0.797241 10.7578 0.797241 12.0005C0.797241 13.2431 1.8046 14.2505 3.04724 14.2505Z" stroke="#9F9F9F" stroke-width="1.5" stroke-linecap="round" stroke-linejoin="round"/>
<path d="M3.04724 23.2505C4.28988 23.2505 5.29724 22.2431 5.29724 21.0005C5.29724 19.7578 4.28988 18.7505 3.04724 18.7505C1.8046 18.7505 0.797241 19.7578 0.797241 21.0005C0.797241 22.2431 1.8046 23.2505 3.04724 23.2505Z" stroke="#9F9F9F" stroke-width="1.5" stroke-linecap="round" stroke-linejoin="round"/>
<path d="M8.29724 3.00049H23.2972" stroke="#9F9F9F" stroke-width="1.5" stroke-linecap="round" stroke-linejoin="round"/>
<path d="M8.29724 12.0024H23.2972" stroke="#9F9F9F" stroke-width="1.5" stroke-linecap="round" stroke-linejoin="round"/>
<path d="M8.29724 21.0005H23.2972" stroke="#9F9F9F" stroke-width="1.5" stroke-linecap="round" stroke-linejoin="round"/>
</g>
<defs>
<clipPath id="clip0_9739_69399">
<rect width="24" height="24" fill="white" transform="translate(0.0472412 0.00244141)"/>
</clipPath>
</defs>
</svg>
