<svg width="20" height="20" viewBox="0 0 20 20" fill="none" xmlns="http://www.w3.org/2000/svg">
<path fill-rule="evenodd" clip-rule="evenodd" d="M17.9167 2.5H15.6251C15.51 2.5 15.4167 2.40673 15.4167 2.29167V0.833333C15.4167 0.373096 15.0437 0 14.5834 0C14.1232 0 13.7501 0.373096 13.7501 0.833333V4.79167C13.7501 5.13684 13.4703 5.41667 13.1251 5.41667V5.41667C12.7799 5.41667 12.5001 5.13684 12.5001 4.79167V2.91667C12.5001 2.68655 12.3135 2.5 12.0834 2.5H6.87508C6.76035 2.5 6.66721 2.40723 6.66675 2.2925V0.833333C6.66675 0.373096 6.29365 0 5.83341 0C5.37318 0 5.00008 0.373096 5.00008 0.833333V4.79167C5.00008 5.13684 4.72026 5.41667 4.37508 5.41667V5.41667C4.0299 5.41667 3.75008 5.13684 3.75008 4.79167V2.91667C3.75008 2.68655 3.56353 2.5 3.33341 2.5H2.08341C1.16294 2.5 0.416748 3.24619 0.416748 4.16667V18.3333C0.416748 19.2538 1.16294 20 2.08341 20H17.9167C18.8372 20 19.5834 19.2538 19.5834 18.3333V4.16667C19.5834 3.24619 18.8372 2.5 17.9167 2.5ZM17.5001 18.3333H2.50008C2.26996 18.3333 2.08341 18.1468 2.08341 17.9167V7.91667C2.08341 7.68655 2.26996 7.5 2.50008 7.5H17.5001C17.7302 7.5 17.9167 7.68655 17.9167 7.91667V17.9167C17.9167 18.1468 17.7302 18.3333 17.5001 18.3333Z" fill="#36D0EB"/>
</svg>
