<svg width="24" height="24" viewBox="0 0 24 24" fill="none" xmlns="http://www.w3.org/2000/svg">
<path d="M12.5 19C12.434 19 12.37 18.987 12.309 18.961C12.247 18.936 12.192 18.899 12.146 18.852L8.147 14.853C8.052 14.759 8 14.634 8 14.5C8 14.366 8.052 14.241 8.146 14.146C8.24 14.051 8.366 14 8.5 14C8.634 14 8.759 14.052 8.854 14.146L12 17.293V1.5C12 1.224 12.224 1 12.5 1C12.776 1 13 1.224 13 1.5V17.293L16.146 14.147C16.24 14.053 16.366 14.001 16.5 14.001C16.634 14.001 16.759 14.053 16.854 14.147C16.949 14.241 17 14.366 17 14.5C17 14.634 16.948 14.759 16.854 14.854L12.854 18.854C12.809 18.9 12.753 18.937 12.691 18.963C12.63 18.987 12.566 19 12.5 19Z" fill="black"/>
<path d="M0.5 22.001C0.224 22.001 0 21.777 0 21.501C0 21.225 0.224 21.001 0.5 21.001H23.5C23.776 21.001 24 21.225 24 21.501C24 21.777 23.776 22.001 23.5 22.001H0.5Z" fill="black"/>
</svg>
