<svg width="16" height="16" viewBox="0 0 16 16" fill="none" xmlns="http://www.w3.org/2000/svg">
<path fill-rule="evenodd" clip-rule="evenodd" d="M0.997084 5.66408C1.63551 5.02565 2.50139 4.66699 3.40426 4.66699H4.42554C4.90224 4.66792 5.37402 4.76955 5.8087 4.96524C6.24339 5.16092 6.63182 5.44624 6.94855 5.80251C7.07347 5.94302 7.06083 6.15819 6.92032 6.28311C6.77981 6.40803 6.56464 6.3954 6.43972 6.25488C6.18671 5.9703 5.87644 5.74239 5.52921 5.58608C5.18209 5.42981 4.80587 5.34863 4.4252 5.34784H3.40426C2.68197 5.34784 1.98926 5.63477 1.47852 6.14551C0.967781 6.65625 0.680852 7.34896 0.680852 8.07125C0.680852 8.79354 0.967781 9.48625 1.47852 9.99699C1.98926 10.5077 2.68197 10.7947 3.40426 10.7947L4.42474 10.7947C4.42465 10.7947 4.42483 10.7947 4.42474 10.7947C4.80545 10.7937 5.18195 10.7125 5.52911 10.5562C5.87635 10.3999 6.18668 10.172 6.43981 9.88752C6.56478 9.74706 6.77996 9.7345 6.92042 9.85948C7.06089 9.98446 7.07344 10.1996 6.94846 10.3401C6.63164 10.6962 6.24321 10.9814 5.8086 11.177C5.37398 11.3727 4.90296 11.4744 4.42633 11.4755L3.40426 11.4755C2.50139 11.4755 1.63551 11.1168 0.997084 10.4784C0.358662 9.84 0 8.97412 0 8.07125C0 7.16839 0.358662 6.3025 0.997084 5.66408Z" fill="#666666"/>
<path fill-rule="evenodd" clip-rule="evenodd" d="M11.5745 4.66699L12.5957 4.66699C13.4986 4.66699 14.3645 5.02566 15.0029 5.66408C15.6413 6.3025 16 7.16839 16 8.07125C16 8.97412 15.6413 9.84 15.0029 10.4784C14.3645 11.1168 13.4986 11.4755 12.5957 11.4755L11.5737 11.4755C11.0971 11.4745 10.626 11.3728 10.1913 11.1771C9.7567 10.9815 9.36827 10.6962 9.05149 10.34C8.92654 10.1996 8.93914 9.98438 9.07963 9.85943C9.22011 9.73449 9.43529 9.74708 9.56024 9.88757C9.8133 10.1721 10.1236 10.4 10.4708 10.5563C10.818 10.7126 11.1942 10.7938 11.5749 10.7947C11.5748 10.7947 11.575 10.7947 11.5749 10.7947H12.5957C13.318 10.7947 14.0107 10.5077 14.5215 9.99699C15.0322 9.48625 15.3191 8.79354 15.3191 8.07125C15.3191 7.34896 15.0322 6.65625 14.5215 6.14551C14.0107 5.63477 13.318 5.34784 12.5957 5.34784H11.5748C11.1941 5.34859 10.8179 5.42975 10.4708 5.58602C10.1235 5.74233 9.81328 5.97026 9.56031 6.25486C9.4354 6.39538 9.22023 6.40804 9.0797 6.28314C8.93918 6.15823 8.92652 5.94306 9.05142 5.80253C9.36813 5.44623 9.75657 5.16087 10.1913 4.96518C10.626 4.76948 11.0977 4.66787 11.5745 4.66699Z" fill="#666666"/>
<path fill-rule="evenodd" clip-rule="evenodd" d="M4.08511 8.07059C4.08511 7.88257 4.23752 7.73016 4.42554 7.73016H11.5745C11.7625 7.73016 11.9149 7.88257 11.9149 8.07059C11.9149 8.2586 11.7625 8.41101 11.5745 8.41101H4.42554C4.23752 8.41101 4.08511 8.2586 4.08511 8.07059Z" fill="#666666"/>
</svg>
