<?xml version="1.0" encoding="UTF-8" standalone="no"?>
<!DOCTYPE svg PUBLIC "-//W3C//DTD SVG 1.1//EN" "http://www.w3.org/Graphics/SVG/1.1/DTD/svg11.dtd">
<!-- Created with Vectornator (http://vectornator.io/) -->
<svg height="100%" stroke-miterlimit="10" style="fill-rule:nonzero;clip-rule:evenodd;stroke-linecap:round;stroke-linejoin:round;" version="1.1" viewBox="0 0 24 24" width="100%" xml:space="preserve" xmlns="http://www.w3.org/2000/svg" xmlns:xlink="http://www.w3.org/1999/xlink">
<defs/>
<g id="Sans-titre">
<path d="M4.46604 1.28168C4.46604 0.573828 5.03986 0 5.74772 0L11.5533 0C14.9744 0 17.7475 2.77332 17.7475 6.1942C17.7475 7.9593 17.0092 9.55208 15.8245 10.6804C18.034 11.8805 19.534 14.2213 19.534 16.9125C19.534 20.8268 16.3609 24 12.4466 24L5.74772 24C5.03986 24 4.46604 23.4262 4.46604 22.7184L4.46604 1.28168ZM7.0294 12.3886L7.0294 21.4366L12.4466 21.4366C14.9452 21.4366 16.9706 19.4111 16.9706 16.9125C16.9706 14.4139 14.9452 12.3886 12.4466 12.3886L7.0294 12.3886ZM7.0294 9.82524L11.5533 9.82524C13.5586 9.82524 15.1841 8.1995 15.1841 6.1942C15.1841 4.18896 13.5587 2.56336 11.5533 2.56336L7.0294 2.56336L7.0294 9.82524Z" fill="#666666" fill-rule="evenodd" opacity="1" stroke="none"/>
</g>
</svg>
