<svg width="12" height="12" viewBox="0 0 12 12" fill="none" xmlns="http://www.w3.org/2000/svg">
<path fill-rule="evenodd" clip-rule="evenodd" d="M2.2334 0.64084C2.2334 0.286914 2.52031 0 2.87424 0H5.77703C7.4876 0 8.87413 1.38666 8.87413 3.0971C8.87413 3.97965 8.50498 4.77604 7.91264 5.34021C9.01739 5.94025 9.76736 7.11064 9.76736 8.45626C9.76736 10.4134 8.18084 12 6.22367 12H2.87424C2.52031 12 2.2334 11.7131 2.2334 11.3592V0.64084ZM3.51508 6.1943V10.7183H6.22367C7.47296 10.7183 8.48568 9.70557 8.48568 8.45626C8.48568 7.20697 7.47298 6.1943 6.22367 6.1943H3.51508ZM3.51508 4.91262H5.77703C6.77968 4.91262 7.59245 4.09975 7.59245 3.0971C7.59245 2.09448 6.77972 1.28168 5.77703 1.28168H3.51508V4.91262Z" fill="#666666"/>
</svg>
