<svg width="24" height="24" viewBox="0 0 24 24" fill="none" xmlns="http://www.w3.org/2000/svg">
<g clip-path="url(#clip0_17_5721)">
<path d="M0.545454 21C0.747272 21 0.931635 20.8864 1.02654 20.7019C3.50509 15.9094 7.59491 14.9036 10.5895 14.9036C11.9618 14.9036 13.0745 15.1163 13.6364 15.249V19.3125C13.6364 19.5296 13.7596 19.7287 13.9495 19.821C14.0215 19.8559 14.1022 19.875 14.1818 19.875C14.3084 19.875 14.4316 19.8289 14.5287 19.7456L23.8015 11.8706C23.928 11.7649 24 11.6063 24 11.4375C24 11.2688 23.928 11.1101 23.8015 11.0033L14.5287 3.12825C14.4316 3.04612 14.3084 3 14.1818 3C14.1022 3 14.0215 3.018 13.9495 3.054C13.7596 3.14625 13.6364 3.3465 13.6364 3.5625V7.45388C13.4116 7.4415 13.128 7.43138 12.7985 7.43138C10.6844 7.43138 6.68945 7.84088 3.69054 10.5848C1.24145 12.8246 0 16.14 0 20.4375C0 20.6963 0.170181 20.9201 0.413454 20.9831C0.454908 20.9944 0.499636 21 0.545454 21ZM10.6789 13.818C7.82945 13.818 3.96436 14.628 1.20545 18.3371C1.54145 15.3919 2.61818 13.071 4.41164 11.4285C7.13236 8.93775 10.8873 8.56537 12.8836 8.56537C13.6462 8.56537 14.1131 8.6205 14.1185 8.6205C14.1425 8.62275 14.1611 8.62388 14.1796 8.62388C14.316 8.62388 14.4447 8.57325 14.5451 8.48212C14.6607 8.37637 14.7273 8.22338 14.7273 8.0625V4.755L22.596 11.4375L14.7273 18.12V14.8125C14.7273 14.565 14.5658 14.3434 14.3356 14.2736C14.3225 14.2691 12.804 13.818 10.6789 13.818Z" fill="black"/>
</g>
<defs>
<clipPath id="clip0_17_5721">
<rect width="24" height="24" fill="white" transform="translate(-0.00268555)"/>
</clipPath>
</defs>
</svg>
