<svg width="24" height="24" viewBox="0 0 24 24" fill="none" xmlns="http://www.w3.org/2000/svg">
<path fill-rule="evenodd" clip-rule="evenodd" d="M18.9999 12.0279C19.0008 11.3661 18.7166 10.7361 18.2199 10.2989L7.06794 0.487849C6.29935 -0.157081 5.15647 -0.0704789 4.49383 0.6829C3.8312 1.43628 3.89118 2.58086 4.62894 3.26085L14.3809 11.8399C14.4351 11.8873 14.4662 11.9558 14.4662 12.0279C14.4662 12.0999 14.4351 12.1684 14.3809 12.2158L4.62894 20.7948C3.89118 21.4748 3.83119 22.6194 4.49383 23.3728C5.15647 24.1262 6.29935 24.2128 7.06794 23.5678L18.2159 13.7599C18.7138 13.3218 18.9993 12.691 18.9999 12.0279Z" fill="black"/>
</svg>
