<svg width="24" height="24" viewBox="0 0 24 24" fill="none" xmlns="http://www.w3.org/2000/svg">
<path fill-rule="evenodd" clip-rule="evenodd" d="M5.32504 0.409212C5.7894 -0.101632 6.57996 -0.139316 7.09081 0.325044L18.3591 10.568C18.3593 10.5681 18.3594 10.5682 18.3595 10.5683C18.3596 10.5684 18.3597 10.5685 18.3598 10.5686C18.5538 10.7448 18.7148 10.9606 18.8272 11.2071C18.94 11.4543 19 11.7241 19 12C19 12.2759 18.94 12.5457 18.8272 12.7929C18.7148 13.0394 18.5538 13.2552 18.3598 13.4314C18.3596 13.4316 18.3594 13.4318 18.3591 13.432L7.09081 23.675C6.57996 24.1393 5.7894 24.1017 5.32504 23.5908C4.86068 23.08 4.89837 22.2894 5.40921 21.825L16.2178 12L5.40921 2.17497C4.89837 1.71061 4.86068 0.920056 5.32504 0.409212Z" fill="black"/>
</svg>
