<svg width="12" height="12" viewBox="0 0 12 12" fill="none" xmlns="http://www.w3.org/2000/svg">
<g clip-path="url(#clip0_3533_1961)">
<path fill-rule="evenodd" clip-rule="evenodd" d="M3.21231 0.227136C3.50108 -0.0698232 3.97591 -0.0764616 4.27286 0.212308L9.41702 5.2146C9.41714 5.21473 9.41689 5.21448 9.41702 5.2146C9.52097 5.31565 9.605 5.43713 9.66249 5.57196C9.72007 5.707 9.74999 5.85252 9.74999 6C9.74999 6.14748 9.72007 6.293 9.66249 6.42804C9.605 6.56288 9.52135 6.68398 9.4174 6.78503C9.41727 6.78515 9.41753 6.7849 9.4174 6.78503L4.27286 11.7877C3.97591 12.0765 3.50108 12.0698 3.21231 11.7729C2.92354 11.4759 2.93018 11.0011 3.22714 10.7123L8.07308 6L3.22714 1.28769C2.93018 0.998922 2.92354 0.524095 3.21231 0.227136Z" fill="black"/>
</g>
<defs>
<clipPath id="clip0_3533_1961">
<rect width="12" height="12" fill="white"/>
</clipPath>
</defs>
</svg>
