<svg width="12" height="12" viewBox="0 0 12 12" fill="none" xmlns="http://www.w3.org/2000/svg">
<g clip-path="url(#clip0_30_3369)">
<path fill-rule="evenodd" clip-rule="evenodd" d="M1.74073 0.0060035C1.44753 0.0919306 1.35037 0.456174 1.56371 0.669519C1.59096 0.696772 1.64481 0.733981 1.68337 0.752209C1.74878 0.783133 1.76816 0.785657 1.97303 0.789953L2.19258 0.794567L2.19647 3.57532C2.20034 6.35213 2.20039 6.35633 2.22776 6.5218C2.37029 7.38323 2.71452 8.06941 3.29575 8.65064C3.88521 9.2401 4.6062 9.59693 5.46283 9.72318C5.67894 9.75502 6.22823 9.75502 6.44434 9.72318C7.48073 9.57045 8.34476 9.06507 8.95656 8.25377C9.34157 7.7432 9.56651 7.20423 9.67941 6.5218C9.70678 6.35633 9.70683 6.35213 9.71071 3.57532L9.7146 0.794567L9.93415 0.789953C10.139 0.785657 10.1584 0.783133 10.2238 0.752209C10.3725 0.681948 10.4561 0.551738 10.4561 0.390527C10.4561 0.198814 10.3316 0.0425617 10.1468 0.00237064C10.096 -0.00865546 9.8598 -0.011651 9.27416 -0.0086937L8.47111 -0.00462743L8.40611 0.0247925C8.32986 0.0593112 8.24948 0.137781 8.20776 0.218444C8.1863 0.25991 8.17682 0.302829 8.17353 0.373306C8.16957 0.457959 8.17357 0.481056 8.20385 0.548551C8.24399 0.637996 8.32263 0.717231 8.4115 0.757792C8.46327 0.781412 8.50002 0.785619 8.69099 0.789787L8.91088 0.79458V3.48157C8.91088 5.25621 8.90635 6.21338 8.89757 6.30057C8.82164 7.05348 8.43354 7.7812 7.84972 8.26538C7.40318 8.6357 6.84079 8.87462 6.26957 8.93664C6.11076 8.9539 5.79642 8.9539 5.6376 8.93664C4.76675 8.84207 3.97737 8.36208 3.48518 7.62783C3.23887 7.26037 3.05884 6.7609 3.00975 6.30879C3.00075 6.226 2.9963 5.29274 2.9963 3.48979V0.79458L3.21618 0.789787C3.40716 0.785619 3.44391 0.781412 3.49567 0.757792C3.58455 0.717231 3.66318 0.637996 3.70332 0.548551C3.73361 0.481056 3.73761 0.457959 3.73365 0.373306C3.73036 0.302829 3.72087 0.25991 3.69942 0.218444C3.6577 0.137781 3.57732 0.0593112 3.50107 0.0247925L3.43607 -0.00462743L2.61389 -0.00678165C2.01694 -0.00834953 1.77774 -0.00485688 1.74073 0.0060035ZM0.222619 11.2168C-0.0223391 11.3015 -0.122135 11.597 0.0212554 11.813C0.0666727 11.8814 0.124556 11.9285 0.211095 11.9673C0.259916 11.9893 0.504683 11.9902 5.95359 11.9902C11.4025 11.9902 11.6473 11.9893 11.6961 11.9673C11.7826 11.9285 11.8405 11.8814 11.8859 11.813C12.002 11.6382 11.962 11.4035 11.7942 11.2755C11.6772 11.1861 12.2053 11.1935 5.94808 11.194C0.576499 11.1944 0.284263 11.1955 0.222619 11.2168Z" fill="#666666"/>
</g>
<defs>
<clipPath id="clip0_30_3369">
<rect width="12" height="12" fill="white"/>
</clipPath>
</defs>
</svg>
