<?xml version="1.0" encoding="UTF-8" standalone="no"?>
<!DOCTYPE svg PUBLIC "-//W3C//DTD SVG 1.1//EN" "http://www.w3.org/Graphics/SVG/1.1/DTD/svg11.dtd">
<!-- Created with Vectornator (http://vectornator.io/) -->
<svg height="100%" stroke-miterlimit="10" style="fill-rule:nonzero;clip-rule:evenodd;stroke-linecap:round;stroke-linejoin:round;" version="1.1" viewBox="0 0 24 24" width="100%" xml:space="preserve" xmlns="http://www.w3.org/2000/svg" xmlns:xlink="http://www.w3.org/1999/xlink">
<defs/>
<g id="Sans-titre">
<g opacity="1">
<clipPath clip-rule="nonzero" id="ClipPath">
<path d="M0 0L24 0L24 0L24 24L24 24L0 24L0 24L0 0L0 0Z"/>
</clipPath>
<g clip-path="url(#ClipPath)">
<path d="M3.57419 0.0315726C2.98779 0.203427 2.79347 0.931914 3.22015 1.3586C3.27465 1.41311 3.38235 1.48753 3.45947 1.52398C3.59029 1.58583 3.62905 1.59088 4.03879 1.59947L4.47789 1.6087L4.48567 7.17021C4.49341 12.7238 4.49351 12.7322 4.54825 13.0632C4.83331 14.786 5.52177 16.1584 6.68423 17.3208C7.86315 18.4998 9.30513 19.2134 11.0184 19.4659C11.4506 19.5296 12.5492 19.5296 12.9814 19.4659C15.0542 19.1605 16.7822 18.1497 18.0058 16.5271C18.7759 15.506 19.2257 14.428 19.4515 13.0632C19.5063 12.7322 19.5064 12.7238 19.5141 7.17021L19.5219 1.6087L19.961 1.59947C20.3707 1.59088 20.4095 1.58583 20.5403 1.52398C20.8377 1.38346 21.0049 1.12304 21.0049 0.80062C21.0049 0.417194 20.7559 0.104689 20.3863 0.0243069C20.2847 0.00225471 19.8123-0.00373637 18.641 0.00217823L17.0349 0.0103108L16.9049 0.0691506C16.7524 0.138188 16.5917 0.295128 16.5082 0.456454C16.4653 0.539386 16.4464 0.625224 16.4398 0.766178C16.4319 0.935484 16.4399 0.981678 16.5004 1.11667C16.5807 1.29556 16.738 1.45403 16.9157 1.53515C17.0193 1.58239 17.0928 1.5908 17.4747 1.59914L17.9145 1.60873L17.9145 6.98271C17.9145 10.532 17.9054 12.4463 17.8879 12.6207C17.736 14.1265 16.9598 15.582 15.7922 16.5503C14.8991 17.291 13.7743 17.7688 12.6319 17.8928C12.3142 17.9274 11.6856 17.9274 11.3679 17.8928C9.62623 17.7037 8.04747 16.7437 7.06309 15.2752C6.57047 14.5403 6.21041 13.5414 6.11223 12.6371C6.09423 12.4716 6.08533 10.605 6.08533 6.99915L6.08533 1.60873L6.52509 1.59914C6.90705 1.5908 6.98055 1.58239 7.08407 1.53515C7.26183 1.45403 7.41909 1.29556 7.49937 1.11667C7.55995 0.981678 7.56795 0.935484 7.56003 0.766178C7.55345 0.625224 7.53447 0.539386 7.49157 0.456454C7.40813 0.295128 7.24737 0.138188 7.09487 0.0691506L6.96487 0.0103108L5.32051 0.00600233C4.12661 0.00286657 3.64821 0.00985187 3.57419 0.0315726ZM0.537963 22.4532C0.0480469 22.6226-0.151545 23.2136 0.135236 23.6456C0.226071 23.7824 0.341837 23.8766 0.514915 23.9542C0.612557 23.9982 1.10209 24 11.9999 24C22.8977 24 23.3873 23.9982 23.4849 23.9542C23.6579 23.8766 23.7737 23.7824 23.8645 23.6456C24.0967 23.296 24.0167 22.8266 23.6811 22.5706C23.4471 22.3918 24.5033 22.4066 11.9889 22.4076C1.24572 22.4084 0.661251 22.4106 0.537963 22.4532Z" fill="#666666" fill-rule="evenodd" opacity="1" stroke="none"/>
</g>
</g>
</g>
</svg>
