<svg width="24" height="25" viewBox="0 0 24 25" fill="none" xmlns="http://www.w3.org/2000/svg">
<path fill-rule="evenodd" clip-rule="evenodd" d="M3.06481 6.63712C3.06481 6.32943 3.26906 6.1243 3.57544 6.1243H14.8095C15.1159 6.1243 15.3201 6.32943 15.3201 6.63712C15.3201 6.94481 15.1159 7.14994 14.8095 7.14994H3.57544C3.26906 7.14994 3.06481 6.94481 3.06481 6.63712Z" fill="#BC0055"/>
<path fill-rule="evenodd" clip-rule="evenodd" d="M3.06481 11.7653C3.06481 11.4576 3.26906 11.2525 3.57544 11.2525H14.8095C15.1159 11.2525 15.3201 11.4576 15.3201 11.7653C15.3201 12.073 15.1159 12.2781 14.8095 12.2781H3.57544C3.26906 12.2781 3.06481 12.073 3.06481 11.7653Z" fill="#BC0055"/>
<path fill-rule="evenodd" clip-rule="evenodd" d="M3.06481 16.8935C3.06481 16.5858 3.26906 16.3807 3.57544 16.3807H9.7031C10.0095 16.3807 10.2137 16.5858 10.2137 16.8935C10.2137 17.2012 10.0095 17.4064 9.7031 17.4064H3.57544C3.26906 17.4064 3.06481 17.2012 3.06481 16.8935Z" fill="#BC0055"/>
<path fill-rule="evenodd" clip-rule="evenodd" d="M1.43076 2.02173C1.32864 2.02173 1.22651 2.02173 1.12438 2.1243C1.02225 2.22686 1.02225 2.32943 1.02225 2.43199V21.2012C1.02225 21.3038 1.02225 21.4064 1.12438 21.5089C1.22651 21.5089 1.32864 21.5089 1.43076 21.5089H7.86481C8.17119 21.5089 8.37544 21.714 8.37544 22.0217C8.37544 22.3294 8.06906 22.5346 7.86481 22.5346H1.43076C1.02225 22.5346 0.71587 22.432 0.409487 22.1243C0.205232 21.8166 0.000976562 21.5089 0.000976562 21.0987V2.43199C0.000976562 2.02173 0.205232 1.71404 0.409487 1.40635C0.71587 1.09866 1.02225 0.996094 1.43076 0.996094H13.584C13.9925 0.996094 14.2988 1.09866 14.6052 1.40635M14.6052 1.40635L17.9754 4.6884C18.2818 4.99609 18.384 5.30379 18.384 5.71404V8.6884C18.384 8.89353 18.1797 9.20122 17.8733 9.20122C17.5669 9.20122 17.3627 8.89353 17.3627 8.6884V5.71404C17.3627 5.61148 17.3627 5.50891 17.2606 5.40635L13.8903 2.1243C13.7882 2.02173 13.6861 2.02173 13.584 2.02173H1.43076" fill="#BC0055"/>
<path fill-rule="evenodd" clip-rule="evenodd" d="M11.8478 21.0987C11.7457 20.9961 11.6435 20.9961 11.6435 20.9961C11.5414 20.9961 11.4393 21.0987 11.4393 21.2012L10.8265 24.3807C10.8265 24.4833 10.8265 24.6884 10.9286 24.791C11.0308 24.8935 11.1329 24.9961 11.3371 24.9961H11.4393L14.6052 24.3807C14.7074 24.3807 14.8095 24.2781 14.8095 24.1756C14.8095 24.073 14.8095 23.9705 14.7074 23.9705L11.8478 21.0987Z" fill="#BC0055"/>
<path fill-rule="evenodd" clip-rule="evenodd" d="M23.184 12.5858C22.1627 11.5602 20.4265 11.5602 19.4052 12.5858L12.7669 19.2525C12.5627 19.4576 12.5627 19.7653 12.7669 19.9705L15.8308 23.0474C16.035 23.2525 16.3414 23.2525 16.5457 23.0474L23.184 16.3807C23.6946 15.8679 24.001 15.1499 24.001 14.432C24.001 13.714 23.6946 13.0987 23.184 12.5858Z" fill="#BC0055"/>
</svg>
