<svg width="16" height="16" viewBox="0 0 16 16" fill="none" xmlns="http://www.w3.org/2000/svg">
<path fill-rule="evenodd" clip-rule="evenodd" d="M7.6432 0.00962233C6.64009 0.113472 5.78358 0.526881 5.09991 1.23722C4.80494 1.54368 4.58168 1.863 4.39503 2.24531C4.25462 2.53292 4.17594 2.74311 4.10798 3.01213C3.9976 3.44899 3.99922 3.42547 3.98878 4.75314L3.97922 5.9688L3.59667 5.97899C3.28546 5.98729 3.19005 5.99574 3.08502 6.02437C2.4759 6.19039 2.0772 6.68196 1.99926 7.36299C1.97478 7.57682 1.9749 14.4279 1.99938 14.6665C2.04061 15.0682 2.21852 15.4105 2.5088 15.6465C2.65582 15.7661 2.92034 15.8972 3.12911 15.9539L3.29913 16.0001H8.01725H12.7354L12.8884 15.9613C13.509 15.804 13.9232 15.3031 14.0022 14.6144C14.0249 14.4164 14.0243 7.53757 14.0015 7.32048C13.9627 6.94971 13.8443 6.68955 13.6025 6.44344C13.3884 6.22561 13.1921 6.11434 12.8629 6.02428C12.7616 5.99659 12.6619 5.98729 12.3783 5.97911L12.0213 5.9688L12.0117 4.75314C12.0035 3.70368 11.9982 3.5155 11.9728 3.37669C11.8176 2.52612 11.4662 1.82485 10.9006 1.23722C10.2642 0.575967 9.46625 0.166842 8.55359 0.0338165C8.34213 0.00299145 7.83689 -0.0104403 7.6432 0.00962233ZM7.75372 1.07362C7.72566 1.07762 7.6415 1.08899 7.56669 1.09892C6.73734 1.20889 5.93955 1.73462 5.48674 2.46954C5.31643 2.74594 5.17691 3.09821 5.11091 3.41847C5.05415 3.69384 5.04026 4.03655 5.04548 5.03368L5.05036 5.9688H8.00025H10.9501L10.955 5.03368C10.9616 3.78126 10.9396 3.50108 10.8033 3.09543C10.6544 2.65272 10.4401 2.29976 10.1181 1.96719C9.66887 1.50323 9.11546 1.21212 8.47631 1.10356C8.33392 1.07939 7.85316 1.05946 7.75372 1.07362ZM3.42665 7.04812C3.25926 7.0696 3.16352 7.14368 3.09992 7.30098L3.0611 7.39699V11.0185V14.6399L3.0992 14.7112C3.14876 14.804 3.23075 14.865 3.35963 14.9051C3.46086 14.9366 3.58744 14.9375 8.01973 14.9375C11.4366 14.9375 12.5955 14.9325 12.6546 14.9176C12.7539 14.8926 12.8584 14.791 12.9054 14.6738C12.939 14.59 12.9395 14.5439 12.9439 11.0185C12.947 8.53959 12.9429 7.4212 12.9303 7.36037C12.8958 7.19358 12.7698 7.09061 12.5507 7.05026C12.4377 7.02944 3.58844 7.02736 3.42665 7.04812ZM7.80304 9.49789C7.70399 9.53599 7.5745 9.65487 7.5189 9.75875L7.48168 9.82831V10.9845V12.1406L7.52352 12.2225C7.6169 12.4053 7.79262 12.512 8.00025 12.512C8.20788 12.512 8.3836 12.4053 8.47698 12.2225L8.51882 12.1406V10.9845V9.82831L8.4816 9.75875C8.42412 9.65133 8.29679 9.53603 8.19261 9.49704C8.07494 9.45302 7.91879 9.45336 7.80304 9.49789Z" fill="#2196F3"/>
</svg>
