<svg width="24" height="24" viewBox="0 0 24 24" fill="none" xmlns="http://www.w3.org/2000/svg">
<path fill-rule="evenodd" clip-rule="evenodd" d="M11.3999 0.747312C8.965 0.997224 6.952 2.89922 6.54033 5.33897C6.4732 5.73672 6.45726 6.20659 6.45656 7.806L6.45592 9.336H5.92965C5.34976 9.336 5.12056 9.35918 4.8489 9.44537C4.24158 9.63802 3.77745 10.1894 3.63784 10.884C3.60294 11.0576 3.59989 11.5895 3.60606 16.428C3.61372 22.4468 3.59421 21.8528 3.79799 22.272C3.88031 22.4413 3.93613 22.5147 4.12655 22.704C4.31999 22.8963 4.39163 22.9497 4.58392 23.045C4.70932 23.1071 4.89832 23.1827 5.00392 23.213L5.19592 23.268L11.9279 23.2753C16.9056 23.2806 18.7068 23.2754 18.8399 23.255C19.0705 23.2197 19.3899 23.1002 19.5651 22.9836C19.7683 22.8485 20.035 22.5515 20.1523 22.3298C20.2076 22.2254 20.2832 22.0428 20.3203 21.924L20.3879 21.708V16.284V10.86L20.3317 10.68C20.1886 10.2218 19.8937 9.84557 19.5073 9.62806C19.0997 9.39864 18.7886 9.336 18.0568 9.336H17.5439L17.5433 7.806C17.5426 6.20659 17.5266 5.73672 17.4595 5.33897C17.2047 3.8286 16.3413 2.49881 15.0561 1.63709C14.3234 1.14581 13.4471 0.833088 12.5554 0.744648C12.2659 0.715944 11.6927 0.717264 11.3999 0.747312ZM11.3923 1.76506C10.0612 1.9464 8.86609 2.72309 8.15576 3.86837C7.77976 4.47463 7.55207 5.16595 7.48931 5.892C7.47532 6.05378 7.4643 6.87154 7.46416 7.758L7.46392 9.336H11.9999H16.5359V7.77948C16.5359 6.91663 16.5248 6.08506 16.511 5.91348C16.4219 4.80866 15.9658 3.82164 15.1857 3.04536C14.4701 2.33323 13.5799 1.89454 12.5861 1.76426C12.2536 1.72068 11.7154 1.72102 11.3923 1.76506ZM5.26792 10.3776C4.92208 10.4628 4.71258 10.6894 4.63324 11.064C4.61233 11.1627 4.60713 12.511 4.6126 16.416L4.61992 21.636L4.68932 21.7863C4.8014 22.029 5.00771 22.1776 5.32792 22.2463C5.42805 22.2678 7.06535 22.2729 12.1079 22.2673L18.7559 22.26L18.889 22.1976C18.9622 22.1632 19.0621 22.1 19.1109 22.0572C19.2132 21.9674 19.3266 21.7434 19.3668 21.552C19.3874 21.4539 19.3927 20.0801 19.3872 16.2L19.3799 10.98L19.3173 10.848C19.1996 10.5999 19.0312 10.4747 18.7021 10.3905C18.5242 10.345 18.3757 10.344 11.9541 10.346C6.8415 10.3476 5.36135 10.3546 5.26792 10.3776ZM11.7959 14.4158C11.6808 14.4763 11.5715 14.5931 11.5314 14.6984C11.499 14.7835 11.4951 14.9954 11.5011 16.356L11.5079 17.916L11.578 18.0194C11.6796 18.1692 11.8212 18.2448 11.9999 18.2448C12.1787 18.2448 12.3202 18.1692 12.4218 18.0194L12.4919 17.916L12.4992 16.368C12.5043 15.2926 12.4985 14.7924 12.4802 14.7296C12.4455 14.611 12.3242 14.4753 12.2041 14.4208C12.0863 14.3672 11.8928 14.3649 11.7959 14.4158Z" fill="black"/>
</svg>
