<svg width="113" height="80" viewBox="0 0 113 80" fill="none" xmlns="http://www.w3.org/2000/svg">
<rect x="0.718871" y="32.1562" width="72.4275" height="47.211" rx="7.34369" fill="#FAFAFA" stroke="#9F9F9F" stroke-width="0.312498"/>
<path d="M40.3157 53.4628L66.8571 79.3672L7.00797 79.3672L33.5493 53.4628C35.431 51.6263 38.4341 51.6263 40.3157 53.4628Z" fill="#FAFAFA" stroke="#9F9F9F" stroke-width="0.312498"/>
<path d="M33.5495 58.0606L7.00818 32.1562H66.8573L40.3159 58.0606C38.4343 59.8971 35.4312 59.8971 33.5495 58.0606Z" fill="#F1F1F1" stroke="#9F9F9F" stroke-width="0.312498"/>
<path d="M78.1312 45.2748L83.2854 37.2305L111.343 55.333C112.45 56.0471 112.77 57.5264 112.059 58.6371L109.481 62.6593C108.77 63.77 107.296 64.0915 106.189 63.3773L78.1312 45.2748Z" fill="#BC0055"/>
<path fill-rule="evenodd" clip-rule="evenodd" d="M83.4643 38.0558L78.9544 45.0946L106.511 62.8738C107.341 63.4094 108.447 63.1683 108.98 62.3353L111.558 58.3131C112.091 57.4801 111.851 56.3706 111.021 55.835L83.4643 38.0558ZM78.1312 45.2741L106.189 63.3766C107.296 64.0907 108.77 63.7692 109.481 62.6586L112.059 58.6364C112.77 57.5257 112.45 56.0464 111.343 55.3322L83.2854 37.2297L78.1312 45.2741Z" fill="#BC0055"/>
<path fill-rule="evenodd" clip-rule="evenodd" d="M86.7206 45.1319C95.4382 31.5258 91.5137 13.4043 77.9549 4.65629C64.3961 -4.09173 46.3375 -0.153534 37.6199 13.4525C28.9022 27.0585 32.8267 45.1801 46.3855 53.9281C59.9443 62.6761 78.0029 58.7379 86.7206 45.1319ZM80.7082 41.253C87.291 30.9791 84.3275 17.2955 74.0893 10.6898C63.851 4.08416 50.2149 7.05791 43.6322 17.3318C37.0495 27.6058 40.0129 41.2894 50.2512 47.8951C60.4894 54.5007 74.1255 51.527 80.7082 41.253Z" fill="#BC0055"/>
<path fill-rule="evenodd" clip-rule="evenodd" d="M86.2194 44.8086C94.7592 31.4803 90.9147 13.7285 77.6327 5.15906C64.3506 -3.41043 46.6605 0.447399 38.1208 13.7758C29.581 27.1041 33.4255 44.8558 46.7075 53.4253C59.9896 61.9948 77.6797 58.137 86.2194 44.8086ZM74.4113 10.187C84.9263 16.9712 87.9698 31.0246 81.2091 41.5763C74.4485 52.1279 60.4439 55.182 49.9289 48.3978C39.4139 41.6136 36.3704 27.5602 43.131 17.0086C49.8916 6.45697 63.8963 3.40286 74.4113 10.187ZM77.9548 4.65629C91.5136 13.4043 95.4381 31.5258 86.7205 45.1319C78.0028 58.7379 59.9442 62.6761 46.3854 53.9281C32.8266 45.1801 28.9021 27.0585 37.6197 13.4525C46.3374 -0.153534 64.396 -4.09173 77.9548 4.65629ZM74.0891 10.6898C84.3274 17.2955 87.2908 30.9791 80.7081 41.253C74.1254 51.527 60.4893 54.5007 50.251 47.8951C40.0128 41.2894 37.0493 27.6058 43.632 17.3318C50.2148 7.05791 63.8509 4.08416 74.0891 10.6898Z" fill="#BC0055"/>
</svg>
