<svg width="112" height="80" viewBox="0 0 112 80" fill="none" xmlns="http://www.w3.org/2000/svg">
<path d="M67.7346 32.4875H5.00793C2.40971 32.4875 0.303436 34.6012 0.303436 37.2084V74.9755C0.303436 77.5828 2.40971 79.6964 5.00793 79.6964H67.7346C70.3328 79.6964 72.4391 77.5828 72.4391 74.9755V37.2084C72.4391 34.6012 70.3328 32.4875 67.7346 32.4875Z" fill="#333333"/>
<path fill-rule="evenodd" clip-rule="evenodd" d="M5.00801 32.791C2.57742 32.791 0.607032 34.7683 0.607032 37.2073V74.9744C0.607032 77.4135 2.57742 79.3908 5.00801 79.3908H67.7347C70.1653 79.3908 72.1356 77.4135 72.1356 74.9744V37.2073C72.1356 34.7683 70.1653 32.791 67.7347 32.791H5.00801ZM0 37.2073C0 34.4319 2.24216 32.1819 5.00801 32.1819H67.7347C70.5005 32.1819 72.7427 34.4319 72.7427 37.2073V74.9744C72.7427 77.7499 70.5005 79.9999 67.7347 79.9999H5.00801C2.24216 79.9999 0 77.7499 0 74.9744V37.2073Z" fill="#666666"/>
<path d="M71.1243 34.1121L36.3717 62.3866L1.61911 34.1121" fill="#333333"/>
<path fill-rule="evenodd" clip-rule="evenodd" d="M1.38338 33.9201C1.48895 33.7895 1.68008 33.7694 1.81029 33.8754L36.3717 61.9944L70.9332 33.8754C71.0634 33.7694 71.2545 33.7895 71.3601 33.9201C71.4656 34.0508 71.4457 34.2426 71.3155 34.3485L36.5629 62.6231C36.4514 62.7138 36.292 62.7138 36.1806 62.6231L1.42799 34.3485C1.29778 34.2426 1.27781 34.0508 1.38338 33.9201Z" fill="#666666"/>
<path fill-rule="evenodd" clip-rule="evenodd" d="M29.0212 56.1045C29.1257 56.236 29.1041 56.4277 28.973 56.5325L1.80831 78.2587C1.67723 78.3636 1.48627 78.3419 1.38179 78.2104C1.27731 78.0789 1.29888 77.8872 1.42997 77.7824L28.5947 56.0562C28.7257 55.9513 28.9167 55.973 29.0212 56.1045Z" fill="#666666"/>
<path fill-rule="evenodd" clip-rule="evenodd" d="M43.7226 56.1045C43.8271 55.973 44.018 55.9513 44.1491 56.0562L71.3138 77.7824C71.4449 77.8872 71.4665 78.0789 71.362 78.2104C71.2575 78.3419 71.0666 78.3636 70.9355 78.2587L43.7708 56.5325C43.6397 56.4277 43.6181 56.236 43.7226 56.1045Z" fill="#666666"/>
<path d="M77.6939 45.2748L82.8481 37.2305L110.906 55.333C112.013 56.0471 112.333 57.5264 111.621 58.6371L109.044 62.6593C108.332 63.77 106.858 64.0915 105.751 63.3773L77.6939 45.2748Z" fill="#EF8BA4"/>
<path fill-rule="evenodd" clip-rule="evenodd" d="M83.027 38.0558L78.5171 45.0946L106.074 62.8738C106.904 63.4094 108.009 63.1683 108.543 62.3353L111.12 58.3131C111.654 57.4801 111.414 56.3706 110.584 55.835L83.027 38.0558ZM77.6939 45.2741L105.751 63.3766C106.858 64.0907 108.332 63.7692 109.044 62.6586L111.621 58.6364C112.333 57.5257 112.012 56.0464 110.906 55.3322L82.8481 37.2297L77.6939 45.2741Z" fill="#EF8BA4"/>
<path fill-rule="evenodd" clip-rule="evenodd" d="M86.2832 45.1319C95.0008 31.5258 91.0763 13.4043 77.5175 4.65629C63.9587 -4.09173 45.9001 -0.153534 37.1824 13.4525C28.4648 27.0585 32.3893 45.1801 45.9481 53.9281C59.5069 62.6761 77.5655 58.7379 86.2832 45.1319ZM80.2708 41.253C86.8535 30.9791 83.8901 17.2955 73.6519 10.6898C63.4136 4.08416 49.7775 7.05791 43.1948 17.3318C36.612 27.6058 39.5755 41.2894 49.8137 47.895C60.052 54.5007 73.6881 51.527 80.2708 41.253Z" fill="#EF8BA4"/>
<path fill-rule="evenodd" clip-rule="evenodd" d="M85.7821 44.8086C94.3218 31.4803 90.4774 13.7285 77.1953 5.15906C63.9132 -3.41043 46.2231 0.447399 37.6834 13.7758C29.1437 27.1041 32.9881 44.8558 46.2702 53.4253C59.5523 61.9948 77.2424 58.137 85.7821 44.8086ZM73.9739 10.187C84.4889 16.9712 87.5324 31.0246 80.7718 41.5763C74.0112 52.1279 60.0065 55.182 49.4915 48.3978C38.9766 41.6136 35.933 27.5602 42.6937 17.0086C49.4543 6.45697 63.4589 3.40286 73.9739 10.187ZM77.5174 4.65629C91.0762 13.4043 95.0008 31.5258 86.2831 45.1319C77.5655 58.7379 59.5069 62.6761 45.9481 53.9281C32.3893 45.1801 28.4647 27.0585 37.1824 13.4525C45.9 -0.153534 63.9587 -4.09173 77.5174 4.65629ZM73.6518 10.6898C83.8901 17.2955 86.8535 30.9791 80.2708 41.253C73.6881 51.527 60.052 54.5007 49.8137 47.895C39.5754 41.2894 36.612 27.6058 43.1947 17.3318C49.7774 7.05791 63.4135 4.08416 73.6518 10.6898Z" fill="#EF8BA4"/>
</svg>
