<svg width="113" height="80" viewBox="0 0 113 80" fill="none" xmlns="http://www.w3.org/2000/svg">
<rect x="0.75" y="30.6404" width="75.1757" height="49.1096" rx="5.75001" fill="#FAFAFA" stroke="#9F9F9F" stroke-width="0.5"/>
<path d="M40.9617 52.04L69.2568 79.75L7.4189 79.75L35.714 52.04C37.1719 50.6123 39.5038 50.6123 40.9617 52.04Z" fill="#FAFAFA" stroke="#9F9F9F" stroke-width="0.5"/>
<path d="M35.7141 58.3504L7.41898 30.6404H69.2569L40.9617 58.3504C39.5039 59.7781 37.172 59.7781 35.7141 58.3504Z" fill="#F1F1F1" stroke="#9F9F9F" stroke-width="0.5"/>
<path d="M80.147 42.9846L85.0077 35.3472L111.468 52.5339C112.512 53.2119 112.814 54.6164 112.143 55.6709L109.712 59.4897C109.041 60.5442 107.651 60.8494 106.607 60.1714L80.147 42.9846Z" fill="#BC0055"/>
<path fill-rule="evenodd" clip-rule="evenodd" d="M85.1764 36.1309L80.9233 42.8137L106.911 59.6936C107.694 60.2021 108.737 59.9731 109.24 59.1823L111.67 55.3635C112.174 54.5726 111.947 53.5193 111.164 53.0108L85.1764 36.1309ZM80.147 42.9841L106.607 60.1709C107.651 60.8489 109.041 60.5437 109.712 59.4892L112.143 55.6704C112.814 54.6159 112.512 53.2115 111.468 52.5335L85.0077 35.3467L80.147 42.9841Z" fill="#BC0055"/>
<path fill-rule="evenodd" clip-rule="evenodd" d="M88.2472 42.8488C96.4685 29.9311 92.7674 12.7262 79.9805 4.42074C67.1936 -3.88475 50.163 -0.145768 41.9416 12.772C33.7203 25.6898 37.4214 42.8946 50.2083 51.2001C62.9952 59.5056 80.0258 55.7666 88.2472 42.8488ZM82.5771 39.1662C88.785 29.412 85.9903 16.4206 76.3349 10.1491C66.6795 3.87756 53.8196 6.70088 47.6117 16.4551C41.4037 26.2093 44.1984 39.2007 53.8539 45.4722C63.5093 51.7437 76.3691 48.9204 82.5771 39.1662Z" fill="#BC0055"/>
<path fill-rule="evenodd" clip-rule="evenodd" d="M87.7746 42.5419C95.8282 29.8878 92.2026 13.0341 79.6767 4.89808C67.1507 -3.23791 50.4677 0.424768 42.4141 13.0789C34.3606 25.733 37.9861 42.5868 50.5121 50.7227C63.038 58.8587 79.7211 55.1961 87.7746 42.5419ZM76.6387 9.67172C86.5551 16.1127 89.4253 29.4552 83.0496 39.4731C76.6738 49.491 63.4664 52.3906 53.5501 45.9496C43.6337 39.5086 40.7634 26.1661 47.1392 16.1482C53.5149 6.13034 66.7223 3.23072 76.6387 9.67172ZM79.9805 4.42074C92.7674 12.7262 96.4685 29.9311 88.2472 42.8488C80.0258 55.7666 62.9952 59.5056 50.2083 51.2001C37.4214 42.8946 33.7203 25.6898 41.9416 12.772C50.163 -0.145767 67.1936 -3.88475 79.9805 4.42074ZM76.3349 10.1491C85.9903 16.4206 88.785 29.412 82.5771 39.1662C76.3691 48.9204 63.5093 51.7437 53.8539 45.4722C44.1984 39.2007 41.4037 26.2093 47.6117 16.4551C53.8197 6.70088 66.6795 3.87756 76.3349 10.1491Z" fill="#BC0055"/>
</svg>
