<svg width="16" height="16" viewBox="0 0 16 16" fill="none" xmlns="http://www.w3.org/2000/svg">
<path fill-rule="evenodd" clip-rule="evenodd" d="M10.4492 2.08717L8 0L5.55083 2.08717L2.34315 2.34315L2.08717 5.55083L0 8L2.08717 10.4492L2.34315 13.6569L5.55083 13.9128L8 16L10.4492 13.9128L13.6569 13.6569L13.9128 10.4492L16 8L13.9128 5.55083L13.6569 2.34315L10.4492 2.08717ZM7.90944 10.5803L11.2257 6.0215C11.3378 5.88094 11.3646 5.68933 11.2954 5.52276C11.2262 5.35619 11.0723 5.24161 10.8947 5.2245C10.7171 5.20739 10.5446 5.29054 10.4457 5.44091L7.42884 9.58846L5.4541 7.98804C5.24513 7.81863 4.94016 7.85291 4.77293 8.0646C4.6057 8.27629 4.63953 8.58523 4.84851 8.75463L7.21664 10.6726C7.32016 10.7546 7.45186 10.791 7.58214 10.7736C7.71242 10.7563 7.83035 10.6866 7.90944 10.5803Z" fill="#0098FF"/>
</svg>
