<svg width="25" height="24" viewBox="0 0 25 24" fill="none" xmlns="http://www.w3.org/2000/svg">
<path fill-rule="evenodd" clip-rule="evenodd" d="M21.9452 1.68153C21.9794 1.78323 21.9973 1.89069 21.9973 2V9.5C21.9973 9.77614 22.2212 10 22.4973 10C22.7735 10 22.9973 9.77614 22.9973 9.5V2C22.9973 1.46957 22.7866 0.960859 22.4115 0.585786C22.0365 0.210714 21.5277 0 20.9973 0H2.99731C2.46688 0 1.95817 0.210714 1.5831 0.585786C1.20803 0.960859 0.997314 1.46957 0.997314 2V13C0.997314 13.5304 1.20803 14.0391 1.5831 14.4142C1.95817 14.7893 2.46688 15 2.99731 15H10.4973C10.7735 15 10.9973 14.7761 10.9973 14.5C10.9973 14.2239 10.7735 14 10.4973 14H2.99731C2.7321 14 2.47774 13.8946 2.29021 13.7071C2.10267 13.5196 1.99731 13.2652 1.99731 13V2C1.99731 1.89069 2.01521 1.78323 2.04938 1.68152L11.685 9.39037C11.8676 9.53647 12.1271 9.53647 12.3097 9.39037L21.9452 1.68153ZM2.81841 1.01613L11.9973 8.35962L21.1762 1.01613C21.1176 1.00547 21.0577 1 20.9973 1H2.99731C2.9369 1 2.87704 1.00547 2.81841 1.01613Z" fill="black"/>
<path fill-rule="evenodd" clip-rule="evenodd" d="M23.1113 12.9217C24.2771 14.0965 24.9973 15.7142 24.9973 17.5C24.9973 21.0899 22.0872 24 18.4973 24C14.9075 24 11.9973 21.0899 11.9973 17.5C11.9973 13.9101 14.9075 11 18.4973 11C20.2832 11 21.9008 11.7202 23.0756 12.886C23.0818 12.8916 23.0879 12.8974 23.0939 12.9034C23.0999 12.9094 23.1057 12.9155 23.1113 12.9217ZM12.9973 17.5C12.9973 14.4624 15.4597 12 18.4973 12C19.8361 12 21.0631 12.4783 22.0169 13.2734L14.2707 21.0195C13.4756 20.0658 12.9973 18.8388 12.9973 17.5ZM14.9778 21.7266C15.9315 22.5217 17.1586 23 18.4973 23C21.5349 23 23.9973 20.5376 23.9973 17.5C23.9973 16.1613 23.519 14.9342 22.724 13.9805L14.9778 21.7266Z" fill="black"/>
</svg>
