<svg width="181" height="32" viewBox="0 0 181 32" fill="none" xmlns="http://www.w3.org/2000/svg">
<g clip-path="url(#clip0_13651_1336)">
<circle cx="16.5" cy="16" r="16" fill="white"/>
<path d="M20.8055 19.3383C20.7214 19.4064 20.6878 19.4915 20.6373 19.5765C20.2167 20.2401 19.8129 20.9037 19.3924 21.5503C18.6521 22.6904 17.5922 23.2689 16.2464 23.2349C15.1192 23.2008 14.1939 22.7244 13.5209 21.8056C12.7807 20.8017 12.0573 19.7637 11.3339 18.7258C11.1825 18.5216 11.0311 18.3004 10.8796 18.0962C10.8292 18.0792 10.7955 18.0452 10.7619 18.0111C10.5263 17.6538 10.2908 17.2965 9.98799 17.0072C9.43282 16.4797 8.7767 16.1565 8.00282 16.0714C6.97658 15.9523 6.06811 16.2245 5.2774 16.8881C5.15964 16.9732 5.07552 17.0923 4.97458 17.1944C4.92411 17.2284 4.89046 17.2965 4.82316 17.2795C4.80634 17.2625 4.80634 17.2625 4.82316 17.2454C5.36152 16.3777 5.9167 15.5269 6.45505 14.6591C7.29623 13.3319 8.12058 12.0047 8.97858 10.6945C10.4086 8.49953 13.5209 8.49953 14.9846 10.6775C15.7753 11.8686 16.6165 13.0256 17.4408 14.1997C17.4913 14.2167 17.5249 14.2677 17.5586 14.3188C17.8109 14.6421 18.0128 14.9994 18.3156 15.2717C18.9213 15.8332 19.6447 16.1735 20.4691 16.2415C21.142 16.2926 21.7645 16.1735 22.3533 15.8672C22.7402 15.68 23.0767 15.4078 23.3627 15.0845C23.4132 15.0164 23.4637 14.9484 23.5478 14.9143H23.5814C23.6151 14.9824 23.5814 15.0164 23.5478 15.0675C23.1272 15.7311 22.7234 16.3777 22.3028 17.0242C21.8486 17.7389 21.3944 18.4705 20.9401 19.1852C20.8897 19.2533 20.8728 19.3213 20.8055 19.3383Z" fill="#2D529F"/>
<path d="M4.82631 17.2964C5.11231 17.0072 5.41513 16.7179 5.76843 16.5137C6.18902 16.2755 6.64325 16.1053 7.13113 16.0543C8.09008 15.9522 8.94808 16.1734 9.72196 16.7519C10.1762 17.0922 10.4958 17.5516 10.7987 18.0281C10.8323 18.0791 10.8323 18.1302 10.8491 18.1812C11.2866 19.2532 11.2697 20.3081 10.7314 21.3291C10.1425 22.4521 9.20043 23.0816 7.93867 23.2348C6.08808 23.456 4.27113 22.1118 4.00196 20.0869C3.90101 19.2021 4.1029 18.3684 4.57396 17.6197C4.62443 17.5346 4.69172 17.4496 4.74219 17.3645C4.77584 17.3475 4.79266 17.3134 4.82631 17.2964Z" fill="#27BDBE"/>
<path d="M23.5478 14.9312C23.1273 15.4417 22.6226 15.816 22.0169 16.0542C20.5028 16.6328 18.7868 16.1053 17.8447 14.7781C17.7437 14.6249 17.626 14.4718 17.525 14.3187C17.5082 14.2676 17.4745 14.2166 17.4745 14.1655C17.2558 13.6551 17.1549 13.1106 17.1717 12.5491C17.2054 10.8305 18.5513 9.31615 20.2336 9.07793C21.7646 8.87375 23.1777 9.58839 23.9348 10.9496C23.9516 10.9666 23.9684 11.0007 23.9853 11.0177C24.0357 11.1028 24.0694 11.1878 24.1198 11.2729C24.1703 11.375 24.1871 11.4771 24.2376 11.5792C24.2544 11.6473 24.2713 11.7153 24.2881 11.7664C24.3049 11.8174 24.3049 11.8514 24.3217 11.9025C24.3386 11.9535 24.3386 11.9876 24.3554 12.0386C24.3554 12.0556 24.3554 12.0726 24.3722 12.0726C24.3722 12.1407 24.3722 12.1917 24.4058 12.2598V12.9234C24.4058 12.9574 24.4058 12.9915 24.389 13.0085C24.3554 13.0765 24.3722 13.1446 24.3554 13.2127C24.3554 13.2297 24.3554 13.2467 24.3386 13.2467C24.3217 13.2977 24.3217 13.3658 24.3049 13.4339C24.2544 13.621 24.2208 13.8082 24.1367 13.9954C24.103 14.0634 24.0862 14.1485 24.0357 14.2166C24.0021 14.2676 23.9684 14.3187 23.9516 14.3697C23.9011 14.4718 23.8507 14.5569 23.7834 14.642C23.7497 14.676 23.7329 14.693 23.6993 14.7441C23.6824 14.7781 23.6656 14.7951 23.6488 14.8291C23.6151 14.8972 23.5815 14.9142 23.5478 14.9312Z" fill="#F18233"/>
<path d="M25.9042 14.0295C26.6949 15.2375 27.5025 16.4627 28.2763 17.6707C29.6727 19.8317 28.3605 22.8094 25.8369 23.2007C24.2892 23.439 23.0947 22.8434 22.2199 21.5502C22.0684 21.312 21.917 21.0738 21.7656 20.8526C21.7656 20.7846 21.7993 20.7165 21.8329 20.6654C22.1526 20.172 22.4554 19.6786 22.775 19.1851C23.0947 18.7087 23.3807 18.2152 23.7003 17.7218C23.9695 17.3134 24.2219 16.905 24.4742 16.4967C24.6256 16.2414 24.7939 15.9692 24.9621 15.714C25.2145 15.3056 25.4163 14.8802 25.5509 14.4208C25.6014 14.2677 25.6519 14.1145 25.6687 13.9614C25.6855 13.8933 25.6855 13.8083 25.7865 13.8423C25.7865 13.8593 25.8033 13.8593 25.8033 13.8763C25.8201 13.9614 25.8706 13.9954 25.9042 14.0295Z" fill="#93C64A"/>
<path d="M25.8017 13.8592C25.7345 13.8592 25.7176 13.9102 25.7176 13.9613C25.6503 14.3356 25.5157 14.6929 25.3643 15.0503C25.1961 15.4416 24.9606 15.7989 24.7419 16.1733C24.4727 16.6157 24.2035 17.0581 23.9343 17.4835C23.7493 17.7727 23.5474 18.028 23.3792 18.3172C23.2614 18.5044 23.1436 18.6916 23.0427 18.8617C22.7735 19.3041 22.4875 19.7295 22.2183 20.1549C22.0837 20.3761 21.9323 20.5973 21.8146 20.8355C21.7977 20.8015 21.7641 20.7674 21.7473 20.7334C21.6968 20.6483 21.7136 20.5973 21.7641 20.5122C21.966 20.2229 22.1174 19.9167 22.3024 19.6444C22.3024 19.6274 22.3193 19.6274 22.3193 19.6104C22.4539 19.4572 22.538 19.2531 22.6557 19.0829C22.8072 18.8617 22.9586 18.6405 23.0932 18.4193C23.1941 18.2662 23.2782 18.096 23.3792 17.9429C23.3792 17.9259 23.396 17.9259 23.396 17.9088C23.4801 17.8238 23.5474 17.7217 23.5979 17.6026C23.7156 17.3814 23.8839 17.1772 24.0016 16.956C24.0184 16.9049 24.0521 16.8709 24.0689 16.8199C24.2035 16.5476 24.3549 16.3094 24.5232 16.0542C24.9942 15.3055 25.398 14.5568 25.5326 13.655C25.5494 13.5869 25.5494 13.5189 25.6503 13.5529C25.684 13.672 25.7513 13.7741 25.8017 13.8592Z" fill="#91C248"/>
<path d="M25.0129 12.6682C25.0802 12.7192 25.1139 12.8043 25.1475 12.8724C25.1139 13.1106 25.1475 13.3318 25.1139 13.57C25.0297 14.0634 24.8952 14.5229 24.6596 14.9653C24.2054 15.833 23.6334 16.6498 23.1287 17.4835C22.5735 18.3854 22.0015 19.2531 21.4463 20.155C21.4295 20.189 21.4295 20.223 21.379 20.223C21.3454 20.172 21.3286 20.1379 21.2949 20.0869C21.2949 20.0188 21.3117 19.9678 21.3454 19.9167C21.6146 19.5254 21.8669 19.1 22.1193 18.6916C22.6576 17.8068 23.2296 16.939 23.768 16.0713C24.0203 15.6629 24.2895 15.2715 24.4914 14.8291C24.6428 14.4888 24.7774 14.1485 24.8615 13.7742C24.8952 13.621 24.8952 13.4509 24.9456 13.2978C24.9793 13.1786 24.9288 13.0425 24.9288 12.9234C24.9288 12.8213 24.912 12.7192 25.0129 12.6682Z" fill="#82AF41"/>
<path d="M21.1915 19.9335C21.1579 19.8995 21.1411 19.8655 21.1074 19.8144C21.1579 19.6273 21.2925 19.4741 21.3934 19.304C21.8645 18.5553 22.3355 17.8236 22.8066 17.092C23.1767 16.5134 23.5468 15.9349 23.9001 15.3564C24.1525 14.965 24.3544 14.5397 24.489 14.0802C24.5899 13.757 24.674 13.4166 24.6404 13.0593C24.6235 12.8892 24.674 12.719 24.6404 12.5489C24.6235 12.4808 24.6235 12.4127 24.6067 12.3447C24.5899 12.2596 24.5562 12.1575 24.6572 12.0894C24.7413 12.1915 24.8086 12.3106 24.8759 12.4298C24.8086 12.4978 24.8591 12.5659 24.8759 12.6339V12.668C24.8759 12.8722 24.8591 13.0763 24.8759 13.2635V13.2975L24.8254 13.4507C24.8086 13.808 24.6908 14.1313 24.5562 14.4716C24.3544 14.965 24.0852 15.4074 23.7992 15.8498C23.4291 16.4454 23.0421 17.0409 22.672 17.6365L21.9654 18.7595C21.7299 19.1338 21.4775 19.5252 21.2252 19.8995C21.2252 19.9506 21.2084 19.9506 21.1915 19.9335Z" fill="#78A33C"/>
<path d="M21.3594 20.223C21.4603 19.9847 21.6117 19.7806 21.7631 19.5594C22.3183 18.6916 22.8567 17.8238 23.4118 16.939C23.782 16.3605 24.1521 15.7819 24.5054 15.1864C24.7409 14.761 24.926 14.3186 25.0269 13.8422C25.0942 13.5699 25.111 13.2807 25.111 13.0084C25.111 12.9574 25.111 12.9063 25.1615 12.8723C25.2288 12.9234 25.2456 13.0255 25.2961 13.0935C25.2456 13.604 25.1615 14.1144 24.9764 14.5909C24.8923 14.7951 24.7914 14.9992 24.6904 15.2034C24.4549 15.6628 24.1689 16.0882 23.8997 16.5136C23.5969 16.99 23.2941 17.4835 22.9913 17.9599L21.7295 19.9507C21.6454 20.0868 21.5613 20.223 21.494 20.3761C21.4267 20.3251 21.393 20.274 21.3594 20.223Z" fill="#87B543"/>
<path d="M24.1718 11.5963L24.0709 11.29C24.0541 11.256 24.0541 11.239 24.1045 11.222C24.2391 11.4091 24.3569 11.5963 24.4578 11.7835C24.4915 11.9196 24.5251 12.0387 24.542 12.1748C24.6093 12.5321 24.6261 12.8724 24.6092 13.2468C24.5924 13.7913 24.4074 14.2847 24.1718 14.7612C23.9868 15.0844 23.8017 15.3907 23.6167 15.697C23.6167 15.714 23.5998 15.714 23.5998 15.731C23.5662 15.7821 23.5157 15.8331 23.4989 15.8842C23.4989 15.9012 23.4821 15.9012 23.4821 15.9182C23.3643 16.0884 23.2634 16.2585 23.1624 16.4287C22.9269 16.752 22.725 17.0923 22.5231 17.4156C22.3549 17.6708 22.1867 17.926 22.0352 18.1983C22.0184 18.2153 22.0184 18.2493 22.0016 18.2663C21.7829 18.5386 21.6147 18.8448 21.4296 19.1341C21.4296 19.1511 21.4128 19.1511 21.4128 19.1681C21.3118 19.3213 21.2109 19.4574 21.1268 19.6105C21.11 19.6446 21.11 19.6956 21.0595 19.6956C21.0258 19.6616 21.009 19.6276 20.9922 19.5935C21.0763 19.3893 21.2109 19.2192 21.3287 19.032C21.7156 18.4365 22.0857 17.8409 22.4727 17.2284C22.8091 16.6839 23.1624 16.1564 23.4821 15.5949C23.5157 15.5268 23.5998 15.4758 23.6167 15.3907C23.8185 15.0504 24.0204 14.6931 24.1887 14.3188C24.3569 13.9274 24.4578 13.519 24.4578 13.0766C24.4578 12.7193 24.441 12.362 24.3569 12.0047C24.3401 11.9196 24.2896 11.8345 24.2728 11.7494C24.2728 11.7324 24.256 11.7324 24.2391 11.7154C24.2223 11.7154 24.2055 11.6473 24.1718 11.5963Z" fill="#6F9837"/>
<path d="M25.4336 13.3316C25.4672 13.3827 25.5009 13.4167 25.5345 13.4678C25.484 13.5358 25.484 13.6209 25.4672 13.706C25.3831 14.2675 25.1812 14.7779 24.9289 15.2714C24.6092 15.8499 24.2559 16.3944 23.9026 16.9559C23.4988 17.5855 23.0951 18.215 22.7081 18.8446C22.3717 19.3721 22.0184 19.8996 21.6987 20.427C21.6651 20.4781 21.6819 20.5462 21.5978 20.5632C21.5641 20.5291 21.5305 20.4951 21.5137 20.4441C21.5305 20.325 21.6146 20.2229 21.6819 20.1038C22.0688 19.4742 22.4726 18.8786 22.8596 18.2491C23.1792 17.7216 23.5157 17.2111 23.8521 16.6837C23.9867 16.4965 24.0877 16.2923 24.2223 16.0881C24.4073 15.7989 24.5924 15.5096 24.7438 15.2033C25.0298 14.6588 25.2485 14.0973 25.3158 13.4678C25.3494 13.4337 25.3158 13.3486 25.4336 13.3316Z" fill="#8EBE47"/>
<path d="M23.732 14.6761C23.7825 14.591 23.8329 14.4889 23.9002 14.4038C23.9507 14.3698 23.9675 14.3017 23.9843 14.2507C24.0012 14.1826 24.0348 14.0976 24.0685 14.0465C24.1694 14.0976 24.1021 14.1826 24.0853 14.2507C24.0012 14.4889 23.9002 14.7101 23.7656 14.9313C23.3282 15.663 22.874 16.3776 22.4197 17.1093C21.9319 17.875 21.444 18.6407 20.9729 19.4064C20.9561 19.4404 20.9561 19.5084 20.8888 19.4914C20.8552 19.4574 20.8383 19.4064 20.8047 19.3723C21.1412 18.8278 21.4776 18.3004 21.8141 17.7559C22.3861 16.837 22.9749 15.9182 23.5469 14.9994C23.5637 14.9824 23.5637 14.9653 23.5637 14.9483C23.5637 14.9143 23.5974 14.8973 23.6142 14.8632C23.631 14.8462 23.6647 14.8122 23.6647 14.7782C23.6983 14.7271 23.732 14.7101 23.732 14.6761Z" fill="#628931"/>
<path d="M25.4332 13.3317C25.3828 13.3658 25.366 13.4338 25.366 13.4849C25.3155 14.0294 25.1472 14.5398 24.8949 15.0163C24.7603 15.3055 24.5921 15.5778 24.4407 15.833C24.3397 16.0031 24.2388 16.1733 24.121 16.3435C23.9696 16.5817 23.835 16.8029 23.6836 17.0411C23.4312 17.4324 23.1789 17.8068 22.9434 18.1981C22.6574 18.6575 22.3714 19.117 22.0685 19.5764C21.8835 19.8656 21.6984 20.1719 21.5134 20.4612C21.4965 20.4271 21.4797 20.4101 21.4629 20.3761C21.4797 20.3251 21.4797 20.274 21.5134 20.223C21.9003 19.6274 22.2704 19.0489 22.6405 18.4534C23.078 17.7727 23.5154 17.0751 23.9528 16.3945C24.2051 16.0031 24.4575 15.6118 24.6762 15.1864C24.8781 14.778 25.08 14.3697 25.1641 13.9103C25.1977 13.6891 25.2482 13.4849 25.2818 13.2637C25.2987 13.1446 25.3491 13.1956 25.3996 13.2296C25.4332 13.2637 25.4332 13.2977 25.4332 13.3317Z" fill="#8BB945"/>
<path d="M21.6152 20.5805C21.6657 20.4273 21.7498 20.3082 21.8339 20.1721C22.4396 19.2192 23.0452 18.2834 23.6509 17.3305C24.0378 16.718 24.4416 16.0884 24.7949 15.4588C25.1314 14.8803 25.3837 14.2678 25.451 13.5872C25.451 13.5191 25.4846 13.4851 25.5351 13.468C25.5688 13.5021 25.6024 13.5361 25.6192 13.5872C25.5856 13.6042 25.5351 13.5872 25.5351 13.6552C25.4846 14.1316 25.3332 14.557 25.1314 14.9824C24.8622 15.595 24.4752 16.1395 24.1388 16.701C24.1051 16.752 24.0883 16.786 24.0715 16.8371C23.8359 17.1944 23.6004 17.5688 23.3817 17.9261C23.163 18.2153 23.0116 18.5386 22.8097 18.8279C22.6246 19.0831 22.4732 19.3724 22.305 19.6276C22.0863 19.9169 21.9349 20.2402 21.733 20.5294C21.7162 20.5635 21.6994 20.6145 21.6489 20.5975C21.6321 20.6145 21.6152 20.5975 21.6152 20.5805Z" fill="#8FBF47"/>
<path d="M22.0003 18.2834C22.0003 18.2664 22.0003 18.2323 22.0339 18.2323C22.3872 17.6538 22.7573 17.1093 23.1106 16.5308C23.1274 16.5138 23.1443 16.4798 23.1611 16.4627C23.2789 16.2756 23.3966 16.0884 23.4976 15.9012C23.5312 15.8502 23.5649 15.7821 23.6153 15.7311C23.8004 15.4248 24.0023 15.1015 24.1705 14.7782C24.2378 14.54 24.3724 14.3188 24.4397 14.0806C24.4902 13.8594 24.5743 13.6552 24.5911 13.434C24.6079 13.1618 24.6079 12.8895 24.5911 12.6002C24.5743 12.379 24.5238 12.1578 24.4733 11.9366C24.4565 11.8856 24.4565 11.8346 24.4733 11.7835C24.5574 11.8686 24.6079 11.9707 24.6752 12.0728C24.6416 12.1749 24.6416 12.2599 24.6752 12.362C24.7089 12.4811 24.7257 12.6343 24.7257 12.7534C24.7089 12.9065 24.7089 13.0426 24.7257 13.1958C24.7425 13.2979 24.7257 13.417 24.692 13.5191C24.6247 13.7403 24.6079 13.9785 24.507 14.1997C24.3892 14.489 24.2546 14.7612 24.12 15.0505C23.8845 15.5099 23.5817 15.9182 23.3125 16.3606L22.1517 18.1983C21.9161 18.5726 21.6638 18.93 21.4283 19.3043C21.3273 19.4745 21.2432 19.6446 21.1254 19.7978C21.1086 19.7807 21.1086 19.7637 21.0918 19.7467C21.1591 19.5255 21.3105 19.3554 21.4283 19.1512C21.6133 18.8959 21.7984 18.5726 22.0003 18.2834Z" fill="#739D39"/>
<path d="M24.8448 12.6683V12.6343C24.8616 12.5832 24.8112 12.4982 24.9289 12.5152C24.9626 12.5662 24.9794 12.6173 25.0131 12.6513C24.9794 12.7364 24.9458 12.8215 24.9626 12.9236C24.9962 13.1448 24.9626 13.366 24.9289 13.5701C24.8785 13.8254 24.828 14.0636 24.7439 14.3018C24.6261 14.6251 24.4747 14.9314 24.3065 15.2376C24.1887 15.4588 24.0541 15.663 23.9364 15.8672L23.2802 16.8881C23.0615 17.2114 22.8765 17.5347 22.6578 17.858C22.3886 18.2664 22.1362 18.6748 21.8839 19.0831C21.682 19.4064 21.4633 19.7127 21.2951 20.036C21.2614 20.002 21.2278 19.9509 21.2109 19.8999H21.2446C21.4128 19.6957 21.5306 19.4745 21.6652 19.2533C21.8839 18.93 22.0858 18.5897 22.2876 18.2494C22.5232 17.892 22.7419 17.5177 22.9774 17.1604C23.1961 16.8371 23.398 16.5138 23.5999 16.1735C23.9195 15.68 24.2392 15.1866 24.4915 14.6421C24.6934 14.2167 24.828 13.7743 24.8616 13.2979V13.2639C24.8616 13.0937 24.8616 12.8725 24.8448 12.6683Z" fill="#7DA93F"/>
<path d="M20.8906 19.4744L22.1524 17.4836C22.6066 16.769 23.0609 16.0544 23.5151 15.3227C23.7338 14.9824 23.9189 14.6251 24.0703 14.2507C24.0871 14.1827 24.1544 14.1146 24.0871 14.0465C24.1544 13.8594 24.2217 13.6552 24.2553 13.451C24.3226 13.417 24.2722 13.3319 24.3058 13.2808C24.3395 13.2298 24.3058 13.1617 24.3226 13.1107C24.3563 13.0596 24.3395 13.0086 24.3395 12.9576V12.4131C24.4236 12.379 24.4067 12.4471 24.4067 12.4981C24.4067 12.6853 24.4404 12.8895 24.4404 13.0767C24.4404 13.5191 24.3395 13.9274 24.188 14.3358C24.1712 14.3868 24.1544 14.4209 24.1207 14.4549C24.0871 14.4889 24.0535 14.523 24.0366 14.574C24.0366 14.591 24.0198 14.591 24.0198 14.608C23.9357 14.7442 23.8347 14.8803 23.7843 15.0334C23.7843 15.0504 23.7675 15.0504 23.7675 15.0675C23.7338 15.1015 23.717 15.1525 23.7002 15.2036C23.6665 15.2546 23.6497 15.3057 23.616 15.3397C23.5824 15.3908 23.5319 15.4418 23.5151 15.5099C23.4815 15.5609 23.4646 15.612 23.431 15.663C23.3469 15.7651 23.2796 15.8842 23.2123 16.0033C23.0272 16.3096 22.8253 16.6159 22.6235 16.9392C22.4047 17.2965 22.186 17.6198 21.9673 17.9771C21.7654 18.3004 21.5636 18.6067 21.3617 18.93C21.3449 18.947 21.328 18.981 21.328 18.998C21.1934 19.1682 21.0757 19.3553 20.9747 19.5595C20.9747 19.5765 20.9579 19.5765 20.9411 19.5765C20.9074 19.5255 20.8906 19.5085 20.8906 19.4744Z" fill="#678E34"/>
<path d="M25.401 13.2466C25.3506 13.2806 25.3506 13.2126 25.3337 13.2126C25.3001 13.4338 25.2496 13.655 25.1992 13.8762C25.1487 14.0974 25.115 14.3186 25.0141 14.5398C24.8795 14.829 24.7617 15.1183 24.5935 15.4076C24.3243 15.901 24.0047 16.3774 23.7019 16.8539C23.4663 17.2452 23.214 17.6366 22.9616 18.0109C22.7261 18.3682 22.5074 18.7426 22.2719 19.0999C22.0195 19.4912 21.7671 19.8996 21.5148 20.291C21.498 20.325 21.4811 20.342 21.4643 20.376C21.4643 20.376 21.4475 20.376 21.4475 20.359C21.4307 20.2399 21.5148 20.1548 21.5653 20.0528C21.8344 19.6104 22.1204 19.185 22.4064 18.7426C22.7597 18.1811 23.113 17.6025 23.4663 17.058C23.7187 16.6667 23.971 16.2583 24.2402 15.85C24.4253 15.5607 24.5935 15.2544 24.7449 14.9481C24.9132 14.6078 25.0309 14.2505 25.115 13.8762C25.1655 13.672 25.216 13.4508 25.216 13.2296C25.216 13.1785 25.216 13.1105 25.2664 13.0764C25.3506 13.1275 25.3842 13.1956 25.401 13.2466Z" fill="#8AB945"/>
<path d="M21.3111 18.964C21.3111 18.947 21.3111 18.9129 21.3447 18.9129C21.513 18.6747 21.6644 18.4195 21.8158 18.1813C22.2027 17.5687 22.5897 16.9562 22.9766 16.3606C23.0776 16.2075 23.1617 16.0373 23.2963 15.8842C23.3804 15.7991 23.4308 15.697 23.4813 15.5949C23.515 15.5439 23.5486 15.4588 23.6496 15.4758C23.6664 15.5949 23.5486 15.629 23.515 15.697C23.3299 16.0373 23.1112 16.3606 22.8925 16.7009C22.7074 16.9902 22.5224 17.2965 22.3373 17.5857C22.0345 18.0451 21.7653 18.5216 21.4625 18.964C21.3111 19.1852 21.2101 19.4404 21.0251 19.6446C20.9914 19.6276 20.9746 19.5935 20.9746 19.5595C21.0587 19.3383 21.1933 19.1682 21.3111 18.964Z" fill="#6B9436"/>
<path d="M21.6484 20.6313C21.7998 20.4611 21.884 20.2569 22.0186 20.0698C22.1195 19.9337 22.1868 19.7805 22.3214 19.6614C22.3046 19.7805 22.2036 19.8486 22.1531 19.9507C22.0186 20.1719 21.9008 20.3931 21.7662 20.5973C21.7326 20.6653 21.7494 20.7164 21.7326 20.7674C21.6821 20.7164 21.6653 20.6823 21.6484 20.6313Z" fill="#91C248"/>
<path d="M21.4099 19.1852C21.3763 19.3383 21.2585 19.4404 21.1912 19.5765C21.1576 19.6446 21.1071 19.7126 21.0735 19.7637C21.0735 19.7467 21.0566 19.7467 21.0566 19.7296C21.1576 19.5425 21.2585 19.3383 21.4099 19.1852Z" fill="#729C39"/>
<path d="M24.9287 12.5319C24.8614 12.5319 24.8951 12.617 24.8446 12.651C24.811 12.617 24.811 12.583 24.7941 12.5489C24.7605 12.4809 24.7941 12.4469 24.8783 12.4639C24.9119 12.4639 24.9287 12.4979 24.9287 12.5319Z" fill="#7DA93F"/>
<path d="M24.1045 11.2389C24.0877 11.256 24.0877 11.273 24.0709 11.307C24.0204 11.2219 23.9699 11.1369 23.9531 11.0348C24.0204 11.0858 24.0709 11.1539 24.1045 11.2389Z" fill="#7E8B64"/>
<path d="M25.9054 14.0293C25.8381 13.9952 25.7876 13.9782 25.8213 13.8931C25.8549 13.9442 25.8886 13.9952 25.9054 14.0293Z" fill="#91C248"/>
<path d="M4.82435 17.2964C4.82435 17.3474 4.79071 17.3644 4.74023 17.3814C4.75706 17.3304 4.77388 17.2964 4.82435 17.2623V17.2964Z" fill="#547DB4"/>
<path d="M23.631 14.8463C23.631 14.8804 23.6142 14.9144 23.5805 14.9314H23.5469C23.5637 14.8974 23.5805 14.8804 23.5973 14.8463C23.6142 14.8293 23.631 14.8293 23.631 14.8463Z" fill="#485D8C"/>
<path d="M23.6335 15.4586C23.5157 15.5267 23.4652 15.6458 23.3979 15.7479C23.3643 15.7989 23.3475 15.85 23.297 15.867C23.2634 15.7479 23.3811 15.6968 23.4148 15.6118C23.4484 15.5607 23.4484 15.5097 23.4989 15.4756C23.5494 15.4246 23.583 15.3735 23.6166 15.3055C23.6166 15.2374 23.6671 15.2034 23.7008 15.1694C23.7344 15.1353 23.7512 15.0673 23.7849 15.0332C23.8522 14.8631 23.9531 14.727 24.0372 14.5568C24.0709 14.5228 24.0709 14.4717 24.0877 14.4377C24.2223 14.2335 24.2728 14.0123 24.3232 13.7911C24.4074 13.5019 24.4242 13.1786 24.4074 12.8723C24.3905 12.7021 24.4074 12.532 24.3569 12.3618C24.3232 12.3448 24.3569 12.2938 24.3232 12.2767V12.2597C24.2896 12.1917 24.3401 12.1236 24.2896 12.0555C24.2559 12.0215 24.2896 11.9705 24.2728 11.9194C24.2391 11.8684 24.2391 11.8003 24.2559 11.7493C24.4074 12.0385 24.4578 12.3448 24.4746 12.6511C24.4915 12.9233 24.4915 13.2126 24.4578 13.4848C24.4242 13.7571 24.3401 14.0293 24.2391 14.2675C24.0877 14.7099 23.8858 15.1013 23.6335 15.4586Z" fill="#6A9335"/>
<path d="M24.3203 12.2939C24.354 12.3109 24.354 12.345 24.354 12.379V12.9575C24.354 12.9745 24.3371 12.9745 24.3203 12.9575V12.2939Z" fill="#77716B"/>
<path d="M24.3234 13.1106C24.3066 13.1616 24.3403 13.2297 24.2898 13.2807C24.2898 13.1957 24.273 13.1276 24.3234 13.0595C24.3403 13.0766 24.3403 13.0936 24.3234 13.1106Z" fill="#65785D"/>
<path d="M24.1719 11.5963C24.2223 11.6303 24.2392 11.6983 24.2392 11.7664C24.256 11.7834 24.256 11.7834 24.2392 11.8004C24.2055 11.7494 24.1887 11.6643 24.1719 11.5963Z" fill="#6B736C"/>
<path d="M24.2868 13.2805C24.27 13.3316 24.3373 13.4166 24.2363 13.4507C24.27 13.3996 24.2532 13.3316 24.2868 13.2805Z" fill="#65785D"/>
<path d="M23.9884 14.2505C23.9884 14.3186 23.9716 14.3697 23.9043 14.4037C23.9211 14.3526 23.9379 14.2846 23.9884 14.2505Z" fill="#65765F"/>
<path d="M24.2891 12.0729C24.3395 12.1409 24.3059 12.209 24.3227 12.2771C24.2891 12.226 24.2891 12.1409 24.2891 12.0729Z" fill="#657569"/>
<path d="M24.2363 11.8002V11.7662H24.27C24.27 11.8172 24.27 11.8853 24.3036 11.9363C24.2868 11.9533 24.2868 11.9533 24.27 11.9363C24.2363 11.9023 24.2363 11.8513 24.2363 11.8002Z" fill="#657E5D"/>
<path d="M24.3203 13.1108V13.0427V12.9576H24.354C24.3371 13.0257 24.3708 13.0767 24.3203 13.1108Z" fill="#58814F"/>
<path d="M23.7345 14.676C23.7345 14.71 23.7177 14.7441 23.684 14.7611C23.6672 14.7781 23.6672 14.7781 23.6504 14.7611L23.7345 14.676Z" fill="#876E68"/>
<path d="M23.6677 14.761H23.7013C23.7013 14.795 23.6845 14.8291 23.6508 14.8461H23.6172C23.634 14.8291 23.6508 14.795 23.6677 14.761Z" fill="#65647C"/>
<path d="M24.2742 11.9365H24.3078V12.0726C24.2574 12.0386 24.2742 11.9875 24.2742 11.9365Z" fill="#5D7B62"/>
<path d="M22.3027 19.6616C22.4037 19.3893 22.5719 19.1681 22.7233 18.9299C22.8411 18.7257 22.9925 18.5386 23.0934 18.3344C23.1607 18.1983 23.2449 18.0621 23.3794 17.943C23.3121 18.1132 23.2112 18.2663 23.1103 18.4195C22.9252 18.7087 22.7401 18.981 22.5551 19.2702C22.471 19.4064 22.4373 19.5595 22.3027 19.6616ZM23.3794 17.96C23.4972 17.6878 23.6654 17.4496 23.8169 17.2114C23.8841 17.0923 23.9514 16.9561 24.0692 16.8711C24.0356 17.0072 23.9514 17.1093 23.8841 17.2284C23.7327 17.4496 23.615 17.6708 23.4636 17.892C23.4467 17.909 23.4131 17.926 23.3794 17.96Z" fill="#91C248"/>
<path d="M24.8448 13.3318C24.9121 13.451 24.8448 13.5701 24.828 13.6722C24.7102 14.3017 24.4411 14.8802 24.1046 15.4247C23.5494 16.3266 22.9774 17.2284 22.4054 18.1302C22.0521 18.6917 21.6988 19.2362 21.3455 19.7977C21.3119 19.8487 21.2951 19.9168 21.2109 19.9338C21.2614 19.7807 21.3455 19.6616 21.4296 19.5425L22.1867 18.3684C22.4391 17.977 22.6746 17.5687 22.9269 17.1773C23.1288 16.854 23.3644 16.5307 23.5662 16.1904C23.8522 15.731 24.1551 15.2716 24.3906 14.7952C24.5588 14.4549 24.6766 14.0805 24.7775 13.7062C24.7944 13.6381 24.7944 13.5701 24.7944 13.519C24.7944 13.4339 24.7944 13.3829 24.8448 13.3318ZM24.8448 12.6682C24.8953 12.8894 24.8953 13.0936 24.8448 13.3148C24.8112 13.0936 24.8448 12.8724 24.8448 12.6682Z" fill="#7DA93F"/>
<path d="M23.1559 16.4622C22.8026 17.0238 22.4493 17.5853 22.0792 18.1468C22.0624 18.1808 22.0455 18.1978 22.0119 18.2148C22.0792 18.0447 22.1801 17.8915 22.2811 17.7384C22.5334 17.33 22.8026 16.9387 23.055 16.5303C23.0718 16.4963 23.1054 16.4452 23.1391 16.4282C23.1559 16.4452 23.1727 16.4622 23.1559 16.4622ZM24.1485 14.7947C24.1317 14.8968 24.0644 14.9819 24.0139 15.084L23.6606 15.6966C23.6438 15.7306 23.6101 15.7476 23.5933 15.7646C23.5933 15.6625 23.6606 15.6115 23.7111 15.5434C23.8288 15.3222 23.9803 15.118 24.0812 14.8798C24.098 14.8288 24.1317 14.8118 24.1485 14.7947ZM21.9951 18.2829C21.8268 18.5892 21.6418 18.9125 21.4062 19.1847C21.4231 19.0656 21.5072 18.9805 21.5745 18.8954C21.7259 18.7083 21.7932 18.453 21.9951 18.2829Z" fill="#729C39"/>
<path d="M23.1582 16.4623V16.4283C23.2423 16.2411 23.3433 16.054 23.4947 15.9008C23.4274 16.122 23.2928 16.2922 23.1582 16.4623Z" fill="#729C39"/>
<path d="M23.5943 15.7475C23.5775 15.8155 23.5439 15.8836 23.4766 15.9176C23.4934 15.8325 23.527 15.7815 23.5943 15.7475Z" fill="#729C39"/>
<path d="M23.4113 15.6287C23.4113 15.7308 23.3104 15.7819 23.2936 15.884C23.159 16.0882 23.0412 16.2923 22.9066 16.4965C22.7215 16.7688 22.5533 17.058 22.3683 17.3303C22.0654 17.8237 21.7458 18.3002 21.443 18.7936C21.4093 18.8447 21.3925 18.8957 21.3252 18.9127C21.4261 18.6575 21.5944 18.4703 21.729 18.2321C22.0486 17.7046 22.4019 17.1771 22.7384 16.6497C22.9403 16.3434 23.1253 16.0371 23.3104 15.7138C23.344 15.6798 23.3608 15.6458 23.4113 15.6287ZM21.3084 18.9638C21.3084 19.0488 21.2411 19.1169 21.2074 19.185L20.9551 19.5423C21.0224 19.3211 21.157 19.1339 21.3084 18.9638ZM24.017 14.5738C23.9665 14.7439 23.8824 14.9141 23.7646 15.0502C23.7983 14.8631 23.916 14.7099 24.017 14.5738ZM23.5964 15.3225C23.5964 15.4075 23.5627 15.4586 23.4786 15.4926C23.5123 15.4246 23.5459 15.3565 23.5964 15.3225ZM23.7646 15.0502C23.7478 15.1013 23.731 15.1523 23.6805 15.1863C23.6973 15.1353 23.6973 15.0672 23.7646 15.0502ZM24.0674 14.4547C24.0674 14.5057 24.0674 14.5398 24.017 14.5738C24.017 14.5227 24.017 14.4717 24.0674 14.4547Z" fill="#678F33"/>
<path d="M180.111 17.842C180.111 19.6379 179.579 21.3935 178.581 22.8867C177.583 24.3799 176.165 25.5438 174.506 26.231C172.847 26.9183 171.021 27.0981 169.26 26.7478C167.498 26.3974 165.88 25.5326 164.61 24.2627C163.34 22.9928 162.476 21.3749 162.125 19.6135C161.775 17.8521 161.955 16.0264 162.642 14.3672C163.329 12.708 164.493 11.2898 165.986 10.2921C167.48 9.29433 169.235 8.76178 171.031 8.76178C173.439 8.76178 175.749 9.71845 177.452 11.4213C179.155 13.1242 180.111 15.4338 180.111 17.842ZM171.031 13.2936C170.131 13.2936 169.252 13.5604 168.504 14.0601C167.756 14.5599 167.173 15.2703 166.829 16.1014C166.485 16.9325 166.395 17.8471 166.57 18.7294C166.746 19.6117 167.179 20.4221 167.815 21.0582C168.451 21.6943 169.261 22.1275 170.144 22.303C171.026 22.4785 171.941 22.3885 172.772 22.0442C173.603 21.6999 174.313 21.117 174.813 20.369C175.313 19.621 175.579 18.7416 175.579 17.842C175.579 17.2447 175.462 16.6532 175.233 16.1014C175.005 15.5496 174.67 15.0482 174.247 14.6258C173.825 14.2034 173.324 13.8684 172.772 13.6398C172.22 13.4112 171.628 13.2936 171.031 13.2936ZM132.049 17.8475C132.049 19.6434 131.516 21.399 130.518 22.8922C129.521 24.3855 128.102 25.5493 126.443 26.2366C124.784 26.9238 122.958 27.1037 121.197 26.7533C119.436 26.4029 117.818 25.5381 116.548 24.2682C115.278 22.9983 114.413 21.3804 114.063 19.619C113.712 17.8576 113.892 16.0319 114.579 14.3727C115.267 12.7135 116.43 11.2954 117.924 10.2976C119.417 9.29986 121.173 8.76732 122.968 8.76732C125.377 8.76732 127.686 9.72398 129.389 11.4269C131.092 13.1297 132.049 15.4393 132.049 17.8475ZM122.968 13.2991C122.069 13.2991 121.189 13.5659 120.441 14.0657C119.693 14.5655 119.11 15.2758 118.766 16.1069C118.422 16.9381 118.332 17.8526 118.507 18.7349C118.683 19.6172 119.116 20.4276 119.752 21.0638C120.388 21.6999 121.199 22.1331 122.081 22.3086C122.963 22.4841 123.878 22.394 124.709 22.0497C125.54 21.7055 126.25 21.1225 126.75 20.3745C127.25 19.6265 127.517 18.7471 127.517 17.8475C127.517 16.6412 127.038 15.4843 126.185 14.6313C125.332 13.7783 124.175 13.2991 122.968 13.2991ZM88.7225 8.76178C88.28 8.74309 87.8424 8.86174 87.47 9.10148C87.0975 9.34121 86.8083 9.69029 86.642 10.1009C85.2649 9.25692 83.6878 8.7953 82.073 8.76354C80.4583 8.73178 78.8642 9.13103 77.455 9.92016C76.0459 10.7093 74.8725 11.8598 74.0558 13.2532C73.2391 14.6466 72.8086 16.2325 72.8086 17.8475C72.8086 19.4626 73.2391 21.0485 74.0558 22.4419C74.8725 23.8353 76.0459 24.9858 77.455 25.7749C78.8642 26.5641 80.4583 26.9633 82.073 26.9315C83.6878 26.8998 85.2649 26.4382 86.642 25.5942C86.8115 26.0033 87.1024 26.3504 87.4754 26.5889C87.8484 26.8274 88.2857 26.9456 88.7281 26.9278C89.0383 26.9379 89.3471 26.8827 89.6346 26.7657C89.9221 26.6487 90.1818 26.4726 90.3967 26.2487C90.6117 26.0249 90.7772 25.7583 90.8825 25.4663C90.9878 25.1744 91.0305 24.8635 91.0078 24.554V11.1245C91.0305 10.815 90.9878 10.5041 90.8825 10.2122C90.7772 9.92018 90.6117 9.65361 90.3967 9.42976C90.1818 9.2059 89.9221 9.02976 89.6346 8.91278C89.3471 8.79579 89.0383 8.74058 88.7281 8.75072M81.922 22.3904C81.0394 22.3908 80.1757 22.1348 79.4359 21.6533C78.6962 21.1719 78.1123 20.4859 77.7552 19.6787C77.3982 18.8716 77.2834 17.978 77.4248 17.1068C77.5662 16.2356 77.9577 15.4243 78.5518 14.7715C79.1458 14.1187 79.9167 13.6526 80.7708 13.4299C81.6248 13.2072 82.5252 13.2375 83.3624 13.517C84.1995 13.7966 84.9374 14.3134 85.4863 15.0046C86.0351 15.6959 86.3713 16.5317 86.4538 17.4104V18.2404C86.3504 19.3711 85.8283 20.4223 84.9899 21.188C84.1516 21.9537 83.0574 22.3786 81.922 22.3794M112.328 19.1036C112.299 18.5235 112.048 17.9766 111.628 17.5761C111.207 17.1757 110.648 16.9523 110.067 16.9523C109.487 16.9523 108.928 17.1757 108.507 17.5761C108.086 17.9766 107.836 18.5235 107.807 19.1036C107.725 19.9226 107.341 20.6819 106.731 21.2341C106.121 21.7863 105.327 22.092 104.504 22.092C103.681 22.092 102.887 21.7863 102.276 21.2341C101.666 20.6819 101.282 19.9226 101.2 19.1036V13.2991H106.534C107.136 13.2991 107.713 13.0601 108.139 12.6347C108.564 12.2092 108.803 11.6321 108.803 11.0305C108.803 10.4288 108.564 9.85172 108.139 9.42626C107.713 9.0008 107.136 8.76178 106.534 8.76178H101.189V7.21798C101.16 6.63784 100.91 6.09094 100.489 5.69049C100.068 5.29005 99.5096 5.06671 98.9288 5.06671C98.3479 5.06671 97.7893 5.29005 97.3686 5.69049C96.9478 6.09094 96.6971 6.63784 96.6684 7.21798V8.77838H94.8369C94.2381 8.77838 93.6639 9.01624 93.2405 9.43962C92.8171 9.863 92.5793 10.4372 92.5793 11.036C92.5793 11.6347 92.8171 12.209 93.2405 12.6324C93.6639 13.0557 94.2381 13.2936 94.8369 13.2936H96.6684V19.1036C96.6957 21.1721 97.5303 23.1481 98.9941 24.6098C100.458 26.0716 102.435 26.9034 104.504 26.9278C106.578 26.9263 108.568 26.1015 110.035 24.6345C111.502 23.1675 112.326 21.1783 112.328 19.1036ZM160.385 24.6536V16.4919C160.365 14.949 159.888 13.4468 159.015 12.1745C158.142 10.9022 156.912 9.91694 155.479 9.34288C154.047 8.76881 152.477 8.63166 150.967 8.94873C149.457 9.2658 148.075 10.0229 146.994 11.1245C145.913 10.0227 144.529 9.2662 143.018 8.95053C141.507 8.63486 139.936 8.77423 138.505 9.35101C137.073 9.9278 135.844 10.9161 134.973 12.1911C134.103 13.466 133.63 14.9704 133.615 16.514V24.6536C133.643 25.2337 133.894 25.7806 134.315 26.181C134.735 26.5815 135.294 26.8048 135.875 26.8048C136.456 26.8048 137.014 26.5815 137.435 26.181C137.856 25.7806 138.107 25.2337 138.135 24.6536V16.5859C138.211 15.7613 138.592 14.9946 139.204 14.4364C139.815 13.8782 140.613 13.5687 141.441 13.5687C142.27 13.5687 143.068 13.8782 143.68 14.4364C144.291 14.9946 144.672 15.7613 144.748 16.5859V24.5761C144.75 25.1862 144.989 25.7715 145.414 26.209C145.839 26.6465 146.418 26.9022 147.027 26.9222C147.629 26.8964 148.197 26.6368 148.611 26.1986C149.024 25.7605 149.25 25.1784 149.241 24.5761V16.5859C149.316 15.7613 149.697 14.9946 150.309 14.4364C150.921 13.8782 151.719 13.5687 152.547 13.5687C153.375 13.5687 154.173 13.8782 154.785 14.4364C155.397 14.9946 155.778 15.7613 155.853 16.5859V24.6536C155.853 25.2523 156.091 25.8265 156.514 26.2499C156.938 26.6733 157.512 26.9112 158.111 26.9112C158.709 26.9112 159.284 26.6733 159.707 26.2499C160.13 25.8265 160.368 25.2523 160.368 24.6536M71.2703 24.648V16.4808C71.2489 14.9377 70.771 13.4356 69.8969 12.1638C69.0228 10.892 67.7916 9.9076 66.3587 9.33467C64.9258 8.76174 63.3553 8.62598 61.8453 8.94452C60.3353 9.26305 58.9535 10.0216 57.8741 11.1245C56.7939 10.0223 55.4111 9.2651 53.9006 8.94881C52.3901 8.63252 50.8197 8.77132 49.3881 9.34765C47.9564 9.92397 46.7279 10.9119 45.8578 12.1866C44.9877 13.4612 44.5152 14.9653 44.5 16.5085V24.648C44.5 25.2468 44.7379 25.821 45.1612 26.2444C45.5846 26.6678 46.1589 26.9056 46.7576 26.9056C47.3564 26.9056 47.9306 26.6678 48.354 26.2444C48.7774 25.821 49.0152 25.2468 49.0152 24.648V16.5804C49.0152 15.6999 49.365 14.8554 49.9876 14.2328C50.6102 13.6102 51.4547 13.2604 52.3352 13.2604C53.2157 13.2604 54.0602 13.6102 54.6828 14.2328C55.3054 14.8554 55.6552 15.6999 55.6552 16.5804V24.565C55.6578 25.1766 55.8973 25.7633 56.3235 26.2018C56.7497 26.6404 57.3293 26.8967 57.9405 26.9167C58.5428 26.8894 59.1108 26.6286 59.524 26.1896C59.9372 25.7506 60.1631 25.1679 60.1538 24.565V16.5804C60.2361 15.7614 60.6196 15.0021 61.23 14.4499C61.8404 13.8977 62.6341 13.592 63.4573 13.592C64.2804 13.592 65.0741 13.8977 65.6845 14.4499C66.2949 15.0021 66.6785 15.7614 66.7607 16.5804V24.648C66.7607 25.2468 66.9985 25.821 67.4219 26.2444C67.8453 26.6678 68.4195 26.9056 69.0183 26.9056C69.617 26.9056 70.1913 26.6678 70.6146 26.2444C71.038 25.821 71.2759 25.2468 71.2759 24.648" fill="white"/>
</g>
<defs>
<clipPath id="clip0_13651_1336">
<rect width="180" height="32" fill="white" transform="translate(0.5)"/>
</clipPath>
</defs>
</svg>
