<svg width="181" height="32" viewBox="0 0 181 32" fill="none" xmlns="http://www.w3.org/2000/svg">
<g clip-path="url(#clip0_13618_9393)">
<path d="M180.499 17.5879C180.499 19.3838 179.988 21.1393 179.029 22.6326C178.071 24.1258 176.708 25.2896 175.114 25.9769C173.52 26.6642 171.766 26.844 170.074 26.4936C168.381 26.1432 166.827 25.2784 165.607 24.0085C164.387 22.7387 163.556 21.1207 163.219 19.3593C162.883 17.5979 163.056 15.7722 163.716 14.113C164.376 12.4538 165.494 11.0357 166.929 10.0379C168.364 9.04018 170.05 8.50763 171.776 8.50763C174.089 8.50763 176.308 9.4643 177.944 11.1672C179.58 12.87 180.499 15.1796 180.499 17.5879ZM171.776 13.0394C170.911 13.0394 170.067 13.3062 169.348 13.806C168.629 14.3058 168.069 15.0161 167.738 15.8473C167.408 16.6784 167.321 17.5929 167.49 18.4752C167.658 19.3575 168.075 20.168 168.686 20.8041C169.297 21.4402 170.075 21.8734 170.923 22.0489C171.771 22.2244 172.649 22.1343 173.448 21.79C174.246 21.4458 174.929 20.8628 175.409 20.1148C175.889 19.3668 176.146 18.4874 176.146 17.5879C176.146 16.9906 176.033 16.3991 175.813 15.8473C175.593 15.2954 175.271 14.794 174.866 14.3716C174.46 13.9493 173.978 13.6143 173.448 13.3857C172.918 13.1571 172.35 13.0394 171.776 13.0394ZM134.323 17.5934C134.323 19.3893 133.812 21.1449 132.853 22.6381C131.894 24.1313 130.532 25.2952 128.938 25.9824C127.344 26.6697 125.59 26.8495 123.898 26.4991C122.205 26.1488 120.651 25.284 119.431 24.0141C118.211 22.7442 117.38 21.1262 117.043 19.3649C116.707 17.6035 116.879 15.7777 117.54 14.1185C118.2 12.4593 119.318 11.0412 120.753 10.0435C122.187 9.04571 123.874 8.51317 125.599 8.51317C127.913 8.51317 130.132 9.46983 131.768 11.1727C133.404 12.8756 134.323 15.1852 134.323 17.5934ZM125.599 13.045C124.735 13.045 123.89 13.3117 123.172 13.8115C122.453 14.3113 121.893 15.0217 121.562 15.8528C121.231 16.6839 121.145 17.5984 121.314 18.4807C121.482 19.363 121.898 20.1735 122.509 20.8096C123.121 21.4457 123.899 21.8789 124.747 22.0544C125.595 22.2299 126.473 22.1398 127.272 21.7956C128.07 21.4513 128.753 20.8683 129.233 20.1204C129.713 19.3724 129.969 18.493 129.969 17.5934C129.969 16.3871 129.509 15.2302 128.689 14.3772C127.87 13.5242 126.758 13.045 125.599 13.045ZM92.6977 8.50763C92.2725 8.48894 91.8522 8.60759 91.4943 8.84732C91.1365 9.08706 90.8586 9.43614 90.6988 9.8467C89.3758 9.00277 87.8606 8.54115 86.3092 8.50939C84.7578 8.47763 83.2263 8.87688 81.8725 9.66601C80.5186 10.4551 79.3913 11.6056 78.6067 12.999C77.8221 14.3924 77.4084 15.9783 77.4084 17.5934C77.4084 19.2085 77.8221 20.7944 78.6067 22.1878C79.3913 23.5811 80.5186 24.7316 81.8725 25.5208C83.2263 26.3099 84.7578 26.7092 86.3092 26.6774C87.8606 26.6456 89.3758 26.184 90.6988 25.3401C90.8617 25.7491 91.1412 26.0963 91.4996 26.3347C91.858 26.5732 92.278 26.6915 92.703 26.6736C93.0011 26.6838 93.2978 26.6285 93.574 26.5116C93.8502 26.3946 94.0997 26.2184 94.3062 25.9946C94.5128 25.7707 94.6718 25.5042 94.7729 25.2122C94.8741 24.9202 94.9151 24.6094 94.8933 24.2998V10.8704C94.9151 10.5608 94.8741 10.25 94.7729 9.95801C94.6718 9.66603 94.5128 9.39946 94.3062 9.17561C94.0997 8.95175 93.8502 8.77561 93.574 8.65863C93.2978 8.54164 93.0011 8.48643 92.703 8.49657M86.1642 22.1363C85.3162 22.1367 84.4864 21.8806 83.7756 21.3992C83.0649 20.9178 82.5039 20.2318 82.1609 19.4246C81.8178 18.6174 81.7075 17.7239 81.8434 16.8527C81.9793 15.9815 82.3554 15.1701 82.9262 14.5173C83.4969 13.8645 84.2375 13.3985 85.0581 13.1757C85.8786 12.953 86.7436 12.9833 87.548 13.2629C88.3523 13.5424 89.0612 14.0593 89.5885 14.7505C90.1158 15.4417 90.4388 16.2775 90.5181 17.1563V17.9863C90.4187 19.1169 89.9171 20.1682 89.1116 20.9338C88.3062 21.6995 87.255 22.1244 86.1642 22.1252M115.376 18.8495C115.349 18.2693 115.108 17.7224 114.704 17.322C114.3 16.9215 113.763 16.6982 113.205 16.6982C112.647 16.6982 112.11 16.9215 111.706 17.322C111.302 17.7224 111.061 18.2693 111.033 18.8495C110.954 19.6685 110.586 20.4277 109.999 20.9799C109.413 21.5321 108.65 21.8379 107.859 21.8379C107.069 21.8379 106.306 21.5321 105.72 20.9799C105.133 20.4277 104.765 19.6685 104.686 18.8495V13.045H109.81C110.389 13.045 110.943 12.806 111.352 12.3805C111.76 11.955 111.99 11.378 111.99 10.7763C111.99 10.1746 111.76 9.59757 111.352 9.17211C110.943 8.74665 110.389 8.50763 109.81 8.50763H104.675V6.96383C104.647 6.38368 104.407 5.83679 104.002 5.43634C103.598 5.0359 103.061 4.81256 102.503 4.81256C101.945 4.81256 101.409 5.0359 101.004 5.43634C100.6 5.83679 100.359 6.38368 100.332 6.96383V8.52423H98.5721C97.9968 8.52423 97.4451 8.76209 97.0384 9.18547C96.6316 9.60885 96.4031 10.1831 96.4031 10.7818C96.4031 11.3806 96.6316 11.9548 97.0384 12.3782C97.4451 12.8016 97.9968 13.0394 98.5721 13.0394H100.332V18.8495C100.358 20.918 101.16 22.8939 102.566 24.3557C103.973 25.8174 105.872 26.6493 107.859 26.6736C109.853 26.6722 111.764 25.8474 113.173 24.3804C114.583 22.9134 115.375 20.9241 115.376 18.8495ZM161.547 24.3994V16.2377C161.528 14.6949 161.07 13.1926 160.231 11.9203C159.392 10.6481 158.21 9.66279 156.834 9.08873C155.458 8.51466 153.95 8.37751 152.499 8.69458C151.048 9.01165 149.72 9.76873 148.682 10.8704C147.643 9.76858 146.314 9.01205 144.862 8.69638C143.411 8.38071 141.901 8.52007 140.526 9.09686C139.15 9.67365 137.97 10.662 137.133 11.9369C136.297 13.2119 135.843 14.7162 135.828 16.2599V24.3994C135.855 24.9796 136.096 25.5264 136.5 25.9269C136.905 26.3273 137.441 26.5507 137.999 26.5507C138.557 26.5507 139.094 26.3273 139.498 25.9269C139.903 25.5264 140.143 24.9796 140.171 24.3994V16.3318C140.244 15.5071 140.61 14.7405 141.197 14.1822C141.785 13.624 142.552 13.3145 143.347 13.3145C144.143 13.3145 144.91 13.624 145.498 14.1822C146.085 14.7405 146.451 15.5071 146.524 16.3318V24.3219C146.526 24.932 146.756 25.5173 147.164 25.9549C147.573 26.3924 148.128 26.648 148.714 26.6681C149.292 26.6422 149.838 26.3826 150.235 25.9445C150.632 25.5063 150.849 24.9242 150.841 24.3219V16.3318C150.913 15.5071 151.279 14.7405 151.867 14.1822C152.455 13.624 153.221 13.3145 154.017 13.3145C154.813 13.3145 155.58 13.624 156.167 14.1822C156.755 14.7405 157.121 15.5071 157.193 16.3318V24.3994C157.193 24.9982 157.422 25.5724 157.829 25.9958C158.235 26.4192 158.787 26.657 159.362 26.657C159.938 26.657 160.489 26.4192 160.896 25.9958C161.303 25.5724 161.531 24.9982 161.531 24.3994M75.9305 24.3939V16.2267C75.9099 14.6836 75.4508 13.1814 74.611 11.9097C73.7712 10.6379 72.5883 9.65345 71.2117 9.08052C69.835 8.50759 68.3261 8.37183 66.8754 8.69037C65.4247 9.0089 64.0971 9.76746 63.0601 10.8704C62.0223 9.76811 60.6938 9.01094 59.2426 8.69466C57.7913 8.37837 56.2826 8.51717 54.9071 9.0935C53.5317 9.66982 52.3513 10.6578 51.5154 11.9324C50.6795 13.2071 50.2255 14.7111 50.2109 16.2543V24.3939C50.2109 24.9926 50.4395 25.5669 50.8462 25.9902C51.253 26.4136 51.8047 26.6515 52.3799 26.6515C52.9552 26.6515 53.5069 26.4136 53.9136 25.9902C54.3204 25.5669 54.5489 24.9926 54.5489 24.3939V16.3263C54.5489 15.4457 54.885 14.6013 55.4832 13.9787C56.0814 13.356 56.8927 13.0062 57.7386 13.0062C58.5846 13.0062 59.3959 13.356 59.9941 13.9787C60.5923 14.6013 60.9283 15.4457 60.9283 16.3263V24.3109C60.9308 24.9224 61.1609 25.5091 61.5704 25.9477C61.9798 26.3863 62.5367 26.6425 63.1239 26.6625C63.7025 26.6353 64.2482 26.3745 64.6452 25.9354C65.0422 25.4964 65.2593 24.9137 65.2504 24.3109V16.3263C65.3293 15.5073 65.6978 14.748 66.2843 14.1958C66.8707 13.6436 67.6333 13.3378 68.4241 13.3378C69.2149 13.3378 69.9775 13.6436 70.564 14.1958C71.1504 14.748 71.5189 15.5073 71.5979 16.3263V24.3939C71.5979 24.9926 71.8264 25.5669 72.2332 25.9902C72.6399 26.4136 73.1916 26.6515 73.7669 26.6515C74.3421 26.6515 74.8938 26.4136 75.3006 25.9902C75.7073 25.5669 75.9359 24.9926 75.9359 24.3939" fill="#3F4445"/>
<path d="M43.1061 18.6835L42.9945 18.5009C42.9738 18.4774 42.956 18.4514 42.9413 18.4234L35.185 6.13936L25.1641 13.886L32.5269 25.6499L32.6173 25.7993L32.6599 25.8602C33.5931 27.264 35.0174 28.2315 36.6276 28.5556C38.2379 28.8796 39.906 28.5344 41.2747 27.5938C42.6434 26.6532 43.6037 25.1922 43.95 23.5236C44.2963 21.855 44.001 20.1116 43.1274 18.6669" fill="#95C748"/>
<path d="M13.0461 22.1031C13.0461 20.8117 12.6782 19.5493 11.9889 18.4756C11.2997 17.4018 10.3199 16.5649 9.17368 16.0707C8.02742 15.5765 6.76612 15.4472 5.54926 15.6992C4.3324 15.9511 3.21465 16.573 2.33734 17.4861C1.46004 18.3993 0.862586 19.5627 0.620538 20.8293C0.37849 22.0958 0.502718 23.4087 0.977512 24.6017C1.45231 25.7948 2.25634 26.8146 3.28794 27.532C4.31954 28.2495 5.53238 28.6324 6.77308 28.6324C8.4368 28.6324 10.0324 27.9445 11.2088 26.72C12.3852 25.4955 13.0461 23.8348 13.0461 22.1031Z" fill="#35BFC0"/>
<path d="M36.156 9.55899C36.1589 8.53901 35.9324 7.53248 35.4947 6.61994C35.0569 5.7074 34.42 4.91419 33.6349 4.30379C32.8498 3.69339 31.9383 3.28275 30.9734 3.10473C30.0085 2.92671 29.0169 2.98625 28.0781 3.2786C27.1393 3.57094 26.2792 4.08797 25.5668 4.7883C24.8543 5.48863 24.3093 6.35282 23.9752 7.31171C23.6412 8.2706 23.5274 9.29756 23.6431 10.3104C23.7587 11.3233 24.1005 12.2939 24.6411 13.1446L19.8566 6.13938C19.2965 5.18946 18.5118 4.4049 17.5773 3.86064C16.6429 3.31637 15.59 3.03059 14.5192 3.03059C13.4484 3.03059 12.3955 3.31637 11.461 3.86064C10.5266 4.4049 9.74184 5.18946 9.18174 6.13938L1.60089 18.4455C2.19 17.5371 2.9895 16.7978 3.92558 16.2959C4.86166 15.7939 5.90415 15.5456 6.9568 15.5737C8.00945 15.6018 9.03832 15.9055 9.94843 16.4568C10.8585 17.008 11.6206 17.789 12.1641 18.7277L17.1135 25.9709C17.6944 26.7976 18.4545 27.4701 19.332 27.9336C20.2096 28.3972 21.1798 28.6388 22.1638 28.6388C23.1479 28.6388 24.1181 28.3972 24.9956 27.9336C25.8731 27.4701 26.6332 26.7976 27.2142 25.9709L27.2673 25.8879C27.3972 25.6999 27.5161 25.5041 27.6235 25.3014L35.0661 13.2221C35.765 12.1394 36.1354 10.8633 36.1294 9.55899M26.1137 14.7935L26.236 14.8876L26.1509 14.7935M33.4607 14.9153L33.5936 14.7991L33.4394 14.9208M1.44672 18.7056C1.49457 18.6226 1.5371 18.5451 1.59026 18.4677L1.44141 18.7056H1.44672Z" fill="#3253A0"/>
<path d="M36.1262 9.55898C36.1262 8.26689 35.7579 7.00385 35.0679 5.92975C34.3779 4.85565 33.3972 4.01877 32.2501 3.52507C31.1029 3.03138 29.8408 2.90305 28.6235 3.15633C27.4062 3.40962 26.2884 4.03313 25.4118 4.94793C24.5351 5.86274 23.9389 7.02771 23.6987 8.29537C23.4584 9.56303 23.5849 10.8764 24.0622 12.0692C24.5394 13.262 25.3459 14.2806 26.3796 14.996C27.4133 15.7115 28.6277 16.0916 29.8691 16.0883C31.5328 16.0883 33.1284 15.4004 34.3048 14.1759C35.4813 12.9514 36.1422 11.2907 36.1422 9.55898" fill="#F38334"/>
<path d="M29.8715 16.0883C28.8317 16.0892 27.808 15.8205 26.8929 15.3066C25.9777 14.7927 25.2 14.0496 24.6297 13.1446L19.8452 6.13937C19.2858 5.18939 18.5016 4.40469 17.5675 3.8603C16.6335 3.31591 15.5809 3.03004 14.5104 3.03004C13.4399 3.03004 12.3873 3.31591 11.4533 3.8603C10.5193 4.40469 9.73508 5.18939 9.17566 6.13937L1.57355 18.4455C2.16265 17.5371 2.96215 16.7978 3.89824 16.2959C4.83432 15.7939 5.87681 15.5455 6.92945 15.5737C7.9821 15.6018 9.01098 15.9055 9.92109 16.4568C10.8312 17.008 11.5932 17.789 12.1368 18.7277L17.1127 25.9709C17.6937 26.7976 18.4538 27.4701 19.3313 27.9336C20.2088 28.3972 21.179 28.6387 22.163 28.6387C23.1471 28.6387 24.1173 28.3972 24.9948 27.9336C25.8723 27.4701 26.6324 26.7976 27.2134 25.9709L27.2613 25.8879L27.6228 25.3346L35.0654 13.2497C34.4881 14.1283 33.7129 14.8464 32.8075 15.3412C31.9021 15.836 30.8941 16.0925 29.8715 16.0883Z" fill="#3152A0"/>
</g>
<defs>
<clipPath id="clip0_13618_9393">
<rect width="180" height="32" fill="white" transform="translate(0.5)"/>
</clipPath>
</defs>
</svg>
