<svg width="191" height="72" viewBox="0 0 191 72" fill="none" xmlns="http://www.w3.org/2000/svg">
<g clip-path="url(#clip0_13461_39612)">
<path d="M190.308 37.607C190.308 39.4246 189.769 41.2013 188.759 42.7126C187.749 44.2238 186.314 45.4017 184.635 46.0972C182.955 46.7928 181.108 46.9748 179.325 46.6202C177.542 46.2656 175.905 45.3904 174.62 44.1052C173.334 42.82 172.459 41.1825 172.105 39.3999C171.75 37.6172 171.932 35.7695 172.628 34.0903C173.323 32.4111 174.501 30.9758 176.012 29.966C177.523 28.9563 179.3 28.4173 181.118 28.4173C183.555 28.4173 185.892 29.3855 187.616 31.1089C189.339 32.8323 190.308 35.1698 190.308 37.607ZM181.118 33.0038C180.207 33.0038 179.317 33.2737 178.56 33.7795C177.803 34.2854 177.213 35.0043 176.865 35.8454C176.516 36.6866 176.425 37.6121 176.603 38.5051C176.781 39.398 177.219 40.2183 177.863 40.862C178.507 41.5058 179.327 41.9442 180.22 42.1219C181.113 42.2995 182.038 42.2083 182.879 41.8599C183.72 41.5115 184.439 40.9215 184.945 40.1645C185.451 39.4075 185.721 38.5175 185.721 37.607C185.721 37.0025 185.602 36.4039 185.371 35.8454C185.139 35.2869 184.8 34.7795 184.373 34.352C183.945 33.9246 183.438 33.5855 182.879 33.3542C182.321 33.1228 181.722 33.0038 181.118 33.0038ZM141.665 37.6126C141.665 39.4302 141.126 41.2069 140.116 42.7182C139.107 44.2294 137.671 45.4073 135.992 46.1028C134.313 46.7984 132.465 46.9804 130.683 46.6258C128.9 46.2712 127.262 45.396 125.977 44.1108C124.692 42.8256 123.817 41.1881 123.462 39.4055C123.108 37.6228 123.29 35.7751 123.985 34.0959C124.681 32.4167 125.859 30.9814 127.37 29.9716C128.881 28.9619 130.658 28.4229 132.475 28.4229C134.913 28.4229 137.25 29.3911 138.974 31.1145C140.697 32.8379 141.665 35.1754 141.665 37.6126ZM132.475 33.0094C131.565 33.0094 130.675 33.2793 129.918 33.7851C129.161 34.291 128.571 35.0099 128.223 35.851C127.874 36.6922 127.783 37.6177 127.961 38.5107C128.138 39.4036 128.577 40.2239 129.22 40.8676C129.864 41.5114 130.684 41.9498 131.577 42.1274C132.47 42.3051 133.396 42.2139 134.237 41.8655C135.078 41.5171 135.797 40.9271 136.303 40.1701C136.809 39.4131 137.079 38.5231 137.079 37.6126C137.079 36.3918 136.594 35.2209 135.73 34.3576C134.867 33.4943 133.696 33.0094 132.475 33.0094ZM97.8165 28.4173C97.3685 28.3984 96.9257 28.5184 96.5488 28.7611C96.1718 29.0037 95.8791 29.357 95.7108 29.7725C94.3172 28.9184 92.721 28.4512 91.0868 28.4191C89.4525 28.3869 87.8392 28.791 86.4131 29.5896C84.9869 30.3883 83.7994 31.5527 82.9729 32.9629C82.1463 34.373 81.7106 35.9781 81.7106 37.6126C81.7106 39.2472 82.1463 40.8522 82.9729 42.2624C83.7994 43.6726 84.9869 44.837 86.4131 45.6356C87.8392 46.4343 89.4525 46.8383 91.0868 46.8062C92.721 46.7741 94.3172 46.3069 95.7108 45.4528C95.8823 45.8667 96.1768 46.2181 96.5543 46.4594C96.9318 46.7008 97.3743 46.8205 97.822 46.8024C98.136 46.8126 98.4486 46.7568 98.7395 46.6384C99.0305 46.52 99.2933 46.3417 99.5109 46.1151C99.7284 45.8886 99.8959 45.6188 100.002 45.3233C100.109 45.0278 100.152 44.7132 100.129 44.3999V30.8085C100.152 30.4952 100.109 30.1806 100.002 29.8851C99.8959 29.5897 99.7284 29.3199 99.5109 29.0933C99.2933 28.8668 99.0305 28.6885 98.7395 28.5701C98.4486 28.4517 98.136 28.3958 97.822 28.4061M90.9339 42.2103C90.0407 42.2107 89.1665 41.9516 88.4179 41.4643C87.6692 40.9771 87.0782 40.2828 86.7169 39.4659C86.3555 38.649 86.2393 37.7447 86.3824 36.863C86.5256 35.9813 86.9218 35.1601 87.523 34.4995C88.1242 33.8388 88.9044 33.3671 89.7688 33.1417C90.6331 32.9163 91.5444 32.9469 92.3916 33.2299C93.2389 33.5128 93.9857 34.0359 94.5412 34.7354C95.0966 35.435 95.4368 36.2809 95.5204 37.1702V38.0102C95.4157 39.1545 94.8873 40.2184 94.0388 40.9934C93.1904 41.7683 92.083 42.1983 90.9339 42.1991M121.706 38.8838C121.677 38.2967 121.424 37.7432 120.998 37.3379C120.572 36.9327 120.007 36.7066 119.419 36.7066C118.831 36.7066 118.266 36.9327 117.84 37.3379C117.414 37.7432 117.16 38.2967 117.131 38.8838C117.048 39.7127 116.66 40.4811 116.042 41.04C115.424 41.5989 114.621 41.9083 113.788 41.9083C112.955 41.9083 112.152 41.5989 111.534 41.04C110.916 40.4811 110.528 39.7127 110.445 38.8838V33.0094H115.843C116.452 33.0094 117.036 32.7675 117.467 32.3369C117.897 31.9063 118.139 31.3223 118.139 30.7133C118.139 30.1044 117.897 29.5204 117.467 29.0898C117.036 28.6592 116.452 28.4173 115.843 28.4173H110.433V26.8549C110.404 26.2677 110.151 25.7142 109.725 25.3089C109.299 24.9037 108.734 24.6776 108.146 24.6776C107.558 24.6776 106.993 24.9037 106.567 25.3089C106.141 25.7142 105.887 26.2677 105.858 26.8549V28.4341H104.005C103.399 28.4341 102.817 28.6748 102.389 29.1033C101.96 29.5318 101.72 30.1129 101.72 30.7189C101.72 31.3249 101.96 31.9061 102.389 32.3345C102.817 32.763 103.399 33.0038 104.005 33.0038H105.858V38.8838C105.886 40.9773 106.73 42.9771 108.212 44.4565C109.693 45.9359 111.694 46.7777 113.788 46.8024C115.888 46.8009 117.901 45.9661 119.386 44.4815C120.87 42.9968 121.705 40.9835 121.706 38.8838ZM170.343 44.5007V36.2406C170.323 34.6792 169.84 33.1588 168.957 31.8712C168.073 30.5835 166.828 29.5864 165.378 29.0054C163.929 28.4244 162.34 28.2856 160.812 28.6065C159.283 28.9274 157.884 29.6936 156.791 30.8085C155.697 29.6934 154.296 28.9278 152.767 28.6083C151.238 28.2888 149.648 28.4299 148.199 29.0136C146.75 29.5974 145.506 30.5976 144.625 31.8879C143.744 33.1783 143.266 34.7008 143.25 36.263V44.5007C143.279 45.0879 143.533 45.6414 143.959 46.0466C144.384 46.4519 144.95 46.678 145.538 46.678C146.125 46.678 146.691 46.4519 147.117 46.0466C147.542 45.6414 147.796 45.0879 147.825 44.5007V36.3358C147.902 35.5012 148.287 34.7253 148.906 34.1603C149.525 33.5954 150.333 33.2822 151.171 33.2822C152.009 33.2822 152.817 33.5954 153.436 34.1603C154.055 34.7253 154.441 35.5012 154.517 36.3358V44.4223C154.52 45.0398 154.762 45.6321 155.192 46.0749C155.622 46.5177 156.207 46.7765 156.825 46.7968C157.434 46.7706 158.008 46.5079 158.427 46.0644C158.845 45.621 159.074 45.0319 159.065 44.4223V36.3358C159.141 35.5012 159.527 34.7253 160.146 34.1603C160.765 33.5954 161.573 33.2822 162.411 33.2822C163.249 33.2822 164.057 33.5954 164.676 34.1603C165.295 34.7253 165.68 35.5012 165.757 36.3358V44.5007C165.757 45.1067 165.997 45.6879 166.426 46.1164C166.854 46.5449 167.436 46.7856 168.042 46.7856C168.648 46.7856 169.229 46.5449 169.657 46.1164C170.086 45.6879 170.326 45.1067 170.326 44.5007M80.1538 44.4951V36.2294C80.1321 34.6677 79.6484 33.1475 78.7637 31.8603C77.8791 30.5732 76.6331 29.5769 75.1829 28.9971C73.7327 28.4172 72.1432 28.2798 70.6151 28.6022C69.0869 28.9246 67.6884 29.6923 66.596 30.8085C65.5028 29.693 64.1033 28.9267 62.5745 28.6066C61.0458 28.2865 59.4565 28.4269 58.0076 29.0102C56.5586 29.5935 55.3153 30.5934 54.4347 31.8834C53.5541 33.1734 53.0759 34.6956 53.0605 36.2574V44.4951C53.0605 45.1011 53.3013 45.6823 53.7298 46.1108C54.1583 46.5392 54.7394 46.78 55.3454 46.78C55.9514 46.78 56.5325 46.5392 56.961 46.1108C57.3895 45.6823 57.6302 45.1011 57.6302 44.4951V36.3302C57.6302 35.4391 57.9842 34.5844 58.6144 33.9543C59.2445 33.3242 60.0991 32.9702 60.9903 32.9702C61.8814 32.9702 62.7361 33.3242 63.3662 33.9543C63.9963 34.5844 64.3503 35.4391 64.3503 36.3302V44.4111C64.3529 45.03 64.5953 45.6238 65.0266 46.0677C65.458 46.5116 66.0446 46.7709 66.6632 46.7912C67.2727 46.7636 67.8475 46.4996 68.2657 46.0553C68.6839 45.611 68.9126 45.0212 68.9032 44.4111V36.3302C68.9864 35.5013 69.3745 34.7329 69.9923 34.1741C70.6101 33.6152 71.4134 33.3057 72.2464 33.3057C73.0795 33.3057 73.8828 33.6152 74.5006 34.1741C75.1184 34.7329 75.5065 35.5013 75.5897 36.3302V44.4951C75.5897 45.1011 75.8304 45.6823 76.2589 46.1108C76.6874 46.5392 77.2686 46.78 77.8745 46.78C78.4805 46.78 79.0617 46.5392 79.4902 46.1108C79.9186 45.6823 80.1594 45.1011 80.1594 44.4951" fill="#3F4445"/>
<path d="M45.5761 38.7158L45.4585 38.531C45.4367 38.5073 45.4179 38.4809 45.4025 38.4526L37.2319 26.0204L26.6758 33.8606L34.4319 45.7663L34.5271 45.9175L34.5719 45.9791C35.555 47.3999 37.0553 48.3791 38.7516 48.707C40.4479 49.035 42.2051 48.6856 43.6469 47.7336C45.0886 46.7817 46.1003 45.303 46.4651 43.6143C46.8299 41.9256 46.5188 40.1612 45.5985 38.699" fill="#95C748"/>
<path d="M13.9096 42.1767C13.9096 40.8697 13.522 39.5921 12.7959 38.5054C12.0698 37.4187 11.0378 36.5718 9.83028 36.0716C8.6228 35.5715 7.29414 35.4406 6.01229 35.6956C4.73044 35.9505 3.55299 36.5799 2.62883 37.5041C1.70467 38.4282 1.07531 39.6057 0.820335 40.8875C0.56536 42.1694 0.696223 43.498 1.19637 44.7055C1.69653 45.913 2.5435 46.945 3.6302 47.6711C4.7169 48.3972 5.99451 48.7848 7.30147 48.7848C9.05404 48.7848 10.7348 48.0886 11.9741 46.8493C13.2134 45.6101 13.9096 43.9293 13.9096 42.1767Z" fill="#35BFC0"/>
<path d="M38.2541 29.4813C38.2572 28.449 38.0187 27.4304 37.5575 26.5068C37.0963 25.5833 36.4254 24.7805 35.5984 24.1627C34.7714 23.545 33.8112 23.1294 32.7948 22.9492C31.7783 22.769 30.7338 22.8293 29.7449 23.1252C28.7559 23.421 27.8499 23.9443 27.0994 24.6531C26.3489 25.3619 25.7747 26.2365 25.4229 27.2069C25.071 28.1774 24.9511 29.2167 25.073 30.2418C25.1948 31.2669 25.5548 32.2492 26.1243 33.1102L21.0843 26.0205C20.4942 25.0591 19.6676 24.2651 18.6832 23.7142C17.6989 23.1634 16.5897 22.8742 15.4618 22.8742C14.3338 22.8742 13.2246 23.1634 12.2403 23.7142C11.2559 24.2651 10.4293 25.0591 9.83928 26.0205L1.85355 38.475C2.47412 37.5557 3.31632 36.8074 4.30239 36.2994C5.28847 35.7914 6.38664 35.5401 7.4955 35.5685C8.60437 35.597 9.6882 35.9044 10.6469 36.4623C11.6056 37.0202 12.4083 37.8106 12.9809 38.7607L18.1946 46.0912C18.8066 46.9279 19.6073 47.6084 20.5317 48.0776C21.4561 48.5467 22.4781 48.7912 23.5147 48.7912C24.5513 48.7912 25.5733 48.5467 26.4977 48.0776C27.4221 47.6084 28.2228 46.9279 28.8348 46.0912L28.8908 46.0072C29.0275 45.8169 29.1528 45.6187 29.266 45.4136L37.1061 33.1886C37.8423 32.0928 38.2324 30.8013 38.2261 29.4813M27.6756 34.779L27.8044 34.8742L27.7148 34.779M35.4149 34.9022L35.5549 34.7846L35.3925 34.9078M1.69115 38.7383C1.74155 38.6543 1.78635 38.5759 1.84235 38.4974L1.68555 38.7383H1.69115Z" fill="#3253A0"/>
<path d="M38.224 29.4813C38.224 28.1736 37.836 26.8954 37.1092 25.8083C36.3823 24.7212 35.3493 23.8743 34.1408 23.3746C32.9324 22.875 31.6029 22.7451 30.3206 23.0014C29.0382 23.2578 27.8608 23.8888 26.9373 24.8146C26.0139 25.7405 25.3858 26.9195 25.1327 28.2025C24.8797 29.4854 25.0129 30.8146 25.5157 32.0218C26.0184 33.229 26.868 34.2598 27.9569 34.9839C29.0458 35.708 30.325 36.0927 31.6327 36.0894C33.3853 36.0894 35.0661 35.3932 36.3054 34.1539C37.5446 32.9147 38.2408 31.2339 38.2408 29.4813" fill="#F38334"/>
<path d="M31.6335 36.0894C30.5382 36.0903 29.4598 35.8184 28.4958 35.2982C27.5318 34.7781 26.7125 34.0261 26.1118 33.1102L21.0718 26.0204C20.4825 25.059 19.6564 24.2648 18.6724 23.7139C17.6885 23.1629 16.5797 22.8736 15.4521 22.8736C14.3244 22.8736 13.2156 23.1629 12.2317 23.7139C11.2478 24.2648 10.4217 25.059 9.83238 26.0204L1.82425 38.475C2.44482 37.5556 3.28702 36.8074 4.2731 36.2994C5.25917 35.7914 6.35734 35.5401 7.46621 35.5685C8.57507 35.597 9.6589 35.9044 10.6176 36.4623C11.5763 37.0202 12.379 37.8106 12.9516 38.7606L18.1933 46.0912C18.8053 46.9279 19.606 47.6084 20.5304 48.0775C21.4548 48.5467 22.4768 48.7912 23.5134 48.7912C24.55 48.7912 25.572 48.5467 26.4964 48.0775C27.4208 47.6084 28.2215 46.9279 28.8335 46.0912L28.8839 46.0072L29.2647 45.4471L37.1048 33.2166C36.4967 34.1057 35.6801 34.8325 34.7264 35.3332C33.7726 35.834 32.7107 36.0936 31.6335 36.0894Z" fill="#3152A0"/>
</g>
<defs>
<clipPath id="clip0_13461_39612">
<rect width="189.613" height="32.386" fill="white" transform="translate(0.693359 19.807)"/>
</clipPath>
</defs>
</svg>
