<svg width="24" height="24" viewBox="0 0 24 24" fill="none" xmlns="http://www.w3.org/2000/svg">
<g clip-path="url(#clip0_2272_13849)">
<path fill-rule="evenodd" clip-rule="evenodd" d="M7.0022 2.41667C7.0022 2.18655 6.81565 2 6.58553 2C6.35541 2 6.16886 2.18655 6.16886 2.41667V3.66667H3.2522C2.56184 3.66667 2.0022 4.22631 2.0022 4.91667V20.75C2.0022 21.4404 2.56184 22 3.2522 22H20.7522C21.4426 22 22.0022 21.4404 22.0022 20.75V4.91667C22.0022 4.22631 21.4426 3.66667 20.7522 3.66667H17.8355V2.41667C17.8355 2.18655 17.649 2 17.4189 2C17.1887 2 17.0022 2.18655 17.0022 2.41667V3.66667H7.0022V2.41667ZM21.1689 7.83333V4.91667C21.1689 4.68655 20.9823 4.5 20.7522 4.5H17.8355V6.58333C17.8355 6.81345 17.649 7 17.4189 7C17.1887 7 17.0022 6.81345 17.0022 6.58333V4.5H7.0022V6.58333C7.0022 6.81345 6.81565 7 6.58553 7C6.35541 7 6.16886 6.81345 6.16886 6.58333V4.5H3.2522C3.02208 4.5 2.83553 4.68655 2.83553 4.91667V7.83333H21.1689ZM2.83553 8.66667H21.1689V20.75C21.1689 20.9801 20.9823 21.1667 20.7522 21.1667H3.2522C3.02208 21.1667 2.83553 20.9801 2.83553 20.75V8.66667Z" fill="#36D0EB"/>
</g>
<defs>
<clipPath id="clip0_2272_13849">
<rect width="20" height="20" fill="white" transform="translate(2 2)"/>
</clipPath>
</defs>
</svg>
