<svg width="200" height="226" viewBox="0 0 200 226" fill="none" xmlns="http://www.w3.org/2000/svg">
<rect x="115" y="112" width="31" height="7" fill="white"/>
<path d="M64.9482 185.928L64.1226 184.27L63.4678 185.195L62.7637 186.234L62.0891 187.272L61.7281 187.847L61.3579 188.452L60.9833 189.082L60.6092 189.733L60.2405 190.399L59.882 191.076L59.5387 191.758C59.483 191.872 59.4282 191.986 59.3742 192.1L59.0628 192.781C57.8684 195.498 57.3303 198.053 58.8544 199.024C62.6646 201.453 70.2971 200.624 69.8335 197.612C69.794 197.359 69.7213 197.055 69.6214 196.712L69.4518 196.167L69.2456 195.569L69.0072 194.926L68.7409 194.246L68.2986 193.172L67.8179 192.056L67.3135 190.924L66.6294 189.435L65.8044 187.691L64.9482 185.928Z" fill="#693D51"/>
<path d="M30.4617 159.17L32.5725 160.124L31.544 160.808L30.5142 161.463L29.7697 161.919L28.9483 162.406L28.0651 162.91L27.4492 163.249L26.8169 163.585L26.1725 163.915L25.5204 164.233L24.8652 164.536L24.2111 164.821L23.5627 165.082C21.0934 166.032 18.8452 166.379 17.9376 165.082C15.4911 161.583 16.2555 154.537 19.2555 154.944C19.626 154.995 20.1055 155.112 20.6616 155.276L21.2422 155.457L21.8666 155.665L22.5279 155.899L23.5732 156.288L24.2952 156.567L25.7672 157.158L26.8676 157.615L28.9541 158.507L30.4617 159.17Z" fill="#693D51"/>
<path d="M54.3188 205.369L77.5605 158.448L78.5111 157.984L79.2122 157.62L80.3232 157.014L81.1043 156.57L81.9638 156.065L82.5773 155.694L83.554 155.085L84.593 154.415L85.6881 153.681L86.4464 153.157L87.2252 152.605L88.0227 152.024L88.8371 151.414L89.6666 150.776L90.5094 150.109L91.3636 149.413C98.2391 143.728 106.047 135.248 110.648 123.654L112.043 120.173L113.353 116.968L114.814 113.472L116.158 110.341L117.386 107.555L118.142 105.881L119.183 103.632L120.261 101.383L120.942 100.008L121.776 98.3845L122.647 96.7726L123.361 95.5388L123.783 94.8622L124.046 94.4753L128.164 93.0636L133.314 91.2696L139.606 89.0356L144.646 87.2052L146.885 86.3769L150.163 85.142L152.765 84.1375L154.723 83.3615L156.104 82.801L157.805 82.089L158.962 81.586L159.67 81.2674L160.324 80.9633L160.921 80.6748L161.457 80.403L161.929 80.1487C162.148 80.0262 162.342 79.9107 162.509 79.8027C167.87 76.3545 169.269 71.2074 167.177 70.1449C166.535 69.818 165.258 69.7802 163.801 69.8838L163.118 69.9411C163.002 69.9522 162.886 69.9639 162.769 69.9763L162.066 70.0578L161.362 70.1512L160.667 70.2535L159.663 70.4163L158.177 70.6859L156.404 71.0501L143.673 52.5444L143.953 52.5131L144.408 52.4429L144.701 52.3878L145.031 52.3169L145.393 52.2285L145.782 52.121L146.192 51.9925C146.262 51.9692 146.333 51.945 146.404 51.9198L146.838 51.7565C149.256 50.7905 152.096 48.6741 151.59 44.0956L151.034 43.8281L150.406 43.5424C150.296 43.4934 150.183 43.4435 150.066 43.393L148.948 42.9202L147.691 42.4129L145.818 41.6886L143.745 40.9167L141.501 40.1049L139.113 39.2612L135.32 37.9527L132.026 36.8396L126.644 35.0561L121.318 33.3239L112.248 30.4318L102.81 27.489L65.4176 50.2711L64.6478 50.7669L64.1669 51.0942C64.0888 51.1488 64.0117 51.2034 63.9356 51.2582L63.4908 51.5894C61.5405 53.093 60.2729 54.8144 59.1739 58.2558L58.9322 59.0495C58.8524 59.3239 58.7734 59.6084 58.6948 59.9035L58.4605 60.8215L58.228 61.807C58.1893 61.9771 58.1506 62.1502 58.112 62.3263L57.9414 63.1275L57.8188 63.7576L57.6787 64.52L57.3499 66.4173L56.856 69.4249L56.1587 73.8421L55.0882 80.8353L53.2885 92.9036L50.5063 111.974L46.7594 138.137L17.1288 170.936L17.4925 171.713L17.8696 172.468L18.278 173.237L18.6502 173.904L19.2392 174.908L19.7533 175.742L20.132 176.334L20.5402 176.954L20.9786 177.6L21.4479 178.272L21.9489 178.969L22.4822 179.689C22.6654 179.933 22.8542 180.18 23.0486 180.431L23.6488 181.195C23.7517 181.324 23.856 181.454 23.9617 181.584L24.6139 182.377L25.3016 183.189L26.0256 184.018L26.7866 184.864L27.5852 185.725C27.7215 185.869 27.8594 186.014 27.9989 186.16L28.8554 187.042C29.1474 187.338 29.446 187.636 29.7513 187.936L30.6874 188.841L31.6644 189.756C37.1516 194.818 44.5259 200.295 54.3188 205.369Z" fill="#EECEB5"/>
<path d="M146.257 73.1481L135.673 84.4894L168.311 72.8523C167.753 74.8525 166.009 77.3702 162.948 79.3582L162.773 79.468L162.372 79.7023L161.903 79.9552L161.372 80.2258L160.78 80.5131L160.132 80.8159L159.059 81.2972L157.878 81.8077L156.151 82.528L154.276 83.2861L152.787 83.8744L150.714 84.6786L147.469 85.9105L143.581 87.3535L136.533 89.9047L128.587 92.7067L124.863 93.9953L124.528 94.4963L124.186 95.0518L123.719 95.8531L123.123 96.929L122.394 98.3083L121.916 99.2438L120.97 101.158L120.365 102.419L119.541 104.178L118.641 106.147L117.25 109.28L115.934 112.334L114.747 115.151L113.995 116.966L112.675 120.204L111.557 122.994C108.223 131.394 103.205 138.154 98.0899 143.393L97.2124 144.276C96.3346 145.144 95.4565 145.968 94.5863 146.748L93.719 147.513L92.8587 148.249L92.0072 148.956L91.1662 149.634L90.3375 150.284L89.5229 150.905L88.7242 151.497L87.9431 152.061L87.1815 152.597L86.0794 153.348L85.031 154.037L84.0422 154.663L83.1192 155.228L82.2679 155.731L81.4943 156.173L80.594 156.669L79.8568 157.059L78.7582 157.602L55.6816 204.238C44.5328 198.454 36.5576 192.136 30.9539 186.526L30.0886 185.646C29.9477 185.5 29.8083 185.355 29.6706 185.211L28.8632 184.35C28.6004 184.066 28.3439 183.784 28.0935 183.505L27.3607 182.674L26.6642 181.861L26.0032 181.065C25.896 180.934 25.7902 180.804 25.6859 180.674L25.0769 179.907L24.5018 179.16C24.4087 179.037 24.317 178.916 24.2267 178.795L23.701 178.081L23.2073 177.39L22.7449 176.723L22.1086 175.771L21.7216 175.169L21.195 174.32L20.8789 173.791L20.4553 173.055L19.9815 172.188L19.6913 171.628L19.2679 170.755L18.9812 170.098L21.3205 167.497C22.0402 168.528 22.8606 169.559 23.7584 170.584L24.446 171.35L25.1604 172.113C25.2816 172.24 25.4038 172.367 25.527 172.493L26.2776 173.25C26.6585 173.626 27.0474 174.001 27.4431 174.374L28.2431 175.115C28.3779 175.238 28.5133 175.36 28.6493 175.483L29.4725 176.213L30.3083 176.934L31.1547 177.646C31.2965 177.764 31.4387 177.882 31.5812 177.999L32.4392 178.695L33.3023 179.381L34.1682 180.055L35.4677 181.042L36.7614 181.998L37.617 182.617L38.8846 183.515L39.716 184.093L40.9371 184.927L42.5052 185.974L43.6268 186.705L45.3704 187.817L47.2134 188.959L49.3451 190.234L50.7271 191.029L69.8686 155.622L77.9514 89.8506L79.4544 80.364L80.6201 73.2037L81.2175 69.6692L81.4705 68.2339L81.7692 66.6519L81.8746 66.1684L82.0454 65.4682L82.2276 64.7616C82.7994 62.636 83.6336 60.4732 85.705 58.7127L86.4886 58.0818L87.6284 57.1356L89.9167 55.19L94.663 51.1351L96.6744 49.4357L98.6403 47.7983L100.041 46.6537L100.922 45.947L101.751 45.2956C101.884 45.1922 102.015 45.0914 102.143 44.9935L102.876 44.4419C102.992 44.3562 103.105 44.2737 103.214 44.1947L103.831 43.7628C104.022 43.6335 104.198 43.5193 104.358 43.4217L106.66 43.9245L112.927 45.3251L115.892 45.967L117.759 46.3604L120.31 46.8817L122.246 47.2624L124.18 47.6272L125.458 47.8587L127.344 48.1836L128.573 48.3826L129.772 48.5655L130.936 48.7304L132.059 48.8755C132.426 48.9204 132.785 48.9616 133.136 48.999L134.16 49.0989L135.125 49.1735C135.437 49.194 135.738 49.2099 136.027 49.221C140.385 49.3954 145.785 48.367 150.1 47.2978L151.424 46.9601C151.638 46.9041 151.848 46.8482 152.054 46.7928C151.216 49.9847 148.309 51.3456 146.329 51.9113L145.874 52.0323L145.463 52.126L145.106 52.1955L144.692 52.2615L144.404 52.2956L150.914 61.8171L143.7 63.4157C146.797 67.4658 149.9 69.3103 152.325 70.1264L152.818 70.2809L153.289 70.4084C153.366 70.4276 153.441 70.4457 153.516 70.4628L153.954 70.5541L154.368 70.6242C154.435 70.6343 154.501 70.6435 154.565 70.652L154.941 70.6946L155.289 70.7217L155.756 70.7385L156.154 70.7336L156.57 70.7068L156.97 70.652C156.561 74.6038 153.633 75.0964 150.941 74.6716L150.44 74.5818L149.948 74.4742C149.867 74.455 149.787 74.4352 149.707 74.4149L149.237 74.2877L148.787 74.152L148.361 74.0115L147.962 73.87L147.425 73.664L146.844 73.4205L146.446 73.24L146.257 73.1481Z" fill="#E0A881"/>
<path d="M69.4255 196.679C54.448 197.296 23.6784 180.076 19.8296 154.805C15.3698 154.094 7.93979 161.345 8.29894 166.359C16.5443 192.589 39.4047 206.389 58.0318 208.258C62.3078 208.223 69.94 200.253 69.4255 196.679Z" fill="#824D65"/>
<path d="M188.453 0.0494155L127.54 0.337796C124.746 0.354779 122.072 1.47907 120.106 3.46416C118.139 5.44924 117.04 8.13313 117.05 10.9272L117.776 164.391C117.793 167.185 118.918 169.858 120.903 171.824C122.888 173.791 125.572 174.89 128.366 174.88L189.275 174.592C192.07 174.575 194.743 173.451 196.709 171.466C198.676 169.48 199.775 166.796 199.765 164.002L199.039 10.5391C199.022 7.74561 197.898 5.07278 195.914 3.1065C193.929 1.14022 191.246 0.0408821 188.453 0.0494155Z" fill="#E0E0E0"/>
<path d="M128.374 171.876C126.376 171.886 124.456 171.103 123.035 169.699C121.614 168.295 120.808 166.385 120.792 164.388L120.066 10.9138C120.063 8.91659 120.852 6.9996 122.259 5.58266C123.667 4.16572 125.579 3.36431 127.576 3.35392L136.069 3.31372L136.072 3.93097C136.08 5.52673 136.719 7.05445 137.851 8.17948C138.983 9.30451 140.514 9.93514 142.11 9.93321L173.986 9.78231C175.584 9.77006 177.112 9.12593 178.236 7.99062C179.361 6.85531 179.991 5.32108 179.988 3.72306L179.985 3.1058L188.474 3.06561C190.469 3.05992 192.385 3.84468 193.803 5.24814C195.22 6.6516 196.024 8.55946 196.038 10.5541L196.765 164.028C196.769 166.023 195.984 167.938 194.58 169.355C193.175 170.772 191.267 171.575 189.272 171.588L128.374 171.876Z" fill="white"/>
<path fill-rule="evenodd" clip-rule="evenodd" d="M155.743 77.0383C156.484 77.0383 157.085 76.4375 157.085 75.6964V72.3418C157.085 71.6008 156.484 71 155.743 71C155.002 71 154.401 71.6008 154.401 72.3418V75.6964C154.401 76.4375 155.002 77.0383 155.743 77.0383ZM150.681 78.0889C151.209 78.6012 152.049 78.6012 152.578 78.0889C153.102 77.5649 153.102 76.7155 152.578 76.1915L149.894 73.5078C149.368 72.9993 148.531 73.0066 148.013 73.5242C147.496 74.0418 147.488 74.8787 147.997 75.4052L150.681 78.0889ZM150.254 83.0767H146.899C146.158 83.0767 145.557 82.4759 145.557 81.7348C145.557 80.9937 146.158 80.393 146.899 80.393H150.254C150.995 80.393 151.596 80.9937 151.596 81.7348C151.596 82.4759 150.995 83.0767 150.254 83.0767ZM157.39 94.9772L152.828 99.5395C151.497 100.8 149.414 100.8 148.084 99.5395L146.66 98.1171C145.358 96.8036 145.358 94.6858 146.66 93.3724L151.223 88.8101C151.571 88.4732 151.711 87.9743 151.589 87.5052C151.466 87.036 151.099 86.6697 150.63 86.5469C150.161 86.4241 149.662 86.5639 149.325 86.9128L144.763 91.475C142.412 93.8362 142.412 97.6533 144.763 100.014L146.187 101.437C148.547 103.787 152.364 103.787 154.725 101.437L159.287 96.8746C159.636 96.5377 159.776 96.0388 159.653 95.5696C159.53 95.1005 159.164 94.7341 158.695 94.6113C158.226 94.4885 157.727 94.6284 157.39 94.9772ZM162.958 80.393H168.997C172.387 80.4208 175.138 83.1437 175.2 86.5332V89.2169C175.112 92.5758 172.324 95.2305 168.964 95.1532H162.958C162.217 95.1532 161.617 94.5524 161.617 93.8114C161.617 93.0703 162.217 92.4695 162.958 92.4695H168.964C170.833 92.5243 172.407 91.0832 172.516 89.2169V86.5332C172.43 84.6369 170.894 83.1288 168.997 83.0767H162.958C162.217 83.0767 161.617 82.4759 161.617 81.7348C161.617 80.9937 162.217 80.393 162.958 80.393Z" fill="#D9D9D9"/>
<path d="M59.6951 153.142L59.8546 154.788L62.8657 154.016L64.062 153.693L65.0299 153.416L65.7061 153.214L66.4055 152.996L67.1265 152.762L67.8677 152.511L68.6278 152.241L69.4052 151.953L70.1984 151.645C70.3319 151.592 70.466 151.538 70.6006 151.484L71.4151 151.144C71.6887 151.028 71.9644 150.907 72.2418 150.783L73.0795 150.399C73.3603 150.267 73.6428 150.131 73.9266 149.991L74.7816 149.559C75.354 149.262 75.9308 148.949 76.51 148.617L77.3805 148.106C77.5258 148.018 77.6712 147.929 77.8166 147.839L78.6899 147.285C85.0959 143.116 91.5086 136.573 95.3748 126.096L97.3036 120.827L99.3465 115.133L101.015 110.365L101.979 107.54L102.994 104.485L104 101.339L104.748 98.8561L105.096 97.6074L105.255 96.9764L107.959 94.4372L111.913 90.6565L114.864 87.7843L117.223 85.4524L119.233 83.4365L120.842 81.7989L122.432 80.1566L123.6 78.9314L124.738 77.7195L125.839 76.5275L126.895 75.3623L127.569 74.6037L128.216 73.862L128.835 73.1393L129.423 72.4375L129.978 71.7587L130.496 71.1048C130.58 70.998 130.661 70.8924 130.742 70.7879L131.202 70.1752C131.569 69.6769 131.891 69.2099 132.165 68.7793L132.92 67.5377L133.498 66.564L134.23 65.2889L134.743 64.351L135.065 63.735L135.37 63.1268L135.655 62.5265L135.92 61.9345C135.962 61.8365 136.003 61.7389 136.044 61.6417L136.275 61.0625C137.953 56.6558 137.471 53.0321 131.752 50.7118C128.784 49.508 125.085 51.3995 121.117 54.6013L120.319 55.2586C120.053 55.4832 119.785 55.7131 119.516 55.9477L118.707 56.6654C118.572 56.7872 118.436 56.9101 118.301 57.034L117.485 57.7886L116.666 58.5639L115.432 59.7586L114.195 60.982L112.135 63.0556L109.272 65.9478L108.062 67.1538L107.262 67.9387L106.075 69.0794L105.293 69.8108L104.521 70.5153C102.346 72.4702 100.288 74.0626 98.4305 74.9678C98.0932 75.1322 97.7524 75.2928 97.4085 75.4503L96.367 75.9139L95.3073 76.3622C95.1292 76.4358 94.9504 76.509 94.7709 76.5817L93.6857 77.0138C93.5035 77.0852 93.3207 77.1563 93.1373 77.2273L88.0493 79.1531L86.8877 79.6021L85.7172 80.0665L84.539 80.5501C78.2367 83.1866 71.6521 86.7933 65.5464 93.8438C61.4183 98.6023 59.6056 108.545 58.9448 119.044L58.8499 120.706L58.7731 122.373C58.7504 122.929 58.7305 123.485 58.7134 124.041L58.6697 125.706L58.6412 127.364L58.6267 129.012C58.6254 129.285 58.6247 129.558 58.6244 129.83L58.6358 132.257L58.672 134.632L58.7081 136.18L58.7528 137.695L58.8333 139.895L58.8946 141.309L58.9954 143.34L59.1038 145.25L59.2541 147.586L59.44 150.122L59.6951 153.142Z" fill="#EECEB5"/>
</svg>
