<svg width="13" height="13" viewBox="0 0 13 13" fill="none" xmlns="http://www.w3.org/2000/svg">
<path fill-rule="evenodd" clip-rule="evenodd" d="M11.4167 0.433756L12.5667 1.58426C13.0935 2.11275 13.0935 2.96785 12.5667 3.49634L11.7997 4.26496C11.6939 4.37069 11.5225 4.37069 11.4167 4.26496L8.73547 1.58426C8.62974 1.4785 8.62974 1.30706 8.73547 1.2013L9.50355 0.433756C10.0322 -0.0938041 10.8881 -0.0938041 11.4167 0.433756ZM8.1613 2.15951C8.11059 2.10835 8.04158 2.0795 7.96955 2.07934C7.89759 2.07935 7.8286 2.108 7.7778 2.15896L1.86172 8.07667C1.75599 8.18243 1.75599 8.35387 1.86172 8.45963L4.54188 11.1398C4.64764 11.2455 4.81908 11.2455 4.92484 11.1398L10.8382 5.22642C10.9436 5.12072 10.9436 4.9497 10.8382 4.84401L8.1613 2.15951ZM1.31626 9.10042C1.2469 9.03129 1.14562 9.00499 1.05138 9.03163C0.956995 9.0581 0.884279 9.13351 0.861257 9.2288L0.0455071 12.6288C0.0236159 12.7205 0.0508976 12.8169 0.117549 12.8834C0.184594 12.9492 0.280627 12.9762 0.372132 12.9549L3.76947 12.1424C3.86486 12.1196 3.94045 12.047 3.96709 11.9526C3.99372 11.8582 3.96723 11.7567 3.89784 11.6874L1.31626 9.10042Z" fill="#333333"/>
<mask id="mask0_3268_48693" style="mask-type:alpha" maskUnits="userSpaceOnUse" x="0" y="0" width="13" height="13">
<path fill-rule="evenodd" clip-rule="evenodd" d="M11.4167 0.433756L12.5667 1.58426C13.0935 2.11275 13.0935 2.96785 12.5667 3.49634L11.7997 4.26496C11.6939 4.37069 11.5225 4.37069 11.4167 4.26496L8.73547 1.58426C8.62974 1.4785 8.62974 1.30706 8.73547 1.2013L9.50355 0.433756C10.0322 -0.0938041 10.8881 -0.0938041 11.4167 0.433756ZM8.1613 2.15951C8.11059 2.10835 8.04158 2.0795 7.96955 2.07934C7.89759 2.07935 7.8286 2.108 7.7778 2.15896L1.86172 8.07667C1.75599 8.18243 1.75599 8.35387 1.86172 8.45963L4.54188 11.1398C4.64764 11.2455 4.81908 11.2455 4.92484 11.1398L10.8382 5.22642C10.9436 5.12072 10.9436 4.9497 10.8382 4.84401L8.1613 2.15951ZM1.31626 9.10042C1.2469 9.03129 1.14562 9.00499 1.05138 9.03163C0.956995 9.0581 0.884279 9.13351 0.861257 9.2288L0.0455071 12.6288C0.0236159 12.7205 0.0508976 12.8169 0.117549 12.8834C0.184594 12.9492 0.280627 12.9762 0.372132 12.9549L3.76947 12.1424C3.86486 12.1196 3.94045 12.047 3.96709 11.9526C3.99372 11.8582 3.96723 11.7567 3.89784 11.6874L1.31626 9.10042Z" fill="white"/>
</mask>
<g mask="url(#mask0_3268_48693)">
</g>
</svg>
