<svg width="24" height="24" viewBox="0 0 24 24" fill="none" xmlns="http://www.w3.org/2000/svg">
<path d="M8.3498 21.0118L1 23.2353L3.09994 15.4531L15.6629 2.15124C16.0076 1.78625 16.4168 1.49673 16.8672 1.2992C17.3176 1.10167 17.8003 1 18.2878 1C18.7753 1 19.258 1.10167 19.7084 1.2992C20.1588 1.49673 20.568 1.78625 20.9127 2.15124C21.2574 2.51623 21.5309 2.94953 21.7174 3.42641C21.904 3.90329 22 4.41441 22 4.93058C22 5.44675 21.904 5.95786 21.7174 6.43474C21.5309 6.91162 21.2574 7.34493 20.9127 7.70991L8.3498 21.0118Z" stroke="black" stroke-linecap="round" stroke-linejoin="round"/>
<path d="M14.5664 3.49316L19.5505 8.39103" stroke="black" stroke-linecap="round" stroke-linejoin="round"/>
<path d="M3.4707 15.8672L8.45481 20.7651" stroke="black" stroke-linecap="round" stroke-linejoin="round"/>
</svg>
