<svg width="12" height="12" viewBox="0 0 12 12" fill="none" xmlns="http://www.w3.org/2000/svg">
<g clip-path="url(#clip0_30_3367)">
<path fill-rule="evenodd" clip-rule="evenodd" d="M0.246884 0.00892364C-0.00765399 0.0810715 -0.121966 0.390761 0.0248755 0.610402C0.0793547 0.691901 11.287 11.8911 11.3572 11.9343C11.4279 11.9777 11.5421 11.9977 11.6273 11.9815C11.7441 11.9594 11.8265 11.9053 11.8905 11.809C11.9747 11.6823 11.9777 11.5069 11.8979 11.3835C11.8771 11.3513 9.32308 8.78967 6.22238 5.69102C1.56154 1.03327 0.574308 0.0525461 0.524519 0.0307349C0.448689 -0.00249159 0.322217 -0.012429 0.246884 0.00892364ZM2.48974 0.00985368C2.26534 0.0703442 2.14189 0.315211 2.2245 0.53591C2.25734 0.623639 2.34832 0.720248 2.43638 0.760902L2.49673 0.788765L4.18248 0.792179C5.68111 0.795211 5.86823 0.797747 5.86823 0.814959C5.86823 0.825622 5.78177 1.48052 5.6761 2.27031C5.53354 3.33571 5.48593 3.72408 5.49163 3.77529C5.50737 3.91696 5.629 4.06374 5.76288 4.10263C5.85944 4.1307 5.98389 4.12222 6.06347 4.08217C6.13726 4.04502 6.21854 3.9601 6.25144 3.88577C6.26908 3.84591 6.32814 3.4354 6.47353 2.34198C6.58247 1.52274 6.6745 0.839573 6.67805 0.8238L6.6845 0.795135L8.60581 0.795326C10.7325 0.79553 10.608 0.790752 10.7754 0.878685C10.9313 0.960567 11.0808 1.14138 11.133 1.31111C11.1424 1.34175 11.1518 1.48651 11.1566 1.67421C11.1644 1.98305 11.1648 1.98711 11.2002 2.05914C11.3212 2.30528 11.6447 2.36114 11.8369 2.16905C11.9408 2.06522 11.9528 2.02429 11.9588 1.75449C11.9649 1.47917 11.9475 1.27889 11.9033 1.11409C11.7447 0.523195 11.2296 0.0816448 10.6103 0.00573858C10.4427 -0.0148114 2.56642 -0.0108237 2.48974 0.00985368ZM5.15839 7.52153C5.03621 7.58326 4.96679 7.67642 4.93972 7.81499C4.9322 7.85353 4.82717 8.6288 4.70632 9.53781L4.4866 11.1906L3.49167 11.194L2.49673 11.1975L2.4239 11.2333C2.24171 11.3227 2.15148 11.542 2.22132 11.7257C2.27193 11.8589 2.38523 11.9548 2.52223 11.9806C2.57773 11.9911 3.22621 11.994 4.88673 11.9912L7.17476 11.9874L7.24692 11.952C7.3263 11.913 7.3939 11.8459 7.43849 11.7618C7.48091 11.6818 7.48076 11.5025 7.43818 11.4205C7.39631 11.3398 7.31595 11.2614 7.23975 11.2269L7.17476 11.1975L6.23469 11.194C5.71766 11.1921 5.29463 11.1891 5.29463 11.1875C5.29463 11.1858 5.39214 10.4536 5.51132 9.5604C5.6305 8.66718 5.72801 7.90138 5.72801 7.8586C5.72801 7.79742 5.71973 7.76427 5.68917 7.70316C5.61806 7.56093 5.51291 7.49472 5.34561 7.4868C5.2444 7.48201 5.23207 7.48431 5.15839 7.52153Z" fill="#666666"/>
</g>
<defs>
<clipPath id="clip0_30_3367">
<rect width="12" height="12" fill="white"/>
</clipPath>
</defs>
</svg>
