<svg width="212" height="315" viewBox="0 0 212 315" fill="none" xmlns="http://www.w3.org/2000/svg">
<g filter="url(#filter0_d_4730_48827)">
<g clip-path="url(#clip0_4730_48827)">
<rect x="16.3418" y="26.0371" width="148.137" height="228.058" rx="12" transform="rotate(-7 16.3418 26.0371)" fill="#1A1A1A"/>
<g filter="url(#filter1_d_4730_48827)">
<rect x="22.7368" y="78.1191" width="148.137" height="213.527" rx="12" transform="rotate(-7 22.7368 78.1191)" fill="#333333"/>
</g>
<rect x="68.6824" y="84.6787" width="74.2701" height="6.45827" rx="3.22914" transform="rotate(-7 68.6824 84.6787)" fill="#C4C4C4"/>
<rect x="70.2566" y="97.499" width="50.4552" height="6.45827" rx="3.22914" transform="rotate(-7 70.2566 97.499)" fill="#C4C4C4"/>
<circle cx="44.6234" cy="97.3926" r="9.68741" transform="rotate(-7 44.6234 97.3926)" fill="#C4C4C4"/>
<rect x="72.8635" y="118.732" width="87.5903" height="6.45827" rx="3.22914" transform="rotate(-7 72.8635 118.732)" fill="#C4C4C4"/>
<rect x="74.4377" y="131.553" width="50.4552" height="6.45827" rx="3.22914" transform="rotate(-7 74.4377 131.553)" fill="#C4C4C4"/>
<circle cx="48.8046" cy="131.446" r="9.68741" transform="rotate(-7 48.8046 131.446)" fill="#C4C4C4"/>
<rect x="77.0449" y="152.786" width="63.7754" height="6.45827" rx="3.22914" transform="rotate(-7 77.0449 152.786)" fill="#C4C4C4"/>
<rect x="78.6191" y="165.606" width="50.4552" height="6.45827" rx="3.22914" transform="rotate(-7 78.6191 165.606)" fill="#C4C4C4"/>
<circle cx="52.986" cy="165.5" r="9.68741" transform="rotate(-7 52.986 165.5)" fill="#C4C4C4"/>
<rect x="81.2261" y="186.84" width="74.2701" height="6.45827" rx="3.22914" transform="rotate(-7 81.2261 186.84)" fill="#C4C4C4"/>
<rect x="82.8003" y="199.66" width="50.4552" height="6.45827" rx="3.22914" transform="rotate(-7 82.8003 199.66)" fill="#C4C4C4"/>
<circle cx="57.1671" cy="199.554" r="9.68741" transform="rotate(-7 57.1671 199.554)" fill="#C4C4C4"/>
<rect x="85.4075" y="220.894" width="90.4158" height="6.45827" rx="3.22914" transform="rotate(-7 85.4075 220.894)" fill="#C4C4C4"/>
<rect x="86.9817" y="233.714" width="41.5751" height="6.45827" rx="3.22914" transform="rotate(-7 86.9817 233.714)" fill="#C4C4C4"/>
<circle cx="61.3485" cy="233.607" r="9.68741" transform="rotate(-7 61.3485 233.607)" fill="#C4C4C4"/>
<rect x="89.5886" y="254.947" width="74.2701" height="6.45827" rx="3.22914" transform="rotate(-7 89.5886 254.947)" fill="#C4C4C4"/>
<rect x="91.1628" y="267.768" width="50.4552" height="6.45827" rx="3.22914" transform="rotate(-7 91.1628 267.768)" fill="#C4C4C4"/>
<circle cx="65.5299" cy="267.661" r="9.68741" transform="rotate(-7 65.5299 267.661)" fill="#C4C4C4"/>
<rect x="29.5576" y="51.6172" width="107" height="15" rx="7.5" transform="rotate(-7 29.5576 51.6172)" fill="#E0E0E0"/>
<rect width="38.7496" height="16.5493" rx="8.27466" transform="matrix(0.992546 -0.121869 -0.121869 -0.992546 149.838 268.696)" fill="#F2357A"/>
<rect width="9.68741" height="10.091" rx="4.8437" transform="matrix(0.992546 -0.121869 -0.121869 -0.992546 147.216 49.8213)" fill="#E0E0E0"/>
<rect width="57.7208" height="10.091" rx="5.04552" transform="matrix(0.992546 -0.121869 -0.121869 -0.992546 63.1755 40.165)" fill="#FAFAFA"/>
<rect width="9.68741" height="10.091" rx="4.8437" transform="matrix(0.992546 -0.121869 -0.121869 -0.992546 144.358 30.1973)" fill="#E0E0E0"/>
<rect width="9.68741" height="10.091" rx="4.8437" transform="matrix(0.992546 -0.121869 -0.121869 -0.992546 28.2297 44.4561)" fill="#E0E0E0"/>
</g>
</g>
<path opacity="0.5" fill-rule="evenodd" clip-rule="evenodd" d="M36.8267 248.287C36.8267 246.071 38.9707 244.487 41.0885 245.139L77.3152 256.286C78.697 256.711 79.64 257.988 79.64 259.433V290.415C79.64 292.631 77.4959 294.215 75.3781 293.563L39.1515 282.416C37.7696 281.991 36.8267 280.715 36.8267 279.269V248.287Z" fill="#FF9ABF"/>
<path opacity="0.8" fill-rule="evenodd" clip-rule="evenodd" d="M28.5935 253.556C28.5935 251.341 30.7376 249.757 32.8554 250.409L69.082 261.555C70.4639 261.98 71.4068 263.257 71.4068 264.703V295.685C71.4068 297.901 69.2628 299.484 67.145 298.833L30.9183 287.686C29.5365 287.261 28.5935 285.984 28.5935 284.538V253.556Z" fill="#F789B2"/>
<path fill-rule="evenodd" clip-rule="evenodd" d="M20.3601 260.143C20.3601 257.927 22.5042 256.344 24.622 256.996L60.8486 268.142C62.2305 268.567 63.1734 269.844 63.1734 271.29V302.272C63.1734 304.488 61.0294 306.071 58.9116 305.42L22.6849 294.273C21.3031 293.848 20.3601 292.571 20.3601 291.125V260.143Z" fill="#FF5B97"/>
<mask id="mask0_4730_48827" style="mask-type:alpha" maskUnits="userSpaceOnUse" x="20" y="256" width="44" height="50">
<path fill-rule="evenodd" clip-rule="evenodd" d="M20.3601 260.143C20.3601 257.927 22.5042 256.344 24.622 256.996L60.8486 268.142C62.2305 268.567 63.1734 269.844 63.1734 271.29V302.272C63.1734 304.488 61.0294 306.071 58.9116 305.42L22.6849 294.273C21.3031 293.848 20.3601 292.571 20.3601 291.125V260.143Z" fill="white"/>
</mask>
<g mask="url(#mask0_4730_48827)">
<g style="mix-blend-mode:multiply">
<path fill-rule="evenodd" clip-rule="evenodd" d="M20.3601 255.684L63.1734 268.857L41.6467 288.035C40.0395 289.467 37.5133 288.998 36.5279 287.084L20.3601 255.684Z" fill="#F2357A"/>
</g>
<g style="mix-blend-mode:multiply">
<path fill-rule="evenodd" clip-rule="evenodd" d="M20.3601 255.684L63.1734 268.857L41.6467 288.035C40.0395 289.467 37.5133 288.998 36.5279 287.084L20.3601 255.684Z" fill="#F2357A"/>
</g>
</g>
<defs>
<filter id="filter0_d_4730_48827" x="-0.658203" y="-1" width="213.314" height="316.055" filterUnits="userSpaceOnUse" color-interpolation-filters="sRGB">
<feFlood flood-opacity="0" result="BackgroundImageFix"/>
<feColorMatrix in="SourceAlpha" type="matrix" values="0 0 0 0 0 0 0 0 0 0 0 0 0 0 0 0 0 0 127 0" result="hardAlpha"/>
<feOffset dy="8"/>
<feGaussianBlur stdDeviation="8.5"/>
<feComposite in2="hardAlpha" operator="out"/>
<feColorMatrix type="matrix" values="0 0 0 0 1 0 0 0 0 1 0 0 0 0 1 0 0 0 0.1 0"/>
<feBlend mode="normal" in2="BackgroundImageFix" result="effect1_dropShadow_4730_48827"/>
<feBlend mode="normal" in="SourceGraphic" in2="effect1_dropShadow_4730_48827" result="shape"/>
</filter>
<filter id="filter1_d_4730_48827" x="15.6086" y="52.9375" width="188.311" height="245.245" filterUnits="userSpaceOnUse" color-interpolation-filters="sRGB">
<feFlood flood-opacity="0" result="BackgroundImageFix"/>
<feColorMatrix in="SourceAlpha" type="matrix" values="0 0 0 0 0 0 0 0 0 0 0 0 0 0 0 0 0 0 127 0" result="hardAlpha"/>
<feMorphology radius="1" operator="erode" in="SourceAlpha" result="effect1_dropShadow_4730_48827"/>
<feOffset dx="0.5" dy="0.5"/>
<feGaussianBlur stdDeviation="5"/>
<feComposite in2="hardAlpha" operator="out"/>
<feColorMatrix type="matrix" values="0 0 0 0 0 0 0 0 0 0 0 0 0 0 0 0 0 0 0.15 0"/>
<feBlend mode="normal" in2="BackgroundImageFix" result="effect1_dropShadow_4730_48827"/>
<feBlend mode="normal" in="SourceGraphic" in2="effect1_dropShadow_4730_48827" result="shape"/>
</filter>
<clipPath id="clip0_4730_48827">
<rect x="16.3418" y="26.0371" width="148" height="266" rx="12" transform="rotate(-7 16.3418 26.0371)" fill="white"/>
</clipPath>
</defs>
</svg>
