<svg width="24" height="24" viewBox="0 0 24 24" fill="none" xmlns="http://www.w3.org/2000/svg">
<path fill-rule="evenodd" clip-rule="evenodd" d="M4.43934 0.68933C4.72065 0.408036 5.10217 0.25 5.5 0.25H18.5C18.8978 0.25 19.2794 0.408016 19.5607 0.689368C19.8419 0.970623 20 1.35212 20 1.75V23.25C20 23.5261 19.7761 23.75 19.5 23.75H4.5C4.22386 23.75 4 23.5261 4 23.25V1.75C4 1.35217 4.15806 0.97063 4.43934 0.68933ZM5.14644 1.39645C5.14643 1.39646 5.14644 1.39644 5.14644 1.39645C5.24021 1.30269 5.3674 1.25 5.5 1.25H18.5C18.6326 1.25 18.7598 1.3027 18.8535 1.39641C18.9473 1.49023 19 1.61744 19 1.75V22.75H5V1.75C5 1.6174 5.05267 1.49023 5.14644 1.39645Z" fill="#666666"/>
<path fill-rule="evenodd" clip-rule="evenodd" d="M1 23.25C1 22.9739 1.22386 22.75 1.5 22.75H22.5C22.7761 22.75 23 22.9739 23 23.25C23 23.5261 22.7761 23.75 22.5 23.75H1.5C1.22386 23.75 1 23.5261 1 23.25Z" fill="#666666"/>
<path fill-rule="evenodd" clip-rule="evenodd" d="M7.75 11.625C7.75 11.3489 7.97386 11.125 8.25 11.125C8.73326 11.125 9.125 11.5168 9.125 12C9.125 12.4832 8.73326 12.875 8.25 12.875C7.97386 12.875 7.75 12.6511 7.75 12.375C7.75 12.2257 7.81547 12.0916 7.91927 12C7.81547 11.9084 7.75 11.7743 7.75 11.625Z" fill="#666666"/>
<path fill-rule="evenodd" clip-rule="evenodd" d="M8.58073 12C8.68453 11.9084 8.75 11.7743 8.75 11.625C8.75 11.3489 8.52614 11.125 8.25 11.125C7.76674 11.125 7.375 11.5168 7.375 12C7.375 12.4832 7.76674 12.875 8.25 12.875C8.52614 12.875 8.75 12.6511 8.75 12.375C8.75 12.2257 8.68453 12.0916 8.58073 12Z" fill="#666666"/>
</svg>
