<svg width="24" height="24" viewBox="0 0 24 24" fill="none" xmlns="http://www.w3.org/2000/svg">
<g clip-path="url(#clip0_3268_48594)">
<path d="M13.4974 24.0028C13.3114 24.0028 13.1424 23.9008 13.0554 23.7368L8.6274 15.3728L0.263403 10.9448C0.0944028 10.8558 -0.00959715 10.6748 -0.00259715 10.4838C0.00440285 10.2938 0.122403 10.1208 0.297403 10.0448L23.2974 0.0448359C23.3094 0.0398359 23.3234 0.0348359 23.3364 0.0318359C23.3394 0.0308359 23.3424 0.0298359 23.3454 0.0298359C23.3894 0.0158359 23.4324 0.00783594 23.4754 0.00683594C23.4754 0.00683594 23.5184 0.00783594 23.5264 0.00783594C23.5694 0.0108359 23.6114 0.0188359 23.6514 0.0318359C23.6704 0.0378359 23.6844 0.0428359 23.6994 0.0498359C23.7614 0.0778359 23.8094 0.110836 23.8504 0.151836C23.8914 0.191836 23.9244 0.240836 23.9504 0.299836C23.9544 0.308836 23.9654 0.337836 23.9684 0.347836C23.9824 0.389836 23.9904 0.431836 23.9924 0.473836C23.9934 0.486836 23.9944 0.503836 23.9944 0.521836C23.9924 0.569836 23.9844 0.613836 23.9704 0.654836C23.9714 0.656836 23.9704 0.659836 23.9704 0.662836C23.9664 0.676836 23.9614 0.691836 23.9564 0.704836L13.9574 23.7028C13.8814 23.8778 13.7084 23.9958 13.5184 24.0028C13.5134 24.0028 13.5014 24.0028 13.4974 24.0028ZM13.4534 22.3508L21.9894 2.71884L9.6124 15.0958L13.4534 22.3508ZM8.9054 14.3888L21.2824 2.01184L1.6504 10.5478L8.9054 14.3888Z" fill="#0098FF"/>
</g>
<defs>
<clipPath id="clip0_3268_48594">
<rect width="24" height="24" fill="white"/>
</clipPath>
</defs>
</svg>
