<svg width="150" height="155" viewBox="0 0 150 155" fill="none" xmlns="http://www.w3.org/2000/svg">
<path d="M10.4913 66C-24.6771 107.5 47.1545 155.5 75.3229 118C95.5771 91.0361 62.536 77.9233 38.8229 95.5C10.4913 116.5 32.8229 183 84.3229 139" stroke="#0098FF" stroke-width="2" stroke-dasharray="4 4"/>
<path d="M27.9912 40L21.9912 62L13.8622 54.761L21.6642 46.527L11.2062 53.754L3.99121 52L27.9912 40ZM12.9912 56.668V64L16.2492 59.569L12.9912 56.668Z" fill="#0098FF"/>
<path d="M83.3229 10.0664L96.9092 23.5322L99.7785 14.8637L90.6569 12.1543L101.286 13.0182L105.791 8.71772L83.3229 10.0664ZM101.211 15.8838L104.286 21.2103L100.061 19.3578L101.211 15.8838Z" fill="#0098FF"/>
<path d="M94.9912 66L106.991 110L123.249 95.522L107.645 79.054L128.561 93.508L142.991 90L94.9912 66ZM124.991 99.336V114L118.475 105.138L124.991 99.336Z" fill="#0098FF"/>
<rect x="73.9912" y="44" width="1" height="7" fill="#0098FF"/>
<rect x="77.9912" y="47" width="1" height="7" transform="rotate(90 77.9912 47)" fill="#0098FF"/>
<rect x="95.9912" y="126" width="1" height="7" fill="#0098FF"/>
<rect x="99.9912" y="129" width="1" height="7" transform="rotate(90 99.9912 129)" fill="#0098FF"/>
<rect x="145.991" y="57" width="1" height="7" fill="#0098FF"/>
<rect x="149.991" y="60" width="1" height="7" transform="rotate(90 149.991 60)" fill="#0098FF"/>
</svg>
