<svg width="24" height="24" viewBox="0 0 24 24" fill="none" xmlns="http://www.w3.org/2000/svg">
<g clip-path="url(#clip0_4747_50311)">
<path d="M1.5 22.3996C0.673 22.3996 0 21.8163 0 21.0996V4.63294C0 3.91621 0.673 3.33294 1.5 3.33294H5V2.03294C5 1.79374 5.224 1.59961 5.5 1.59961C5.776 1.59961 6 1.79374 6 2.03294V3.33294H18V2.03294C18 1.79374 18.224 1.59961 18.5 1.59961C18.776 1.59961 19 1.79374 19 2.03294V3.33294H22.5C23.327 3.33294 24 3.91621 24 4.63294V21.0996C24 21.8163 23.327 22.3996 22.5 22.3996H1.5ZM1 21.0996C1 21.3388 1.224 21.5329 1.5 21.5329H22.5C22.776 21.5329 23 21.3388 23 21.0996V8.53294H1V21.0996ZM23 7.66628V4.63294C23 4.39374 22.776 4.19961 22.5 4.19961H19V6.36628C19 6.60548 18.776 6.79961 18.5 6.79961C18.224 6.79961 18 6.60548 18 6.36628V4.19961H6V6.36628C6 6.60548 5.776 6.79961 5.5 6.79961C5.224 6.79961 5 6.60548 5 6.36628V4.19961H1.5C1.224 4.19961 1 4.39374 1 4.63294V7.66628H23Z" fill="#333333"/>
</g>
<defs>
<clipPath id="clip0_4747_50311">
<rect width="24" height="24" fill="white"/>
</clipPath>
</defs>
</svg>
