<svg width="15" height="11" viewBox="0 0 15 11" fill="none" xmlns="http://www.w3.org/2000/svg">
<path d="M14.7439 9.83333V1.90278C14.7439 1.35049 14.2962 0.902778 13.7439 0.902778H12.9009V1.35417C12.9009 1.85205 12.3499 2.25694 11.6723 2.25694C10.9947 2.25694 10.4436 1.85205 10.4436 1.35417V0.902778H4.3003V1.35417C4.3003 1.85205 3.74925 2.25694 3.07165 2.25694C2.39404 2.25694 1.84299 1.85205 1.84299 1.35417V0.902778H1C0.447715 0.902778 0 1.35049 0 1.90278V9.83333C0 10.3856 0.447715 10.8333 1 10.8333H13.7439C14.2962 10.8333 14.7439 10.3856 14.7439 9.83333Z" fill="black"/>
<path d="M11.6723 0C12.012 0 12.2866 0.202222 12.2866 0.451389V1.35417C12.2866 1.60333 12.012 1.80556 11.6723 1.80556C11.3325 1.80556 11.0579 1.60333 11.0579 1.35417V0.451389C11.0579 0.202222 11.3325 0 11.6723 0Z" fill="black"/>
<path d="M3.07165 1.80556C3.41137 1.80556 3.68598 1.60333 3.68598 1.35417V0.451389C3.68598 0.202222 3.41137 0 3.07165 0C2.73192 0 2.45732 0.202222 2.45732 0.451389V1.35417C2.45732 1.60333 2.73192 1.80556 3.07165 1.80556Z" fill="black"/>
<rect x="1.22949" y="3.79102" width="12.2866" height="5.95833" fill="white"/>
</svg>
