<svg width="14" height="14" viewBox="0 0 14 14" fill="none" xmlns="http://www.w3.org/2000/svg">
<path d="M12.25 1.75H10.6458C10.6072 1.75 10.5701 1.73464 10.5427 1.70729C10.5154 1.67994 10.5 1.64284 10.5 1.60417V0.583333C10.5 0.428624 10.4385 0.280251 10.3291 0.170854C10.2198 0.0614582 10.0714 0 9.91667 0C9.76196 0 9.61358 0.0614582 9.50419 0.170854C9.39479 0.280251 9.33333 0.428624 9.33333 0.583333V3.35417C9.33333 3.4702 9.28724 3.58148 9.20519 3.66353C9.12315 3.74557 9.01187 3.79167 8.89583 3.79167V3.79167C8.7798 3.79167 8.66852 3.74557 8.58647 3.66353C8.50443 3.58148 8.45833 3.4702 8.45833 3.35417V2.04167C8.45833 1.96431 8.42761 1.89013 8.37291 1.83543C8.31821 1.78073 8.24402 1.75 8.16667 1.75H4.52083C4.48226 1.75 4.44525 1.73472 4.41792 1.70749C4.39059 1.68027 4.37515 1.64333 4.375 1.60475V0.583333C4.375 0.428624 4.31354 0.280251 4.20415 0.170854C4.09475 0.0614582 3.94638 0 3.79167 0C3.63696 0 3.48858 0.0614582 3.37919 0.170854C3.26979 0.280251 3.20833 0.428624 3.20833 0.583333V3.35417C3.20833 3.4702 3.16224 3.58148 3.08019 3.66353C2.99815 3.74557 2.88687 3.79167 2.77083 3.79167C2.6548 3.79167 2.54352 3.74557 2.46147 3.66353C2.37943 3.58148 2.33333 3.4702 2.33333 3.35417V2.04167C2.33333 1.96431 2.3026 1.89013 2.24791 1.83543C2.19321 1.78073 2.11902 1.75 2.04167 1.75H1.16667C0.857247 1.75 0.560501 1.87292 0.341709 2.09171C0.122916 2.3105 0 2.60725 0 2.91667V12.8333C0 13.1428 0.122916 13.4395 0.341709 13.6583C0.560501 13.8771 0.857247 14 1.16667 14H12.25C12.5594 14 12.8562 13.8771 13.075 13.6583C13.2938 13.4395 13.4167 13.1428 13.4167 12.8333V2.91667C13.4167 2.60725 13.2938 2.3105 13.075 2.09171C12.8562 1.87292 12.5594 1.75 12.25 1.75ZM11.9583 12.8333H1.45833C1.38098 12.8333 1.30679 12.8026 1.25209 12.7479C1.1974 12.6932 1.16667 12.619 1.16667 12.5417V5.54167C1.16667 5.46431 1.1974 5.39012 1.25209 5.33543C1.30679 5.28073 1.38098 5.25 1.45833 5.25H11.9583C12.0357 5.25 12.1099 5.28073 12.1646 5.33543C12.2193 5.39012 12.25 5.46431 12.25 5.54167V12.5417C12.25 12.619 12.2193 12.6932 12.1646 12.7479C12.1099 12.8026 12.0357 12.8333 11.9583 12.8333Z" fill="#333333"/>
</svg>
