<svg width="100" height="93" viewBox="0 0 100 93" fill="none" xmlns="http://www.w3.org/2000/svg">
<path d="M70.9156 48.5245L70.9011 48.2899H70.666H18.4641H18.2291L18.2146 48.5245L15.5376 91.8923L15.5212 92.1577H15.7871H73.3431H73.609L73.5926 91.8923L70.9156 48.5245Z" fill="#FAFAFA" stroke="#9F9F9F" stroke-width="0.5"/>
<path d="M42.8419 61.8C42.8419 65.1796 44.1018 68.4351 45.2901 71.5696C45.8053 72.9287 46.4698 74.345 46.5786 75.8097C46.6246 76.4285 46.8579 77.4294 46.5285 77.9962C45.9404 79.0083 43.1367 78.7721 42.2835 78.7531C39.505 78.6916 36.6844 78.2103 34.1084 77.1623C33.5293 76.9266 32.4573 76.5422 32.8127 75.7185C33.3246 74.5326 35.326 73.7846 36.3705 73.2586C39.7264 71.569 43.1918 70.3826 46.9079 69.7545C48.6268 69.4639 50.4064 69.0737 52.1551 68.9976C52.4414 68.9851 53.3906 68.8972 52.5345 69.0466C47.7497 69.8818 42.9946 70.9011 38.2174 71.7799C35.5446 72.2715 32.8566 72.7295 30.1712 73.1535C29.3583 73.2819 26.9313 73.6974 27.723 73.4759C29.7593 72.9063 31.7164 71.9971 33.7219 71.3313C39.2075 69.5102 45.065 68.2087 50.8022 67.4487C54.2484 66.9923 57.7168 66.7717 61.1677 66.3695C62.0904 66.2619 63.0418 66.0891 63.9739 66.0891" stroke="#0098FF" stroke-width="0.5" stroke-linecap="round"/>
<path d="M15.7871 13.2209H15.5173L15.5378 13.49L18.2146 48.559L18.2322 48.7899H18.4638H70.6601H70.8918L70.9094 48.559L72.7892 23.9304L72.7975 23.8217L72.7236 23.7417L63.0813 13.3013L63.007 13.2209H62.8976H15.7871Z" fill="#FAFAFA" stroke="#9F9F9F" stroke-width="0.5"/>
<path d="M63.3597 13.7083L62.9993 13.3222L62.9292 13.8457L61.5842 23.8781L61.5463 24.1612L61.8319 24.1613L72.5464 24.1677L73.1221 24.1681L72.7293 23.7472L63.3597 13.7083Z" fill="#F1F1F1" stroke="#9F9F9F" stroke-width="0.5"/>
<rect x="25.1582" y="25.5175" width="28.1087" height="2.14162" rx="1.07081" fill="#9F9F9F"/>
<rect x="25.1582" y="30.8716" width="38.0137" height="2.14162" rx="1.07081" fill="#9F9F9F"/>
<rect x="25.1582" y="36.2256" width="38.0137" height="2.14162" rx="1.07081" fill="#9F9F9F"/>
<rect x="25.1582" y="41.5797" width="38.0137" height="2.14162" rx="1.07081" fill="#9F9F9F"/>
<rect x="87.8633" y="49.6079" width="8.24852" height="26.7252" transform="rotate(48.6406 87.8633 49.6079)" fill="#91CDFF"/>
<rect x="89.6055" y="51.5892" width="2.96947" height="26.7252" transform="rotate(48.6406 89.6055 51.5892)" fill="#19A1FF"/>
<path d="M92.5677 45.4655C93.6618 44.5022 95.3297 44.6083 96.293 45.7025L98.2551 47.9313C99.2184 49.0255 99.1123 50.6934 98.0181 51.6566L93.8081 55.3629L88.3577 49.1718L92.5677 45.4655Z" fill="#91CDFF"/>
<path fill-rule="evenodd" clip-rule="evenodd" d="M70.7084 73.0626C71.1187 72.7014 71.7441 72.7412 72.1054 73.1515C72.4666 73.5618 72.4268 74.1873 72.0165 74.5485L70.7084 73.0626ZM69.2708 69.9323C68.9096 69.522 68.2841 69.4822 67.8738 69.8434L69.2904 71.4525C69.2902 71.4527 69.29 71.4528 69.2898 71.453L70.707 73.0627C71.1173 72.7015 71.1571 72.076 70.7958 71.6657L70.6868 71.5419C70.332 71.1388 69.7222 71.0933 69.3118 71.4342C69.7025 71.0704 69.7348 70.4594 69.3798 70.0561L69.2708 69.9323ZM66.5655 68.3574C66.9758 67.9962 67.6013 68.036 67.9625 68.4463C68.3237 68.8566 68.2839 69.4821 67.8736 69.8433L66.5655 68.3574ZM66.5647 68.3577L72.0152 74.5489L63.2585 77.5767C62.7006 77.7696 62.1895 77.1891 62.4515 76.6601L66.5647 68.3577Z" fill="#F1F1F1"/>
<path d="M63.8809 73.7972L66.2791 76.5214L63.1922 77.6395C62.6284 77.8437 62.1065 77.2509 62.3805 76.7175L63.8809 73.7972Z" fill="#19A1FF"/>
<circle cx="16.2059" cy="16.2982" r="14.5091" transform="rotate(-7.16694 16.2059 16.2982)" fill="#0098FF"/>
<g clip-path="url(#clip0_13587_48120)">
<path d="M15.3007 9.10046C15.5492 9.06922 15.7759 9.2453 15.8072 9.49376L15.9203 10.3935C15.9515 10.6419 15.7755 10.8687 15.527 10.8999C15.2786 10.9312 15.0518 10.7551 15.0206 10.5066L14.9074 9.60689C14.8762 9.35844 15.0523 9.1317 15.3007 9.10046Z" fill="#FAFAFA"/>
<path fill-rule="evenodd" clip-rule="evenodd" d="M14.3899 20.0281C13.6871 19.7419 13.0681 19.28 12.5931 18.685C12.0709 18.0309 11.744 17.2425 11.6502 16.4108L11.65 16.4088C11.5213 15.2214 11.8587 14.0304 12.591 13.0868C13.3234 12.1433 14.3934 11.5209 15.5756 11.3509C15.5809 11.3501 15.5863 11.3494 15.5916 11.3489C16.7787 11.2209 17.969 11.5587 18.912 12.291C19.855 13.0233 20.4769 14.093 20.6469 15.2748L20.6472 15.2768C20.7627 16.1062 20.6415 16.9515 20.2976 17.7151C19.9847 18.4096 19.499 19.0109 18.8886 19.4624L19.1905 21.8638C19.2355 22.2217 19.1365 22.5828 18.9152 22.8678C18.694 23.1527 18.3686 23.3381 18.0106 23.3831L16.2112 23.6093C15.8532 23.6543 15.4921 23.5553 15.2072 23.334C14.9222 23.1128 14.7369 22.7874 14.6919 22.4294L14.3899 20.0281ZM15.3088 20.067L15.4219 20.9667L18.1211 20.6273L18.008 19.7276L15.3088 20.067ZM15.535 21.8664L15.5916 22.3163C15.6066 22.4356 15.6684 22.5441 15.7634 22.6178C15.8583 22.6916 15.9787 22.7246 16.098 22.7096L17.8975 22.4833C18.0168 22.4683 18.1253 22.4065 18.199 22.3116C18.2728 22.2166 18.3058 22.0962 18.2908 21.9769L18.2342 21.527L15.535 21.8664ZM13.3074 13.6428C13.894 12.887 14.7503 12.3878 15.6968 12.2496C16.6476 12.1492 17.6005 12.4207 18.3558 13.0072C19.1129 13.5952 19.6124 14.454 19.7491 15.4028C19.8409 16.0627 19.7444 16.7351 19.4708 17.3426C19.2111 17.9189 18.8021 18.4145 18.2868 18.7785L14.8037 19.2165C14.2147 18.9915 13.6959 18.6129 13.3018 18.1192C12.8864 17.5989 12.6263 16.9718 12.5514 16.3101C12.4484 15.3567 12.7194 14.4004 13.3074 13.6428Z" fill="#FAFAFA"/>
<path d="M9.79455 16.1905C9.54609 16.2218 9.37001 16.4485 9.40125 16.697C9.43249 16.9454 9.65923 17.1215 9.90768 17.0903L10.8074 16.9771C11.0559 16.9459 11.232 16.7192 11.2007 16.4707C11.1695 16.2223 10.9427 16.0462 10.6943 16.0774L9.79455 16.1905Z" fill="#FAFAFA"/>
<path d="M10.2715 11.7011C10.4211 11.5003 10.7052 11.4588 10.906 11.6085L11.6455 12.1595C11.8463 12.3091 11.8878 12.5932 11.7381 12.794C11.5885 12.9948 11.3045 13.0363 11.1037 12.8867L10.3641 12.3356C10.1633 12.186 10.1218 11.9019 10.2715 11.7011Z" fill="#FAFAFA"/>
<path d="M21.4911 14.7198C21.2426 14.751 21.0665 14.9778 21.0978 15.2262C21.129 15.4747 21.3558 15.6508 21.6042 15.6195L22.504 15.5064C22.7524 15.4751 22.9285 15.2484 22.8973 14.9999C22.866 14.7515 22.6393 14.5754 22.3908 14.6066L21.4911 14.7198Z" fill="#FAFAFA"/>
<path d="M20.8172 10.3751C21.0119 10.5326 21.042 10.8181 20.8845 11.0127L20.3045 11.7297C20.147 11.9244 19.8615 11.9545 19.6668 11.797C19.4721 11.6395 19.442 11.354 19.5995 11.1593L20.1796 10.4424C20.3371 10.2477 20.6226 10.2176 20.8172 10.3751Z" fill="#FAFAFA"/>
</g>
<defs>
<clipPath id="clip0_13587_48120">
<rect width="14.5091" height="14.5091" fill="white" transform="translate(8.10352 10.0055) rotate(-7.16694)"/>
</clipPath>
</defs>
</svg>
