<svg width="204" height="204" viewBox="0 0 204 204" fill="none" xmlns="http://www.w3.org/2000/svg">
<circle cx="102" cy="102" r="102" fill="white"/>
<path opacity="0.5" fill-rule="evenodd" clip-rule="evenodd" d="M84.0776 63.0742C84.0776 59.8074 87.2388 57.4726 90.3611 58.4334L143.772 74.8675C145.81 75.4944 147.2 77.3768 147.2 79.5084V125.187C147.2 128.454 144.039 130.788 140.916 129.828L87.5052 113.394C85.4679 112.767 84.0776 110.884 84.0776 108.753V63.0742Z" fill="#FF9ABF"/>
<path opacity="0.8" fill-rule="evenodd" clip-rule="evenodd" d="M71.9385 70.8432C71.9385 67.5764 75.0996 65.2417 78.222 66.2024L131.633 82.6366C133.67 83.2635 135.061 85.1458 135.061 87.2774V132.956C135.061 136.223 131.9 138.557 128.777 137.597L75.3661 121.163C73.3287 120.536 71.9385 118.653 71.9385 116.522V70.8432Z" fill="#F789B2"/>
<path fill-rule="evenodd" clip-rule="evenodd" d="M59.7998 80.5542C59.7998 77.2873 62.9609 74.9526 66.0833 75.9133L119.494 92.3475C121.532 92.9744 122.922 94.8568 122.922 96.9884V142.667C122.922 145.934 119.761 148.268 116.639 147.308L63.2274 130.873C61.1901 130.247 59.7998 128.364 59.7998 126.233V80.5542Z" fill="#FF5B97"/>
<mask id="mask0_4522_48840" style="mask-type:alpha" maskUnits="userSpaceOnUse" x="59" y="75" width="64" height="73">
<path fill-rule="evenodd" clip-rule="evenodd" d="M59.7998 80.5542C59.7998 77.2873 62.9609 74.9526 66.0833 75.9133L119.494 92.3475C121.532 92.9744 122.922 94.8568 122.922 96.9884V142.667C122.922 145.934 119.761 148.268 116.639 147.308L63.2274 130.873C61.1901 130.247 59.7998 128.364 59.7998 126.233V80.5542Z" fill="white"/>
</mask>
<g mask="url(#mask0_4522_48840)">
<g style="mix-blend-mode:multiply">
<path fill-rule="evenodd" clip-rule="evenodd" d="M59.7998 73.98L122.922 93.4022L91.1839 121.678C88.8143 123.789 85.0897 123.097 83.637 120.276L59.7998 73.98Z" fill="#F2357A"/>
</g>
<g style="mix-blend-mode:multiply">
<path fill-rule="evenodd" clip-rule="evenodd" d="M59.7998 73.98L122.922 93.4022L91.1839 121.678C88.8143 123.789 85.0897 123.097 83.637 120.276L59.7998 73.98Z" fill="#F2357A"/>
</g>
</g>
</svg>
