<svg width="24" height="24" viewBox="0 0 24 24" fill="none" xmlns="http://www.w3.org/2000/svg">
<g clip-path="url(#clip0_4139_49161)">
<path d="M23.4545 20.4545C23.2527 20.4545 23.0684 20.3444 22.9735 20.1655C20.4949 15.5182 16.4051 14.5429 13.4105 14.5429C12.0382 14.5429 10.9255 14.7491 10.3636 14.8778V18.8182C10.3636 19.0287 10.2404 19.2218 10.0505 19.3113C9.97855 19.3451 9.89782 19.3636 9.81818 19.3636C9.69164 19.3636 9.56836 19.3189 9.47127 19.2382L0.198546 11.6018C0.072 11.4993 0 11.3455 0 11.1818C0 11.0182 0.072 10.8644 0.198546 10.7607L9.47127 3.12436C9.56836 3.04473 9.69164 3 9.81818 3C9.89782 3 9.97855 3.01745 10.0505 3.05236C10.2404 3.14182 10.3636 3.336 10.3636 3.54545V7.31891C10.5884 7.30691 10.872 7.29709 11.2015 7.29709C13.3156 7.29709 17.3105 7.69418 20.3095 10.3549C22.7585 12.5269 24 15.7418 24 19.9091C24 20.16 23.8298 20.3771 23.5865 20.4382C23.5451 20.4491 23.5004 20.4545 23.4545 20.4545ZM13.3211 13.4902C16.1705 13.4902 20.0356 14.2756 22.7945 17.8724C22.4585 15.0164 21.3818 12.7658 19.5884 11.1731C16.8676 8.75782 13.1127 8.39673 11.1164 8.39673C10.3538 8.39673 9.88691 8.45018 9.88145 8.45018C9.85745 8.45236 9.83891 8.45345 9.82036 8.45345C9.684 8.45345 9.55527 8.40436 9.45491 8.316C9.33927 8.21345 9.27273 8.06509 9.27273 7.90909V4.70182L1.404 11.1818L9.27273 17.6618V14.4545C9.27273 14.2145 9.43418 13.9996 9.66436 13.932C9.67745 13.9276 11.196 13.4902 13.3211 13.4902Z" fill="black"/>
</g>
<defs>
<clipPath id="clip0_4139_49161">
<rect width="24" height="24" fill="white"/>
</clipPath>
</defs>
</svg>
