<svg width="286" height="314" viewBox="0 0 286 314" fill="none" xmlns="http://www.w3.org/2000/svg">
<g filter="url(#filter0_d_6276_64992)">
<g clip-path="url(#clip0_6276_64992)">
<path d="M57.8042 45.9472C56.9965 39.3692 61.6743 33.3819 68.2524 32.5742L191.464 17.4457C198.042 16.6381 204.029 21.3159 204.837 27.8939L229.705 230.431C230.513 237.009 225.835 242.996 219.257 243.804L96.0456 258.932C89.4676 259.74 83.4803 255.062 82.6726 248.484L57.8042 45.9472Z" fill="#F4F6FD"/>
<g filter="url(#filter1_d_6276_64992)">
<path d="M64.1991 98.0296C63.3914 91.4516 68.0692 85.4643 74.6472 84.6566L197.859 69.5281C204.437 68.7205 210.424 73.3982 211.232 79.9763L234.329 268.09C235.137 274.668 230.459 280.655 223.881 281.463L100.67 296.592C94.0916 297.399 88.1043 292.721 87.2966 286.143L64.1991 98.0296Z" fill="#FAFAFA"/>
</g>
<rect x="60.998" y="85.1398" width="153.085" height="15" transform="rotate(-7.00531 60.998 85.1398)" fill="#FAFAFA"/>
<path d="M109.076 95.8827C108.858 94.1126 110.117 92.5014 111.887 92.2841L179.194 84.0199C180.964 83.8026 182.575 85.0613 182.792 86.8314C183.01 88.6015 181.751 90.2127 179.981 90.43L112.674 98.6942C110.904 98.9116 109.293 97.6528 109.076 95.8827Z" fill="#C4C4C4"/>
<path d="M110.65 108.703C110.433 106.933 111.691 105.322 113.461 105.104L157.13 99.7425C158.901 99.5252 160.512 100.784 160.729 102.554C160.946 104.324 159.688 105.935 157.918 106.153L114.249 111.515C112.478 111.732 110.867 110.473 110.65 108.703Z" fill="#C4C4C4"/>
<path d="M113.257 129.937C113.04 128.166 114.298 126.555 116.069 126.338L196.596 116.45C198.366 116.233 199.977 117.492 200.194 119.262C200.412 121.032 199.153 122.643 197.383 122.861L116.856 132.748C115.086 132.965 113.474 131.707 113.257 129.937Z" fill="#C4C4C4"/>
<path d="M114.831 142.757C114.614 140.987 115.873 139.376 117.643 139.158L161.312 133.796C163.082 133.579 164.693 134.838 164.91 136.608C165.128 138.378 163.869 139.989 162.099 140.206L118.43 145.568C116.66 145.786 115.049 144.527 114.831 142.757Z" fill="#C4C4C4"/>
<path d="M117.438 163.99C117.221 162.22 118.48 160.609 120.25 160.392L177.14 153.407C178.91 153.189 180.521 154.448 180.738 156.218C180.956 157.988 179.697 159.599 177.927 159.817L121.037 166.802C119.267 167.019 117.656 165.76 117.438 163.99Z" fill="#C4C4C4"/>
<path d="M119.012 176.811C118.795 175.041 120.054 173.429 121.824 173.212L165.493 167.85C167.263 167.633 168.874 168.892 169.092 170.662C169.309 172.432 168.05 174.043 166.28 174.26L122.611 179.622C120.841 179.84 119.23 178.581 119.012 176.811Z" fill="#C4C4C4"/>
<path d="M121.62 198.044C121.402 196.274 122.661 194.663 124.431 194.446L191.738 186.181C193.508 185.964 195.119 187.223 195.336 188.993C195.553 190.763 194.295 192.374 192.525 192.592L125.218 200.856C123.448 201.073 121.837 199.814 121.62 198.044Z" fill="#C4C4C4"/>
<path d="M123.194 210.864C122.976 209.094 124.235 207.483 126.005 207.266L169.674 201.904C171.444 201.687 173.056 202.945 173.273 204.716C173.49 206.486 172.231 208.097 170.461 208.314L126.792 213.676C125.022 213.893 123.411 212.635 123.194 210.864Z" fill="#C4C4C4"/>
<path d="M125.801 232.098C125.584 230.328 126.842 228.717 128.612 228.499L211.944 218.267C213.714 218.05 215.325 219.309 215.543 221.079C215.76 222.849 214.501 224.46 212.731 224.678L129.399 234.909C127.629 235.127 126.018 233.868 125.801 232.098Z" fill="#C4C4C4"/>
<path d="M127.375 244.918C127.158 243.148 128.416 241.537 130.187 241.32L165.042 237.04C166.812 236.823 168.423 238.081 168.64 239.851C168.858 241.622 167.599 243.233 165.829 243.45L130.974 247.73C129.204 247.947 127.592 246.688 127.375 244.918Z" fill="#C4C4C4"/>
<path d="M129.982 266.152C129.765 264.382 131.024 262.771 132.794 262.553L200.1 254.289C201.87 254.072 203.481 255.331 203.699 257.101C203.916 258.871 202.657 260.482 200.887 260.699L133.581 268.963C131.811 269.181 130.2 267.922 129.982 266.152Z" fill="#C4C4C4"/>
<path d="M131.556 278.972C131.339 277.202 132.598 275.591 134.368 275.374L178.037 270.012C179.807 269.794 181.418 271.053 181.636 272.823C181.853 274.593 180.594 276.205 178.824 276.422L135.155 281.784C133.385 282.001 131.774 280.742 131.556 278.972Z" fill="#C4C4C4"/>
<path d="M70.4937 68.0004C70.2207 65.777 72.2107 63.7031 74.9384 63.3682L135.524 55.9292C138.252 55.5943 140.684 57.1251 140.957 59.3485C141.23 61.5719 139.24 63.6458 136.513 63.9807L75.927 71.4197C73.1993 71.7546 70.7667 70.2237 70.4937 68.0004Z" fill="#666666"/>
<path d="M188.83 268.483C189.387 273.019 193.515 276.245 198.051 275.688L220.086 272.982C224.622 272.425 227.847 268.297 227.29 263.761C226.734 259.225 222.605 255.999 218.069 256.556L196.034 259.262C191.498 259.819 188.273 263.947 188.83 268.483Z" fill="#BC0055"/>
<path d="M187.626 53.0147C187.952 55.6698 190.369 57.558 193.024 57.232C195.679 56.906 197.567 54.4892 197.241 51.8341L197.192 51.4334C196.866 48.7783 194.449 46.8901 191.794 47.2161C189.139 47.5421 187.251 49.9589 187.577 52.614L187.626 53.0147Z" fill="#BC0055"/>
<path d="M95.6156 44.0429C95.9552 46.8087 98.4726 48.7755 101.238 48.4359L148.513 42.6313C151.279 42.2917 153.246 39.7743 152.906 37.0085C152.567 34.2427 150.049 32.2759 147.283 32.6155L100.009 38.4201C97.2428 38.7597 95.276 41.2771 95.6156 44.0429Z" fill="#666666"/>
<path d="M183.767 33.3889C184.093 36.0441 186.51 37.9322 189.165 37.6062C191.82 37.2802 193.709 34.8635 193.383 32.2083L193.333 31.8077C193.007 29.1525 190.591 27.2644 187.935 27.5904C185.28 27.9164 183.392 30.3331 183.718 32.9883L183.767 33.3889Z" fill="#666666"/>
<path d="M168.64 35.3897C168.966 38.0448 171.383 39.933 174.038 39.607C176.693 39.281 178.581 36.8642 178.255 34.2091L178.206 33.8084C177.88 31.1533 175.463 29.2651 172.808 29.5911C170.153 29.9171 168.265 32.3339 168.591 34.989L168.64 35.3897Z" fill="#BC0055"/>
<path d="M67.6394 47.6477C67.9655 50.3029 70.3822 52.191 73.0373 51.865C75.6925 51.539 77.5806 49.1223 77.2546 46.4671L77.2054 46.0665C76.8794 43.4113 74.4627 41.5232 71.8075 41.8492C69.1524 42.1752 67.2642 44.5919 67.5902 47.2471L67.6394 47.6477Z" fill="#BC0055"/>
<path d="M92.9074 129.303C87.4353 130.023 83.5827 135.042 84.3023 140.514C85.0219 145.986 90.041 149.838 95.5132 149.118C100.985 148.399 104.837 143.38 104.118 137.908C103.398 132.436 98.3795 128.583 92.9074 129.303" fill="#ECEBE9"/>
<path d="M93.4236 130.83L92.8035 130.911C90.7821 131.177 89.3455 133.049 89.6113 135.07L89.8838 137.143C90.1497 139.164 92.0213 140.601 94.0427 140.335L94.6629 140.253C96.6842 139.988 98.1205 138.116 97.8546 136.095L97.5821 134.022C97.3163 132.001 95.445 130.564 93.4236 130.83" fill="#174E62"/>
<path d="M97.7616 141.019C96.0752 141.241 95.8682 139.667 95.678 138.22L95.4405 136.414L92.2731 136.831L92.5107 138.637C92.7009 140.084 92.7959 141.672 91.2215 141.879C90.9112 141.92 90.6171 142.005 90.3439 142.127C91.3323 143.523 93.0413 144.34 94.8551 144.101C96.6662 143.863 98.1038 142.636 98.6996 141.036C98.3964 140.985 98.0812 140.977 97.7616 141.019" fill="#D7AD83"/>
<path d="M98.7127 141.034C98.117 142.634 96.6794 143.861 94.8682 144.099C93.0545 144.338 91.3455 143.522 90.357 142.125C89.0982 142.686 88.2951 144.03 88.4834 145.461L88.7627 147.585C90.6894 148.84 93.0548 149.441 95.5134 149.118C97.9716 148.795 100.101 147.602 101.638 145.892L101.359 143.768C101.172 142.346 100.062 141.26 98.7127 141.034" fill="#AF00FF"/>
<path d="M94.9432 141.334C95.4166 141.272 95.8619 140.901 96.2256 140.359C95.8884 139.806 95.7791 138.996 95.6771 138.221L95.4396 136.414L92.2723 136.831L92.5098 138.637C92.5585 139.007 92.6007 139.386 92.6103 139.749C93.2796 140.744 94.1802 141.435 94.9432 141.334" fill="#C59264"/>
<path d="M94.9058 133.684C94.7284 134.602 91.7536 135.856 91.0201 135.577C90.7831 135.67 90.639 136.044 90.6955 136.474C90.7571 136.942 91.0304 137.292 91.3087 137.263C91.8778 138.941 93.2555 140.419 94.3499 140.275C95.4439 140.132 96.3925 138.347 96.5084 136.579C96.7846 136.535 96.9578 136.127 96.8962 135.658C96.8745 135.493 96.8257 135.344 96.7605 135.219C96.34 135.084 95.379 134.555 94.9058 133.684" fill="#D7AD83"/>
<path d="M188.744 26.7554C185.571 27.1726 183.338 30.0828 183.755 33.2556C184.172 36.4283 187.082 38.6618 190.255 38.2446C193.428 37.8273 195.661 34.9175 195.244 31.7447C194.827 28.572 191.917 26.3382 188.744 26.7554" fill="#AB2456"/>
<path d="M189.043 27.6416L188.683 27.6889C187.511 27.843 186.678 28.9282 186.832 30.1002L186.99 31.3019C187.144 32.4741 188.23 33.3068 189.402 33.1527L189.761 33.1054C190.933 32.9513 191.766 31.8664 191.612 30.6941L191.454 29.4925C191.3 28.3205 190.215 27.4875 189.043 27.6416" fill="#D0BE7C"/>
<path d="M191.56 33.549C190.582 33.6776 190.462 32.765 190.352 31.9262L190.214 30.879L188.378 31.1205L188.515 32.1677C188.626 33.0065 188.681 33.9276 187.768 34.0477C187.588 34.0713 187.418 34.1208 187.259 34.1913C187.832 35.0009 188.823 35.4742 189.875 35.3359C190.925 35.1979 191.758 34.4864 192.104 33.5586C191.928 33.5289 191.745 33.5246 191.56 33.549" fill="#EFD6CE"/>
<path d="M192.11 33.5561C191.764 34.4841 190.931 35.1953 189.881 35.3334C188.829 35.4717 187.838 34.9986 187.265 34.1888C186.535 34.514 186.07 35.2931 186.179 36.1231L186.341 37.3544C187.458 38.0821 188.829 38.4308 190.255 38.2433C191.68 38.0559 192.915 37.3645 193.806 36.3727L193.644 35.1414C193.536 34.3167 192.892 33.6872 192.11 33.5561" fill="#FF5B97"/>
<path d="M189.925 33.7314C190.2 33.6953 190.458 33.4801 190.669 33.1659C190.473 32.8456 190.41 32.3758 190.351 31.926L190.213 30.8787L188.377 31.1202L188.515 32.1675C188.543 32.3822 188.567 32.602 188.573 32.8124C188.961 33.3889 189.483 33.7895 189.925 33.7314Z" fill="#D3B6AE"/>
<path d="M189.903 29.2959C189.8 29.828 188.075 30.5551 187.65 30.3931C187.513 30.4473 187.429 30.6642 187.462 30.9134C187.498 31.1848 187.656 31.3875 187.817 31.371C188.147 32.3439 188.946 33.201 189.581 33.1176C190.215 33.0341 190.765 31.9996 190.832 30.9745C190.992 30.9488 191.093 30.712 191.057 30.4406C191.044 30.3445 191.016 30.258 190.978 30.186C190.735 30.1076 190.177 29.8005 189.903 29.2959Z" fill="#EFD6CE"/>
<path d="M88.908 95.3021C83.4359 96.0217 79.5833 101.041 80.3029 106.513C81.0225 111.985 86.0417 115.837 91.5138 115.118C96.9859 114.398 100.838 109.379 100.119 103.907C99.3993 98.435 94.3801 94.5825 88.908 95.3021" fill="#184A63"/>
<path d="M94.6482 106.47L94.6361 106.48C94.6357 106.477 94.6358 106.474 94.6354 106.472C94.3324 106.421 93.0744 106.04 92.7464 105.872L87.922 106.436C87.6547 106.75 86.5529 107.441 86.2802 107.563C86.2812 107.564 86.2818 107.565 86.2824 107.566C85.0297 108.13 83.9256 109.737 84.1133 111.165L84.584 113.466C86.542 114.801 88.9782 115.45 91.5131 115.117C94.0576 114.782 96.2507 113.517 97.798 111.71L97.6589 109.383C97.4719 107.961 95.9975 106.696 94.6482 106.47" fill="#4C949B"/>
<path d="M87.922 106.438C88.3224 105.899 88.52 105.816 88.3192 104.289C88.1184 102.762 91.7659 102.263 91.9692 103.809C92.1725 105.355 92.2963 105.649 92.746 105.874C92.746 105.874 93.0745 107.646 90.5855 107.973C88.0965 108.301 87.922 106.438 87.922 106.438" fill="#EFD6CE"/>
<path d="M89.9086 106.742C90.1956 106.883 90.5803 106.824 90.8492 106.789C91.1224 106.753 91.5123 106.707 91.7562 106.492C91.9406 106.329 92.1594 105.984 92.3637 105.54C92.1953 105.265 92.0981 104.789 91.9693 103.809C91.766 102.263 88.1181 102.762 88.3188 104.289C88.3575 104.583 88.3814 104.823 88.392 105.023C88.8965 105.869 89.5176 106.551 89.9086 106.742" fill="#D3B6AE"/>
<path d="M92.4656 101.087C91.6921 97.9911 90.88 97.9464 89.3731 98.1445C87.8661 98.3427 87.0932 98.5959 87.1464 101.786C86.9053 101.876 86.7598 102.256 86.8168 102.69C86.879 103.163 87.1573 103.516 87.4385 103.479C87.4698 103.475 87.499 103.465 87.5273 103.452C88.0493 104.656 88.9584 105.753 89.4717 106.004C89.7587 106.144 90.1434 106.086 90.4127 106.051C90.6856 106.015 91.0758 105.968 91.3197 105.753C91.7372 105.385 92.3319 104.091 92.5269 102.794C92.5581 102.8 92.5893 102.802 92.621 102.798C92.9022 102.761 93.0797 102.347 93.0175 101.874C92.9605 101.441 92.7216 101.111 92.4656 101.087" fill="#EFD6CE"/>
<path d="M87.7038 102.918C87.5961 102.099 87.6022 102.07 87.6695 101.633C90.0952 100.917 90.7315 99.9932 91.3788 99.5862C91.9959 100.099 92.0637 101.208 92.2106 102.325C92.6271 102.266 92.1748 101.183 92.6033 101.127C92.291 99.1339 92.4046 98.4536 91.2017 97.7078C90.0086 96.968 88.529 97.5719 87.4948 98.3921C86.5012 99.1801 86.7773 99.6568 87.0635 101.827C87.5256 101.883 87.2939 102.971 87.7038 102.918" fill="#C6AC9F"/>
<path d="M105.908 231.302C100.436 232.022 96.5833 237.041 97.3029 242.513C98.0225 247.985 103.042 251.837 108.514 251.118C113.986 250.398 117.838 245.379 117.119 239.907C116.399 234.435 111.38 230.582 105.908 231.302Z" fill="#772385"/>
<path d="M111.648 242.47L111.636 242.48C111.636 242.477 111.636 242.474 111.635 242.472C111.332 242.421 110.074 242.04 109.746 241.872L104.922 242.436C104.655 242.75 103.553 243.441 103.28 243.563C103.281 243.564 103.282 243.565 103.282 243.566C102.03 244.13 100.925 245.737 101.113 247.165L101.584 249.466C103.542 250.801 105.978 251.45 108.513 251.117C111.058 250.782 113.251 249.517 114.798 247.71L114.659 245.383C114.472 243.961 112.997 242.696 111.648 242.47" fill="#FB6AAD"/>
<path d="M104.922 242.438C105.322 241.899 105.52 241.816 105.319 240.289C105.118 238.762 108.766 238.263 108.969 239.809C109.172 241.355 109.296 241.649 109.746 241.874C109.746 241.874 110.075 243.646 107.586 243.973C105.097 244.301 104.922 242.438 104.922 242.438" fill="#EFD6CE"/>
<path d="M106.909 242.742C107.196 242.883 107.58 242.824 107.849 242.789C108.122 242.753 108.512 242.707 108.756 242.492C108.941 242.329 109.159 241.984 109.364 241.54C109.195 241.265 109.098 240.789 108.969 239.809C108.766 238.263 105.118 238.762 105.319 240.289C105.357 240.583 105.381 240.823 105.392 241.023C105.897 241.869 106.518 242.551 106.909 242.742" fill="#D3B6AE"/>
<path d="M109.466 237.087C108.692 233.991 107.88 233.946 106.373 234.145C104.866 234.343 104.093 234.596 104.146 237.786C103.905 237.876 103.76 238.256 103.817 238.69C103.879 239.163 104.157 239.516 104.438 239.479C104.47 239.475 104.499 239.465 104.527 239.452C105.049 240.656 105.958 241.753 106.472 242.004C106.759 242.144 107.143 242.086 107.413 242.051C107.686 242.015 108.076 241.968 108.32 241.753C108.737 241.385 109.332 240.091 109.527 238.794C109.558 238.8 109.589 238.802 109.621 238.798C109.902 238.761 110.08 238.347 110.017 237.874C109.96 237.441 109.722 237.111 109.466 237.087" fill="#EFD6CE"/>
<path d="M104.704 238.918C104.596 238.099 104.602 238.07 104.669 237.633C107.095 236.917 107.731 235.993 108.379 235.586C108.996 236.099 109.064 237.208 109.211 238.325C109.627 238.266 109.175 237.183 109.603 237.127C109.291 235.134 109.405 234.454 108.202 233.708C107.009 232.968 105.529 233.572 104.495 234.392C103.501 235.18 103.777 235.657 104.064 237.827C104.526 237.883 104.294 238.971 104.704 238.918" fill="#838383"/>
<path d="M97.908 163.302C92.4359 164.022 88.5833 169.041 89.3029 174.513C90.0225 179.985 95.0417 183.837 100.514 183.118C105.986 182.398 109.838 177.379 109.119 171.907C108.399 166.435 103.38 162.582 97.908 163.302" fill="#E1D8D3"/>
<path d="M95.5365 176.101L94.6119 169.069C94.3461 167.048 95.7823 165.176 97.8041 164.91L98.4238 164.829C100.446 164.563 102.317 166 102.583 168.021L103.507 175.053L95.5365 176.101Z" fill="#D14311"/>
<path d="M103.713 175.033L95.3576 176.124C94.0987 176.685 93.2957 178.029 93.4839 179.46L93.7632 181.584C95.69 182.839 98.0558 183.44 100.514 183.117C102.972 182.794 105.102 181.601 106.638 179.891L106.359 177.767C106.172 176.345 105.063 175.259 103.713 175.033" fill="#FD6222"/>
<path d="M102.762 175.018C101.075 175.24 100.868 173.666 100.678 172.22L100.441 170.413L97.2733 170.83L97.5108 172.636C97.7011 174.083 97.7965 175.671 96.2217 175.879C95.9114 175.919 95.6172 176.005 95.3445 176.126C96.3329 177.522 98.0415 178.339 99.8553 178.1C101.666 177.862 103.104 176.635 103.7 175.035C103.397 174.984 103.081 174.976 102.762 175.018" fill="#EFD6CE"/>
<path d="M99.9439 175.333C100.417 175.271 100.863 174.9 101.226 174.358C100.889 173.806 100.78 172.995 100.678 172.22L100.44 170.413L97.2729 170.83L97.5105 172.636C97.5591 173.006 97.6014 173.386 97.611 173.748C98.2803 174.743 99.1809 175.434 99.9439 175.333" fill="#D3B6AE"/>
<path d="M100.783 168.034C100.336 168.479 99.6856 168.851 98.9188 169.055C97.9231 169.319 96.9594 169.24 96.2915 168.903C96.2784 169.227 95.842 169.925 95.7181 169.995C95.6833 170.136 95.6735 170.301 95.6963 170.474C95.7579 170.942 96.0312 171.292 96.309 171.263C96.8781 172.941 98.2558 174.42 99.3502 174.276C100.445 174.132 101.393 172.347 101.509 170.58C101.784 170.535 101.958 170.127 101.897 169.659C101.874 169.49 101.825 169.338 101.758 169.213C101.393 169.065 100.935 168.504 100.783 168.034" fill="#EFD6CE"/>
<path d="M109.908 265.302C104.436 266.022 100.583 271.041 101.303 276.513C102.023 281.985 107.042 285.837 112.514 285.118C117.986 284.398 121.838 279.379 121.119 273.907C120.399 268.435 115.38 264.582 109.908 265.302Z" fill="#D9D9D9"/>
<path d="M107.537 278.101L106.612 271.069C106.346 269.048 107.782 267.176 109.804 266.91L110.424 266.829C112.446 266.563 114.317 268 114.583 270.021L115.507 277.053L107.537 278.101Z" fill="#340E00"/>
<path d="M115.713 277.033L107.358 278.124C106.099 278.685 105.296 280.029 105.484 281.46L105.763 283.584C107.69 284.839 110.056 285.44 112.514 285.117C114.972 284.794 117.102 283.601 118.638 281.891L118.359 279.767C118.172 278.345 117.063 277.259 115.713 277.033" fill="#8CA300"/>
<path d="M114.762 277.018C113.075 277.24 112.868 275.666 112.678 274.22L112.441 272.413L109.273 272.83L109.511 274.636C109.701 276.083 109.797 277.671 108.222 277.879C107.911 277.919 107.617 278.005 107.344 278.126C108.333 279.522 110.042 280.339 111.855 280.1C113.666 279.862 115.104 278.635 115.7 277.035C115.397 276.984 115.081 276.976 114.762 277.018" fill="#EFD6CE"/>
<path d="M111.944 277.333C112.417 277.271 112.863 276.9 113.226 276.358C112.889 275.806 112.78 274.995 112.678 274.22L112.44 272.413L109.273 272.83L109.51 274.636C109.559 275.006 109.601 275.386 109.611 275.748C110.28 276.743 111.181 277.434 111.944 277.333" fill="#D3B6AE"/>
<path d="M112.783 270.034C112.336 270.479 111.686 270.851 110.919 271.055C109.923 271.319 108.959 271.24 108.291 270.903C108.278 271.227 107.842 271.925 107.718 271.995C107.683 272.136 107.674 272.301 107.696 272.474C107.758 272.942 108.031 273.292 108.309 273.263C108.878 274.941 110.256 276.42 111.35 276.276C112.445 276.132 113.393 274.347 113.509 272.58C113.784 272.535 113.958 272.127 113.897 271.659C113.874 271.49 113.825 271.338 113.758 271.213C113.393 271.065 112.935 270.504 112.783 270.034" fill="#EFD6CE"/>
<path d="M101.908 197.302C96.4359 198.022 92.5833 203.041 93.3029 208.513C94.0225 213.985 99.0417 217.837 104.514 217.118C109.986 216.398 113.838 211.379 113.119 205.907C112.399 200.435 107.38 196.582 101.908 197.302" fill="#EDDCC3"/>
<path d="M107.65 208.47L107.638 208.48C107.637 208.477 107.638 208.474 107.637 208.471C107.334 208.421 106.076 208.04 105.748 207.872L103.734 211.089L100.924 208.436C100.656 208.749 99.5547 209.441 99.2819 209.562C99.2825 209.564 99.2835 209.564 99.2842 209.566C98.0315 210.129 96.9273 211.737 97.1151 213.165L97.5854 215.466C99.5437 216.801 101.98 217.45 104.514 217.117C107.059 216.782 109.252 215.517 110.8 213.71L110.661 211.383C110.474 209.961 108.999 208.695 107.65 208.47" fill="#FF9B00"/>
<path d="M100.924 208.437C101.324 207.899 101.521 207.816 101.32 206.289C101.12 204.762 104.768 204.263 104.971 205.809C105.174 207.355 105.298 207.649 105.748 207.873L103.734 211.09L100.924 208.437Z" fill="#875744"/>
<path opacity="0.256859" d="M102.909 208.742C103.196 208.883 103.58 208.824 103.85 208.789C104.122 208.753 104.512 208.707 104.757 208.492C104.941 208.329 105.16 207.984 105.364 207.54C105.195 207.265 105.098 206.789 104.969 205.809C104.766 204.263 101.118 204.762 101.319 206.289C101.357 206.583 101.381 206.823 101.392 207.023C101.897 207.869 102.518 208.551 102.909 208.742" fill="black"/>
<path d="M105.465 203.087C104.692 199.991 103.879 199.946 102.373 200.145C100.866 200.343 99.9846 200.659 100.038 203.849C99.7966 203.938 99.7227 204.266 99.8165 204.69C99.9195 205.156 100.157 205.516 100.438 205.479C100.469 205.475 100.499 205.465 100.527 205.452C101.049 206.656 101.958 207.753 102.471 208.004C102.758 208.144 103.143 208.086 103.412 208.051C103.685 208.015 104.076 207.968 104.319 207.753C104.737 207.385 105.331 206.091 105.526 204.794C105.558 204.8 105.589 204.802 105.621 204.798C105.902 204.761 106.079 204.347 106.017 203.874C105.96 203.441 105.721 203.111 105.465 203.087" fill="#875744"/>
<path d="M100.723 204.913C100.615 204.095 100.461 203.066 100.612 202.63C100.763 202.193 103.343 200.774 104.821 202.076C105.061 202.745 105.083 203.203 105.23 204.321C105.641 204.267 105.176 203.188 105.604 203.131C105.663 202.136 105.859 199.07 101.967 199.483C100.989 199.587 100.032 199.591 100.032 199.591C100.032 199.591 99.6479 200.289 99.6606 201.334C99.6733 202.379 100.038 203.848 100.038 203.848C100.5 203.904 100.313 204.967 100.723 204.913" fill="#241E20"/>
<circle cx="72.5" cy="107.5" r="2.5" fill="#BC0055"/>
<circle cx="77.5" cy="142.5" r="2.5" fill="#BC0055"/>
<circle cx="82.5" cy="175.5" r="2.5" fill="#BC0055"/>
<circle cx="86.5" cy="209.5" r="2.5" fill="#BC0055"/>
<circle cx="90.5" cy="243.5" r="2.5" fill="#BC0055"/>
<circle cx="94.5" cy="277.5" r="2.5" fill="#BC0055"/>
</g>
</g>
<path d="M68.3445 176.638H9.83644C4.42681 176.638 0 172.213 0 166.8V164.836C0 159.426 4.42681 155 9.83644 155H53.2134C58.6244 155 63.0512 159.426 63.0512 164.836V166.8C63.0512 172.213 63.0512 175.458 68.3445 176.638" fill="#FD6222"/>
<path d="M23.6281 162.898C22.0143 162.898 20.707 164.207 20.707 165.819C20.707 167.433 22.0143 168.74 23.6281 168.74C25.2406 168.74 26.5492 167.433 26.5492 165.819C26.5492 164.207 25.2406 162.898 23.6281 162.898" fill="white"/>
<path d="M33.132 162.898C31.5195 162.898 30.2109 164.207 30.2109 165.819C30.2109 167.433 31.5195 168.74 33.132 168.74C34.7459 168.74 36.0531 167.433 36.0531 165.819C36.0531 164.207 34.7459 162.898 33.132 162.898" fill="white"/>
<path d="M42.6359 162.898C41.0221 162.898 39.7148 164.207 39.7148 165.819C39.7148 167.433 41.0221 168.74 42.6359 168.74C44.2484 168.74 45.557 167.433 45.557 165.819C45.557 164.207 44.2484 162.898 42.6359 162.898" fill="white"/>
<path d="M217 85.638H275.508C280.918 85.638 285.345 81.2126 285.345 75.8002V73.836C285.345 68.4263 280.918 63.9995 275.508 63.9995H232.131C226.72 63.9995 222.293 68.4263 222.293 73.836V75.8002C222.293 81.2126 222.293 84.4581 217 85.638" fill="#4C949B"/>
<path d="M261.718 71.8979C260.104 71.8979 258.797 73.2066 258.797 74.819C258.797 76.4329 260.104 77.7401 261.718 77.7401C263.332 77.7401 264.639 76.4329 264.639 74.819C264.639 73.2066 263.332 71.8979 261.718 71.8979" fill="white"/>
<path d="M252.214 71.8979C250.6 71.8979 249.293 73.2066 249.293 74.819C249.293 76.4329 250.6 77.7401 252.214 77.7401C253.828 77.7401 255.135 76.4329 255.135 74.819C255.135 73.2066 253.828 71.8979 252.214 71.8979" fill="white"/>
<path d="M242.709 71.8979C241.096 71.8979 239.789 73.2066 239.789 74.819C239.789 76.4329 241.096 77.7401 242.709 77.7401C244.323 77.7401 245.63 76.4329 245.63 74.819C245.63 73.2066 244.323 71.8979 242.709 71.8979" fill="white"/>
<defs>
<filter id="filter0_d_6276_64992" x="39.3418" y="-1" width="213.314" height="316.054" filterUnits="userSpaceOnUse" color-interpolation-filters="sRGB">
<feFlood flood-opacity="0" result="BackgroundImageFix"/>
<feColorMatrix in="SourceAlpha" type="matrix" values="0 0 0 0 0 0 0 0 0 0 0 0 0 0 0 0 0 0 127 0" result="hardAlpha"/>
<feOffset/>
<feGaussianBlur stdDeviation="8.5"/>
<feComposite in2="hardAlpha" operator="out"/>
<feColorMatrix type="matrix" values="0 0 0 0 0 0 0 0 0 0 0 0 0 0 0 0 0 0 0.15 0"/>
<feBlend mode="normal" in2="BackgroundImageFix" result="effect1_dropShadow_6276_64992"/>
<feBlend mode="normal" in="SourceGraphic" in2="effect1_dropShadow_6276_64992" result="shape"/>
</filter>
<filter id="filter1_d_6276_64992" x="54.6084" y="59.9375" width="190.311" height="247.245" filterUnits="userSpaceOnUse" color-interpolation-filters="sRGB">
<feFlood flood-opacity="0" result="BackgroundImageFix"/>
<feColorMatrix in="SourceAlpha" type="matrix" values="0 0 0 0 0 0 0 0 0 0 0 0 0 0 0 0 0 0 127 0" result="hardAlpha"/>
<feOffset dx="0.5" dy="0.5"/>
<feGaussianBlur stdDeviation="5"/>
<feComposite in2="hardAlpha" operator="out"/>
<feColorMatrix type="matrix" values="0 0 0 0 0 0 0 0 0 0 0 0 0 0 0 0 0 0 0.15 0"/>
<feBlend mode="normal" in2="BackgroundImageFix" result="effect1_dropShadow_6276_64992"/>
<feBlend mode="normal" in="SourceGraphic" in2="effect1_dropShadow_6276_64992" result="shape"/>
</filter>
<clipPath id="clip0_6276_64992">
<rect x="56.3418" y="34.0366" width="148" height="266" rx="12" transform="rotate(-7 56.3418 34.0366)" fill="white"/>
</clipPath>
</defs>
</svg>
