<svg width="25" height="18" viewBox="0 0 25 18" fill="none" xmlns="http://www.w3.org/2000/svg">
<path d="M19 16V18H6V16H19ZM16.2143 9.215C16.1837 9.87498 16.0018 10.5165 15.6848 11.0823C15.3677 11.6481 14.9255 12.1205 14.3976 12.4572C13.8696 12.794 13.2724 12.9847 12.6594 13.0122C12.0463 13.0397 11.4364 12.9033 10.8843 12.615C10.2479 12.3185 9.70816 11.8241 9.33428 11.1952C8.96041 10.5663 8.76939 9.83154 8.78571 9.085V1.005H6.92857V9.215C6.95999 10.1564 7.19679 11.0766 7.61982 11.9012C8.04284 12.7257 8.6402 13.4314 9.36354 13.9611C10.0869 14.4908 10.9159 14.8296 11.7834 14.9502C12.6509 15.0707 13.5326 14.9696 14.3571 14.655C15.4539 14.2613 16.4054 13.5012 17.0734 12.485C17.7414 11.4689 18.091 10.2498 18.0714 9.005V1.005H16.2143V9.215ZM16.2143 1H18.0714H16.2143ZM8.78571 1H6.92857H8.78571Z" fill="#666666"/>
</svg>
