<svg width="25" height="24" viewBox="0 0 25 24" fill="none" xmlns="http://www.w3.org/2000/svg">
<path d="M23 21.1765V24H2V21.1765H23ZM18.5 11.5976C18.4506 12.5294 18.1567 13.4351 17.6446 14.2338C17.1325 15.0326 16.4181 15.6995 15.5653 16.1749C14.7125 16.6504 13.7478 16.9196 12.7574 16.9584C11.7671 16.9973 10.7819 16.8046 9.89 16.3976C8.86196 15.9791 7.99011 15.2811 7.38615 14.3933C6.78219 13.5054 6.47363 12.4681 6.5 11.4141V0.00705899H3.5V11.5976C3.55075 12.9267 3.93328 14.2258 4.61663 15.3899C5.29997 16.5539 6.26494 17.5502 7.4334 18.298C8.60187 19.0458 9.94101 19.5242 11.3424 19.6944C12.7438 19.8646 14.1681 19.7218 15.5 19.2776C17.2717 18.7219 18.8088 17.6487 19.8878 16.2142C20.9669 14.7796 21.5317 13.0586 21.5 11.3012V0.00705899H18.5V11.5976ZM18.5 0H21.5H18.5ZM6.5 0H3.5H6.5Z" fill="black"/>
</svg>
