<svg width="24" height="24" viewBox="0 0 24 24" fill="none" xmlns="http://www.w3.org/2000/svg">
<path d="M12 24C5.383 24 0 18.617 0 12C0 5.383 5.383 0 12 0C18.617 0 24 5.383 24 12C24 18.617 18.617 24 12 24ZM12 1C5.935 1 1 5.935 1 12C1 18.065 5.935 23 12 23C18.065 23 23 18.065 23 12C23 5.935 18.065 1 12 1Z" fill="#0098FF"/>
<path d="M18.002 18C17.877 18 17.757 17.953 17.664 17.869L11.664 12.369C11.561 12.275 11.502 12.14 11.502 12V6.5C11.502 6.224 11.726 6 12.002 6C12.278 6 12.502 6.224 12.502 6.5V11.78L18.34 17.131C18.438 17.221 18.496 17.344 18.502 17.478C18.508 17.611 18.461 17.739 18.371 17.838C18.276 17.941 18.142 18 18.002 18Z" fill="#0098FF"/>
</svg>
