<svg width="24" height="24" viewBox="0 0 24 24" fill="none" xmlns="http://www.w3.org/2000/svg">
<path d="M12 24C5.383 24 0 18.617 0 12C0 5.383 5.383 0 12 0C18.617 0 24 5.383 24 12C24 18.617 18.617 24 12 24ZM12 1C5.935 1 1 5.935 1 12C1 18.065 5.935 23 12 23C18.065 23 23 18.065 23 12C23 5.935 18.065 1 12 1Z" fill="black"/>
<path d="M18.0015 18C17.8765 18 17.7565 17.953 17.6635 17.869L11.6635 12.369C11.5605 12.275 11.5015 12.14 11.5015 12V6.5C11.5015 6.224 11.7255 6 12.0015 6C12.2775 6 12.5015 6.224 12.5015 6.5V11.78L18.3395 17.131C18.4375 17.221 18.4955 17.344 18.5015 17.478C18.5075 17.611 18.4605 17.739 18.3705 17.838C18.2755 17.941 18.1415 18 18.0015 18Z" fill="black"/>
</svg>
