<?xml version="1.0" encoding="UTF-8" standalone="no"?>
<!DOCTYPE svg PUBLIC "-//W3C//DTD SVG 1.1//EN" "http://www.w3.org/Graphics/SVG/1.1/DTD/svg11.dtd">
<!-- Created with Vectornator (http://vectornator.io/) -->
<svg height="100%" stroke-miterlimit="10" style="fill-rule:nonzero;clip-rule:evenodd;stroke-linecap:round;stroke-linejoin:round;" version="1.1" viewBox="0 0 24 24" width="100%" xml:space="preserve" xmlns="http://www.w3.org/2000/svg" xmlns:xlink="http://www.w3.org/1999/xlink">
<defs/>
<clipPath id="ArtboardFrame">
<rect height="24" width="24" x="0" y="0"/>
</clipPath>
<g clip-path="url(#ArtboardFrame)" id="Sans-titre">
<path d="M4.6028 6.7804C3.7182 6.89081 2.87608 7.22716 2.13733 7.76513C1.09375 8.52515 0.324941 9.75798 0.0858058 11.0549C-0.341769 13.374 0.85953 15.719 3.00008 16.7438C3.42558 16.9476 3.87215 17.0906 4.37395 17.1837C4.62872 17.231 4.76391 17.237 5.81614 17.2472C7.2346 17.2609 7.53675 17.2366 8.1758 17.0571C9.09768 16.7983 9.98363 16.2504 10.6034 15.5558C10.8019 15.3333 10.8369 15.2512 10.8383 15.0052C10.8392 14.8256 10.8301 14.7784 10.7707 14.6575C10.6939 14.5011 10.5523 14.3647 10.3872 14.2882C10.3035 14.2493 10.2304 14.2374 10.0816 14.2383C9.80499 14.24 9.71452 14.2902 9.33391 14.6528C8.87273 15.0922 8.43503 15.3583 7.86943 15.5432C7.37931 15.7034 7.19741 15.7186 5.89424 15.7076C4.80424 15.6984 4.71286 15.6942 4.48967 15.6442C3.01397 15.3134 1.90996 14.1842 1.59436 12.683C1.53223 12.3874 1.53347 11.6081 1.59656 11.3141C1.81776 10.2836 2.38527 9.43129 3.21201 8.88792C3.6025 8.63124 3.99721 8.46459 4.48395 8.35086C4.68789 8.3032 4.79078 8.29872 5.89326 8.28963C7.23662 8.27853 7.38112 8.29134 7.91072 8.46854C8.46485 8.65395 8.87267 8.90491 9.33393 9.34437C9.71452 9.70695 9.80499 9.75713 10.0816 9.75886C10.2304 9.75979 10.3035 9.74786 10.3872 9.70901C10.5523 9.6324 10.6939 9.49604 10.7707 9.33966C10.8301 9.21873 10.8392 9.17159 10.8383 8.99197C10.8369 8.74555 10.8016 8.66299 10.6028 8.44178C9.84218 7.59545 8.81875 7.03517 7.62499 6.81161C7.36426 6.76276 7.25448 6.7585 6.10947 6.7527C5.17092 6.74795 4.80978 6.75459 4.6028 6.7804ZM16.7793 6.75985C16.1801 6.81187 15.4688 7.01384 14.9226 7.287C14.358 7.56941 13.7655 8.01696 13.3977 8.4389C13.1975 8.66864 13.164 8.74739 13.1627 8.99197C13.1617 9.17159 13.1709 9.21873 13.2303 9.33966C13.3071 9.49604 13.4486 9.6324 13.6138 9.70901C13.6975 9.74786 13.7705 9.75979 13.9193 9.75886C14.196 9.75713 14.2864 9.70695 14.667 9.34437C15.1283 8.90491 15.5361 8.65395 16.0902 8.46854C16.6198 8.29134 16.7643 8.27853 18.1077 8.28963C19.2102 8.29872 19.3131 8.3032 19.517 8.35086C21.0168 8.70131 22.0772 9.78953 22.4044 11.3141C22.4675 11.6081 22.4687 12.3874 22.4066 12.683C22.0913 14.1829 20.9858 15.3135 19.5113 15.6442C19.2878 15.6943 19.1973 15.6984 18.0955 15.7076C16.9912 15.7168 16.9012 15.7143 16.6385 15.6672C16.2888 15.6046 15.9732 15.5026 15.6447 15.3458C15.2723 15.1681 15.0206 14.9897 14.667 14.6528C14.2864 14.2902 14.196 14.24 13.9193 14.2383C13.7705 14.2374 13.6975 14.2493 13.6138 14.2882C13.4486 14.3647 13.3071 14.5011 13.2303 14.6575C13.1709 14.7784 13.1617 14.8256 13.1627 15.0052C13.164 15.2516 13.1994 15.3342 13.3981 15.5554C14.2423 16.4947 15.4209 17.0877 16.7233 17.2284C17.032 17.2617 18.9722 17.2616 19.2796 17.2282C20.335 17.1137 21.2962 16.7061 22.1133 16.0268C22.6753 15.5594 23.1403 14.9598 23.4768 14.2683C24.4102 12.3505 24.0759 10.0698 22.6241 8.45298C21.9393 7.69041 20.9506 7.10917 19.9428 6.87714C19.4438 6.76219 19.1479 6.74276 17.9649 6.74724C17.3666 6.74952 16.833 6.75518 16.7793 6.75985ZM6.51279 11.2732C6.37218 11.3285 6.2885 11.385 6.19655 11.4868C6.05616 11.6422 6.0033 11.7822 6.0033 11.9986C6.0033 12.3099 6.1575 12.5532 6.43946 12.6868L6.58613 12.7563L12.0005 12.7563L17.4148 12.7563L17.5615 12.6868C17.8434 12.5532 17.9976 12.3099 17.9976 11.9986C17.9976 11.7001 17.8442 11.4474 17.5814 11.3132L17.4637 11.253L12.0249 11.2487C7.89575 11.2454 6.56849 11.2513 6.51279 11.2732Z" fill="#666666" fill-rule="evenodd" opacity="1" stroke="none"/>
</g>
</svg>
