<svg width="12" height="12" viewBox="0 0 12 12" fill="none" xmlns="http://www.w3.org/2000/svg">
<path fill-rule="evenodd" clip-rule="evenodd" d="M2.36898 3.43844C1.93471 3.49264 1.5213 3.65776 1.15863 3.92186C0.646319 4.29497 0.268895 4.90019 0.151499 5.53688C-0.0584054 6.67534 0.531335 7.82657 1.58217 8.32968C1.79106 8.4297 2.01029 8.49989 2.25663 8.54563C2.3817 8.56885 2.44807 8.57178 2.96463 8.57677C3.66098 8.58351 3.80931 8.57158 4.12303 8.48348C4.5756 8.3564 5.01053 8.08742 5.31479 7.74643C5.41224 7.63722 5.42943 7.59691 5.43008 7.47614C5.43056 7.38797 5.42606 7.36483 5.3969 7.30546C5.35921 7.22869 5.28969 7.16174 5.20863 7.12414C5.16755 7.10507 5.13168 7.09921 5.05863 7.09967C4.92283 7.10052 4.87842 7.12514 4.69157 7.30316C4.46517 7.51885 4.25029 7.6495 3.97263 7.74027C3.73202 7.81893 3.64272 7.82636 3.00297 7.82095C2.46787 7.81644 2.42301 7.81441 2.31344 7.78985C1.58899 7.62743 1.04701 7.07311 0.892079 6.33614C0.861575 6.19103 0.862187 5.80844 0.893159 5.66414C1.00175 5.15825 1.28035 4.73981 1.68621 4.47306C1.87791 4.34705 2.07168 4.26524 2.31063 4.20941C2.41075 4.18601 2.46126 4.18381 3.00249 4.17935C3.66197 4.1739 3.73291 4.18019 3.9929 4.26718C4.26493 4.3582 4.46514 4.4814 4.69158 4.69714C4.87842 4.87514 4.92283 4.89977 5.05863 4.90062C5.13168 4.90108 5.16755 4.89522 5.20863 4.87615C5.28969 4.83854 5.35921 4.7716 5.3969 4.69483C5.42606 4.63546 5.43056 4.61232 5.43008 4.52414C5.42943 4.40317 5.41208 4.36264 5.31449 4.25404C4.94109 3.83856 4.43867 3.56351 3.85263 3.45376C3.72463 3.42978 3.67074 3.42769 3.10863 3.42484C2.64788 3.42251 2.47059 3.42577 2.36898 3.43844ZM8.34663 3.42835C8.05251 3.45389 7.7033 3.55304 7.43516 3.68714C7.15797 3.82578 6.86712 4.04549 6.68657 4.25263C6.58826 4.36541 6.57183 4.40407 6.57119 4.52414C6.57071 4.61232 6.57521 4.63546 6.60437 4.69483C6.64206 4.7716 6.71157 4.83854 6.79263 4.87615C6.83372 4.89522 6.86959 4.90108 6.94263 4.90062C7.07844 4.89977 7.12285 4.87514 7.30969 4.69714C7.53613 4.4814 7.73634 4.3582 8.00837 4.26718C8.26836 4.18019 8.3393 4.1739 8.99877 4.17935C9.54001 4.18381 9.59052 4.18601 9.69063 4.20941C10.4269 4.38145 10.9475 4.91568 11.1081 5.66414C11.1391 5.80844 11.1397 6.19103 11.1092 6.33614C10.9544 7.07248 10.4117 7.62751 9.68783 7.78986C9.57812 7.81446 9.53369 7.81644 8.99281 7.82095C8.45069 7.82548 8.40649 7.82425 8.27751 7.80116C8.10584 7.77043 7.95092 7.72032 7.78967 7.64336C7.60686 7.55614 7.48329 7.46856 7.30969 7.30315C7.12285 7.12514 7.07844 7.10052 6.94263 7.09967C6.86959 7.09921 6.83372 7.10507 6.79263 7.12414C6.71157 7.16174 6.64206 7.22869 6.60437 7.30546C6.57521 7.36483 6.57071 7.38797 6.57119 7.47614C6.57183 7.59712 6.58919 7.63765 6.68678 7.74625C7.10118 8.20735 7.67981 8.49848 8.31917 8.56756C8.47071 8.58392 9.42319 8.58388 9.5741 8.56748C10.0922 8.51123 10.5641 8.31113 10.9652 7.97767C11.2411 7.7482 11.4694 7.45388 11.6346 7.11438C12.0928 6.17293 11.9287 5.05328 11.216 4.25954C10.8798 3.88518 10.3944 3.59984 9.89967 3.48593C9.65469 3.4295 9.50946 3.41996 8.92871 3.42216C8.63497 3.42328 8.37303 3.42606 8.34663 3.42835ZM3.30663 5.64404C3.2376 5.67119 3.19652 5.69893 3.15138 5.7489C3.08246 5.82518 3.05651 5.89392 3.05651 6.00014C3.05651 6.15296 3.13221 6.27242 3.27063 6.338L3.34263 6.37212H6.00063H8.65863L8.73063 6.338C8.86905 6.27242 8.94476 6.15296 8.94476 6.00014C8.94476 5.8536 8.86945 5.72958 8.74044 5.66368L8.68263 5.63414L6.01263 5.63202C3.98555 5.6304 3.33397 5.63329 3.30663 5.64404Z" fill="#666666"/>
</svg>
