<svg width="326" height="226" viewBox="0 0 326 226" fill="none" xmlns="http://www.w3.org/2000/svg">
<path d="M64.9482 185.927L64.1226 184.27L63.4678 185.194L62.7637 186.234L62.0891 187.272L61.7281 187.846L61.3579 188.451L60.9833 189.082L60.6092 189.732L60.2405 190.398L59.882 191.075L59.5387 191.758C59.483 191.872 59.4282 191.986 59.3742 192.099L59.0628 192.781C57.8684 195.497 57.3303 198.052 58.8544 199.024C62.6646 201.453 70.2971 200.624 69.8335 197.612C69.794 197.359 69.7213 197.055 69.6214 196.711L69.4518 196.166L69.2456 195.569L69.0072 194.926L68.7409 194.245L68.2986 193.171L67.8179 192.055L67.3135 190.923L66.6294 189.434L65.8044 187.69L64.9482 185.927Z" fill="#693D51"/>
<path d="M30.4616 159.17L32.5724 160.124L31.5439 160.808L30.5142 161.463L29.7696 161.919L28.9483 162.406L28.065 162.91L27.4491 163.249L26.8168 163.585L26.1724 163.915L25.5204 164.233L24.8651 164.536L24.2111 164.821L23.5626 165.082C21.0933 166.032 18.8451 166.379 17.9375 165.082C15.491 161.583 16.2554 154.537 19.2554 154.944C19.626 154.995 20.1054 155.112 20.6616 155.276L21.2421 155.457L21.8666 155.665L22.5279 155.899L23.5732 156.288L24.2952 156.567L25.7672 157.158L26.8675 157.615L28.954 158.507L30.4616 159.17Z" fill="#693D51"/>
<path d="M54.3182 205.369L77.5599 158.448L78.5105 157.984L79.2115 157.62L80.3226 157.014L81.1037 156.57L81.9631 156.065L82.5767 155.694L83.5534 155.085L84.5923 154.415L85.6875 153.681L86.4458 153.157L87.2246 152.605L88.0221 152.024L88.8365 151.414L89.666 150.776L90.5087 150.109L91.363 149.413C98.2385 143.728 106.046 135.248 110.648 123.654L112.043 120.173L113.352 116.968L114.814 113.472L116.157 110.341L117.385 107.555L118.141 105.881L119.183 103.632L120.26 101.383L120.942 100.008L121.776 98.3845L122.647 96.7726L123.36 95.5388L123.782 94.8622L124.046 94.4753L128.163 93.0636L133.313 91.2696L139.606 89.0356L144.646 87.2052L146.884 86.3769L150.162 85.142L152.764 84.1375L154.723 83.3615L156.103 82.801L157.804 82.089L158.961 81.586L159.67 81.2674L160.324 80.9633L160.92 80.6748L161.456 80.403L161.928 80.1487C162.148 80.0262 162.342 79.9107 162.509 79.8027C167.869 76.3545 169.269 71.2074 167.176 70.1449C166.534 69.818 165.258 69.7802 163.801 69.8838L163.117 69.9411C163.001 69.9522 162.885 69.9639 162.769 69.9763L162.065 70.0578L161.361 70.1512L160.666 70.2535L159.662 70.4163L158.176 70.6859L156.403 71.0501L143.673 52.5444L143.952 52.5131L144.407 52.4429L144.7 52.3878L145.03 52.3169L145.392 52.2285L145.781 52.121L146.192 51.9925C146.262 51.9692 146.332 51.945 146.404 51.9198L146.838 51.7565C149.256 50.7905 152.095 48.6741 151.589 44.0956L151.033 43.8281L150.406 43.5424C150.295 43.4934 150.182 43.4435 150.066 43.393L148.947 42.9202L147.69 42.4129L145.817 41.6886L143.745 40.9167L141.5 40.1049L139.112 39.2612L135.319 37.9527L132.025 36.8396L126.643 35.0561L121.317 33.3239L112.248 30.4318L102.809 27.489L65.417 50.2711L64.6472 50.7669L64.1662 51.0942C64.0882 51.1488 64.0111 51.2034 63.935 51.2582L63.4902 51.5894C61.5398 53.093 60.2723 54.8144 59.1733 58.2558L58.9316 59.0495C58.8518 59.3239 58.7728 59.6084 58.6942 59.9035L58.4599 60.8215L58.2273 61.807C58.1887 61.9771 58.15 62.1502 58.1114 62.3263L57.9408 63.1275L57.8181 63.7576L57.6781 64.52L57.3493 66.4173L56.8554 69.4249L56.1581 73.8421L55.0876 80.8353L53.2878 92.9036L50.5057 111.974L46.7588 138.137L17.1282 170.936L17.4919 171.713L17.869 172.468L18.2774 173.237L18.6496 173.904L19.2385 174.908L19.7527 175.742L20.1314 176.334L20.5396 176.954L20.9779 177.6L21.4473 178.272L21.9483 178.969L22.4816 179.689C22.6648 179.933 22.8536 180.18 23.048 180.431L23.6482 181.195C23.751 181.324 23.8554 181.454 23.9611 181.584L24.6133 182.377L25.301 183.189L26.025 184.018L26.786 184.864L27.5846 185.725C27.7209 185.869 27.8588 186.014 27.9983 186.16L28.8548 187.042C29.1468 187.338 29.4454 187.636 29.7507 187.936L30.6868 188.841L31.6638 189.756C37.151 194.818 44.5252 200.295 54.3182 205.369Z" fill="#EECEB5"/>
<path d="M146.257 73.1486L135.673 84.4898L168.312 72.8528C167.754 74.853 166.009 77.3706 162.948 79.3587L162.773 79.4685L162.372 79.7028L161.903 79.9557L161.372 80.2263L160.78 80.5136L160.132 80.8164L159.06 81.2976L157.878 81.8082L156.151 82.5285L154.276 83.2866L152.787 83.8749L150.714 84.6791L147.469 85.911L143.581 87.354L136.533 89.9052L128.587 92.7072L124.863 93.9958L124.528 94.4968L124.186 95.0523L123.719 95.8536L123.124 96.9295L122.395 98.3088L121.917 99.2443L120.97 101.159L120.365 102.42L119.541 104.178L118.641 106.148L117.25 109.281L115.934 112.334L114.747 115.152L113.996 116.967L112.675 120.205L111.558 122.994C108.223 131.395 103.205 138.155 98.0901 143.393L97.2126 144.276C96.3347 145.144 95.4567 145.968 94.5865 146.748L93.7192 147.513L92.8589 148.249L92.0074 148.957L91.1664 149.635L90.3377 150.284L89.5231 150.905L88.7244 151.498L87.9433 152.062L87.1817 152.598L86.0796 153.349L85.0311 154.037L84.0424 154.664L83.1194 155.228L82.2681 155.732L81.4945 156.174L80.5942 156.67L79.8569 157.059L78.7584 157.603L55.6818 204.238C44.533 198.455 36.5577 192.137 30.954 186.526L30.0888 185.646C29.9479 185.501 29.8085 185.356 29.6708 185.211L28.8634 184.351C28.6006 184.066 28.344 183.785 28.0937 183.505L27.3609 182.675L26.6644 181.861L26.0034 181.066C25.8962 180.934 25.7904 180.804 25.686 180.675L25.0771 179.907L24.502 179.161C24.4089 179.038 24.3172 178.916 24.2269 178.795L23.7011 178.081L23.2074 177.39L22.7451 176.723L22.1088 175.771L21.7218 175.17L21.1952 174.321L20.879 173.791L20.4555 173.056L19.9817 172.188L19.6915 171.628L19.2681 170.756L18.9814 170.099L21.3207 167.497C22.0403 168.528 22.8607 169.56 23.7586 170.584L24.4462 171.351L25.1606 172.114C25.2818 172.241 25.404 172.367 25.5272 172.494L26.2778 173.25C26.6587 173.627 27.0476 174.002 27.4432 174.374L28.2433 175.115C28.378 175.238 28.5134 175.361 28.6495 175.483L29.4726 176.213L30.3085 176.934L31.1549 177.647C31.2967 177.765 31.4389 177.882 31.5813 177.999L32.4394 178.696L33.3025 179.382L34.1684 180.056L35.4679 181.042L36.7616 181.998L37.6172 182.617L38.8848 183.516L39.7162 184.094L40.9373 184.928L42.5054 185.974L43.627 186.706L45.3706 187.818L47.2136 188.959L49.3452 190.235L50.7273 191.03L69.8688 155.623L77.9516 89.851L79.4546 80.3645L80.6203 73.2042L81.2177 69.6697L81.4707 68.2344L81.7694 66.6523L81.8748 66.1688L82.0456 65.4687L82.2278 64.7621C82.7996 62.6365 83.6338 60.4737 85.7052 58.7132L86.4888 58.0823L87.6286 57.1361L89.9168 55.1905L94.6632 51.1356L96.6745 49.4362L98.6405 47.7988L100.041 46.6542L100.922 45.9475L101.751 45.2961C101.885 45.1927 102.015 45.0919 102.143 44.994L102.876 44.4424C102.992 44.3567 103.105 44.2742 103.215 44.1952L103.831 43.7633C104.022 43.6339 104.198 43.5198 104.358 43.4222L106.661 43.925L112.927 45.3256L115.892 45.9675L117.759 46.3608L120.31 46.8822L122.246 47.2629L124.18 47.6277L125.458 47.8592L127.344 48.1841L128.573 48.3831L129.773 48.566L130.937 48.7309L132.06 48.876C132.427 48.9209 132.786 48.9621 133.136 48.9994L134.16 49.0994L135.126 49.174C135.437 49.1945 135.738 49.2104 136.027 49.2215C140.385 49.3959 145.785 48.3675 150.1 47.2983L151.424 46.9606C151.638 46.9046 151.848 46.8487 152.054 46.7933C151.217 49.9852 148.309 51.3461 146.33 51.9118L145.874 52.0328L145.463 52.1265L145.106 52.196L144.693 52.262L144.404 52.296L150.914 61.8176L143.7 63.4162C146.797 67.4663 149.9 69.3107 152.326 70.1268L152.818 70.2814L153.289 70.4089C153.366 70.4281 153.442 70.4462 153.517 70.4633L153.954 70.5546L154.368 70.6247C154.435 70.6347 154.501 70.644 154.566 70.6525L154.941 70.6951L155.289 70.7222L155.756 70.739L156.154 70.7341L156.57 70.7073L156.97 70.6525C156.561 74.6043 153.633 75.0969 150.941 74.672L150.44 74.5823L149.948 74.4747C149.867 74.4555 149.787 74.4357 149.707 74.4154L149.238 74.2882L148.788 74.1524L148.361 74.012L147.963 73.8705L147.425 73.6645L146.844 73.421L146.446 73.2404L146.257 73.1486Z" fill="#E0A881"/>
<path d="M69.4251 196.679C54.4475 197.296 23.6779 180.076 19.8291 154.805C15.3693 154.094 7.93931 161.345 8.29846 166.358C16.5438 192.588 39.4042 206.388 58.0313 208.258C62.3073 208.223 69.9395 200.253 69.4251 196.679Z" fill="#824D65"/>
<path d="M188.453 0.0499038L127.54 0.338284C124.746 0.355267 122.072 1.47956 120.106 3.46464C118.139 5.44973 117.04 8.13361 117.05 10.9277L117.776 164.391C117.793 167.185 118.918 169.859 120.903 171.825C122.888 173.791 125.572 174.89 128.366 174.881L189.275 174.592C192.07 174.575 194.743 173.451 196.709 171.466C198.676 169.481 199.775 166.797 199.765 164.003L199.039 10.5396C199.022 7.7461 197.898 5.07327 195.914 3.10699C193.929 1.14071 191.246 0.0413704 188.453 0.0499038Z" fill="#E0E0E0"/>
<path d="M128.344 171.877C126.346 171.886 124.426 171.103 123.005 169.7C121.584 168.296 120.778 166.386 120.762 164.388L120.036 10.9143C120.033 8.91708 120.822 7.00009 122.229 5.58315C123.637 4.16621 125.549 3.3648 127.546 3.35441L136.039 3.3142L136.042 3.93146C136.049 5.52722 136.689 7.05494 137.821 8.17997C138.953 9.305 140.484 9.93563 142.08 9.9337L173.955 9.78279C175.554 9.77055 177.082 9.12642 178.206 7.99111C179.331 6.8558 179.961 5.32157 179.958 3.72355L179.955 3.10629L188.444 3.0661C190.439 3.0604 192.355 3.84516 193.773 5.24863C195.19 6.65209 195.994 8.55995 196.008 10.5546L196.735 164.029C196.739 166.023 195.954 167.939 194.55 169.356C193.145 170.772 191.237 171.575 189.242 171.588L128.344 171.877Z" fill="white"/>
<rect x="125.352" y="103.666" width="66.4372" height="16.7731" rx="3.65" transform="rotate(-0.271255 125.352 103.666)" fill="white"/>
<rect x="125.352" y="103.666" width="66.4372" height="16.7731" rx="3.65" transform="rotate(-0.271255 125.352 103.666)" stroke="#E0E0E0" stroke-width="0.7"/>
<path opacity="0.5" fill-rule="evenodd" clip-rule="evenodd" d="M132.185 108.82C132.185 108.558 132.445 108.371 132.701 108.448L137.08 109.766C137.247 109.817 137.361 109.968 137.361 110.139V113.804C137.361 114.066 137.101 114.253 136.845 114.176L132.466 112.857C132.299 112.807 132.185 112.656 132.185 112.485V108.82Z" fill="#FF9ABF"/>
<path opacity="0.8" fill-rule="evenodd" clip-rule="evenodd" d="M131.19 109.444C131.19 109.181 131.449 108.994 131.705 109.071L136.084 110.39C136.251 110.44 136.365 110.591 136.365 110.762V114.427C136.365 114.689 136.106 114.877 135.85 114.799L131.471 113.481C131.304 113.431 131.19 113.28 131.19 113.109V109.444Z" fill="#F789B2"/>
<path fill-rule="evenodd" clip-rule="evenodd" d="M130.195 110.223C130.195 109.961 130.454 109.773 130.71 109.851L135.089 111.169C135.256 111.219 135.37 111.37 135.37 111.541V115.206C135.37 115.468 135.111 115.656 134.855 115.579L130.476 114.26C130.309 114.21 130.195 114.059 130.195 113.888V110.223Z" fill="#FF5B97"/>
<mask id="mask0_10072_32724" style="mask-type:luminance" maskUnits="userSpaceOnUse" x="130" y="109" width="6" height="7">
<path fill-rule="evenodd" clip-rule="evenodd" d="M130.195 110.222C130.195 109.96 130.454 109.773 130.71 109.85L135.089 111.169C135.256 111.219 135.37 111.37 135.37 111.541V115.206C135.37 115.468 135.111 115.655 134.855 115.578L130.476 114.26C130.309 114.209 130.195 114.058 130.195 113.887V110.222Z" fill="white"/>
</mask>
<g mask="url(#mask0_10072_32724)">
<g style="mix-blend-mode:multiply">
<path fill-rule="evenodd" clip-rule="evenodd" d="M130.195 109.562L135.37 111.12L132.768 113.389C132.574 113.558 132.268 113.502 132.149 113.276L130.195 109.562Z" fill="#F2357A"/>
</g>
</g>
<path d="M142.529 108.658H169.683" stroke="#E0E0E0" stroke-width="1.7" stroke-linecap="round"/>
<path d="M142.529 112.806H165.912" stroke="#E0E0E0" stroke-width="0.7" stroke-linecap="round"/>
<path d="M142.529 115.069H162.14" stroke="#E0E0E0" stroke-width="0.7" stroke-linecap="round"/>
<path d="M178.734 108.658H188.163" stroke="#E0E0E0" stroke-width="1.7" stroke-linecap="round"/>
<rect x="125.472" y="129.139" width="66.4372" height="16.7731" rx="3.65" transform="rotate(-0.271255 125.472 129.139)" fill="white"/>
<rect x="125.472" y="129.139" width="66.4372" height="16.7731" rx="3.65" transform="rotate(-0.271255 125.472 129.139)" stroke="#E0E0E0" stroke-width="0.7"/>
<path opacity="0.5" fill-rule="evenodd" clip-rule="evenodd" d="M132.306 134.293C132.306 134.031 132.565 133.843 132.821 133.92L137.2 135.239C137.367 135.289 137.481 135.44 137.481 135.611V139.276C137.481 139.538 137.222 139.726 136.966 139.649L132.587 138.33C132.42 138.28 132.306 138.129 132.306 137.958V134.293Z" fill="#FF9ABF"/>
<path opacity="0.8" fill-rule="evenodd" clip-rule="evenodd" d="M131.311 134.916C131.311 134.654 131.57 134.467 131.826 134.544L136.205 135.862C136.372 135.913 136.486 136.064 136.486 136.235V139.9C136.486 140.162 136.227 140.349 135.971 140.272L131.592 138.954C131.425 138.903 131.311 138.752 131.311 138.581V134.916Z" fill="#F789B2"/>
<path fill-rule="evenodd" clip-rule="evenodd" d="M130.316 135.696C130.316 135.433 130.575 135.246 130.831 135.323L135.21 136.642C135.377 136.692 135.491 136.843 135.491 137.014V140.679C135.491 140.941 135.232 141.128 134.976 141.051L130.597 139.733C130.43 139.683 130.316 139.531 130.316 139.36V135.696Z" fill="#FF5B97"/>
<mask id="mask1_10072_32724" style="mask-type:luminance" maskUnits="userSpaceOnUse" x="130" y="135" width="6" height="7">
<path fill-rule="evenodd" clip-rule="evenodd" d="M130.316 135.695C130.316 135.433 130.575 135.246 130.831 135.323L135.21 136.641C135.377 136.692 135.491 136.843 135.491 137.014V140.679C135.491 140.941 135.232 141.128 134.976 141.051L130.597 139.732C130.43 139.682 130.316 139.531 130.316 139.36V135.695Z" fill="white"/>
</mask>
<g mask="url(#mask1_10072_32724)">
<g style="mix-blend-mode:multiply">
<path fill-rule="evenodd" clip-rule="evenodd" d="M130.316 135.034L135.491 136.592L132.889 138.861C132.694 139.031 132.389 138.975 132.27 138.749L130.316 135.034Z" fill="#F2357A"/>
</g>
</g>
<path d="M142.65 134.13H169.804" stroke="#E0E0E0" stroke-width="1.7" stroke-linecap="round"/>
<path d="M142.649 138.279H166.032" stroke="#E0E0E0" stroke-width="0.7" stroke-linecap="round"/>
<path d="M142.649 140.542H162.261" stroke="#E0E0E0" stroke-width="0.7" stroke-linecap="round"/>
<path d="M178.855 134.13H188.284" stroke="#E0E0E0" stroke-width="1.7" stroke-linecap="round"/>
<path d="M59.6949 153.142L59.8544 154.788L62.8655 154.016L64.0618 153.693L65.0297 153.416L65.7059 153.214L66.4053 152.996L67.1263 152.762L67.8676 152.511L68.6276 152.241L69.405 151.953L70.1983 151.645C70.3317 151.592 70.4658 151.538 70.6004 151.484L71.4149 151.144C71.6885 151.028 71.9642 150.907 72.2417 150.783L73.0793 150.399C73.3602 150.267 73.6426 150.131 73.9264 149.991L74.7815 149.559C75.3539 149.262 75.9306 148.949 76.5098 148.617L77.3803 148.106C77.5256 148.018 77.671 147.929 77.8164 147.839L78.6897 147.285C85.0957 143.116 91.5084 136.573 95.3746 126.096L97.3034 120.827L99.3464 115.133L101.014 110.365L101.978 107.54L102.994 104.485L104 101.339L104.748 98.8561L105.096 97.6074L105.254 96.9764L107.959 94.4372L111.913 90.6565L114.864 87.7843L117.223 85.4524L119.232 83.4365L120.842 81.7989L122.431 80.1566L123.6 78.9314L124.738 77.7195L125.839 76.5275L126.894 75.3623L127.568 74.6037L128.216 73.862L128.835 73.1393L129.423 72.4375L129.978 71.7587L130.496 71.1048C130.58 70.998 130.661 70.8924 130.741 70.7879L131.202 70.1752C131.568 69.6769 131.891 69.2099 132.164 68.7793L132.92 67.5377L133.498 66.564L134.229 65.2889L134.743 64.351L135.065 63.735L135.369 63.1268L135.655 62.5265L135.92 61.9345C135.962 61.8365 136.003 61.7389 136.044 61.6417L136.275 61.0625C137.952 56.6558 137.471 53.0321 131.751 50.7118C128.784 49.508 125.085 51.3995 121.116 54.6013L120.319 55.2586C120.052 55.4832 119.785 55.7131 119.516 55.9477L118.707 56.6654C118.571 56.7872 118.436 56.9101 118.3 57.034L117.485 57.7886L116.665 58.5639L115.432 59.7586L114.195 60.982L112.134 63.0556L109.272 65.9478L108.061 67.1538L107.261 67.9387L106.075 69.0794L105.293 69.8108L104.521 70.5153C102.346 72.4702 100.287 74.0626 98.4303 74.9678C98.093 75.1322 97.7523 75.2928 97.4083 75.4503L96.3669 75.9139L95.3071 76.3622C95.129 76.4358 94.9502 76.509 94.7707 76.5817L93.6855 77.0138C93.5034 77.0852 93.3205 77.1563 93.1371 77.2273L88.0491 79.1531L86.8875 79.6021L85.717 80.0665L84.5388 80.5501C78.2365 83.1866 71.6519 86.7933 65.5462 93.8438C61.4181 98.6023 59.6055 108.545 58.9446 119.044L58.8497 120.706L58.7729 122.373C58.7502 122.929 58.7303 123.485 58.7132 124.041L58.6696 125.706L58.641 127.364L58.6265 129.012C58.6252 129.285 58.6245 129.558 58.6242 129.83L58.6356 132.257L58.6718 134.632L58.708 136.18L58.7526 137.695L58.8331 139.895L58.8944 141.309L58.9952 143.34L59.1036 145.25L59.2539 147.586L59.4398 150.122L59.6949 153.142Z" fill="#EECEB5"/>
<rect x="151.6" y="33.6" width="173.8" height="52.8" rx="7.4" fill="white" stroke="#E0E0E0" stroke-width="1.2"/>
<path opacity="0.5" fill-rule="evenodd" clip-rule="evenodd" d="M167.278 51.0337C167.278 50.3387 167.965 49.842 168.644 50.0464L180.255 53.5426C180.698 53.676 181 54.0764 181 54.5299V64.2476C181 64.9426 180.313 65.4393 179.634 65.2349L168.023 61.7387C167.58 61.6053 167.278 61.2048 167.278 60.7514V51.0337Z" fill="#FF9ABF"/>
<path opacity="0.8" fill-rule="evenodd" clip-rule="evenodd" d="M164.639 52.6865C164.639 51.9915 165.326 51.4948 166.005 51.6992L177.616 55.1954C178.059 55.3288 178.361 55.7293 178.361 56.1827V65.9004C178.361 66.5954 177.674 67.0921 176.995 66.8877L165.384 63.3915C164.941 63.2581 164.639 62.8577 164.639 62.4042V52.6865Z" fill="#F789B2"/>
<path fill-rule="evenodd" clip-rule="evenodd" d="M162 54.7524C162 54.0574 162.687 53.5607 163.366 53.7651L174.977 57.2614C175.42 57.3947 175.722 57.7952 175.722 58.2487V67.9663C175.722 68.6613 175.035 69.158 174.356 68.9536L162.745 65.4574C162.302 65.324 162 64.9236 162 64.4701V54.7524Z" fill="#FF5B97"/>
<mask id="mask2_10072_32724" style="mask-type:luminance" maskUnits="userSpaceOnUse" x="162" y="53" width="14" height="16">
<path fill-rule="evenodd" clip-rule="evenodd" d="M162 54.7524C162 54.0574 162.687 53.5607 163.366 53.7651L174.977 57.2614C175.42 57.3947 175.722 57.7952 175.722 58.2487V67.9663C175.722 68.6613 175.035 69.158 174.356 68.9536L162.745 65.4574C162.302 65.324 162 64.9236 162 64.4701V54.7524Z" fill="white"/>
</mask>
<g mask="url(#mask2_10072_32724)">
<g style="mix-blend-mode:multiply">
<path fill-rule="evenodd" clip-rule="evenodd" d="M162 53L175.722 57.1319L168.823 63.1474C168.308 63.5965 167.498 63.4492 167.182 62.849L162 53Z" fill="#F2357A"/>
</g>
</g>
<path d="M192 51H264" stroke="#E0E0E0" stroke-width="3" stroke-linecap="round"/>
<path d="M192 62H254" stroke="#E0E0E0" stroke-width="1.2" stroke-linecap="round"/>
<path d="M192 68H244" stroke="#E0E0E0" stroke-width="1.2" stroke-linecap="round"/>
<path d="M288 51H313" stroke="#E0E0E0" stroke-width="3" stroke-linecap="round"/>
</svg>
