<svg width="24" height="24" viewBox="0 0 24 24" fill="none" xmlns="http://www.w3.org/2000/svg">
<g clip-path="url(#clip0_190_2333)">
<path fill-rule="evenodd" clip-rule="evenodd" d="M7.23945 1.02128C5.26519 1.02128 3.66474 2.62173 3.66474 4.59599C3.66474 6.57025 5.26519 8.1707 7.23945 8.1707C9.21371 8.1707 10.8142 6.57025 10.8142 4.59599C10.8142 2.62173 9.21371 1.02128 7.23945 1.02128ZM2.64346 4.59599C2.64346 2.05769 4.70115 0 7.23945 0C9.77774 0 11.8354 2.05769 11.8354 4.59599C11.8354 7.13428 9.77774 9.19198 7.23945 9.19198C4.70115 9.19198 2.64346 7.13428 2.64346 4.59599Z" fill="black"/>
<path fill-rule="evenodd" clip-rule="evenodd" d="M7.46015 10.6365C6.34435 10.5969 5.23846 10.8585 4.2586 11.3937C3.27875 11.9289 2.46107 12.7181 1.89144 13.6783C1.40896 14.4917 1.11951 15.4024 1.04226 16.3404H8.20071C8.48273 16.3404 8.71135 16.569 8.71135 16.8511C8.71135 17.1331 8.48273 17.3617 8.20071 17.3617H0.510638C0.228628 17.3617 1.09321e-05 17.1331 5.41749e-09 16.8511C-5.02755e-05 15.5512 0.349891 14.2753 1.01308 13.1573C1.67627 12.0393 2.62824 11.1205 3.76903 10.4974C4.90982 9.87426 6.19734 9.56978 7.4964 9.61592C8.79547 9.66205 10.0581 10.0571 11.1519 10.7596C11.3891 10.912 11.4579 11.2279 11.3055 11.4652C11.1531 11.7025 10.8372 11.7713 10.5999 11.6189C9.66051 11.0155 8.57596 10.6762 7.46015 10.6365Z" fill="black"/>
<path fill-rule="evenodd" clip-rule="evenodd" d="M10.2128 17.1064C10.2128 13.2991 13.2991 10.2128 17.1064 10.2128C20.9136 10.2128 24 13.2991 24 17.1064C24 20.9136 20.9136 24 17.1064 24C13.2991 24 10.2128 20.9136 10.2128 17.1064ZM17.1064 13.5319C17.3884 13.5319 17.617 13.7605 17.617 14.0426V16.5957H20.1702C20.4522 16.5957 20.6809 16.8244 20.6809 17.1064C20.6809 17.3884 20.4522 17.617 20.1702 17.617H17.617V20.1702C17.617 20.4522 17.3884 20.6809 17.1064 20.6809C16.8244 20.6809 16.5957 20.4522 16.5957 20.1702V17.617H14.0426C13.7605 17.617 13.5319 17.3884 13.5319 17.1064C13.5319 16.8244 13.7605 16.5957 14.0426 16.5957H16.5957V14.0426C16.5957 13.7605 16.8244 13.5319 17.1064 13.5319Z" fill="black"/>
</g>
<defs>
<clipPath id="clip0_190_2333">
<rect width="24" height="24" fill="white"/>
</clipPath>
</defs>
</svg>
