<svg width="24" height="24" viewBox="0 0 24 24" fill="none" xmlns="http://www.w3.org/2000/svg">
<path d="M13.5652 22.1598C13.2772 22.1598 13.0435 21.934 13.0435 21.6558C13.0435 21.3776 13.2772 21.1518 13.5652 21.1518C18.7439 21.1518 22.9563 17.0826 22.9563 12.0799C22.9563 7.07725 18.7439 3.00799 13.5652 3.00799C8.38651 3.00799 4.17407 7.07725 4.17407 12.0799V12.2422L6.91211 9.21922C7.01123 9.11036 7.15419 9.04786 7.30445 9.04786C7.4307 9.04786 7.55279 9.09222 7.64774 9.17185C7.86478 9.3553 7.88669 9.67383 7.69679 9.88349L4.04469 13.9154C4.0353 13.9255 4.02486 13.9356 4.01338 13.9447C3.91008 14.0394 3.78278 14.0898 3.65235 14.0898C3.63669 14.0898 3.62 14.0878 3.6033 14.0848C3.59287 14.0838 3.58348 14.0818 3.57304 14.0797C3.51044 14.0697 3.45618 14.0515 3.40505 14.0253C3.39461 14.0203 3.37374 14.0062 3.36435 14.0001C3.32366 13.9739 3.28609 13.9417 3.25479 13.9044C3.24122 13.8913 3.22766 13.8761 3.21827 13.862L0.0878978 9.32607C0.010682 9.21519 -0.0174913 9.08113 0.010682 8.94908C0.0378119 8.81703 0.116071 8.70313 0.231895 8.62854C0.317458 8.5731 0.41763 8.54387 0.520932 8.54387C0.696233 8.54387 0.857969 8.62753 0.955011 8.76865L3.13062 11.9216C3.21931 6.43616 7.86583 2 13.5652 2C19.3188 2 23.9998 6.52184 23.9998 12.0799C23.9998 17.638 19.3188 22.1598 13.5652 22.1598Z" fill="black"/>
<path d="M18.3372 16.9472C18.2417 16.9472 18.15 16.9088 18.079 16.8402L13.4949 12.3459C13.4162 12.2691 13.3711 12.1588 13.3711 12.0444V7.55017C13.3711 7.32464 13.5422 7.1416 13.7531 7.1416C13.964 7.1416 14.1351 7.32464 14.1351 7.55017V11.8646L18.5954 16.2371C18.6703 16.3107 18.7146 16.4112 18.7192 16.5207C18.7238 16.6294 18.6879 16.7339 18.6191 16.8148C18.5466 16.899 18.4442 16.9472 18.3372 16.9472Z" fill="black"/>
<path fill-rule="evenodd" clip-rule="evenodd" d="M18.0099 16.9125L18.0094 16.912L13.4254 12.4179C13.3264 12.3213 13.2715 12.1847 13.2715 12.0448V7.55056C13.2715 7.27624 13.4812 7.04199 13.7535 7.04199C14.0258 7.04199 14.2355 7.27624 14.2355 7.55056V11.823L18.6658 16.1661L18.6659 16.1662C18.7595 16.2581 18.8139 16.3828 18.8195 16.5169L18.7196 16.5211L18.8195 16.5168C18.8195 16.5169 18.8195 16.5169 18.8195 16.5169C18.8251 16.6503 18.781 16.7797 18.6957 16.88L18.6953 16.8805C18.6046 16.9856 18.4751 17.0476 18.3376 17.0476C18.2148 17.0476 18.0986 16.9981 18.0099 16.9125ZM18.6195 16.8152C18.5469 16.8994 18.4446 16.9476 18.3376 16.9476C18.2421 16.9476 18.1504 16.9092 18.0794 16.8406L13.4953 12.3463C13.4166 12.2695 13.3715 12.1592 13.3715 12.0448V7.55056C13.3715 7.32503 13.5426 7.14199 13.7535 7.14199C13.9644 7.14199 14.1355 7.32503 14.1355 7.55056V11.865" fill="black"/>
</svg>
