<svg width="24" height="24" viewBox="0 0 24 24" fill="none" xmlns="http://www.w3.org/2000/svg">
<g clip-path="url(#clip0_1793_62669)">
<path fill-rule="evenodd" clip-rule="evenodd" d="M12 1.5C6.20101 1.5 1.5 6.20101 1.5 12C1.5 17.799 6.20101 22.5 12 22.5C17.799 22.5 22.5 17.799 22.5 12C22.5 6.20101 17.799 1.5 12 1.5ZM0 12C0 5.37258 5.37258 0 12 0C18.6274 0 24 5.37258 24 12C24 18.6274 18.6274 24 12 24C5.37258 24 0 18.6274 0 12Z" fill="black"/>
<path d="M8.25 8.625C8.32417 8.625 8.39667 8.64699 8.45834 8.6882C8.52001 8.7294 8.56807 8.78797 8.59645 8.85649C8.62484 8.92502 8.63226 9.00042 8.61779 9.07316C8.60332 9.1459 8.56761 9.21272 8.51517 9.26517C8.46272 9.31761 8.3959 9.35332 8.32316 9.36779C8.25042 9.38226 8.17502 9.37484 8.10649 9.34645C8.03797 9.31807 7.9794 9.27001 7.9382 9.20834C7.89699 9.14667 7.875 9.07417 7.875 9C7.875 8.90054 7.91451 8.80516 7.98484 8.73483C8.05516 8.66451 8.15054 8.625 8.25 8.625Z" fill="black"/>
<path fill-rule="evenodd" clip-rule="evenodd" d="M8.32316 9.36779C8.3959 9.35332 8.46272 9.31761 8.51517 9.26517C8.56761 9.21272 8.60332 9.1459 8.61779 9.07316C8.62255 9.04924 8.625 9.02475 8.625 9C8.625 8.95051 8.61521 8.90177 8.59645 8.85649C8.5871 8.83391 8.57551 8.81218 8.5618 8.79166C8.53431 8.75052 8.49909 8.71543 8.45834 8.6882C8.43801 8.67462 8.41631 8.66299 8.39351 8.65355C8.34779 8.63461 8.29901 8.625 8.25 8.625C8.22555 8.625 8.20105 8.62739 8.17684 8.63221C8.1041 8.64667 8.03728 8.68239 7.98484 8.73483C7.93239 8.78728 7.89667 8.8541 7.88221 8.92684C7.87739 8.95105 7.875 8.97555 7.875 9C7.875 9.04901 7.88461 9.09779 7.90354 9.14351C7.91299 9.16631 7.92462 9.18801 7.9382 9.20834C7.96543 9.24909 8.00052 9.28431 8.04166 9.3118C8.06218 9.32551 8.08391 9.3371 8.10649 9.34645C8.15177 9.36521 8.20051 9.375 8.25 9.375C8.27475 9.375 8.29924 9.37255 8.32316 9.36779ZM7.4545 8.2045C7.66548 7.99353 7.95163 7.875 8.25 7.875C8.47251 7.875 8.69001 7.94098 8.87502 8.0646C9.06002 8.18821 9.20422 8.36391 9.28936 8.56948C9.37451 8.77505 9.39679 9.00125 9.35338 9.21948C9.30998 9.4377 9.20283 9.63816 9.0455 9.7955C8.88816 9.95283 8.6877 10.06 8.46948 10.1034C8.25125 10.1468 8.02505 10.1245 7.81948 10.0394C7.61392 9.95422 7.43821 9.81002 7.3146 9.62502C7.19098 9.44001 7.125 9.22251 7.125 9C7.125 8.70163 7.24353 8.41548 7.4545 8.2045Z" fill="black"/>
<path d="M15.75 8.625C15.8242 8.625 15.8967 8.64699 15.9583 8.6882C16.02 8.7294 16.0681 8.78797 16.0965 8.85649C16.1248 8.92502 16.1323 9.00042 16.1178 9.07316C16.1033 9.1459 16.0676 9.21272 16.0152 9.26517C15.9627 9.31761 15.8959 9.35332 15.8232 9.36779C15.7504 9.38226 15.675 9.37484 15.6065 9.34645C15.538 9.31807 15.4794 9.27001 15.4382 9.20834C15.397 9.14667 15.375 9.07417 15.375 9C15.375 8.90054 15.4145 8.80516 15.4848 8.73483C15.5552 8.66451 15.6505 8.625 15.75 8.625Z" fill="black"/>
<path fill-rule="evenodd" clip-rule="evenodd" d="M15.8232 9.36779C15.8959 9.35332 15.9627 9.31761 16.0152 9.26517C16.0676 9.21272 16.1033 9.1459 16.1178 9.07316C16.1226 9.04924 16.125 9.02475 16.125 9C16.125 8.95051 16.1152 8.90177 16.0965 8.85649C16.0871 8.83391 16.0755 8.81218 16.0618 8.79166C16.0343 8.75052 15.9991 8.71543 15.9583 8.6882C15.938 8.67462 15.9163 8.66299 15.8935 8.65355C15.8478 8.63461 15.799 8.625 15.75 8.625C15.7256 8.625 15.7011 8.62739 15.6768 8.63221C15.6041 8.64667 15.5373 8.68239 15.4848 8.73483C15.4324 8.78728 15.3967 8.8541 15.3822 8.92684C15.3774 8.95105 15.375 8.97555 15.375 9C15.375 9.04901 15.3846 9.09779 15.4035 9.14351C15.413 9.16631 15.4246 9.18801 15.4382 9.20834C15.4654 9.24909 15.5005 9.28431 15.5417 9.3118C15.5622 9.32551 15.5839 9.3371 15.6065 9.34645C15.6518 9.36521 15.7005 9.375 15.75 9.375C15.7747 9.375 15.7992 9.37255 15.8232 9.36779ZM14.9545 8.2045C15.1655 7.99353 15.4516 7.875 15.75 7.875C15.9725 7.875 16.19 7.94098 16.375 8.0646C16.56 8.18821 16.7042 8.36391 16.7894 8.56948C16.8745 8.77505 16.8968 9.00125 16.8534 9.21948C16.81 9.4377 16.7028 9.63816 16.5455 9.7955C16.3882 9.95283 16.1877 10.06 15.9695 10.1034C15.7513 10.1468 15.525 10.1245 15.3195 10.0394C15.1139 9.95422 14.9382 9.81002 14.8146 9.62502C14.691 9.44001 14.625 9.22251 14.625 9C14.625 8.70163 14.7435 8.41548 14.9545 8.2045Z" fill="black"/>
<path fill-rule="evenodd" clip-rule="evenodd" d="M5.615 14.328C5.98615 14.1441 6.43611 14.2959 6.62002 14.667C7.11654 15.669 7.88314 16.5124 8.83338 17.1021C9.78361 17.6917 10.8797 18.0042 11.998 18.0042C13.1163 18.0042 14.2124 17.6917 15.1626 17.1021C16.1129 16.5124 16.8795 15.669 17.376 14.667C17.5599 14.2959 18.0098 14.1441 18.381 14.328C18.7521 14.5119 18.9039 14.9618 18.72 15.333C18.0994 16.5855 17.1412 17.6396 15.9535 18.3766C14.7658 19.1136 13.3958 19.5042 11.998 19.5042C10.6002 19.5042 9.2302 19.1136 8.04249 18.3766C6.85477 17.6396 5.89659 16.5855 5.27597 15.333C5.09207 14.9618 5.24386 14.5119 5.615 14.328Z" fill="black"/>
</g>
<defs>
<clipPath id="clip0_1793_62669">
<rect width="24" height="24" fill="white"/>
</clipPath>
</defs>
</svg>
