<svg width="24" height="24" viewBox="0 0 24 24" fill="none" xmlns="http://www.w3.org/2000/svg">
<g clip-path="url(#clip0_3897_51069)">
<path d="M12.258 13H13.281C13.3782 12.9999 13.4734 12.9715 13.5547 12.9183C13.6361 12.865 13.7001 12.7891 13.739 12.7C13.993 12.112 14.539 10.857 14.549 10.83C14.8201 10.2826 15.2382 9.82132 15.7564 9.49781C16.2746 9.17429 16.8725 9.00126 17.4834 8.99804C18.0943 8.99483 18.6941 9.16156 19.2157 9.47959C19.7372 9.79763 20.1601 10.2545 20.437 10.799C20.437 10.809 20.507 10.957 20.59 11.15C20.5994 11.1996 20.6266 11.244 20.6665 11.275C20.7063 11.3059 20.7561 11.3212 20.8065 11.318C20.8568 11.3148 20.9043 11.2934 20.9399 11.2576C20.9756 11.2219 20.9969 11.1744 21 11.124V4.5C21 4.10218 20.842 3.72064 20.5607 3.43934C20.2794 3.15804 19.8978 3 19.5 3H9.619C9.52612 2.9999 9.4351 2.97394 9.35614 2.92501C9.27719 2.87609 9.21343 2.80613 9.172 2.723L8.225 0.83C8.10043 0.580482 7.90877 0.370631 7.67153 0.224015C7.4343 0.0773994 7.16088 -0.000176174 6.882 3.00423e-07H1.5C1.10218 3.00423e-07 0.720644 0.158036 0.43934 0.43934C0.158035 0.720645 0 1.10218 0 1.5L0 16.5C0 16.8978 0.158035 17.2794 0.43934 17.5607C0.720644 17.842 1.10218 18 1.5 18H9.133C9.17632 17.9994 9.21875 17.9876 9.25613 17.9658C9.29352 17.9439 9.32457 17.9126 9.34625 17.8751C9.36793 17.8376 9.37949 17.7951 9.37979 17.7518C9.3801 17.7085 9.36914 17.6658 9.348 17.628C9.1435 17.223 9.0283 16.7788 9.01019 16.3254C8.99207 15.872 9.07147 15.4201 9.243 15C9.48919 14.4043 9.9077 13.8956 10.4449 13.5393C10.982 13.1829 11.6134 12.9952 12.258 13Z" fill="black"/>
<path d="M23.6079 17.1387C23.7892 16.9648 23.9145 16.7408 23.9679 16.4954C24.0214 16.25 24.0005 15.9942 23.9079 15.7607C23.8127 15.5306 23.65 15.3348 23.4414 15.199C23.2327 15.0631 22.9878 14.9937 22.7389 14.9997H20.2389C20.19 14.9998 20.1421 14.9855 20.1013 14.9587C20.0604 14.9318 20.0283 14.8936 20.0089 14.8487L18.6649 11.7327L18.6519 11.7047C18.543 11.4936 18.3781 11.3165 18.1752 11.1929C17.9724 11.0693 17.7394 11.0039 17.5019 11.0039C17.2644 11.0039 17.0314 11.0693 16.8286 11.1929C16.6257 11.3165 16.4608 11.4936 16.3519 11.7047L16.3389 11.7327L14.9949 14.8487C14.9757 14.8935 14.9438 14.9317 14.9031 14.9585C14.8624 14.9854 14.8147 14.9997 14.7659 14.9997H12.2659C12.0169 14.9937 11.7719 15.0634 11.5632 15.1994C11.3546 15.3354 11.192 15.5314 11.0969 15.7617C11.0041 15.9951 10.983 16.251 11.0365 16.4965C11.0899 16.742 11.2154 16.9659 11.3969 17.1397L13.5999 19.1097C13.6393 19.1446 13.6666 19.191 13.6779 19.2424C13.6892 19.2938 13.684 19.3475 13.6629 19.3957L12.4389 22.2117C12.3307 22.4556 12.303 22.7276 12.3598 22.9883C12.4167 23.249 12.555 23.4849 12.7549 23.6617C12.9553 23.8465 13.2096 23.9623 13.4806 23.9921C13.7516 24.022 14.025 23.9644 14.2609 23.8277L17.3739 22.0757C17.4113 22.0545 17.4535 22.0434 17.4964 22.0434C17.5393 22.0434 17.5815 22.0545 17.6189 22.0757L20.7309 23.8277C20.9668 23.9644 21.2402 24.022 21.5112 23.9921C21.7822 23.9623 22.0365 23.8465 22.2369 23.6617C22.4369 23.4849 22.5752 23.249 22.6319 22.9883C22.6885 22.7275 22.6605 22.4554 22.5519 22.2117L21.3329 19.3997C21.3118 19.3515 21.3066 19.2978 21.3179 19.2464C21.3292 19.195 21.3565 19.1486 21.3959 19.1137L23.6079 17.1387Z" fill="black"/>
</g>
<defs>
<clipPath id="clip0_3897_51069">
<rect width="24" height="24" fill="white"/>
</clipPath>
</defs>
</svg>
