<svg width="23" height="31" viewBox="0 0 23 31" fill="none" xmlns="http://www.w3.org/2000/svg">
<path d="M11.4993 18.0833C11.1428 18.0833 10.8535 17.794 10.8535 17.4375V2.20487L6.1441 6.91429C6.02139 7.037 5.85993 7.10417 5.68685 7.10417C5.51377 7.10417 5.35231 7.037 5.2296 6.91429C5.10689 6.79158 5.04102 6.63012 5.04102 6.45833C5.04102 6.28654 5.10818 6.12379 5.2296 6.00108L11.0421 0.188583C11.1015 0.129167 11.1726 0.081375 11.2513 0.0490833C11.3314 0.0167917 11.4141 0 11.4993 0C11.5846 0 11.6673 0.0167917 11.7461 0.0490833C11.8261 0.0826667 11.8959 0.129167 11.9566 0.188583L17.7691 6.00108C17.8905 6.12379 17.9577 6.28525 17.9577 6.45833C17.9577 6.63142 17.8905 6.79287 17.7691 6.91558C17.6477 7.03829 17.4849 7.10417 17.3118 7.10417C17.1388 7.10417 16.9773 7.037 16.8546 6.91558L12.1452 2.20487V17.4375C12.1452 17.7927 11.8558 18.0833 11.4993 18.0833Z" fill="#0098FF"/>
<path d="M2.45801 31.0011C1.3898 31.0011 0.520508 30.1318 0.520508 29.0636V12.272C0.520508 11.2038 1.3898 10.3345 2.45801 10.3345H7.62468C7.98118 10.3345 8.27051 10.6238 8.27051 10.9803C8.27051 11.3368 7.98118 11.6261 7.62468 11.6261H2.45801C2.10151 11.6261 1.81217 11.9155 1.81217 12.272V29.0636C1.81217 29.4201 2.10151 29.7095 2.45801 29.7095H20.5413C20.8978 29.7095 21.1872 29.4201 21.1872 29.0636V12.272C21.1872 11.9155 20.8978 11.6261 20.5413 11.6261H15.3747C15.0182 11.6261 14.7288 11.3368 14.7288 10.9803C14.7288 10.6238 15.0182 10.3345 15.3747 10.3345H20.5413C21.6096 10.3345 22.4788 11.2038 22.4788 12.272V29.0636C22.4788 30.1318 21.6096 31.0011 20.5413 31.0011H2.45801Z" fill="#0098FF"/>
</svg>
