<svg width="24" height="24" viewBox="0 0 24 24" fill="none" xmlns="http://www.w3.org/2000/svg">
<path fill-rule="evenodd" clip-rule="evenodd" d="M3.76336 4.90005C3.29631 4.96259 2.92091 5.13314 2.561 5.44632C2.15606 5.79869 1.90759 6.20082 1.78987 6.69439C1.75998 6.81967 1.34486 9.05061 0.867337 11.652C0.0154648 16.293 -0.000813618 16.3882 2.38594e-05 16.7169C0.00172499 17.3658 0.214837 17.9122 0.646059 18.3734C1.0363 18.7908 1.52201 19.0352 2.09236 19.1012C2.27906 19.1228 4.84004 19.1288 11.3145 19.1228L20.2781 19.1146L20.4905 19.0559C20.866 18.9522 21.1402 18.8057 21.4289 18.5545C21.8332 18.2027 22.0896 17.7873 22.2033 17.2999C22.2852 16.9488 23.9568 7.80608 23.9878 7.5395C24.039 7.09987 23.9251 6.51549 23.7134 6.13219C23.3383 5.45278 22.6698 4.9921 21.9269 4.90112C21.6482 4.867 4.01801 4.86596 3.76336 4.90005ZM3.84721 6.59931C3.79215 6.61941 3.74122 6.64187 3.73405 6.64924C3.71534 6.6684 3.75695 6.69072 8.09024 8.98528C10.8332 10.4377 12.0413 11.0644 12.0813 11.0557C12.1275 11.0457 15.0881 9.87495 22.0378 7.1185L22.3058 7.01222L22.2679 6.93718C22.2038 6.81021 21.9794 6.62378 21.8507 6.5906C21.7649 6.56849 19.3543 6.56072 12.8404 6.56158C5.39854 6.56257 3.93096 6.56871 3.84721 6.59931ZM2.39338 12.4734C1.5754 16.9412 1.59518 16.81 1.70599 17.0299C1.7671 17.1512 1.92201 17.3076 2.04988 17.3772C2.1386 17.4254 2.42259 17.4272 11.0756 17.4339C16.9283 17.4384 20.043 17.4316 20.1062 17.4141C20.3351 17.351 20.5428 17.137 20.6061 16.899C20.6463 16.748 22.0734 8.93913 22.0628 8.92828C22.0573 8.92262 19.8457 9.79362 17.1482 10.8638C12.5511 12.6876 12.2312 12.8104 12.0458 12.8235C11.8769 12.8354 11.8252 12.8279 11.6924 12.7724C11.6069 12.7367 9.65604 11.7103 7.35716 10.4915C5.05829 9.27266 3.17391 8.27548 3.16967 8.27548C3.16543 8.27548 2.8161 10.1646 2.39338 12.4734Z" fill="#666666"/>
</svg>
