<svg width="12" height="11" viewBox="0 0 12 11" fill="none" xmlns="http://www.w3.org/2000/svg">
<path fill-rule="evenodd" clip-rule="evenodd" d="M5.94819 2.26465C5.64279 2.26432 5.35202 2.38022 5.15019 2.58274L0.622038 7.12981C0.412427 7.33076 0.342437 7.61626 0.439152 7.87583C0.535866 8.13541 0.784112 8.32833 1.08783 8.37996C1.39154 8.43158 1.70308 8.3338 1.90188 8.12446L5.86142 4.14832C5.88333 4.12624 5.91495 4.11357 5.94819 4.11357C5.98143 4.11357 6.01305 4.12624 6.03496 4.14832L9.9945 8.12528C10.1933 8.33462 10.5048 8.4324 10.8086 8.38077C11.1123 8.32915 11.3605 8.13622 11.4572 7.87665C11.5539 7.61707 11.484 7.33158 11.2743 7.13063L6.74758 2.58437C6.5454 2.38136 6.25424 2.26491 5.94819 2.26465Z" fill="#666666"/>
<mask id="mask0_3268_49062" style="mask-type:alpha" maskUnits="userSpaceOnUse" x="0" y="2" width="12" height="7">
<path fill-rule="evenodd" clip-rule="evenodd" d="M5.94819 2.26465C5.64279 2.26432 5.35202 2.38022 5.15019 2.58274L0.622038 7.12981C0.412427 7.33076 0.342437 7.61626 0.439152 7.87583C0.535866 8.13541 0.784112 8.32833 1.08783 8.37996C1.39154 8.43158 1.70308 8.3338 1.90188 8.12446L5.86142 4.14832C5.88333 4.12624 5.91495 4.11357 5.94819 4.11357C5.98143 4.11357 6.01305 4.12624 6.03496 4.14832L9.9945 8.12528C10.1933 8.33462 10.5048 8.4324 10.8086 8.38077C11.1123 8.32915 11.3605 8.13622 11.4572 7.87665C11.5539 7.61707 11.484 7.33158 11.2743 7.13063L6.74758 2.58437C6.5454 2.38136 6.25424 2.26491 5.94819 2.26465Z" fill="white"/>
</mask>
<g mask="url(#mask0_3268_49062)">
</g>
</svg>
