<svg width="12" height="12" viewBox="0 0 12 12" fill="none" xmlns="http://www.w3.org/2000/svg">
<g clip-path="url(#clip0_3533_1964)">
<path fill-rule="evenodd" clip-rule="evenodd" d="M5.71662 3.98065L5.71702 3.98105C5.71689 3.98092 5.71675 3.98078 5.71662 3.98065ZM5.99999 4.264L10.7197 8.98325C11.0126 9.27613 11.4875 9.27611 11.7803 8.9832C12.0732 8.6903 12.0732 8.21542 11.7803 7.92254L6.77803 2.92074C6.7779 2.92061 6.77777 2.92048 6.77763 2.92034C6.67559 2.81826 6.55446 2.73727 6.42113 2.68199C6.28763 2.62664 6.14452 2.59814 5.99999 2.59814C5.85547 2.59814 5.71236 2.62664 5.57886 2.68199C5.44553 2.73727 5.32439 2.81827 5.22235 2.92034C5.22222 2.92048 5.22209 2.92061 5.22195 2.92074L0.219694 7.92254C-0.0732124 8.21542 -0.0732342 8.6903 0.219646 8.9832C0.512525 9.27611 0.987399 9.27613 1.28031 8.98325L5.99999 4.264ZM6.28337 3.98065C6.28323 3.98078 6.2831 3.98092 6.28297 3.98105L6.28337 3.98065Z" fill="black"/>
</g>
<defs>
<clipPath id="clip0_3533_1964">
<rect width="12" height="12" fill="white"/>
</clipPath>
</defs>
</svg>
