<svg xmlns="http://www.w3.org/2000/svg" fill="none" viewBox="6 6 128 38">
<path opacity="0.5" fill-rule="evenodd" clip-rule="evenodd" d="M16.5555 8.06736C16.5555 6.67738 17.9299 5.68399 19.2875 6.09277L42.5097 13.0852C43.3955 13.3519 44 14.1528 44 15.0598V34.4952C44 35.8852 42.6256 36.8785 41.268 36.4698L18.0458 29.4773C17.16 29.2106 16.5555 28.4097 16.5555 27.5027V8.06736Z" fill="#FF9ABF"/>
<path opacity="0.8" fill-rule="evenodd" clip-rule="evenodd" d="M11.2778 11.3729C11.2778 9.98292 12.6522 8.98953 14.0097 9.39831L37.232 16.3908C38.1178 16.6575 38.7222 17.4584 38.7222 18.3654V37.8007C38.7222 39.1907 37.3478 40.1841 35.9903 39.7753L12.768 32.7829C11.8822 32.5161 11.2778 31.7152 11.2778 30.8083V11.3729Z" fill="#F789B2"/>
<path fill-rule="evenodd" clip-rule="evenodd" d="M6 15.5048C6 14.1148 7.3744 13.1214 8.73196 13.5302L31.9542 20.5227C32.84 20.7894 33.4444 21.5903 33.4444 22.4972V41.9326C33.4444 43.3226 32.07 44.316 30.7125 43.9072L7.49026 36.9148C6.60446 36.648 6 35.8471 6 34.9402V15.5048Z" fill="#FF5B97"/>
<mask id="mask0_769_8493" style="mask-type:alpha" maskUnits="userSpaceOnUse" x="6" y="13" width="28" height="31">
<path fill-rule="evenodd" clip-rule="evenodd" d="M6 15.5048C6 14.1148 7.3744 13.1214 8.73196 13.5302L31.9542 20.5227C32.84 20.7894 33.4444 21.5903 33.4444 22.4972V41.9326C33.4444 43.3226 32.07 44.316 30.7125 43.9072L7.49026 36.9148C6.60446 36.648 6 35.8471 6 34.9402V15.5048Z" fill="white"/>
</mask>
<g mask="url(#mask0_769_8493)">
<g style="mix-blend-mode:multiply">
<path fill-rule="evenodd" clip-rule="evenodd" d="M6 12.7076L33.4444 20.9714L19.6452 33.0023C18.615 33.9006 16.9956 33.606 16.364 32.4055L6 12.7076Z" fill="#F2357A"/>
</g>
<g style="mix-blend-mode:multiply">
<path fill-rule="evenodd" clip-rule="evenodd" d="M6 12.7076L33.4444 20.9714L19.6452 33.0023C18.615 33.9006 16.9956 33.606 16.364 32.4055L6 12.7076Z" fill="#F2357A"/>
</g>
</g>
<path d="M60 8.00946H62.5116V9.70759H60V8.00946ZM60 10.4862H62.5116V16.9967H60V10.4862ZM63.9512 10.4862H66.29V11.5467C66.6397 11.1135 66.9935 10.8039 67.3514 10.618C67.7093 10.432 68.1454 10.339 68.6597 10.339C69.3549 10.339 69.899 10.5444 70.2919 10.9551C70.6848 11.3659 70.8812 12.0004 70.8812 12.8586V16.9967H68.3573V13.4165C68.3573 13.0078 68.2812 12.7186 68.129 12.549C67.9768 12.3794 67.7628 12.2946 67.4872 12.2946C67.1828 12.2946 66.9359 12.4091 66.7467 12.6379C66.5574 12.8668 66.4628 13.2775 66.4628 13.8701V16.9967H63.9512V10.4862ZM75.0114 10.4862H76.2086V12.313H75.0114V16.9967H72.4936V12.313H71.5556V10.4862H72.4936V10.1919C72.4936 9.92624 72.5224 9.63402 72.58 9.31524C72.6376 8.99646 72.7456 8.73592 72.904 8.53361C73.0624 8.33131 73.2846 8.16783 73.5705 8.04318C73.8564 7.91853 74.275 7.8562 74.8263 7.8562L75.0436 7.85983C75.468 7.87313 76.0353 7.92301 76.7455 8.00946L76.4678 9.51754C76.1674 9.4685 75.9247 9.44398 75.7396 9.44398C75.5133 9.44398 75.3508 9.48178 75.2521 9.55739C75.1533 9.633 75.0834 9.75254 75.0423 9.91602C75.0217 10.0059 75.0114 10.196 75.0114 10.4862ZM76.4448 13.7598C76.4448 12.7667 76.7822 11.9483 77.4569 11.3046C78.1316 10.6609 79.0428 10.339 80.1906 10.339C81.503 10.339 82.4945 10.7171 83.1651 11.4731C83.704 12.0821 83.9735 12.8321 83.9735 13.723C83.9735 14.7243 83.6392 15.5448 82.9707 16.1844C82.3021 16.824 81.3775 17.1438 80.1968 17.1438C79.1436 17.1438 78.292 16.8781 77.642 16.3468C76.8439 15.6888 76.4448 14.8265 76.4448 13.7598ZM78.9626 13.7537C78.9626 14.334 79.0809 14.7631 79.3174 15.0411C79.554 15.319 79.8512 15.4579 80.2092 15.4579C80.5712 15.4579 80.8684 15.321 81.1009 15.0472C81.3333 14.7734 81.4495 14.334 81.4495 13.7291C81.4495 13.1651 81.3323 12.7452 81.0978 12.4693C80.8633 12.1935 80.5732 12.0555 80.2277 12.0555C79.8615 12.0555 79.5591 12.1955 79.3205 12.4755C79.0819 12.7554 78.9626 13.1815 78.9626 13.7537ZM85.0366 10.4862H87.3816V11.4364C87.719 11.0399 88.0594 10.7579 88.4029 10.5904C88.7464 10.4228 89.1609 10.339 89.6464 10.339C90.1689 10.339 90.5823 10.431 90.8867 10.6149C91.1912 10.7988 91.4401 11.0726 91.6334 11.4364C92.0284 11.0113 92.3883 10.7222 92.7134 10.5689C93.0384 10.4157 93.4395 10.339 93.9167 10.339C94.6202 10.339 95.1694 10.5464 95.5644 10.9613C95.9593 11.3761 96.1568 12.0249 96.1568 12.9077V16.9967H93.639V13.2878C93.639 12.9935 93.5814 12.7748 93.4662 12.6318C93.2975 12.407 93.0877 12.2946 92.8368 12.2946C92.5406 12.2946 92.302 12.4009 92.1209 12.6134C91.9399 12.8259 91.8494 13.1672 91.8494 13.6372V16.9967H89.3317V13.4104C89.3317 13.1243 89.3152 12.9301 89.2823 12.828C89.2288 12.6645 89.1362 12.5327 89.0046 12.4326C88.8729 12.3324 88.7187 12.2824 88.5418 12.2824C88.2538 12.2824 88.0172 12.3907 87.8321 12.6073C87.647 12.8239 87.5544 13.1794 87.5544 13.674V16.9967H85.0366V10.4862ZM99.7809 12.595L97.3804 12.3437C97.4709 11.9268 97.6015 11.5988 97.7723 11.3597C97.943 11.1206 98.1888 10.9132 98.5097 10.7375C98.7401 10.6108 99.0569 10.5127 99.46 10.4432C99.8632 10.3738 100.299 10.339 100.768 10.339C101.521 10.339 102.126 10.3809 102.583 10.4647C103.039 10.5485 103.42 10.7232 103.724 10.9888C103.938 11.1728 104.107 11.4333 104.23 11.7705C104.354 12.1076 104.415 12.4295 104.415 12.736V15.6112C104.415 15.9177 104.435 16.1578 104.474 16.3315C104.513 16.5052 104.598 16.7269 104.73 16.9967H102.373C102.278 16.8291 102.216 16.7014 102.188 16.6135C102.159 16.5256 102.13 16.3877 102.101 16.1997C101.772 16.5144 101.445 16.7392 101.12 16.874C100.676 17.0539 100.159 17.1438 99.5711 17.1438C98.7894 17.1438 98.196 16.964 97.7908 16.6043C97.3855 16.2447 97.1829 15.8012 97.1829 15.274C97.1829 14.7795 97.329 14.3728 97.6211 14.0541C97.8923 13.758 98.3764 13.5325 99.0733 13.3775L100.403 13.1031C100.708 13.0372 100.931 12.9853 101.071 12.9475C101.35 12.8719 101.647 12.7728 101.959 12.6502C101.959 12.3437 101.896 12.1291 101.768 12.0065C101.64 11.8839 101.416 11.8226 101.095 11.8226C100.684 11.8226 100.375 11.888 100.17 12.0188C100.009 12.1209 99.8797 12.313 99.7809 12.595ZM101.959 13.9069C101.7 13.9989 101.433 14.0828 101.157 14.1587L100.879 14.2318C100.369 14.3667 100.046 14.4995 99.9105 14.6303C99.7706 14.7652 99.7007 14.9184 99.7007 15.0901C99.7007 15.2863 99.7696 15.4467 99.9074 15.5713C100.045 15.696 100.248 15.7583 100.515 15.7583C100.795 15.7583 101.055 15.6909 101.296 15.556C101.537 15.4211 101.707 15.2566 101.808 15.0625C101.909 14.8684 101.959 14.616 101.959 14.3054V13.9069ZM105.756 10.4862H108.095V11.5467C108.445 11.1135 108.799 10.8039 109.156 10.618C109.514 10.432 109.95 10.339 110.465 10.339C111.16 10.339 111.704 10.5444 112.097 10.9551C112.49 11.3659 112.686 12.0004 112.686 12.8586V16.9967H110.162V13.4165C110.162 13.0078 110.086 12.7186 109.934 12.549C109.782 12.3794 109.568 12.2946 109.292 12.2946C108.988 12.2946 108.741 12.4091 108.552 12.6379C108.362 12.8668 108.268 13.2775 108.268 13.8701V16.9967H105.756V10.4862ZM114.114 8.00946H116.625V9.70759H114.114V8.00946ZM114.114 10.4862H116.625V16.9967H114.114V10.4862ZM120.354 12.595L117.954 12.3437C118.044 11.9268 118.175 11.5988 118.345 11.3597C118.516 11.1206 118.762 10.9132 119.083 10.7375C119.313 10.6108 119.63 10.5127 120.033 10.4432C120.436 10.3738 120.873 10.339 121.342 10.339C122.094 10.339 122.699 10.3809 123.156 10.4647C123.612 10.5485 123.993 10.7232 124.297 10.9888C124.511 11.1728 124.68 11.4333 124.803 11.7705C124.927 12.1076 124.989 12.4295 124.989 12.736V15.6112C124.989 15.9177 125.008 16.1578 125.047 16.3315C125.086 16.5052 125.172 16.7269 125.303 16.9967H122.946L122.862 16.8424C122.814 16.7484 122.78 16.6721 122.761 16.6135C122.732 16.5256 122.703 16.3877 122.674 16.1997C122.345 16.5144 122.018 16.7392 121.693 16.874C121.249 17.0539 120.733 17.1438 120.144 17.1438C119.363 17.1438 118.769 16.964 118.364 16.6043C117.959 16.2447 117.756 15.8012 117.756 15.274C117.756 14.7795 117.902 14.3728 118.194 14.0541C118.466 13.758 118.95 13.5325 119.647 13.3775L120.976 13.1031C121.281 13.0372 121.504 12.9853 121.644 12.9475C121.924 12.8719 122.22 12.7728 122.533 12.6502C122.533 12.3437 122.469 12.1291 122.341 12.0065C122.214 11.8839 121.989 11.8226 121.669 11.8226C121.257 11.8226 120.949 11.888 120.743 12.0188C120.582 12.1209 120.453 12.313 120.354 12.595ZM122.533 13.9069C122.273 13.9989 122.006 14.0828 121.731 14.1587L121.453 14.2318C120.942 14.3667 120.62 14.4995 120.484 14.6303C120.344 14.7652 120.274 14.9184 120.274 15.0901C120.274 15.2863 120.343 15.4467 120.481 15.5713C120.618 15.696 120.821 15.7583 121.089 15.7583C121.368 15.7583 121.628 15.6909 121.869 15.556C122.11 15.4211 122.281 15.2566 122.381 15.0625C122.482 14.8684 122.533 14.616 122.533 14.3054V13.9069ZM126.329 8.00946H128.897V12.6441L130.773 10.4862H133.864L131.513 12.7667L134 16.9967H131.168L129.841 14.3851L128.897 15.3047V16.9967H126.329V8.00946Z" fill="#0098FF"/>
<path d="M67.144 42.1438H70.24L74.656 28.0558V42.1438H77.632V24.7438H72.904L68.704 38.6158L64.48 24.7438H59.752V42.1438H62.728V28.0558L67.144 42.1438ZM80.215 38.5918C80.215 40.9438 82.183 42.4558 84.991 42.4558C86.887 42.4558 88.423 41.7838 89.239 40.3918C89.287 41.2798 89.383 41.5918 89.479 42.1438H92.095C91.855 41.0638 91.711 39.3598 91.711 37.7278C91.711 36.5518 91.759 35.0398 91.759 34.3918C91.831 30.2638 89.407 28.8478 86.311 28.8478C83.191 28.8478 81.007 30.6478 80.815 33.2878H83.623C83.695 31.7278 84.775 30.9598 86.215 30.9598C87.631 30.9598 88.903 31.6318 88.903 33.8398V34.0798C84.175 34.5598 80.215 35.3758 80.215 38.5918ZM88.975 36.0718V37.0558C88.975 39.2398 87.727 40.3198 85.615 40.3198C84.175 40.3198 83.239 39.6478 83.239 38.5198C83.239 37.0318 84.895 36.4558 88.975 36.0718ZM97.5031 24.7438H94.6471V27.6238H97.5031V24.7438ZM97.5031 29.2318H94.6471V42.1438H97.5031V29.2318ZM103.573 42.1438V24.7438H100.717V42.1438H103.573Z" fill="#333333"/>
</svg>