<svg width="115" height="115" viewBox="0 0 115 115" fill="none" xmlns="http://www.w3.org/2000/svg">
<path opacity="0.5" fill-rule="evenodd" clip-rule="evenodd" d="M38.0779 18.0737C38.0779 14.8069 41.239 12.4721 44.3614 13.4329L97.7725 29.8671C99.8098 30.4939 101.2 32.3763 101.2 34.5079V80.1864C101.2 83.4532 98.039 85.7879 94.9166 84.8272L41.5055 68.393C39.4681 67.7661 38.0779 65.8838 38.0779 63.7522V18.0737Z" fill="#FF9ABF"/>
<path opacity="0.8" fill-rule="evenodd" clip-rule="evenodd" d="M25.939 25.8423C25.939 22.5754 29.1001 20.2407 32.2225 21.2014L85.6336 37.6356C87.6709 38.2625 89.0612 40.1448 89.0612 42.2764V87.9549C89.0612 91.2218 85.9001 93.5565 82.7777 92.5958L29.3666 76.1616C27.3292 75.5347 25.939 73.6523 25.939 71.5207V25.8423Z" fill="#F789B2"/>
<path fill-rule="evenodd" clip-rule="evenodd" d="M13.8 35.5542C13.8 32.2873 16.9612 29.9526 20.0836 30.9133L73.4947 47.3475C75.532 47.9744 76.9223 49.8568 76.9223 51.9884V97.6668C76.9223 100.934 73.7611 103.268 70.6388 102.308L17.2277 85.8735C15.1903 85.2466 13.8 83.3643 13.8 81.2326V35.5542Z" fill="#FF5B97"/>
<mask id="mask0_4730_49096" style="mask-type:alpha" maskUnits="userSpaceOnUse" x="13" y="30" width="64" height="73">
<path fill-rule="evenodd" clip-rule="evenodd" d="M13.8 35.5542C13.8 32.2873 16.9612 29.9526 20.0836 30.9133L73.4947 47.3475C75.532 47.9744 76.9223 49.8568 76.9223 51.9884V97.6668C76.9223 100.934 73.7611 103.268 70.6388 102.308L17.2277 85.8735C15.1903 85.2466 13.8 83.3643 13.8 81.2326V35.5542Z" fill="white"/>
</mask>
<g mask="url(#mask0_4730_49096)">
<g style="mix-blend-mode:multiply">
<path fill-rule="evenodd" clip-rule="evenodd" d="M13.8 28.9795L76.9223 48.4017L45.1841 76.6777C42.8146 78.7888 39.09 78.0965 37.6372 75.2751L13.8 28.9795Z" fill="#F2357A"/>
</g>
<g style="mix-blend-mode:multiply">
<path fill-rule="evenodd" clip-rule="evenodd" d="M13.8 28.9795L76.9223 48.4017L45.1841 76.6777C42.8146 78.7888 39.09 78.0965 37.6372 75.2751L13.8 28.9795Z" fill="#F2357A"/>
</g>
</g>
</svg>
