<svg width="12" height="12" viewBox="0 0 12 12" fill="none" xmlns="http://www.w3.org/2000/svg">
<path fill-rule="evenodd" clip-rule="evenodd" d="M6 0C2.68629 0 0 2.68629 0 6C0 9.31371 2.68629 12 6 12C9.31371 12 12 9.31371 12 6C11.9961 2.68789 9.31211 0.00385738 6 0ZM6 11C3.23858 11 1 8.76142 1 6C1 3.23858 3.23858 1 6 1C8.76142 1 11 3.23858 11 6C10.997 8.76017 8.76017 10.997 6 11ZM6.25 5.7805L8.567 7.905C8.77035 8.09147 8.78423 8.40742 8.598 8.611C8.4101 8.81187 8.09601 8.82543 7.8915 8.6415L5.412 6.369C5.30863 6.27417 5.24985 6.14028 5.25 6V3.25C5.25 2.97386 5.47386 2.75 5.75 2.75C6.02614 2.75 6.25 2.97386 6.25 3.25V5.7805Z" fill="#B35D00"/>
</svg>
