<?xml version="1.0" encoding="UTF-8" standalone="no"?>
<!DOCTYPE svg PUBLIC "-//W3C//DTD SVG 1.1//EN" "http://www.w3.org/Graphics/SVG/1.1/DTD/svg11.dtd">
<!-- Created with Vectornator (http://vectornator.io/) -->
<svg height="100%" stroke-miterlimit="10" style="fill-rule:nonzero;clip-rule:evenodd;stroke-linecap:round;stroke-linejoin:round;" version="1.1" viewBox="0 0 24 24" width="100%" xml:space="preserve" xmlns="http://www.w3.org/2000/svg" xmlns:xlink="http://www.w3.org/1999/xlink">
<defs/>
<clipPath id="ArtboardFrame">
<rect height="24" width="24" x="0" y="0"/>
</clipPath>
<g clip-path="url(#ArtboardFrame)" id="Sans-titre">
<path d="M11.5585 0.00600421C11.5024 0.0115364 11.3303 0.0286685 11.1761 0.0440925C9.53617 0.20802 7.89827 0.9951 6.69136 2.19926C5.51992 3.36799 4.80538 4.80805 4.54218 6.53047C4.50316 6.78583 4.49848 7.35111 4.48998 12.853C4.48342 17.0998 4.48894 18.9866 4.50858 19.203C4.66368 20.9124 5.64046 22.434 7.13896 23.3004C8.95479 24.3504 11.234 24.209 12.9394 22.9406C13.4063 22.5934 13.9507 21.9912 14.2806 21.4568C14.6531 20.8538 14.9332 20.031 15.0115 19.3104C15.0296 19.144 15.0384 17.1256 15.0384 13.1505C15.0384 8.02486 15.0334 7.20921 15.0004 7.02021C14.7735 5.71871 13.7519 4.70997 12.4635 4.51513C10.8218 4.26681 9.29607 5.37321 9.00885 7.02021C8.97601 7.20853 8.97083 7.92902 8.97083 12.3073C8.97083 17.3639 8.97097 17.3766 9.02337 17.5167C9.08883 17.6916 9.25723 17.8695 9.43643 17.9529C9.63997 18.0477 9.90449 18.0418 10.1124 17.9379C10.2797 17.8543 10.3899 17.7458 10.4812 17.5751L10.5387 17.4674L10.5517 12.3686C10.5642 7.49289 10.5668 7.26365 10.612 7.12957C10.7407 6.74709 11.0148 6.40949 11.3314 6.24353C11.6251 6.08951 12.0195 6.04349 12.3592 6.12357C12.8302 6.23461 13.2241 6.61625 13.3975 7.12957C13.4429 7.26425 13.4451 7.49195 13.4524 12.8912C13.4601 18.5576 13.454 19.0358 13.3684 19.456C13.2341 20.1156 12.8924 20.7662 12.4261 21.2502C11.9803 21.7132 11.5142 22.0104 10.9256 22.2074C8.94737 22.8692 6.81362 21.7472 6.23172 19.7391C6.08078 19.2182 6.08796 19.5819 6.09742 12.9295C6.10698 6.19949 6.09352 6.74579 6.267 6.05639C6.68486 4.39611 7.84475 2.96753 9.39119 2.2085C10.8008 1.51661 12.3887 1.40918 13.8773 1.90498C15.3806 2.40574 16.6189 3.48615 17.3085 4.89883C17.5188 5.32945 17.6423 5.65913 17.7423 6.05639C17.9126 6.73315 17.901 6.37989 17.9172 11.3743L17.932 15.9123L17.9986 16.0525C18.0836 16.2314 18.2258 16.3732 18.4037 16.4567C18.5959 16.5469 18.8723 16.5482 19.0548 16.4599C19.2146 16.3825 19.3866 16.2106 19.4573 16.0575L19.5127 15.9378L19.5127 11.4253C19.5127 7.7882 19.506 6.86095 19.4783 6.64519C19.3535 5.67373 19.0322 4.67377 18.5912 3.88391C17.9988 2.82311 17.1897 1.94422 16.1857 1.27097C15.2102 0.616921 14.1082 0.204042 12.9352 0.0531429C12.6578 0.0174766 11.7557-0.0134223 11.5585 0.00600421Z" fill="#666666" fill-rule="evenodd" opacity="1" stroke="none"/>
</g>
</svg>
