<svg width="12" height="12" viewBox="0 0 12 12" fill="none" xmlns="http://www.w3.org/2000/svg">
<path fill-rule="evenodd" clip-rule="evenodd" d="M5.77874 0.00300211C5.7507 0.00576823 5.66465 0.0143343 5.58753 0.0220463C4.76758 0.10401 3.94863 0.497551 3.34517 1.09963C2.75945 1.684 2.40218 2.40403 2.27058 3.26524C2.25107 3.39292 2.24873 3.67556 2.24448 6.42651C2.2412 8.54992 2.24396 9.49332 2.25378 9.60153C2.33133 10.4562 2.81972 11.217 3.56897 11.6502C4.47689 12.1752 5.61652 12.1045 6.46919 11.4703C6.70264 11.2967 6.97484 10.9956 7.13982 10.7284C7.32603 10.4269 7.4661 10.0155 7.50527 9.65521C7.51431 9.572 7.51872 8.56283 7.51872 6.57527C7.51872 4.01244 7.51619 3.60461 7.49971 3.51011C7.38623 2.85936 6.87546 2.35499 6.23126 2.25757C5.41041 2.13341 4.64753 2.68661 4.50392 3.51011C4.4875 3.60427 4.48491 3.96452 4.48491 6.15364C4.48491 8.68196 4.48498 8.68833 4.51118 8.75837C4.54391 8.84583 4.62811 8.93476 4.71771 8.97647C4.81948 9.02385 4.95174 9.02091 5.0557 8.96896C5.13937 8.92715 5.19447 8.87294 5.2401 8.78755L5.26886 8.73374L5.27537 6.18432C5.2816 3.74645 5.28292 3.63183 5.30548 3.56479C5.36987 3.37355 5.50692 3.20475 5.6652 3.12177C5.81206 3.04476 6.00923 3.02175 6.17909 3.06179C6.41459 3.11731 6.61153 3.30813 6.69823 3.56479C6.72097 3.63213 6.72205 3.74598 6.72572 6.44563C6.72957 9.2788 6.72651 9.51794 6.68372 9.72801C6.61654 10.0578 6.44571 10.3831 6.21257 10.6251C5.98965 10.8566 5.75662 11.0052 5.46228 11.1037C4.47318 11.4346 3.4063 10.8736 3.11535 9.86956C3.03988 9.60914 3.04347 9.79099 3.0482 6.46475C3.05298 3.09975 3.04625 3.3729 3.13299 3.0282C3.34192 2.19806 3.92187 1.48377 4.69509 1.10425C5.39989 0.758305 6.19385 0.704589 6.93813 0.952494C7.68978 1.20287 8.30894 1.74308 8.65377 2.44942C8.75888 2.66473 8.82064 2.82957 8.87064 3.0282C8.95579 3.36658 8.94999 3.18995 8.95812 5.68718L8.96551 7.95616L8.99882 8.02627C9.04131 8.1157 9.1124 8.18664 9.20133 8.22836C9.29745 8.27346 9.43566 8.27414 9.52689 8.22998C9.60681 8.19129 9.6928 8.10534 9.72817 8.02877L9.75583 7.96891V5.71268C9.75583 3.89411 9.75249 3.43048 9.73864 3.3226C9.67624 2.83687 9.51561 2.33689 9.29509 1.94196C8.99892 1.41156 8.59437 0.972112 8.09234 0.635487C7.60461 0.308461 7.0536 0.102021 6.46708 0.0265715C6.32842 0.0087383 5.87734 -0.00671116 5.77874 0.00300211Z" fill="#666666"/>
</svg>
