<svg width="24" height="24" viewBox="0 0 24 24" fill="none" xmlns="http://www.w3.org/2000/svg">
<g clip-path="url(#clip0_1325_5483)">
<path d="M18.3593 6.99995C17.2781 5.69036 15.8192 4.74633 14.1815 4.29672C12.5439 3.8471 10.8074 3.91381 9.20914 4.48775C7.61084 5.06168 6.2286 6.11486 5.25109 7.50354C4.27357 8.89222 3.74842 10.5487 3.74731 12.2469V14.4999M5.99731 17.9079C7.13111 19.1093 8.59945 19.9427 10.2122 20.3001C11.825 20.6576 13.508 20.5226 15.0432 19.9127C16.5784 19.3028 17.8952 18.2461 18.823 16.8794C19.7509 15.5127 20.247 13.8989 20.2473 12.2469V10.7469M20.2473 10.7469L23.2473 13.7469M20.2473 10.7469L17.2473 13.7469M0.747314 11.4969L3.74731 14.4969L6.74731 11.4969" stroke="black" stroke-linecap="round" stroke-linejoin="round"/>
</g>
<defs>
<clipPath id="clip0_1325_5483">
<rect width="24" height="24" fill="white" transform="translate(-0.00268555)"/>
</clipPath>
</defs>
</svg>
