<svg width="24" height="25" viewBox="0 0 24 25" fill="none" xmlns="http://www.w3.org/2000/svg">
<path d="M11.8247 24.002C8.73497 24.002 5.81116 22.8156 3.59169 20.6618C1.32422 18.4612 0.0490923 15.5092 0.00109249 12.3495L4.90293e-05 12.2045C-0.0187335 5.57111 5.36142 0.0970432 11.9927 0.00104346C12.0543 -1.34839e-08 12.1148 0 12.1764 0C15.265 0 18.1889 1.18643 20.4094 3.34121C22.6768 5.54189 23.952 8.49389 23.9989 11.6546L24 11.8027C24.0156 18.434 18.6365 23.906 12.0073 24.002H11.8247ZM12.0084 1.04452C5.94472 1.13217 1.02683 6.13668 1.04352 12.1993L1.04457 12.3349C1.08839 15.2149 2.25082 17.906 4.31795 19.9126C6.34124 21.8765 9.0188 22.9575 11.856 22.9575L11.9927 22.9564C18.0532 22.8688 22.9711 17.8653 22.9565 11.8038L22.9555 11.6671C22.9127 8.7871 21.7502 6.09494 19.6821 4.08833C17.6577 2.12347 14.9916 1.04139 12.1732 1.04139L12.0084 1.04452Z" fill="black"/>
<path d="M12.0003 14.6144C11.7123 14.6144 11.4785 14.3807 11.4785 14.0927V6.78834C11.4785 6.50034 11.7123 6.2666 12.0003 6.2666C12.2883 6.2666 12.522 6.50034 12.522 6.78834V14.0927C12.522 14.3796 12.2883 14.6144 12.0003 14.6144Z" fill="black"/>
<path d="M12.0073 17.2234C11.5795 17.2224 11.233 16.8895 11.2174 16.4648C11.2142 16.2478 11.2915 16.0485 11.4344 15.8982C11.5784 15.7469 11.7725 15.6613 11.9812 15.6582C11.9822 15.6582 12.0042 15.6582 12.0083 15.6582C12.4414 15.6864 12.7628 16.013 12.7753 16.4189C12.7795 16.6349 12.7022 16.8342 12.5582 16.9845C12.4142 17.1337 12.2202 17.2192 12.0125 17.2224C12.0115 17.2234 12.0094 17.2234 12.0073 17.2234Z" fill="black"/>
</svg>
