<svg width="24" height="24" viewBox="0 0 24 24" fill="none" xmlns="http://www.w3.org/2000/svg">
<path fill-rule="evenodd" clip-rule="evenodd" d="M12.0278 4.99957C11.3661 4.99875 10.7361 5.28296 10.2988 5.77957L0.487848 16.9316C-0.157082 17.7002 -0.0704784 18.843 0.682899 19.5057C1.43628 20.1683 2.58086 20.1083 3.26085 19.3706L11.8398 9.61857C11.8873 9.56442 11.9558 9.53336 12.0278 9.53336C12.0999 9.53336 12.1684 9.56442 12.2158 9.61857L20.7948 19.3706C21.4748 20.1083 22.6194 20.1683 23.3728 19.5057C24.1262 18.843 24.2128 17.7002 23.5678 16.9316L13.7599 5.78357C13.3218 5.28576 12.6909 5.0002 12.0278 4.99957Z" fill="black"/>
</svg>
