<svg width="24" height="24" viewBox="0 0 24 24" fill="none" xmlns="http://www.w3.org/2000/svg">
<path fill-rule="evenodd" clip-rule="evenodd" d="M12 0.25C12.2761 0.25 12.5 0.473858 12.5 0.75V23.25C12.5 23.5261 12.2761 23.75 12 23.75C11.7239 23.75 11.5 23.5261 11.5 23.25V0.75C11.5 0.473858 11.7239 0.25 12 0.25Z" fill="#666666"/>
<path fill-rule="evenodd" clip-rule="evenodd" d="M12 0.25C12.1326 0.25 12.2598 0.302678 12.3536 0.396447L16.1036 4.14645C16.2988 4.34171 16.2988 4.65829 16.1036 4.85355C15.9083 5.04882 15.5917 5.04882 15.3964 4.85355L12 1.45711L8.60355 4.85355C8.40829 5.04882 8.09171 5.04882 7.89645 4.85355C7.70118 4.65829 7.70118 4.34171 7.89645 4.14645L11.6464 0.396447C11.7402 0.302678 11.8674 0.25 12 0.25Z" fill="#666666"/>
</svg>
