<svg width="24" height="24" viewBox="0 0 24 24" fill="none" xmlns="http://www.w3.org/2000/svg">
<path fill-rule="evenodd" clip-rule="evenodd" d="M12 8.72127L2.13384 18.5865C1.64566 19.0746 0.854208 19.0746 0.366075 18.5864C-0.122057 18.0983 -0.12202 17.3068 0.366158 16.8187L10.609 6.57673C10.6092 6.57658 10.6093 6.57643 10.6095 6.57628C10.6096 6.57621 10.6096 6.57614 10.6097 6.57606C10.7921 6.39355 11.0087 6.24874 11.2471 6.1499C11.4858 6.05094 11.7416 6 12 6C12.2584 6 12.5142 6.05094 12.7529 6.1499C12.9913 6.24874 13.2079 6.39355 13.3903 6.57606C13.3904 6.57614 13.3904 6.57621 13.3905 6.57628C13.3907 6.57643 13.3908 6.57658 13.391 6.57673L23.6338 16.8187C24.122 17.3068 24.1221 18.0983 23.6339 18.5864C23.1458 19.0746 22.3543 19.0746 21.8662 18.5865L12 8.72127Z" fill="black"/>
</svg>
