<svg width="16" height="16" viewBox="0 0 16 16" fill="none" xmlns="http://www.w3.org/2000/svg">
<path fill-rule="evenodd" clip-rule="evenodd" d="M8 0C3.58172 0 0 3.58172 0 8C0 12.4183 3.58172 16 8 16C12.4183 16 16 12.4183 16 8C16 3.58172 12.4183 0 8 0ZM8.16667 3.33333C8.33148 3.33333 8.4926 3.38221 8.62964 3.47377C8.76669 3.56534 8.8735 3.69549 8.93657 3.84776C8.99964 4.00004 9.01614 4.16759 8.98398 4.32924C8.95183 4.49089 8.87247 4.63938 8.75592 4.75592C8.63938 4.87247 8.49089 4.95183 8.32924 4.98399C8.16759 5.01614 8.00004 4.99964 7.84776 4.93656C7.69549 4.87349 7.56535 4.76668 7.47378 4.62964C7.38221 4.4926 7.33333 4.33148 7.33333 4.16667C7.33333 3.94565 7.42113 3.73369 7.57741 3.57741C7.73369 3.42113 7.94565 3.33333 8.16667 3.33333ZM6.16667 6.77777C6.16667 6.50163 6.39052 6.27777 6.66667 6.27777H7.77778C8.05773 6.27777 8.32621 6.38898 8.52417 6.58694C8.72213 6.78489 8.83333 7.05338 8.83333 7.33333V10.7222H10C10.2761 10.7222 10.5 10.9461 10.5 11.2222C10.5 11.4984 10.2761 11.7222 10 11.7222H6.66667C6.39052 11.7222 6.16667 11.4984 6.16667 11.2222C6.16667 10.9461 6.39052 10.7222 6.66667 10.7222H7.83333V7.33333C7.83333 7.31859 7.82748 7.30446 7.81706 7.29404C7.80664 7.28362 7.79251 7.27777 7.77778 7.27777H6.66667C6.39052 7.27777 6.16667 7.05391 6.16667 6.77777Z" fill="#0098FF"/>
</svg>
