<svg width="16" height="17" viewBox="0 0 16 17" fill="none" xmlns="http://www.w3.org/2000/svg">
<path fill-rule="evenodd" clip-rule="evenodd" d="M7.99939 0.237061C3.58119 0.237061 -0.000488281 3.81878 -0.000488281 8.23706C-0.000488281 12.6554 3.58119 16.2371 7.99939 16.2371C12.4176 16.2371 15.9993 12.6554 15.9993 8.23706C15.9993 3.81878 12.4176 0.237061 7.99939 0.237061ZM8.16606 3.57039C8.33088 3.57039 8.49199 3.61927 8.62903 3.71083C8.76607 3.8024 8.87288 3.93255 8.93595 4.08482C8.99903 4.2371 9.01552 4.40465 8.98337 4.5663C8.95121 4.72795 8.87185 4.87644 8.75531 4.99298C8.63876 5.10953 8.49029 5.18889 8.32864 5.22105C8.16699 5.2532 7.99943 5.2367 7.84716 5.17362C7.6949 5.11055 7.56475 5.00374 7.47318 4.8667C7.38161 4.72966 7.33274 4.56854 7.33274 4.40373C7.33274 4.18271 7.42053 3.97075 7.57681 3.81447C7.73309 3.65819 7.94505 3.57039 8.16606 3.57039ZM6.16609 7.01483C6.16609 6.73869 6.38995 6.51483 6.66608 6.51483H7.77717C8.05712 6.51483 8.32561 6.62604 8.52355 6.824C8.72151 7.02195 8.83272 7.29044 8.83272 7.57039V10.9593H9.99937C10.2755 10.9593 10.4994 11.1832 10.4994 11.4593C10.4994 11.7355 10.2755 11.9593 9.99937 11.9593H6.66608C6.38995 11.9593 6.16609 11.7355 6.16609 11.4593C6.16609 11.1832 6.38995 10.9593 6.66608 10.9593H7.83273V7.57039C7.83273 7.55565 7.82687 7.54152 7.81646 7.5311C7.80604 7.52068 7.79191 7.51483 7.77717 7.51483H6.66608C6.38995 7.51483 6.16609 7.29097 6.16609 7.01483Z" fill="black"/>
</svg>
