<svg width="20" height="20" viewBox="0 0 20 20" fill="none" xmlns="http://www.w3.org/2000/svg">
<path fill-rule="evenodd" clip-rule="evenodd" d="M16.7917 3.36667C16.5979 3.32712 16.4587 3.15688 16.4583 2.95917V1.66667C16.4583 0.746192 15.7121 0 14.7917 0H4.375C2.99429 0 1.875 1.11929 1.875 2.5V17.5C1.875 18.8807 2.99429 20 4.375 20H16.4583C17.3788 20 18.125 19.2538 18.125 18.3333V5C18.1252 4.20789 17.5678 3.52509 16.7917 3.36667ZM3.54167 2.5C3.54167 2.03976 3.91476 1.66667 4.375 1.66667H14.5833C14.6984 1.66667 14.7917 1.75994 14.7917 1.875V3.125C14.7917 3.24006 14.6984 3.33333 14.5833 3.33333H4.375C3.91476 3.33333 3.54167 2.96024 3.54167 2.5ZM14.5333 16.8033C14.657 16.8033 14.7742 16.7483 14.8533 16.6533C14.9311 16.56 14.9643 16.4373 14.9442 16.3175C14.8693 15.8837 14.733 15.4628 14.5392 15.0675C14.1667 14.3175 13.2292 13.86 11.53 13.2342C11.4482 13.0389 11.4404 12.8205 11.5083 12.62C12.1873 11.7734 12.524 10.7028 12.4517 9.62C12.4989 8.7136 12.0423 7.85507 11.2642 7.38766C10.4862 6.92026 9.51378 6.92026 8.73575 7.38766C7.95772 7.85507 7.50105 8.7136 7.54833 9.62C7.47545 10.6942 7.80688 11.7568 8.4775 12.5992C8.55382 12.7998 8.55618 13.0211 8.48417 13.2233C6.77083 13.8583 5.83333 14.3167 5.46083 15.0633C5.26703 15.4586 5.13066 15.8795 5.05583 16.3133C5.03411 16.4349 5.06739 16.5598 5.14671 16.6544C5.22602 16.749 5.34321 16.8035 5.46667 16.8033H14.5333Z" fill="#9D66E1"/>
</svg>
