<svg width="12" height="12" viewBox="0 0 12 12" fill="none" xmlns="http://www.w3.org/2000/svg">
<path fill-rule="evenodd" clip-rule="evenodd" d="M3.8818 1.6318C4.05754 1.45607 4.34246 1.45607 4.5182 1.6318L8.37717 5.49078C8.4441 5.55761 8.4972 5.63699 8.53343 5.72437C8.56966 5.81175 8.58831 5.90541 8.58831 6C8.58831 6.09459 8.56966 6.18825 8.53343 6.27563C8.4972 6.36301 8.4441 6.44239 8.37717 6.50922L4.5182 10.3682C4.34246 10.5439 4.05754 10.5439 3.8818 10.3682C3.70607 10.1925 3.70607 9.90754 3.8818 9.7318L7.6136 6L3.8818 2.2682C3.70607 2.09246 3.70607 1.80754 3.8818 1.6318Z" fill="#666666"/>
</svg>
