<svg width="24" height="24" viewBox="0 0 24 24" fill="none" xmlns="http://www.w3.org/2000/svg">
<path d="M3.5 23.5C2.121 23.5 1 22.378 1 21V6C1 4.621 2.121 3.5 3.5 3.5H17.5C18.878 3.5 20 4.621 20 6V21C20 22.378 18.878 23.5 17.5 23.5H3.5ZM3.5 4.5C2.673 4.5 2 5.173 2 6V21C2 21.827 2.673 22.5 3.5 22.5H17.5C18.327 22.5 19 21.827 19 21V6C19 5.173 18.327 4.5 17.5 4.5H3.5Z" fill="black"/>
<path d="M22.5 18.5C22.224 18.5 22 18.276 22 18V3C22 2.173 21.327 1.5 20.5 1.5H4C3.724 1.5 3.5 1.276 3.5 1C3.5 0.724 3.724 0.5 4 0.5H20.5C21.878 0.5 23 1.621 23 3V18C23 18.276 22.776 18.5 22.5 18.5Z" fill="black"/>
<path d="M5.51391 19.839C5.11291 19.839 4.73591 19.683 4.45291 19.4L4.09891 19.046C3.51391 18.461 3.51391 17.51 4.09891 16.925L11.1699 9.85404C11.4529 9.57104 11.8299 9.41504 12.2309 9.41504C12.6319 9.41504 13.0079 9.57104 13.2919 9.85404L13.6459 10.208C14.2309 10.793 14.2309 11.744 13.6459 12.329L6.57391 19.4C6.29091 19.683 5.91491 19.839 5.51391 19.839ZM4.80591 17.632C4.61091 17.827 4.61091 18.144 4.80591 18.339L5.15991 18.693C5.25391 18.787 5.37991 18.839 5.51391 18.839C5.64791 18.839 5.77291 18.787 5.86791 18.693L11.1719 13.389L10.1109 12.328L4.80591 17.632ZM11.8789 12.681L12.9389 11.621C13.1339 11.426 13.1339 11.109 12.9389 10.914L12.5849 10.56C12.4909 10.466 12.3649 10.414 12.2309 10.414C12.0969 10.414 11.9719 10.466 11.8769 10.56L10.8169 11.62L11.8789 12.681Z" fill="black"/>
<path d="M7.5 9.5C7.224 9.5 7 9.276 7 9V8.5H6.5C6.224 8.5 6 8.276 6 8C6 7.724 6.224 7.5 6.5 7.5H7V7C7 6.724 7.224 6.5 7.5 6.5C7.776 6.5 8 6.724 8 7V7.5H8.5C8.776 7.5 9 7.724 9 8C9 8.276 8.776 8.5 8.5 8.5H8V9C8 9.276 7.776 9.5 7.5 9.5Z" fill="black"/>
<path d="M13.5 18.5C13.224 18.5 13 18.276 13 18V17.5H12.5C12.224 17.5 12 17.276 12 17C12 16.724 12.224 16.5 12.5 16.5H13V16C13 15.724 13.224 15.5 13.5 15.5C13.776 15.5 14 15.724 14 16V16.5H14.5C14.776 16.5 15 16.724 15 17C15 17.276 14.776 17.5 14.5 17.5H14V18C14 18.276 13.776 18.5 13.5 18.5Z" fill="black"/>
<path d="M15.5 10.5C15.224 10.5 15 10.276 15 10V9.5H14.5C14.224 9.5 14 9.276 14 9C14 8.724 14.224 8.5 14.5 8.5H15V8C15 7.724 15.224 7.5 15.5 7.5C15.776 7.5 16 7.724 16 8V8.5H16.5C16.776 8.5 17 8.724 17 9C17 9.276 16.776 9.5 16.5 9.5H16V10C16 10.276 15.776 10.5 15.5 10.5Z" fill="black"/>
</svg>
