<svg width="24" height="24" viewBox="0 0 24 24" fill="none" xmlns="http://www.w3.org/2000/svg">
<path fill-rule="evenodd" clip-rule="evenodd" d="M21.077 0.799804L23.2 2.9238C24.1726 3.89948 24.1726 5.47813 23.2 6.4538L21.784 7.8728C21.5888 8.06799 21.2723 8.06799 21.077 7.8728L16.127 2.9238C15.9318 2.72855 15.9318 2.41205 16.127 2.2168L17.545 0.799804C18.5209 -0.174153 20.1011 -0.174153 21.077 0.799804ZM15.067 3.9858C14.9734 3.89136 14.846 3.8381 14.713 3.8378C14.5802 3.83783 14.4528 3.89072 14.359 3.9848L3.43701 14.9098C3.24182 15.1051 3.24182 15.4216 3.43701 15.6168L8.38501 20.5648C8.58026 20.76 8.89676 20.76 9.09201 20.5648L20.009 9.6478C20.2035 9.45267 20.2035 9.13694 20.009 8.9418L15.067 3.9858ZM2.43001 16.7998C2.30196 16.6722 2.11499 16.6236 1.94101 16.6728C1.76676 16.7217 1.63252 16.8609 1.59001 17.0368L0.0840132 23.3138C0.0435986 23.4829 0.0939648 23.6609 0.217013 23.7838C0.340789 23.9053 0.518081 23.9551 0.687013 23.9158L6.95901 22.4158C7.13512 22.3737 7.27468 22.2396 7.32385 22.0653C7.37302 21.891 7.32412 21.7038 7.19601 21.5758L2.43001 16.7998Z" fill="black"/>
<mask id="mask0_4680_49028" style="mask-type:alpha" maskUnits="userSpaceOnUse" x="0" y="0" width="24" height="24">
<path fill-rule="evenodd" clip-rule="evenodd" d="M21.077 0.799804L23.2 2.9238C24.1726 3.89948 24.1726 5.47813 23.2 6.4538L21.784 7.8728C21.5888 8.06799 21.2723 8.06799 21.077 7.8728L16.127 2.9238C15.9318 2.72855 15.9318 2.41205 16.127 2.2168L17.545 0.799804C18.5209 -0.174153 20.1011 -0.174153 21.077 0.799804ZM15.067 3.9858C14.9734 3.89136 14.846 3.8381 14.713 3.8378C14.5802 3.83783 14.4528 3.89072 14.359 3.9848L3.43701 14.9098C3.24182 15.1051 3.24182 15.4216 3.43701 15.6168L8.38501 20.5648C8.58026 20.76 8.89676 20.76 9.09201 20.5648L20.009 9.6478C20.2035 9.45267 20.2035 9.13694 20.009 8.9418L15.067 3.9858ZM2.43001 16.7998C2.30196 16.6722 2.11499 16.6236 1.94101 16.6728C1.76676 16.7217 1.63252 16.8609 1.59001 17.0368L0.0840132 23.3138C0.0435986 23.4829 0.0939648 23.6609 0.217013 23.7838C0.340789 23.9053 0.518081 23.9551 0.687013 23.9158L6.95901 22.4158C7.13512 22.3737 7.27468 22.2396 7.32385 22.0653C7.37302 21.891 7.32412 21.7038 7.19601 21.5758L2.43001 16.7998Z" fill="white"/>
</mask>
<g mask="url(#mask0_4680_49028)">
</g>
</svg>
