<svg width="24" height="24" viewBox="0 0 24 24" fill="none" xmlns="http://www.w3.org/2000/svg">
<g clip-path="url(#clip0_9195_61188)">
<path d="M17.75 18.968C16.682 18.968 15.813 18.099 15.813 17.031C15.813 15.963 16.682 15.094 17.75 15.094C18.818 15.094 19.687 15.963 19.687 17.031C19.687 18.099 18.818 18.968 17.75 18.968ZM17.75 16.094C17.233 16.094 16.813 16.514 16.813 17.031C16.813 17.548 17.233 17.968 17.75 17.968C18.267 17.968 18.687 17.548 18.687 17.031C18.687 16.514 18.267 16.094 17.75 16.094Z" fill="black"/>
<path d="M17.7538 24C17.5818 24 17.4108 23.975 17.2438 23.925C16.6708 23.753 16.2268 23.308 16.0548 22.736L15.6268 21.347C15.5688 21.156 15.3898 21.023 15.1908 21.023C15.1578 21.023 15.1248 21.027 15.0918 21.034L13.6828 21.361C13.5518 21.391 13.4188 21.406 13.2868 21.406C12.4608 21.406 11.7298 20.821 11.5478 20.015C11.4178 19.44 11.5808 18.839 11.9818 18.408L12.9688 17.344C13.1288 17.17 13.1288 16.897 12.9678 16.723L11.9808 15.659C11.6568 15.312 11.4878 14.858 11.5058 14.381C11.5228 13.905 11.7238 13.464 12.0718 13.14C12.4028 12.832 12.8348 12.662 13.2868 12.662C13.4178 12.662 13.5498 12.677 13.6788 12.705L15.0938 13.033C15.1268 13.041 15.1608 13.045 15.1938 13.045C15.3918 13.045 15.5688 12.913 15.6258 12.723L16.0508 11.329C16.1858 10.877 16.4898 10.503 16.9068 10.278C17.1668 10.138 17.4578 10.064 17.7488 10.064C17.9208 10.064 18.0918 10.089 18.2588 10.139C18.8318 10.31 19.2768 10.753 19.4498 11.325L19.8738 12.716C19.9308 12.906 20.1088 13.039 20.3068 13.039C20.3408 13.039 20.3738 13.035 20.4068 13.028L21.8178 12.701C21.9488 12.672 22.0798 12.657 22.2118 12.657C23.0388 12.657 23.7708 13.242 23.9528 14.048C24.0828 14.622 23.9208 15.223 23.5188 15.655L22.5308 16.719C22.3708 16.892 22.3718 17.166 22.5318 17.341L23.5188 18.404C23.8428 18.752 24.0118 19.206 23.9948 19.682C23.9778 20.158 23.7768 20.599 23.4278 20.923C23.0968 21.232 22.6658 21.402 22.2138 21.402C22.0818 21.402 21.9498 21.387 21.8208 21.358L20.4058 21.029C20.3778 21.023 20.3458 21.019 20.3138 21.019C20.1148 21.019 19.9358 21.152 19.8788 21.343L19.4548 22.737C19.2308 23.48 18.5318 24 17.7538 24ZM15.1908 20.023C15.8268 20.023 16.3998 20.447 16.5838 21.055L17.0118 22.444C17.0878 22.697 17.2818 22.891 17.5318 22.966C17.6048 22.989 17.6798 23 17.7558 23C18.0948 23 18.3998 22.773 18.4978 22.448L18.9218 21.054C19.1038 20.445 19.6768 20.019 20.3158 20.019C20.4198 20.019 20.5248 20.03 20.6278 20.053L22.0448 20.382C22.0988 20.394 22.1568 20.401 22.2138 20.401C22.4118 20.401 22.6018 20.326 22.7468 20.191C22.8998 20.048 22.9878 19.855 22.9958 19.646C23.0038 19.437 22.9288 19.238 22.7868 19.084L21.7978 18.018C21.2868 17.463 21.2868 16.594 21.7968 16.039L22.7858 14.973C22.9628 14.783 23.0348 14.519 22.9768 14.266C22.9308 14.062 22.8088 13.888 22.6318 13.776C22.5058 13.697 22.3618 13.655 22.2148 13.655C22.1568 13.655 22.0978 13.661 22.0398 13.674L20.6308 14C20.5238 14.024 20.4158 14.037 20.3068 14.037C19.6708 14.037 19.0978 13.612 18.9148 13.004L18.4908 11.614C18.4148 11.364 18.2208 11.17 17.9708 11.095C17.8978 11.073 17.8228 11.062 17.7478 11.062C17.6218 11.062 17.4948 11.094 17.3818 11.156C17.1998 11.255 17.0668 11.418 17.0068 11.616L16.5818 13.01C16.3988 13.617 15.8268 14.041 15.1908 14.041C15.0828 14.041 14.9738 14.029 14.8678 14.004L13.4548 13.677C13.3998 13.664 13.3418 13.658 13.2838 13.658C13.0868 13.658 12.8978 13.733 12.7518 13.868C12.4358 14.162 12.4178 14.659 12.7118 14.975L13.7008 16.041C14.2118 16.596 14.2118 17.465 13.7018 18.019L12.7128 19.085C12.5358 19.275 12.4638 19.539 12.5208 19.792C12.6008 20.146 12.9218 20.403 13.2848 20.403C13.3428 20.403 13.3998 20.397 13.4568 20.384L14.8648 20.057C14.9738 20.035 15.0818 20.023 15.1908 20.023Z" fill="black"/>
<path d="M7.5 9.5C4.881 9.5 2.75 7.369 2.75 4.75C2.75 2.131 4.881 0 7.5 0C10.119 0 12.25 2.131 12.25 4.75C12.25 7.369 10.119 9.5 7.5 9.5ZM7.5 1C5.432 1 3.75 2.682 3.75 4.75C3.75 6.818 5.432 8.5 7.5 8.5C9.568 8.5 11.25 6.818 11.25 4.75C11.25 2.682 9.568 1 7.5 1Z" fill="black"/>
<path d="M0.5 18C0.224 18 0 17.775 0 17.5C0 15.497 0.78 13.613 2.197 12.197C3.613 10.78 5.496 10 7.5 9.99902C8.94 9.99902 10.342 10.41 11.553 11.189C11.785 11.338 11.852 11.648 11.704 11.88C11.611 12.024 11.454 12.11 11.283 12.11C11.187 12.11 11.094 12.083 11.013 12.031C9.963 11.356 8.748 11 7.5 11C5.764 11 4.132 11.676 2.904 12.904C1.8 14.008 1.136 15.454 1.019 17H9.5C9.776 17 10 17.224 10 17.5C10 17.776 9.776 18 9.5 18H0.5Z" fill="black"/>
</g>
<defs>
<clipPath id="clip0_9195_61188">
<rect width="24" height="24" fill="white"/>
</clipPath>
</defs>
</svg>
