<svg width="83" height="114" viewBox="0 0 83 114" fill="none" xmlns="http://www.w3.org/2000/svg">
<mask id="path-1-inside-1_8989_20172" fill="white">
<path d="M65.1409 23.9494C65.1409 17.5976 62.6177 11.506 58.1263 7.01461C53.6349 2.52323 47.5433 4.79545e-07 41.1916 0C34.8398 -4.79545e-07 28.7482 2.52323 24.2568 7.01461C19.7654 11.506 17.2422 17.5976 17.2422 23.9494L22.0321 23.9494C22.0321 18.868 24.0506 13.9947 27.6438 10.4016C31.2369 6.80846 36.1101 4.78987 41.1916 4.78988C46.273 4.78988 51.1463 6.80846 54.7394 10.4016C58.3325 13.9947 60.3511 18.868 60.3511 23.9494H65.1409Z"/>
</mask>
<path d="M65.1409 23.9494C65.1409 17.5976 62.6177 11.506 58.1263 7.01461C53.6349 2.52323 47.5433 4.79545e-07 41.1916 0C34.8398 -4.79545e-07 28.7482 2.52323 24.2568 7.01461C19.7654 11.506 17.2422 17.5976 17.2422 23.9494L22.0321 23.9494C22.0321 18.868 24.0506 13.9947 27.6438 10.4016C31.2369 6.80846 36.1101 4.78987 41.1916 4.78988C46.273 4.78988 51.1463 6.80846 54.7394 10.4016C58.3325 13.9947 60.3511 18.868 60.3511 23.9494H65.1409Z" fill="#F1F1F1" stroke="#9F9F9F" stroke-width="0.601357" mask="url(#path-1-inside-1_8989_20172)"/>
<path d="M5.9339 23.1425H76.4519C79.6452 23.1425 82.2355 25.7485 82.2355 28.9653V81.4732C82.2355 84.0875 81.0821 86.5665 79.0877 88.2401C68.9022 96.7871 60.6782 103.195 54.4142 107.464C51.282 109.6 48.643 111.198 46.4959 112.262C44.3435 113.329 42.7038 113.849 41.564 113.849C40.424 113.849 38.7703 113.329 36.5898 112.262C34.4147 111.198 31.7337 109.599 28.5457 107.464C22.1702 103.195 13.7788 96.7875 3.37018 88.2412C1.33279 86.5683 0.150339 84.0617 0.150339 81.4145V28.9653C0.150339 25.7485 2.74066 23.1425 5.9339 23.1425Z" fill="#F5F5F5" stroke="#9F9F9F" stroke-width="0.300678"/>
<path d="M9.57704 35.4432C11.1643 35.4432 12.451 34.1565 12.451 32.5692C12.451 30.982 11.1643 29.6953 9.57704 29.6953C7.98982 29.6953 6.70312 30.982 6.70312 32.5692C6.70312 34.1565 7.98982 35.4432 9.57704 35.4432Z" fill="#E0E0E0"/>
<path d="M72.8036 35.4432C74.3908 35.4432 75.6775 34.1565 75.6775 32.5692C75.6775 30.982 74.3908 29.6953 72.8036 29.6953C71.2164 29.6953 69.9297 30.982 69.9297 32.5692C69.9297 34.1565 71.2164 35.4432 72.8036 35.4432Z" fill="#E0E0E0"/>
<path d="M41.1942 107.295C42.7815 107.295 44.0682 106.008 44.0682 104.421C44.0682 102.834 42.7815 101.547 41.1942 101.547C39.607 101.547 38.3203 102.834 38.3203 104.421C38.3203 106.008 39.607 107.295 41.1942 107.295Z" fill="#E0E0E0"/>
<mask id="path-6-inside-2_8989_20172" fill="white">
<path fill-rule="evenodd" clip-rule="evenodd" d="M41.1906 51.2539C39.6034 51.2539 38.3167 52.5406 38.3167 54.1278V57.6475C36.0509 58.7237 34.4844 61.033 34.4844 63.7082C34.4844 67.4117 37.4867 70.414 41.1902 70.414C44.8937 70.414 47.896 67.4117 47.896 63.7082C47.896 61.0333 46.3299 58.7242 44.0645 57.6479V54.1278C44.0645 52.5406 42.7778 51.2539 41.1906 51.2539Z"/>
</mask>
<path fill-rule="evenodd" clip-rule="evenodd" d="M41.1906 51.2539C39.6034 51.2539 38.3167 52.5406 38.3167 54.1278V57.6475C36.0509 58.7237 34.4844 61.033 34.4844 63.7082C34.4844 67.4117 37.4867 70.414 41.1902 70.414C44.8937 70.414 47.896 67.4117 47.896 63.7082C47.896 61.0333 46.3299 58.7242 44.0645 57.6479V54.1278C44.0645 52.5406 42.7778 51.2539 41.1906 51.2539Z" fill="white"/>
<path d="M38.3167 57.6475L38.4457 57.9191L38.6174 57.8376V57.6475H38.3167ZM44.0645 57.6479H43.7639V57.8379L43.9355 57.9195L44.0645 57.6479ZM38.6174 54.1278C38.6174 52.7067 39.7695 51.5546 41.1906 51.5546V50.9532C39.4373 50.9532 38.016 52.3745 38.016 54.1278H38.6174ZM38.6174 57.6475V54.1278H38.016V57.6475H38.6174ZM34.7851 63.7082C34.7851 61.1534 36.2808 58.9473 38.4457 57.9191L38.1877 57.3759C35.821 58.5 34.1837 60.9126 34.1837 63.7082H34.7851ZM41.1902 70.1134C37.6527 70.1134 34.7851 67.2457 34.7851 63.7082H34.1837C34.1837 67.5778 37.3206 70.7147 41.1902 70.7147V70.1134ZM47.5953 63.7082C47.5953 67.2457 44.7277 70.1134 41.1902 70.1134V70.7147C45.0598 70.7147 48.1967 67.5778 48.1967 63.7082H47.5953ZM43.9355 57.9195C46.1 58.9479 47.5953 61.1537 47.5953 63.7082H48.1967C48.1967 60.9129 46.5598 58.5006 44.1936 57.3763L43.9355 57.9195ZM43.7639 54.1278V57.6479H44.3652V54.1278H43.7639ZM41.1906 51.5546C42.6118 51.5546 43.7639 52.7067 43.7639 54.1278H44.3652C44.3652 52.3745 42.9439 50.9532 41.1906 50.9532V51.5546Z" fill="#9F9F9F" mask="url(#path-6-inside-2_8989_20172)"/>
</svg>
