<svg width="83" height="114" viewBox="0 0 83 114" fill="none" xmlns="http://www.w3.org/2000/svg">
<path d="M65.1462 23.9496C65.1462 17.5978 62.6229 11.5061 58.1315 7.01467C53.6401 2.52325 47.5484 4.79549e-07 41.1966 0C34.8448 -4.79549e-07 28.7531 2.52325 24.2617 7.01467C19.7703 11.5061 17.247 17.5978 17.247 23.9496H22.0369C22.0369 18.8681 24.0555 13.9948 27.6487 10.4016C31.2418 6.80852 36.1151 4.78991 41.1966 4.78992C46.2781 4.78992 51.1514 6.80852 54.7445 10.4017C58.3377 13.9948 60.3563 18.8681 60.3563 23.9496H65.1462Z" fill="#666666"/>
<path fill-rule="evenodd" clip-rule="evenodd" d="M64.1244 22.9496C63.875 17.2267 61.492 11.7894 57.4244 7.72178C53.1205 3.4179 47.2832 1 41.1966 1C35.11 1 29.2727 3.41789 24.9688 7.72178C20.9012 11.7894 18.5182 17.2267 18.2688 22.9496H21.0617C21.309 17.967 23.3973 13.2388 26.9416 9.69454C30.7222 5.91387 35.8499 3.78991 41.1966 3.78992C46.5433 3.78992 51.671 5.91387 55.4516 9.69454C58.9959 13.2388 61.0842 17.967 61.3315 22.9496H64.1244ZM65.1253 22.9496C64.8753 16.9613 62.3867 11.2698 58.1315 7.01467C53.6401 2.52325 47.5484 4.79549e-07 41.1966 0C34.8448 -4.79549e-07 28.7531 2.52325 24.2617 7.01467C20.0065 11.2698 17.5179 16.9613 17.2679 22.9496C17.254 23.2821 17.247 23.6155 17.247 23.9496H22.0369C22.0369 18.8681 24.0555 13.9948 27.6487 10.4016C31.2418 6.80852 36.1151 4.78991 41.1966 4.78992C46.2781 4.78992 51.1514 6.80852 54.7445 10.4017C58.3377 13.9948 60.3563 18.8681 60.3563 23.9496H65.1462C65.1462 23.6155 65.1392 23.2821 65.1253 22.9496Z" fill="#E0E0E0"/>
<path d="M5.93395 22.9901H76.4526C79.7298 22.9901 82.3866 25.6644 82.3866 28.9633V81.4717C82.3866 84.1302 81.2137 86.6515 79.185 88.3538C58.811 105.45 46.2708 113.999 41.5644 113.999C36.8582 113.999 24.095 105.451 3.27481 88.3559C1.20246 86.6543 0 84.105 0 81.413V28.9633C0 25.6644 2.65672 22.9901 5.93395 22.9901Z" fill="#333333"/>
<path fill-rule="evenodd" clip-rule="evenodd" d="M76.4526 23.9901H5.93395C3.2152 23.9901 1 26.2105 1 28.9633V81.413C1 83.807 2.06944 86.0723 3.90939 87.583C14.31 96.1228 22.6769 102.51 29.0188 106.757C32.1909 108.881 34.8365 110.457 36.9635 111.498C39.1262 112.556 40.6309 112.999 41.5644 112.999C42.496 112.999 43.986 112.557 46.1189 111.5C48.217 110.46 50.8201 108.885 53.9361 106.761C60.1657 102.515 68.3648 96.1279 78.5422 87.5878C80.3434 86.0763 81.3866 83.836 81.3866 81.4717V28.9633C81.3866 26.2105 79.1713 23.9901 76.4526 23.9901ZM76.4526 22.9901H5.93395C2.65672 22.9901 0 25.6644 0 28.9633V81.413C0 84.105 1.20246 86.6543 3.27481 88.3559C24.095 105.451 36.8582 113.999 41.5644 113.999C46.2708 113.999 58.811 105.45 79.185 88.3538C81.2137 86.6515 82.3866 84.1302 82.3866 81.4717V28.9633C82.3866 25.6644 79.7298 22.9901 76.4526 22.9901Z" fill="#E0E0E0"/>
<path d="M9.5819 35.446C11.1691 35.446 12.4559 34.1593 12.4559 32.5721C12.4559 30.9848 11.1691 29.6981 9.5819 29.6981C7.99467 29.6981 6.70796 30.9848 6.70796 32.5721C6.70796 34.1593 7.99467 35.446 9.5819 35.446Z" fill="#666666"/>
<path d="M72.8092 35.446C74.3964 35.446 75.6832 34.1593 75.6832 32.5721C75.6832 30.9848 74.3964 29.6981 72.8092 29.6981C71.222 29.6981 69.9353 30.9848 69.9353 32.5721C69.9353 34.1593 71.222 35.446 72.8092 35.446Z" fill="#666666"/>
<path d="M41.192 107.293C42.7793 107.293 44.066 106.007 44.066 104.419C44.066 102.832 42.7793 101.545 41.192 101.545C39.6048 101.545 38.3181 102.832 38.3181 104.419C38.3181 106.007 39.6048 107.293 41.192 107.293Z" fill="#666666"/>
<path fill-rule="evenodd" clip-rule="evenodd" d="M39.3207 58.274L38.7499 58.5452C36.8202 59.4622 35.4896 61.4278 35.4896 63.7022C35.4896 66.8534 38.0442 69.408 41.1955 69.408C44.3467 69.408 46.9013 66.8534 46.9013 63.7022C46.9013 61.4272 45.57 59.4613 43.6396 58.5445L43.0686 58.2734V54.1236C43.0686 53.0886 42.2296 52.2496 41.1946 52.2496C40.1597 52.2496 39.3207 53.0886 39.3207 54.1236V58.274ZM38.3207 54.1236C38.3207 52.5363 39.6074 51.2496 41.1946 51.2496C42.7819 51.2496 44.0686 52.5363 44.0686 54.1236V57.6412C46.3346 58.7173 47.9013 61.0268 47.9013 63.7022C47.9013 67.4057 44.899 70.408 41.1955 70.408C37.4919 70.408 34.4896 67.4057 34.4896 63.7022C34.4896 61.0274 36.0555 58.7184 38.3207 57.642V54.1236Z" fill="#E0E0E0"/>
</svg>
