<svg width="83" height="114" viewBox="0 0 83 114" fill="none" xmlns="http://www.w3.org/2000/svg">
<mask id="path-1-inside-1_8989_20163" fill="white">
<path d="M65.1492 23.9496C65.1492 17.5978 62.6259 11.5061 58.1345 7.01467C53.6431 2.52325 47.5514 4.79549e-07 41.1996 0C34.8478 -4.79549e-07 28.7561 2.52325 24.2647 7.01467C19.7733 11.5061 17.25 17.5978 17.25 23.9496L22.0399 23.9496C22.0399 18.8681 24.0585 13.9948 27.6517 10.4016C31.2448 6.80852 36.1181 4.78991 41.1996 4.78992C46.281 4.78992 51.1544 6.80852 54.7475 10.4017C58.3406 13.9948 60.3592 18.8681 60.3592 23.9496H65.1492Z"/>
</mask>
<path d="M65.1492 23.9496C65.1492 17.5978 62.6259 11.5061 58.1345 7.01467C53.6431 2.52325 47.5514 4.79549e-07 41.1996 0C34.8478 -4.79549e-07 28.7561 2.52325 24.2647 7.01467C19.7733 11.5061 17.25 17.5978 17.25 23.9496L22.0399 23.9496C22.0399 18.8681 24.0585 13.9948 27.6517 10.4016C31.2448 6.80852 36.1181 4.78991 41.1996 4.78992C46.281 4.78992 51.1544 6.80852 54.7475 10.4017C58.3406 13.9948 60.3592 18.8681 60.3592 23.9496H65.1492Z" fill="#666666" stroke="#E0E0E0" stroke-width="0.664663" mask="url(#path-1-inside-1_8989_20163)"/>
<path d="M5.93395 23.1544H76.4526C79.637 23.1544 82.2204 25.7533 82.2204 28.9614V81.4698C82.2204 84.0795 81.0691 86.5541 79.0782 88.2246C68.8928 96.7716 60.6691 103.179 54.4058 107.448C51.2739 109.583 48.6355 111.181 46.4892 112.245C44.3372 113.312 42.7003 113.831 41.5644 113.831C40.4282 113.831 38.7772 113.311 36.5971 112.245C34.4228 111.181 31.7425 109.583 28.5548 107.448C22.1798 103.179 13.7888 96.7719 3.38026 88.2256C1.34653 86.5557 0.166166 84.0536 0.166166 81.4111V28.9614C0.166166 25.7533 2.74952 23.1544 5.93395 23.1544Z" fill="#333333" stroke="#E0E0E0" stroke-width="0.332331"/>
<path d="M9.58488 35.4471C11.1721 35.4471 12.4588 34.1604 12.4588 32.5732C12.4588 30.9859 11.1721 29.6992 9.58488 29.6992C7.99764 29.6992 6.71094 30.9859 6.71094 32.5732C6.71094 34.1604 7.99764 35.4471 9.58488 35.4471Z" fill="#666666"/>
<path d="M72.8114 35.4471C74.3987 35.4471 75.6854 34.1604 75.6854 32.5732C75.6854 30.9859 74.3987 29.6992 72.8114 29.6992C71.2242 29.6992 69.9375 30.9859 69.9375 32.5732C69.9375 34.1604 71.2242 35.4471 72.8114 35.4471Z" fill="#666666"/>
<path d="M41.1943 107.295C42.7815 107.295 44.0682 106.008 44.0682 104.421C44.0682 102.834 42.7815 101.547 41.1943 101.547C39.607 101.547 38.3203 102.834 38.3203 104.421C38.3203 106.008 39.607 107.295 41.1943 107.295Z" fill="#666666"/>
<mask id="path-6-inside-2_8989_20163" fill="white">
<path fill-rule="evenodd" clip-rule="evenodd" d="M41.1972 51.25C39.61 51.25 38.3233 52.5367 38.3233 54.124V57.6424C36.0582 58.7188 34.4922 61.0278 34.4922 63.7025C34.4922 67.4061 37.4945 70.4084 41.1981 70.4084C44.9016 70.4084 47.904 67.4061 47.904 63.7025C47.904 61.0271 46.3372 58.7177 44.0712 57.6416V54.1239C44.0712 52.5367 42.7845 51.25 41.1972 51.25Z"/>
</mask>
<path fill-rule="evenodd" clip-rule="evenodd" d="M41.1972 51.25C39.61 51.25 38.3233 52.5367 38.3233 54.124V57.6424C36.0582 58.7188 34.4922 61.0278 34.4922 63.7025C34.4922 67.4061 37.4945 70.4084 41.1981 70.4084C44.9016 70.4084 47.904 67.4061 47.904 63.7025C47.904 61.0271 46.3372 58.7177 44.0712 57.6416V54.1239C44.0712 52.5367 42.7845 51.25 41.1972 51.25Z" fill="#1A1A1A"/>
<path d="M38.3233 57.6424L38.4659 57.9425L38.6556 57.8524V57.6424H38.3233ZM44.0712 57.6416H43.7389V57.8517L43.9286 57.9418L44.0712 57.6416ZM38.6556 54.124C38.6556 52.7203 39.7935 51.5823 41.1972 51.5823V50.9177C39.4265 50.9177 37.991 52.3532 37.991 54.124H38.6556ZM38.6556 57.6424V54.124H37.991V57.6424H38.6556ZM34.8245 63.7025C34.8245 61.1608 36.3123 58.966 38.4659 57.9425L38.1806 57.3422C35.804 58.4716 34.1599 60.8947 34.1599 63.7025H34.8245ZM41.1981 70.0761C37.6781 70.0761 34.8245 67.2225 34.8245 63.7025H34.1599C34.1599 67.5896 37.311 70.7407 41.1981 70.7407V70.0761ZM47.5716 63.7025C47.5716 67.2225 44.7181 70.0761 41.1981 70.0761V70.7407C45.0852 70.7407 48.2363 67.5896 48.2363 63.7025H47.5716ZM43.9286 57.9418C46.0831 58.9649 47.5716 61.1602 47.5716 63.7025H48.2363C48.2363 60.8941 46.5913 58.4704 44.2137 57.3414L43.9286 57.9418ZM43.7389 54.1239V57.6416H44.4035V54.1239H43.7389ZM41.1972 51.5823C42.6009 51.5823 43.7389 52.7203 43.7389 54.1239H44.4035C44.4035 52.3532 42.968 50.9177 41.1972 50.9177V51.5823Z" fill="#E0E0E0" mask="url(#path-6-inside-2_8989_20163)"/>
</svg>
