<svg width="83" height="114" viewBox="0 0 83 114" fill="none" xmlns="http://www.w3.org/2000/svg">
<path d="M65.1412 23.9494C65.1412 17.5976 62.6179 11.506 58.1266 7.01461C53.6352 2.52323 47.5436 4.79545e-07 41.1918 0C34.84 -4.79545e-07 28.7484 2.52323 24.257 7.01461C19.7657 11.506 17.2424 17.5976 17.2424 23.9494H22.0323C22.0323 18.868 24.0509 13.9947 27.644 10.4016C31.2371 6.80846 36.1104 4.78987 41.1918 4.78988C46.2732 4.78988 51.1465 6.80846 54.7396 10.4016C58.3327 13.9947 60.3513 18.868 60.3513 23.9494H65.1412Z" fill="#F1F1F1"/>
<path fill-rule="evenodd" clip-rule="evenodd" d="M64.1194 22.9494C63.87 17.2265 61.487 11.7893 57.4195 7.72172C53.1156 3.41787 47.2784 1 41.1918 1C35.1053 1 29.268 3.41787 24.9642 7.72171C20.8966 11.7893 18.5136 17.2265 18.2642 22.9494H21.0571C21.3044 17.9668 23.3926 13.2387 26.9369 9.69445C30.7175 5.91382 35.8452 3.78987 41.1918 3.78988C46.5384 3.78988 51.6661 5.91382 55.4467 9.69446C58.991 13.2387 61.0792 17.9668 61.3265 22.9494H64.1194ZM65.1203 22.9494C64.8703 16.9612 62.3817 11.2697 58.1266 7.01461C53.6352 2.52323 47.5436 4.79545e-07 41.1918 0C34.84 -4.79545e-07 28.7484 2.52323 24.257 7.01461C20.0019 11.2697 17.5133 16.9612 17.2633 22.9494C17.2494 23.2819 17.2424 23.6153 17.2424 23.9494H22.0323C22.0323 18.868 24.0509 13.9947 27.644 10.4016C31.2371 6.80846 36.1104 4.78987 41.1918 4.78988C46.2732 4.78988 51.1465 6.80846 54.7396 10.4016C58.3327 13.9947 60.3513 18.868 60.3513 23.9494H65.1412C65.1412 23.6153 65.1342 23.2819 65.1203 22.9494Z" fill="#9F9F9F"/>
<path d="M5.9339 22.9909H76.4519C79.7291 22.9909 82.3858 25.6652 82.3858 28.964V81.472C82.3858 84.1305 81.213 86.6517 79.1843 88.354C58.8105 105.45 46.2704 113.999 41.564 113.999C36.8579 113.999 24.0948 105.451 3.27478 88.3561C1.20245 86.6545 0 84.1052 0 81.4132V28.964C0 25.6652 2.6567 22.9909 5.9339 22.9909Z" fill="#F5F5F5"/>
<path fill-rule="evenodd" clip-rule="evenodd" d="M76.4519 23.9909H5.9339C3.21518 23.9909 1 26.2112 1 28.964V81.4132C1 83.8073 2.06943 86.0725 3.90936 87.5832C14.3099 96.1229 22.6767 102.51 29.0185 106.757C32.1907 108.881 34.8362 110.457 36.9632 111.498C39.1258 112.556 40.6306 112.999 41.564 112.999C42.4956 112.999 43.9856 112.557 46.1185 111.5C48.2166 110.46 50.8196 108.885 53.9356 106.761C60.1652 102.515 68.3642 96.1281 78.5415 87.588C80.3427 86.0765 81.3858 83.8362 81.3858 81.472V28.964C81.3858 26.2112 79.1707 23.9909 76.4519 23.9909ZM76.4519 22.9909H5.9339C2.6567 22.9909 0 25.6652 0 28.964V81.4132C0 84.1052 1.20245 86.6545 3.27478 88.3561C24.0948 105.451 36.8579 113.999 41.564 113.999C46.2704 113.999 58.8105 105.45 79.1843 88.354C81.213 86.6517 82.3858 84.1305 82.3858 81.472V28.964C82.3858 25.6652 79.7291 22.9909 76.4519 22.9909Z" fill="#9F9F9F"/>
<path d="M9.57897 35.4438C11.1662 35.4438 12.4529 34.1571 12.4529 32.5699C12.4529 30.9827 11.1662 29.696 9.57897 29.696C7.99175 29.696 6.70506 30.9827 6.70506 32.5699C6.70506 34.1571 7.99175 35.4438 9.57897 35.4438Z" fill="#E0E0E0"/>
<path d="M72.8032 35.4438C74.3905 35.4438 75.6772 34.1571 75.6772 32.5699C75.6772 30.9827 74.3905 29.696 72.8032 29.696C71.216 29.696 69.9293 30.9827 69.9293 32.5699C69.9293 34.1571 71.216 35.4438 72.8032 35.4438Z" fill="#E0E0E0"/>
<path d="M41.1911 107.295C42.7783 107.295 44.065 106.009 44.065 104.421C44.065 102.834 42.7783 101.547 41.1911 101.547C39.6039 101.547 38.3172 102.834 38.3172 104.421C38.3172 106.009 39.6039 107.295 41.1911 107.295Z" fill="#E0E0E0"/>
<path fill-rule="evenodd" clip-rule="evenodd" d="M41.1916 51.2531C39.6044 51.2531 38.3177 52.5398 38.3177 54.127V57.6467C36.0519 58.7229 34.4854 61.0322 34.4854 63.7074C34.4854 67.4109 37.4877 70.4132 41.1912 70.4132C44.8947 70.4132 47.897 67.4109 47.897 63.7074C47.897 61.0325 46.3309 58.7234 44.0655 57.6471V54.127C44.0655 52.5398 42.7788 51.2531 41.1916 51.2531Z" fill="white"/>
<path fill-rule="evenodd" clip-rule="evenodd" d="M39.3177 58.2788L38.7467 58.55C36.8165 59.4668 35.4854 61.4326 35.4854 63.7074C35.4854 66.8587 38.0399 69.4132 41.1912 69.4132C44.3424 69.4132 46.897 66.8587 46.897 63.7074C46.897 61.4329 45.5662 59.4673 43.6364 58.5503L43.0655 58.2791V54.127C43.0655 53.0921 42.2265 52.2531 41.1916 52.2531C40.1567 52.2531 39.3177 53.0921 39.3177 54.127V58.2788ZM38.3177 54.127C38.3177 52.5398 39.6044 51.2531 41.1916 51.2531C42.7788 51.2531 44.0655 52.5398 44.0655 54.127V57.6471C46.3309 58.7234 47.897 61.0325 47.897 63.7074C47.897 67.4109 44.8947 70.4132 41.1912 70.4132C37.4877 70.4132 34.4854 67.4109 34.4854 63.7074C34.4854 61.0322 36.0519 58.7229 38.3177 57.6467V54.127Z" fill="#9F9F9F"/>
</svg>
