<svg width="24" height="24" viewBox="0 0 24 24" fill="none" xmlns="http://www.w3.org/2000/svg">
<path d="M19.8159 20.69C19.7519 20.69 19.6879 20.666 19.6389 20.617L19.2849 20.264C19.2379 20.217 19.2119 20.154 19.2119 20.087C19.2119 20.02 19.2379 19.957 19.2849 19.91C21.3629 17.832 22.5069 15.069 22.5069 12.131C22.5069 9.193 21.3619 6.43 19.2849 4.353C19.0899 4.158 19.0899 3.841 19.2849 3.646C19.3789 3.552 19.5049 3.5 19.6389 3.5C19.7729 3.5 19.8979 3.552 19.9929 3.646C22.2599 5.912 23.5079 8.926 23.5079 12.131C23.5079 15.336 22.2599 18.35 19.9929 20.616C19.9429 20.666 19.8799 20.69 19.8159 20.69Z" fill="black"/>
<path d="M16.8066 17.9342C16.6726 17.9342 16.5476 17.8822 16.4526 17.7882C16.3576 17.6942 16.3066 17.5682 16.3066 17.4342C16.3066 17.3002 16.3586 17.1752 16.4526 17.0802C17.7746 15.7582 18.5026 14.0002 18.5026 12.1302C18.5026 10.2602 17.7746 8.50217 16.4526 7.18017C16.3586 7.08617 16.3066 6.96017 16.3066 6.82617C16.3066 6.69217 16.3586 6.56717 16.4526 6.47217C16.5466 6.37717 16.6726 6.32617 16.8066 6.32617C16.9406 6.32617 17.0656 6.37817 17.1606 6.47217C18.6716 7.98317 19.5036 9.99217 19.5036 12.1292C19.5036 14.2662 18.6716 16.2752 17.1606 17.7862C17.0656 17.8822 16.9396 17.9342 16.8066 17.9342Z" fill="black"/>
<path d="M4.37377 20.764C4.22777 20.764 4.09077 20.701 3.99477 20.591C1.74977 18.347 0.507768 15.337 0.509768 12.13C0.511768 8.922 1.75877 5.909 4.02077 3.647C4.11477 3.552 4.24077 3.5 4.37377 3.5C4.50677 3.5 4.63277 3.552 4.72777 3.646C4.92277 3.841 4.92277 4.158 4.72777 4.353C2.64977 6.431 1.50577 9.193 1.50577 12.131C1.50577 15.067 2.64877 17.828 4.72377 19.905C4.81777 19.995 4.87477 20.127 4.87477 20.263C4.87377 20.54 4.64977 20.764 4.37377 20.764Z" fill="black"/>
<path d="M7.2057 17.9341C7.0717 17.9341 6.9467 17.8821 6.8517 17.7881C5.3427 16.2791 4.5127 14.2701 4.5127 12.1311C4.5127 9.99212 5.3437 7.98312 6.8527 6.47412C6.9467 6.38012 7.0727 6.32812 7.2067 6.32812C7.3407 6.32812 7.405 6.405 7.5 6.5C7.595 6.595 7.7057 6.69412 7.7057 6.82812C7.7057 6.96212 7.6537 7.08613 7.5597 7.18113C6.2377 8.50313 5.5097 10.2611 5.5097 12.1311C5.5097 14.0011 6.2377 15.7591 7.5597 17.0811C7.6537 17.1751 7.7057 17.3011 7.7057 17.4351C7.7057 17.5691 7.6537 17.6941 7.5597 17.7891C7.4657 17.8841 7.3387 17.9341 7.2057 17.9341Z" fill="black"/>
<path d="M12.0059 23.998C11.7299 23.998 11.5059 23.774 11.5059 23.498V15.459C9.80586 15.214 8.50586 13.736 8.50586 11.998C8.50586 10.068 10.0759 8.49805 12.0059 8.49805C13.9359 8.49805 15.5059 10.068 15.5059 11.998C15.5059 13.736 14.2059 15.214 12.5059 15.459V23.498C12.5059 23.774 12.2819 23.998 12.0059 23.998ZM12.0059 9.49805C10.6269 9.49805 9.50586 10.619 9.50586 11.998C9.50586 13.377 10.6269 14.498 12.0059 14.498C13.3839 14.498 14.5059 13.377 14.5059 11.998C14.5059 10.619 13.3849 9.49805 12.0059 9.49805Z" fill="black"/>
<path fill-rule="evenodd" clip-rule="evenodd" d="M2.19085 1.15019C2.38398 0.979518 2.67889 0.997723 2.84956 1.19085L21.8496 22.6908C22.0202 22.884 22.002 23.1789 21.8089 23.3496C21.6158 23.5202 21.3209 23.502 21.1502 23.3089L2.15019 1.8089C1.97952 1.61577 1.99772 1.32086 2.19085 1.15019Z" fill="black"/>
</svg>
