<svg width="24" height="24" viewBox="0 0 24 24" fill="none" xmlns="http://www.w3.org/2000/svg">
<g clip-path="url(#clip0_4693_49272)">
<path d="M18.4672 15.7387H17.0002C16.7242 15.7387 16.5002 15.5074 16.5002 15.2224C16.5002 14.9375 16.7242 14.7062 17.0002 14.7062H17.7382L16.0052 10.5761H7.99524L6.26224 14.7062H7.00024C7.27624 14.7062 7.50024 14.9375 7.50024 15.2224C7.50024 15.5074 7.27624 15.7387 7.00024 15.7387H4.00024C3.72424 15.7387 3.50024 15.5074 3.50024 15.2224C3.50024 14.9375 3.72424 14.7062 4.00024 14.7062H5.17324L11.0832 0.622609C11.1842 0.381 11.3692 0.188951 11.6042 0.0846666C11.7302 0.0289106 11.8632 0 12.0002 0C12.1262 0 12.2502 0.0247804 12.3692 0.0733089C12.6172 0.175528 12.8122 0.370675 12.9182 0.623642L18.8272 14.7062H20.0002C20.2762 14.7062 20.5002 14.9375 20.5002 15.2224C20.5002 15.5074 20.2762 15.7387 20.0002 15.7387H18.5302C18.5202 15.7408 18.5102 15.7418 18.5002 15.7418C18.4902 15.7418 18.4782 15.7408 18.4672 15.7387ZM15.5712 9.54461L12.0002 1.03355V0.775422V1.03355C12.0002 1.03355 12.0002 1.03355 11.9992 1.03355L8.42924 9.54358H15.5712V9.54461Z" fill="black"/>
<path d="M1.5 24.0001C0.673 24.0001 0 23.3052 0 22.4513V18.3212C0 17.4673 0.673 16.7725 1.5 16.7725H22.5C23.327 16.7725 24 17.4673 24 18.3212V22.4513C24 23.3052 23.327 24.0001 22.5 24.0001H1.5ZM1.5 17.805C1.224 17.805 1 18.0363 1 18.3212V22.4513C1 22.7363 1.224 22.9676 1.5 22.9676H22.5C22.776 22.9676 23 22.7363 23 22.4513V18.3212C23 18.0363 22.776 17.805 22.5 17.805H1.5Z" fill="black"/>
<path d="M19 21.9355C18.866 21.9355 18.741 21.8818 18.646 21.7847L16.646 19.7197C16.552 19.6226 16.5 19.4925 16.5 19.3542C16.5 19.2158 16.552 19.0867 16.646 18.9886C16.74 18.8905 16.866 18.8379 17 18.8379C17.134 18.8379 17.259 18.8916 17.354 18.9886L19 20.6892L20.646 18.9897C20.74 18.8926 20.866 18.8389 21 18.8389C21.134 18.8389 21.259 18.8926 21.354 18.9897C21.449 19.0867 21.5 19.2168 21.5 19.3552C21.5 19.4935 21.448 19.6226 21.354 19.7207L19.354 21.7857C19.259 21.8818 19.134 21.9355 19 21.9355Z" fill="black"/>
</g>
<defs>
<clipPath id="clip0_4693_49272">
<rect width="24" height="24" fill="white"/>
</clipPath>
</defs>
</svg>
