<svg width="24" height="24" viewBox="0 0 24 24" fill="none" xmlns="http://www.w3.org/2000/svg">
<g clip-path="url(#clip0_439_3745)">
<path fill-rule="evenodd" clip-rule="evenodd" d="M0.445154 0.445154C0.730181 0.160127 1.11676 0 1.51985 0H6.89168C7.17386 0.000150764 7.4507 0.0788545 7.69068 0.227297C7.93056 0.375679 8.12441 0.587886 8.25055 0.840168L9.19676 2.73059C9.23629 2.80971 9.29722 2.87656 9.37244 2.92309C9.44766 2.96961 9.53434 2.99428 9.62279 2.99433H19.4858C19.8889 2.99433 20.2755 3.15446 20.5605 3.43948C20.8456 3.72451 21.0057 4.11109 21.0057 4.51418V8.50662C21.0057 8.79477 20.7721 9.02836 20.4839 9.02836C20.1958 9.02836 19.9622 8.79477 19.9622 8.50662V4.51418C19.9622 4.38784 19.912 4.26667 19.8227 4.17733C19.7333 4.088 19.6122 4.03781 19.4858 4.03781H9.62251C9.34033 4.03766 9.06349 3.95895 8.82351 3.81051C8.58363 3.66213 8.38977 3.44992 8.26364 3.19764L7.31743 1.30722C7.27789 1.2281 7.21696 1.16125 7.14174 1.11472C7.06656 1.06821 6.97991 1.04354 6.8915 1.04348H1.51985C1.39351 1.04348 1.27234 1.09367 1.183 1.183C1.09367 1.27234 1.04348 1.39351 1.04348 1.51985V16.4915C1.04348 16.6178 1.09367 16.739 1.183 16.8283C1.27234 16.9177 1.39351 16.9679 1.51985 16.9679H8.50662C8.79477 16.9679 9.02836 17.2015 9.02836 17.4896C9.02836 17.7778 8.79477 18.0114 8.50662 18.0114H1.51985C1.11676 18.0114 0.730181 17.8512 0.445154 17.5662C0.160126 17.2812 0 16.8946 0 16.4915V1.51985C0 1.11676 0.160127 0.730181 0.445154 0.445154Z" fill="black"/>
<path fill-rule="evenodd" clip-rule="evenodd" d="M10.9792 17.4896C10.9792 13.894 13.894 10.9792 17.4896 10.9792C21.0852 10.9792 24 13.894 24 17.4896C24 21.0852 21.0852 24 17.4896 24C13.894 24 10.9792 21.0852 10.9792 17.4896ZM17.4896 13.9736C17.7778 13.9736 18.0113 14.2072 18.0113 14.4953V16.9679H20.484C20.7721 16.9679 21.0057 17.2015 21.0057 17.4896C21.0057 17.7778 20.7721 18.0113 20.484 18.0113H18.0113V20.484C18.0113 20.7721 17.7778 21.0057 17.4896 21.0057C17.2015 21.0057 16.9679 20.7721 16.9679 20.484V18.0113H14.4953C14.2072 18.0113 13.9736 17.7778 13.9736 17.4896C13.9736 17.2015 14.2072 16.9679 14.4953 16.9679H16.9679V14.4953C16.9679 14.2072 17.2015 13.9736 17.4896 13.9736Z" fill="black"/>
</g>
<defs>
<clipPath id="clip0_439_3745">
<rect width="24" height="24" fill="white"/>
</clipPath>
</defs>
</svg>
