<svg width="24" height="25" viewBox="0 0 24 25" fill="none" xmlns="http://www.w3.org/2000/svg">
<path fill-rule="evenodd" clip-rule="evenodd" d="M0.445154 0.945154C0.730181 0.660127 1.11676 0.5 1.51985 0.5H6.89168C7.17386 0.500151 7.4507 0.578854 7.69068 0.727297C7.93056 0.875679 8.12441 1.08789 8.25055 1.34017L9.19676 3.23059C9.23629 3.30971 9.29722 3.37656 9.37244 3.42309C9.44766 3.46961 9.53434 3.49428 9.62279 3.49433H19.4858C19.8889 3.49433 20.2755 3.65446 20.5605 3.93948C20.8456 4.22451 21.0057 4.61109 21.0057 5.01418V9.00662C21.0057 9.29477 20.7721 9.52836 20.4839 9.52836C20.1958 9.52836 19.9622 9.29477 19.9622 9.00662V5.01418C19.9622 4.88784 19.912 4.76667 19.8227 4.67733C19.7333 4.588 19.6122 4.53781 19.4858 4.53781H9.62251C9.34033 4.53766 9.06349 4.45895 8.82351 4.31051C8.58363 4.16213 8.38977 3.94992 8.26364 3.69764L7.31743 1.80722C7.27789 1.7281 7.21696 1.66125 7.14174 1.61472C7.06656 1.56821 6.97991 1.54354 6.8915 1.54348H1.51985C1.39351 1.54348 1.27234 1.59367 1.183 1.683C1.09367 1.77234 1.04348 1.89351 1.04348 2.01985V16.9915C1.04348 17.1178 1.09367 17.239 1.183 17.3283C1.27234 17.4177 1.39351 17.4679 1.51985 17.4679H8.50662C8.79477 17.4679 9.02836 17.7015 9.02836 17.9896C9.02836 18.2778 8.79477 18.5114 8.50662 18.5114H1.51985C1.11676 18.5114 0.730181 18.3512 0.445154 18.0662C0.160126 17.7812 0 17.3946 0 16.9915V2.01985C0 1.61676 0.160127 1.23018 0.445154 0.945154Z" fill="#BC0055"/>
<path fill-rule="evenodd" clip-rule="evenodd" d="M10.9792 17.9896C10.9792 14.394 13.894 11.4792 17.4896 11.4792C21.0852 11.4792 24 14.394 24 17.9896C24 21.5852 21.0852 24.5 17.4896 24.5C13.894 24.5 10.9792 21.5852 10.9792 17.9896ZM17.4896 14.4736C17.7778 14.4736 18.0113 14.7072 18.0113 14.9953V17.4679H20.484C20.7721 17.4679 21.0057 17.7015 21.0057 17.9896C21.0057 18.2778 20.7721 18.5113 20.484 18.5113H18.0113V20.984C18.0113 21.2721 17.7778 21.5057 17.4896 21.5057C17.2015 21.5057 16.9679 21.2721 16.9679 20.984V18.5113H14.4953C14.2072 18.5113 13.9736 18.2778 13.9736 17.9896C13.9736 17.7015 14.2072 17.4679 14.4953 17.4679H16.9679V14.9953C16.9679 14.7072 17.2015 14.4736 17.4896 14.4736Z" fill="#BC0055"/>
</svg>
