<svg width="24" height="24" viewBox="0 0 24 24" fill="none" xmlns="http://www.w3.org/2000/svg">
<path fill-rule="evenodd" clip-rule="evenodd" d="M23.6339 2.13388C24.122 1.64573 24.122 0.854272 23.6339 0.366117C23.1457 -0.122039 22.3543 -0.122039 21.8661 0.366117L12 10.2322L2.13388 0.366117C1.64573 -0.122039 0.854272 -0.122039 0.366117 0.366117C-0.122039 0.854272 -0.122039 1.64573 0.366117 2.13388L10.2322 12L0.366117 21.8661C-0.122039 22.3543 -0.122039 23.1457 0.366117 23.6339C0.854272 24.122 1.64573 24.122 2.13388 23.6339L12 13.7678L21.8661 23.6339C22.3543 24.122 23.1457 24.122 23.6339 23.6339C24.122 23.1457 24.122 22.3543 23.6339 21.8661L13.7678 12L23.6339 2.13388Z" fill="black"/>
</svg>
