<svg width="36" height="24" viewBox="0 0 36 24" fill="none" xmlns="http://www.w3.org/2000/svg">
<g clip-path="url(#clip0_13461_39832)">
<path d="M21.6321 15.001C21.5561 15.0618 21.5257 15.1378 21.4802 15.2138C21.1003 15.8064 20.7356 16.399 20.3557 16.9764C19.6872 17.9944 18.7299 18.511 17.5143 18.4807C16.4962 18.4503 15.6605 18.0248 15.0527 17.2043C14.3841 16.3078 13.7308 15.3809 13.0774 14.454C12.9406 14.2717 12.8039 14.0741 12.6671 13.8918C12.6215 13.8766 12.5911 13.8462 12.5607 13.8158C12.348 13.4967 12.1353 13.1776 11.8618 12.9193C11.3603 12.4483 10.7677 12.1596 10.0688 12.0836C9.14189 11.9772 8.32137 12.2204 7.60721 12.813C7.50084 12.8889 7.42487 12.9953 7.3337 13.0865C7.28811 13.1169 7.25772 13.1776 7.19694 13.1624C7.18175 13.1472 7.18175 13.1472 7.19694 13.132C7.68318 12.3571 8.18461 11.5974 8.67085 10.8224C9.43059 9.63722 10.1751 8.45202 10.9501 7.28201C12.2417 5.32187 15.0527 5.32187 16.3747 7.26681C17.0888 8.33046 17.8486 9.36371 18.5931 10.4122C18.6387 10.4274 18.6691 10.4729 18.6995 10.5185C18.9274 10.8072 19.1098 11.1263 19.3833 11.3694C19.9303 11.8709 20.5837 12.1748 21.3282 12.2355C21.936 12.2811 22.4982 12.1748 23.03 11.9013C23.3795 11.7341 23.6834 11.491 23.9417 11.2023C23.9873 11.1415 24.0329 11.0807 24.1089 11.0503H24.1393C24.1697 11.1111 24.1393 11.1415 24.1089 11.1871C23.729 11.7797 23.3643 12.3571 22.9845 12.9345C22.5742 13.5727 22.1639 14.2261 21.7537 14.8643C21.7081 14.925 21.6929 14.9858 21.6321 15.001Z" fill="#2D529F"/>
<path d="M7.19913 13.1776C7.45744 12.9193 7.73095 12.661 8.05004 12.4787C8.42991 12.2659 8.84018 12.114 9.28083 12.0684C10.1469 11.9772 10.9219 12.1748 11.6208 12.6914C12.0311 12.9953 12.3198 13.4056 12.5933 13.831C12.6237 13.8766 12.6237 13.9222 12.6389 13.9678C13.034 14.9251 13.0188 15.8671 12.5325 16.7788C12.0007 17.7817 11.1498 18.3439 10.0102 18.4807C8.33874 18.6782 6.69769 17.4778 6.45458 15.6696C6.36341 14.8795 6.54575 14.1349 6.9712 13.4663C7.01679 13.3904 7.07757 13.3144 7.12315 13.2384C7.15354 13.2232 7.16874 13.1928 7.19913 13.1776Z" fill="#27BDBE"/>
<path d="M24.1101 11.0655C23.7302 11.5214 23.2744 11.8557 22.7274 12.0684C21.3598 12.585 19.8099 12.114 18.959 10.9288C18.8679 10.792 18.7615 10.6553 18.6703 10.5185C18.6551 10.4729 18.6247 10.4273 18.6247 10.3817C18.4272 9.9259 18.336 9.43966 18.3512 8.93823C18.3816 7.40355 19.5972 6.0512 21.1167 5.83847C22.4994 5.65613 23.7758 6.29432 24.4596 7.50991C24.4748 7.52511 24.49 7.5555 24.5052 7.57069C24.5508 7.64666 24.5811 7.72264 24.6267 7.79861C24.6723 7.88978 24.6875 7.98095 24.7331 8.07212C24.7483 8.1329 24.7635 8.19368 24.7787 8.23927C24.7939 8.28485 24.7939 8.31524 24.8091 8.36083C24.8243 8.40641 24.8243 8.4368 24.8395 8.48238C24.8395 8.49758 24.8395 8.51277 24.8547 8.51277C24.8547 8.57355 24.8547 8.61914 24.885 8.67992V9.27252C24.885 9.30291 24.885 9.3333 24.8699 9.34849C24.8395 9.40927 24.8547 9.47005 24.8395 9.53083C24.8395 9.54603 24.8395 9.56122 24.8243 9.56122C24.8091 9.60681 24.8091 9.66759 24.7939 9.72837C24.7483 9.89551 24.7179 10.0627 24.6419 10.2298C24.6115 10.2906 24.5963 10.3666 24.5508 10.4273C24.5204 10.4729 24.49 10.5185 24.4748 10.5641C24.4292 10.6553 24.3836 10.7312 24.3228 10.8072C24.2924 10.8376 24.2773 10.8528 24.2469 10.8984C24.2317 10.9288 24.2165 10.944 24.2013 10.9743C24.1709 11.0351 24.1405 11.0503 24.1101 11.0655Z" fill="#F18233"/>
<path d="M26.2379 10.2602C26.9521 11.339 27.6815 12.4331 28.3804 13.5119C29.6416 15.4416 28.4564 18.1008 26.1772 18.4502C24.7792 18.663 23.7004 18.1311 22.9103 16.9763C22.7735 16.7636 22.6368 16.5509 22.5 16.3533C22.5 16.2926 22.5304 16.2318 22.5608 16.1862C22.8495 15.7455 23.123 15.3049 23.4117 14.8642C23.7004 14.4388 23.9587 13.9981 24.2474 13.5575C24.4905 13.1928 24.7185 12.8281 24.9464 12.4634C25.0831 12.2355 25.2351 11.9924 25.387 11.7645C25.615 11.3998 25.7973 11.0199 25.9189 10.6097C25.9644 10.4729 26.01 10.3362 26.0252 10.1994C26.0404 10.1386 26.0404 10.0626 26.1316 10.093C26.1316 10.1082 26.1468 10.1082 26.1468 10.1234C26.162 10.1994 26.2076 10.2298 26.2379 10.2602Z" fill="#93C64A"/>
<path d="M26.1446 10.1083C26.0838 10.1083 26.0686 10.1538 26.0686 10.1994C26.0078 10.5337 25.8863 10.8528 25.7495 11.1719C25.5976 11.5214 25.3848 11.8405 25.1873 12.1748C24.9442 12.5698 24.7011 12.9649 24.4579 13.3448C24.2908 13.6031 24.1085 13.831 23.9565 14.0893C23.8501 14.2565 23.7438 14.4236 23.6526 14.5756C23.4095 14.9706 23.1512 15.3505 22.9081 15.7304C22.7865 15.9279 22.6497 16.1254 22.5434 16.3382C22.5282 16.3078 22.4978 16.2774 22.4826 16.247C22.437 16.171 22.4522 16.1254 22.4978 16.0495C22.6801 15.7911 22.8169 15.5176 22.984 15.2745C22.984 15.2593 22.9992 15.2593 22.9992 15.2441C23.1208 15.1074 23.1968 14.925 23.3031 14.7731C23.4399 14.5756 23.5766 14.378 23.6982 14.1805C23.7894 14.0437 23.8653 13.8918 23.9565 13.755C23.9565 13.7398 23.9717 13.7398 23.9717 13.7246C24.0477 13.6487 24.1085 13.5575 24.154 13.4511C24.2604 13.2536 24.4124 13.0713 24.5187 12.8737C24.5339 12.8281 24.5643 12.7978 24.5795 12.7522C24.7011 12.509 24.8378 12.2963 24.9898 12.0684C25.4152 11.3998 25.7799 10.7312 25.9015 9.92591C25.9167 9.86513 25.9166 9.80435 26.0078 9.83474C26.0382 9.94111 26.099 10.0323 26.1446 10.1083Z" fill="#91C248"/>
<path d="M25.4323 9.04456C25.4931 9.09014 25.5235 9.16612 25.5539 9.22689C25.5235 9.43962 25.5539 9.63716 25.5235 9.84989C25.4475 10.2905 25.3259 10.7008 25.1132 11.0959C24.7029 11.8708 24.1863 12.6002 23.7305 13.3447C23.229 14.15 22.7124 14.925 22.211 15.7303C22.1958 15.7607 22.1958 15.7911 22.1502 15.7911C22.1198 15.7455 22.1046 15.7151 22.0742 15.6695C22.0742 15.6088 22.0894 15.5632 22.1198 15.5176C22.3629 15.1681 22.5908 14.7882 22.8188 14.4236C23.305 13.6334 23.8216 12.8585 24.3079 12.0835C24.5358 11.7189 24.7789 11.3694 24.9613 10.9743C25.098 10.6704 25.2196 10.3665 25.2955 10.0322C25.3259 9.89547 25.3259 9.74352 25.3715 9.60677C25.4019 9.5004 25.3563 9.37884 25.3563 9.27248C25.3563 9.18131 25.3411 9.09014 25.4323 9.04456Z" fill="#82AF41"/>
<path d="M21.9803 15.5328C21.9499 15.5024 21.9347 15.472 21.9043 15.4264C21.9499 15.2593 22.0714 15.1225 22.1626 14.9706C22.5881 14.302 23.0135 13.6486 23.439 12.9953C23.7733 12.4786 24.1076 11.962 24.4267 11.4454C24.6546 11.0959 24.8369 10.716 24.9585 10.3058C25.0496 10.0171 25.1256 9.71316 25.0952 9.39406C25.08 9.24211 25.1256 9.09017 25.0952 8.93822C25.08 8.87744 25.08 8.81666 25.0648 8.75588C25.0496 8.6799 25.0193 8.58873 25.1104 8.52795C25.1864 8.61912 25.2472 8.72549 25.308 8.83185C25.2472 8.89263 25.2928 8.95341 25.308 9.01419V9.04458C25.308 9.22692 25.2928 9.40926 25.308 9.5764V9.60679L25.2624 9.74355C25.2472 10.0626 25.1408 10.3513 25.0193 10.6552C24.8369 11.0959 24.5938 11.491 24.3355 11.886C24.0012 12.4178 23.6517 12.9497 23.3174 13.4815L22.6792 14.4844C22.4665 14.8186 22.2386 15.1681 22.0107 15.5024C22.0107 15.548 21.9955 15.548 21.9803 15.5328Z" fill="#78A33C"/>
<path d="M22.1328 15.7913C22.224 15.5785 22.3607 15.3962 22.4975 15.1986C22.9989 14.4237 23.4852 13.6488 23.9866 12.8586C24.3209 12.342 24.6552 11.8254 24.9743 11.2936C25.187 10.9137 25.3541 10.5186 25.4453 10.0932C25.5061 9.85004 25.5213 9.59173 25.5213 9.34861C25.5213 9.30303 25.5213 9.25744 25.5669 9.22705C25.6276 9.27264 25.6428 9.3638 25.6884 9.42458C25.6428 9.88043 25.5669 10.3363 25.3997 10.7617C25.3237 10.9441 25.2326 11.1264 25.1414 11.3088C24.9287 11.719 24.6704 12.0989 24.4272 12.4788C24.1537 12.9042 23.8802 13.3449 23.6067 13.7703L22.4671 15.5481C22.3911 15.6697 22.3152 15.7913 22.2544 15.928C22.1936 15.8824 22.1632 15.8368 22.1328 15.7913Z" fill="#87B543"/>
<path d="M24.6726 8.08728L24.5814 7.81377C24.5663 7.78338 24.5663 7.76819 24.6118 7.75299C24.7334 7.92013 24.8398 8.08728 24.9309 8.25442C24.9613 8.37598 24.9917 8.48235 25.0069 8.60391C25.0677 8.923 25.0829 9.2269 25.0677 9.56118C25.0525 10.0474 24.8853 10.4881 24.6726 10.9135C24.5055 11.2022 24.3383 11.4757 24.1712 11.7493C24.1712 11.7644 24.156 11.7644 24.156 11.7796C24.1256 11.8252 24.08 11.8708 24.0648 11.9164C24.0648 11.9316 24.0496 11.9316 24.0496 11.9468C23.9433 12.0987 23.8521 12.2507 23.7609 12.4026C23.5482 12.6913 23.3659 12.9952 23.1835 13.2839C23.0316 13.5119 22.8796 13.7398 22.7429 13.9829C22.7277 13.9981 22.7277 14.0285 22.7125 14.0437C22.5149 14.2868 22.363 14.5603 22.1958 14.8186C22.1958 14.8338 22.1807 14.8338 22.1807 14.849C22.0895 14.9858 21.9983 15.1073 21.9223 15.2441C21.9071 15.2745 21.9071 15.3201 21.8616 15.3201C21.8312 15.2897 21.816 15.2593 21.8008 15.2289C21.8768 15.0465 21.9983 14.8946 22.1047 14.7275C22.4542 14.1956 22.7885 13.6638 23.1379 13.1168C23.4418 12.6306 23.7609 12.1595 24.0496 11.6581C24.08 11.5973 24.156 11.5517 24.1712 11.4757C24.3535 11.1718 24.5359 10.8528 24.6878 10.5185C24.8398 10.169 24.9309 9.8043 24.9309 9.40924C24.9309 9.09014 24.9157 8.77105 24.8398 8.45196C24.8246 8.37598 24.779 8.30001 24.7638 8.22403C24.7638 8.20884 24.7486 8.20884 24.7334 8.19364C24.7182 8.19364 24.703 8.13286 24.6726 8.08728Z" fill="#6F9837"/>
<path d="M25.8099 9.63715C25.8403 9.68273 25.8707 9.71312 25.9011 9.75871C25.8555 9.81948 25.8555 9.89546 25.8403 9.97143C25.7644 10.4729 25.582 10.9287 25.3541 11.3694C25.0654 11.886 24.7463 12.3722 24.4272 12.8737C24.0625 13.4359 23.6979 13.9981 23.3484 14.5603C23.0445 15.0313 22.7254 15.5024 22.4367 15.9734C22.4063 16.019 22.4215 16.0798 22.3455 16.095C22.3151 16.0646 22.2847 16.0342 22.2695 15.9886C22.2847 15.8823 22.3607 15.7911 22.4215 15.6847C22.771 15.1225 23.1356 14.5907 23.4851 14.0285C23.7738 13.5574 24.0777 13.1016 24.3816 12.6305C24.5032 12.4634 24.5944 12.2811 24.7159 12.0987C24.8831 11.8404 25.0502 11.5821 25.187 11.3086C25.4453 10.8223 25.6428 10.3209 25.7036 9.75871C25.734 9.72832 25.7036 9.65234 25.8099 9.63715Z" fill="#8EBE47"/>
<path d="M24.2767 10.8376C24.3223 10.7616 24.3679 10.6705 24.4287 10.5945C24.4743 10.5641 24.4895 10.5033 24.5047 10.4577C24.5198 10.3969 24.5502 10.321 24.5806 10.2754C24.6718 10.321 24.611 10.3969 24.5958 10.4577C24.5198 10.6705 24.4287 10.868 24.3071 11.0655C23.912 11.7189 23.5018 12.3571 23.0915 13.0105C22.6509 13.6942 22.2102 14.378 21.7848 15.0618C21.7696 15.0922 21.7696 15.153 21.7088 15.1378C21.6784 15.1074 21.6632 15.0618 21.6328 15.0314C21.9367 14.5452 22.2406 14.0741 22.5445 13.5879C23.0611 12.7674 23.593 11.9468 24.1096 11.1263C24.1248 11.1111 24.1248 11.0959 24.1248 11.0807C24.1248 11.0503 24.1552 11.0351 24.1704 11.0047C24.1856 10.9896 24.2159 10.9592 24.2159 10.9288C24.2463 10.8832 24.2767 10.868 24.2767 10.8376Z" fill="#628931"/>
<path d="M25.8106 9.63724C25.765 9.66763 25.7498 9.72841 25.7498 9.77399C25.7042 10.2602 25.5523 10.7161 25.3244 11.1415C25.2028 11.3998 25.0509 11.643 24.9141 11.8709C24.8229 12.0228 24.7318 12.1748 24.6254 12.3267C24.4887 12.5395 24.3671 12.737 24.2303 12.9497C24.0024 13.2992 23.7745 13.6335 23.5618 13.983C23.3034 14.3932 23.0451 14.8035 22.7716 15.2138C22.6045 15.4721 22.4373 15.7456 22.2702 16.0039C22.255 15.9735 22.2398 15.9583 22.2246 15.9279C22.2398 15.8823 22.2398 15.8368 22.2702 15.7912C22.6197 15.2594 22.954 14.7427 23.2883 14.2109C23.6833 13.6031 24.0784 12.9801 24.4735 12.3723C24.7014 12.0228 24.9293 11.6734 25.1268 11.2935C25.3092 10.9288 25.4915 10.5641 25.5675 10.1539C25.5979 9.95633 25.6435 9.77399 25.6739 9.57646C25.689 9.47009 25.7346 9.51568 25.7802 9.54607C25.8106 9.57646 25.8106 9.60685 25.8106 9.63724Z" fill="#8BB945"/>
<path d="M22.3633 16.1102C22.4089 15.9734 22.4848 15.8671 22.5608 15.7455C23.1078 14.8946 23.6548 14.0589 24.2019 13.208C24.5513 12.661 24.916 12.0987 25.2351 11.5365C25.539 11.0199 25.7669 10.4729 25.8277 9.86509C25.8277 9.80431 25.8581 9.77392 25.9037 9.75873C25.9341 9.78912 25.9645 9.81951 25.9797 9.86509C25.9493 9.88029 25.9037 9.86509 25.9037 9.92587C25.8581 10.3513 25.7214 10.7312 25.539 11.1111C25.2959 11.6581 24.9464 12.1443 24.6425 12.6458C24.6121 12.6913 24.5969 12.7217 24.5817 12.7673C24.369 13.0864 24.1563 13.4207 23.9587 13.7398C23.7612 13.9981 23.6245 14.2868 23.4421 14.5451C23.275 14.773 23.1382 15.0314 22.9863 15.2593C22.7887 15.5176 22.652 15.8063 22.4696 16.0646C22.4545 16.095 22.4393 16.1406 22.3937 16.1254C22.3785 16.1406 22.3633 16.1254 22.3633 16.1102Z" fill="#8FBF47"/>
<path d="M22.7111 14.059C22.7111 14.0438 22.7111 14.0134 22.7415 14.0134C23.0606 13.4968 23.3949 13.0105 23.714 12.4939C23.7292 12.4787 23.7444 12.4483 23.7596 12.4331C23.866 12.266 23.9723 12.0988 24.0635 11.9317C24.0939 11.8861 24.1243 11.8253 24.1699 11.7797C24.337 11.5062 24.5193 11.2175 24.6713 10.9288C24.7321 10.7161 24.8536 10.5186 24.9144 10.3058C24.96 10.1083 25.036 9.92596 25.0512 9.72842C25.0664 9.4853 25.0664 9.24219 25.0512 8.98387C25.036 8.78634 24.9904 8.5888 24.9448 8.39127C24.9296 8.34569 24.9296 8.3001 24.9448 8.25452C25.0208 8.33049 25.0664 8.42166 25.1271 8.51283C25.0967 8.604 25.0967 8.67997 25.1271 8.77114C25.1575 8.87751 25.1727 9.01426 25.1727 9.12063C25.1575 9.25738 25.1575 9.37894 25.1727 9.51569C25.1879 9.60686 25.1727 9.71323 25.1423 9.8044C25.0816 10.0019 25.0664 10.2147 24.9752 10.4122C24.8688 10.6705 24.7473 10.9136 24.6257 11.1719C24.413 11.5822 24.1395 11.9469 23.8964 12.3419L22.8479 13.983C22.6352 14.3173 22.4073 14.6364 22.1945 14.9707C22.1034 15.1226 22.0274 15.2746 21.921 15.4113C21.9058 15.3961 21.9058 15.3809 21.8906 15.3657C21.9514 15.1682 22.0882 15.0163 22.1945 14.8339C22.3617 14.606 22.5288 14.3173 22.7111 14.059Z" fill="#739D39"/>
<path d="M25.2801 9.04461V9.01422C25.2953 8.96864 25.2498 8.89267 25.3561 8.90786C25.3865 8.95344 25.4017 8.99903 25.4321 9.02942C25.4017 9.10539 25.3713 9.18137 25.3865 9.27254C25.4169 9.47007 25.3865 9.66761 25.3561 9.84994C25.3105 10.0779 25.265 10.2906 25.189 10.5033C25.0826 10.792 24.9459 11.0655 24.7939 11.339C24.6875 11.5366 24.566 11.7189 24.4596 11.9013L23.867 12.813C23.6695 13.1017 23.5023 13.3904 23.3048 13.6791C23.0617 14.0437 22.8338 14.4084 22.6058 14.7731C22.4235 15.0618 22.226 15.3353 22.074 15.624C22.0436 15.5936 22.0132 15.548 21.998 15.5024H22.0284C22.1804 15.3201 22.2867 15.1226 22.4083 14.925C22.6058 14.6363 22.7882 14.3324 22.9705 14.0285C23.1832 13.7095 23.3808 13.3752 23.5935 13.0561C23.791 12.7674 23.9734 12.4787 24.1557 12.1748C24.4444 11.7341 24.7331 11.2935 24.9611 10.8072C25.1434 10.4274 25.265 10.0323 25.2953 9.60683V9.57644C25.2953 9.42449 25.2953 9.22695 25.2801 9.04461Z" fill="#7DA93F"/>
<path d="M21.7109 15.1225L22.8506 13.3447C23.2608 12.7065 23.6711 12.0684 24.0813 11.415C24.2789 11.1111 24.446 10.792 24.5828 10.4577C24.598 10.3969 24.6587 10.3361 24.598 10.2754C24.6587 10.1082 24.7195 9.92588 24.7499 9.74354C24.8107 9.71315 24.7651 9.63718 24.7955 9.59159C24.8259 9.54601 24.7955 9.48523 24.8107 9.43964C24.8411 9.39406 24.8259 9.34847 24.8259 9.30289V8.81665C24.9019 8.78626 24.8867 8.84704 24.8867 8.89263C24.8867 9.05977 24.9171 9.24211 24.9171 9.40925C24.9171 9.80432 24.8259 10.169 24.6891 10.5337C24.6739 10.5793 24.6587 10.6097 24.6284 10.64C24.598 10.6704 24.5676 10.7008 24.5524 10.7464C24.5524 10.7616 24.5372 10.7616 24.5372 10.7768C24.4612 10.8984 24.37 11.0199 24.3245 11.1567C24.3245 11.1719 24.3093 11.1719 24.3093 11.1871C24.2789 11.2174 24.2637 11.263 24.2485 11.3086C24.2181 11.3542 24.2029 11.3998 24.1725 11.4302C24.1421 11.4758 24.0965 11.5213 24.0813 11.5821C24.051 11.6277 24.0358 11.6733 24.0054 11.7189C23.9294 11.81 23.8686 11.9164 23.8078 12.0228C23.6407 12.2963 23.4584 12.5698 23.276 12.8585C23.0785 13.1776 22.8809 13.4663 22.6834 13.7854C22.5011 14.0741 22.3187 14.3476 22.1364 14.6363C22.1212 14.6515 22.106 14.6819 22.106 14.6971C21.9844 14.849 21.8781 15.0162 21.7869 15.1985C21.7869 15.2137 21.7717 15.2137 21.7565 15.2137C21.7261 15.1681 21.7109 15.1529 21.7109 15.1225Z" fill="#678E34"/>
<path d="M25.7818 9.56113C25.7362 9.59152 25.7362 9.53074 25.721 9.53074C25.6906 9.72827 25.645 9.92581 25.5994 10.1233C25.5538 10.3209 25.5234 10.5184 25.4323 10.7159C25.3107 10.9743 25.2044 11.2326 25.0524 11.4909C24.8093 11.9315 24.5206 12.357 24.2471 12.7824C24.0343 13.1319 23.8064 13.4814 23.5785 13.8157C23.3658 14.1348 23.1682 14.4691 22.9555 14.7882C22.7276 15.1377 22.4997 15.5023 22.2717 15.8518C22.2565 15.8822 22.2414 15.8974 22.2262 15.9278C22.2262 15.9278 22.211 15.9278 22.211 15.9126C22.1958 15.8062 22.2717 15.7303 22.3173 15.6391C22.5604 15.244 22.8188 14.8642 23.0771 14.4691C23.3962 13.9677 23.7153 13.451 24.0343 12.9648C24.2623 12.6153 24.4902 12.2506 24.7333 11.8859C24.9005 11.6276 25.0524 11.3541 25.1892 11.0806C25.3411 10.7767 25.4475 10.4576 25.5234 10.1233C25.569 9.941 25.6146 9.74347 25.6146 9.54593C25.6146 9.50035 25.6146 9.43957 25.6602 9.40918C25.7362 9.45476 25.7666 9.51554 25.7818 9.56113Z" fill="#8AB945"/>
<path d="M22.0871 14.6667C22.0871 14.6515 22.0871 14.6212 22.1175 14.6212C22.2694 14.4084 22.4062 14.1805 22.5429 13.9678C22.8924 13.4208 23.2419 12.8737 23.5914 12.3419C23.6826 12.2052 23.7585 12.0532 23.8801 11.9165C23.9561 11.8405 24.0017 11.7493 24.0472 11.6581C24.0776 11.6126 24.108 11.5366 24.1992 11.5518C24.2144 11.6581 24.108 11.6885 24.0776 11.7493C23.9105 12.0532 23.713 12.3419 23.5154 12.6458C23.3483 12.9041 23.1811 13.1776 23.014 13.4359C22.7405 13.8462 22.4974 14.2717 22.2239 14.6667C22.0871 14.8643 21.9959 15.0922 21.8288 15.2745C21.7984 15.2593 21.7832 15.2289 21.7832 15.1986C21.8592 15.001 21.9807 14.8491 22.0871 14.6667Z" fill="#6B9436"/>
<path d="M22.3926 16.1558C22.5293 16.0039 22.6053 15.8216 22.7269 15.6544C22.818 15.5329 22.8788 15.3961 23.0004 15.2897C22.9852 15.3961 22.894 15.4569 22.8484 15.548C22.7269 15.7456 22.6205 15.9431 22.4989 16.1255C22.4686 16.1862 22.4837 16.2318 22.4686 16.2774C22.423 16.2318 22.4078 16.2014 22.3926 16.1558Z" fill="#91C248"/>
<path d="M22.1785 14.8643C22.1481 15.001 22.0417 15.0922 21.9809 15.2137C21.9505 15.2745 21.905 15.3353 21.8746 15.3809C21.8746 15.3657 21.8594 15.3657 21.8594 15.3505C21.9505 15.1834 22.0417 15.001 22.1785 14.8643Z" fill="#729C39"/>
<path d="M25.3559 8.92299C25.2951 8.92299 25.3255 8.99896 25.2799 9.02935C25.2495 8.99896 25.2495 8.96857 25.2343 8.93818C25.2039 8.8774 25.2343 8.84701 25.3103 8.86221C25.3407 8.86221 25.3559 8.8926 25.3559 8.92299Z" fill="#7DA93F"/>
<path d="M24.6114 7.76821C24.5962 7.78341 24.5962 7.7986 24.581 7.82899C24.5354 7.75302 24.4898 7.67705 24.4746 7.58588C24.5354 7.63146 24.581 7.69224 24.6114 7.76821Z" fill="#7E8B64"/>
<path d="M26.236 10.2601C26.1753 10.2297 26.1297 10.2145 26.1601 10.1385C26.1905 10.1841 26.2208 10.2297 26.236 10.2601Z" fill="#91C248"/>
<path d="M7.19707 13.1776C7.19707 13.2232 7.16668 13.2384 7.12109 13.2536C7.13629 13.208 7.15148 13.1776 7.19707 13.1472V13.1776Z" fill="#547DB4"/>
<path d="M24.1853 10.9896C24.1853 11.02 24.1702 11.0504 24.1398 11.0656H24.1094C24.1246 11.0352 24.1398 11.02 24.155 10.9896C24.1702 10.9744 24.1853 10.9744 24.1853 10.9896Z" fill="#485D8C"/>
<path d="M24.1863 11.5366C24.0799 11.5974 24.0343 11.7038 23.9735 11.7949C23.9431 11.8405 23.9279 11.8861 23.8824 11.9013C23.852 11.7949 23.9583 11.7493 23.9887 11.6734C24.0191 11.6278 24.0191 11.5822 24.0647 11.5518C24.1103 11.5062 24.1407 11.4606 24.1711 11.3999C24.1711 11.3391 24.2166 11.3087 24.247 11.2783C24.2774 11.2479 24.2926 11.1871 24.323 11.1567C24.3838 11.0048 24.475 10.8832 24.5509 10.7313C24.5813 10.7009 24.5813 10.6553 24.5965 10.6249C24.7181 10.4426 24.7637 10.245 24.8092 10.0475C24.8852 9.7892 24.9004 9.50049 24.8852 9.22699C24.87 9.07504 24.8852 8.92309 24.8396 8.77114C24.8092 8.75594 24.8396 8.71036 24.8092 8.69516V8.67997C24.7789 8.61919 24.8244 8.55841 24.7789 8.49763C24.7485 8.46724 24.7789 8.42165 24.7637 8.37607C24.7333 8.33049 24.7333 8.26971 24.7485 8.22412C24.8852 8.48243 24.9308 8.75594 24.946 9.02945C24.9612 9.27257 24.9612 9.53088 24.9308 9.774C24.9004 10.0171 24.8244 10.2602 24.7333 10.473C24.5965 10.868 24.4142 11.2175 24.1863 11.5366Z" fill="#6A9335"/>
<path d="M24.8066 8.71033C24.837 8.72552 24.837 8.75591 24.837 8.7863V9.30293C24.837 9.31812 24.8218 9.31812 24.8066 9.30293V8.71033Z" fill="#77716B"/>
<path d="M24.8082 9.43969C24.793 9.48527 24.8234 9.54605 24.7778 9.59164C24.7778 9.51566 24.7626 9.45488 24.8082 9.3941C24.8234 9.4093 24.8234 9.42449 24.8082 9.43969Z" fill="#65785D"/>
<path d="M24.6738 8.08734C24.7194 8.11773 24.7346 8.17851 24.7346 8.23929C24.7498 8.25449 24.7498 8.25449 24.7346 8.26968C24.7042 8.2241 24.689 8.14812 24.6738 8.08734Z" fill="#6B736C"/>
<path d="M24.7761 9.59155C24.7609 9.63714 24.8216 9.71311 24.7305 9.7435C24.7609 9.69792 24.7457 9.63714 24.7761 9.59155Z" fill="#65785D"/>
<path d="M24.5057 10.4576C24.5057 10.5184 24.4905 10.564 24.4297 10.5944C24.4449 10.5488 24.4601 10.488 24.5057 10.4576Z" fill="#65765F"/>
<path d="M24.7773 8.51288C24.8229 8.57366 24.7925 8.63444 24.8077 8.69522C24.7773 8.64963 24.7773 8.57366 24.7773 8.51288Z" fill="#657569"/>
<path d="M24.7305 8.26965V8.23926H24.7609C24.7609 8.28484 24.7609 8.34562 24.7912 8.39121C24.7761 8.4064 24.7761 8.4064 24.7609 8.39121C24.7305 8.36082 24.7305 8.31523 24.7305 8.26965Z" fill="#657E5D"/>
<path d="M24.8066 9.43967V9.37889V9.30292H24.837C24.8218 9.3637 24.8522 9.40928 24.8066 9.43967Z" fill="#58814F"/>
<path d="M24.2771 10.8376C24.2771 10.868 24.262 10.8984 24.2316 10.9136C24.2164 10.9288 24.2164 10.9288 24.2012 10.9136L24.2771 10.8376Z" fill="#876E68"/>
<path d="M24.2155 10.9136H24.2459C24.2459 10.944 24.2307 10.9744 24.2003 10.9895H24.1699C24.1851 10.9744 24.2003 10.944 24.2155 10.9136Z" fill="#65647C"/>
<path d="M24.7641 8.39124H24.7945V8.51279C24.749 8.4824 24.7641 8.43682 24.7641 8.39124Z" fill="#5D7B62"/>
<path d="M22.9844 15.2898C23.0755 15.0466 23.2275 14.8491 23.3642 14.6364C23.4706 14.454 23.6074 14.2869 23.6985 14.1046C23.7593 13.983 23.8353 13.8614 23.9568 13.7551C23.8961 13.907 23.8049 14.0438 23.7137 14.1805C23.5466 14.4388 23.3794 14.682 23.2123 14.9403C23.1363 15.0618 23.1059 15.1986 22.9844 15.2898ZM23.9568 13.7703C24.0632 13.5271 24.2152 13.3144 24.3519 13.1017C24.4127 12.9953 24.4735 12.8738 24.5798 12.7978C24.5495 12.9193 24.4735 13.0105 24.4127 13.1169C24.2759 13.3144 24.1696 13.512 24.0328 13.7095C24.0176 13.7247 23.9872 13.7399 23.9568 13.7703Z" fill="#91C248"/>
<path d="M25.2801 9.63716C25.3409 9.74352 25.2801 9.84989 25.265 9.94106C25.1586 10.5033 24.9155 11.0199 24.6116 11.5061C24.1101 12.3115 23.5935 13.1168 23.0769 13.9221C22.7578 14.4236 22.4387 14.9098 22.1196 15.4112C22.0892 15.4568 22.074 15.5176 21.998 15.5328C22.0436 15.396 22.1196 15.2897 22.1956 15.1833L22.8794 14.1348C23.1073 13.7854 23.32 13.4207 23.5479 13.0712C23.7303 12.7825 23.943 12.4938 24.1253 12.1899C24.3836 11.7796 24.6572 11.3694 24.8699 10.9439C25.0218 10.64 25.1282 10.3057 25.2194 9.97144C25.2346 9.91066 25.2346 9.84989 25.2346 9.8043C25.2346 9.72833 25.2346 9.68274 25.2801 9.63716ZM25.2801 9.04456C25.3257 9.24209 25.3257 9.42443 25.2801 9.62196C25.2498 9.42443 25.2801 9.22689 25.2801 9.04456Z" fill="#7DA93F"/>
<path d="M23.7561 12.433C23.437 12.9344 23.1179 13.4359 22.7836 13.9373C22.7684 13.9677 22.7532 13.9829 22.7228 13.9981C22.7836 13.8461 22.8747 13.7094 22.9659 13.5726C23.1938 13.208 23.437 12.8585 23.6649 12.4938C23.6801 12.4634 23.7105 12.4178 23.7409 12.4026C23.7561 12.4178 23.7712 12.433 23.7561 12.433ZM24.6526 10.9439C24.6374 11.0351 24.5766 11.1111 24.531 11.2022L24.2119 11.7492C24.1967 11.7796 24.1663 11.7948 24.1511 11.81C24.1511 11.7188 24.2119 11.6733 24.2575 11.6125C24.3638 11.415 24.5006 11.2326 24.5918 11.0199C24.607 10.9743 24.6374 10.9591 24.6526 10.9439ZM22.7076 14.0589C22.5557 14.3324 22.3885 14.6211 22.1758 14.8642C22.191 14.7578 22.267 14.6819 22.3277 14.6059C22.4645 14.4387 22.5253 14.2108 22.7076 14.0589Z" fill="#729C39"/>
<path d="M23.7578 12.4331V12.4027C23.8338 12.2355 23.925 12.0684 24.0617 11.9316C24.0009 12.1292 23.8794 12.2811 23.7578 12.4331Z" fill="#729C39"/>
<path d="M24.1513 11.7947C24.1361 11.8555 24.1057 11.9163 24.0449 11.9467C24.0601 11.8707 24.0905 11.8251 24.1513 11.7947Z" fill="#729C39"/>
<path d="M23.986 11.6885C23.986 11.7796 23.8949 11.8252 23.8797 11.9164C23.7581 12.0987 23.6517 12.2811 23.5302 12.4634C23.363 12.7065 23.2111 12.9648 23.044 13.208C22.7704 13.6486 22.4817 14.0741 22.2082 14.5147C22.1778 14.5603 22.1626 14.6059 22.1019 14.6211C22.193 14.3932 22.345 14.226 22.4665 14.0133C22.7552 13.5422 23.0743 13.0712 23.3782 12.6002C23.5606 12.3266 23.7277 12.0531 23.8949 11.7644C23.9253 11.734 23.9404 11.7037 23.986 11.6885ZM22.0867 14.6667C22.0867 14.7426 22.0259 14.8034 21.9955 14.8642L21.7676 15.1833C21.8284 14.9858 21.9499 14.8186 22.0867 14.6667ZM24.5331 10.7464C24.4875 10.8983 24.4115 11.0503 24.3051 11.1718C24.3355 11.0047 24.4419 10.8679 24.5331 10.7464ZM24.1532 11.415C24.1532 11.4909 24.1228 11.5365 24.0468 11.5669C24.0772 11.5061 24.1076 11.4453 24.1532 11.415ZM24.3051 11.1718C24.2899 11.2174 24.2747 11.263 24.2292 11.2934C24.2443 11.2478 24.2443 11.187 24.3051 11.1718ZM24.5786 10.64C24.5786 10.6856 24.5786 10.716 24.5331 10.7464C24.5331 10.7008 24.5331 10.6552 24.5786 10.64Z" fill="#678F33"/>
</g>
<defs>
<clipPath id="clip0_13461_39832">
<rect width="35.1853" height="13.3563" fill="white" transform="translate(0.408203 5.32184)"/>
</clipPath>
</defs>
</svg>
