<svg width="23" height="14" viewBox="0 0 23 14" fill="none" xmlns="http://www.w3.org/2000/svg">
<path d="M15.6314 10.0011C15.5554 10.0619 15.525 10.1378 15.4794 10.2138C15.0996 10.8064 14.7349 11.399 14.355 11.9764C13.6864 12.9945 12.7292 13.5111 11.5136 13.4807C10.4955 13.4503 9.65979 13.0249 9.05199 12.2043C8.38342 11.3078 7.73004 10.3809 7.07666 9.45406C6.9399 9.27172 6.80315 9.07418 6.66639 8.89184C6.62081 8.87665 6.59042 8.84626 6.56003 8.81587C6.3473 8.49678 6.13457 8.17768 5.86106 7.91937C5.35963 7.44833 4.76703 7.15963 4.06806 7.08365C3.14117 6.97729 2.32065 7.22041 1.60649 7.81301C1.50012 7.88898 1.42415 7.99535 1.33298 8.08651C1.2874 8.1169 1.25701 8.17768 1.19623 8.16249C1.18103 8.14729 1.18103 8.14729 1.19623 8.1321C1.68246 7.35716 2.1839 6.59741 2.67013 5.82247C3.42988 4.63727 4.17443 3.45207 4.94937 2.28206C6.24094 0.321917 9.05199 0.321917 10.374 2.26686C11.0881 3.33051 11.8479 4.36376 12.5924 5.41221C12.638 5.42741 12.6684 5.47299 12.6988 5.51857C12.9267 5.80728 13.109 6.12637 13.3825 6.36949C13.9296 6.87092 14.5829 7.17482 15.3275 7.2356C15.9353 7.28118 16.4975 7.17482 17.0293 6.90131C17.3788 6.73417 17.6827 6.49105 17.941 6.20235C17.9866 6.14157 18.0322 6.08079 18.1082 6.0504H18.1385C18.1689 6.11118 18.1385 6.14157 18.1082 6.18715C17.7283 6.77975 17.3636 7.35716 16.9837 7.93457C16.5735 8.57275 16.1632 9.22613 15.7529 9.86432C15.7074 9.9251 15.6922 9.98588 15.6314 10.0011Z" fill="#2D529F"/>
<path d="M1.19717 8.17767C1.45549 7.91936 1.72899 7.66104 2.04809 7.4787C2.42796 7.26597 2.83822 7.11403 3.27888 7.06844C4.14499 6.97727 4.91993 7.17481 5.61889 7.69143C6.02915 7.99533 6.31786 8.40559 6.59136 8.83105C6.62175 8.87663 6.62176 8.92222 6.63695 8.9678C7.03202 9.92508 7.01682 10.8672 6.53059 11.7789C5.99876 12.7817 5.14785 13.3439 4.00823 13.4807C2.33679 13.6782 0.695741 12.4778 0.452623 10.6696C0.361453 9.8795 0.543792 9.13495 0.969249 8.46637C1.01483 8.3904 1.07561 8.31442 1.1212 8.23845C1.15159 8.22325 1.16678 8.19286 1.19717 8.17767Z" fill="#27BDBE"/>
<path d="M18.1083 6.06552C17.7284 6.52137 17.2726 6.85565 16.7256 7.06838C15.358 7.58501 13.8082 7.11397 12.9572 5.92876C12.8661 5.79201 12.7597 5.65526 12.6685 5.5185C12.6533 5.47292 12.623 5.42733 12.623 5.38175C12.4254 4.9259 12.3342 4.43966 12.3494 3.93823C12.3798 2.40355 13.5954 1.0512 15.1149 0.838471C16.4977 0.656132 17.774 1.29432 18.4578 2.50991C18.473 2.52511 18.4882 2.5555 18.5034 2.57069C18.549 2.64666 18.5794 2.72264 18.6249 2.79861C18.6705 2.88978 18.6857 2.98095 18.7313 3.07212C18.7465 3.1329 18.7617 3.19368 18.7769 3.23927C18.7921 3.28485 18.7921 3.31524 18.8073 3.36083C18.8225 3.40641 18.8225 3.4368 18.8377 3.48238C18.8377 3.49758 18.8377 3.51277 18.8529 3.51277C18.8529 3.57355 18.8529 3.61914 18.8833 3.67992V4.27252C18.8833 4.30291 18.8833 4.3333 18.8681 4.34849C18.8377 4.40927 18.8529 4.47005 18.8377 4.53083C18.8377 4.54603 18.8377 4.56122 18.8225 4.56122C18.8073 4.60681 18.8073 4.66759 18.7921 4.72837C18.7465 4.89551 18.7161 5.06265 18.6401 5.2298C18.6097 5.29058 18.5945 5.36655 18.549 5.42733C18.5186 5.47292 18.4882 5.5185 18.473 5.56409C18.4274 5.65526 18.3818 5.73123 18.321 5.80721C18.2907 5.83759 18.2755 5.85279 18.2451 5.89837C18.2299 5.92876 18.2147 5.94396 18.1995 5.97435C18.1691 6.03513 18.1387 6.05032 18.1083 6.06552Z" fill="#F18233"/>
<path d="M20.237 5.2602C20.9512 6.33904 21.6805 7.43307 22.3795 8.51191C23.6407 10.4417 22.4555 13.1008 20.1762 13.4503C18.7783 13.663 17.6994 13.1312 16.9093 11.9763C16.7726 11.7636 16.6358 11.5509 16.499 11.3534C16.499 11.2926 16.5294 11.2318 16.5598 11.1862C16.8485 10.7456 17.122 10.3049 17.4107 9.86425C17.6994 9.4388 17.9578 8.99814 18.2465 8.55749C18.4896 8.19281 18.7175 7.82814 18.9454 7.46346C19.0822 7.23553 19.2341 6.99242 19.3861 6.76449C19.614 6.39981 19.7963 6.01994 19.9179 5.60968C19.9635 5.47293 20.0091 5.33617 20.0243 5.19942C20.0395 5.13864 20.0395 5.06266 20.1306 5.09305C20.1306 5.10825 20.1458 5.10825 20.1458 5.12344C20.161 5.19942 20.2066 5.22981 20.237 5.2602Z" fill="#93C64A"/>
<path d="M20.1434 5.10827C20.0826 5.10827 20.0674 5.15386 20.0674 5.19944C20.0066 5.53373 19.8851 5.85282 19.7483 6.17192C19.5964 6.5214 19.3837 6.84049 19.1861 7.17478C18.943 7.56985 18.6999 7.96492 18.4568 8.34479C18.2896 8.6031 18.1073 8.83103 17.9553 9.08934C17.849 9.25648 17.7426 9.42363 17.6514 9.57558C17.4083 9.97064 17.15 10.3505 16.9069 10.7304C16.7853 10.9279 16.6486 11.1255 16.5422 11.3382C16.527 11.3078 16.4966 11.2774 16.4814 11.247C16.4358 11.171 16.451 11.1255 16.4966 11.0495C16.679 10.7912 16.8157 10.5177 16.9829 10.2745C16.9829 10.2593 16.9981 10.2593 16.9981 10.2442C17.1196 10.1074 17.1956 9.92506 17.302 9.77311C17.4387 9.57558 17.5755 9.37804 17.697 9.18051C17.7882 9.04376 17.8642 8.89181 17.9553 8.75505C17.9553 8.73986 17.9705 8.73986 17.9705 8.72466C18.0465 8.64869 18.1073 8.55752 18.1529 8.45115C18.2592 8.25362 18.4112 8.07128 18.5175 7.87375C18.5327 7.82816 18.5631 7.79777 18.5783 7.75219C18.6999 7.50907 18.8366 7.29634 18.9886 7.06842C19.414 6.39984 19.7787 5.73127 19.9003 4.92593C19.9155 4.86516 19.9155 4.80438 20.0066 4.83477C20.037 4.94113 20.0978 5.0323 20.1434 5.10827Z" fill="#91C248"/>
<path d="M19.4303 4.04461C19.4911 4.09019 19.5215 4.16617 19.5519 4.22695C19.5215 4.43967 19.5519 4.63721 19.5215 4.84994C19.4455 5.29059 19.3239 5.70085 19.1112 6.09592C18.7009 6.87086 18.1843 7.60021 17.7285 8.34477C17.227 9.1501 16.7104 9.92504 16.209 10.7304C16.1938 10.7608 16.1938 10.7911 16.1482 10.7911C16.1178 10.7456 16.1026 10.7152 16.0722 10.6696C16.0722 10.6088 16.0874 10.5632 16.1178 10.5176C16.3609 10.1682 16.5889 9.78828 16.8168 9.4236C17.303 8.63347 17.8196 7.85853 18.3059 7.08359C18.5338 6.71891 18.7769 6.36943 18.9593 5.97436C19.096 5.67046 19.2176 5.36656 19.2935 5.03228C19.3239 4.89552 19.3239 4.74357 19.3695 4.60682C19.3999 4.50045 19.3543 4.37889 19.3543 4.27253C19.3543 4.18136 19.3391 4.09019 19.4303 4.04461Z" fill="#82AF41"/>
<path d="M15.9799 10.5328C15.9495 10.5024 15.9344 10.472 15.904 10.4264C15.9495 10.2593 16.0711 10.1225 16.1623 9.97059C16.5877 9.30201 17.0132 8.64863 17.4386 7.99525C17.7729 7.47862 18.1072 6.962 18.4263 6.44537C18.6542 6.09589 18.8366 5.71601 18.9581 5.30575C19.0493 5.01705 19.1253 4.71315 19.0949 4.39406C19.0797 4.24211 19.1253 4.09016 19.0949 3.93821C19.0797 3.87743 19.0797 3.81665 19.0645 3.75587C19.0493 3.6799 19.0189 3.58873 19.1101 3.52795C19.1861 3.61912 19.2468 3.72548 19.3076 3.83184C19.2468 3.89262 19.2924 3.9534 19.3076 4.01418V4.04457C19.3076 4.22691 19.2924 4.40925 19.3076 4.5764V4.60679L19.262 4.74354C19.2468 5.06263 19.1405 5.35134 19.0189 5.65523C18.8366 6.09589 18.5935 6.49095 18.3351 6.88602C18.0009 7.41784 17.6514 7.94966 17.3171 8.48149L16.6789 9.48435C16.4662 9.81864 16.2382 10.1681 16.0103 10.5024C16.0103 10.548 15.9951 10.548 15.9799 10.5328Z" fill="#78A33C"/>
<path d="M16.1317 10.7912C16.2229 10.5785 16.3597 10.3962 16.4964 10.1986C16.9978 9.4237 17.4841 8.64876 17.9855 7.85863C18.3198 7.342 18.6541 6.82537 18.9732 6.29355C19.1859 5.91368 19.3531 5.51861 19.4442 5.09315C19.505 4.85004 19.5202 4.59172 19.5202 4.3486C19.5202 4.30302 19.5202 4.25743 19.5658 4.22704C19.6266 4.27263 19.6418 4.3638 19.6873 4.42458C19.6418 4.88042 19.5658 5.33627 19.3986 5.76173C19.3227 5.94407 19.2315 6.12641 19.1403 6.30875C18.9276 6.71901 18.6693 7.09888 18.4262 7.47875C18.1527 7.90421 17.8791 8.34486 17.6056 8.77032L16.466 10.5481C16.39 10.6697 16.3141 10.7912 16.2533 10.928C16.1925 10.8824 16.1621 10.8368 16.1317 10.7912Z" fill="#87B543"/>
<path d="M18.6711 3.08728L18.58 2.81377C18.5648 2.78338 18.5648 2.76818 18.6104 2.75299C18.7319 2.92013 18.8383 3.08728 18.9295 3.25442C18.9598 3.37598 18.9902 3.48234 19.0054 3.6039C19.0662 3.923 19.0814 4.2269 19.0662 4.56118C19.051 5.04742 18.8839 5.48807 18.6711 5.91353C18.504 6.20223 18.3369 6.47574 18.1697 6.74925C18.1697 6.76444 18.1545 6.76444 18.1545 6.77964C18.1241 6.82522 18.0785 6.87081 18.0633 6.91639C18.0633 6.93159 18.0482 6.93159 18.0482 6.94678C17.9418 7.09873 17.8506 7.25068 17.7595 7.40263C17.5467 7.69133 17.3644 7.99523 17.182 8.28394C17.0301 8.51186 16.8781 8.73978 16.7414 8.9829C16.7262 8.9981 16.7262 9.02849 16.711 9.04368C16.5135 9.2868 16.3615 9.56031 16.1944 9.81862C16.1944 9.83382 16.1792 9.83381 16.1792 9.84901C16.088 9.98576 15.9968 10.1073 15.9209 10.2441C15.9057 10.2745 15.9057 10.3201 15.8601 10.3201C15.8297 10.2897 15.8145 10.2593 15.7993 10.2289C15.8753 10.0465 15.9968 9.8946 16.1032 9.72745C16.4527 9.19563 16.787 8.66381 17.1365 8.11679C17.4404 7.63055 17.7595 7.15951 18.0482 6.65808C18.0785 6.5973 18.1545 6.55172 18.1697 6.47574C18.3521 6.17184 18.5344 5.85275 18.6863 5.51846C18.8383 5.16898 18.9295 4.8043 18.9295 4.40923C18.9295 4.09014 18.9143 3.77105 18.8383 3.45195C18.8231 3.37598 18.7775 3.30001 18.7623 3.22403C18.7623 3.20884 18.7471 3.20884 18.7319 3.19364C18.7167 3.19364 18.7015 3.13286 18.6711 3.08728Z" fill="#6F9837"/>
<path d="M19.8096 4.63719C19.84 4.68278 19.8704 4.71317 19.9008 4.75875C19.8552 4.81953 19.8552 4.8955 19.84 4.97148C19.764 5.47291 19.5817 5.92876 19.3538 6.36941C19.0651 6.88604 18.746 7.37227 18.4269 7.87371C18.0622 8.43592 17.6975 8.99813 17.3481 9.56034C17.0442 10.0314 16.7251 10.5024 16.4364 10.9735C16.406 11.0191 16.4212 11.0798 16.3452 11.095C16.3148 11.0646 16.2844 11.0342 16.2692 10.9887C16.2844 10.8823 16.3604 10.7911 16.4212 10.6848C16.7707 10.1226 17.1353 9.59073 17.4848 9.02852C17.7735 8.55748 18.0774 8.10163 18.3813 7.63059C18.5029 7.46344 18.594 7.2811 18.7156 7.09877C18.8827 6.84045 19.0499 6.58214 19.1866 6.30863C19.445 5.82239 19.6425 5.32096 19.7033 4.75875C19.7337 4.72836 19.7033 4.65239 19.8096 4.63719Z" fill="#8EBE47"/>
<path d="M18.275 5.83765C18.3205 5.76167 18.3661 5.6705 18.4269 5.59453C18.4725 5.56414 18.4877 5.50336 18.5029 5.45777C18.5181 5.39699 18.5485 5.32102 18.5789 5.27543C18.67 5.32102 18.6092 5.39699 18.594 5.45777C18.5181 5.6705 18.4269 5.86804 18.3053 6.06557C17.9103 6.71895 17.5 7.35714 17.0898 8.01052C16.6491 8.69429 16.2084 9.37806 15.783 10.0618C15.7678 10.0922 15.7678 10.153 15.707 10.1378C15.6766 10.1074 15.6614 10.0618 15.631 10.0314C15.9349 9.5452 16.2388 9.07416 16.5427 8.58792C17.0594 7.7674 17.5912 6.94687 18.1078 6.12635C18.123 6.11115 18.123 6.09596 18.123 6.08076C18.123 6.05037 18.1534 6.03518 18.1686 6.00479C18.1838 5.98959 18.2142 5.9592 18.2142 5.92881C18.2446 5.88323 18.275 5.86804 18.275 5.83765Z" fill="#628931"/>
<path d="M19.8096 4.63719C19.764 4.66758 19.7493 4.72842 19.7493 4.774C19.7037 5.26024 19.5518 5.71609 19.3238 6.14155C19.2023 6.39986 19.0503 6.64298 18.9136 6.8709C18.8224 7.02285 18.7312 7.1748 18.6249 7.32675C18.4881 7.53948 18.3666 7.73701 18.2298 7.94974C18.0019 8.29922 17.774 8.63351 17.5612 8.98299C17.3029 9.39326 17.0446 9.80352 16.7711 10.2138C16.6039 10.4721 16.4368 10.7456 16.2697 11.0039C16.2545 10.9735 16.2393 10.9583 16.2241 10.9279C16.2393 10.8824 16.2393 10.8368 16.2697 10.7912C16.6191 10.2594 16.9534 9.74274 17.2877 9.21092C17.6828 8.60312 18.0779 7.98013 18.4729 7.37233C18.7008 7.02285 18.9288 6.67337 19.1263 6.2935C19.3086 5.92882 19.491 5.56414 19.567 5.15388C19.5973 4.95634 19.6429 4.774 19.6733 4.57647C19.6885 4.47011 19.7341 4.51569 19.7797 4.54608C19.8101 4.57647 19.8096 4.6068 19.8096 4.63719Z" fill="#8BB945"/>
<path d="M16.3616 11.1102C16.4071 10.9735 16.4831 10.8671 16.5591 10.7456C17.1061 9.89465 17.6531 9.05893 18.2001 8.20802C18.5496 7.661 18.9143 7.09879 19.2334 6.53658C19.5373 6.01995 19.7652 5.47293 19.826 4.86514C19.826 4.80436 19.8564 4.77397 19.902 4.75877C19.9324 4.78916 19.9628 4.81955 19.9779 4.86514C19.9476 4.88033 19.902 4.86514 19.902 4.92592C19.8564 5.35137 19.7196 5.73125 19.5373 6.11112C19.2942 6.65814 18.9447 7.14437 18.6408 7.64581C18.6104 7.69139 18.5952 7.72178 18.58 7.76736C18.3673 8.08646 18.1546 8.42075 17.957 8.73984C17.7595 8.99815 17.6227 9.28686 17.4404 9.54517C17.2733 9.77309 17.1365 10.0314 16.9846 10.2593C16.787 10.5176 16.6503 10.8063 16.4679 11.0647C16.4527 11.095 16.4375 11.1406 16.392 11.1254C16.3768 11.1406 16.3616 11.1254 16.3616 11.1102Z" fill="#8FBF47"/>
<path d="M16.7101 9.05897C16.7101 9.04378 16.7101 9.01338 16.7405 9.01338C17.0596 8.49676 17.3939 8.01052 17.713 7.49389C17.7282 7.4787 17.7434 7.44831 17.7586 7.43312C17.8649 7.26597 17.9713 7.09883 18.0625 6.93168C18.0929 6.8861 18.1232 6.82532 18.1688 6.77973C18.336 6.50623 18.5183 6.21752 18.6703 5.92882C18.731 5.71609 18.8526 5.51856 18.9134 5.30583C18.959 5.10829 19.0349 4.92596 19.0501 4.72842C19.0653 4.4853 19.0653 4.24218 19.0501 3.98387C19.0349 3.78634 18.9894 3.5888 18.9438 3.39127C18.9286 3.34569 18.9286 3.3001 18.9438 3.25452C19.0197 3.33049 19.0653 3.42166 19.1261 3.51283C19.0957 3.604 19.0957 3.67997 19.1261 3.77114C19.1565 3.87751 19.1717 4.01426 19.1717 4.12063C19.1565 4.25738 19.1565 4.37894 19.1717 4.51569C19.1869 4.60686 19.1717 4.71323 19.1413 4.8044C19.0805 5.00193 19.0653 5.21466 18.9742 5.41219C18.8678 5.67051 18.7462 5.91362 18.6247 6.17194C18.412 6.5822 18.1384 6.94688 17.8953 7.34195L16.8469 8.983C16.6341 9.31728 16.4062 9.63638 16.1935 9.97066C16.1023 10.1226 16.0264 10.2746 15.92 10.4113C15.9048 10.3961 15.9048 10.3809 15.8896 10.3657C15.9504 10.1682 16.0871 10.0162 16.1935 9.83391C16.3606 9.60599 16.5278 9.31728 16.7101 9.05897Z" fill="#739D39"/>
<path d="M19.2784 4.04463V4.01424C19.2936 3.96866 19.248 3.89268 19.3544 3.90788C19.3848 3.95346 19.4 3.99905 19.4304 4.02944C19.4 4.10541 19.3696 4.18139 19.3848 4.27256C19.4152 4.47009 19.3848 4.66762 19.3544 4.84996C19.3088 5.07789 19.2632 5.29062 19.1872 5.50334C19.0809 5.79205 18.9441 6.06556 18.7922 6.33906C18.6858 6.5366 18.5642 6.71894 18.4579 6.90128L17.8653 7.81297C17.6677 8.10167 17.5006 8.39038 17.3031 8.67908C17.0599 9.04376 16.832 9.40844 16.6041 9.77311C16.4218 10.0618 16.2242 10.3353 16.0723 10.624C16.0419 10.5936 16.0115 10.5481 15.9963 10.5025H16.0267C16.1786 10.3201 16.285 10.1226 16.4066 9.92506C16.6041 9.63636 16.7864 9.33246 16.9688 9.02856C17.1815 8.70947 17.379 8.37518 17.5918 8.05609C17.7893 7.76739 17.9716 7.47868 18.154 7.17478C18.4427 6.73413 18.7314 6.29348 18.9593 5.80724C19.1416 5.42737 19.2632 5.0323 19.2936 4.60685V4.57646C19.2936 4.42451 19.2936 4.22697 19.2784 4.04463Z" fill="#7DA93F"/>
<path d="M15.709 10.1226L16.8486 8.34476C17.2589 7.70657 17.6692 7.06839 18.0794 6.41501C18.277 6.11111 18.4441 5.79201 18.5809 5.45773C18.5961 5.39695 18.6568 5.33617 18.5961 5.27539C18.6568 5.10824 18.7176 4.9259 18.748 4.74357C18.8088 4.71318 18.7632 4.6372 18.7936 4.59162C18.824 4.54603 18.7936 4.48525 18.8088 4.43967C18.8392 4.39408 18.824 4.3485 18.824 4.30291V3.81668C18.9 3.78629 18.8848 3.84707 18.8848 3.89265C18.8848 4.05979 18.9151 4.24213 18.9151 4.40928C18.9151 4.80435 18.824 5.16902 18.6872 5.5337C18.672 5.57929 18.6568 5.60968 18.6264 5.64007C18.5961 5.67045 18.5657 5.70084 18.5505 5.74643C18.5505 5.76162 18.5353 5.76162 18.5353 5.77682C18.4593 5.89838 18.3681 6.01994 18.3225 6.15669C18.3225 6.17189 18.3073 6.17189 18.3073 6.18708C18.277 6.21747 18.2618 6.26306 18.2466 6.30864C18.2162 6.35423 18.201 6.39981 18.1706 6.4302C18.1402 6.47578 18.0946 6.52137 18.0794 6.58215C18.049 6.62773 18.0338 6.67332 18.0035 6.7189C17.9275 6.81007 17.8667 6.91644 17.8059 7.0228C17.6388 7.29631 17.4564 7.56982 17.2741 7.85852C17.0766 8.17762 16.879 8.46632 16.6815 8.78541C16.4992 9.07411 16.3168 9.34762 16.1345 9.63633C16.1193 9.65152 16.1041 9.68191 16.1041 9.69711C15.9825 9.84905 15.8762 10.0162 15.785 10.1985C15.785 10.2137 15.7698 10.2137 15.7546 10.2137C15.7242 10.1681 15.709 10.153 15.709 10.1226Z" fill="#678E34"/>
<path d="M19.7804 4.56117C19.7349 4.59156 19.7349 4.53078 19.7197 4.53078C19.6893 4.72832 19.6437 4.92585 19.5981 5.12338C19.5525 5.32092 19.5221 5.51845 19.431 5.71599C19.3094 5.9743 19.203 6.23261 19.0511 6.49093C18.808 6.93158 18.5193 7.35704 18.2458 7.78249C18.033 8.13198 17.8051 8.48146 17.5772 8.81575C17.3644 9.13484 17.1669 9.46913 16.9542 9.78822C16.7263 10.1377 16.4983 10.5024 16.2704 10.8519C16.2552 10.8823 16.2393 10.8976 16.2241 10.9279C16.2241 10.9279 16.2096 10.9278 16.2096 10.9126C16.1944 10.8063 16.2704 10.7303 16.316 10.6391C16.5591 10.2441 16.8174 9.86419 17.0757 9.46913C17.3948 8.9677 17.7139 8.45107 18.033 7.96483C18.2609 7.61535 18.4889 7.25067 18.732 6.88599C18.8991 6.62768 19.0511 6.35417 19.1878 6.08066C19.3398 5.77677 19.4461 5.45767 19.5221 5.12338C19.5677 4.94105 19.6133 4.74351 19.6133 4.54598C19.6133 4.50039 19.6133 4.43961 19.6589 4.40922C19.7349 4.45481 19.7652 4.51559 19.7804 4.56117Z" fill="#8AB945"/>
<path d="M16.0868 9.66673C16.0868 9.65154 16.0868 9.62115 16.1172 9.62115C16.2691 9.40842 16.4059 9.1805 16.5426 8.96777C16.8921 8.42075 17.2416 7.87373 17.5911 7.34191C17.6823 7.20516 17.7582 7.05321 17.8798 6.91646C17.9558 6.84048 18.0013 6.74931 18.0469 6.65814C18.0773 6.61256 18.1077 6.53658 18.1989 6.55178C18.2141 6.65814 18.1077 6.68853 18.0773 6.74931C17.9102 7.05321 17.7126 7.34191 17.5151 7.64581C17.348 7.90412 17.1808 8.17763 17.0137 8.43595C16.7402 8.84621 16.4971 9.27167 16.2235 9.66673C16.0868 9.86427 15.9956 10.0922 15.8285 10.2745C15.7981 10.2593 15.7829 10.2289 15.7829 10.1986C15.8589 10.001 15.9804 9.84907 16.0868 9.66673Z" fill="#6B9436"/>
<path d="M16.3923 11.1558C16.5291 11.0039 16.6051 10.8216 16.7266 10.6544C16.8178 10.5329 16.8786 10.3961 17.0001 10.2897C16.9849 10.3961 16.8938 10.4569 16.8482 10.548C16.7266 10.7456 16.6203 10.9431 16.4987 11.1255C16.4683 11.1862 16.4835 11.2318 16.4683 11.2774C16.4227 11.2318 16.4075 11.2014 16.3923 11.1558Z" fill="#91C248"/>
<path d="M16.1779 9.86426C16.1475 10.001 16.0412 10.0922 15.9804 10.2137C15.95 10.2745 15.9044 10.3353 15.874 10.3809C15.874 10.3657 15.8588 10.3657 15.8588 10.3505C15.95 10.1834 16.0412 10.001 16.1779 9.86426Z" fill="#729C39"/>
<path d="M19.3553 3.92304C19.2945 3.92304 19.3249 3.99901 19.2793 4.0294C19.2489 3.99901 19.2489 3.96862 19.2337 3.93823C19.2033 3.87745 19.2337 3.84706 19.3097 3.86226C19.3401 3.86226 19.3553 3.89265 19.3553 3.92304Z" fill="#7DA93F"/>
<path d="M18.6098 2.76822C18.5946 2.78341 18.5946 2.79861 18.5795 2.829C18.5339 2.75302 18.4883 2.67705 18.4731 2.58588C18.5339 2.63146 18.5795 2.69224 18.6098 2.76822Z" fill="#7E8B64"/>
<path d="M20.2352 5.26015C20.1745 5.22976 20.1289 5.21456 20.1593 5.13859C20.1897 5.18417 20.22 5.22976 20.2352 5.26015Z" fill="#91C248"/>
<path d="M1.19514 8.17762C1.19514 8.22321 1.16475 8.2384 1.11917 8.2536C1.13436 8.20801 1.14956 8.17762 1.19514 8.14723V8.17762Z" fill="#547DB4"/>
<path d="M18.1838 5.98965C18.1838 6.02004 18.1686 6.05043 18.1382 6.06562L18.1083 6.06552C18.1235 6.03513 18.1382 6.02004 18.1534 5.98965C18.1686 5.97445 18.1838 5.97445 18.1838 5.98965Z" fill="#485D8C"/>
<path d="M18.1853 6.53661C18.0789 6.59739 18.0333 6.70375 17.9725 6.79492C17.9421 6.84051 17.9269 6.88609 17.8814 6.90129C17.851 6.79492 17.9573 6.74934 17.9877 6.67336C18.0181 6.62778 18.0181 6.58219 18.0637 6.5518C18.1093 6.50622 18.1397 6.46064 18.1701 6.39986C18.1701 6.33908 18.2156 6.30869 18.246 6.2783C18.2764 6.24791 18.2922 6.18708 18.3225 6.15669C18.3833 6.00474 18.474 5.88323 18.5499 5.73128C18.5803 5.70089 18.5803 5.65531 18.5955 5.62492C18.7171 5.44258 18.7627 5.24504 18.8082 5.04751C18.8842 4.7892 18.8994 4.50049 18.8842 4.22698C18.869 4.07503 18.8842 3.92309 18.8386 3.77114C18.8082 3.75594 18.8386 3.71036 18.8082 3.69516V3.67997C18.7779 3.61919 18.8234 3.55841 18.7779 3.49763C18.7475 3.46724 18.7779 3.42165 18.7627 3.37607C18.7323 3.33048 18.7323 3.2697 18.7475 3.22412C18.8842 3.48243 18.9298 3.75594 18.945 4.02945C18.9602 4.27257 18.9602 4.53088 18.9298 4.774C18.8994 5.01712 18.8234 5.26024 18.7323 5.47297C18.5955 5.86803 18.4132 6.21752 18.1853 6.53661Z" fill="#6A9335"/>
<path d="M18.8055 3.71032C18.8359 3.72551 18.8359 3.7559 18.8359 3.78629V4.30292C18.8359 4.31812 18.8207 4.31812 18.8055 4.30292V3.71032Z" fill="#77716B"/>
<path d="M18.8076 4.43974C18.7924 4.48532 18.8228 4.5461 18.7772 4.59169C18.7772 4.51571 18.762 4.45493 18.8076 4.39416C18.8228 4.40935 18.8228 4.42455 18.8076 4.43974Z" fill="#65785D"/>
<path d="M18.6711 3.08728C18.7167 3.11767 18.7329 3.17851 18.7329 3.23929C18.7481 3.25448 18.7481 3.25448 18.7329 3.26968C18.7025 3.22409 18.6863 3.14806 18.6711 3.08728Z" fill="#6B736C"/>
<path d="M18.7752 4.5916C18.76 4.63718 18.8208 4.71316 18.7296 4.74355C18.76 4.69796 18.7448 4.63718 18.7752 4.5916Z" fill="#65785D"/>
<path d="M18.5039 5.45768C18.5039 5.51846 18.4887 5.56404 18.4279 5.59443C18.4431 5.54885 18.4583 5.48807 18.5039 5.45768Z" fill="#65765F"/>
<path d="M18.7768 3.51288C18.8224 3.57366 18.792 3.63444 18.8072 3.69522C18.7768 3.64963 18.7768 3.57366 18.7768 3.51288Z" fill="#657569"/>
<path d="M18.7296 3.26964V3.23925H18.76C18.76 3.28484 18.76 3.34562 18.7904 3.3912C18.7752 3.4064 18.7752 3.4064 18.76 3.3912C18.7296 3.36081 18.7296 3.31523 18.7296 3.26964Z" fill="#657E5D"/>
<path d="M18.8055 4.43972V4.30292H18.8359C18.8207 4.3637 18.8511 4.40933 18.8055 4.43972Z" fill="#58814F"/>
<path d="M18.2761 5.83762C18.2761 5.86801 18.261 5.8984 18.2306 5.9136C18.2154 5.92879 18.2154 5.92879 18.2002 5.9136L18.2761 5.83762Z" fill="#876E68"/>
<path d="M18.215 5.91361H18.2454C18.2454 5.944 18.2302 5.97439 18.1998 5.98959H18.1694C18.1846 5.97439 18.1998 5.944 18.215 5.91361Z" fill="#65647C"/>
<path d="M18.7628 3.39123H18.7932V3.51279C18.7476 3.4824 18.7628 3.43682 18.7628 3.39123Z" fill="#5D7B62"/>
<path d="M16.9833 10.2898C17.0745 10.0467 17.2264 9.84913 17.3632 9.6364C17.4696 9.45406 17.6063 9.28691 17.6975 9.10458C17.7583 8.98302 17.8338 8.86142 17.9553 8.75505C17.8946 8.907 17.8038 9.0438 17.7127 9.18055C17.5455 9.43886 17.3784 9.68198 17.2112 9.9403C17.1353 10.0619 17.1049 10.1986 16.9833 10.2898ZM17.9558 8.77029C18.0622 8.52717 18.2141 8.31444 18.3509 8.10171C18.4116 7.99535 18.4724 7.87379 18.5788 7.79781C18.5484 7.91937 18.4724 8.01054 18.4116 8.11691C18.2749 8.31444 18.1685 8.51197 18.0318 8.70951C18.0166 8.7247 17.9862 8.7399 17.9558 8.77029Z" fill="#91C248"/>
<path d="M19.2784 4.63721C19.3392 4.74357 19.2784 4.84994 19.2632 4.94111C19.1568 5.50332 18.9137 6.01994 18.6098 6.50618C18.1084 7.31151 17.5918 8.11684 17.0751 8.92217C16.756 9.4236 16.437 9.90984 16.1179 10.4113C16.0875 10.4569 16.0723 10.5176 15.9963 10.5328C16.0419 10.3961 16.1179 10.2897 16.1938 10.1833L16.8776 9.1349C17.1055 8.78542 17.3183 8.42074 17.5462 8.07126C17.7285 7.78255 17.9412 7.49385 18.1236 7.18995C18.3819 6.77969 18.6554 6.36943 18.8681 5.94397C19.0201 5.64007 19.1265 5.30578 19.2176 4.9715C19.2328 4.91072 19.2328 4.84994 19.2328 4.80435C19.2328 4.72838 19.2328 4.68279 19.2784 4.63721ZM19.2784 4.04463C19.324 4.24217 19.324 4.42448 19.2784 4.62201C19.248 4.42448 19.2784 4.22697 19.2784 4.04463Z" fill="#7DA93F"/>
<path d="M17.7551 7.43304C17.436 7.93448 17.1169 8.43591 16.7826 8.93734C16.7674 8.96773 16.7522 8.98292 16.7218 8.99812C16.7826 8.84617 16.8738 8.70942 16.965 8.57266C17.1929 8.20798 17.436 7.8585 17.6639 7.49382C17.6791 7.46343 17.7095 7.41785 17.7399 7.40265C17.7551 7.41785 17.7703 7.43304 17.7551 7.43304ZM18.6516 5.94394C18.6364 6.03511 18.5756 6.11109 18.53 6.20226L18.2109 6.74927C18.1957 6.77966 18.1654 6.79486 18.1502 6.81005C18.1502 6.71888 18.2109 6.6733 18.2565 6.61252C18.3629 6.41498 18.4996 6.23265 18.5908 6.01992C18.606 5.97433 18.6364 5.95914 18.6516 5.94394ZM16.7066 9.0589C16.5547 9.33241 16.3876 9.62111 16.1748 9.86423C16.19 9.75786 16.266 9.68189 16.3268 9.60591C16.4635 9.43877 16.5243 9.21085 16.7066 9.0589Z" fill="#729C39"/>
<path d="M17.7572 7.43311V7.40272C17.8331 7.23558 17.9243 7.06844 18.0611 6.93168C18.0003 7.12921 17.8787 7.28116 17.7572 7.43311Z" fill="#729C39"/>
<path d="M18.1508 6.79477C18.1356 6.85555 18.1052 6.91633 18.0445 6.94672C18.0597 6.87075 18.09 6.82516 18.1508 6.79477Z" fill="#729C39"/>
<path d="M17.9849 6.6885C17.9849 6.77967 17.8938 6.82525 17.8786 6.91642C17.757 7.09876 17.6506 7.2811 17.5291 7.46344C17.3619 7.70656 17.21 7.96487 17.0428 8.20799C16.7693 8.64864 16.4806 9.0741 16.2071 9.51475C16.1767 9.56034 16.1615 9.60592 16.1008 9.62112C16.1919 9.39319 16.3439 9.22605 16.4654 9.01332C16.7541 8.54228 17.0732 8.07124 17.3771 7.60019C17.5595 7.32669 17.7266 7.05318 17.8938 6.76447C17.9242 6.73408 17.9393 6.70369 17.9849 6.6885ZM16.0856 9.6667C16.0856 9.74268 16.0248 9.80346 15.9944 9.86424L15.7665 10.1833C15.8273 9.9858 15.9488 9.81865 16.0856 9.6667ZM18.5319 5.74642C18.4864 5.89836 18.4104 6.05031 18.304 6.17187C18.3344 6.00473 18.4408 5.86797 18.5319 5.74642ZM18.1521 6.41499C18.1521 6.49097 18.1217 6.53655 18.0457 6.56694C18.0761 6.50616 18.1065 6.44538 18.1521 6.41499ZM18.304 6.17187C18.2888 6.21746 18.2736 6.26304 18.2281 6.29343C18.2432 6.24785 18.2432 6.18707 18.304 6.17187ZM18.5775 5.64005C18.5775 5.68564 18.5775 5.71603 18.5319 5.74642C18.5319 5.70083 18.5319 5.65525 18.5775 5.64005Z" fill="#678F33"/>
</svg>
