<svg width="24" height="24" viewBox="0 0 24 24" fill="none" xmlns="http://www.w3.org/2000/svg">
<circle cx="12" cy="12" r="12" fill="white"/>
<path d="M15.6212 14.721C15.5582 14.7721 15.5329 14.8359 15.4951 14.8997C15.1796 15.3974 14.8768 15.8951 14.5614 16.38C14.0062 17.2351 13.2113 17.6689 12.2019 17.6434C11.3565 17.6179 10.6625 17.2606 10.1578 16.5715C9.60262 15.8185 9.06006 15.0401 8.5175 14.2616C8.40394 14.1085 8.29038 13.9426 8.17682 13.7894C8.13897 13.7767 8.11373 13.7512 8.0885 13.7256C7.91185 13.4576 7.7352 13.1896 7.50808 12.9727C7.0917 12.5771 6.59961 12.3346 6.0192 12.2708C5.24952 12.1815 4.56817 12.3857 3.97514 12.8834C3.88682 12.9472 3.82373 13.0365 3.74802 13.1131C3.71017 13.1386 3.68493 13.1896 3.63446 13.1769C3.62185 13.1641 3.62185 13.1641 3.63446 13.1514C4.03823 12.5005 4.45461 11.8624 4.85838 11.2116C5.48926 10.2162 6.10752 9.22081 6.75103 8.23817C7.82353 6.59193 10.1578 6.59193 11.2555 8.22541C11.8486 9.11872 12.4794 9.9865 13.0977 10.867C13.1356 10.8798 13.1608 10.9181 13.186 10.9564C13.3753 11.1988 13.5267 11.4668 13.7538 11.671C14.2081 12.0922 14.7506 12.3474 15.3689 12.3984C15.8736 12.4367 16.3404 12.3474 16.7821 12.1177C17.0723 11.9773 17.3246 11.7731 17.5391 11.5306C17.577 11.4796 17.6148 11.4286 17.6779 11.403H17.7032C17.7284 11.4541 17.7032 11.4796 17.6779 11.5179C17.3625 12.0156 17.0597 12.5005 16.7442 12.9855C16.4035 13.5214 16.0629 14.0702 15.7222 14.6062C15.6843 14.6572 15.6717 14.7083 15.6212 14.721Z" fill="#2D529F"/>
<path d="M3.63731 13.1896C3.85181 12.9726 4.07893 12.7557 4.3439 12.6025C4.65934 12.4239 5.00002 12.2962 5.36593 12.258C6.08514 12.1814 6.72864 12.3473 7.30905 12.7812C7.64973 13.0364 7.88946 13.381 8.11658 13.7383C8.14181 13.7766 8.14181 13.8149 8.15443 13.8532C8.48249 14.6571 8.46987 15.4483 8.06611 16.214C7.62449 17.0563 6.9179 17.5285 5.97158 17.6433C4.58363 17.8092 3.22093 16.8011 3.01904 15.2824C2.94334 14.6188 3.09475 13.9935 3.44805 13.432C3.4859 13.3682 3.53637 13.3044 3.57422 13.2406C3.59946 13.2278 3.61207 13.2023 3.63731 13.1896Z" fill="#27BDBE"/>
<path d="M17.678 11.4157C17.3625 11.7986 16.984 12.0793 16.5298 12.258C15.3942 12.6919 14.1072 12.2963 13.4006 11.3009C13.3249 11.186 13.2366 11.0712 13.1609 10.9563C13.1482 10.918 13.123 10.8797 13.123 10.8414C12.959 10.4586 12.8833 10.0502 12.8959 9.6291C12.9211 8.34019 13.9305 7.20441 15.1923 7.02575C16.3405 6.87261 17.4004 7.4086 17.9682 8.42952C17.9808 8.44228 17.9934 8.4678 18.006 8.48056C18.0439 8.54437 18.0691 8.60818 18.107 8.67199C18.1448 8.74856 18.1574 8.82513 18.1953 8.90169C18.2079 8.95274 18.2205 9.00379 18.2332 9.04207C18.2458 9.08036 18.2458 9.10588 18.2584 9.14416C18.271 9.18245 18.271 9.20797 18.2836 9.24626C18.2836 9.25902 18.2836 9.27178 18.2962 9.27178C18.2962 9.32283 18.2962 9.36111 18.3215 9.41216V9.90986C18.3215 9.93538 18.3215 9.9609 18.3089 9.97366C18.2836 10.0247 18.2962 10.0758 18.2836 10.1268C18.2836 10.1396 18.2836 10.1523 18.271 10.1523C18.2584 10.1906 18.2584 10.2417 18.2458 10.2927C18.2079 10.4331 18.1827 10.5735 18.1196 10.7138C18.0944 10.7649 18.0817 10.8287 18.0439 10.8797C18.0187 10.918 17.9934 10.9563 17.9808 10.9946C17.9429 11.0712 17.9051 11.135 17.8546 11.1988C17.8294 11.2243 17.8168 11.2371 17.7915 11.2753C17.7789 11.3009 17.7663 11.3136 17.7537 11.3391C17.7284 11.3902 17.7032 11.403 17.678 11.4157Z" fill="#F18233"/>
<path d="M19.4457 10.7394C20.0388 11.6455 20.6444 12.5643 21.2248 13.4704C22.2721 15.0911 21.2879 17.3243 19.3953 17.6179C18.2344 17.7965 17.3386 17.3499 16.6825 16.38C16.5689 16.2013 16.4554 16.0227 16.3418 15.8568C16.3418 15.8057 16.367 15.7547 16.3923 15.7164C16.632 15.3463 16.8591 14.9762 17.0989 14.6061C17.3386 14.2488 17.5531 13.8787 17.7928 13.5086C17.9947 13.2024 18.184 12.8961 18.3732 12.5898C18.4868 12.3984 18.613 12.1942 18.7392 12.0028C18.9284 11.6965 19.0798 11.3775 19.1808 11.0329C19.2186 10.9181 19.2565 10.8032 19.2691 10.6883C19.2817 10.6373 19.2817 10.5735 19.3574 10.599C19.3574 10.6118 19.37 10.6118 19.37 10.6245C19.3827 10.6883 19.4205 10.7139 19.4457 10.7394Z" fill="#93C64A"/>
<path d="M19.3684 10.6117C19.3179 10.6117 19.3053 10.65 19.3053 10.6882C19.2548 10.969 19.1539 11.237 19.0403 11.505C18.9142 11.7985 18.7375 12.0665 18.5735 12.3472C18.3716 12.679 18.1697 13.0108 17.9678 13.3299C17.829 13.5468 17.6776 13.7383 17.5515 13.9552C17.4631 14.0956 17.3748 14.236 17.2991 14.3636C17.0972 14.6954 16.8827 15.0144 16.6808 15.3334C16.5799 15.4993 16.4663 15.6652 16.378 15.8439C16.3654 15.8184 16.3402 15.7929 16.3275 15.7673C16.2897 15.7035 16.3023 15.6652 16.3402 15.6014C16.4916 15.3845 16.6051 15.1548 16.7439 14.9506C16.7439 14.9378 16.7565 14.9378 16.7565 14.9251C16.8575 14.8102 16.9206 14.6571 17.0089 14.5295C17.1225 14.3636 17.236 14.1977 17.337 14.0318C17.4127 13.9169 17.4757 13.7893 17.5515 13.6744C17.5515 13.6617 17.5641 13.6617 17.5641 13.6489C17.6272 13.5851 17.6776 13.5085 17.7155 13.4192C17.8038 13.2533 17.93 13.1002 18.0183 12.9343C18.0309 12.896 18.0562 12.8705 18.0688 12.8322C18.1697 12.628 18.2833 12.4493 18.4095 12.2579C18.7628 11.6964 19.0656 11.1349 19.1665 10.4585C19.1791 10.4075 19.1791 10.3564 19.2548 10.382C19.2801 10.4713 19.3305 10.5479 19.3684 10.6117Z" fill="#91C248"/>
<path d="M18.7768 9.71844C18.8273 9.75673 18.8525 9.82054 18.8777 9.87158C18.8525 10.0502 18.8777 10.2161 18.8525 10.3948C18.7894 10.7649 18.6885 11.1095 18.5118 11.4413C18.1711 12.0921 17.7421 12.7046 17.3636 13.33C16.9472 14.0063 16.5182 14.6572 16.1018 15.3335C16.0892 15.359 16.0892 15.3846 16.0514 15.3846C16.0261 15.3463 16.0135 15.3208 15.9883 15.2825C15.9883 15.2314 16.0009 15.1931 16.0261 15.1549C16.228 14.8613 16.4173 14.5423 16.6065 14.236C17.0103 13.5724 17.4393 12.9216 17.8431 12.2708C18.0323 11.9645 18.2342 11.671 18.3856 11.3392C18.4992 11.0839 18.6001 10.8287 18.6632 10.5479C18.6885 10.4331 18.6885 10.3055 18.7263 10.1906C18.7515 10.1013 18.7137 9.9992 18.7137 9.90987C18.7137 9.8333 18.7011 9.75673 18.7768 9.71844Z" fill="#82AF41"/>
<path d="M15.9107 15.1674C15.8855 15.1419 15.8729 15.1164 15.8477 15.0781C15.8855 14.9377 15.9865 14.8229 16.0622 14.6953C16.4155 14.1337 16.7687 13.585 17.122 13.0363C17.3996 12.6024 17.6772 12.1685 17.9422 11.7346C18.1315 11.4411 18.2829 11.122 18.3838 10.7775C18.4595 10.535 18.5226 10.2798 18.4974 10.0118C18.4847 9.88416 18.5226 9.75654 18.4974 9.62892C18.4847 9.57788 18.4847 9.52683 18.4721 9.47579C18.4595 9.41198 18.4343 9.33541 18.51 9.28436C18.5731 9.36093 18.6235 9.45026 18.674 9.53959C18.6235 9.59064 18.6614 9.64169 18.674 9.69273V9.71826C18.674 9.87139 18.6614 10.0245 18.674 10.1649V10.1904L18.6362 10.3053C18.6235 10.5733 18.5352 10.8157 18.4343 11.071C18.2829 11.4411 18.081 11.7729 17.8665 12.1047C17.5889 12.5513 17.2987 12.998 17.0211 13.4446L16.4912 14.2869C16.3145 14.5676 16.1252 14.8612 15.936 15.1419C15.936 15.1802 15.9234 15.1802 15.9107 15.1674Z" fill="#78A33C"/>
<path d="M16.0371 15.3845C16.1128 15.2058 16.2264 15.0527 16.3399 14.8868C16.7563 14.236 17.1601 13.5851 17.5765 12.9215C17.8541 12.4876 18.1316 12.0537 18.3966 11.6071C18.5733 11.2881 18.7121 10.9563 18.7878 10.5989C18.8382 10.3947 18.8508 10.1778 18.8508 9.97361C18.8508 9.93533 18.8508 9.89704 18.8887 9.87152C18.9392 9.90981 18.9518 9.98637 18.9896 10.0374C18.9518 10.4203 18.8887 10.8031 18.7499 11.1604C18.6868 11.3136 18.6111 11.4667 18.5354 11.6199C18.3588 11.9644 18.1443 12.2835 17.9424 12.6025C17.7153 12.9598 17.4881 13.3299 17.261 13.6872L16.3147 15.1803C16.2516 15.2824 16.1885 15.3845 16.1381 15.4994C16.0876 15.4611 16.0623 15.4228 16.0371 15.3845Z" fill="#87B543"/>
<path d="M18.1465 8.91448L18.0708 8.68477C18.0581 8.65925 18.0581 8.64649 18.096 8.63373C18.1969 8.7741 18.2853 8.91448 18.361 9.05486C18.3862 9.15695 18.4114 9.24628 18.424 9.34837C18.4745 9.61637 18.4871 9.8716 18.4745 10.1524C18.4619 10.5607 18.3231 10.9308 18.1465 11.2881C18.0077 11.5306 17.8689 11.7603 17.7301 11.99C17.7301 12.0028 17.7175 12.0028 17.7175 12.0155C17.6922 12.0538 17.6544 12.0921 17.6417 12.1304C17.6417 12.1432 17.6291 12.1432 17.6291 12.1559C17.5408 12.2835 17.4651 12.4111 17.3894 12.5388C17.2127 12.7812 17.0613 13.0365 16.9099 13.2789C16.7837 13.4704 16.6576 13.6618 16.544 13.866C16.5314 13.8787 16.5314 13.9042 16.5188 13.917C16.3547 14.1212 16.2286 14.3509 16.0898 14.5678C16.0898 14.5806 16.0772 14.5806 16.0772 14.5934C16.0015 14.7082 15.9257 14.8103 15.8627 14.9252C15.85 14.9507 15.85 14.989 15.8122 14.989C15.787 14.9635 15.7743 14.9379 15.7617 14.9124C15.8248 14.7593 15.9257 14.6317 16.0141 14.4913C16.3043 14.0446 16.5819 13.598 16.8721 13.1386C17.1244 12.7302 17.3894 12.3346 17.6291 11.9134C17.6544 11.8624 17.7175 11.8241 17.7301 11.7603C17.8815 11.5051 18.0329 11.2371 18.1591 10.9563C18.2853 10.6628 18.361 10.3565 18.361 10.0247C18.361 9.75674 18.3483 9.48875 18.2853 9.22076C18.2726 9.15695 18.2348 9.09314 18.2222 9.02934C18.2222 9.01657 18.2095 9.01657 18.1969 9.00381C18.1843 9.00381 18.1717 8.95277 18.1465 8.91448Z" fill="#6F9837"/>
<path d="M19.0923 10.216C19.1175 10.2543 19.1427 10.2798 19.168 10.3181C19.1301 10.3691 19.1301 10.4329 19.1175 10.4968C19.0544 10.9179 18.903 11.3007 18.7137 11.6708C18.474 12.1047 18.209 12.5131 17.9441 12.9342C17.6412 13.4064 17.3384 13.8786 17.0482 14.3507C16.7958 14.7463 16.5309 15.142 16.2911 15.5376C16.2659 15.5758 16.2785 15.6269 16.2154 15.6397C16.1902 15.6141 16.165 15.5886 16.1523 15.5503C16.165 15.461 16.228 15.3844 16.2785 15.2951C16.5687 14.8229 16.8716 14.3763 17.1618 13.9041C17.4015 13.5085 17.6538 13.1256 17.9062 12.73C18.0071 12.5896 18.0828 12.4365 18.1838 12.2834C18.3226 12.0664 18.4614 11.8495 18.5749 11.6198C18.7894 11.2114 18.9535 10.7903 19.0039 10.3181C19.0292 10.2926 19.0039 10.2288 19.0923 10.216Z" fill="#8EBE47"/>
<path d="M17.8166 11.2243C17.8544 11.1605 17.8923 11.0839 17.9427 11.0201C17.9806 10.9946 17.9932 10.9436 18.0058 10.9053C18.0184 10.8542 18.0437 10.7904 18.0689 10.7521C18.1446 10.7904 18.0942 10.8542 18.0815 10.9053C18.0184 11.0839 17.9427 11.2498 17.8418 11.4157C17.5137 11.9645 17.1731 12.5005 16.8324 13.0492C16.4665 13.6235 16.1006 14.1978 15.7473 14.772C15.7347 14.7975 15.7347 14.8486 15.6842 14.8358C15.6589 14.8103 15.6463 14.772 15.6211 14.7465C15.8734 14.3381 16.1258 13.9425 16.3782 13.5342C16.8072 12.845 17.2488 12.1559 17.6778 11.4668C17.6904 11.454 17.6904 11.4413 17.6904 11.4285C17.6904 11.403 17.7156 11.3902 17.7282 11.3647C17.7409 11.3519 17.7661 11.3264 17.7661 11.3009C17.7913 11.2626 17.8166 11.2498 17.8166 11.2243Z" fill="#628931"/>
<path d="M19.093 10.2161C19.0551 10.2416 19.0425 10.2926 19.0425 10.3309C19.0047 10.7393 18.8785 11.1221 18.6892 11.4795C18.5883 11.6964 18.4621 11.9006 18.3486 12.092C18.2729 12.2196 18.1971 12.3473 18.1088 12.4749C17.9953 12.6535 17.8943 12.8194 17.7808 12.9981C17.5915 13.2916 17.4022 13.5724 17.2256 13.8659C17.0111 14.2104 16.7966 14.555 16.5695 14.8996C16.4307 15.1165 16.2919 15.3462 16.1531 15.5632C16.1405 15.5376 16.1279 15.5249 16.1152 15.4994C16.1279 15.4611 16.1279 15.4228 16.1531 15.3845C16.4433 14.9378 16.7209 14.504 16.9985 14.0573C17.3265 13.5468 17.6546 13.0236 17.9826 12.5132C18.1719 12.2196 18.3612 11.9261 18.5252 11.6071C18.6766 11.3008 18.828 10.9945 18.8911 10.65C18.9164 10.4841 18.9542 10.3309 18.9794 10.165C18.9921 10.0757 19.0299 10.114 19.0678 10.1395C19.093 10.165 19.093 10.1906 19.093 10.2161Z" fill="#8BB945"/>
<path d="M16.2285 15.6526C16.2664 15.5378 16.3295 15.4484 16.3925 15.3463C16.8468 14.6317 17.301 13.9298 17.7553 13.2152C18.0455 12.7558 18.3483 12.2836 18.6133 11.8114C18.8656 11.3775 19.0549 10.9181 19.1053 10.4076C19.1053 10.3566 19.1306 10.3311 19.1684 10.3183C19.1937 10.3438 19.2189 10.3693 19.2315 10.4076C19.2063 10.4204 19.1684 10.4076 19.1684 10.4587C19.1306 10.816 19.017 11.135 18.8656 11.4541C18.6637 11.9135 18.3735 12.3219 18.1212 12.743C18.0959 12.7813 18.0833 12.8068 18.0707 12.8451C17.894 13.1131 17.7174 13.3938 17.5534 13.6618C17.3893 13.8788 17.2758 14.1212 17.1244 14.3382C16.9856 14.5296 16.872 14.7466 16.7458 14.938C16.5818 15.1549 16.4683 15.3974 16.3168 15.6143C16.3042 15.6399 16.2916 15.6781 16.2538 15.6654C16.2411 15.6781 16.2285 15.6654 16.2285 15.6526Z" fill="#8FBF47"/>
<path d="M16.5173 13.9298C16.5173 13.917 16.5173 13.8915 16.5425 13.8915C16.8075 13.4576 17.0851 13.0492 17.3501 12.6153C17.3627 12.6026 17.3753 12.5771 17.3879 12.5643C17.4762 12.4239 17.5646 12.2835 17.6403 12.1432C17.6655 12.1049 17.6907 12.0538 17.7286 12.0155C17.8674 11.7858 18.0188 11.5434 18.145 11.3009C18.1954 11.1222 18.2964 10.9563 18.3469 10.7777C18.3847 10.6118 18.4478 10.4586 18.4604 10.2927C18.473 10.0886 18.473 9.88437 18.4604 9.66742C18.4478 9.50152 18.4099 9.33562 18.3721 9.16972C18.3595 9.13144 18.3595 9.09316 18.3721 9.05487C18.4352 9.11868 18.473 9.19525 18.5235 9.27182C18.4983 9.34839 18.4983 9.41219 18.5235 9.48876C18.5487 9.57809 18.5614 9.69295 18.5614 9.78228C18.5487 9.89713 18.5487 9.99922 18.5614 10.1141C18.574 10.1906 18.5614 10.28 18.5361 10.3565C18.4856 10.5224 18.473 10.7011 18.3973 10.867C18.309 11.084 18.2081 11.2881 18.1071 11.5051C17.9305 11.8496 17.7034 12.1559 17.5015 12.4877L16.6308 13.866C16.4542 14.1467 16.2649 14.4147 16.0883 14.6955C16.0126 14.8231 15.9495 14.9507 15.8612 15.0656C15.8486 15.0528 15.8486 15.04 15.8359 15.0273C15.8864 14.8614 16 14.7338 16.0883 14.5806C16.2271 14.3892 16.3659 14.1467 16.5173 13.9298Z" fill="#739D39"/>
<path d="M18.6512 9.7185V9.69298C18.6638 9.6547 18.626 9.59089 18.7143 9.60365C18.7395 9.64193 18.7521 9.68022 18.7774 9.70574C18.7521 9.76955 18.7269 9.83336 18.7395 9.90993C18.7648 10.0758 18.7395 10.2417 18.7143 10.3949C18.6764 10.5863 18.6386 10.7649 18.5755 10.9436C18.4872 11.1861 18.3736 11.4158 18.2474 11.6455C18.1591 11.8114 18.0582 11.9645 17.9698 12.1177L17.4778 12.8834C17.3137 13.1258 17.1749 13.3683 17.0109 13.6108C16.809 13.917 16.6198 14.2233 16.4305 14.5296C16.2791 14.7721 16.115 15.0018 15.9889 15.2442C15.9636 15.2187 15.9384 15.1804 15.9258 15.1422H15.951C16.0772 14.989 16.1655 14.8231 16.2665 14.6572C16.4305 14.4147 16.5819 14.1595 16.7333 13.9043C16.91 13.6363 17.074 13.3555 17.2506 13.0875C17.4147 12.8451 17.5661 12.6026 17.7175 12.3474C17.9572 11.9773 18.197 11.6072 18.3862 11.1988C18.5376 10.8798 18.6386 10.548 18.6638 10.1907V10.1652C18.6638 10.0375 18.6638 9.87164 18.6512 9.7185Z" fill="#7DA93F"/>
<path d="M15.6855 14.8231L16.6319 13.33C16.9725 12.794 17.3132 12.258 17.6539 11.7093C17.8179 11.4541 17.9567 11.1861 18.0703 10.9053C18.0829 10.8543 18.1334 10.8032 18.0829 10.7522C18.1334 10.6118 18.1838 10.4587 18.2091 10.3055C18.2595 10.28 18.2217 10.2162 18.2469 10.1779C18.2722 10.1396 18.2469 10.0886 18.2595 10.0503C18.2848 10.012 18.2722 9.97373 18.2722 9.93544V9.52707C18.3353 9.50155 18.3226 9.5526 18.3226 9.59088C18.3226 9.73126 18.3479 9.8844 18.3479 10.0248C18.3479 10.3566 18.2722 10.6628 18.1586 10.9691C18.146 11.0074 18.1334 11.0329 18.1081 11.0585C18.0829 11.084 18.0577 11.1095 18.045 11.1478C18.045 11.1605 18.0324 11.1605 18.0324 11.1733C17.9693 11.2754 17.8936 11.3775 17.8558 11.4923C17.8558 11.5051 17.8432 11.5051 17.8432 11.5179C17.8179 11.5434 17.8053 11.5817 17.7927 11.62C17.7675 11.6582 17.7548 11.6965 17.7296 11.7221C17.7044 11.7603 17.6665 11.7986 17.6539 11.8497C17.6287 11.888 17.616 11.9262 17.5908 11.9645C17.5277 12.0411 17.4773 12.1304 17.4268 12.2198C17.288 12.4495 17.1366 12.6792 16.9852 12.9216C16.8211 13.1896 16.6571 13.4321 16.4931 13.7001C16.3417 13.9426 16.1903 14.1723 16.0388 14.4147C16.0262 14.4275 16.0136 14.453 16.0136 14.4658C15.9127 14.5934 15.8243 14.7338 15.7486 14.8869C15.7486 14.8997 15.736 14.8997 15.7234 14.8997C15.6982 14.8614 15.6855 14.8486 15.6855 14.8231Z" fill="#678E34"/>
<path d="M19.0684 10.1522C19.0305 10.1777 19.0305 10.1267 19.0179 10.1267C18.9926 10.2926 18.9548 10.4585 18.9169 10.6244C18.8791 10.7903 18.8539 10.9562 18.7781 11.1221C18.6772 11.339 18.5889 11.556 18.4627 11.7729C18.2608 12.143 18.0211 12.5003 17.794 12.8577C17.6173 13.1512 17.4281 13.4447 17.2388 13.7254C17.0621 13.9934 16.8981 14.2742 16.7215 14.5422C16.5322 14.8357 16.3429 15.142 16.1537 15.4355C16.1411 15.461 16.1284 15.4738 16.1158 15.4993C16.1158 15.4993 16.1032 15.4993 16.1032 15.4865C16.0906 15.3972 16.1537 15.3334 16.1915 15.2568C16.3934 14.925 16.6079 14.606 16.8224 14.2742C17.0874 13.8531 17.3524 13.4192 17.6173 13.0108C17.8066 12.7173 17.9959 12.411 18.1977 12.1047C18.3365 11.8878 18.4627 11.6581 18.5763 11.4284C18.7024 11.1731 18.7908 10.9051 18.8539 10.6244C18.8917 10.4713 18.9296 10.3054 18.9296 10.1395C18.9296 10.1012 18.9296 10.0501 18.9674 10.0246C19.0305 10.0629 19.0557 10.1139 19.0684 10.1522Z" fill="#8AB945"/>
<path d="M16.0004 14.4402C16.0004 14.4275 16.0004 14.4019 16.0256 14.4019C16.1518 14.2233 16.2654 14.0319 16.3789 13.8532C16.6691 13.3938 16.9593 12.9344 17.2495 12.4877C17.3253 12.3729 17.3883 12.2452 17.4893 12.1304C17.5524 12.0666 17.5902 11.99 17.6281 11.9134C17.6533 11.8752 17.6785 11.8113 17.7543 11.8241C17.7669 11.9134 17.6785 11.939 17.6533 11.99C17.5145 12.2452 17.3505 12.4877 17.1865 12.7429C17.0477 12.9599 16.9089 13.1896 16.7701 13.4065C16.543 13.7511 16.3411 14.1084 16.114 14.4402C16.0004 14.6061 15.9247 14.7975 15.7859 14.9507C15.7607 14.9379 15.748 14.9124 15.748 14.8869C15.8111 14.721 15.9121 14.5934 16.0004 14.4402Z" fill="#6B9436"/>
<path d="M16.2539 15.6907C16.3675 15.5631 16.4306 15.41 16.5315 15.2696C16.6072 15.1675 16.6577 15.0526 16.7586 14.9633C16.746 15.0526 16.6703 15.1037 16.6324 15.1803C16.5315 15.3462 16.4432 15.5121 16.3422 15.6652C16.317 15.7162 16.3296 15.7545 16.317 15.7928C16.2791 15.7545 16.2665 15.729 16.2539 15.6907Z" fill="#91C248"/>
<path d="M16.0755 14.6061C16.0503 14.721 15.962 14.7976 15.9115 14.8997C15.8863 14.9507 15.8484 15.0017 15.8232 15.04C15.8232 15.0273 15.8105 15.0273 15.8105 15.0145C15.8863 14.8741 15.962 14.721 16.0755 14.6061Z" fill="#729C39"/>
<path d="M18.7141 9.61625C18.6637 9.61625 18.6889 9.68006 18.651 9.70558C18.6258 9.68006 18.6258 9.65453 18.6132 9.62901C18.588 9.57796 18.6132 9.55244 18.6763 9.5652C18.7015 9.5652 18.7141 9.59073 18.7141 9.61625Z" fill="#7DA93F"/>
<path d="M18.096 8.64649C18.0834 8.65925 18.0834 8.67201 18.0707 8.69753C18.0329 8.63372 17.995 8.56992 17.9824 8.49335C18.0329 8.53163 18.0707 8.58268 18.096 8.64649Z" fill="#7E8B64"/>
<path d="M19.4461 10.7392C19.3957 10.7137 19.3578 10.701 19.383 10.6371C19.4083 10.6754 19.4335 10.7137 19.4461 10.7392Z" fill="#91C248"/>
<path d="M3.63535 13.1895C3.63535 13.2278 3.61012 13.2406 3.57227 13.2533C3.58488 13.215 3.5975 13.1895 3.63535 13.164V13.1895Z" fill="#547DB4"/>
<path d="M17.7408 11.352C17.7408 11.3776 17.7282 11.4031 17.703 11.4158H17.6777C17.6904 11.3903 17.703 11.3776 17.7156 11.352C17.7282 11.3393 17.7408 11.3393 17.7408 11.352Z" fill="#485D8C"/>
<path d="M17.7432 11.8113C17.6548 11.8623 17.617 11.9516 17.5665 12.0282C17.5413 12.0665 17.5287 12.1048 17.4908 12.1175C17.4656 12.0282 17.5539 11.9899 17.5791 11.9261C17.6044 11.8878 17.6044 11.8495 17.6422 11.824C17.6801 11.7857 17.7053 11.7474 17.7306 11.6964C17.7306 11.6454 17.7684 11.6198 17.7936 11.5943C17.8189 11.5688 17.8315 11.5177 17.8567 11.4922C17.9072 11.3646 17.9829 11.2625 18.046 11.1349C18.0712 11.1094 18.0712 11.0711 18.0838 11.0456C18.1848 10.8924 18.2226 10.7265 18.2605 10.5606C18.3236 10.3437 18.3362 10.1012 18.3236 9.8715C18.311 9.74388 18.3236 9.61627 18.2857 9.48865C18.2605 9.47589 18.2857 9.43761 18.2605 9.42484V9.41208C18.2353 9.36104 18.2731 9.30999 18.2353 9.25894C18.21 9.23342 18.2353 9.19514 18.2226 9.15685C18.1974 9.11857 18.1974 9.06752 18.21 9.02924C18.3236 9.24618 18.3614 9.47589 18.3741 9.7056C18.3867 9.90978 18.3867 10.1267 18.3614 10.3309C18.3362 10.5351 18.2731 10.7393 18.1974 10.9179C18.0838 11.2497 17.9324 11.5433 17.7432 11.8113Z" fill="#6A9335"/>
<path d="M18.2578 9.43768C18.283 9.45044 18.283 9.47597 18.283 9.50149V9.93538C18.283 9.94814 18.2704 9.94814 18.2578 9.93538V9.43768Z" fill="#77716B"/>
<path d="M18.2597 10.0502C18.2471 10.0885 18.2723 10.1395 18.2344 10.1778C18.2344 10.114 18.2218 10.0629 18.2597 10.0119C18.2723 10.0247 18.2723 10.0374 18.2597 10.0502Z" fill="#65785D"/>
<path d="M18.1465 8.91449C18.1843 8.94001 18.197 8.99106 18.197 9.04211C18.2096 9.05487 18.2096 9.05487 18.197 9.06763C18.1717 9.02934 18.1591 8.96554 18.1465 8.91449Z" fill="#6B736C"/>
<path d="M18.2332 10.1777C18.2205 10.216 18.271 10.2798 18.1953 10.3053C18.2205 10.267 18.2079 10.216 18.2332 10.1777Z" fill="#65785D"/>
<path d="M18.0084 10.9052C18.0084 10.9563 17.9958 10.9945 17.9453 11.0201C17.9579 10.9818 17.9705 10.9307 18.0084 10.9052Z" fill="#65765F"/>
<path d="M18.2344 9.27191C18.2722 9.32296 18.247 9.374 18.2596 9.42505C18.2344 9.38677 18.2344 9.32296 18.2344 9.27191Z" fill="#657569"/>
<path d="M18.1953 9.06745V9.04193H18.2205C18.2205 9.08022 18.2205 9.13126 18.2458 9.16955C18.2332 9.18231 18.2332 9.18231 18.2205 9.16955C18.1953 9.14402 18.1953 9.10574 18.1953 9.06745Z" fill="#657E5D"/>
<path d="M18.2578 10.0503V9.99929V9.93549H18.283C18.2704 9.98653 18.2957 10.0248 18.2578 10.0503Z" fill="#58814F"/>
<path d="M17.8189 11.2243C17.8189 11.2498 17.8063 11.2754 17.7811 11.2881C17.7685 11.3009 17.7685 11.3009 17.7559 11.2881L17.8189 11.2243Z" fill="#876E68"/>
<path d="M17.7683 11.288H17.7936C17.7936 11.3135 17.7809 11.3391 17.7557 11.3518H17.7305C17.7431 11.3391 17.7557 11.3135 17.7683 11.288Z" fill="#65647C"/>
<path d="M18.2227 9.16962H18.248V9.27171C18.2101 9.24619 18.2227 9.2079 18.2227 9.16962Z" fill="#5D7B62"/>
<path d="M16.7441 14.9634C16.8198 14.7593 16.946 14.5934 17.0596 14.4147C17.1479 14.2616 17.2615 14.1212 17.3372 13.968C17.3876 13.8659 17.4507 13.7639 17.5517 13.6745C17.5012 13.8021 17.4255 13.917 17.3498 14.0318C17.211 14.2488 17.0722 14.453 16.9334 14.6699C16.8703 14.772 16.8451 14.8869 16.7441 14.9634ZM17.5517 13.6873C17.64 13.4831 17.7662 13.3044 17.8797 13.1258C17.9302 13.0364 17.9807 12.9344 18.069 12.8705C18.0438 12.9726 17.9807 13.0492 17.9302 13.1385C17.8166 13.3044 17.7283 13.4703 17.6148 13.6362C17.6021 13.649 17.5769 13.6618 17.5517 13.6873Z" fill="#91C248"/>
<path d="M18.6512 10.2161C18.7017 10.3055 18.6512 10.3948 18.6386 10.4714C18.5503 10.9436 18.3484 11.3774 18.096 11.7858C17.6796 12.4622 17.2506 13.1385 16.8216 13.8149C16.5567 14.236 16.2917 14.6444 16.0267 15.0655C16.0015 15.1038 15.9889 15.1549 15.9258 15.1676C15.9636 15.0528 16.0267 14.9634 16.0898 14.8741L16.6576 13.9936C16.8469 13.7 17.0235 13.3938 17.2128 13.1003C17.3642 12.8578 17.5408 12.6153 17.6923 12.3601C17.9068 12.0155 18.1339 11.671 18.3105 11.3136C18.4367 11.0584 18.525 10.7777 18.6007 10.4969C18.6133 10.4459 18.6133 10.3948 18.6133 10.3565C18.6133 10.2927 18.6133 10.2544 18.6512 10.2161ZM18.6512 9.71844C18.689 9.88434 18.689 10.0375 18.6512 10.2034C18.626 10.0375 18.6512 9.87158 18.6512 9.71844Z" fill="#7DA93F"/>
<path d="M17.3845 12.564C17.1195 12.9852 16.8546 13.4063 16.577 13.8274C16.5644 13.853 16.5517 13.8657 16.5265 13.8785C16.577 13.7509 16.6527 13.636 16.7284 13.5212C16.9176 13.2149 17.1195 12.9214 17.3088 12.6151C17.3214 12.5896 17.3466 12.5513 17.3719 12.5385C17.3845 12.5513 17.3971 12.564 17.3845 12.564ZM18.1289 11.3134C18.1163 11.39 18.0659 11.4538 18.028 11.5304L17.763 11.9898C17.7504 12.0153 17.7252 12.0281 17.7126 12.0408C17.7126 11.9643 17.763 11.926 17.8009 11.8749C17.8892 11.709 18.0028 11.5559 18.0785 11.3772C18.0911 11.3389 18.1163 11.3262 18.1289 11.3134ZM16.5139 13.9295C16.3877 14.1592 16.2489 14.4017 16.0723 14.6059C16.0849 14.5166 16.148 14.4528 16.1984 14.3889C16.312 14.2486 16.3625 14.0571 16.5139 13.9295Z" fill="#729C39"/>
<path d="M17.3867 12.5641V12.5386C17.4498 12.3982 17.5255 12.2578 17.6391 12.1429C17.5886 12.3088 17.4877 12.4365 17.3867 12.5641Z" fill="#729C39"/>
<path d="M17.7133 12.028C17.7007 12.0791 17.6755 12.1301 17.625 12.1556C17.6376 12.0918 17.6629 12.0535 17.7133 12.028Z" fill="#729C39"/>
<path d="M17.5766 11.9388C17.5766 12.0154 17.5008 12.0537 17.4882 12.1303C17.3873 12.2834 17.299 12.4365 17.198 12.5897C17.0592 12.7939 16.9331 13.0108 16.7943 13.215C16.5671 13.5851 16.3274 13.9424 16.1003 14.3125C16.0751 14.3508 16.0624 14.389 16.012 14.4018C16.0877 14.2104 16.2138 14.07 16.3148 13.8913C16.5545 13.4957 16.8195 13.1001 17.0718 12.7045C17.2233 12.4748 17.3621 12.2451 17.5008 12.0026C17.5261 11.9771 17.5387 11.9516 17.5766 11.9388ZM15.9993 14.4401C15.9993 14.5039 15.9489 14.555 15.9236 14.606L15.7344 14.874C15.7848 14.7081 15.8858 14.5677 15.9993 14.4401ZM18.0308 11.1476C17.9929 11.2752 17.9298 11.4029 17.8415 11.5049C17.8668 11.3646 17.9551 11.2497 18.0308 11.1476ZM17.7153 11.7091C17.7153 11.7729 17.6901 11.8112 17.627 11.8367C17.6523 11.7857 17.6775 11.7346 17.7153 11.7091ZM17.8415 11.5049C17.8289 11.5432 17.8163 11.5815 17.7784 11.607C17.7911 11.5688 17.7911 11.5177 17.8415 11.5049ZM18.0686 11.0583C18.0686 11.0966 18.0686 11.1221 18.0308 11.1476C18.0308 11.1093 18.0308 11.0711 18.0686 11.0583Z" fill="#678F33"/>
</svg>
