<svg width="24" height="24" viewBox="0 0 24 24" fill="none" xmlns="http://www.w3.org/2000/svg">
<path d="M4.57618 23C3.35206 23 2.20196 22.5204 1.33888 21.6509C-0.446292 19.8524 -0.446292 16.9264 1.33888 15.128L13.574 2.80252C14.7271 1.64081 16.2613 1 17.8924 1C19.5236 1 21.0577 1.6398 22.2108 2.80151C23.3649 3.96322 24 5.50882 24 7.15214C24 8.79547 23.3649 10.3401 22.2118 11.5028L13.546 20.2353C13.452 20.33 13.326 20.3824 13.192 20.3824C13.058 20.3824 12.933 20.33 12.838 20.2353C12.6429 20.0388 12.6429 19.7194 12.838 19.5229L21.5038 10.7904C22.4679 9.81814 22.9989 8.52645 22.9989 7.15214C22.9989 5.77783 22.4679 4.48615 21.5028 3.51385C20.5387 2.54257 19.2556 2.00756 17.8914 2.00756C16.5273 2.00756 15.2452 2.54257 14.2801 3.51486L2.04594 15.8403C1.36988 16.5214 0.997844 17.4262 0.997844 18.3894C0.997844 19.3526 1.36988 20.2574 2.04594 20.9385C2.72101 21.6186 3.62009 21.9935 4.57718 21.9935C5.53427 21.9935 6.43235 21.6186 7.10742 20.9395C7.10742 20.9395 18.8505 9.07254 18.8645 9.05743C19.1495 8.75819 19.3026 8.36524 19.2936 7.95113C19.2856 7.53703 19.1175 7.15113 18.8215 6.86398C18.5345 6.58589 18.1555 6.43275 17.7554 6.43275C17.3314 6.43275 16.9373 6.60201 16.6443 6.90831L7.9705 15.6469C7.87649 15.7416 7.75048 15.794 7.61646 15.794C7.48245 15.794 7.35744 15.7416 7.26243 15.6469C7.06741 15.4504 7.06741 15.131 7.26243 14.9345L15.9292 6.20302C16.4063 5.70227 17.0553 5.42519 17.7524 5.42519C18.4125 5.42519 19.0375 5.67809 19.5116 6.13753C20.0006 6.61108 20.2777 7.24786 20.2917 7.93098C20.3047 8.61411 20.0536 9.26196 19.5836 9.75466C19.5616 9.77884 19.5366 9.80302 19.5106 9.82821L7.81348 21.6509C6.9504 22.5204 5.80029 23 4.57618 23Z" fill="black"/>
</svg>
