<svg width="19" height="21" viewBox="0 0 19 21" fill="none" xmlns="http://www.w3.org/2000/svg">
<path d="M16.375 4.5625L15.016 18.1863C14.9773 18.5753 14.8035 18.9354 14.5282 19.1972C14.2529 19.459 13.8956 19.604 13.525 19.6042H5.725C5.35432 19.6042 4.99677 19.4593 4.72131 19.1975C4.44585 18.9356 4.27199 18.5754 4.23325 18.1863L2.875 4.5625" stroke="#333333" stroke-linecap="round" stroke-linejoin="round"/>
<path d="M1 4.5625H18.25" stroke="#333333" stroke-linecap="round" stroke-linejoin="round"/>
<path d="M6.25 4.56315V2.18815C6.25 1.97819 6.32902 1.77682 6.46967 1.62836C6.61032 1.47989 6.80109 1.39648 7 1.39648H12.25C12.4489 1.39648 12.6397 1.47989 12.7803 1.62836C12.921 1.77682 13 1.97819 13 2.18815V4.56315" stroke="#333333" stroke-linecap="round" stroke-linejoin="round"/>
<path d="M9.625 8.125V16.4375" stroke="#333333" stroke-linecap="round" stroke-linejoin="round"/>
<path d="M13 8.125L12.625 16.4375" stroke="#333333" stroke-linecap="round" stroke-linejoin="round"/>
<path d="M6.25 8.125L6.625 16.4375" stroke="#333333" stroke-linecap="round" stroke-linejoin="round"/>
</svg>
