<svg width="404" height="311" viewBox="0 0 404 311" fill="none" xmlns="http://www.w3.org/2000/svg">
<g filter="url(#filter0_d_6552_57991)">
<path d="M5 15C5 9.47716 9.47715 5 15 5H388C393.523 5 398 9.47715 398 15V295C398 300.523 393.523 305 388 305H15C9.47715 305 5 300.523 5 295V15Z" fill="#191919"/>
</g>
<mask id="mask0_6552_57991" style="mask-type:alpha" maskUnits="userSpaceOnUse" x="5" y="5" width="393" height="300">
<path d="M5 15C5 9.47716 9.47715 5 15 5H388C393.523 5 398 9.47715 398 15V295C398 300.523 393.523 305 388 305H15C9.47715 305 5 300.523 5 295V15Z" fill="#C4C4C4"/>
</mask>
<g mask="url(#mask0_6552_57991)">
<g filter="url(#filter1_d_6552_57991)">
<path d="M399 5H15C9.47714 5 5 9.47715 5 15V295C5 300.523 9.47714 305 15 305H399V5Z" fill="#191919"/>
</g>
<path d="M40 47.7285C40 45.716 41.6315 44.0845 43.644 44.0845H256.82C258.832 44.0845 260.464 45.716 260.464 47.7285C260.464 49.7411 258.832 51.3726 256.82 51.3726H43.644C41.6315 51.3726 40 49.7411 40 47.7285Z" fill="#C4C4C4"/>
<path d="M40 25.8644C40 22.3424 42.8551 19.4873 46.3771 19.4873H102.86C106.381 19.4873 109.237 22.3424 109.237 25.8644C109.237 29.3863 106.381 32.2414 102.86 32.2414H46.3771C42.8551 32.2414 40 29.3863 40 25.8644Z" fill="#9F9F9F"/>
<path d="M40 62.3047C40 60.2921 41.6315 58.6606 43.644 58.6606H186.128C188.14 58.6606 189.772 60.2921 189.772 62.3047C189.772 64.3172 188.14 65.9487 186.128 65.9487H43.644C41.6315 65.9487 40 64.3172 40 62.3047Z" fill="#C4C4C4"/>
<path d="M340.89 25.8645C340.89 23.8519 342.521 22.2205 344.534 22.2205H374.597C376.61 22.2205 378.241 23.8519 378.241 25.8645C378.241 27.877 376.61 29.5085 374.597 29.5085H344.534C342.521 29.5085 340.89 27.877 340.89 25.8645Z" fill="#C4C4C4"/>
<path d="M25.2275 33.8183C25.2275 35.8769 23.5587 37.5456 21.5002 37.5456C19.4417 37.5456 17.7729 35.8769 17.7729 33.8183C17.7729 31.7598 19.4417 30.0911 21.5002 30.0911C23.5587 30.0911 25.2275 31.7598 25.2275 33.8183Z" fill="#C4C4C4"/>
<path d="M40 47.7285C40 45.716 41.6315 44.0845 43.644 44.0845H256.82C258.832 44.0845 260.464 45.716 260.464 47.7285C260.464 49.7411 258.832 51.3726 256.82 51.3726H43.644C41.6315 51.3726 40 49.7411 40 47.7285Z" fill="#C4C4C4"/>
<path d="M40 25.8644C40 22.3424 42.8551 19.4873 46.3771 19.4873H102.86C106.381 19.4873 109.237 22.3424 109.237 25.8644C109.237 29.3863 106.381 32.2414 102.86 32.2414H46.3771C42.8551 32.2414 40 29.3863 40 25.8644Z" fill="#9F9F9F"/>
<path d="M40 62.3047C40 60.2921 41.6315 58.6606 43.644 58.6606H186.128C188.14 58.6606 189.772 60.2921 189.772 62.3047C189.772 64.3172 188.14 65.9487 186.128 65.9487H43.644C41.6315 65.9487 40 64.3172 40 62.3047Z" fill="#C4C4C4"/>
<path d="M340.89 25.8645C340.89 23.8519 342.521 22.2205 344.534 22.2205H374.597C376.61 22.2205 378.241 23.8519 378.241 25.8645C378.241 27.877 376.61 29.5085 374.597 29.5085H344.534C342.521 29.5085 340.89 27.877 340.89 25.8645Z" fill="#C4C4C4"/>
<path d="M25.2275 33.8183C25.2275 35.8769 23.5587 37.5456 21.5002 37.5456C19.4417 37.5456 17.7729 35.8769 17.7729 33.8183C17.7729 31.7598 19.4417 30.0911 21.5002 30.0911C23.5587 30.0911 25.2275 31.7598 25.2275 33.8183Z" fill="#4CB7FF"/>
<path d="M40 125.241C40 123.229 41.6315 121.597 43.644 121.597H256.82C258.832 121.597 260.464 123.229 260.464 125.241C260.464 127.254 258.832 128.885 256.82 128.885H43.644C41.6315 128.885 40 127.254 40 125.241Z" fill="#C4C4C4"/>
<path d="M40 103.377C40 99.8551 42.8551 97 46.3771 97H102.86C106.381 97 109.237 99.8551 109.237 103.377C109.237 106.899 106.381 109.754 102.86 109.754H46.3771C42.8551 109.754 40 106.899 40 103.377Z" fill="#9F9F9F"/>
<path d="M40 139.817C40 137.805 41.6315 136.173 43.644 136.173H186.128C188.14 136.173 189.772 137.805 189.772 139.817C189.772 141.83 188.14 143.461 186.128 143.461H43.644C41.6315 143.461 40 141.83 40 139.817Z" fill="#C4C4C4"/>
<path d="M340.89 103.377C340.89 101.365 342.521 99.7332 344.534 99.7332H374.597C376.61 99.7332 378.241 101.365 378.241 103.377C378.241 105.39 376.61 107.021 374.597 107.021H344.534C342.521 107.021 340.89 105.39 340.89 103.377Z" fill="#C4C4C4"/>
<path d="M25.2275 111.331C25.2275 113.39 23.5587 115.058 21.5002 115.058C19.4417 115.058 17.7729 113.39 17.7729 111.331C17.7729 109.273 19.4417 107.604 21.5002 107.604C23.5587 107.604 25.2275 109.273 25.2275 111.331Z" fill="#4CB7FF"/>
<path d="M40 203.241C40 201.229 41.6315 199.597 43.644 199.597H256.82C258.832 199.597 260.464 201.229 260.464 203.241C260.464 205.254 258.832 206.885 256.82 206.885H43.644C41.6315 206.885 40 205.254 40 203.241Z" fill="#C4C4C4"/>
<path d="M40 181.377C40 177.855 42.8551 175 46.3771 175H102.86C106.381 175 109.237 177.855 109.237 181.377C109.237 184.899 106.381 187.754 102.86 187.754H46.3771C42.8551 187.754 40 184.899 40 181.377Z" fill="#9F9F9F"/>
<path d="M40 217.817C40 215.805 41.6315 214.173 43.644 214.173H186.128C188.14 214.173 189.772 215.805 189.772 217.817C189.772 219.83 188.14 221.461 186.128 221.461H43.644C41.6315 221.461 40 219.83 40 217.817Z" fill="#C4C4C4"/>
<path d="M340.89 181.377C340.89 179.365 342.521 177.733 344.534 177.733H374.597C376.61 177.733 378.241 179.365 378.241 181.377C378.241 183.39 376.61 185.021 374.597 185.021H344.534C342.521 185.021 340.89 183.39 340.89 181.377Z" fill="#C4C4C4"/>
<path d="M25.2275 189.331C25.2275 191.39 23.5587 193.058 21.5002 193.058C19.4417 193.058 17.7729 191.39 17.7729 189.331C17.7729 187.273 19.4417 185.604 21.5002 185.604C23.5587 185.604 25.2275 187.273 25.2275 189.331Z" fill="#4CB7FF"/>
<path d="M40 281.241C40 279.229 41.6315 277.597 43.644 277.597H256.82C258.832 277.597 260.464 279.229 260.464 281.241C260.464 283.254 258.832 284.885 256.82 284.885H43.644C41.6315 284.885 40 283.254 40 281.241Z" fill="#C4C4C4"/>
<path d="M40 259.377C40 255.855 42.8551 253 46.3771 253H102.86C106.381 253 109.237 255.855 109.237 259.377C109.237 262.899 106.381 265.754 102.86 265.754H46.3771C42.8551 265.754 40 262.899 40 259.377Z" fill="#9F9F9F"/>
<path d="M40 295.817C40 293.805 41.6315 292.173 43.644 292.173H186.128C188.14 292.173 189.772 293.805 189.772 295.817C189.772 297.83 188.14 299.461 186.128 299.461H43.644C41.6315 299.461 40 297.83 40 295.817Z" fill="#C4C4C4"/>
<path d="M340.89 259.377C340.89 257.365 342.521 255.733 344.534 255.733H374.597C376.61 255.733 378.241 257.365 378.241 259.377C378.241 261.39 376.61 263.021 374.597 263.021H344.534C342.521 263.021 340.89 261.39 340.89 259.377Z" fill="#C4C4C4"/>
<path d="M25.2275 267.331C25.2275 269.39 23.5587 271.058 21.5002 271.058C19.4417 271.058 17.7729 269.39 17.7729 267.331C17.7729 265.273 19.4417 263.604 21.5002 263.604C23.5587 263.604 25.2275 265.273 25.2275 267.331Z" fill="#4CB7FF"/>
</g>
<defs>
<filter id="filter0_d_6552_57991" x="0.5" y="0.5" width="403" height="310" filterUnits="userSpaceOnUse" color-interpolation-filters="sRGB">
<feFlood flood-opacity="0" result="BackgroundImageFix"/>
<feColorMatrix in="SourceAlpha" type="matrix" values="0 0 0 0 0 0 0 0 0 0 0 0 0 0 0 0 0 0 127 0" result="hardAlpha"/>
<feOffset dx="0.5" dy="0.5"/>
<feGaussianBlur stdDeviation="2.5"/>
<feComposite in2="hardAlpha" operator="out"/>
<feColorMatrix type="matrix" values="0 0 0 0 0 0 0 0 0 0 0 0 0 0 0 0 0 0 0.1 0"/>
<feBlend mode="normal" in2="BackgroundImageFix" result="effect1_dropShadow_6552_57991"/>
<feBlend mode="normal" in="SourceGraphic" in2="effect1_dropShadow_6552_57991" result="shape"/>
</filter>
<filter id="filter1_d_6552_57991" x="2" y="3" width="400" height="306" filterUnits="userSpaceOnUse" color-interpolation-filters="sRGB">
<feFlood flood-opacity="0" result="BackgroundImageFix"/>
<feColorMatrix in="SourceAlpha" type="matrix" values="0 0 0 0 0 0 0 0 0 0 0 0 0 0 0 0 0 0 127 0" result="hardAlpha"/>
<feOffset dy="1"/>
<feGaussianBlur stdDeviation="1.5"/>
<feComposite in2="hardAlpha" operator="out"/>
<feColorMatrix type="matrix" values="0 0 0 0 0 0 0 0 0 0 0 0 0 0 0 0 0 0 0.33 0"/>
<feBlend mode="normal" in2="BackgroundImageFix" result="effect1_dropShadow_6552_57991"/>
<feBlend mode="normal" in="SourceGraphic" in2="effect1_dropShadow_6552_57991" result="shape"/>
</filter>
</defs>
</svg>
