<svg xmlns="http://www.w3.org/2000/svg" fill="none" viewBox="0.5 0.5 23 23">
<path d="M11.832 23.501C8.87104 23.501 6.06905 22.364 3.94205 20.3C1.76905 18.191 0.547047 15.362 0.501047 12.334L0.500047 12.195C0.482047 5.83802 5.63805 0.592023 11.993 0.500023C12.052 0.499023 12.11 0.499023 12.169 0.499023C15.129 0.499023 17.931 1.63602 20.059 3.70102C22.232 5.81002 23.454 8.63902 23.499 11.668L23.5 11.81C23.515 18.165 18.36 23.409 12.007 23.501H11.832ZM12.008 1.50002C6.19705 1.58402 1.48405 6.38002 1.50005 12.19L1.50105 12.32C1.54305 15.08 2.65705 17.659 4.63805 19.582C6.57705 21.464 9.14305 22.5 11.862 22.5L11.993 22.499C17.801 22.415 22.514 17.62 22.5 11.811L22.499 11.68C22.458 8.92002 21.344 6.34002 19.362 4.41702C17.422 2.53402 14.867 1.49702 12.166 1.49702L12.008 1.50002Z" fill="#0098FF"/>
<path d="M12 14.5049C11.724 14.5049 11.5 14.2809 11.5 14.0049V7.00488C11.5 6.72888 11.724 6.50488 12 6.50488C12.276 6.50488 12.5 6.72888 12.5 7.00488V14.0049C12.5 14.2799 12.276 14.5049 12 14.5049Z" fill="#0098FF"/>
<path d="M12.0071 17.0049C11.5971 17.0039 11.2651 16.6849 11.2501 16.2779C11.2471 16.0699 11.3211 15.8789 11.4581 15.7349C11.5961 15.5899 11.7821 15.5079 11.9821 15.5049C11.9831 15.5049 12.0041 15.5049 12.0081 15.5049C12.4231 15.5319 12.7311 15.8449 12.7431 16.2339C12.7471 16.4409 12.6731 16.6319 12.5351 16.7759C12.3971 16.9189 12.2111 17.0009 12.0121 17.0039C12.0111 17.0049 12.0091 17.0049 12.0071 17.0049Z" fill="#0098FF"/>
</svg>