<svg width="24" height="24" viewBox="0 0 24 24" fill="none" xmlns="http://www.w3.org/2000/svg">
<g clip-path="url(#clip0_2739_51544)">
<path d="M17.9999 13.5C17.9999 15.575 19.6749 17.25 21.7499 17.25C19.6749 17.25 17.9999 18.925 17.9999 21C17.9999 18.925 16.3249 17.25 14.2499 17.25C16.3249 17.25 17.9999 15.575 17.9999 13.5Z" stroke="black" stroke-linecap="round" stroke-linejoin="round"/>
<path d="M18.7226 2.93765C19.1131 2.54713 19.7463 2.54713 20.1368 2.93765L21.0623 3.86321C21.4529 4.25373 21.4529 4.8869 21.0623 5.27742L5.25407 21.0857C4.86355 21.4762 4.23038 21.4762 3.83986 21.0857L2.9143 20.1601C2.52378 19.7696 2.52378 19.1365 2.9143 18.7459L18.7226 2.93765Z" stroke="black"/>
<path d="M17 8L15.9999 7" stroke="black" stroke-width="1.5" stroke-linecap="round" stroke-linejoin="round"/>
<path d="M13.9414 3.21875H13.0808" stroke="black" stroke-linecap="round" stroke-linejoin="round"/>
<path d="M12.2188 2.36058V1.5" stroke="black" stroke-linecap="round" stroke-linejoin="round"/>
<path d="M11.3594 3.21875H10.4988" stroke="black" stroke-linecap="round" stroke-linejoin="round"/>
<path d="M12.2188 4.9387V4.07812" stroke="black" stroke-linecap="round" stroke-linejoin="round"/>
<path d="M4.18033 6.00006C4.18033 7.48031 5.37927 8.67925 6.85951 8.67925C5.37927 8.67925 4.18033 9.87819 4.18033 11.3584C4.18033 9.87819 2.9814 8.67925 1.50115 8.67925C2.9814 8.67925 4.18033 7.48031 4.18033 6.00006Z" stroke="black" stroke-linecap="round" stroke-linejoin="round"/>
</g>
<defs>
<clipPath id="clip0_2739_51544">
<rect width="24" height="24" fill="white"/>
</clipPath>
</defs>
</svg>
