<svg width="109" height="64" viewBox="0 0 109 64" fill="none" xmlns="http://www.w3.org/2000/svg">
<rect x="0.797295" y="0.14959" width="89.4546" height="58.3399" rx="7.03071" fill="#FAFAFA" stroke="#9F9F9F" stroke-width="0.299179"/>
<path d="M48.7637 25.5101L82.5547 58.4901L8.49471 58.4901L42.2857 25.5101C44.0871 23.7519 46.9623 23.7519 48.7637 25.5101Z" fill="#FAFAFA" stroke="#9F9F9F" stroke-width="0.299179"/>
<path d="M42.2855 33.1296L8.49451 0.14959H82.5545L48.7635 33.1296C46.9621 34.8878 44.0869 34.8878 42.2855 33.1296Z" fill="#F1F1F1" stroke="#9F9F9F" stroke-width="0.299179"/>
<path fill-rule="evenodd" clip-rule="evenodd" d="M107.991 59.3678L93.2046 31.1299C92.6585 30.0876 91.579 29.4346 90.4022 29.4346C89.2255 29.4346 88.146 30.0876 87.5998 31.1299L72.8119 59.3678C72.2981 60.3486 72.3345 61.5267 72.9078 62.4739C73.4811 63.4212 74.5078 63.9999 75.6151 63.9997H105.188C106.295 63.9999 107.322 63.4212 107.895 62.4739C108.468 61.5267 108.505 60.3486 107.991 59.3678Z" fill="#FF8500"/>
<path fill-rule="evenodd" clip-rule="evenodd" d="M88.8191 41.0536C88.8191 40.1799 89.5273 39.4717 90.401 39.4717C91.2747 39.4717 91.983 40.1799 91.983 41.0536V50.5453C91.983 51.419 91.2747 52.1273 90.401 52.1273C89.5273 52.1273 88.8191 51.419 88.8191 50.5453V41.0536Z" fill="white"/>
<path fill-rule="evenodd" clip-rule="evenodd" d="M90.4797 59.262H90.4354C89.1391 59.2578 88.0769 58.2319 88.0277 56.9365C88.0047 56.3102 88.2344 55.7009 88.6652 55.2457C89.096 54.7905 89.6917 54.5276 90.3183 54.5161H90.3626C91.6587 54.5177 92.7226 55.5418 92.7735 56.8368C92.7983 57.4646 92.5689 58.0759 92.1372 58.5323C91.7054 58.9888 91.1079 59.2518 90.4797 59.262Z" fill="white"/>
</svg>
