<svg width="107" height="64" viewBox="0 0 107 64" fill="none" xmlns="http://www.w3.org/2000/svg">
<path d="M83.492 0.308594H6.39188C3.19829 0.308594 0.609375 2.89751 0.609375 6.0911V52.3512C0.609375 55.5447 3.19829 58.1337 6.39188 58.1337H83.492C86.6856 58.1337 89.2745 55.5447 89.2745 52.3512V6.0911C89.2745 2.89751 86.6856 0.308594 83.492 0.308594Z" fill="#F5F5F5"/>
<path fill-rule="evenodd" clip-rule="evenodd" d="M6.38868 0.618596C3.36591 0.618596 0.915472 3.06904 0.915472 6.0918V52.3518C0.915472 55.3746 3.36591 57.8251 6.38868 57.8251H83.4888C86.5115 57.8251 88.962 55.3746 88.962 52.3518V6.0918C88.962 3.06904 86.5115 0.618596 83.4888 0.618596H6.38868ZM0.296875 6.0918C0.296875 2.72739 3.02427 0 6.38868 0H83.4888C86.8532 0 89.5806 2.72739 89.5806 6.0918V52.3518C89.5806 55.7163 86.8532 58.4437 83.4888 58.4437H6.38868C3.02427 58.4437 0.296875 55.7163 0.296875 52.3518V6.0918Z" fill="#E0E0E0"/>
<path d="M87.6584 2.30078L44.9425 36.9336L2.22656 2.30078" fill="#F5F5F5"/>
<path fill-rule="evenodd" clip-rule="evenodd" d="M1.98312 2.10475C2.0907 1.97206 2.28547 1.95171 2.41816 2.05929L44.9393 36.5342L87.4605 2.05929C87.5932 1.95171 87.7879 1.97206 87.8955 2.10475C88.0031 2.23744 87.9827 2.43222 87.8501 2.5398L45.1341 37.1727C45.0206 37.2647 44.8581 37.2647 44.7445 37.1727L2.02858 2.5398C1.89589 2.43222 1.87554 2.23744 1.98312 2.10475Z" fill="#E0E0E0"/>
<path fill-rule="evenodd" clip-rule="evenodd" d="M35.8546 29.2786C35.961 29.4122 35.939 29.6068 35.8055 29.7133L2.41615 56.3253C2.28257 56.4317 2.08797 56.4098 1.9815 56.2762C1.87503 56.1426 1.89701 55.948 2.0306 55.8415L35.4199 29.2295C35.5535 29.1231 35.7481 29.1451 35.8546 29.2786Z" fill="#E0E0E0"/>
<path fill-rule="evenodd" clip-rule="evenodd" d="M54.0206 29.2786C54.127 29.1451 54.3216 29.1231 54.4552 29.2295L87.8445 55.8415C87.9781 55.948 88.0001 56.1426 87.8936 56.2762C87.7872 56.4098 87.5926 56.4317 87.459 56.3253L54.0697 29.7133C53.9361 29.6068 53.9141 29.4122 54.0206 29.2786Z" fill="#E0E0E0"/>
<path fill-rule="evenodd" clip-rule="evenodd" d="M106.349 59.5419L92.117 32.3623C91.5913 31.359 90.5522 30.7305 89.4196 30.7305C88.287 30.7305 87.2479 31.359 86.7222 32.3623L72.4883 59.5419C71.9938 60.486 72.0288 61.6199 72.5806 62.5317C73.1324 63.4435 74.1207 64.0004 75.1865 64.0003H103.651C104.717 64.0004 105.705 63.4435 106.257 62.5317C106.809 61.6199 106.844 60.486 106.349 59.5419Z" fill="#FF8500"/>
<path fill-rule="evenodd" clip-rule="evenodd" d="M87.8984 41.9133C87.8984 41.0723 88.5802 40.3906 89.4211 40.3906C90.2621 40.3906 90.9438 41.0723 90.9438 41.9133V51.0493C90.9438 51.8902 90.2621 52.572 89.4211 52.572C88.5802 52.572 87.8984 51.8902 87.8984 51.0493V41.9133Z" fill="white"/>
<path fill-rule="evenodd" clip-rule="evenodd" d="M89.4945 59.4391H89.4518C88.2041 59.4351 87.1817 58.4476 87.1343 57.2008C87.1122 56.5979 87.3333 56.0115 87.7479 55.5733C88.1626 55.1352 88.736 54.8821 89.3392 54.8711H89.3818C90.6293 54.8726 91.6533 55.8583 91.7023 57.1048C91.7262 57.7091 91.5054 58.2975 91.0898 58.7368C90.6743 59.1761 90.0991 59.4293 89.4945 59.4391Z" fill="white"/>
</svg>
