<svg width="109" height="64" viewBox="0 0 109 64" fill="none" xmlns="http://www.w3.org/2000/svg">
<rect x="0.799475" y="0.149451" width="89.4511" height="58.2859" rx="7.0242" fill="#666666" stroke="#E0E0E0" stroke-width="0.298902"/>
<path d="M48.7596 25.4818L82.5536 58.4355L8.49657 58.4355L42.2906 25.4818C44.09 23.7271 46.9602 23.7271 48.7596 25.4818Z" fill="#666666" stroke="#E0E0E0" stroke-width="0.298902"/>
<path d="M42.2905 33.1032L8.49648 0.149451H82.5535L48.7595 33.1032C46.9601 34.8579 44.0899 34.8579 42.2905 33.1032Z" fill="#333333" stroke="#E0E0E0" stroke-width="0.298902"/>
<path fill-rule="evenodd" clip-rule="evenodd" d="M107.989 59.3723L93.203 31.1606C92.6569 30.1192 91.5774 29.4668 90.4007 29.4668C89.2241 29.4668 88.1446 30.1192 87.5985 31.1606L72.8111 59.3723C72.2974 60.3522 72.3338 61.5292 72.907 62.4756C73.4803 63.422 74.507 64.0001 75.6142 63.9999H105.186C106.293 64.0001 107.32 63.422 107.893 62.4756C108.466 61.5292 108.503 60.3522 107.989 59.3723Z" fill="#FFAA4C"/>
<path fill-rule="evenodd" clip-rule="evenodd" d="M88.8177 41.0751C88.8177 40.2022 89.526 39.4946 90.3996 39.4946C91.2733 39.4946 91.9815 40.2022 91.9815 41.0751V50.558C91.9815 51.4309 91.2733 52.1385 90.3996 52.1385C89.526 52.1385 88.8177 51.4309 88.8177 50.558V41.0751Z" fill="#1A1A1A"/>
<path fill-rule="evenodd" clip-rule="evenodd" d="M90.4783 59.2664H90.434C89.1377 59.2622 88.0756 58.2372 88.0264 56.943C88.0033 56.3173 88.233 55.7086 88.6638 55.2538C89.0946 54.799 89.6903 54.5364 90.3169 54.5249H90.3612C91.6572 54.5264 92.721 55.5496 92.772 56.8435C92.7968 57.4707 92.5673 58.0814 92.1356 58.5374C91.7039 58.9934 91.1064 59.2562 90.4783 59.2664Z" fill="#1A1A1A"/>
</svg>
