<svg width="24" height="24" viewBox="0 0 24 24" fill="none" xmlns="http://www.w3.org/2000/svg">
<path d="M13.5003 23.996C13.3143 23.996 13.1453 23.894 13.0583 23.73L8.63033 15.366L0.266333 10.938C0.0973325 10.849 -0.00666746 10.668 0.000332537 10.477C0.00733254 10.287 0.125333 10.114 0.300333 10.038L23.3003 0.038C23.3123 0.033 23.3263 0.028 23.3393 0.025C23.3423 0.024 23.3453 0.023 23.3483 0.023C23.3923 0.009 23.4353 0.001 23.4783 0C23.4783 0 23.5213 0.001 23.5293 0.001C23.5723 0.004 23.6143 0.012 23.6543 0.025C23.6733 0.031 23.6873 0.036 23.7023 0.043C23.7643 0.071 23.8123 0.104 23.8533 0.145C23.8943 0.185 23.9273 0.234 23.9533 0.293C23.9573 0.302 23.9683 0.331 23.9713 0.341C23.9853 0.383 23.9933 0.425 23.9953 0.467C23.9963 0.48 23.9973 0.497 23.9973 0.515C23.9953 0.563 23.9873 0.607 23.9733 0.648C23.9743 0.65 23.9733 0.653 23.9733 0.656C23.9693 0.67 23.9643 0.685 23.9593 0.698L13.9603 23.696C13.8843 23.871 13.7113 23.989 13.5213 23.996C13.5163 23.996 13.5043 23.996 13.5003 23.996ZM13.4563 22.344L21.9923 2.712L9.61533 15.089L13.4563 22.344ZM8.90833 14.382L21.2853 2.005L1.65333 10.541L8.90833 14.382Z" fill="black"/>
<path fill-rule="evenodd" clip-rule="evenodd" d="M13.0583 23.73C13.1453 23.894 13.3143 23.996 13.5003 23.996H13.5213C13.7113 23.989 13.8843 23.871 13.9603 23.696L23.7097 1.27225L23.7101 1.2713L23.9593 0.698C23.9643 0.685 23.9693 0.67 23.9733 0.656C23.9733 0.65496 23.9734 0.65392 23.9736 0.652921C23.9738 0.65104 23.974 0.649307 23.9733 0.648C23.9873 0.607 23.9953 0.563 23.9973 0.515C23.9973 0.497 23.9963 0.48 23.9953 0.467C23.9933 0.425 23.9853 0.383 23.9713 0.341C23.9683 0.331 23.9573 0.302 23.9533 0.293C23.9273 0.234 23.8943 0.185 23.8533 0.145C23.8123 0.104 23.7643 0.071 23.7023 0.043C23.6873 0.036 23.6733 0.031 23.6543 0.025C23.6143 0.012 23.5723 0.004 23.5293 0.001C23.5213 0.001 23.4783 0 23.4783 0C23.4353 0.001 23.3923 0.009 23.3483 0.023C23.3453 0.023 23.3423 0.0239987 23.3393 0.025C23.3263 0.028 23.3123 0.033 23.3003 0.038L0.300333 10.038C0.125333 10.114 0.00733254 10.287 0.000332537 10.477C-0.00666746 10.668 0.0973325 10.849 0.266333 10.938L8.63033 15.366L13.0583 23.73ZM1.65333 10.541L8.90833 14.382L21.2853 2.005L1.65333 10.541ZM9.61533 15.089L13.4563 22.344L21.9923 2.712L9.61533 15.089ZM21.8391 2.31428L21.7462 2.25109L21.6833 2.15862L21.9588 2.03883L21.8391 2.31428Z" fill="black"/>
</svg>
