<svg width="24" height="24" viewBox="0 0 24 24" fill="none" xmlns="http://www.w3.org/2000/svg">
<g clip-path="url(#clip0_3268_49118)">
<path d="M19.4936 23.9966C18.7926 23.9966 18.1186 23.8376 17.4886 23.5226C16.4136 22.9856 15.6116 22.0616 15.2316 20.9216C14.9086 19.9526 14.9266 18.9066 15.2806 17.9486L8.26764 14.4416C7.83164 15.1126 7.21264 15.6686 6.50364 16.0226C5.87164 16.3386 5.19664 16.4986 4.49764 16.4986C4.01364 16.4986 3.53264 16.4196 3.06864 16.2646C1.92864 15.8836 1.00464 15.0816 0.467641 14.0066C-0.0693588 12.9316 -0.155359 11.7106 0.224641 10.5706C0.605641 9.43056 1.40764 8.50656 2.48264 7.96956C3.11064 7.65556 3.78364 7.49656 4.48264 7.49656C6.01264 7.49656 7.44164 8.27856 8.26664 9.55256L15.2776 6.04756C15.0936 5.54556 14.9966 5.00656 14.9986 4.47556C15.0046 1.99456 17.0276 -0.0234375 19.5086 -0.0234375C20.7246 -0.0204375 21.8556 0.451563 22.7056 1.30556C23.5556 2.15956 24.0216 3.29356 24.0186 4.49756C24.0156 5.70156 23.5436 6.83356 22.6896 7.68356C21.8386 8.53056 20.7096 8.99656 19.5086 8.99656C17.9476 8.99456 16.5526 8.23156 15.7246 6.94256L8.71964 10.4446C9.08864 11.4426 9.08864 12.5506 8.71964 13.5486L15.7246 17.0506C16.5536 15.7616 17.9476 14.9976 19.4986 14.9966C19.4986 14.9966 19.5016 14.9966 19.5026 14.9966C20.1966 14.9966 20.8926 15.1606 21.5136 15.4716C23.7336 16.5806 24.6366 19.2896 23.5276 21.5086C22.7586 23.0436 21.2136 23.9966 19.4936 23.9966ZM16.3646 17.9426C15.9506 18.7766 15.8856 19.7216 16.1796 20.6046C16.4756 21.4916 17.0996 22.2096 17.9356 22.6276C18.4256 22.8716 18.9496 22.9956 19.4936 22.9956C20.8326 22.9956 22.0346 22.2546 22.6306 21.0606C23.0476 20.2256 23.1146 19.2776 22.8186 18.3896C22.5226 17.5016 21.8996 16.7826 21.0646 16.3656C20.5816 16.1246 20.0406 15.9966 19.5006 15.9966L19.4976 15.7466V15.9966C18.1636 15.9976 16.9656 16.7396 16.3696 17.9336C16.3686 17.9366 16.3666 17.9396 16.3646 17.9426ZM4.48664 8.49656C3.94264 8.49656 3.41864 8.62056 2.92964 8.86456C2.09264 9.28256 1.46964 10.0006 1.17364 10.8876C0.877641 11.7746 0.944641 12.7236 1.36164 13.5596C1.77964 14.3956 2.49764 15.0196 3.38464 15.3156C3.74664 15.4366 4.12064 15.4976 4.49664 15.4976C5.03964 15.4976 5.56464 15.3726 6.05664 15.1266C6.73064 14.7896 7.28764 14.2326 7.62464 13.5596C7.62664 13.5566 7.62764 13.5526 7.62964 13.5496C8.11964 12.5726 8.11864 11.4096 7.62564 10.4346C7.02764 9.23856 5.82564 8.49656 4.48664 8.49656ZM19.5076 0.977562C17.5766 0.977562 16.0026 2.54856 15.9976 4.47856C15.9966 5.02456 16.1246 5.57156 16.3696 6.06056C16.9656 7.25456 18.1646 7.99656 19.4976 7.99756C20.4416 7.99756 21.3206 7.63456 21.9826 6.97556C22.6476 6.31456 23.0146 5.43356 23.0166 4.49656C23.0186 3.55956 22.6556 2.67656 21.9946 2.01256C21.3336 1.34756 20.4526 0.980562 19.5156 0.978562L19.5066 0.728562V0.977562H19.5076Z" fill="#0098FF"/>
</g>
<defs>
<clipPath id="clip0_3268_49118">
<rect width="24" height="24" fill="white"/>
</clipPath>
</defs>
</svg>
