<svg width="24" height="24" viewBox="0 0 24 24" fill="none" xmlns="http://www.w3.org/2000/svg">
<g clip-path="url(#clip0_3268_49118)">
<path d="M19.4939 23.9966C18.7929 23.9966 18.1189 23.8376 17.4889 23.5226C16.4139 22.9856 15.6119 22.0616 15.2319 20.9216C14.9089 19.9526 14.9269 18.9066 15.2809 17.9486L8.26789 14.4416C7.83189 15.1126 7.21289 15.6686 6.50389 16.0226C5.87189 16.3386 5.19689 16.4986 4.49789 16.4986C4.01389 16.4986 3.53289 16.4196 3.06889 16.2646C1.92889 15.8836 1.00489 15.0816 0.467885 14.0066C-0.0691147 12.9316 -0.155115 11.7106 0.224885 10.5706C0.605885 9.43056 1.40789 8.50656 2.48289 7.96956C3.11089 7.65556 3.78389 7.49656 4.48289 7.49656C6.01289 7.49656 7.44189 8.27856 8.26689 9.55256L15.2779 6.04756C15.0939 5.54556 14.9969 5.00656 14.9989 4.47556C15.0049 1.99456 17.0279 -0.0234375 19.5089 -0.0234375C20.7249 -0.0204375 21.8559 0.451563 22.7059 1.30556C23.5559 2.15956 24.0219 3.29356 24.0189 4.49756C24.0159 5.70156 23.5439 6.83356 22.6899 7.68356C21.8389 8.53056 20.7099 8.99656 19.5089 8.99656C17.9479 8.99456 16.5529 8.23156 15.7249 6.94256L8.71989 10.4446C9.08889 11.4426 9.08889 12.5506 8.71989 13.5486L15.7249 17.0506C16.5539 15.7616 17.9479 14.9976 19.4989 14.9966C19.4989 14.9966 19.5019 14.9966 19.5029 14.9966C20.1969 14.9966 20.8929 15.1606 21.5139 15.4716C23.7339 16.5806 24.6369 19.2896 23.5279 21.5086C22.7589 23.0436 21.2139 23.9966 19.4939 23.9966ZM16.3649 17.9426C15.9509 18.7766 15.8859 19.7216 16.1799 20.6046C16.4759 21.4916 17.0999 22.2096 17.9359 22.6276C18.4259 22.8716 18.9499 22.9956 19.4939 22.9956C20.8329 22.9956 22.0349 22.2546 22.6309 21.0606C23.0479 20.2256 23.1149 19.2776 22.8189 18.3896C22.5229 17.5016 21.8999 16.7826 21.0649 16.3656C20.5819 16.1246 20.0409 15.9966 19.5009 15.9966L19.4979 15.7466V15.9966C18.1639 15.9976 16.9659 16.7396 16.3699 17.9336C16.3689 17.9366 16.3669 17.9396 16.3649 17.9426ZM4.48689 8.49656C3.94289 8.49656 3.41889 8.62056 2.92989 8.86456C2.09289 9.28256 1.46989 10.0006 1.17389 10.8876C0.877885 11.7746 0.944885 12.7236 1.36189 13.5596C1.77989 14.3956 2.49789 15.0196 3.38489 15.3156C3.74689 15.4366 4.12089 15.4976 4.49689 15.4976C5.03989 15.4976 5.56489 15.3726 6.05689 15.1266C6.73089 14.7896 7.28789 14.2326 7.62489 13.5596C7.62689 13.5566 7.62789 13.5526 7.62989 13.5496C8.11989 12.5726 8.11889 11.4096 7.62589 10.4346C7.02789 9.23856 5.82589 8.49656 4.48689 8.49656ZM19.5079 0.977562C17.5769 0.977562 16.0029 2.54856 15.9979 4.47856C15.9969 5.02456 16.1249 5.57156 16.3699 6.06056C16.9659 7.25456 18.1649 7.99656 19.4979 7.99756C20.4419 7.99756 21.3209 7.63456 21.9829 6.97556C22.6479 6.31456 23.0149 5.43356 23.0169 4.49656C23.0189 3.55956 22.6559 2.67656 21.9949 2.01256C21.3339 1.34756 20.4529 0.980562 19.5159 0.978562L19.5069 0.728562V0.977562H19.5079Z" fill="black"/>
</g>
<defs>
<clipPath id="clip0_3268_49118">
<rect width="24" height="24" fill="white"/>
</clipPath>
</defs>
</svg>
