<svg width="24" height="24" viewBox="0 0 24 24" fill="none" xmlns="http://www.w3.org/2000/svg">
<path d="M3.5 24C2.673 24 2 23.327 2 22.5V1.5C2 0.673 2.673 0 3.5 0H16.793C17.193 0.003 17.58 0.167 17.857 0.45L21.56 4.146C21.844 4.43 22 4.807 22 5.207V22.5C22 23.327 21.327 24 20.5 24H3.5ZM3.5 1C3.224 1 3 1.224 3 1.5V22.5C3 22.776 3.224 23 3.5 23H20.5C20.776 23 21 22.776 21 22.5V5.207C21 5.074 20.948 4.948 20.854 4.853L17.147 1.154C17.051 1.056 16.922 1.001 16.789 1H3.5Z" fill="#673AB7"/>
<path d="M10 16.504C9.866 16.504 9.741 16.452 9.646 16.358L6.146 12.858C6.052 12.763 6 12.637 6 12.504C6 12.371 6.052 12.245 6.146 12.15L9.646 8.65C9.741 8.556 9.866 8.504 10 8.504C10.134 8.504 10.259 8.556 10.354 8.65C10.449 8.744 10.5 8.87 10.5 9.004C10.5 9.138 10.448 9.263 10.354 9.358L7.208 12.504L10.354 15.65C10.448 15.744 10.5 15.87 10.5 16.004C10.5 16.138 10.448 16.263 10.354 16.358C10.26 16.453 10.134 16.504 10 16.504Z" fill="#673AB7"/>
<path d="M14 16.504C13.866 16.504 13.741 16.452 13.646 16.358C13.551 16.264 13.5 16.138 13.5 16.004C13.5 15.87 13.552 15.745 13.646 15.65L16.792 12.504L13.646 9.358C13.552 9.263 13.5 9.138 13.5 9.004C13.5 8.87 13.552 8.745 13.646 8.65C13.74 8.555 13.866 8.504 14 8.504C14.134 8.504 14.259 8.556 14.354 8.65L17.854 12.15C17.948 12.245 18 12.37 18 12.504C18 12.638 17.948 12.763 17.854 12.858L14.354 16.358C14.259 16.452 14.134 16.504 14 16.504Z" fill="#673AB7"/>
</svg>
