<svg width="24" height="24" viewBox="0 0 24 24" fill="none" xmlns="http://www.w3.org/2000/svg">
<path d="M22.9731 11.5144C23.0004 11.4462 23.007 11.3716 22.9923 11.2996C22.9775 11.2277 22.942 11.1617 22.8901 11.1098C22.8382 11.0579 22.7722 11.0224 22.7003 11.0076C22.6284 10.9929 22.5537 10.9996 22.4856 11.0269L11.5753 15.3911L11.2356 15.5261C11.1714 15.5517 11.1155 15.5946 11.0741 15.65C11.0327 15.7053 11.0075 15.7711 11.0011 15.8399C10.9947 15.9087 11.0075 15.978 11.0381 16.04C11.0686 16.102 11.1157 16.1544 11.1741 16.1914L11.4816 16.3864L11.4823 16.3879L15.2286 18.7714L17.6121 22.5176L17.6136 22.5191L17.8086 22.8266C17.8456 22.8848 17.898 22.9316 17.96 22.962C18.022 22.9923 18.0911 23.005 18.1598 22.9985C18.2285 22.9921 18.2941 22.9668 18.3494 22.9255C18.4047 22.8842 18.4475 22.8284 18.4731 22.7644L22.9731 11.5144ZM21.5983 12.9319L15.9778 18.5524L15.8166 18.2989C15.787 18.2523 15.7476 18.2129 15.7011 18.1834L15.4476 18.0221L21.0681 12.4016L21.9516 12.0484L21.5983 12.9319Z" fill="#666666"/>
<path fill-rule="evenodd" clip-rule="evenodd" d="M0.499512 10.4286C0.499512 4.94517 4.94468 0.5 10.4281 0.5C15.1691 0.5 19.1331 3.82256 20.1203 8.26582C20.1802 8.53539 20.0103 8.80247 19.7407 8.86237C19.4711 8.92227 19.2041 8.7523 19.1442 8.48273C18.2564 4.48721 14.6905 1.5 10.4281 1.5C5.49696 1.5 1.49951 5.49745 1.49951 10.4286C1.49951 14.9968 4.93074 18.7645 9.35631 19.2935C9.6305 19.3263 9.8262 19.5751 9.79343 19.8493C9.76066 20.1235 9.51181 20.3192 9.23762 20.2864C4.31525 19.698 0.499512 15.5092 0.499512 10.4286Z" fill="#666666"/>
<path fill-rule="evenodd" clip-rule="evenodd" d="M10.4281 4.78613C10.7042 4.78613 10.9281 5.00999 10.9281 5.28613V10.429C10.9281 10.7051 10.7042 10.929 10.4281 10.929H6.14237C5.86623 10.929 5.64237 10.7051 5.64237 10.429C5.64237 10.1528 5.86623 9.92899 6.14237 9.92899H9.92808V5.28613C9.92808 5.00999 10.1519 4.78613 10.4281 4.78613Z" fill="#666666"/>
</svg>
