<svg width="25" height="25" viewBox="0 0 25 25" fill="none" xmlns="http://www.w3.org/2000/svg">
<g clip-path="url(#clip0_3268_48650)">
<path d="M13.6791 23.2138C13.3887 23.2138 13.153 22.9861 13.153 22.7056C13.153 22.4251 13.3887 22.1974 13.6791 22.1974C18.9012 22.1974 23.149 18.094 23.149 13.0493C23.149 8.00464 18.9012 3.90122 13.6791 3.90122C8.45693 3.90122 4.20912 8.00464 4.20912 13.0493V13.2129L6.97014 10.1646C7.0701 10.0548 7.21426 9.99181 7.36578 9.99181C7.4931 9.99181 7.6162 10.0365 7.71196 10.1168C7.93082 10.3018 7.95291 10.623 7.76141 10.8344L4.07865 14.9003C4.06918 14.9104 4.05866 14.9206 4.04708 14.9297C3.94291 15.0253 3.81454 15.0761 3.68301 15.0761C3.66723 15.0761 3.65039 15.0741 3.63356 15.071C3.62304 15.07 3.61357 15.068 3.60304 15.0659C3.53991 15.0558 3.4852 15.0375 3.43364 15.0111C3.42312 15.006 3.40207 14.9917 3.3926 14.9856C3.35156 14.9592 3.31368 14.9267 3.28212 14.8891C3.26844 14.8759 3.25476 14.8606 3.24529 14.8464L0.0886358 10.2723C0.0107717 10.1605 -0.0176382 10.0253 0.0107717 9.89219C0.0381294 9.75904 0.117046 9.64418 0.233842 9.56896C0.320124 9.51306 0.421137 9.48358 0.525306 9.48358C0.702079 9.48358 0.865173 9.56795 0.963029 9.71025L3.1569 12.8897C3.24634 7.35818 7.93187 2.88477 13.6791 2.88477C19.481 2.88477 24.2013 7.44458 24.2013 13.0493C24.2013 18.654 19.481 23.2138 13.6791 23.2138Z" fill="#0098FF"/>
<path d="M18.3667 17.8576C18.271 17.8576 18.1792 17.8191 18.1081 17.7503L13.5165 13.2489C13.4377 13.1719 13.3926 13.0614 13.3926 12.9468V8.44536C13.3926 8.21947 13.564 8.03613 13.7752 8.03613C13.9864 8.03613 14.1578 8.21947 14.1578 8.44536V12.7668L18.6254 17.1463C18.7004 17.22 18.7447 17.3207 18.7493 17.4303C18.7539 17.5392 18.718 17.6439 18.6491 17.725C18.5764 17.8093 18.4738 17.8576 18.3667 17.8576Z" fill="#0098FF"/>
</g>
<defs>
<clipPath id="clip0_3268_48650">
<rect width="25" height="25" fill="white"/>
</clipPath>
</defs>
</svg>
