<svg width="28" height="28" viewBox="0 0 28 28" fill="none" xmlns="http://www.w3.org/2000/svg">
<g clip-path="url(#clip0_4139_48907)">
<path d="M12.1738 26C12.5098 26 12.7825 25.7312 12.7825 25.4C12.7825 25.0688 12.5098 24.8 12.1738 24.8C6.13194 24.8 1.21738 19.9556 1.21738 14C1.21738 8.0444 6.13194 3.2 12.1738 3.2C18.2156 3.2 23.1302 8.0444 23.1302 14V14.1932L19.9358 10.5944C19.8201 10.4648 19.6534 10.3904 19.4781 10.3904C19.3308 10.3904 19.1883 10.4432 19.0775 10.538C18.8243 10.7564 18.7988 11.1356 19.0203 11.3852L23.2812 16.1852C23.2921 16.1972 23.3043 16.2092 23.3177 16.22C23.4382 16.3328 23.5867 16.3928 23.7389 16.3928C23.7571 16.3928 23.7766 16.3904 23.7961 16.3868C23.8083 16.3856 23.8192 16.3832 23.8314 16.3808C23.9044 16.3688 23.9678 16.3472 24.0274 16.316C24.0396 16.31 24.0639 16.2932 24.0749 16.286C24.1224 16.2548 24.1662 16.2164 24.2027 16.172C24.2185 16.1564 24.2344 16.1384 24.2453 16.1216L27.8975 10.7216C27.9875 10.5896 28.0204 10.43 27.9875 10.2728C27.9559 10.1156 27.8646 9.98 27.7295 9.8912C27.6296 9.8252 27.5128 9.7904 27.3922 9.7904C27.1877 9.7904 26.999 9.89 26.8858 10.058L24.3476 13.8116C24.2441 7.2812 18.8231 2 12.1738 2C5.46116 2 0 7.3832 0 14C0 20.6168 5.46116 26 12.1738 26Z" fill="black"/>
</g>
<defs>
<clipPath id="clip0_4139_48907">
<rect width="28" height="28" fill="white" transform="matrix(-1 0 0 1 28 0)"/>
</clipPath>
</defs>
</svg>
