<svg width="24" height="25" viewBox="0 0 24 25" fill="none" xmlns="http://www.w3.org/2000/svg">
<g clip-path="url(#clip0_40502_2896)">
<path fill-rule="evenodd" clip-rule="evenodd" d="M19.0293 14.7067C18.1393 14.4626 17.1956 14.4988 16.3269 14.8105C15.4583 15.1221 14.7069 15.694 14.1755 16.4482C13.7858 17.0013 13.5283 17.6326 13.4185 18.2938L13.2801 18.1555C12.9871 17.8628 12.5122 17.863 12.2194 18.156C11.9267 18.4491 11.9269 18.9239 12.2199 19.2167L13.5516 20.5471C13.6888 20.6988 13.8873 20.7941 14.1079 20.7941C14.3286 20.7941 14.527 20.6988 14.6642 20.5471L15.9959 19.2167C16.289 18.9239 16.2892 18.4491 15.9964 18.156C15.727 17.8863 15.3033 17.8647 15.009 18.0912C15.1004 17.8153 15.2323 17.5526 15.4017 17.3122C15.7552 16.8104 16.2552 16.4298 16.8334 16.2223C17.4117 16.0149 18.04 15.9908 18.6325 16.1533C19.225 16.3158 19.7527 16.657 20.1438 17.1302C20.4076 17.4495 20.8804 17.4945 21.1997 17.2306C21.519 16.9668 21.5639 16.494 21.3001 16.1747C20.7123 15.4635 19.9193 14.9509 19.0293 14.7067ZM22.4221 18.3578C22.1293 18.0652 21.6548 18.0652 21.362 18.3578L20.004 19.7144C19.711 20.0072 19.7108 20.4821 20.0035 20.7751C20.2197 20.9915 20.5352 21.0482 20.8034 20.9452C20.7505 21.0464 20.6917 21.1449 20.627 21.24C20.2915 21.7339 19.8152 22.1158 19.2598 22.3362C18.7043 22.5567 18.0954 22.6054 17.5119 22.4762C16.9284 22.347 16.3972 22.0458 15.9871 21.6117C15.7027 21.3106 15.228 21.2971 14.9269 21.5815C14.6258 21.8659 14.6122 22.3406 14.8967 22.6417C15.513 23.2942 16.3111 23.7467 17.1876 23.9408C18.0641 24.1348 18.9787 24.0616 19.8131 23.7304C20.6475 23.3992 21.3633 22.8254 21.8677 22.0831C22.1791 21.6248 22.4011 21.1153 22.5254 20.5813L22.7199 20.7756C23.0129 21.0683 23.4878 21.0681 23.7805 20.7751C24.0733 20.4821 24.0731 20.0072 23.78 19.7144L22.4221 18.3578Z" fill="#9F9F9F"/>
<path d="M11.0039 15.4153H2.34668C1.94885 15.4153 1.56732 15.2572 1.28602 14.9759C1.00471 14.6946 0.84668 14.3131 0.84668 13.9153V4.91528C0.84668 4.51746 1.00471 4.13593 1.28602 3.85462C1.56732 3.57332 1.94885 3.41528 2.34668 3.41528H21.6532C22.051 3.41528 22.4325 3.57332 22.7138 3.85462C22.9951 4.13593 23.1532 4.51746 23.1532 4.91528V13.7742" stroke="#9F9F9F" stroke-width="1.5" stroke-linecap="round" stroke-linejoin="round"/>
<path d="M5.34668 9.04028C5.42085 9.04028 5.49335 9.06228 5.55502 9.10348C5.61669 9.14469 5.66475 9.20326 5.69314 9.27178C5.72152 9.3403 5.72894 9.4157 5.71448 9.48844C5.70001 9.56119 5.66429 9.628 5.61185 9.68045C5.5594 9.73289 5.49258 9.76861 5.41984 9.78308C5.3471 9.79755 5.2717 9.79012 5.20317 9.76174C5.13465 9.73336 5.07609 9.68529 5.03488 9.62362C4.99367 9.56195 4.97168 9.48945 4.97168 9.41528C4.97155 9.366 4.98116 9.31718 4.99996 9.27162C5.01876 9.22607 5.04637 9.18467 5.08122 9.14983C5.11607 9.11498 5.15746 9.08736 5.20302 9.06856C5.24858 9.04976 5.2974 9.04015 5.34668 9.04028" stroke="#9F9F9F" stroke-width="1.5" stroke-linecap="round" stroke-linejoin="round"/>
<path d="M11.3467 9.04028C11.4208 9.04028 11.4934 9.06228 11.555 9.10348C11.6167 9.14469 11.6648 9.20326 11.6931 9.27178C11.7215 9.3403 11.7289 9.4157 11.7145 9.48844C11.7 9.56119 11.6643 9.628 11.6118 9.68045C11.5594 9.73289 11.4926 9.76861 11.4198 9.78308C11.3471 9.79755 11.2717 9.79012 11.2032 9.76174C11.1347 9.73336 11.0761 9.68529 11.0349 9.62362C10.9937 9.56195 10.9717 9.48945 10.9717 9.41528C10.9715 9.366 10.9812 9.31718 11 9.27162C11.0188 9.22607 11.0464 9.18467 11.0812 9.14983C11.1161 9.11498 11.1575 9.08736 11.203 9.06856C11.2486 9.04976 11.2974 9.04015 11.3467 9.04028" stroke="#9F9F9F" stroke-width="1.5" stroke-linecap="round" stroke-linejoin="round"/>
<path d="M17.3467 9.04028C17.4208 9.04028 17.4934 9.06228 17.555 9.10348C17.6167 9.14469 17.6648 9.20326 17.6931 9.27178C17.7215 9.3403 17.7289 9.4157 17.7145 9.48844C17.7 9.56119 17.6643 9.628 17.6118 9.68045C17.5594 9.73289 17.4926 9.76861 17.4198 9.78308C17.3471 9.79755 17.2717 9.79012 17.2032 9.76174C17.1347 9.73336 17.0761 9.68529 17.0349 9.62362C16.9937 9.56195 16.9717 9.48945 16.9717 9.41528C16.9715 9.366 16.9812 9.31718 17 9.27162C17.0188 9.22607 17.0464 9.18467 17.0812 9.14983C17.1161 9.11498 17.1575 9.08736 17.203 9.06856C17.2486 9.04976 17.2974 9.04015 17.3467 9.04028" stroke="#9F9F9F" stroke-width="1.5" stroke-linecap="round" stroke-linejoin="round"/>
</g>
<defs>
<clipPath id="clip0_40502_2896">
<rect width="24" height="24" fill="white" transform="translate(0 0.046875)"/>
</clipPath>
</defs>
</svg>
