<svg width="215" height="148" viewBox="0 0 215 148" fill="none" xmlns="http://www.w3.org/2000/svg">
<path d="M42.8339 121.992L42.2895 120.904V120.904L41.8576 121.51V121.51L41.3932 122.193V122.193L40.9483 122.874V122.874L40.7103 123.251V123.251L40.4661 123.648V123.648L40.2191 124.061V124.061L39.9723 124.488V124.488L39.7292 124.925V124.925L39.4927 125.369V125.369L39.2663 125.817C39.2296 125.892 39.1934 125.967 39.1579 126.041L38.9524 126.488C38.1647 128.271 37.8098 129.947 38.815 130.585C41.3278 132.178 46.3616 131.634 46.0558 129.658C46.0297 129.492 45.9818 129.293 45.9159 129.067L45.8041 128.71V128.71L45.6681 128.317V128.317L45.5109 127.896V127.896L45.3352 127.449V127.449L45.0435 126.744V126.744L44.7265 126.012V126.012L44.3939 125.27V125.27L43.9427 124.293V124.293L43.3986 123.148V123.148L42.8339 121.992V121.992Z" fill="#CA799E"/>
<path d="M20.0897 104.436L21.4818 105.061L20.8035 105.51L20.1243 105.94L19.6333 106.239L19.0916 106.559L18.5091 106.89L18.1029 107.112L17.6859 107.333L17.2609 107.549L16.8309 107.757L16.3987 107.956L15.9674 108.143L15.5397 108.314C13.9112 108.938 12.4285 109.166 11.8299 108.314C10.2164 106.019 10.7206 101.395 12.6991 101.663C12.9435 101.696 13.2597 101.773 13.6265 101.881L14.0093 101.999L14.4212 102.136L14.8573 102.289L15.5467 102.544L16.0228 102.728L16.9937 103.116L17.7193 103.415L19.0954 104L20.0897 104.436Z" fill="#CA799E"/>
<path d="M35.8234 134.748L51.1515 103.962L51.7784 103.657V103.657L52.2408 103.418V103.418L52.9735 103.021V103.021L53.4886 102.73V102.73L54.0555 102.398V102.398L54.4601 102.155V102.155L55.1042 101.756V101.756L55.7894 101.316V101.316L56.5117 100.834V100.834L57.0118 100.49V100.49L57.5255 100.128V100.128L58.0514 99.7466V99.7466L58.5885 99.3467V99.3467L59.1355 98.928V98.928L59.6914 98.4903V98.4903L60.2548 98.0336C64.7892 94.3038 69.9383 88.7397 72.9732 81.133L73.8932 78.8489V78.8489L74.757 76.746V76.746L75.7208 74.4522V74.4522L76.6068 72.3974V72.3974L77.4167 70.5698V70.5698L77.9152 69.4716V69.4716L78.602 67.9958V67.9958L79.3128 66.5199V66.5199L79.7623 65.6177V65.6177L80.3121 64.5527V64.5527L80.8868 63.4951V63.4951L81.3571 62.6856V62.6856L81.6353 62.2417V62.2417L81.8094 61.9878V61.9878L84.5247 61.0616V61.0616L87.9212 59.8845V59.8845L92.0713 58.4187V58.4187L95.3952 57.2177V57.2177L96.8716 56.6743V56.6743L99.0335 55.864V55.864L100.749 55.2049V55.2049L102.041 54.6958V54.6958L102.952 54.328V54.328L104.074 53.8609V53.8609L104.836 53.5309V53.5309L105.304 53.3218V53.3218L105.735 53.1223V53.1223L106.129 52.933V52.933L106.482 52.7546V52.7546L106.793 52.5878C106.938 52.5074 107.066 52.4316 107.176 52.3608C110.711 50.0983 111.634 46.7212 110.254 46.0241C109.831 45.8096 108.989 45.7848 108.028 45.8528L107.577 45.8904C107.501 45.8976 107.424 45.9053 107.347 45.9135L106.884 45.9669V45.9669L106.419 46.0282V46.0282L105.961 46.0953V46.0953L105.299 46.2021V46.2021L104.318 46.379V46.379L103.149 46.618V46.618L94.7534 34.476L94.9378 34.4555V34.4555L95.2379 34.4094V34.4094L95.4312 34.3732V34.3732L95.6488 34.3267V34.3267L95.8875 34.2687V34.2687L96.144 34.1982V34.1982L96.4148 34.1138C96.461 34.0986 96.5076 34.0827 96.5546 34.0661L96.8409 33.959C98.4354 33.3252 100.308 31.9366 99.9743 28.9325L99.6079 28.757V28.757L99.1939 28.5696C99.1211 28.5374 99.0464 28.5047 98.9698 28.4716L98.2322 28.1613V28.1613L97.4029 27.8285V27.8285L96.1676 27.3532V27.3532L94.8009 26.8467V26.8467L93.3209 26.3141V26.3141L91.7458 25.7606V25.7606L89.2444 24.902V24.902L87.0719 24.1717V24.1717L83.5225 23.0015V23.0015L80.0099 21.8649V21.8649L74.0283 19.9674V19.9674L67.8037 18.0366V18.0366L43.1431 32.9844V32.9844L42.6354 33.3097V33.3097L42.3182 33.5245C42.2667 33.5603 42.2159 33.5961 42.1657 33.6321L41.8724 33.8494C40.5861 34.8359 39.7502 35.9654 39.0253 38.2234L38.8659 38.7441C38.8133 38.9242 38.7612 39.1108 38.7094 39.3045L38.5549 39.9067V39.9067L38.4015 40.5534C38.376 40.665 38.3505 40.7785 38.325 40.8941L38.2125 41.4198V41.4198L38.1316 41.8332V41.8332L38.0393 42.3335V42.3335L37.8224 43.5783V43.5783L37.4967 45.5516V45.5516L37.0368 48.4499V48.4499L36.3308 53.0383V53.0383L35.1438 60.9566V60.9566L33.309 73.4691V73.4691L30.8379 90.6353V90.6353L11.2962 112.155L11.5361 112.665V112.665L11.7848 113.161V113.161L12.0541 113.665V113.665L12.2996 114.103V114.103L12.688 114.762V114.762L13.0271 115.309V115.309L13.2768 115.697V115.697L13.546 116.104V116.104L13.8352 116.528V116.528L14.1447 116.969V116.969L14.4751 117.426V117.426L14.8268 117.898C14.9477 118.058 15.0722 118.221 15.2004 118.386L15.5962 118.887C15.664 118.971 15.7328 119.056 15.8026 119.142L16.2327 119.663V119.663L16.6863 120.195V120.195L17.1637 120.739V120.739L17.6656 121.294V121.294L18.1923 121.859C18.2822 121.954 18.3731 122.049 18.4651 122.145L19.03 122.723C19.2226 122.917 19.4195 123.113 19.6209 123.309L20.2383 123.903V123.903L20.8826 124.504C24.5014 127.825 29.3648 131.419 35.8234 134.748Z" fill="#EECEB5"/>
<path d="M96.4577 47.9945L89.4776 55.4358L111.003 47.8004C110.635 49.1128 109.484 50.7647 107.466 52.0691L107.351 52.1412V52.1412L107.086 52.2949V52.2949L106.777 52.4608V52.4608L106.426 52.6384V52.6384L106.036 52.8268V52.8268L105.608 53.0255V53.0255L104.901 53.3413V53.3413L104.122 53.6763V53.6763L102.983 54.1489V54.1489L101.746 54.6463V54.6463L100.765 55.0323V55.0323L99.3975 55.5599V55.5599L97.2571 56.3682V56.3682L94.6932 57.315V57.315L90.0451 58.9889V58.9889L84.8041 60.8273V60.8273L82.3482 61.6728V61.6728L82.1273 62.0016V62.0016L81.9018 62.3661V62.3661L81.594 62.8918V62.8918L81.2011 63.5977V63.5977L80.7203 64.5027V64.5027L80.4051 65.1165V65.1165L79.7808 66.3725V66.3725L79.3817 67.2001V67.2001L78.8383 68.3538V68.3538L78.2448 69.6462V69.6462L77.3276 71.7017V71.7017L76.4595 73.7051V73.7051L75.6769 75.5539V75.5539L75.1811 76.7445V76.7445L74.3104 78.8693V78.8693L73.5732 80.6993V80.6993C71.3742 86.2112 68.0646 90.6465 64.6913 94.0835L64.1126 94.663C63.5336 95.2327 62.9546 95.7732 62.3807 96.2849L61.8087 96.787V96.787L61.2413 97.2699V97.2699L60.6797 97.7339V97.7339L60.125 98.1789V98.1789L59.5785 98.6051V98.6051L59.0413 99.0125V99.0125L58.5145 99.4012V99.4012L57.9994 99.7713V99.7713L57.4971 100.123V100.123L56.7703 100.616V100.616L56.0788 101.068V101.068L55.4267 101.479V101.479L54.818 101.849V101.849L54.2566 102.179V102.179L53.7463 102.469V102.469L53.1526 102.795V102.795L52.6664 103.05V103.05L51.9419 103.407V103.407L36.7227 134.006C29.3699 130.211 24.1102 126.066 20.4145 122.384L19.8439 121.807C19.7509 121.711 19.659 121.616 19.5681 121.521L19.0357 120.957C18.8623 120.77 18.6931 120.585 18.528 120.402L18.0447 119.857V119.857L17.5854 119.324V119.324L17.1495 118.801C17.0788 118.715 17.009 118.63 16.9402 118.545L16.5386 118.041V118.041L16.1593 117.551C16.0979 117.471 16.0374 117.391 15.9778 117.312L15.6311 116.843V116.843L15.3055 116.39V116.39L15.0006 115.952V115.952L14.581 115.328V115.328L14.3257 114.933V114.933L13.9784 114.376V114.376L13.7699 114.029V114.029L13.4906 113.546V113.546L13.1781 112.977V112.977L12.9867 112.609V112.609L12.7075 112.037V112.037L12.5184 111.606V111.606L14.0612 109.899C14.5358 110.575 15.0769 111.252 15.669 111.924L16.1225 112.427V112.427L16.5936 112.928C16.6736 113.011 16.7542 113.094 16.8354 113.177L17.3305 113.673C17.5816 113.921 17.8381 114.167 18.0991 114.411L18.6267 114.897C18.7156 114.978 18.8049 115.058 18.8946 115.139L19.4375 115.618V115.618L19.9887 116.091V116.091L20.5469 116.558C20.6405 116.636 20.7342 116.713 20.8282 116.789L21.3941 117.247V117.247L21.9633 117.697V117.697L22.5344 118.139V118.139L23.3914 118.786V118.786L24.2446 119.413V119.413L24.8089 119.819V119.819L25.6449 120.409V120.409L26.1932 120.788V120.788L26.9985 121.336V121.336L28.0327 122.022V122.022L28.7724 122.502V122.502L29.9223 123.232V123.232L31.1378 123.981V123.981L32.5436 124.817V124.817L33.4551 125.339V125.339L46.0791 102.108L51.4098 58.9534V58.9534L52.401 52.729V52.729L53.1698 48.031V48.031L53.5638 45.7119V45.7119L53.7306 44.7702V44.7702L53.9277 43.7322V43.7322L53.9972 43.4149V43.4149L54.1098 42.9555V42.9555L54.23 42.4919C54.6071 41.0973 55.1573 39.6782 56.5233 38.5231L57.0401 38.1092V38.1092L57.7918 37.4883V37.4883L59.301 36.2118V36.2118L62.4313 33.5513V33.5513L63.7577 32.4362V32.4362L65.0543 31.3619V31.3619L65.978 30.6109V30.6109L66.5593 30.1472V30.1472L67.1059 29.7198C67.1938 29.652 67.28 29.5859 67.3643 29.5216L67.8476 29.1597C67.9242 29.1035 67.9987 29.0494 68.071 28.9975L68.4774 28.7141C68.6035 28.6292 68.7197 28.5543 68.8251 28.4903L70.3436 28.8202V28.8202L74.4765 29.7392V29.7392L76.4318 30.1603V30.1603L77.6629 30.4184V30.4184L79.3458 30.7605V30.7605L80.6226 31.0103V31.0103L81.8976 31.2497V31.2497L82.7405 31.4015V31.4015L83.9847 31.6147V31.6147L84.7952 31.7453V31.7453L85.5862 31.8653V31.8653L86.3539 31.9735V31.9735L87.0945 32.0687C87.3365 32.0981 87.5733 32.1252 87.8044 32.1497L88.4796 32.2153V32.2153L89.1165 32.2642C89.322 32.2776 89.5205 32.2881 89.7113 32.2954C92.5854 32.4098 96.1466 31.735 98.9923 31.0335L99.8656 30.8119C100.007 30.7752 100.145 30.7385 100.281 30.7022C99.7287 32.7965 97.8112 33.6894 96.5058 34.0605L96.2052 34.14V34.14L95.9342 34.2014V34.2014L95.6989 34.247V34.247L95.4261 34.2903V34.2903L95.2356 34.3127V34.3127L99.5291 40.56L94.7713 41.6089C96.8138 44.2662 98.8603 45.4764 100.46 46.0119L100.785 46.1133V46.1133L101.096 46.197C101.146 46.2095 101.196 46.2214 101.246 46.2326L101.534 46.2925V46.2925L101.807 46.3385C101.851 46.3451 101.895 46.3512 101.937 46.3568L102.185 46.3847V46.3847L102.414 46.4025V46.4025L102.723 46.4135V46.4135L102.985 46.4103V46.4103L103.259 46.3927V46.3927L103.523 46.3568V46.3568C103.253 48.9496 101.322 49.2728 99.5471 48.9941L99.2165 48.9352V48.9352L98.8923 48.8646C98.8389 48.852 98.7859 48.839 98.7333 48.8257L98.4235 48.7422V48.7422L98.1267 48.6532V48.6532L97.8455 48.561V48.561L97.5827 48.4682V48.4682L97.2285 48.333V48.333L96.8451 48.1732V48.1732L96.5828 48.0548V48.0548L96.4577 47.9945V47.9945Z" fill="#E0A881"/>
<path d="M45.7865 129.045C35.9087 129.45 15.6158 118.152 13.0775 101.571C10.1362 101.104 5.23606 105.862 5.47292 109.152C10.9108 126.362 25.9874 135.416 38.2722 136.643C41.0923 136.62 46.1257 131.391 45.7865 129.045Z" fill="#AB6685"/>
<path d="M124.286 0.0329294L84.1138 0.222142C82.271 0.233285 80.5079 0.97096 79.211 2.27342C77.9141 3.57588 77.1893 5.33684 77.1955 7.17013L77.6747 107.861C77.6859 109.694 78.4274 111.448 79.7367 112.739C81.0459 114.029 82.816 114.75 84.6588 114.744L124.829 114.554C126.672 114.543 128.435 113.806 129.732 112.503C131.029 111.201 131.753 109.44 131.747 107.606L131.268 6.91545C131.257 5.08259 130.516 3.32888 129.207 2.03876C127.898 0.748635 126.129 0.0273305 124.286 0.0329294Z" fill="#4D4D4D"/>
<path d="M84.6439 112.772C83.3265 112.778 82.0604 112.265 81.1231 111.344C80.1858 110.423 79.6539 109.169 79.6439 107.859L79.1647 7.16091C79.1628 5.85048 79.683 4.5927 80.6113 3.66301C81.5397 2.73332 82.8005 2.20749 84.1177 2.20068L89.719 2.1743L89.7209 2.5793C89.7259 3.62631 90.1478 4.62869 90.8942 5.36684C91.6406 6.105 92.6507 6.51877 93.7031 6.51751L114.725 6.4185C115.779 6.41046 116.787 5.98783 117.529 5.24293C118.27 4.49803 118.686 3.49138 118.684 2.44288L118.682 2.03788L124.281 2.01151C125.596 2.00778 126.86 2.52268 127.795 3.44352C128.73 4.36437 129.26 5.61616 129.269 6.92492L129.748 107.623C129.751 108.932 129.233 110.188 128.307 111.118C127.381 112.048 126.123 112.574 124.807 112.583L84.6439 112.772Z" fill="#1A1A1A"/>
<rect width="44.0503" height="28.178" transform="matrix(0.999989 -0.00470997 0.0047587 0.999989 82.4387 67.7891)" fill="#1A1A1A"/>
<rect x="0.230734" y="0.228559" width="43.591" height="11.0052" rx="2.39485" transform="matrix(0.999989 -0.00470997 0.0047587 0.999989 82.4376 67.7902)" fill="#1A1A1A"/>
<rect x="0.230734" y="0.228559" width="43.591" height="11.0052" rx="2.39485" transform="matrix(0.999989 -0.00470997 0.0047587 0.999989 82.4376 67.7902)" stroke="#4D4D4D" stroke-width="0.459287"/>
<path opacity="0.5" fill-rule="evenodd" clip-rule="evenodd" d="M87.1533 71.3989C87.1533 71.2269 87.3233 71.104 87.4913 71.1546L90.3645 72.0198C90.4741 72.0528 90.5489 72.1519 90.5489 72.2641L90.5489 74.6687C90.5489 74.8407 90.3789 74.9636 90.2109 74.913L87.3377 74.0478C87.2281 74.0148 87.1533 73.9157 87.1533 73.8035L87.1533 71.3989Z" fill="#FF9ABF"/>
<path opacity="0.8" fill-rule="evenodd" clip-rule="evenodd" d="M86.5003 71.808C86.5003 71.6361 86.6704 71.5132 86.8383 71.5637L89.7115 72.429C89.8211 72.462 89.8959 72.561 89.8959 72.6733L89.896 75.0779C89.896 75.2499 89.7259 75.3728 89.558 75.3222L86.6848 74.457C86.5752 74.424 86.5004 74.3249 86.5004 74.2127L86.5003 71.808Z" fill="#F789B2"/>
<path fill-rule="evenodd" clip-rule="evenodd" d="M85.8474 72.3193C85.8474 72.1473 86.0174 72.0244 86.1854 72.075L89.0586 72.9402C89.1682 72.9732 89.243 73.0723 89.243 73.1845L89.243 75.5892C89.243 75.7611 89.073 75.884 88.905 75.8335L86.0318 74.9682C85.9222 74.9352 85.8474 74.8361 85.8474 74.7239L85.8474 72.3193Z" fill="#FF5B97"/>
<mask id="mask0_4679_4994" style="mask-type:luminance" maskUnits="userSpaceOnUse" x="85" y="72" width="5" height="4">
<path fill-rule="evenodd" clip-rule="evenodd" d="M85.8473 72.3193C85.8473 72.1473 86.0173 72.0244 86.1853 72.075L89.0585 72.9402C89.1681 72.9732 89.2429 73.0723 89.2429 73.1845L89.243 75.5892C89.243 75.7611 89.0729 75.884 88.905 75.8335L86.0317 74.9682C85.9221 74.9352 85.8474 74.8361 85.8474 74.7239L85.8473 72.3193Z" fill="white"/>
</mask>
<g mask="url(#mask0_4679_4994)">
<g style="mix-blend-mode:multiply">
<path fill-rule="evenodd" clip-rule="evenodd" d="M85.8473 71.8857L89.2429 72.9083L87.5356 74.3968C87.4082 74.5079 87.2078 74.4715 87.1296 74.3229L85.8473 71.8857Z" fill="#F2357A"/>
</g>
</g>
<path d="M93.9399 71.293L111.756 71.2934" stroke="#4D4D4D" stroke-width="1.11541" stroke-linecap="round"/>
<path d="M93.9399 74.0151L109.282 74.0155" stroke="#4D4D4D" stroke-width="0.459287" stroke-linecap="round"/>
<path d="M93.9399 75.4995L106.807 75.4998" stroke="#4D4D4D" stroke-width="0.459287" stroke-linecap="round"/>
<path d="M117.695 71.2935L123.881 71.2936" stroke="#4D4D4D" stroke-width="1.11541" stroke-linecap="round"/>
<rect x="0.230734" y="0.228559" width="43.591" height="11.0052" rx="2.39485" transform="matrix(0.999989 -0.00470997 0.0047587 0.999989 82.5171 84.5035)" fill="#1A1A1A"/>
<rect x="0.230734" y="0.228559" width="43.591" height="11.0052" rx="2.39485" transform="matrix(0.999989 -0.00470997 0.0047587 0.999989 82.5171 84.5035)" stroke="#4D4D4D" stroke-width="0.459287"/>
<path opacity="0.5" fill-rule="evenodd" clip-rule="evenodd" d="M87.2328 88.1122C87.2328 87.9403 87.4028 87.8174 87.5708 87.8679L90.444 88.7331C90.5536 88.7662 90.6284 88.8652 90.6284 88.9775L90.6285 91.3821C90.6285 91.5541 90.4584 91.677 90.2905 91.6264L87.4172 90.7612C87.3076 90.7282 87.2329 90.6291 87.2329 90.5169L87.2328 88.1122Z" fill="#FF9ABF"/>
<path opacity="0.8" fill-rule="evenodd" clip-rule="evenodd" d="M86.5798 88.5214C86.5798 88.3494 86.7499 88.2265 86.9178 88.2771L89.7911 89.1423C89.9007 89.1753 89.9755 89.2744 89.9755 89.3866L89.9755 91.7913C89.9755 91.9633 89.8055 92.0862 89.6375 92.0356L86.7643 91.1704C86.6547 91.1374 86.5799 91.0383 86.5799 90.9261L86.5798 88.5214Z" fill="#F789B2"/>
<path fill-rule="evenodd" clip-rule="evenodd" d="M85.9269 89.0326C85.9269 88.8607 86.0969 88.7378 86.2649 88.7883L89.1381 89.6536C89.2477 89.6866 89.3225 89.7857 89.3225 89.8979L89.3226 92.3025C89.3226 92.4745 89.1525 92.5974 88.9846 92.5468L86.1113 91.6816C86.0017 91.6486 85.9269 91.5495 85.9269 91.4373L85.9269 89.0326Z" fill="#FF5B97"/>
<mask id="mask1_4679_4994" style="mask-type:luminance" maskUnits="userSpaceOnUse" x="85" y="88" width="5" height="5">
<path fill-rule="evenodd" clip-rule="evenodd" d="M85.9268 89.0326C85.9268 88.8607 86.0969 88.7378 86.2648 88.7883L89.1381 89.6536C89.2477 89.6866 89.3224 89.7857 89.3224 89.8979L89.3225 92.3025C89.3225 92.4745 89.1525 92.5974 88.9845 92.5468L86.1113 91.6816C86.0017 91.6486 85.9269 91.5495 85.9269 91.4373L85.9268 89.0326Z" fill="white"/>
</mask>
<g mask="url(#mask1_4679_4994)">
<g style="mix-blend-mode:multiply">
<path fill-rule="evenodd" clip-rule="evenodd" d="M85.9268 88.5991L89.3224 89.6217L87.6152 91.1102C87.4877 91.2213 87.2873 91.1848 87.2092 91.0363L85.9268 88.5991Z" fill="#F2357A"/>
</g>
</g>
<path d="M94.0194 88.0063L111.836 88.0068" stroke="#4D4D4D" stroke-width="1.11541" stroke-linecap="round"/>
<path d="M94.0195 90.7285L109.362 90.7289" stroke="#4D4D4D" stroke-width="0.459287" stroke-linecap="round"/>
<path d="M94.0195 92.2129L106.887 92.2132" stroke="#4D4D4D" stroke-width="0.459287" stroke-linecap="round"/>
<path d="M117.775 88.0068L123.961 88.007" stroke="#4D4D4D" stroke-width="1.11541" stroke-linecap="round"/>
<path d="M39.3693 100.48L39.4745 101.56L41.4604 101.054L42.2493 100.841L42.8877 100.66L43.3337 100.527L43.7949 100.384L44.2704 100.231L44.7593 100.066L45.2605 99.8891L45.7732 99.7L46.2964 99.498C46.3844 99.4632 46.4728 99.4279 46.5616 99.3919L47.0988 99.1694C47.2792 99.0928 47.461 99.0139 47.644 98.9324L48.1965 98.6804C48.3817 98.5939 48.568 98.5047 48.7551 98.4129L49.319 98.1292C49.6965 97.9346 50.0769 97.7288 50.4589 97.5111L51.033 97.1755C51.1288 97.1181 51.2247 97.0599 51.3206 97.0009L51.8966 96.6374C56.1214 93.9019 60.3506 89.6085 62.9004 82.7345L64.1725 79.2772L65.5198 75.5412L66.6199 72.4127L67.2557 70.5594L67.9256 68.5551L68.5891 66.4906L69.0822 64.8617L69.3116 64.0424L69.4163 63.6284L71.1999 61.9624L73.8078 59.4818L75.7539 57.5973L77.3097 56.0672L78.6349 54.7446L79.6961 53.6701L80.7446 52.5925L81.5151 51.7887L82.266 50.9935L82.9921 50.2114L83.688 49.4469L84.1325 48.9492L84.5597 48.4625L84.968 47.9883L85.3557 47.5279L85.7214 47.0825L86.0635 46.6535C86.1184 46.5834 86.1723 46.5141 86.2251 46.4455L86.5288 46.0436C86.7705 45.7166 86.9835 45.4101 87.1637 45.1276L87.6617 44.313L88.0428 43.6741L88.5255 42.8375L88.8639 42.2221L89.0765 41.818L89.2773 41.4189L89.4656 41.025L89.6402 40.6366C89.6681 40.5723 89.6954 40.5083 89.722 40.4445L89.8743 40.0645C90.9808 37.1731 90.6634 34.7955 86.8912 33.2731C84.9343 32.4833 82.4945 33.7243 79.8773 35.8251L79.3516 36.2564C79.1756 36.4038 78.999 36.5546 78.8217 36.7085L78.2882 37.1794C78.199 37.2594 78.1096 37.34 78.0202 37.4213L77.4822 37.9164L76.9419 38.4251L76.1284 39.209L75.3127 40.0117L73.9537 41.3722L72.066 43.2699L71.2674 44.0611L70.7399 44.5761L69.9572 45.3245L69.4419 45.8044L68.9325 46.2667C67.4979 47.5493 66.1405 48.5942 64.9157 49.188C64.6932 49.2959 64.4685 49.4013 64.2417 49.5046L63.5548 49.8088L62.8559 50.1029C62.7384 50.1513 62.6205 50.1993 62.5021 50.247L61.7865 50.5305C61.6663 50.5773 61.5457 50.624 61.4247 50.6706L58.0692 51.9341L57.3031 52.2287L56.5311 52.5335L55.7541 52.8508C51.5977 54.5806 47.2551 56.947 43.2283 61.5731C40.5058 64.6952 39.3103 71.2186 38.8745 78.1075L38.8119 79.1978L38.7612 80.2915C38.7463 80.6564 38.7332 81.0214 38.7219 81.386L38.6931 82.4786L38.6743 83.5667L38.6647 84.6475C38.6639 84.8269 38.6634 85.0059 38.6632 85.1844L38.6707 86.777L38.6946 88.3354L38.7184 89.351L38.7478 90.3447L38.801 91.7887L38.8414 92.7163L38.9079 94.0485L38.9793 95.3019L39.0785 96.8347L39.2011 98.4985L39.3693 100.48Z" fill="#EECEB5"/>
<rect x="99.9796" y="22.0455" width="114.627" height="34.6433" rx="4.85531" fill="#1A1A1A" stroke="#4D4D4D" stroke-width="0.787348"/>
<path opacity="0.5" fill-rule="evenodd" clip-rule="evenodd" d="M110.321 33.4844C110.321 33.0284 110.775 32.7025 111.222 32.8366L118.88 35.1305C119.172 35.218 119.371 35.4808 119.371 35.7783V42.1543C119.371 42.6103 118.918 42.9362 118.47 42.8021L110.813 40.5082C110.521 40.4207 110.321 40.1579 110.321 39.8604V33.4844Z" fill="#FF9ABF"/>
<path opacity="0.8" fill-rule="evenodd" clip-rule="evenodd" d="M108.581 34.5688C108.581 34.1128 109.034 33.787 109.482 33.9211L117.139 36.215C117.432 36.3025 117.631 36.5653 117.631 36.8628V43.2388C117.631 43.6948 117.178 44.0207 116.73 43.8866L109.072 41.5926C108.78 41.5051 108.581 41.2424 108.581 40.9448V34.5688Z" fill="#F789B2"/>
<path fill-rule="evenodd" clip-rule="evenodd" d="M106.841 35.9243C106.841 35.4683 107.294 35.1424 107.741 35.2765L115.399 37.5705C115.691 37.658 115.891 37.9207 115.891 38.2183V44.5943C115.891 45.0503 115.437 45.3762 114.99 45.2421L107.332 42.9481C107.04 42.8606 106.841 42.5979 106.841 42.3003V35.9243Z" fill="#FF5B97"/>
<mask id="mask2_4679_4994" style="mask-type:luminance" maskUnits="userSpaceOnUse" x="106" y="35" width="10" height="11">
<path fill-rule="evenodd" clip-rule="evenodd" d="M106.841 35.9243C106.841 35.4683 107.294 35.1424 107.741 35.2765L115.399 37.5705C115.691 37.658 115.891 37.9207 115.891 38.2183V44.5943C115.891 45.0503 115.437 45.3762 114.99 45.2421L107.332 42.9481C107.04 42.8606 106.841 42.5979 106.841 42.3003V35.9243Z" fill="white"/>
</mask>
<g mask="url(#mask2_4679_4994)">
<g style="mix-blend-mode:multiply">
<path fill-rule="evenodd" clip-rule="evenodd" d="M106.841 34.7744L115.891 37.4855L111.34 41.4323C111 41.727 110.466 41.6304 110.258 41.2366L106.841 34.7744Z" fill="#F2357A"/>
</g>
</g>
<path d="M126.626 33.4624H174.11" stroke="#4D4D4D" stroke-width="1.96837" stroke-linecap="round"/>
<path d="M126.626 40.6797H167.515" stroke="#4D4D4D" stroke-width="0.787348" stroke-linecap="round"/>
<path d="M126.626 44.6167H160.92" stroke="#4D4D4D" stroke-width="0.787348" stroke-linecap="round"/>
<path d="M189.939 33.4619H206.426" stroke="#4D4D4D" stroke-width="1.96837" stroke-linecap="round"/>
</svg>
