<svg width="24" height="24" viewBox="0 0 24 24" fill="none" xmlns="http://www.w3.org/2000/svg">
<g clip-path="url(#clip0_1806_64548)">
<path fill-rule="evenodd" clip-rule="evenodd" d="M3.75 0.25C4.02614 0.25 4.25 0.473858 4.25 0.75V23.25C4.25 23.5261 4.02614 23.75 3.75 23.75C3.47386 23.75 3.25 23.5261 3.25 23.25V0.75C3.25 0.473858 3.47386 0.25 3.75 0.25Z" fill="black"/>
<path fill-rule="evenodd" clip-rule="evenodd" d="M3.39645 0.396447C3.59171 0.201184 3.90829 0.201184 4.10355 0.396447L7.10355 3.39645C7.29882 3.59171 7.29882 3.90829 7.10355 4.10355C6.90829 4.29882 6.59171 4.29882 6.39645 4.10355L3.75 1.45711L1.10355 4.10355C0.908291 4.29882 0.591709 4.29882 0.396447 4.10355C0.201184 3.90829 0.201184 3.59171 0.396447 3.39645L3.39645 0.396447Z" fill="black"/>
<path fill-rule="evenodd" clip-rule="evenodd" d="M0.396447 19.8964C0.591709 19.7012 0.908291 19.7012 1.10355 19.8964L3.75 22.5429L6.39645 19.8964C6.59171 19.7012 6.90829 19.7012 7.10355 19.8964C7.29882 20.0917 7.29882 20.4083 7.10355 20.6036L4.10355 23.6036C3.90829 23.7988 3.59171 23.7988 3.39645 23.6036L0.396447 20.6036C0.201184 20.4083 0.201184 20.0917 0.396447 19.8964Z" fill="black"/>
<path fill-rule="evenodd" clip-rule="evenodd" d="M15.25 0.75C15.25 0.473858 15.4739 0.25 15.75 0.25H23.25C23.5261 0.25 23.75 0.473858 23.75 0.75C23.75 1.02614 23.5261 1.25 23.25 1.25H15.75C15.4739 1.25 15.25 1.02614 15.25 0.75Z" fill="black"/>
<path fill-rule="evenodd" clip-rule="evenodd" d="M10.75 5.25C10.75 4.97386 10.9739 4.75 11.25 4.75H23.25C23.5261 4.75 23.75 4.97386 23.75 5.25C23.75 5.52614 23.5261 5.75 23.25 5.75H11.25C10.9739 5.75 10.75 5.52614 10.75 5.25Z" fill="black"/>
<path fill-rule="evenodd" clip-rule="evenodd" d="M10.75 9.75C10.75 9.47386 10.9739 9.25 11.25 9.25H23.25C23.5261 9.25 23.75 9.47386 23.75 9.75C23.75 10.0261 23.5261 10.25 23.25 10.25H11.25C10.9739 10.25 10.75 10.0261 10.75 9.75Z" fill="black"/>
<path fill-rule="evenodd" clip-rule="evenodd" d="M15.25 14.25C15.25 13.9739 15.4739 13.75 15.75 13.75H23.25C23.5261 13.75 23.75 13.9739 23.75 14.25C23.75 14.5261 23.5261 14.75 23.25 14.75H15.75C15.4739 14.75 15.25 14.5261 15.25 14.25Z" fill="black"/>
<path fill-rule="evenodd" clip-rule="evenodd" d="M10.75 18.75C10.75 18.4739 10.9739 18.25 11.25 18.25H23.25C23.5261 18.25 23.75 18.4739 23.75 18.75C23.75 19.0261 23.5261 19.25 23.25 19.25H11.25C10.9739 19.25 10.75 19.0261 10.75 18.75Z" fill="black"/>
<path fill-rule="evenodd" clip-rule="evenodd" d="M10.75 23.25C10.75 22.9739 10.9739 22.75 11.25 22.75H23.25C23.5261 22.75 23.75 22.9739 23.75 23.25C23.75 23.5261 23.5261 23.75 23.25 23.75H11.25C10.9739 23.75 10.75 23.5261 10.75 23.25Z" fill="black"/>
</g>
<defs>
<clipPath id="clip0_1806_64548">
<rect width="24" height="24" fill="white"/>
</clipPath>
</defs>
</svg>
