<svg width="24" height="24" viewBox="0 0 24 24" fill="none" xmlns="http://www.w3.org/2000/svg">
<path d="M12 12L23 12" stroke="#F44336" stroke-width="1.5" stroke-linecap="round" stroke-linejoin="round"/>
<path d="M19.5 15.754L23.25 12.004L19.5 8.25403" stroke="#F44336" stroke-width="1.5" stroke-linecap="round" stroke-linejoin="round"/>
<path d="M17.2872 16.2857V20.5714C17.3035 20.9329 17.176 21.2861 16.9325 21.5539C16.6891 21.8216 16.3495 21.982 15.9881 22H4.29953C3.9383 21.9817 3.59898 21.8212 3.35574 21.5535C3.1125 21.2858 2.98512 20.9328 3.00144 20.5714V3.42857C2.98486 3.06718 3.11216 2.71394 3.35545 2.4462C3.59874 2.17845 3.93821 2.01801 4.29953 2H15.9881C16.3495 2.01801 16.6891 2.17842 16.9325 2.44614C17.176 2.71386 17.3035 3.06709 17.2872 3.42857V7.71429" stroke="#F44336" stroke-width="1.42857" stroke-linecap="round" stroke-linejoin="round"/>
</svg>
