<svg width="24" height="24" viewBox="0 0 24 24" fill="none" xmlns="http://www.w3.org/2000/svg">
<g clip-path="url(#clip0_17567_13569)">
<path d="M12 0C12.2761 0 12.5 0.223858 12.5 0.5V2C12.5 2.27614 12.2761 2.5 12 2.5C11.7239 2.5 11.5 2.27614 11.5 2V0.5C11.5 0.223858 11.7239 0 12 0Z" fill="#BC0055"/>
<path fill-rule="evenodd" clip-rule="evenodd" d="M6.34315 6.34315C7.84344 4.84286 9.87827 4.00001 12 4.00001C14.1217 4.00001 16.1566 4.84286 17.6569 6.34315C19.1571 7.84344 20 9.87827 20 12C20 14.1217 19.1571 16.1566 17.6569 17.6569C16.1566 19.1572 14.1217 20 12 20C9.87827 20 7.84344 19.1572 6.34315 17.6569C4.84285 16.1566 4 14.1217 4 12C4 9.87827 4.84285 7.84344 6.34315 6.34315ZM12 5.00001C10.1435 5.00001 8.36301 5.7375 7.05025 7.05026C5.7375 8.36301 5 10.1435 5 12C5 13.8565 5.7375 15.637 7.05025 16.9498C8.36301 18.2625 10.1435 19 12 19C13.8565 19 15.637 18.2625 16.9497 16.9498C18.2625 15.637 19 13.8565 19 12C19 10.1435 18.2625 8.36301 16.9497 7.05026C15.637 5.7375 13.8565 5.00001 12 5.00001Z" fill="#BC0055"/>
<path d="M20.7171 3.98991C20.9124 3.79464 20.9124 3.47806 20.7171 3.2828C20.5219 3.08754 20.2053 3.08754 20.01 3.2828L18.9646 4.32825C18.7693 4.52352 18.7693 4.8401 18.9646 5.03536C19.1598 5.23062 19.4764 5.23062 19.6717 5.03536L20.7171 3.98991Z" fill="#BC0055"/>
<path d="M21.5 12C21.5 11.7239 21.7239 11.5 22 11.5H23.5C23.7761 11.5 24 11.7239 24 12C24 12.2761 23.7761 12.5 23.5 12.5H22C21.7239 12.5 21.5 12.2761 21.5 12Z" fill="#BC0055"/>
<path d="M19.6717 18.9646C19.4764 18.7694 19.1598 18.7694 18.9646 18.9646C18.7693 19.1599 18.7693 19.4765 18.9646 19.6717L20.01 20.7172C20.2053 20.9124 20.5219 20.9124 20.7171 20.7172C20.9124 20.5219 20.9124 20.2053 20.7171 20.0101L19.6717 18.9646Z" fill="#BC0055"/>
<path d="M12 21.5C12.2761 21.5 12.5 21.7239 12.5 22V23.5C12.5 23.7761 12.2761 24 12 24C11.7239 24 11.5 23.7761 11.5 23.5V22C11.5 21.7239 11.7239 21.5 12 21.5Z" fill="#BC0055"/>
<path d="M5.03548 19.6717C5.23074 19.4765 5.23074 19.1599 5.03548 18.9646C4.84022 18.7694 4.52364 18.7694 4.32838 18.9646L3.28292 20.0101C3.08766 20.2053 3.08766 20.5219 3.28292 20.7172C3.47818 20.9124 3.79477 20.9124 3.99003 20.7172L5.03548 19.6717Z" fill="#BC0055"/>
<path d="M0 12C0 11.7239 0.223858 11.5 0.5 11.5H2C2.27614 11.5 2.5 11.7239 2.5 12C2.5 12.2761 2.27614 12.5 2 12.5H0.5C0.223858 12.5 0 12.2761 0 12Z" fill="#BC0055"/>
<path d="M3.99003 3.2828C3.79477 3.08754 3.47818 3.08754 3.28292 3.2828C3.08766 3.47806 3.08766 3.79464 3.28292 3.98991L4.32838 5.03536C4.52364 5.23062 4.84022 5.23062 5.03548 5.03536C5.23074 4.8401 5.23074 4.52352 5.03548 4.32825L3.99003 3.2828Z" fill="#BC0055"/>
</g>
<defs>
<clipPath id="clip0_17567_13569">
<rect width="24" height="24" fill="white"/>
</clipPath>
</defs>
</svg>
