<svg width="24" height="24" viewBox="0 0 24 24" fill="none" xmlns="http://www.w3.org/2000/svg">
<path d="M15.2201 23.792C14.8191 23.792 14.4421 23.636 14.1591 23.353L0.652055 9.84701C0.373055 9.56801 0.213055 9.18101 0.213055 8.78701L0.206055 1.70801C0.206055 0.880008 0.879055 0.208008 1.70605 0.208008H8.78305C9.18505 0.208008 9.56105 0.364008 9.84405 0.646008L23.3521 14.162C23.9371 14.747 23.9371 15.699 23.3521 16.283L16.2801 23.353C15.9971 23.636 15.6211 23.792 15.2201 23.792ZM1.70605 1.20701C1.43005 1.20701 1.20605 1.43101 1.20605 1.70701L1.21305 8.78501C1.21305 8.91701 1.26605 9.04601 1.35905 9.13901L14.8661 22.645C14.9601 22.739 15.0861 22.791 15.2191 22.791C15.3521 22.791 15.4781 22.739 15.5731 22.645L22.6451 15.575C22.8401 15.38 22.8401 15.063 22.6451 14.868L9.13705 1.35301C9.04405 1.26001 8.91605 1.20701 8.78505 1.20701H1.70605Z" fill="#0098FF"/>
<path d="M5.70643 7.72243C4.59443 7.72243 3.69043 6.81843 3.69043 5.70643C3.69043 4.59443 4.59443 3.69043 5.70643 3.69043C6.81843 3.69043 7.72243 4.59443 7.72243 5.70643C7.72243 6.81843 6.81743 7.72243 5.70643 7.72243ZM5.70643 4.69043C5.14643 4.69043 4.69043 5.14643 4.69043 5.70643C4.69043 6.26643 5.14643 6.72243 5.70643 6.72243C6.26643 6.72243 6.72243 6.26643 6.72243 5.70643C6.72243 5.14643 6.26643 4.69043 5.70643 4.69043Z" fill="#0098FF"/>
</svg>
