<svg width="24" height="24" viewBox="0 0 24 24" fill="none" xmlns="http://www.w3.org/2000/svg">
<path fill-rule="evenodd" clip-rule="evenodd" d="M12 24C5.37258 24 -9.50099e-07 18.6274 -1.23979e-06 12C-1.52949e-06 5.37258 5.37258 9.89745e-08 12 -1.90719e-07C18.6274 -4.80413e-07 24 5.37258 24 12C23.9925 18.6243 18.6243 23.9925 12 24ZM12.5035 18.5455C13.0596 18.5455 13.5105 18.0946 13.5105 17.5385L13.5105 13.7622C13.5105 13.6232 13.6232 13.5105 13.7622 13.5105L17.5385 13.5105C18.0946 13.5105 18.5455 13.0596 18.5455 12.5035L18.5455 11.4965C18.5455 10.9404 18.0946 10.4895 17.5385 10.4895L13.7622 10.4895C13.6232 10.4895 13.5105 10.3768 13.5105 10.2378L13.5105 6.46154C13.5105 5.90539 13.0596 5.45455 12.5035 5.45455L11.4965 5.45455C10.9404 5.45455 10.4895 5.90539 10.4895 6.46154L10.4895 10.2378C10.4895 10.3768 10.3768 10.4895 10.2378 10.4895L6.46154 10.4895C5.90539 10.4895 5.45454 10.9404 5.45454 11.4965L5.45454 12.5035C5.45454 13.0596 5.90539 13.5105 6.46154 13.5105L10.2378 13.5105C10.3768 13.5105 10.4895 13.6232 10.4895 13.7622L10.4895 17.5385C10.4895 18.0946 10.9404 18.5455 11.4965 18.5455L12.5035 18.5455Z" fill="black"/>
</svg>
