<svg width="91" height="80" viewBox="0 0 91 80" fill="none" xmlns="http://www.w3.org/2000/svg">
<path d="M0.92277 21.6831H90.0773V72.7928C90.0773 76.6779 86.9278 79.8274 83.0427 79.8274H7.95734C4.07226 79.8274 0.92277 76.6779 0.92277 72.7928V21.6831Z" fill="#666666" stroke="#E0E0E0" stroke-width="0.242268"/>
<path d="M42.5671 55.3616L1.14265 21.6831H89.8574L48.433 55.3616C46.7244 56.7506 44.2757 56.7506 42.5671 55.3616Z" fill="#333333" stroke="#E0E0E0" stroke-width="0.242268"/>
<path d="M47.5474 1.13916L89.4341 21.6831L1.56597 21.6831L43.4527 1.13917C44.7441 0.505777 46.256 0.505777 47.5474 1.13916Z" fill="#333333" stroke="#E0E0E0" stroke-width="0.242268"/>
<path d="M48.7722 46.9639L82.4965 79.8789L8.55305 79.8789L42.2774 46.9639C44.0835 45.2011 46.9661 45.2011 48.7722 46.9639Z" fill="#666666" stroke="#E0E0E0" stroke-width="0.242268"/>
</svg>
