<svg width="91" height="80" viewBox="0 0 91 80" fill="none" xmlns="http://www.w3.org/2000/svg">
<path d="M0.92277 21.6829H90.0773V72.7926C90.0773 76.6777 86.9278 79.8272 83.0428 79.8272H7.95734C4.07226 79.8272 0.92277 76.6777 0.92277 72.7926V21.6829Z" fill="#FAFAFA" stroke="#9F9F9F" stroke-width="0.242268"/>
<path d="M42.5671 55.3613L1.14265 21.6829H89.8574L48.433 55.3613C46.7244 56.7504 44.2757 56.7504 42.5671 55.3613Z" fill="#F1F1F1" stroke="#9F9F9F" stroke-width="0.242268"/>
<path d="M47.5474 1.13916L89.4341 21.6831L1.56595 21.6831L43.4527 1.13916C44.7441 0.505775 46.256 0.505777 47.5474 1.13916Z" fill="#F1F1F1" stroke="#9F9F9F" stroke-width="0.242268"/>
<path d="M48.7722 46.9639L82.4965 79.8789L8.55304 79.8789L42.2774 46.9639C44.0835 45.2011 46.9661 45.2011 48.7722 46.9639Z" fill="#FAFAFA" stroke="#9F9F9F" stroke-width="0.242268"/>
</svg>
