<svg width="98" height="80" viewBox="0 0 98 80" fill="none" xmlns="http://www.w3.org/2000/svg">
<path fill-rule="evenodd" clip-rule="evenodd" d="M0.924683 26.7285L45.9148 0.994374C47.6522 -0.000728741 50.3477 -0.000728741 52.085 0.994374L97.0752 26.7285V26.7723H0.924683V26.7285ZM97.0752 26.7725H0.924683V79.7514H97.0752V26.7725Z" fill="#F1F1F1"/>
<path fill-rule="evenodd" clip-rule="evenodd" d="M49 -0.000244141C50.1418 -0.000244141 51.2947 0.255477 52.2085 0.778927L97.2181 26.5242H97.3236V79.9998H0.676453V26.5242H0.781922L45.7915 0.778927C46.7054 0.255477 47.8583 -0.000244141 49 -0.000244141ZM1.17311 27.0208V79.5031H96.8269V27.0208H1.17311ZM96.2175 26.524L51.9618 1.20997C51.1384 0.738317 50.0747 0.496414 49 0.496414C47.9254 0.496414 46.8618 0.738244 46.0383 1.2099L1.78251 26.524H96.2175Z" fill="#E0E0E0"/>
<path d="M1.07554 26.7856L96.4154 79.355C96.3607 79.5672 96.3673 79.539 96.3126 79.7512H1.13853C1.02083 79.7512 0.924683 79.6551 0.924683 79.5374V26.8751C0.924683 26.7972 1.00757 26.7474 1.07554 26.7856Z" fill="#F5F5F5"/>
<path fill-rule="evenodd" clip-rule="evenodd" d="M1.17311 27.1229V79.5029H96.1205C96.1216 79.4987 96.1227 79.4945 96.1238 79.4904L96.1245 79.4876C96.1253 79.4848 96.126 79.4821 96.1267 79.4794L1.17311 27.1229ZM1.19614 26.5685C0.958565 26.4361 0.676453 26.6127 0.676453 26.8751V79.5374C0.676453 79.7922 0.883787 79.9996 1.13863 79.9996H96.5051L96.5532 79.8132C96.5634 79.7735 96.5715 79.7423 96.5782 79.7163C96.5894 79.6731 96.5969 79.6445 96.6043 79.6159C96.6164 79.5697 96.6285 79.5235 96.6559 79.417L96.704 79.2306L1.19713 26.569C1.1968 26.5688 1.19647 26.5686 1.19614 26.5685Z" fill="#E0E0E0"/>
<path d="M96.9244 26.7626L49 53.1874L96.4154 79.3321C96.3607 79.5426 96.3674 79.5177 96.3127 79.7283H96.8614C96.9791 79.7283 97.0752 79.6321 97.0752 79.5144V26.8505C97.0752 26.7742 96.9923 26.7245 96.9244 26.7626Z" fill="#F5F5F5"/>
<path fill-rule="evenodd" clip-rule="evenodd" d="M96.8041 26.5456C97.0387 26.4152 97.3236 26.5866 97.3236 26.8508V79.5147C97.3236 79.7695 97.1163 79.9769 96.8614 79.9769H95.9916L96.0723 79.6661C96.0997 79.5609 96.1117 79.5146 96.1237 79.4682C96.1247 79.4644 96.1257 79.4605 96.1267 79.4567L48.4857 53.1877L96.8029 26.5463C96.8033 26.5461 96.8037 26.5459 96.8041 26.5456ZM96.6336 79.4802H96.8269V27.1002L49.5143 53.1877L96.7043 79.208L96.6558 79.3948C96.647 79.4287 96.6398 79.4565 96.6336 79.4802Z" fill="#E0E0E0"/>
</svg>
