<svg width="113" height="80" viewBox="0 0 113 80" fill="none" xmlns="http://www.w3.org/2000/svg">
<path d="M11.75 21.8115H100.647V72.7923C100.647 76.6063 97.5551 79.6981 93.7412 79.6981H18.6557C14.8418 79.6981 11.75 76.6063 11.75 72.7923V21.8115Z" fill="#666666" stroke="#E0E0E0" stroke-width="0.5"/>
<path d="M53.3468 55.2611L12.2038 21.8115H100.193L59.0501 55.2611C57.3889 56.6117 55.008 56.6117 53.3468 55.2611Z" fill="#333333" stroke="#E0E0E0" stroke-width="0.5"/>
<path d="M100.655 21.8042L11.7422 21.8042L54.0977 1.03041C55.4228 0.380517 56.974 0.380518 58.2991 1.03041L100.655 21.8042Z" fill="#333333" stroke="#E0E0E0" stroke-width="0.5"/>
<path d="M59.3805 47.0556L92.8784 79.7495L19.5679 79.7495L53.0657 47.0556C54.8218 45.3417 57.6245 45.3417 59.3805 47.0556Z" fill="#666666" stroke="#E0E0E0" stroke-width="0.5"/>
</svg>
