<svg width="27" height="27" viewBox="0 0 27 27" fill="none" xmlns="http://www.w3.org/2000/svg">
<g clip-path="url(#clip0_4680_48953)">
<path d="M23.261 13.2C23.2906 13.0545 23.2876 9.90427 23.252 9.76013C23.2164 9.61599 23.1491 9.48159 23.0551 9.36669C22.961 9.25179 22.8426 9.15926 22.7084 9.09584C22.5741 9.03241 22.4274 8.99967 22.279 9H10.42C10.1893 9.00028 9.96555 8.92078 9.78676 8.77498C9.60797 8.62918 9.48509 8.42604 9.43895 8.2L9.16095 6.8C9.11481 6.57396 8.99194 6.37082 8.81315 6.22502C8.63436 6.07922 8.41066 5.99972 8.17995 6H1.71995C1.57157 5.99982 1.425 6.03267 1.29088 6.09616C1.15676 6.15965 1.03845 6.25219 0.944534 6.36708C0.850616 6.48196 0.783443 6.61631 0.747885 6.76037C0.712327 6.90444 0.709277 7.05461 0.738954 7.2L3.33895 20.2C3.38509 20.426 3.50797 20.6292 3.68676 20.775C3.86555 20.9208 4.08925 21.0003 4.31995 21H13" stroke="black" stroke-linecap="round" stroke-linejoin="round"/>
<path d="M17.4151 25.9051C17.3124 25.9051 17.2088 25.8914 17.108 25.8648C16.8037 25.7832 16.5498 25.588 16.3921 25.3157C16.2097 25.0004 16.185 24.6108 16.3252 24.2735L17.5159 21.5346L15.3802 19.6326C14.9136 19.2193 14.8705 18.5034 15.2839 18.0368C15.503 17.7912 15.8018 17.6555 16.1263 17.6555L16.1749 17.6564H18.6058L19.8991 14.6609C20.1209 14.2466 20.5288 14 20.9697 14C21.1641 14 21.3584 14.0495 21.5307 14.1421C21.736 14.2521 21.9029 14.4189 22.0138 14.6242C22.0165 14.6297 22.0284 14.6536 22.0312 14.66L23.3227 17.6564H25.7664L25.8031 17.6555C26.0818 17.6555 26.3512 17.7627 26.5611 17.958C26.783 18.1633 26.9113 18.4429 26.9223 18.7454C26.9351 19.0845 26.7976 19.4081 26.5446 19.6336L24.4098 21.5356L25.5969 24.268C25.7197 24.5623 25.7206 24.8831 25.6014 25.1746C25.4823 25.466 25.2559 25.6934 24.9662 25.8144C24.8232 25.8739 24.6711 25.9042 24.5143 25.9042C24.3063 25.9042 24.1028 25.8501 23.924 25.7474L20.9633 24.0792L17.999 25.7502C17.8221 25.851 17.6195 25.9051 17.4151 25.9051ZM16.1391 18.5721C16.0713 18.5721 16.0136 18.5969 15.9714 18.6445C15.9338 18.6867 15.9146 18.7417 15.9182 18.7994C15.9219 18.8572 15.9466 18.9085 15.9897 18.947L18.3739 21.0708C18.5224 21.2037 18.5682 21.4146 18.4894 21.5961L17.1694 24.6328C17.141 24.7016 17.1474 24.7887 17.1868 24.8574C17.2217 24.9179 17.2785 24.961 17.3454 24.9793C17.3683 24.9857 17.3912 24.9885 17.4142 24.9885C17.4591 24.9885 17.504 24.9766 17.5443 24.9527L20.7378 23.1534C20.8066 23.1149 20.8845 23.0947 20.9633 23.0947C21.0422 23.0947 21.1201 23.1149 21.1888 23.1534L24.3787 24.9509C24.4208 24.9756 24.4676 24.9885 24.5143 24.9885C24.5492 24.9885 24.5822 24.9821 24.6133 24.9692C24.7471 24.9133 24.8095 24.7602 24.7545 24.6273L23.4373 21.597C23.3585 21.4155 23.4043 21.2047 23.5528 21.0727L25.936 18.9488C25.9837 18.9058 26.0103 18.8444 26.0075 18.7802C26.0057 18.7234 25.9809 18.6693 25.9388 18.6308C25.8975 18.5923 25.8462 18.5721 25.7903 18.5721H23.0211C22.8378 18.5721 22.6719 18.463 22.6004 18.2944L21.1998 15.0459C21.1741 15.0046 21.1384 14.9707 21.0962 14.9478C21.0559 14.9258 21.0119 14.9148 20.9661 14.9148C20.8643 14.9148 20.7708 14.9698 20.7232 15.0587L19.3281 18.2953C19.2557 18.463 19.0907 18.5721 18.9073 18.5721H16.1391Z" fill="black"/>
</g>
<defs>
<clipPath id="clip0_4680_48953">
<rect width="27" height="27" fill="white"/>
</clipPath>
</defs>
</svg>
