<svg width="24" height="24" viewBox="0 0 24 24" fill="none" xmlns="http://www.w3.org/2000/svg">
<g clip-path="url(#clip0_1793_62738)">
<path fill-rule="evenodd" clip-rule="evenodd" d="M3.21967 0.21967C3.51256 -0.0732233 3.98744 -0.0732233 4.28033 0.21967L7.28033 3.21967C7.57322 3.51256 7.57322 3.98744 7.28033 4.28033C6.98744 4.57322 6.51256 4.57322 6.21967 4.28033L4.5 2.56066V21.4393L6.21967 19.7197C6.51256 19.4268 6.98744 19.4268 7.28033 19.7197C7.57322 20.0126 7.57322 20.4874 7.28033 20.7803L4.28033 23.7803C3.98744 24.0732 3.51256 24.0732 3.21967 23.7803L0.21967 20.7803C-0.0732233 20.4874 -0.0732233 20.0126 0.21967 19.7197C0.512563 19.4268 0.987437 19.4268 1.28033 19.7197L3 21.4393V2.56066L1.28033 4.28033C0.987437 4.57322 0.512563 4.57322 0.21967 4.28033C-0.0732233 3.98744 -0.0732233 3.51256 0.21967 3.21967L3.21967 0.21967ZM15 0.75C15 0.335786 15.3358 0 15.75 0H23.25C23.6642 0 24 0.335786 24 0.75C24 1.16421 23.6642 1.5 23.25 1.5H15.75C15.3358 1.5 15 1.16421 15 0.75ZM10.5 5.25C10.5 4.83579 10.8358 4.5 11.25 4.5H23.25C23.6642 4.5 24 4.83579 24 5.25C24 5.66421 23.6642 6 23.25 6H11.25C10.8358 6 10.5 5.66421 10.5 5.25ZM10.5 9.75C10.5 9.33579 10.8358 9 11.25 9H23.25C23.6642 9 24 9.33579 24 9.75C24 10.1642 23.6642 10.5 23.25 10.5H11.25C10.8358 10.5 10.5 10.1642 10.5 9.75ZM15 14.25C15 13.8358 15.3358 13.5 15.75 13.5H23.25C23.6642 13.5 24 13.8358 24 14.25C24 14.6642 23.6642 15 23.25 15H15.75C15.3358 15 15 14.6642 15 14.25ZM10.5 18.75C10.5 18.3358 10.8358 18 11.25 18H23.25C23.6642 18 24 18.3358 24 18.75C24 19.1642 23.6642 19.5 23.25 19.5H11.25C10.8358 19.5 10.5 19.1642 10.5 18.75ZM10.5 23.25C10.5 22.8358 10.8358 22.5 11.25 22.5H23.25C23.6642 22.5 24 22.8358 24 23.25C24 23.6642 23.6642 24 23.25 24H11.25C10.8358 24 10.5 23.6642 10.5 23.25Z" fill="black"/>
</g>
<defs>
<clipPath id="clip0_1793_62738">
<rect width="24" height="24" fill="white"/>
</clipPath>
</defs>
</svg>
