<svg width="24" height="24" viewBox="0 0 24 24" fill="none" xmlns="http://www.w3.org/2000/svg">
<g clip-path="url(#clip0_16777_12494)">
<path fill-rule="evenodd" clip-rule="evenodd" d="M9.57447 1.79927C11.4812 1.00455 13.5793 0.796614 15.6034 1.20176C17.6275 1.6069 19.4868 2.60693 20.9462 4.07538C22.4055 5.54383 23.3993 7.41475 23.8019 9.45155C24.2046 11.4884 23.9979 13.5996 23.2081 15.5182C22.4184 17.4368 21.0809 19.0767 19.3649 20.2304C17.6489 21.3842 15.6315 22 13.5677 22C13.2795 22 13.0459 21.7649 13.0459 21.475C13.0459 21.1851 13.2795 20.95 13.5677 20.95C15.4251 20.95 17.2408 20.3958 18.7852 19.3574C20.3296 18.319 21.5333 16.8431 22.2441 15.1164C22.9549 13.3896 23.1409 11.4895 22.7785 9.6564C22.4161 7.82328 21.5217 6.13945 20.2083 4.81784C18.8949 3.49624 17.2216 2.59621 15.3998 2.23158C13.5781 1.86695 11.6898 2.05409 9.97379 2.76934C8.25776 3.48459 6.79104 4.69582 5.75912 6.24987C4.72719 7.80391 4.1764 9.63097 4.1764 11.5V11.6693L6.91418 8.52089C7.10392 8.30268 7.43354 8.28057 7.65039 8.4715C7.86725 8.66243 7.88922 8.99411 7.69947 9.21232L4.07146 13.3845C3.97624 13.5116 3.82498 13.5937 3.65466 13.5937C3.46068 13.5937 3.29143 13.4872 3.20152 13.3291L0.0901225 8.63282C-0.0697131 8.39157 -0.00492688 8.06561 0.234827 7.90478C0.47458 7.74394 0.798511 7.80913 0.958347 8.05039L3.13422 11.3346C3.16582 9.31565 3.77537 7.34736 4.8915 5.66652C6.03808 3.9398 7.66777 2.59399 9.57447 1.79927ZM13.5677 5.7229C13.8558 5.7229 14.0894 5.95795 14.0894 6.2479V11.4979H18.7851C19.0732 11.4979 19.3068 11.733 19.3068 12.0229C19.3068 12.3129 19.0732 12.5479 18.7851 12.5479H13.5677C13.2795 12.5479 13.0459 12.3129 13.0459 12.0229V6.2479C13.0459 5.95795 13.2795 5.7229 13.5677 5.7229Z" fill="#BC0055"/>
</g>
<defs>
<clipPath id="clip0_16777_12494">
<rect width="24" height="24" fill="white"/>
</clipPath>
</defs>
</svg>
