<svg width="24" height="25" viewBox="0 0 24 25" fill="none" xmlns="http://www.w3.org/2000/svg">
<path d="M0.893832 15.2768L1.38347 15.1756L1.37921 15.155L1.37324 15.1348L0.893832 15.2768ZM3.44545 10.1627L3.24853 9.7031L3.23329 9.70963L3.21851 9.71716L3.44545 10.1627ZM18.8033 18.8053L18.8033 19.3053L18.82 19.3053L18.8367 19.3042L18.8033 18.8053ZM22.6966 16.3657L22.2544 16.1323L22.2544 16.1323L22.6966 16.3657ZM22.0434 11.4509L21.6879 11.8027L21.6945 11.8091L22.0434 11.4509ZM17.2759 9.83808C17.0186 9.93855 16.8916 10.2285 16.9921 10.4857C17.0925 10.7429 17.3825 10.87 17.6397 10.7695L17.2759 9.83808ZM6.37397 9.98141L6.23542 10.4618C6.36405 10.4989 6.50218 10.4829 6.61889 10.4173C6.73559 10.3517 6.82113 10.2421 6.85635 10.113L6.37397 9.98141ZM13.7513 6.60516C13.9902 6.74362 14.2961 6.66218 14.4346 6.42326C14.573 6.18434 14.4916 5.87841 14.2527 5.73995L13.7513 6.60516ZM8.64727 6.47134L8.38621 6.04491L8.37668 6.05075L8.36741 6.05701L8.64727 6.47134ZM8.44054 18.3053C8.1644 18.3053 7.94054 18.5292 7.94055 18.8053C7.94055 19.0815 8.1644 19.3053 8.44055 19.3053L8.44054 18.3053ZM2.285 18.4078C2.50318 18.577 2.81727 18.5374 2.98654 18.3192C3.15581 18.101 3.11617 17.7869 2.89799 17.6177L2.285 18.4078ZM0.893832 15.2768C1.37324 15.1348 1.37332 15.1351 1.37339 15.1353C1.3734 15.1354 1.37347 15.1356 1.37351 15.1357C1.37358 15.136 1.37364 15.1362 1.37369 15.1364C1.37378 15.1367 1.37381 15.1368 1.37379 15.1367C1.37375 15.1366 1.37349 15.1356 1.37303 15.134C1.37211 15.1306 1.37039 15.1243 1.36804 15.1152C1.36334 15.0968 1.35613 15.0671 1.34769 15.0273C1.33078 14.9475 1.3091 14.8276 1.29271 14.6768C1.25979 14.374 1.24903 13.954 1.33616 13.4862C1.50661 12.5711 2.05653 11.4313 3.67239 10.6082L3.44545 10.1627L3.21851 9.71716C1.30096 10.6939 0.575068 12.1112 0.353063 13.3031C0.243964 13.8889 0.257815 14.41 0.298564 14.7849C0.319005 14.9729 0.346422 15.1261 0.369404 15.2345C0.380907 15.2888 0.391338 15.3321 0.399296 15.3632C0.403276 15.3788 0.406642 15.3913 0.40922 15.4006C0.410509 15.4052 0.411602 15.4091 0.412476 15.4122C0.412913 15.4137 0.413296 15.415 0.413622 15.4161C0.413784 15.4167 0.413933 15.4172 0.414067 15.4176C0.414134 15.4179 0.414223 15.4182 0.414257 15.4183C0.414342 15.4186 0.414424 15.4189 0.893832 15.2768ZM18.8033 18.8053L18.8367 19.3042C20.7548 19.1759 22.3517 18.0904 23.1388 16.599L22.6966 16.3657L22.2544 16.1323C21.6326 17.3104 20.3492 18.2008 18.77 18.3064L18.8033 18.8053ZM22.6966 16.3657L23.1388 16.599C24.1098 14.7592 23.9044 12.5656 22.3923 11.0928L22.0434 11.4509L21.6945 11.8091C22.8507 12.9353 23.0445 14.6352 22.2544 16.1323L22.6966 16.3657ZM22.0434 11.4509L22.3988 11.0993C21.6565 10.349 19.696 8.89272 17.2759 9.83808L17.4578 10.3038L17.6397 10.7695C19.4851 10.0487 21.0317 11.1394 21.688 11.8026L22.0434 11.4509ZM3.44545 10.1627L3.64238 10.6223C4.18162 10.3912 5.28287 10.1871 6.23542 10.4618L6.37397 9.98141L6.51252 9.50099C5.29109 9.14875 3.94998 9.40255 3.24853 9.7031L3.44545 10.1627ZM14.002 6.17256L14.2527 5.73995C13.6781 5.40698 12.7065 5.18991 11.6673 5.1908C10.6155 5.19169 9.41473 5.41526 8.38621 6.04491L8.64727 6.47134L8.90833 6.89778C9.73701 6.39047 10.7424 6.19159 11.6681 6.1908C12.6063 6.19 13.3835 6.39201 13.7513 6.60516L14.002 6.17256ZM8.64727 6.47134L8.36741 6.05701C6.68647 7.1924 6.202 8.7116 5.89159 9.84986L6.37397 9.98141L6.85635 10.113C7.15247 9.02712 7.55728 7.81096 8.92714 6.88568L8.64727 6.47134ZM8.44055 18.8053L8.44055 19.3053L18.8033 19.3053L18.8033 18.8053L18.8033 18.3053L8.44054 18.3053L8.44055 18.8053ZM0.893832 15.2768C0.404194 15.3781 0.404227 15.3783 0.404262 15.3784C0.404275 15.3785 0.404311 15.3787 0.404338 15.3788C0.404391 15.3791 0.404451 15.3793 0.404515 15.3796C0.404645 15.3803 0.404797 15.381 0.404972 15.3818C0.405322 15.3835 0.405764 15.3855 0.4063 15.388C0.407372 15.3929 0.408822 15.3995 0.41067 15.4075C0.414365 15.4237 0.419657 15.446 0.426713 15.474C0.440817 15.5298 0.462016 15.6082 0.491659 15.7044C0.550829 15.8965 0.644298 16.1619 0.783297 16.4624C1.05931 17.0592 1.52648 17.8193 2.285 18.4078L2.59149 18.0127L2.89799 17.6177C2.30835 17.1602 1.92668 16.5524 1.69091 16.0426C1.57401 15.7899 1.49584 15.5675 1.44735 15.4101C1.42317 15.3315 1.40653 15.2697 1.39625 15.229C1.39112 15.2087 1.38759 15.1937 1.3855 15.1846C1.38446 15.1801 1.38378 15.177 1.38345 15.1755C1.38329 15.1747 1.38321 15.1743 1.38321 15.1743C1.38321 15.1743 1.38323 15.1744 1.38328 15.1747C1.3833 15.1748 1.38333 15.1749 1.38336 15.175C1.38337 15.1751 1.3834 15.1753 1.38341 15.1753C1.38344 15.1754 1.38347 15.1756 0.893832 15.2768Z" fill="#9F9F9F"/>
<line x1="0.5" y1="-0.5" x2="27.5" y2="-0.5" transform="matrix(-0.707107 0.707107 0.707107 0.707107 21.588 3.47711)" stroke="#9F9F9F" stroke-linecap="round"/>
</svg>
