<svg width="24" height="24" viewBox="0 0 24 24" fill="none" xmlns="http://www.w3.org/2000/svg">
<g clip-path="url(#clip0_1793_62520)">
<path d="M12 23.25C18.2132 23.25 23.25 18.2132 23.25 12C23.25 5.7868 18.2132 0.75 12 0.75C5.7868 0.75 0.75 5.7868 0.75 12C0.75 18.2132 5.7868 23.25 12 23.25Z" stroke="black" stroke-linecap="round" stroke-linejoin="round"/>
<path d="M8.25 8.625C8.32417 8.625 8.39667 8.64699 8.45834 8.6882C8.52001 8.7294 8.56807 8.78797 8.59645 8.85649C8.62484 8.92502 8.63226 9.00042 8.61779 9.07316C8.60332 9.1459 8.56761 9.21272 8.51517 9.26517C8.46272 9.31761 8.3959 9.35332 8.32316 9.36779C8.25042 9.38226 8.17502 9.37484 8.10649 9.34645C8.03797 9.31807 7.9794 9.27001 7.9382 9.20834C7.89699 9.14667 7.875 9.07417 7.875 9C7.875 8.90054 7.91451 8.80516 7.98484 8.73483C8.05516 8.66451 8.15054 8.625 8.25 8.625Z" fill="black" stroke="black" stroke-linecap="round" stroke-linejoin="round"/>
<path d="M15.75 8.625C15.8242 8.625 15.8967 8.64699 15.9583 8.6882C16.02 8.7294 16.0681 8.78797 16.0965 8.85649C16.1248 8.92502 16.1323 9.00042 16.1178 9.07316C16.1033 9.1459 16.0676 9.21272 16.0152 9.26517C15.9627 9.31761 15.8959 9.35332 15.8232 9.36779C15.7504 9.38226 15.675 9.37484 15.6065 9.34645C15.538 9.31807 15.4794 9.27001 15.4382 9.20834C15.397 9.14667 15.375 9.07417 15.375 9C15.375 8.90054 15.4145 8.80516 15.4848 8.73483C15.5552 8.66451 15.6505 8.625 15.75 8.625Z" fill="black" stroke="black" stroke-linecap="round" stroke-linejoin="round"/>
<path d="M18.0473 15C17.4887 16.1273 16.6263 17.076 15.5573 17.7394C14.4884 18.4027 13.2553 18.7542 11.9973 18.7542C10.7392 18.7542 9.50617 18.4027 8.4372 17.7394C7.36823 17.076 6.50583 16.1273 5.94727 15" stroke="black" stroke-linecap="round" stroke-linejoin="round"/>
</g>
<defs>
<clipPath id="clip0_1793_62520">
<rect width="24" height="24" fill="white"/>
</clipPath>
</defs>
</svg>
