<svg width="24" height="24" viewBox="0 0 24 24" fill="none" xmlns="http://www.w3.org/2000/svg">
<path opacity="0.50372" fill-rule="evenodd" clip-rule="evenodd" d="M8.16016 2.92587C8.16016 2.25084 8.81987 1.76841 9.4715 1.96693L20.6182 5.36275C21.0434 5.49229 21.3335 5.88124 21.3335 6.3217V17.2653C21.3335 17.9403 20.6738 18.4228 20.0222 18.2242L8.87548 14.8284C8.4503 14.6989 8.16016 14.3099 8.16016 13.8695V2.92587Z" fill="#C2F1F9"/>
<path opacity="0.8" fill-rule="evenodd" clip-rule="evenodd" d="M5.41309 4.83212C5.41309 4.15709 6.0728 3.67466 6.72443 3.87318L17.8711 7.269C18.2963 7.39854 18.5864 7.78749 18.5864 8.22795V19.1715C18.5864 19.8466 17.9267 20.329 17.2751 20.1305L6.12841 16.7347C5.70323 16.6051 5.41309 16.2162 5.41309 15.7757V4.83212Z" fill="#8AE3F3"/>
<path fill-rule="evenodd" clip-rule="evenodd" d="M2.87988 6.73837C2.87988 6.06334 3.5396 5.58091 4.19122 5.77943L15.3379 9.17525C15.7631 9.30479 16.0532 9.69374 16.0532 10.1342V21.0778C16.0532 21.7528 15.3935 22.2353 14.7419 22.0367L3.59521 18.6409C3.17002 18.5114 2.87988 18.1224 2.87988 17.682V6.73837Z" fill="#36D0EB"/>
<path fill-rule="evenodd" clip-rule="evenodd" d="M6.49072 16.0695L9.64947 17.0387V16.6302L6.99986 15.8253L8.40605 14.4134C8.7755 14.0356 9.03353 13.7042 9.18016 13.4206C9.32678 13.1362 9.40009 12.8565 9.40009 12.582C9.40009 12.0949 9.27021 11.6753 9.01044 11.3241C8.75068 10.9741 8.38989 10.739 7.92809 10.618C7.6256 10.5388 7.35603 10.5444 7.11935 10.6344C6.88267 10.7238 6.70026 10.8844 6.57211 11.1163C6.44396 11.3477 6.37988 11.6249 6.37988 11.9484L6.79204 12.0619C6.79204 11.6661 6.89653 11.3724 7.10549 11.1802C7.31446 10.9871 7.58866 10.9353 7.92809 11.0252C8.25597 11.1121 8.51342 11.2879 8.70046 11.5532C8.88749 11.819 8.981 12.1373 8.981 12.5075C8.981 12.7436 8.92559 12.971 8.81475 13.1894C8.72855 13.359 8.58927 13.5538 8.3969 13.7734L8.21902 13.9671L6.49072 15.7062V16.0695ZM11.9354 17.7402L12.351 17.8677V11.8382L12.2818 11.82L10.5638 12.1187V12.5748L11.9354 12.3422V17.7402Z" fill="white"/>
<path fill-rule="evenodd" clip-rule="evenodd" d="M7.70963 15.6489L8.67577 14.6788L8.67578 14.6788L8.67819 14.6764C9.05939 14.2866 9.34641 13.9243 9.51756 13.5932L9.51774 13.5929C9.68725 13.2641 9.77923 12.9262 9.77923 12.5832C9.77923 12.0262 9.6293 11.5264 9.31616 11.103L9.31582 11.1026C8.99987 10.6768 8.56192 10.3963 8.02439 10.2555C7.66298 10.1609 7.30953 10.1601 6.98265 10.2842C6.65703 10.4074 6.40689 10.6313 6.23798 10.9368C6.07298 11.2348 5.99902 11.5771 5.99902 11.9496C5.99902 12.1186 6.1128 12.2669 6.27723 12.3121L6.68939 12.4256C6.80382 12.4571 6.92654 12.4338 7.0211 12.3627C7.11566 12.2915 7.17118 12.1807 7.17118 12.0631C7.17118 11.729 7.25861 11.5533 7.36329 11.457L7.36386 11.4565C7.45435 11.3729 7.58295 11.3247 7.82899 11.3899C8.07414 11.4549 8.25442 11.5804 8.38795 11.7697C8.52432 11.9636 8.60014 12.2041 8.60014 12.5087C8.60014 12.684 8.55957 12.8537 8.47446 13.0215M7.70963 15.6489L9.76007 16.2718C9.91966 16.3202 10.0286 16.4662 10.0286 16.6314V17.04C10.0286 17.1595 9.97124 17.2719 9.87406 17.3428C9.77687 17.4137 9.65143 17.4347 9.53612 17.3993L6.37737 16.4301C6.21829 16.3813 6.10986 16.2356 6.10986 16.0707V15.7074C6.10986 15.6087 6.14905 15.5139 6.21899 15.4436L7.94204 13.7097L8.11184 13.5248C8.29151 13.3194 8.40807 13.1521 8.47444 13.0215M12.2152 11.4507C12.2694 11.4413 12.325 11.4436 12.3782 11.4576L12.4475 11.4757C12.6141 11.5194 12.7302 11.6687 12.7302 11.8394V17.8689C12.7302 17.9885 12.6728 18.1009 12.5756 18.1718C12.4784 18.2427 12.353 18.2637 12.2377 18.2283L11.8221 18.1008C11.663 18.052 11.5545 17.9063 11.5545 17.7414V12.7896L10.6271 12.9469C10.5167 12.9656 10.4036 12.9352 10.318 12.8637C10.2324 12.7922 10.183 12.6869 10.183 12.5761V12.1199C10.183 11.9372 10.3155 11.781 10.4973 11.7494L12.2152 11.4507Z" fill="white"/>
</svg>
