<svg width="18" height="17" viewBox="0 0 18 17" fill="none" xmlns="http://www.w3.org/2000/svg">
<path d="M1.125 16.8125C0.50475 16.8125 0 16.2797 0 15.625V1.375C0 0.720292 0.50475 0.1875 1.125 0.1875H6.75C7.179 0.1875 7.5645 0.43925 7.75575 0.843792L8.46675 2.34321C8.5305 2.47858 8.6595 2.5625 8.802 2.5625H16.875C17.4953 2.5625 18 3.09529 18 3.75V15.625C18 16.2797 17.4953 16.8125 16.875 16.8125H1.125ZM1.125 0.979167C0.918 0.979167 0.75 1.1565 0.75 1.375V15.625C0.75 15.8435 0.918 16.0208 1.125 16.0208H16.875C17.082 16.0208 17.25 15.8435 17.25 15.625V3.75C17.25 3.5315 17.082 3.35417 16.875 3.35417H8.802C8.373 3.35417 7.9875 3.10242 7.79625 2.69708L7.08525 1.19846C7.0215 1.06308 6.8925 0.979167 6.75 0.979167H1.125Z" fill="#0098FF"/>
</svg>
