<svg width="24" height="24" viewBox="0 0 24 24" fill="none" xmlns="http://www.w3.org/2000/svg">
<path d="M1.5 23.1667C0.673 23.1667 0 22.4563 0 21.5833V2.58333C0 1.71039 0.673 1 1.5 1H9C9.572 1 10.086 1.33567 10.341 1.87506L11.289 3.87428C11.374 4.05478 11.546 4.16667 11.736 4.16667H22.5C23.327 4.16667 24 4.87706 24 5.75V21.5833C24 22.4563 23.327 23.1667 22.5 23.1667H1.5ZM1.5 2.05556C1.224 2.05556 1 2.292 1 2.58333V21.5833C1 21.8747 1.224 22.1111 1.5 22.1111H22.5C22.776 22.1111 23 21.8747 23 21.5833V5.75C23 5.45867 22.776 5.22222 22.5 5.22222H11.736C11.164 5.22222 10.65 4.88656 10.395 4.34611L9.447 2.34794C9.362 2.16744 9.19 2.05556 9 2.05556H1.5Z" fill="black"/>
</svg>
