<svg xmlns="http://www.w3.org/2000/svg" width="16" height="17" fill="none"><path fill="#000" fill-rule="evenodd" d="M2.1087.4518a2.579 2.579 0 0 1 2.1208.2875.5081.5081 0 0 1-.0266.8752l-.002.0011-.0078.0043-.032.0179a14.8255 14.8255 0 0 0-.5317.315c-.3304.2055-.7101.461-.972.6917-.261.2298-.5767.586-.8378.9006a17.7372 17.7372 0 0 0-.4079.5108l-.0238.0313-.0058.0077-.0014.0018a.5078.5078 0 0 1-.8667-.0915A2.579 2.579 0 0 1 2.1087.4518Zm10.0889 13.6004c1.6921-1.2513 2.7883-3.2546 2.7883-5.5126 0-3.792-3.0916-6.866-6.9054-6.866S1.175 4.7477 1.175 8.5397c0 2.2579 1.0961 4.2612 2.7882 5.5126l-1.4228 1.4221a.5082.5082 0 0 0-.0003.7185.5078.5078 0 0 0 .7181.0003l1.587-1.5862c.965.5099 2.0662.7986 3.2353.7986 1.169 0 2.2701-.2887 3.2351-.7985l1.587 1.5862a.5078.5078 0 0 0 .7182-.0004.5082.5082 0 0 0-.0003-.7185l-1.4229-1.4221ZM8.5408 6.2534l-.0004 2.0962 2.7425 2.7275a.4558.4558 0 0 1 0 .6473.462.462 0 0 1-.651-.0001l-2.877-2.861a.4556.4556 0 0 1-.1319-.3758.4716.4716 0 0 1-.0033-.056L7.62 6.2533c0-.2528.2061-.4577.4604-.4577.2543 0 .4603.205.4603.4578ZM12.7995.3652a2.5793 2.5793 0 0 1 2.6994 1.4995 2.5797 2.5797 0 0 1-.013 2.1405.508.508 0 0 1-.8668.0915l-.0013-.0018-.0059-.0077-.0238-.0313a17.3734 17.3734 0 0 0-.4079-.5108c-.261-.3146-.5768-.6708-.8377-.9006-.2619-.2307-.6416-.4862-.9721-.6916a14.8322 14.8322 0 0 0-.5317-.3151l-.032-.0179-.0078-.0043-.002-.0011a.508.508 0 0 1-.0265-.8752 2.5789 2.5789 0 0 1 1.0291-.3741Z" clip-rule="evenodd"/></svg>