<svg width="24" height="18" viewBox="0 0 24 18" fill="none" xmlns="http://www.w3.org/2000/svg">
<path fill-rule="evenodd" clip-rule="evenodd" d="M14.3756 15.3207C14.115 15.5767 13.9753 15.906 13.9753 16.2675C13.9753 16.6289 14.115 16.9583 14.3411 17.178C14.479 17.3328 14.65 17.4498 14.8458 17.5207C15.0047 17.5782 15.1706 17.6074 15.3396 17.6074C15.5085 17.6074 15.6745 17.5782 15.8334 17.5207C16.0292 17.4498 16.2002 17.3328 16.3031 17.2147L23.5997 10.06C23.8612 9.80311 24 9.47147 24 9.10742C24 8.74338 23.8612 8.41173 23.5997 8.15483L16.3036 1.00062C16.0429 0.744642 15.7076 0.607422 15.3396 0.607422C14.9716 0.607422 14.6362 0.744641 14.3756 1.00061C14.115 1.25659 13.9753 1.58591 13.9753 1.94738C13.9753 2.30885 14.115 2.63817 14.3756 2.89415L19.3316 7.76164L1.37617 7.76164C1.00283 7.76164 0.662848 7.89701 0.400337 8.15483C0.137827 8.41265 0 8.74656 0 9.11325C0 9.47471 0.139713 9.80404 0.400337 10.06C0.662848 10.3178 1.00283 10.4532 1.37617 10.4532L19.3316 10.4532L14.3756 15.3207Z" fill="white"/>
</svg>
