<svg width="24" height="24" viewBox="0 0 24 24" fill="none" xmlns="http://www.w3.org/2000/svg">
<path d="M23.261 10.2C23.2906 10.0545 23.2876 9.90427 23.252 9.76013C23.2164 9.61599 23.1491 9.48159 23.0551 9.36669C22.961 9.25179 22.8426 9.15926 22.7084 9.09584C22.5741 9.03241 22.4274 8.99967 22.279 9H10.42C10.1893 9.00028 9.96555 8.92078 9.78676 8.77498C9.60797 8.62918 9.48509 8.42604 9.43895 8.2L9.16095 6.8C9.11481 6.57396 8.99194 6.37082 8.81315 6.22502C8.63436 6.07922 8.41066 5.99972 8.17995 6H1.71995C1.57157 5.99982 1.425 6.03267 1.29088 6.09616C1.15676 6.15965 1.03845 6.25219 0.944534 6.36708C0.850616 6.48196 0.783443 6.61631 0.747885 6.76037C0.712327 6.90444 0.709277 7.05461 0.738954 7.2L3.33895 20.2C3.38509 20.426 3.50797 20.6292 3.68676 20.775C3.86555 20.9208 4.08925 21.0003 4.31995 21H20.28C20.5107 21.0003 20.7344 20.9208 20.9131 20.775C21.0919 20.6292 21.2148 20.426 21.261 20.2C21.673 18.134 22.773 12.637 23.261 10.2Z" stroke="black" stroke-linecap="round" stroke-linejoin="round"/>
<path d="M2.72021 4C2.72021 3.73478 2.82557 3.48043 3.01311 3.29289C3.20064 3.10536 3.455 3 3.72021 3H20.7202C20.9854 3 21.2398 3.10536 21.4273 3.29289C21.6149 3.48043 21.7202 3.73478 21.7202 4V7" stroke="black" stroke-linecap="round" stroke-linejoin="round"/>
</svg>
