<svg width="16" height="16" viewBox="0 0 16 16" fill="none" xmlns="http://www.w3.org/2000/svg">
<path fill-rule="evenodd" clip-rule="evenodd" d="M5.06584 2.16016C4.21897 2.16016 3.40749 2.49896 2.80973 3.1009C2.21208 3.70272 1.87695 4.51824 1.87695 5.36785C1.87695 6.21746 2.21208 7.03297 2.80973 7.6348C3.2167 8.04461 3.72273 8.33246 4.27156 8.47446C3.26567 8.64077 2.3294 9.12013 1.59996 9.85466C0.681424 10.7796 0.166016 12.0334 0.166016 13.34C0.166016 13.4726 0.218694 13.5998 0.312462 13.6936C0.40623 13.7873 0.533407 13.84 0.666016 13.84H9.46602C9.59863 13.84 9.7258 13.7873 9.81957 13.6936C9.91334 13.5998 9.96602 13.4726 9.96602 13.34C9.96602 12.0334 9.45061 10.7796 8.53207 9.85466C7.80258 9.12007 6.86624 8.6407 5.86026 8.47442C6.40903 8.33241 6.91502 8.04458 7.32196 7.6348C7.9196 7.03297 8.25473 6.21746 8.25473 5.36785C8.25473 4.51824 7.9196 3.70272 7.32196 3.1009C6.7242 2.49896 5.91272 2.16016 5.06584 2.16016ZM12.0335 4.62015C11.3649 4.62015 10.7244 4.88763 10.2527 5.36263C9.78115 5.8375 9.51685 6.48083 9.51685 7.15092C9.51685 7.821 9.78115 8.46433 10.2527 8.93921C10.5561 9.24465 10.9292 9.46428 11.3347 9.58216C11.0479 9.63616 10.7691 9.72306 10.5034 9.84062C10.377 9.8966 10.2793 10.0025 10.2337 10.1331C10.1882 10.2636 10.1987 10.4073 10.2629 10.5298C10.7074 11.3787 10.9614 12.3673 10.9614 13.34C10.9614 13.6162 11.1852 13.84 11.4614 13.84L15.3337 13.84C15.4663 13.84 15.5935 13.7873 15.6872 13.6936C15.781 13.5998 15.8337 13.4726 15.8337 13.34C15.8337 12.3272 15.4342 11.3552 14.7219 10.6379C14.1763 10.0885 13.4813 9.72307 12.7325 9.58212C13.1379 9.46423 13.511 9.24461 13.8143 8.93921C14.2859 8.46433 14.5502 7.821 14.5502 7.15092C14.5502 6.48083 14.2859 5.8375 13.8143 5.36263C13.3426 4.88763 12.7021 4.62015 12.0335 4.62015Z" fill="#666666"/>
</svg>
