<svg width="24" height="24" viewBox="0 0 24 24" fill="none" xmlns="http://www.w3.org/2000/svg">
<path d="M22.5 4.30001H11.236C11.1432 4.30001 11.0523 4.27161 10.9733 4.21799C10.8944 4.16438 10.8306 4.08766 10.789 3.99641L9.842 1.90642C9.71723 1.63286 9.52549 1.40307 9.28838 1.24293C9.05128 1.08278 8.77823 0.998654 8.5 1.00002H1.5C1.10218 1.00002 0.720644 1.17386 0.43934 1.48329C0.158035 1.79272 0 2.21241 0 2.65001L0 21.35C0 21.7876 0.158035 22.2073 0.43934 22.5167C0.720644 22.8262 1.10218 23 1.5 23H22.5C22.8978 23 23.2794 22.8262 23.5607 22.5167C23.842 22.2073 24 21.7876 24 21.35V5.95001C24 5.51241 23.842 5.09272 23.5607 4.78329C23.2794 4.47385 22.8978 4.30001 22.5 4.30001Z" fill="black"/>
</svg>
