<svg width="24" height="24" viewBox="0 0 24 24" fill="none" xmlns="http://www.w3.org/2000/svg">
<g clip-path="url(#clip0_4680_49065)">
<path d="M12.0021 24.0065C11.7311 24.0065 11.4631 23.9595 11.2041 23.8685C10.528 23.6285 10.003 23.1024 9.76199 22.4263L9.31196 21.1611C9.18895 20.8151 8.93793 20.537 8.60691 20.38C8.4199 20.291 8.22188 20.246 8.01787 20.246C7.86086 20.246 7.70585 20.273 7.55584 20.326C7.51284 20.342 7.46883 20.359 7.42683 20.379L6.21475 20.9561C5.89073 21.1111 5.5467 21.1901 5.19168 21.1901C4.92366 21.1901 4.65764 21.1441 4.40163 21.0541C3.80359 20.8441 3.32355 20.413 3.04854 19.8409C2.73551 19.1888 2.73551 18.4397 3.04854 17.7876L3.62357 16.5764C3.9496 15.8923 3.65758 15.0702 2.97353 14.7451C2.93153 14.7251 2.88752 14.7071 2.84352 14.6911L1.57744 14.2411C0.979396 14.029 0.500363 13.597 0.228345 13.0239C-0.0446736 12.4508 -0.0776758 11.8057 0.134339 11.2086C0.374355 10.5315 0.90039 10.0054 1.57844 9.7644L2.84352 9.31433C3.18854 9.19131 3.46556 8.94127 3.62357 8.60922C3.78158 8.27617 3.80059 7.90312 3.67858 7.55807C3.66258 7.51406 3.64458 7.47105 3.62457 7.42905L3.04854 6.21686C2.4835 5.03769 2.98353 3.61647 4.16361 3.05039C4.48763 2.89436 4.83366 2.81635 5.18968 2.81635C5.5457 2.81635 5.89273 2.89536 6.21675 3.05039L7.42783 3.62547C7.61384 3.71349 7.81086 3.75849 8.01487 3.75849C8.54491 3.75849 9.03294 3.45045 9.25996 2.97338C9.27996 2.93237 9.29696 2.89036 9.31196 2.84736L9.76199 1.58217C10.098 0.637025 10.9981 0.00292969 12.0011 0.00292969C12.2722 0.00292969 12.5392 0.0489366 12.7962 0.14095C13.4722 0.380987 13.9973 0.907066 14.2373 1.58217L14.6873 2.84736C14.8103 3.19341 15.0603 3.47045 15.3914 3.62847C15.5784 3.71749 15.7764 3.76249 15.9804 3.76249C16.1364 3.76249 16.2914 3.73549 16.4414 3.68248C16.4864 3.66648 16.5294 3.64848 16.5724 3.62847L17.7845 3.05039C18.1066 2.89636 18.4496 2.81835 18.8046 2.81835C19.7167 2.81835 20.5587 3.34843 20.9507 4.16956C21.2618 4.81965 21.2618 5.56577 20.9507 6.21686L20.3727 7.43005C20.2157 7.7611 20.1957 8.13415 20.3187 8.4802C20.4417 8.82626 20.6917 9.1033 21.0228 9.26132C21.0648 9.28132 21.1088 9.29933 21.1528 9.31533L22.4178 9.7654C23.0159 9.97743 23.4949 10.4105 23.7679 10.9826C24.041 11.5557 24.074 12.1998 23.8619 12.7989C23.6219 13.476 23.0949 14.002 22.4178 14.2431L21.1528 14.6931C20.8067 14.8162 20.5297 15.0662 20.3717 15.3972C20.2147 15.7283 20.1947 16.1013 20.3177 16.4474C20.3337 16.4924 20.3517 16.5364 20.3717 16.5784L20.9487 17.7886C21.2218 18.3607 21.2568 19.0058 21.0448 19.6039C20.8337 20.202 20.4017 20.682 19.8287 20.9561C19.5046 21.1111 19.1606 21.1891 18.8046 21.1891C18.4486 21.1891 18.1046 21.1111 17.7815 20.9561L16.5695 20.381C16.3814 20.292 16.1834 20.246 15.9794 20.246C15.8234 20.246 15.6684 20.273 15.5184 20.326C15.1724 20.449 14.8953 20.699 14.7373 21.0301C14.7173 21.0721 14.6993 21.1161 14.6833 21.1601L14.2333 22.4263C14.0203 23.0244 13.5872 23.5035 13.0142 23.7755C12.6972 23.9285 12.3552 24.0065 12.0021 24.0065ZM8.01887 19.2448C8.37189 19.2448 8.71492 19.3228 9.03694 19.4759C9.60998 19.7479 10.042 20.228 10.255 20.8251L10.7051 22.0902C10.8441 22.4813 11.1481 22.7854 11.5391 22.9244C11.6891 22.9784 11.8451 23.0054 12.0011 23.0054C12.2052 23.0054 12.4032 22.9604 12.5902 22.8714C12.9222 22.7133 13.1732 22.4363 13.2962 22.0902L13.7463 20.8251C13.7733 20.748 13.8053 20.673 13.8393 20.6C14.1123 20.0269 14.5913 19.5949 15.1884 19.3828C15.4464 19.2908 15.7144 19.2448 15.9844 19.2448C16.3374 19.2448 16.6805 19.3228 17.0035 19.4759L18.2156 20.0519C18.4036 20.142 18.6036 20.187 18.8096 20.187C19.0156 20.187 19.2146 20.142 19.4026 20.0519C19.7337 19.8939 19.9837 19.6159 20.1057 19.2698C20.2287 18.9238 20.2087 18.5507 20.0507 18.2187L19.4726 17.0075C19.4376 16.9335 19.4066 16.8585 19.3786 16.7815C19.1666 16.1844 19.2006 15.5403 19.4726 14.9672C19.7457 14.3941 20.2237 13.961 20.8207 13.749L22.0858 13.2989C22.4778 13.1599 22.7829 12.8549 22.9219 12.4628C23.0449 12.1168 23.0259 11.7437 22.8679 11.4116C22.7099 11.0796 22.4318 10.8296 22.0868 10.7065L20.8217 10.2565C20.7457 10.2295 20.6697 10.1985 20.5967 10.1635C20.0237 9.89042 19.5917 9.41134 19.3796 8.81425C19.1676 8.21716 19.2006 7.57207 19.4726 6.99898L20.0507 5.7858C20.2307 5.40874 20.2307 4.97668 20.0507 4.60062C19.8237 4.12555 19.3356 3.8185 18.8076 3.8185C18.6026 3.8185 18.4036 3.86351 18.2176 3.95252L17.0045 4.53061C16.9305 4.56562 16.8545 4.59662 16.7785 4.62462C16.5224 4.71564 16.2564 4.76165 15.9864 4.76165C14.9823 4.76165 14.0833 4.12655 13.7473 3.18141L13.2972 1.91622C13.1582 1.52516 12.8542 1.22111 12.4632 1.08209C12.3152 1.02908 12.1602 1.00308 12.0041 1.00308C11.4231 1.00308 10.9011 1.37014 10.7071 1.91722L10.257 3.18241C10.23 3.25742 10.2 3.33043 10.166 3.40244C9.892 3.97553 9.41297 4.40859 8.81493 4.62162C8.55591 4.71364 8.28789 4.75964 8.01687 4.75964C7.66385 4.75964 7.32182 4.68163 6.9998 4.52861L5.78672 3.95352C5.59671 3.86251 5.39669 3.8165 5.19068 3.8165C4.98467 3.8165 4.78465 3.86251 4.59664 3.95252C4.26562 4.11155 4.0166 4.38959 3.89459 4.73564C3.77258 5.08169 3.79259 5.45475 3.9516 5.7858L4.52864 7.00098C4.56264 7.07299 4.59364 7.147 4.62064 7.22302C4.83366 7.82111 4.80065 8.4652 4.52764 9.03829C4.25462 9.61137 3.77658 10.0434 3.17854 10.2565L1.91346 10.7065C1.52143 10.8456 1.21641 11.1506 1.0774 11.5427C0.954394 11.8887 0.973395 12.2618 1.13141 12.5938C1.28942 12.9259 1.56644 13.1759 1.91246 13.2989L3.17854 13.749C3.25455 13.776 3.32955 13.807 3.40356 13.842C4.58564 14.4051 5.08967 15.8243 4.52764 17.0065L3.9516 18.2197C3.76958 18.5987 3.76958 19.0318 3.9506 19.4098C4.10961 19.7409 4.38763 19.9909 4.73365 20.112C4.88166 20.164 5.03567 20.191 5.19068 20.191C5.39569 20.191 5.59571 20.145 5.78372 20.0549L6.9958 19.4779C7.06881 19.4429 7.14381 19.4118 7.21982 19.3848C7.47983 19.2918 7.74785 19.2448 8.01887 19.2448Z" fill="black"/>
<path d="M11.9998 17.0044C9.24266 17.0044 6.99951 14.7611 6.99951 12.0037C6.99951 9.24627 9.24266 7.00293 11.9998 7.00293C14.757 7.00293 17.0002 9.24627 17.0002 12.0037C17.0002 14.7611 14.757 17.0044 11.9998 17.0044ZM11.9998 8.00308C9.7937 8.00308 7.99958 9.79735 7.99958 12.0037C7.99958 14.21 9.7937 16.0043 11.9998 16.0043C14.206 16.0043 16.0001 14.21 16.0001 12.0037C16.0001 9.79735 14.206 8.00308 11.9998 8.00308Z" fill="black"/>
</g>
<defs>
<clipPath id="clip0_4680_49065">
<rect width="24" height="24" fill="white"/>
</clipPath>
</defs>
</svg>
