<svg width="12" height="17" viewBox="0 0 12 17" fill="none" xmlns="http://www.w3.org/2000/svg">
<path fill-rule="evenodd" clip-rule="evenodd" d="M3.87873 2.11452C4.44134 1.55191 5.2044 1.23584 6.00005 1.23584C6.7957 1.23584 7.55876 1.55191 8.12137 2.11452C8.68398 2.67713 9.00005 3.44019 9.00005 4.23584V6.23584H1.50004C1.16255 6.23584 0.876188 6.32165 0.644566 6.47606C0.416073 6.62839 0.269985 6.82792 0.177827 7.01223C0.0856696 7.19655 4.92454e-05 7.48063 4.06965e-05 7.73584C-5.08706e-05 10.4695 4.06965e-05 14.7358 4.06965e-05 14.7358C4.06965e-05 15.0733 0.0858505 15.3597 0.240266 15.5913C0.392594 15.8198 0.592119 15.9659 0.776434 16.0581C0.960749 16.1502 1.20905 16.2358 1.50004 16.2358H10.5C10.8375 16.2358 11.1239 16.15 11.3555 15.9956C11.584 15.8433 11.76 15.5892 11.76 15.5892C11.76 15.5892 12 15.2358 12 14.7358V7.73584C12 7.39835 11.9142 7.11199 11.7598 6.88036C11.6054 6.64874 11.0527 6.23584 10.5 6.23584H10V4.23584C10 3.17497 9.57862 2.15756 8.82847 1.40741C8.07833 0.657267 7.06091 0.23584 6.00005 0.23584C4.93918 0.23584 3.92177 0.657267 3.17162 1.40741C2.79475 1.78428 2.50084 2.22864 2.30167 2.71203C2.19647 2.96735 2.31817 3.25961 2.57349 3.3648C2.82881 3.47 3.12107 3.3483 3.22626 3.09298C3.37565 2.7304 3.59607 2.39718 3.87873 2.11452ZM6.00004 9.73584C6.27618 9.73584 6.50004 9.9597 6.50004 10.2358V12.2358C6.50004 12.512 6.27618 12.7358 6.00004 12.7358C5.7239 12.7358 5.50004 12.512 5.50004 12.2358V10.2358C5.50004 9.9597 5.7239 9.73584 6.00004 9.73584Z" fill="black"/>
</svg>
