<svg width="16" height="16" viewBox="0 0 16 16" fill="none" xmlns="http://www.w3.org/2000/svg">
<path fill-rule="evenodd" clip-rule="evenodd" d="M0 8C0 8.55229 0.447715 9 1 9H6.83333C6.92538 9 7 9.07462 7 9.16667V15C7 15.5523 7.44772 16 8 16C8.55229 16 9 15.5523 9 15V9.16667C9 9.07462 9.07462 9 9.16667 9H15C15.5523 9 16 8.55229 16 8C16 7.44772 15.5523 7 15 7H9.16667C9.07462 7 9 6.92538 9 6.83333V1C9 0.447715 8.55229 0 8 0C7.44772 0 7 0.447715 7 1V6.83333C7 6.92538 6.92538 7 6.83333 7H1C0.447715 7 0 7.44772 0 8Z" fill="white"/>
</svg>
