<svg width="24" height="24" viewBox="0 0 24 24" fill="none" xmlns="http://www.w3.org/2000/svg">
<path fill-rule="evenodd" clip-rule="evenodd" d="M0 12C0 12.8284 0.671573 13.5 1.5 13.5H10.25C10.3881 13.5 10.5 13.6119 10.5 13.75V22.5C10.5 23.3284 11.1716 24 12 24C12.8284 24 13.5 23.3284 13.5 22.5V13.75C13.5 13.6119 13.6119 13.5 13.75 13.5H22.5C23.3284 13.5 24 12.8284 24 12C24 11.1716 23.3284 10.5 22.5 10.5H13.75C13.6119 10.5 13.5 10.3881 13.5 10.25V1.5C13.5 0.671573 12.8284 0 12 0C11.1716 0 10.5 0.671573 10.5 1.5V10.25C10.5 10.3881 10.3881 10.5 10.25 10.5H1.5C0.671573 10.5 0 11.1716 0 12Z" fill="black"/>
</svg>
