<svg width="16" height="16" viewBox="0 0 16 16" fill="none" xmlns="http://www.w3.org/2000/svg">
<g clip-path="url(#clip0_3916_59)">
<path fill-rule="evenodd" clip-rule="evenodd" d="M0 8C0 7.44772 0.447715 7 1 7H15C15.5523 7 16 7.44772 16 8C16 8.55229 15.5523 9 15 9H1C0.447715 9 0 8.55229 0 8Z" fill="black"/>
<path fill-rule="evenodd" clip-rule="evenodd" d="M8 0C8.55228 -1.20388e-06 9 0.447713 9 0.999998L9.00003 15C9.00003 15.5523 8.55232 16 8.00003 16C7.44775 16 7.00003 15.5523 7.00003 15L7 1C7 0.447717 7.44771 1.20389e-06 8 0Z" fill="black"/>
</g>
<defs>
<clipPath id="clip0_3916_59">
<rect width="16" height="16" fill="white"/>
</clipPath>
</defs>
</svg>
