<svg width="24" height="24" viewBox="0 0 24 24" fill="none" xmlns="http://www.w3.org/2000/svg">
<g clip-path="url(#clip0_4954_34161)">
<path fill-rule="evenodd" clip-rule="evenodd" d="M1.80269 1C1.90269 1 1.90269 1 2.00269 1H20.0027C20.1027 1 20.1027 1 20.2027 1L11.0027 8.4L1.80269 1ZM1.10269 1.7C1.00269 1.8 1.00269 1.9 1.00269 2V13C1.00269 13.3 1.10269 13.5 1.30269 13.7C1.50269 13.9 1.70269 14 2.00269 14H12.5027C12.8027 14 13.0027 14.2 13.0027 14.5C13.0027 14.8 12.8027 15 12.5027 15H2.00269C1.50269 15 1.00269 14.8 0.602686 14.4C0.202686 14 0.00268555 13.5 0.00268555 13V2C0.00268555 1.5 0.202686 1 0.602686 0.6C1.00269 0.2 1.50269 0 2.00269 0H20.0027C20.5027 0 21.0027 0.2 21.4027 0.6C21.8027 1 22.0027 1.5 22.0027 2V11.5C22.0027 11.8 21.8027 12 21.5027 12C21.2027 12 21.0027 11.8 21.0027 11.5V2C21.0027 1.9 21.0027 1.8 20.9027 1.7L11.3027 9.4C11.1027 9.5 10.9027 9.5 10.7027 9.4L1.10269 1.7Z" fill="#BC0055"/>
<path fill-rule="evenodd" clip-rule="evenodd" d="M18.5027 13C15.5027 13 13.0027 15.5 13.0027 18.5C13.0027 21.5 15.5027 24 18.5027 24C21.5027 24 24.0027 21.5 24.0027 18.5C24.0027 15.5 21.5027 13 18.5027 13ZM21.0027 18.5C21.0027 18.6 21.0027 18.6 21.0027 18.7C21.0027 18.8 20.9027 18.8 20.9027 18.9L18.9027 20.9C18.7027 21.1 18.4027 21.1 18.2027 20.9C18.0027 20.7 18.0027 20.4 18.2027 20.2L19.3027 19.1H16.5027C16.2027 19.1 16.0027 18.9 16.0027 18.6C16.0027 18.3 16.2027 18.1 16.5027 18.1H19.3027L18.2027 17C18.0027 16.8 18.0027 16.5 18.2027 16.3C18.4027 16.1 18.7027 16.1 18.9027 16.3L20.9027 18.3C20.9027 18.3 21.0027 18.4 21.0027 18.5C21.0027 18.4 21.0027 18.4 21.0027 18.5Z" fill="#BC0055"/>
</g>
<defs>
<clipPath id="clip0_4954_34161">
<rect width="24" height="24" fill="white"/>
</clipPath>
</defs>
</svg>
