<svg width="75" height="64" viewBox="0 0 75 64" fill="none" xmlns="http://www.w3.org/2000/svg">
<path d="M35.0962 0.59481L0 21.1506V21.1861H75V21.1506L39.9038 0.59481C39.1601 0.203896 38.336 0 37.5 0C36.664 0 35.8399 0.203896 35.0962 0.59481V0.59481Z" fill="#0098FF"/>
<path d="M75 21.1848H0V63.5016H75V21.1848Z" fill="#0098FF"/>
<path d="M0.117333 21.1958L74.4856 63.1847C74.4433 63.3541 74.4481 63.3314 74.4058 63.5008H0.166371C0.144236 63.5007 0.122346 63.496 0.101968 63.4872C0.0815907 63.4783 0.0631312 63.4654 0.0476591 63.4492C0.0321869 63.433 0.0200098 63.4138 0.0118331 63.3928C0.00365651 63.3717 -0.000357074 63.3492 2.49163e-05 63.3265V21.2667C-4.54125e-05 21.2526 0.00349737 21.2387 0.0103001 21.2264C0.0171029 21.2142 0.026928 21.2039 0.0387962 21.1968C0.0506644 21.1896 0.0641611 21.1857 0.077941 21.1856C0.0917209 21.1854 0.105303 21.1889 0.117333 21.1958Z" fill="#006AB3"/>
<path d="M74.8827 21.179L37.5 42.2852L74.4856 63.1679L74.4058 63.4839H74.8337C74.8558 63.4838 74.8777 63.4792 74.8981 63.4703C74.9184 63.4615 74.9369 63.4486 74.9524 63.4324C74.9678 63.4162 74.98 63.397 74.9882 63.3759C74.9964 63.3548 75.0004 63.3323 75 63.3097V21.2489C74.9999 21.2348 74.9962 21.2211 74.9894 21.2089C74.9825 21.1968 74.9727 21.1867 74.9608 21.1797C74.949 21.1726 74.9355 21.1688 74.9218 21.1687C74.9081 21.1686 74.8946 21.1721 74.8827 21.179V21.179Z" fill="#4CB7FF"/>
</svg>
