<svg width="23" height="25" viewBox="0 0 23 25" fill="none" xmlns="http://www.w3.org/2000/svg">
<path fill-rule="evenodd" clip-rule="evenodd" d="M11.5 4.5016C12.2956 4.5016 13.0585 4.8179 13.6211 5.38051C14.1835 5.94309 14.5 6.70607 14.5 7.5016V8.5016C14.9257 8.5016 15.3294 8.48221 15.7236 8.67934C15.9079 8.7715 16.1075 8.91772 16.2598 9.14613C16.414 9.3777 16.5 9.66427 16.5 10.0016V16.0123C16.4989 16.0826 16.4938 16.3822 16.3223 16.7252C16.2301 16.9094 16.0838 17.1091 15.8555 17.2614C15.6239 17.4157 15.3374 17.5016 15 17.5016H8C7.75036 17.5016 7.49891 17.4351 7.27637 17.3239C7.09214 17.2318 6.89253 17.0854 6.74023 16.8571C6.58589 16.6256 6.50008 16.3389 6.5 16.0016V9.99086C6.50112 9.92154 6.50599 9.62169 6.67773 9.27797C6.76986 9.09371 6.91617 8.89415 7.14453 8.74184C7.37615 8.58742 7.66251 8.5016 8 8.5016H8.5V7.5016C8.5 6.70607 8.81645 5.94309 9.37891 5.38051C9.94151 4.8179 10.7044 4.5016 11.5 4.5016ZM11.5 11.2516C11.2239 11.2516 11 11.4755 11 11.7516V14.2516C11.0003 14.5275 11.224 14.7516 11.5 14.7516C11.776 14.7516 11.9997 14.5275 12 14.2516V11.7516C12 11.4755 11.7761 11.2516 11.5 11.2516ZM11.5 5.5016C10.9696 5.5016 10.461 5.71247 10.0859 6.08754C9.71102 6.46259 9.5 6.97128 9.5 7.5016V8.5016H13.5V7.5016C13.4736 6.96882 13.2989 6.47248 12.9141 6.08754C12.539 5.71247 12.0304 5.5016 11.5 5.5016Z" fill="black"/>
<path fill-rule="evenodd" clip-rule="evenodd" d="M11.4951 0.501602C14.8334 0.46889 18.1664 1.15779 21.2627 2.40981L21.2656 2.41078C21.6262 2.58061 21.938 2.81911 22.1611 3.15492C22.3803 3.4849 22.498 3.87206 22.5 4.2682V11.9166C22.4699 14.543 21.6335 17.0971 20.1035 19.2321C18.5746 21.3655 16.4263 22.9763 13.9512 23.8493L13.9521 23.8502L12.834 24.2584L12.835 24.2594C11.9742 24.5814 11.0258 24.5814 10.165 24.2594L9.04785 23.8502C6.57305 22.9772 4.42523 21.3652 2.89648 19.2321C1.3665 17.0971 0.5301 14.543 0.5 11.9166V4.2682C0.515833 3.87023 0.61605 3.49036 0.838867 3.15492C1.05813 2.82489 1.36988 2.56616 1.73438 2.41078L1.7373 2.40981C4.84467 1.15331 8.13576 0.470011 11.4951 0.501602ZM11.4951 1.50063C8.27591 1.51106 5.10327 2.08591 2.125 3.32973L2.12598 3.3307C1.94108 3.40954 1.78311 3.54122 1.67188 3.70863C1.5608 3.87597 1.50104 4.07224 1.5 4.27309V11.9049C1.57313 14.3288 2.28954 16.667 3.70996 18.6491C5.13023 20.6309 7.11413 22.0609 9.38574 22.9088L9.3916 22.9108L10.5117 23.3209L10.5156 23.3229C11.1647 23.5313 11.8346 23.5659 12.4844 23.3229L12.4883 23.3209L13.6084 22.9118L13.6143 22.9088C15.8859 22.0609 17.8698 20.6309 19.29 18.6491C20.6995 16.6823 21.4711 14.3302 21.5 11.9108V4.27309C21.4841 4.06999 21.4434 3.88236 21.3281 3.70863C21.2169 3.54122 21.0589 3.40954 20.874 3.3307C17.8959 2.08707 14.7168 1.50063 11.4951 1.50063Z" fill="black"/>
</svg>
