<svg width="16" height="16" viewBox="0 0 16 16" fill="none" xmlns="http://www.w3.org/2000/svg">
<path d="M14.5272 16H1.53975C1.27197 16 1.00418 15.9333 0.803347 15.7998C0.60251 15.6663 0.401674 15.4661 0.267782 15.2659C0.0669456 15.0657 0 14.7987 0 14.5318C0 14.2649 0.0669456 13.9979 0.133891 13.7977L6.49372 0.917623C6.62761 0.650678 6.82845 0.383733 7.09623 0.250261C7.6318 -0.0834202 8.3682 -0.0834202 8.90377 0.250261C9.17155 0.450469 9.37239 0.650678 9.50628 0.917623L15.8661 13.7977C16 13.9979 16 14.2649 16 14.5318C16 14.7987 15.9331 15.0657 15.7992 15.2659C15.6653 15.4661 15.4644 15.6663 15.2636 15.7998C15.0628 15.9333 14.795 16 14.5272 16ZM8.03347 0.984359C7.89958 0.984359 7.76569 1.0511 7.6318 1.11783C7.49791 1.18457 7.43096 1.31804 7.36402 1.38478L1.07113 14.2649C1.00418 14.3316 1.00418 14.3983 1.00418 14.5318C1.00418 14.5985 1.00418 14.732 1.07113 14.7988C1.13808 14.8655 1.20502 14.9322 1.27197 14.999C1.33891 15.0657 1.40586 15.0657 1.53975 15.0657H14.5941C14.6611 15.0657 14.795 15.0657 14.8619 14.999C14.9289 14.9322 14.9958 14.8655 15.0628 14.7988C15.1297 14.732 15.1297 14.6653 15.1297 14.5318C15.1297 14.4651 15.1297 14.3316 15.0628 14.2649L8.63598 1.38478C8.56904 1.2513 8.50209 1.18457 8.3682 1.11783C8.30126 1.0511 8.16736 0.984359 8.03347 0.984359Z" fill="#666666"/>
<path d="M7.58332 12.1264C7.70666 12.044 7.85167 12 8 12C8.19891 12 8.38968 12.079 8.53033 12.2197C8.67098 12.3603 8.75 12.5511 8.75 12.75C8.75 12.8983 8.70601 13.0433 8.6236 13.1667C8.54119 13.29 8.42405 13.3861 8.28701 13.4429C8.14997 13.4997 7.99917 13.5145 7.85368 13.4856C7.7082 13.4566 7.57456 13.3852 7.46967 13.2803C7.36478 13.1754 7.29335 13.0418 7.26441 12.8963C7.23547 12.7508 7.25032 12.6 7.30709 12.463C7.36386 12.3259 7.45999 12.2088 7.58332 12.1264Z" fill="#666666"/>
<path fill-rule="evenodd" clip-rule="evenodd" d="M8 4.99999C8.27614 4.99999 8.5 5.22385 8.5 5.49999V10.5C8.5 10.7761 8.27614 11 8 11C7.72386 11 7.5 10.7761 7.5 10.5V5.49999C7.5 5.22385 7.72386 4.99999 8 4.99999Z" fill="#666666"/>
</svg>
