<svg width="24" height="24" viewBox="0 0 24 24" fill="none" xmlns="http://www.w3.org/2000/svg">
<g clip-path="url(#clip0_4693_49292)">
<path d="M12 11C12.276 11 12.5 11.208 12.5 11.4643L12.5 22.4149L16.146 19.0294C16.241 18.9411 16.366 18.8929 16.5 18.8929C16.634 18.8929 16.759 18.9411 16.854 19.0294C16.949 19.1176 17 19.2336 17 19.3571C17 19.4806 16.948 19.5976 16.854 19.6859L12.354 23.8644C12.308 23.9071 12.253 23.9415 12.192 23.9647C12.13 23.9879 12.066 24 12 24C11.934 24 11.87 23.9879 11.809 23.9647C11.747 23.9406 11.693 23.9071 11.646 23.8644L7.146 19.6859C7.052 19.5976 7 19.4816 7 19.3571C7 19.2327 7.052 19.1166 7.146 19.0284C7.24 18.9402 7.366 18.8929 7.5 18.8929C7.634 18.8929 7.759 18.9411 7.854 19.0284L11.5 22.4149L11.5 11.4643C11.5 11.2089 11.724 11 12 11Z" fill="black"/>
<path d="M19.4118 -1.38848e-07C20.2874 -6.22964e-08 21 0.672999 21 1.5L21 14.5C21 15.327 20.2874 16 19.4118 16L15.1765 16C14.8842 16 14.6471 15.776 14.6471 15.5C14.6471 15.224 14.8842 15 15.1765 15L19.4118 15C19.704 15 19.9412 14.776 19.9412 14.5L19.9412 1.5C19.9412 1.224 19.704 0.999999 19.4118 0.999999L4.58824 0.999998C4.296 0.999998 4.05882 1.224 4.05882 1.5L4.05882 14.5C4.05882 14.776 4.296 15 4.58823 15L8.82353 15C9.11576 15 9.35294 15.224 9.35294 15.5C9.35294 15.776 9.11576 16 8.82353 16L4.58823 16C3.71259 16 3 15.327 3 14.5L3 1.5C3 0.672998 3.71259 -1.51131e-06 4.58824 -1.43476e-06L19.4118 -1.38848e-07Z" fill="black"/>
</g>
<defs>
<clipPath id="clip0_4693_49292">
<rect width="24" height="24" fill="white" transform="translate(24 24) rotate(-180)"/>
</clipPath>
</defs>
</svg>
