<svg width="327" height="200" viewBox="0 0 327 200" fill="none" xmlns="http://www.w3.org/2000/svg">
<path d="M105.25 120.34H221.029V186.726C221.029 191.729 216.974 195.784 211.972 195.784H114.308C109.305 195.784 105.25 191.729 105.25 186.726V120.34Z" fill="#FAFAFA" stroke="#9F9F9F" stroke-width="0.5"/>
<path d="M159.383 163.982L105.704 120.34H220.576L166.896 163.982C164.708 165.761 161.571 165.761 159.383 163.982Z" fill="#F5F5F5" stroke="#9F9F9F" stroke-width="0.5"/>
<path d="M166.338 85.8711L220.104 120.152L106.169 120.152L159.935 85.8711C161.888 84.626 164.385 84.626 166.338 85.8711Z" fill="#F5F5F5" stroke="#9F9F9F" stroke-width="0.5"/>
<path d="M212.614 127.061L212.706 126.986V126.868V98.6643C212.706 96.4378 210.901 94.6328 208.674 94.6328H116.344C114.117 94.6328 112.312 96.4377 112.312 98.6643V125.922V126.041L112.405 126.116L162.982 167.239L163.139 167.368L163.297 167.239L212.614 127.061Z" fill="white" stroke="#9F9F9F" stroke-width="0.5"/>
<path d="M167.511 153.174L211.214 195.828L115.489 195.828L159.192 153.174C161.506 150.916 165.198 150.916 167.511 153.174Z" fill="#FAFAFA" stroke="#9F9F9F" stroke-width="0.5"/>
<path opacity="0.5" fill-rule="evenodd" clip-rule="evenodd" d="M155.828 109.255C155.828 108.051 157.018 107.191 158.193 107.545L178.3 113.599C179.067 113.83 179.59 114.524 179.59 115.309V132.136C179.59 133.34 178.4 134.2 177.225 133.846L157.118 127.792C156.351 127.561 155.828 126.867 155.828 126.082V109.255Z" fill="#FF9ABF"/>
<path opacity="0.8" fill-rule="evenodd" clip-rule="evenodd" d="M151.266 112.114C151.266 110.911 152.456 110.051 153.631 110.405L173.737 116.459C174.504 116.69 175.027 117.383 175.027 118.168V134.996C175.027 136.199 173.837 137.059 172.662 136.705L152.556 130.651C151.789 130.42 151.266 129.727 151.266 128.942V112.114Z" fill="#F789B2"/>
<path fill-rule="evenodd" clip-rule="evenodd" d="M146.695 115.696C146.695 114.493 147.885 113.633 149.061 113.987L169.167 120.041C169.934 120.272 170.457 120.965 170.457 121.75V138.578C170.457 139.781 169.267 140.641 168.092 140.287L147.986 134.233C147.219 134.002 146.695 133.309 146.695 132.524V115.696Z" fill="#FF5B97"/>
<mask id="mask0_11040_25602" style="mask-type:luminance" maskUnits="userSpaceOnUse" x="146" y="113" width="25" height="28">
<path fill-rule="evenodd" clip-rule="evenodd" d="M146.695 115.692C146.695 114.489 147.885 113.629 149.061 113.983L169.167 120.037C169.934 120.268 170.457 120.961 170.457 121.746V138.574C170.457 139.777 169.267 140.637 168.092 140.284L147.986 134.229C147.219 133.998 146.695 133.305 146.695 132.52V115.692Z" fill="white"/>
</mask>
<g mask="url(#mask0_11040_25602)">
<g style="mix-blend-mode:multiply">
<path fill-rule="evenodd" clip-rule="evenodd" d="M146.695 112.652L170.457 119.807L158.51 130.224C157.618 131.002 156.215 130.746 155.669 129.707L146.695 112.652Z" fill="#F2357A"/>
</g>
</g>
<path d="M284.56 73.9984L283.355 67.2008L279.871 67.8181L281.075 74.6157L274.185 73.303L273.609 76.7043L280.469 77.8457L277.462 84.1521L280.834 85.558L283.696 79.1004L288.945 84.1209L291.219 81.6561L286.296 76.8134L292.46 73.3647L290.579 70.3986L284.56 73.9984Z" fill="#FF8500"/>
<path d="M45.9655 77.4384L42.8378 71.284L39.6831 72.8872L42.8107 79.0416L35.8365 79.7877L36.274 83.2095L43.1693 82.3083L42.1248 89.2163L45.7595 89.5818L46.6217 82.5711L53.1033 85.8496L54.5624 82.8305L48.4445 79.6274L53.3407 74.5363L50.6793 72.2446L45.9655 77.4384Z" fill="#FF8500"/>
<path d="M115.529 47.1835L116.512 42.5388L114.15 42.039L113.167 46.6837L109.147 44.0795L107.91 46.1014L111.955 48.5885L108.435 51.8401L110.207 53.6014L113.674 50.2164L115.705 54.7649L117.775 53.7757L115.905 49.4243L120.688 48.8052L120.26 46.431L115.529 47.1835Z" fill="#FFC10A"/>
<path d="M191.606 10.8215V3.91797H188.067V10.8215L181.512 8.32693L180.352 11.5756L186.907 13.8961L182.846 19.5814L185.921 21.5538L189.866 15.6945L194.159 21.5538L196.827 19.5234L192.824 13.8961L199.496 11.5756L198.161 8.32693L191.606 10.8215Z" fill="#FFC10A"/>
<path d="M284.44 127.651V123.332H282.226V127.651L278.124 126.09L277.398 128.123L281.5 129.575L278.959 133.132L280.883 134.366L283.351 130.7L286.037 134.366L287.706 133.095L285.202 129.575L289.376 128.123L288.541 126.09L284.44 127.651Z" fill="#FFC10A"/>
<path d="M233.052 60.0832L229.999 59.0314C229.065 58.6789 228.043 58.6024 227.054 58.8111C226.064 59.0197 225.149 59.5048 224.414 60.2094L218.992 65.6175C218.819 65.799 218.699 66.0245 218.647 66.2681C218.595 66.5116 218.613 66.7634 218.698 66.9944C218.782 67.242 218.926 67.4635 219.119 67.6388C219.312 67.8141 219.546 67.9378 219.801 67.9987L227.164 69.7259" fill="#F5F5F5"/>
<path d="M233.052 60.0832L229.999 59.0314C229.065 58.6789 228.043 58.6024 227.054 58.8111C226.064 59.0197 225.149 59.5048 224.414 60.2094L218.992 65.6175C218.819 65.799 218.699 66.0245 218.647 66.2681C218.595 66.5116 218.613 66.7634 218.698 66.9944C218.782 67.242 218.926 67.4635 219.119 67.6388C219.312 67.8141 219.546 67.9378 219.801 67.9987L227.164 69.7259L233.052 60.0832Z" stroke="#9F9F9F" stroke-width="0.5" stroke-linecap="round" stroke-linejoin="round"/>
<path d="M245.089 72.0418L246.14 75.0945C246.493 76.0291 246.569 77.0509 246.361 78.0402C246.152 79.0295 245.667 79.9452 244.963 80.68L239.554 86.1019C239.373 86.2749 239.147 86.3943 238.904 86.4463C238.66 86.4984 238.409 86.481 238.177 86.3962C237.93 86.3121 237.708 86.1673 237.533 85.9747C237.358 85.7822 237.234 85.548 237.173 85.2932L235.446 77.9297" fill="#F5F5F5"/>
<path d="M245.089 72.0418L246.14 75.0945C246.493 76.0291 246.569 77.0509 246.361 78.0402C246.152 79.0295 245.667 79.9452 244.963 80.68L239.554 86.1019C239.373 86.2749 239.147 86.3943 238.904 86.4463C238.66 86.4984 238.409 86.481 238.177 86.3962C237.93 86.3121 237.708 86.1673 237.533 85.9747C237.358 85.7822 237.234 85.548 237.173 85.2932L235.446 77.9297L245.089 72.0418Z" stroke="#9F9F9F" stroke-width="0.5" stroke-linecap="round" stroke-linejoin="round"/>
<path d="M265.108 53.7601C265.108 53.7551 265.108 53.7501 265.108 53.7451L264.595 40.5207C264.59 40.3902 264.485 40.2856 264.355 40.2805L251.131 39.7684C251.126 39.7682 251.121 39.7681 251.117 39.7682C249.121 39.8095 247.166 40.3409 245.426 41.3157C243.685 42.2904 242.211 43.6787 241.134 45.3581L241.134 45.358L241.13 45.3638L226.769 69.1469C226.71 69.2453 226.725 69.3715 226.807 69.4528L235.4 78.0581C235.481 78.1395 235.608 78.1549 235.706 78.0955L259.489 63.7463L259.489 63.7464L259.495 63.7431C261.179 62.6697 262.573 61.1972 263.552 59.4559C264.531 57.7146 265.066 55.7583 265.108 53.7601Z" fill="white" stroke="#9F9F9F" stroke-width="0.5" stroke-linecap="round" stroke-linejoin="round"/>
<path d="M264.344 40.5281L264.857 53.7525C264.857 53.7525 261.785 48.5186 259.07 45.8034C256.355 43.0881 251.121 40.0159 251.121 40.0159L264.344 40.5281Z" fill="#F5F5F5"/>
<path d="M249.398 60.2451C252.036 60.2451 254.174 58.1069 254.174 55.4691C254.174 52.8314 252.036 50.6931 249.398 50.6931C246.761 50.6931 244.622 52.8314 244.622 55.4691C244.622 58.1069 246.761 60.2451 249.398 60.2451Z" fill="#F5F5F5" stroke="#9F9F9F" stroke-width="0.5" stroke-linecap="round" stroke-linejoin="round"/>
<path d="M228.34 84.7608C227.793 85.3077 226.876 85.7246 225.769 86.034C224.67 86.3414 223.416 86.534 222.229 86.6535C221.043 86.7729 219.929 86.8188 219.112 86.8347C218.703 86.8427 218.369 86.8431 218.137 86.8416C218.094 86.8414 218.054 86.841 218.017 86.8406C218.017 86.8044 218.017 86.7644 218.016 86.7207C218.015 86.489 218.015 86.1549 218.023 85.7463C218.039 84.9289 218.085 83.8153 218.205 82.6291C218.324 81.4417 218.517 80.1884 218.824 79.0889C219.134 77.982 219.55 77.0649 220.097 76.5179C222.374 74.2417 226.064 74.2417 228.34 76.5179C230.616 78.7941 230.616 82.4846 228.34 84.7608Z" fill="white" stroke="#9F9F9F" stroke-width="0.5"/>
<path d="M226.674 82.3607C225.521 83.5137 221.454 83.4046 221.454 83.4046C221.454 83.4046 221.345 79.3383 222.498 78.1853C223.651 77.0323 225.521 77.0323 226.674 78.1853C227.827 79.3383 227.827 81.2077 226.674 82.3607Z" fill="#F5F5F5"/>
</svg>
