<svg width="24" height="24" viewBox="0 0 24 24" fill="none" xmlns="http://www.w3.org/2000/svg">
<g clip-path="url(#clip0_1229_73109)">
<path d="M17.4 24.005C16.705 24.005 16.015 23.889 15.348 23.661C13.929 23.175 12.756 22.219 12 20.975V22.5C12 22.914 11.664 23.25 11.25 23.25C10.836 23.25 10.5 22.914 10.5 22.5V18.75C10.5 18.336 10.836 18 11.25 18H15C15.414 18 15.75 18.336 15.75 18.75C15.75 19.164 15.414 19.5 15 19.5H12.933C13.457 20.783 14.512 21.789 15.833 22.241C16.342 22.415 16.869 22.503 17.399 22.503C18.134 22.503 18.847 22.336 19.516 22.008C20.673 21.441 21.539 20.457 21.956 19.239C22.06 18.936 22.345 18.731 22.665 18.731C22.748 18.731 22.831 18.745 22.91 18.772C23.098 18.836 23.251 18.971 23.339 19.151C23.427 19.331 23.44 19.535 23.375 19.724C22.828 21.322 21.692 22.611 20.176 23.354C19.3 23.787 18.365 24.005 17.4 24.005Z" fill="black"/>
<path d="M19.5008 16.501C19.0868 16.501 18.7508 16.165 18.7508 15.751C18.7508 15.337 19.0868 15.001 19.5008 15.001H21.5678C21.0438 13.718 19.9888 12.712 18.6678 12.26C18.1638 12.088 17.6398 12 17.1108 12C15.0468 12 13.2118 13.311 12.5438 15.261C12.4398 15.565 12.1548 15.769 11.8348 15.769C11.7518 15.769 11.6688 15.755 11.5898 15.728C11.4018 15.664 11.2488 15.529 11.1608 15.349C11.0728 15.169 11.0598 14.966 11.1248 14.776C11.9998 12.219 14.4058 10.5 17.1118 10.5C17.8058 10.5 18.4918 10.615 19.1528 10.841C20.5718 11.327 21.7448 12.283 22.5008 13.527V12.002C22.5008 11.588 22.8368 11.252 23.2508 11.252C23.6648 11.252 24.0008 11.588 24.0008 12.001V15.751C24.0008 16.165 23.6648 16.501 23.2508 16.501H19.5008Z" fill="black"/>
<path d="M3.75 7.5C3.336 7.5 3 7.164 3 6.75C3 6.336 3.336 6 3.75 6H14.25C14.664 6 15 6.336 15 6.75C15 7.164 14.664 7.5 14.25 7.5H3.75Z" fill="black"/>
<path d="M3.75 12C3.336 12 3 11.664 3 11.25C3 10.836 3.336 10.5 3.75 10.5H9.75C10.164 10.5 10.5 10.836 10.5 11.25C10.5 11.664 10.164 12 9.75 12H3.75Z" fill="black"/>
<path d="M3.75 16.5C3.336 16.5 3 16.164 3 15.75C3 15.336 3.336 15 3.75 15H7.5C7.914 15 8.25 15.336 8.25 15.75C8.25 16.164 7.914 16.5 7.5 16.5H3.75Z" fill="black"/>
<path d="M2.25 21C1.009 21 0 19.991 0 18.75V2.25C0 1.009 1.009 0 2.25 0H12.879C13.48 0 14.044 0.234 14.469 0.658L17.341 3.53C17.766 3.956 18 4.521 18 5.121V7.5C18 7.914 17.664 8.25 17.25 8.25C16.836 8.25 16.5 7.914 16.5 7.5V5.121C16.5 4.924 16.42 4.731 16.281 4.591L13.409 1.719C13.267 1.578 13.079 1.5 12.879 1.5H2.25C1.836 1.5 1.5 1.836 1.5 2.25V18.75C1.5 19.164 1.836 19.5 2.25 19.5H7.5C7.914 19.5 8.25 19.836 8.25 20.25C8.25 20.664 7.914 21 7.5 21H2.25Z" fill="black"/>
</g>
<defs>
<clipPath id="clip0_1229_73109">
<rect width="24" height="24" fill="white"/>
</clipPath>
</defs>
</svg>
