<svg width="99" height="98" viewBox="0 0 99 98" fill="none" xmlns="http://www.w3.org/2000/svg">
<path opacity="0.5" fill-rule="evenodd" clip-rule="evenodd" d="M30.0142 23.5262C30.0142 21.0799 32.4331 19.3315 34.8224 20.051L75.6935 32.3577C77.2525 32.8271 78.3164 34.2367 78.3164 35.833V70.0392C78.3164 72.4856 75.8974 74.2339 73.5081 73.5145L32.637 61.2078C31.078 60.7383 30.0142 59.3288 30.0142 57.7325V23.5262Z" fill="#FF9ABF"/>
<path opacity="0.8" fill-rule="evenodd" clip-rule="evenodd" d="M20.7256 29.3441C20.7256 26.8978 23.1445 25.1494 25.5338 25.8688L66.4049 38.1756C67.964 38.645 69.0278 40.0546 69.0278 41.6508V75.8571C69.0278 78.3035 66.6089 80.0518 64.2196 79.3324L23.3484 67.0257C21.7894 66.5562 20.7256 65.1466 20.7256 63.5504V29.3441Z" fill="#F789B2"/>
<path fill-rule="evenodd" clip-rule="evenodd" d="M11.4365 36.6161C11.4365 34.1697 13.8555 32.4214 16.2448 33.1408L57.1159 45.4475C58.6749 45.917 59.7387 47.3266 59.7387 48.9228V83.1291C59.7387 85.5754 57.3198 87.3238 54.9305 86.6043L14.0594 74.2976C12.5004 73.8282 11.4365 72.4186 11.4365 70.8223V36.6161Z" fill="#FF5B97"/>
<mask id="mask0_9245_19790" style="mask-type:luminance" maskUnits="userSpaceOnUse" x="11" y="32" width="49" height="55">
<path fill-rule="evenodd" clip-rule="evenodd" d="M11.4365 36.6161C11.4365 34.1697 13.8555 32.4214 16.2448 33.1408L57.1159 45.4475C58.6749 45.917 59.7387 47.3265 59.7387 48.9228V83.1291C59.7387 85.5754 57.3198 87.3238 54.9305 86.6043L14.0594 74.2976C12.5004 73.8282 11.4365 72.4186 11.4365 70.8223V36.6161Z" fill="white"/>
</mask>
<g mask="url(#mask0_9245_19790)">
<g style="mix-blend-mode:multiply">
<path fill-rule="evenodd" clip-rule="evenodd" d="M11.4365 30.4478L59.7387 44.9921L35.4521 66.1665C33.6389 67.7474 30.7888 67.229 29.6771 65.1161L11.4365 30.4478Z" fill="#F2357A"/>
</g>
</g>
<path fill-rule="evenodd" clip-rule="evenodd" d="M6.38225 18.3964L2.92475 20.2646L3.58508 16.3076L0.787898 13.5052L4.6535 12.9279L6.38225 9.32764L8.11101 12.9279L11.9766 13.5052L9.17943 16.3076L9.83976 20.2646L6.38225 18.3964Z" fill="#FFC10A"/>
<path fill-rule="evenodd" clip-rule="evenodd" d="M92.6176 45.0272L89.1601 46.8955L89.8204 42.9385L87.0232 40.1361L90.8889 39.5587L92.6176 35.9585L94.3464 39.5587L98.212 40.1361L95.4148 42.9385L96.0751 46.8955L92.6176 45.0272Z" fill="#FFC10A"/>
<path fill-rule="evenodd" clip-rule="evenodd" d="M89.6955 12.0917L85.0855 14.5827L85.966 9.30661L82.2364 5.57009L87.3905 4.80032L89.6955 0L92.0005 4.80032L97.1547 5.57009L93.4251 9.30661L94.3055 14.5827L89.6955 12.0917Z" fill="#FF9802"/>
<path fill-rule="evenodd" clip-rule="evenodd" d="M62.9479 19.3754L60.6429 20.6209L61.0831 17.9829L59.2183 16.1146L61.7954 15.7297L62.9479 13.3296L64.1004 15.7297L66.6774 16.1146L64.8127 17.9829L65.2529 20.6209L62.9479 19.3754Z" fill="#FFC10A"/>
<path fill-rule="evenodd" clip-rule="evenodd" d="M24.0104 12.0917L21.7054 13.3372L22.1456 10.6992L20.2808 8.83094L22.8579 8.44606L24.0104 6.0459L25.1629 8.44606L27.7399 8.83094L25.8752 10.6992L26.3154 13.3372L24.0104 12.0917Z" fill="#FF9802"/>
</svg>
