<svg width="24" height="24" viewBox="0 0 24 24" fill="none" xmlns="http://www.w3.org/2000/svg">
<g clip-path="url(#clip0_16213_16709)">
<path d="M22.976 11.5144C23.0033 11.4462 23.01 11.3716 22.9952 11.2996C22.9805 11.2277 22.9449 11.1617 22.893 11.1098C22.8411 11.0579 22.7751 11.0224 22.7032 11.0076C22.6313 10.9929 22.5567 10.9996 22.4885 11.0269L11.5783 15.3911L11.2385 15.5261C11.1743 15.5517 11.1184 15.5946 11.077 15.65C11.0357 15.7053 11.0104 15.7711 11.004 15.8399C10.9977 15.9087 11.0105 15.978 11.041 16.04C11.0715 16.102 11.1186 16.1544 11.177 16.1914L11.4845 16.3864L11.4853 16.3879L15.2315 18.7714L17.615 22.5176L17.6165 22.5191L17.8115 22.8266C17.8486 22.8848 17.901 22.9316 17.963 22.962C18.0249 22.9923 18.0941 23.005 18.1628 22.9985C18.2315 22.9921 18.2971 22.9668 18.3523 22.9255C18.4076 22.8842 18.4504 22.8284 18.476 22.7644L22.976 11.5144ZM21.6013 12.9319L15.9808 18.5524L15.8195 18.2989C15.79 18.2523 15.7505 18.2129 15.704 18.1834L15.4505 18.0221L21.071 12.4016L21.9545 12.0484L21.6013 12.9319Z" fill="#666666"/>
<path fill-rule="evenodd" clip-rule="evenodd" d="M0.502441 10.4286C0.502441 4.94517 4.94761 0.5 10.431 0.5C15.1721 0.5 19.136 3.82256 20.1233 8.26582C20.1832 8.53539 20.0132 8.80247 19.7436 8.86237C19.4741 8.92227 19.207 8.7523 19.1471 8.48273C18.2593 4.48721 14.6934 1.5 10.431 1.5C5.49989 1.5 1.50244 5.49745 1.50244 10.4286C1.50244 14.9968 4.93367 18.7645 9.35924 19.2935C9.63343 19.3263 9.82913 19.5751 9.79636 19.8493C9.76359 20.1235 9.51474 20.3192 9.24055 20.2864C4.31818 19.698 0.502441 15.5092 0.502441 10.4286Z" fill="#666666"/>
<path fill-rule="evenodd" clip-rule="evenodd" d="M10.431 4.78613C10.7072 4.78613 10.931 5.00999 10.931 5.28613V10.429C10.931 10.7051 10.7072 10.929 10.431 10.929H6.1453C5.86916 10.929 5.6453 10.7051 5.6453 10.429C5.6453 10.1528 5.86916 9.92899 6.1453 9.92899H9.93101V5.28613C9.93101 5.00999 10.1549 4.78613 10.431 4.78613Z" fill="#666666"/>
</g>
<defs>
<clipPath id="clip0_16213_16709">
<rect width="24" height="24" fill="white" transform="translate(0.00292969)"/>
</clipPath>
</defs>
</svg>
