<svg width="129" height="138" viewBox="0 0 129 138" fill="none" xmlns="http://www.w3.org/2000/svg">
<path d="M128.25 40.4888V112.494C128.25 118.621 123.283 123.587 117.156 123.587H11.8438C5.71684 123.587 0.75 118.621 0.75 112.494V40.4888H128.25Z" fill="#FAFAFA" stroke="#9F9F9F" stroke-width="0.5"/>
<path d="M127.796 40.4888L69.1133 88.1987C66.51 90.3152 62.8141 90.3811 60.1426 88.397L59.8867 88.1987L1.2041 40.4888H127.796Z" fill="#F1F1F1" stroke="#9F9F9F" stroke-width="0.5"/>
<path d="M1.7041 40.3354L60.5693 2.80322C62.8924 1.32223 65.8429 1.27588 68.2051 2.66455L68.4316 2.80322L127.296 40.3354L1.7041 40.3354Z" fill="#F1F1F1" stroke="#9F9F9F" stroke-width="0.5"/>
<path d="M90.5625 20.6812C93.2456 20.6814 95.4207 22.8564 95.4209 25.5396V66.9438L95.3301 67.019L64.833 92.3149L64.6738 92.4468L64.5146 92.3159L33.7539 67.02L33.6631 66.9448V25.5396C33.6633 22.8564 35.8383 20.6813 38.5215 20.6812H90.5625Z" fill="white" stroke="#9F9F9F" stroke-width="0.5"/>
<circle cx="86.2888" cy="29.715" r="4.88544" fill="#F1F1F1" stroke="#9F9F9F" stroke-width="0.5"/>
<path d="M114.402 12.2104L114.629 12.2163C116.956 12.3341 118.807 14.2582 118.807 16.6147V47.7192L118.715 47.7944L64.5332 91.936L64.376 92.064L64.2178 91.936L8.65137 46.7554L8.55957 46.6812V16.6147C8.55967 14.1824 10.5315 12.2105 12.9639 12.2104H114.402Z" fill="white" stroke="#9F9F9F" stroke-width="0.5"/>
<mask id="mask0_2032_66883" style="mask-type:alpha" maskUnits="userSpaceOnUse" x="8" y="11" width="112" height="82">
<path d="M114.402 12.2104L114.629 12.2163C116.956 12.3341 118.807 14.2582 118.807 16.6147V47.7192L118.715 47.7944L64.5332 91.936L64.376 92.064L64.2178 91.936L8.65137 46.7554L8.55957 46.6812V16.6147C8.55967 14.1824 10.5315 12.2105 12.9639 12.2104H114.402Z" fill="white" stroke="#9F9F9F" stroke-width="0.5"/>
</mask>
<g mask="url(#mask0_2032_66883)">
<path d="M22.6678 22.115V27.915H21.8518V25.283H18.8038V27.915H17.9878V22.115H18.8038V24.579H21.8518V22.115H22.6678ZM25.3509 22.115V22.995H24.6229V22.115H25.3509ZM25.3509 23.611V27.915H24.6229V23.611H25.3509ZM30.717 27.211H33.781V27.915H29.901V22.115H30.717V27.211ZM34.7957 26.779C34.7957 25.763 35.9397 25.467 37.7077 25.267V25.163C37.7077 24.379 37.2677 24.115 36.7317 24.115C36.1317 24.115 35.7797 24.443 35.7477 24.971H34.9957C35.0677 24.043 35.8837 23.523 36.7237 23.523C37.9077 23.523 38.4437 24.091 38.4357 25.299L38.4277 26.291C38.4197 27.011 38.4597 27.507 38.5397 27.915H37.8037C37.7797 27.755 37.7557 27.579 37.7477 27.323C37.4837 27.763 37.0357 28.019 36.2757 28.019C35.4677 28.019 34.7957 27.571 34.7957 26.779ZM37.7637 25.843C36.4437 25.979 35.6037 26.171 35.6037 26.763C35.6037 27.171 35.9157 27.443 36.4357 27.443C37.1157 27.443 37.7637 27.131 37.7637 26.115V25.843ZM42.8769 27.299C42.6289 27.707 42.2369 28.019 41.5249 28.019C40.5249 28.019 40.1489 27.347 40.1489 26.363V23.611H40.8769V26.147C40.8769 26.811 40.9889 27.387 41.7809 27.387C42.4689 27.387 42.8769 26.899 42.8769 25.979V23.611H43.6049V27.915H42.8769V27.299ZM47.5962 24.371C47.4442 24.355 47.3082 24.339 47.1882 24.339C46.5162 24.339 46.1802 24.715 46.1802 25.659V27.915H45.4522V23.611H46.1642V24.363C46.3802 23.875 46.8202 23.603 47.3802 23.587C47.4522 23.587 47.5162 23.587 47.5962 23.595V24.371ZM48.5761 26.779C48.5761 25.763 49.7201 25.467 51.4881 25.267V25.163C51.4881 24.379 51.0481 24.115 50.5121 24.115C49.9121 24.115 49.5601 24.443 49.5281 24.971H48.7761C48.8481 24.043 49.6641 23.523 50.5041 23.523C51.6881 23.523 52.2241 24.091 52.2161 25.299L52.2081 26.291C52.2001 27.011 52.2401 27.507 52.3201 27.915H51.5841C51.5601 27.755 51.5361 27.579 51.5281 27.323C51.2641 27.763 50.8161 28.019 50.0561 28.019C49.2481 28.019 48.5761 27.571 48.5761 26.779ZM51.5441 25.843C50.2241 25.979 49.3841 26.171 49.3841 26.763C49.3841 27.171 49.6961 27.443 50.2161 27.443C50.8961 27.443 51.5441 27.131 51.5441 26.115V25.843ZM53.9997 26.995H54.9197V27.979L54.4317 29.027H53.9677L54.3917 27.915H53.9997V26.995ZM19.8038 42.115C21.2198 42.115 22.2118 42.435 22.2118 43.867C22.2118 45.307 21.2198 45.619 19.8038 45.619H18.8038V47.915H17.9878V42.115H19.8038ZM18.8038 42.803V44.907H19.8678C20.7158 44.907 21.3798 44.819 21.3798 43.867C21.3798 42.923 20.7158 42.803 19.8678 42.803H18.8038ZM24.3822 47.915H23.6542V42.115H24.3822V47.915ZM26.7174 46.003C26.7494 46.931 27.4054 47.379 28.0454 47.379C28.6854 47.379 29.0374 47.091 29.2214 46.667H29.9734C29.7734 47.411 29.0934 48.019 28.0454 48.019C26.6854 48.019 25.9334 47.043 25.9334 45.771C25.9334 44.411 26.8454 43.539 28.0214 43.539C29.3334 43.539 30.1254 44.643 30.0294 46.003H26.7174ZM26.7254 45.379H29.2614C29.2454 44.771 28.7894 44.163 28.0214 44.163C27.3734 44.163 26.7894 44.515 26.7254 45.379ZM31.2752 46.779C31.2752 45.763 32.4192 45.467 34.1872 45.267V45.163C34.1872 44.379 33.7472 44.115 33.2112 44.115C32.6112 44.115 32.2592 44.443 32.2272 44.971H31.4752C31.5472 44.043 32.3632 43.523 33.2032 43.523C34.3872 43.523 34.9232 44.091 34.9152 45.299L34.9072 46.291C34.8992 47.011 34.9392 47.507 35.0192 47.915H34.2832C34.2592 47.755 34.2352 47.579 34.2272 47.323C33.9632 47.763 33.5152 48.019 32.7552 48.019C31.9472 48.019 31.2752 47.571 31.2752 46.779ZM34.2432 45.843C32.9232 45.979 32.0832 46.171 32.0832 46.763C32.0832 47.171 32.3952 47.443 32.9152 47.443C33.5952 47.443 34.2432 47.131 34.2432 46.115V45.843ZM39.1563 44.867C39.0443 44.355 38.6443 44.155 38.1403 44.155C37.7163 44.155 37.2363 44.307 37.2363 44.699C37.2363 45.043 37.4763 45.203 37.8923 45.283L38.5003 45.403C39.2843 45.555 39.9723 45.851 39.9723 46.683C39.9723 47.531 39.2043 48.019 38.2203 48.019C37.0923 48.019 36.4523 47.275 36.3723 46.523H37.1403C37.2523 47.075 37.5963 47.403 38.2363 47.403C38.7883 47.403 39.2363 47.163 39.2363 46.763C39.2363 46.331 38.8283 46.147 38.3643 46.051L37.7243 45.923C37.1403 45.803 36.5003 45.531 36.5003 44.731C36.5003 43.971 37.2683 43.531 38.2203 43.531C39.1483 43.531 39.7803 44.051 39.9163 44.867H39.1563ZM42.0759 46.003C42.1079 46.931 42.7639 47.379 43.4039 47.379C44.0439 47.379 44.3959 47.091 44.5799 46.667H45.3319C45.1319 47.411 44.4519 48.019 43.4039 48.019C42.0439 48.019 41.2919 47.043 41.2919 45.771C41.2919 44.411 42.2039 43.539 43.3799 43.539C44.6919 43.539 45.4839 44.643 45.3879 46.003H42.0759ZM42.0839 45.379H44.6199C44.6039 44.771 44.1479 44.163 43.3799 44.163C42.7319 44.163 42.1479 44.515 42.0839 45.379ZM49.7036 43.299C49.7036 42.403 49.8876 42.115 50.8636 42.115H51.2396V42.723H50.8796C50.4956 42.723 50.4316 42.811 50.4316 43.259V43.611H51.2396V44.195H50.4316V47.915H49.7036V44.195H49.1036V43.611H49.7036V43.299ZM53.4478 42.115V42.995H52.7198V42.115H53.4478ZM53.4478 43.611V47.915H52.7198V43.611H53.4478ZM56.023 44.259C56.271 43.851 56.687 43.539 57.415 43.539C58.455 43.539 58.831 44.211 58.831 45.195V47.915H58.103V45.411C58.103 44.747 57.991 44.171 57.159 44.171C56.455 44.171 56.023 44.659 56.023 45.579V47.915H55.295V43.611H56.023V44.259ZM63.5644 42.115H64.2924V47.915H63.5644V47.267C63.3004 47.723 62.8444 48.019 62.1564 48.019C61.1724 48.019 60.3164 47.203 60.3164 45.779C60.3164 44.363 61.1724 43.539 62.1564 43.539C62.8444 43.539 63.3004 43.835 63.5644 44.291V42.115ZM62.3404 44.163C61.5964 44.163 61.1084 44.755 61.1084 45.779C61.1084 46.803 61.5964 47.395 62.3404 47.395C62.9884 47.395 63.5964 46.915 63.5964 45.779C63.5964 44.643 62.9884 44.163 62.3404 44.163ZM68.4678 46.779C68.4678 45.763 69.6118 45.467 71.3798 45.267V45.163C71.3798 44.379 70.9398 44.115 70.4038 44.115C69.8038 44.115 69.4518 44.443 69.4198 44.971H68.6678C68.7398 44.043 69.5558 43.523 70.3958 43.523C71.5798 43.523 72.1158 44.091 72.1078 45.299L72.0998 46.291C72.0918 47.011 72.1318 47.507 72.2118 47.915H71.4758C71.4518 47.755 71.4278 47.579 71.4198 47.323C71.1558 47.763 70.7078 48.019 69.9478 48.019C69.1398 48.019 68.4678 47.571 68.4678 46.779ZM71.4358 45.843C70.1158 45.979 69.2758 46.171 69.2758 46.763C69.2758 47.171 69.5878 47.443 70.1078 47.443C70.7878 47.443 71.4358 47.131 71.4358 46.115V45.843ZM74.093 42.531H74.821V43.611H75.637V44.195H74.821V46.747C74.821 47.195 74.853 47.307 75.269 47.307H75.637V47.915H75.109C74.285 47.915 74.093 47.731 74.093 46.835V44.195H73.413V43.611H74.093V42.531ZM77.387 42.531H78.115V43.611H78.931V44.195H78.115V46.747C78.115 47.195 78.147 47.307 78.563 47.307H78.931V47.915H78.403C77.579 47.915 77.387 47.731 77.387 46.835V44.195H76.707V43.611H77.387V42.531ZM80.2169 46.779C80.2169 45.763 81.3609 45.467 83.1289 45.267V45.163C83.1289 44.379 82.6889 44.115 82.1529 44.115C81.5529 44.115 81.2009 44.443 81.1689 44.971H80.4169C80.4889 44.043 81.3049 43.523 82.1449 43.523C83.3289 43.523 83.8649 44.091 83.8569 45.299L83.8489 46.291C83.8409 47.011 83.8809 47.507 83.9609 47.915H83.2249C83.2009 47.755 83.1769 47.579 83.1689 47.323C82.9049 47.763 82.4569 48.019 81.6969 48.019C80.8889 48.019 80.2169 47.571 80.2169 46.779ZM83.1849 45.843C81.8649 45.979 81.0249 46.171 81.0249 46.763C81.0249 47.171 81.3369 47.443 81.8569 47.443C82.5369 47.443 83.1849 47.131 83.1849 46.115V45.843ZM89.2181 45.051H88.4821C88.3781 44.539 87.9301 44.179 87.3701 44.179C86.7221 44.179 86.1301 44.683 86.1301 45.763C86.1301 46.859 86.7301 47.379 87.3701 47.379C87.9781 47.379 88.4101 46.971 88.5141 46.515H89.2661C89.1221 47.323 88.3461 48.019 87.3461 48.019C86.1141 48.019 85.3381 47.083 85.3381 45.771C85.3381 44.491 86.1461 43.539 87.4181 43.539C88.4581 43.539 89.1221 44.323 89.2181 45.051ZM91.5076 44.259C91.7556 43.851 92.1716 43.539 92.8996 43.539C93.9396 43.539 94.3156 44.211 94.3156 45.195V47.915H93.5876V45.411C93.5876 44.747 93.4756 44.171 92.6436 44.171C91.9396 44.171 91.5076 44.659 91.5076 45.579V47.915H90.7796V42.115H91.5076V44.259ZM96.585 46.003C96.617 46.931 97.273 47.379 97.913 47.379C98.553 47.379 98.905 47.091 99.089 46.667H99.841C99.641 47.411 98.961 48.019 97.913 48.019C96.553 48.019 95.801 47.043 95.801 45.771C95.801 44.411 96.713 43.539 97.889 43.539C99.201 43.539 99.993 44.643 99.897 46.003H96.585ZM96.593 45.379H99.129C99.113 44.771 98.657 44.163 97.889 44.163C97.241 44.163 96.657 44.515 96.593 45.379ZM104.429 42.115H105.157V47.915H104.429V47.267C104.165 47.723 103.709 48.019 103.021 48.019C102.037 48.019 101.181 47.203 101.181 45.779C101.181 44.363 102.037 43.539 103.021 43.539C103.709 43.539 104.165 43.835 104.429 44.291V42.115ZM103.205 44.163C102.461 44.163 101.973 44.755 101.973 45.779C101.973 46.803 102.461 47.395 103.205 47.395C103.853 47.395 104.461 46.915 104.461 45.779C104.461 44.643 103.853 44.163 103.205 44.163ZM18.0838 52.531H18.8118V53.611H19.6278V54.195H18.8118V56.747C18.8118 57.195 18.8438 57.307 19.2598 57.307H19.6278V57.915H19.0998C18.2758 57.915 18.0838 57.731 18.0838 56.835V54.195H17.4038V53.611H18.0838V52.531ZM21.9759 54.259C22.2239 53.851 22.6399 53.539 23.3679 53.539C24.4079 53.539 24.7839 54.211 24.7839 55.195V57.915H24.0559V55.411C24.0559 54.747 23.9439 54.171 23.1119 54.171C22.4079 54.171 21.9759 54.659 21.9759 55.579V57.915H21.2479V52.115H21.9759V54.259ZM27.0533 56.003C27.0853 56.931 27.7413 57.379 28.3813 57.379C29.0213 57.379 29.3733 57.091 29.5573 56.667H30.3093C30.1093 57.411 29.4293 58.019 28.3813 58.019C27.0213 58.019 26.2693 57.043 26.2693 55.771C26.2693 54.411 27.1813 53.539 28.3573 53.539C29.6693 53.539 30.4613 54.643 30.3653 56.003H27.0533ZM27.0613 55.379H29.5973C29.5813 54.771 29.1253 54.163 28.3573 54.163C27.7093 54.163 27.1253 54.515 27.0613 55.379ZM37.161 57.299C36.913 57.707 36.521 58.019 35.809 58.019C34.809 58.019 34.433 57.347 34.433 56.363V53.611H35.161V56.147C35.161 56.811 35.273 57.387 36.065 57.387C36.753 57.387 37.161 56.899 37.161 55.979V53.611H37.889V57.915H37.161V57.299ZM40.4643 53.611V54.291C40.7283 53.835 41.1843 53.539 41.8723 53.539C42.8563 53.539 43.7123 54.363 43.7123 55.779C43.7123 57.203 42.8563 58.019 41.8723 58.019C41.1843 58.019 40.7283 57.723 40.4643 57.267V59.315H39.7363V53.611H40.4643ZM41.6883 57.395C42.4323 57.395 42.9203 56.803 42.9203 55.779C42.9203 54.755 42.4323 54.163 41.6883 54.163C41.0403 54.163 40.4323 54.643 40.4323 55.779C40.4323 56.915 41.0403 57.395 41.6883 57.395ZM48.2713 52.115H48.9993V57.915H48.2713V57.267C48.0073 57.723 47.5513 58.019 46.8633 58.019C45.8793 58.019 45.0233 57.203 45.0233 55.779C45.0233 54.363 45.8793 53.539 46.8633 53.539C47.5513 53.539 48.0073 53.835 48.2713 54.291V52.115ZM47.0473 54.163C46.3033 54.163 45.8153 54.755 45.8153 55.779C45.8153 56.803 46.3033 57.395 47.0473 57.395C47.6953 57.395 48.3033 56.915 48.3033 55.779C48.3033 54.643 47.6953 54.163 47.0473 54.163ZM50.5839 56.779C50.5839 55.763 51.7279 55.467 53.4959 55.267V55.163C53.4959 54.379 53.0559 54.115 52.5199 54.115C51.9199 54.115 51.5679 54.443 51.5359 54.971H50.7839C50.8559 54.043 51.6719 53.523 52.5119 53.523C53.6959 53.523 54.2319 54.091 54.2239 55.299L54.2159 56.291C54.2079 57.011 54.2479 57.507 54.3279 57.915H53.5919C53.5679 57.755 53.5439 57.579 53.5359 57.323C53.2719 57.763 52.8239 58.019 52.0639 58.019C51.2559 58.019 50.5839 57.571 50.5839 56.779ZM53.5519 55.843C52.2319 55.979 51.3919 56.171 51.3919 56.763C51.3919 57.171 51.7039 57.443 52.2239 57.443C52.9039 57.443 53.5519 57.131 53.5519 56.115V55.843ZM56.209 52.531H56.937V53.611H57.753V54.195H56.937V56.747C56.937 57.195 56.969 57.307 57.385 57.307H57.753V57.915H57.225C56.401 57.915 56.209 57.731 56.209 56.835V54.195H55.529V53.611H56.209V52.531ZM59.744 56.003C59.776 56.931 60.432 57.379 61.072 57.379C61.712 57.379 62.064 57.091 62.248 56.667H63C62.8 57.411 62.12 58.019 61.072 58.019C59.712 58.019 58.96 57.043 58.96 55.771C58.96 54.411 59.872 53.539 61.048 53.539C62.36 53.539 63.152 54.643 63.056 56.003H59.744ZM59.752 55.379H62.288C62.272 54.771 61.816 54.163 61.048 54.163C60.4 54.163 59.816 54.515 59.752 55.379ZM67.5879 52.115H68.3159V57.915H67.5879V57.267C67.3239 57.723 66.8679 58.019 66.1799 58.019C65.1959 58.019 64.3399 57.203 64.3399 55.779C64.3399 54.363 65.1959 53.539 66.1799 53.539C66.8679 53.539 67.3239 53.835 67.5879 54.291V52.115ZM66.3639 54.163C65.6199 54.163 65.1319 54.755 65.1319 55.779C65.1319 56.803 65.6199 57.395 66.3639 57.395C67.0119 57.395 67.6199 56.915 67.6199 55.779C67.6199 54.643 67.0119 54.163 66.3639 54.163ZM77.3313 57.115L78.0193 57.803L77.5233 58.299L76.8113 57.587C76.3953 57.867 75.8833 58.019 75.2993 58.019C73.6273 58.019 72.5793 56.763 72.5793 55.011C72.5793 53.259 73.6273 52.011 75.2993 52.011C76.9713 52.011 78.0193 53.259 78.0193 55.011C78.0193 55.859 77.7713 56.587 77.3313 57.115ZM75.2993 57.331C75.6593 57.331 75.9873 57.235 76.2753 57.051L75.7393 56.515L76.2353 56.011L76.7713 56.555C77.0353 56.171 77.1873 55.659 77.1873 55.011C77.1873 53.515 76.3553 52.699 75.2993 52.699C74.2433 52.699 73.4113 53.515 73.4113 55.011C73.4113 56.507 74.2433 57.331 75.2993 57.331ZM83.3775 53.531C83.3775 54.875 81.9775 56.067 80.3535 57.235H83.5375V57.915H79.3615V57.259C81.4095 55.747 82.6095 54.651 82.6095 53.627C82.6095 53.027 82.2095 52.619 81.5215 52.619C80.8975 52.619 80.2895 52.963 80.2735 53.923H79.5215C79.5055 52.771 80.3055 52.011 81.5375 52.011C82.6095 52.011 83.3775 52.555 83.3775 53.531ZM18.6038 62.115V64.291C18.8678 63.835 19.3238 63.539 20.0118 63.539C20.9958 63.539 21.8518 64.363 21.8518 65.779C21.8518 67.203 20.9958 68.019 20.0118 68.019C19.3238 68.019 18.8678 67.723 18.6038 67.267V67.915H17.8758V62.115H18.6038ZM19.8278 67.395C20.5718 67.395 21.0598 66.803 21.0598 65.779C21.0598 64.755 20.5718 64.163 19.8278 64.163C19.1798 64.163 18.5718 64.643 18.5718 65.779C18.5718 66.915 19.1798 67.395 19.8278 67.395ZM26.0369 67.299C25.7889 67.707 25.3969 68.019 24.6849 68.019C23.6849 68.019 23.3089 67.347 23.3089 66.363V63.611H24.0369V66.147C24.0369 66.811 24.1489 67.387 24.9409 67.387C25.6289 67.387 26.0369 66.899 26.0369 65.979V63.611H26.7649V67.915H26.0369V67.299ZM31.5642 62.115H32.2922V67.915H31.5642V67.267C31.3002 67.723 30.8442 68.019 30.1562 68.019C29.1722 68.019 28.3162 67.203 28.3162 65.779C28.3162 64.363 29.1722 63.539 30.1562 63.539C30.8442 63.539 31.3002 63.835 31.5642 64.291V62.115ZM30.3402 64.163C29.5962 64.163 29.1082 64.755 29.1082 65.779C29.1082 66.803 29.5962 67.395 30.3402 67.395C30.9882 67.395 31.5962 66.915 31.5962 65.779C31.5962 64.643 30.9882 64.163 30.3402 64.163ZM37.0287 63.611H37.7567V67.339C37.7567 68.219 37.5967 68.579 37.3487 68.851C37.0367 69.211 36.5007 69.419 35.8607 69.419C34.8847 69.419 34.2287 68.971 34.0927 68.099H34.8687C34.9647 68.483 35.1967 68.779 35.8687 68.779C36.2607 68.779 36.5567 68.667 36.7487 68.459C36.9087 68.291 37.0287 68.091 37.0287 67.507V67.099C36.7647 67.555 36.3487 67.843 35.6607 67.843C34.7087 67.843 33.8367 67.075 33.8367 65.691C33.8367 64.315 34.7087 63.539 35.6607 63.539C36.3487 63.539 36.7647 63.835 37.0287 64.291V63.611ZM35.8447 64.163C35.1327 64.163 34.6287 64.715 34.6287 65.691C34.6287 66.675 35.1327 67.227 35.8447 67.227C36.4927 67.227 37.0607 66.787 37.0607 65.691C37.0607 64.603 36.4927 64.163 35.8447 64.163ZM40.0866 66.003C40.1186 66.931 40.7746 67.379 41.4146 67.379C42.0546 67.379 42.4066 67.091 42.5906 66.667H43.3426C43.1426 67.411 42.4626 68.019 41.4146 68.019C40.0546 68.019 39.3026 67.043 39.3026 65.771C39.3026 64.411 40.2146 63.539 41.3906 63.539C42.7026 63.539 43.4946 64.643 43.3986 66.003H40.0866ZM40.0946 65.379H42.6306C42.6146 64.771 42.1586 64.163 41.3906 64.163C40.7426 64.163 40.1586 64.515 40.0946 65.379ZM45.1474 62.531H45.8754V63.611H46.6914V64.195H45.8754V66.747C45.8754 67.195 45.9074 67.307 46.3234 67.307H46.6914V67.915H46.1634C45.3394 67.915 45.1474 67.731 45.1474 66.835V64.195H44.4674V63.611H45.1474V62.531ZM51.0083 63.299C51.0083 62.403 51.1923 62.115 52.1683 62.115H52.5443V62.723H52.1843C51.8003 62.723 51.7363 62.811 51.7363 63.259V63.611H52.5443V64.195H51.7363V67.915H51.0083V64.195H50.4083V63.611H51.0083V63.299ZM57.7162 65.779C57.7162 67.339 56.6522 68.019 55.6522 68.019C54.6522 68.019 53.5882 67.339 53.5882 65.779C53.5882 64.219 54.6522 63.539 55.6522 63.539C56.6522 63.539 57.7162 64.219 57.7162 65.779ZM55.6522 67.379C56.3082 67.379 56.9402 66.883 56.9402 65.779C56.9402 64.635 56.3082 64.179 55.6522 64.179C54.9962 64.179 54.3642 64.603 54.3642 65.779C54.3642 66.923 54.9962 67.379 55.6522 67.379ZM61.4234 64.371C61.2714 64.355 61.1354 64.339 61.0154 64.339C60.3434 64.339 60.0074 64.715 60.0074 65.659V67.915H59.2794V63.611H59.9914V64.363C60.2074 63.875 60.6474 63.603 61.2074 63.587C61.2794 63.587 61.3434 63.587 61.4234 63.595V64.371ZM63.2254 66.003C63.2574 66.931 63.9134 67.379 64.5534 67.379C65.1934 67.379 65.5454 67.091 65.7294 66.667H66.4814C66.2814 67.411 65.6014 68.019 64.5534 68.019C63.1934 68.019 62.4414 67.043 62.4414 65.771C62.4414 64.411 63.3534 63.539 64.5294 63.539C65.8414 63.539 66.6334 64.643 66.5374 66.003H63.2254ZM63.2334 65.379H65.7694C65.7534 64.771 65.2974 64.163 64.5294 64.163C63.8814 64.163 63.2974 64.515 63.2334 65.379ZM71.7013 65.051H70.9653C70.8613 64.539 70.4133 64.179 69.8533 64.179C69.2053 64.179 68.6133 64.683 68.6133 65.763C68.6133 66.859 69.2133 67.379 69.8533 67.379C70.4613 67.379 70.8933 66.971 70.9973 66.515H71.7493C71.6053 67.323 70.8293 68.019 69.8293 68.019C68.5973 68.019 67.8213 67.083 67.8213 65.771C67.8213 64.491 68.6293 63.539 69.9013 63.539C70.9413 63.539 71.6053 64.323 71.7013 65.051ZM73.0069 66.779C73.0069 65.763 74.1509 65.467 75.9189 65.267V65.163C75.9189 64.379 75.4789 64.115 74.9429 64.115C74.3429 64.115 73.9909 64.443 73.9589 64.971H73.2069C73.2789 64.043 74.0949 63.523 74.9349 63.523C76.1189 63.523 76.6549 64.091 76.6469 65.299L76.6389 66.291C76.6309 67.011 76.6709 67.507 76.7509 67.915H76.0149C75.9909 67.755 75.9669 67.579 75.9589 67.323C75.6949 67.763 75.2469 68.019 74.4869 68.019C73.6789 68.019 73.0069 67.571 73.0069 66.779ZM75.9749 65.843C74.6549 65.979 73.8149 66.171 73.8149 66.763C73.8149 67.171 74.1269 67.443 74.6469 67.443C75.3269 67.443 75.9749 67.131 75.9749 66.115V65.843ZM80.888 64.867C80.776 64.355 80.376 64.155 79.872 64.155C79.448 64.155 78.968 64.307 78.968 64.699C78.968 65.043 79.208 65.203 79.624 65.283L80.232 65.403C81.016 65.555 81.704 65.851 81.704 66.683C81.704 67.531 80.936 68.019 79.952 68.019C78.824 68.019 78.184 67.275 78.104 66.523H78.872C78.984 67.075 79.328 67.403 79.968 67.403C80.52 67.403 80.968 67.163 80.968 66.763C80.968 66.331 80.56 66.147 80.096 66.051L79.456 65.923C78.872 65.803 78.232 65.531 78.232 64.731C78.232 63.971 79 63.531 79.952 63.531C80.88 63.531 81.512 64.051 81.648 64.867H80.888ZM83.5276 62.531H84.2556V63.611H85.0716V64.195H84.2556V66.747C84.2556 67.195 84.2876 67.307 84.7036 67.307H85.0716V67.915H84.5436C83.7196 67.915 83.5276 67.731 83.5276 66.835V64.195H82.8476V63.611H83.5276V62.531ZM88.9484 66.779C88.9484 65.763 90.0924 65.467 91.8604 65.267V65.163C91.8604 64.379 91.4204 64.115 90.8844 64.115C90.2844 64.115 89.9324 64.443 89.9004 64.971H89.1484C89.2204 64.043 90.0364 63.523 90.8764 63.523C92.0604 63.523 92.5964 64.091 92.5884 65.299L92.5804 66.291C92.5724 67.011 92.6124 67.507 92.6924 67.915H91.9564C91.9324 67.755 91.9084 67.579 91.9004 67.323C91.6364 67.763 91.1884 68.019 90.4284 68.019C89.6204 68.019 88.9484 67.571 88.9484 66.779ZM91.9164 65.843C90.5964 65.979 89.7564 66.171 89.7564 66.763C89.7564 67.171 90.0684 67.443 90.5884 67.443C91.2684 67.443 91.9164 67.131 91.9164 66.115V65.843ZM95.0936 64.259C95.3416 63.851 95.7576 63.539 96.4856 63.539C97.5256 63.539 97.9016 64.211 97.9016 65.195V67.915H97.1736V65.411C97.1736 64.747 97.0616 64.171 96.2296 64.171C95.5256 64.171 95.0936 64.659 95.0936 65.579V67.915H94.3656V63.611H95.0936V64.259ZM102.635 62.115H103.363V67.915H102.635V67.267C102.371 67.723 101.915 68.019 101.227 68.019C100.243 68.019 99.387 67.203 99.387 65.779C99.387 64.363 100.243 63.539 101.227 63.539C101.915 63.539 102.371 63.835 102.635 64.291V62.115ZM101.411 64.163C100.667 64.163 100.179 64.755 100.179 65.779C100.179 66.803 100.667 67.395 101.411 67.395C102.059 67.395 102.667 66.915 102.667 65.779C102.667 64.643 102.059 64.163 101.411 64.163ZM18.0838 72.531H18.8118V73.611H19.6278V74.195H18.8118V76.747C18.8118 77.195 18.8438 77.307 19.2598 77.307H19.6278V77.915H19.0998C18.2758 77.915 18.0838 77.731 18.0838 76.835V74.195H17.4038V73.611H18.0838V72.531ZM21.9759 74.259C22.2239 73.851 22.6399 73.539 23.3679 73.539C24.4079 73.539 24.7839 74.211 24.7839 75.195V77.915H24.0559V75.411C24.0559 74.747 23.9439 74.171 23.1119 74.171C22.4079 74.171 21.9759 74.659 21.9759 75.579V77.915H21.2479V72.115H21.9759V74.259ZM27.0533 76.003C27.0853 76.931 27.7413 77.379 28.3813 77.379C29.0213 77.379 29.3733 77.091 29.5573 76.667H30.3093C30.1093 77.411 29.4293 78.019 28.3813 78.019C27.0213 78.019 26.2693 77.043 26.2693 75.771C26.2693 74.411 27.1813 73.539 28.3573 73.539C29.6693 73.539 30.4613 74.643 30.3653 76.003H27.0533ZM27.0613 75.379H29.5973C29.5813 74.771 29.1253 74.163 28.3573 74.163C27.7093 74.163 27.1253 74.515 27.0613 75.379ZM36.641 74.371C36.489 74.355 36.353 74.339 36.233 74.339C35.561 74.339 35.225 74.715 35.225 75.659V77.915H34.497V73.611H35.209V74.363C35.425 73.875 35.865 73.603 36.425 73.587C36.497 73.587 36.561 73.587 36.641 73.595V74.371ZM38.4431 76.003C38.4751 76.931 39.1311 77.379 39.7711 77.379C40.4111 77.379 40.7631 77.091 40.9471 76.667H41.6991C41.4991 77.411 40.8191 78.019 39.7711 78.019C38.4111 78.019 37.6591 77.043 37.6591 75.771C37.6591 74.411 38.5711 73.539 39.7471 73.539C41.0591 73.539 41.8511 74.643 41.7551 76.003H38.4431ZM38.4511 75.379H40.9871C40.9711 74.771 40.5151 74.163 39.7471 74.163C39.0991 74.163 38.5151 74.515 38.4511 75.379ZM44.6568 76.907L45.8248 73.611H46.5768L44.9528 77.915H44.3048L42.6808 73.611H43.4888L44.6568 76.907ZM48.5757 72.115V72.995H47.8477V72.115H48.5757ZM48.5757 73.611V77.915H47.8477V73.611H48.5757ZM52.8869 74.867C52.7749 74.355 52.3749 74.155 51.8709 74.155C51.4469 74.155 50.9669 74.307 50.9669 74.699C50.9669 75.043 51.2069 75.203 51.6229 75.283L52.2309 75.403C53.0149 75.555 53.7029 75.851 53.7029 76.683C53.7029 77.531 52.9349 78.019 51.9509 78.019C50.8229 78.019 50.1829 77.275 50.1029 76.523H50.8709C50.9829 77.075 51.3269 77.403 51.9669 77.403C52.5189 77.403 52.9669 77.163 52.9669 76.763C52.9669 76.331 52.5589 76.147 52.0949 76.051L51.4549 75.923C50.8709 75.803 50.2309 75.531 50.2309 74.731C50.2309 73.971 50.9989 73.531 51.9509 73.531C52.8789 73.531 53.5109 74.051 53.6469 74.867H52.8869ZM55.8065 76.003C55.8385 76.931 56.4945 77.379 57.1345 77.379C57.7745 77.379 58.1265 77.091 58.3105 76.667H59.0625C58.8625 77.411 58.1825 78.019 57.1345 78.019C55.7745 78.019 55.0225 77.043 55.0225 75.771C55.0225 74.411 55.9345 73.539 57.1105 73.539C58.4225 73.539 59.2145 74.643 59.1185 76.003H55.8065ZM55.8145 75.379H58.3505C58.3345 74.771 57.8785 74.163 57.1105 74.163C56.4625 74.163 55.8785 74.515 55.8145 75.379ZM63.6504 72.115H64.3784V77.915H63.6504V77.267C63.3864 77.723 62.9304 78.019 62.2424 78.019C61.2584 78.019 60.4024 77.203 60.4024 75.779C60.4024 74.363 61.2584 73.539 62.2424 73.539C62.9304 73.539 63.3864 73.835 63.6504 74.291V72.115ZM62.4264 74.163C61.6824 74.163 61.1944 74.755 61.1944 75.779C61.1944 76.803 61.6824 77.395 62.4264 77.395C63.0744 77.395 63.6824 76.915 63.6824 75.779C63.6824 74.643 63.0744 74.163 62.4264 74.163ZM71.2738 74.867C71.1618 74.355 70.7618 74.155 70.2578 74.155C69.8338 74.155 69.3538 74.307 69.3538 74.699C69.3538 75.043 69.5938 75.203 70.0098 75.283L70.6178 75.403C71.4018 75.555 72.0898 75.851 72.0898 76.683C72.0898 77.531 71.3218 78.019 70.3378 78.019C69.2098 78.019 68.5698 77.275 68.4898 76.523H69.2578C69.3698 77.075 69.7138 77.403 70.3538 77.403C70.9058 77.403 71.3538 77.163 71.3538 76.763C71.3538 76.331 70.9458 76.147 70.4818 76.051L69.8418 75.923C69.2578 75.803 68.6178 75.531 68.6178 74.731C68.6178 73.971 69.3858 73.531 70.3378 73.531C71.2658 73.531 71.8978 74.051 72.0338 74.867H71.2738ZM76.3693 77.299C76.1213 77.707 75.7293 78.019 75.0173 78.019C74.0173 78.019 73.6413 77.347 73.6413 76.363V73.611H74.3693V76.147C74.3693 76.811 74.4813 77.387 75.2733 77.387C75.9613 77.387 76.3693 76.899 76.3693 75.979V73.611H77.0973V77.915H76.3693V77.299ZM79.6726 73.611V74.291C79.9366 73.835 80.3926 73.539 81.0806 73.539C82.0646 73.539 82.9206 74.363 82.9206 75.779C82.9206 77.203 82.0646 78.019 81.0806 78.019C80.3926 78.019 79.9366 77.723 79.6726 77.267V79.315H78.9446V73.611H79.6726ZM80.8966 77.395C81.6406 77.395 82.1286 76.803 82.1286 75.779C82.1286 74.755 81.6406 74.163 80.8966 74.163C80.2486 74.163 79.6406 74.643 79.6406 75.779C79.6406 76.915 80.2486 77.395 80.8966 77.395ZM85.1931 73.611V74.291C85.4571 73.835 85.9131 73.539 86.6011 73.539C87.5851 73.539 88.4411 74.363 88.4411 75.779C88.4411 77.203 87.5851 78.019 86.6011 78.019C85.9131 78.019 85.4571 77.723 85.1931 77.267V79.315H84.4651V73.611H85.1931ZM86.4171 77.395C87.1611 77.395 87.6491 76.803 87.6491 75.779C87.6491 74.755 87.1611 74.163 86.4171 74.163C85.7691 74.163 85.1611 74.643 85.1611 75.779C85.1611 76.915 85.7691 77.395 86.4171 77.395ZM90.7137 77.915H89.9857V72.115H90.7137V77.915ZM93.2889 72.115V72.995H92.5609V72.115H93.2889ZM93.2889 73.611V77.915H92.5609V73.611H93.2889ZM95.6241 76.003C95.6561 76.931 96.3121 77.379 96.9521 77.379C97.5921 77.379 97.9441 77.091 98.1281 76.667H98.8801C98.6801 77.411 98.0001 78.019 96.9521 78.019C95.5921 78.019 94.8401 77.043 94.8401 75.771C94.8401 74.411 95.7521 73.539 96.9281 73.539C98.2401 73.539 99.0321 74.643 98.9361 76.003H95.6241ZM95.6321 75.379H98.1681C98.1521 74.771 97.6961 74.163 96.9281 74.163C96.2801 74.163 95.6961 74.515 95.6321 75.379ZM102.621 74.371C102.469 74.355 102.333 74.339 102.213 74.339C101.541 74.339 101.205 74.715 101.205 75.659V77.915H100.477V73.611H101.189V74.363C101.405 73.875 101.845 73.603 102.405 73.587C102.477 73.587 102.541 73.587 102.621 73.595V74.371ZM17.6198 86.779C17.6198 85.763 18.7638 85.467 20.5318 85.267V85.163C20.5318 84.379 20.0918 84.115 19.5558 84.115C18.9558 84.115 18.6038 84.443 18.5718 84.971H17.8198C17.8918 84.043 18.7078 83.523 19.5478 83.523C20.7318 83.523 21.2678 84.091 21.2598 85.299L21.2518 86.291C21.2438 87.011 21.2838 87.507 21.3638 87.915H20.6278C20.6038 87.755 20.5798 87.579 20.5718 87.323C20.3078 87.763 19.8598 88.019 19.0998 88.019C18.2918 88.019 17.6198 87.571 17.6198 86.779ZM20.5878 85.843C19.2678 85.979 18.4278 86.171 18.4278 86.763C18.4278 87.171 18.7398 87.443 19.2598 87.443C19.9398 87.443 20.5878 87.131 20.5878 86.115V85.843ZM25.933 83.611H26.661V87.339C26.661 88.219 26.501 88.579 26.253 88.851C25.941 89.211 25.405 89.419 24.765 89.419C23.789 89.419 23.133 88.971 22.997 88.099H23.773C23.869 88.483 24.101 88.779 24.773 88.779C25.165 88.779 25.461 88.667 25.653 88.459C25.813 88.291 25.933 88.091 25.933 87.507V87.099C25.669 87.555 25.253 87.843 24.565 87.843C23.613 87.843 22.741 87.075 22.741 85.691C22.741 84.315 23.613 83.539 24.565 83.539C25.253 83.539 25.669 83.835 25.933 84.291V83.611ZM24.749 84.163C24.037 84.163 23.533 84.715 23.533 85.691C23.533 86.675 24.037 87.227 24.749 87.227C25.397 87.227 25.965 86.787 25.965 85.691C25.965 84.603 25.397 84.163 24.749 84.163ZM30.6468 84.371C30.4948 84.355 30.3588 84.339 30.2388 84.339C29.5668 84.339 29.2308 84.715 29.2308 85.659V87.915H28.5028V83.611H29.2148V84.363C29.4308 83.875 29.8708 83.603 30.4308 83.587C30.5028 83.587 30.5668 83.587 30.6468 83.595V84.371ZM32.4489 86.003C32.4809 86.931 33.1369 87.379 33.7769 87.379C34.4169 87.379 34.7689 87.091 34.9529 86.667H35.7049C35.5049 87.411 34.8249 88.019 33.7769 88.019C32.4169 88.019 31.6649 87.043 31.6649 85.771C31.6649 84.411 32.5769 83.539 33.7529 83.539C35.0649 83.539 35.8569 84.643 35.7609 86.003H32.4489ZM32.4569 85.379H34.9929C34.9769 84.771 34.5209 84.163 33.7529 84.163C33.1049 84.163 32.5209 84.515 32.4569 85.379ZM37.8288 86.003C37.8608 86.931 38.5168 87.379 39.1568 87.379C39.7968 87.379 40.1488 87.091 40.3328 86.667H41.0848C40.8848 87.411 40.2048 88.019 39.1568 88.019C37.7968 88.019 37.0448 87.043 37.0448 85.771C37.0448 84.411 37.9568 83.539 39.1328 83.539C40.4448 83.539 41.2368 84.643 41.1408 86.003H37.8288ZM37.8368 85.379H40.3728C40.3568 84.771 39.9008 84.163 39.1328 84.163C38.4848 84.163 37.9008 84.515 37.8368 85.379ZM43.4096 87.915H42.6816V83.611H43.4096V84.259C43.6576 83.851 44.0576 83.539 44.7056 83.539C45.3616 83.539 45.7536 83.827 45.9456 84.299C46.2896 83.771 46.7936 83.539 47.3936 83.539C48.3936 83.539 48.7856 84.211 48.7856 85.195V87.915H48.0576V85.411C48.0576 84.747 47.9296 84.171 47.1376 84.171C46.5136 84.171 46.0976 84.659 46.0976 85.579V87.915H45.3696V85.411C45.3696 84.747 45.2416 84.171 44.4496 84.171C43.8256 84.171 43.4096 84.659 43.4096 85.579V87.915ZM51.0573 86.003C51.0893 86.931 51.7453 87.379 52.3853 87.379C53.0253 87.379 53.3773 87.091 53.5613 86.667H54.3133C54.1133 87.411 53.4333 88.019 52.3853 88.019C51.0253 88.019 50.2733 87.043 50.2733 85.771C50.2733 84.411 51.1853 83.539 52.3613 83.539C53.6733 83.539 54.4653 84.643 54.3693 86.003H51.0573ZM51.0653 85.379H53.6013C53.5853 84.771 53.1293 84.163 52.3613 84.163C51.7133 84.163 51.1293 84.515 51.0653 85.379ZM56.6382 84.259C56.8862 83.851 57.3022 83.539 58.0302 83.539C59.0702 83.539 59.4462 84.211 59.4462 85.195V87.915H58.7182V85.411C58.7182 84.747 58.6062 84.171 57.7742 84.171C57.0702 84.171 56.6382 84.659 56.6382 85.579V87.915H55.9102V83.611H56.6382V84.259ZM61.4356 82.531H62.1636V83.611H62.9796V84.195H62.1636V86.747C62.1636 87.195 62.1956 87.307 62.6116 87.307H62.9796V87.915H62.4516C61.6276 87.915 61.4356 87.731 61.4356 86.835V84.195H60.7556V83.611H61.4356V82.531ZM66.9856 84.867C66.8736 84.355 66.4736 84.155 65.9696 84.155C65.5456 84.155 65.0656 84.307 65.0656 84.699C65.0656 85.043 65.3056 85.203 65.7216 85.283L66.3296 85.403C67.1136 85.555 67.8016 85.851 67.8016 86.683C67.8016 87.531 67.0336 88.019 66.0496 88.019C64.9216 88.019 64.2816 87.275 64.2016 86.523H64.9696C65.0816 87.075 65.4256 87.403 66.0656 87.403C66.6176 87.403 67.0656 87.163 67.0656 86.763C67.0656 86.331 66.6576 86.147 66.1936 86.051L65.5536 85.923C64.9696 85.803 64.3296 85.531 64.3296 84.731C64.3296 83.971 65.0976 83.531 66.0496 83.531C66.9776 83.531 67.6096 84.051 67.7456 84.867H66.9856ZM69.283 87.915V86.995H70.203V87.915H69.283ZM75.8952 82.819H74.0072V82.115H78.5992V82.819H76.7112V87.915H75.8952V82.819ZM80.4411 84.259C80.6891 83.851 81.1051 83.539 81.8331 83.539C82.8731 83.539 83.2491 84.211 83.2491 85.195V87.915H82.5211V85.411C82.5211 84.747 82.4091 84.171 81.5771 84.171C80.8731 84.171 80.4411 84.659 80.4411 85.579V87.915H79.7131V82.115H80.4411V84.259ZM85.7585 82.115V82.995H85.0305V82.115H85.7585ZM85.7585 83.611V87.915H85.0305V83.611H85.7585ZM90.0698 84.867C89.9578 84.355 89.5578 84.155 89.0538 84.155C88.6298 84.155 88.1498 84.307 88.1498 84.699C88.1498 85.043 88.3898 85.203 88.8058 85.283L89.4138 85.403C90.1978 85.555 90.8858 85.851 90.8858 86.683C90.8858 87.531 90.1178 88.019 89.1338 88.019C88.0058 88.019 87.3658 87.275 87.2858 86.523H88.0538C88.1658 87.075 88.5098 87.403 89.1498 87.403C89.7018 87.403 90.1498 87.163 90.1498 86.763C90.1498 86.331 89.7418 86.147 89.2778 86.051L88.6378 85.923C88.0538 85.803 87.4138 85.531 87.4138 84.731C87.4138 83.971 88.1818 83.531 89.1338 83.531C90.0618 83.531 90.6938 84.051 90.8298 84.867H90.0698ZM18.6038 97.915H17.8758V93.611H18.6038V94.259C18.8518 93.851 19.2518 93.539 19.8998 93.539C20.5558 93.539 20.9478 93.827 21.1398 94.299C21.4838 93.771 21.9878 93.539 22.5878 93.539C23.5878 93.539 23.9798 94.211 23.9798 95.195V97.915H23.2518V95.411C23.2518 94.747 23.1238 94.171 22.3318 94.171C21.7078 94.171 21.2918 94.659 21.2918 95.579V97.915H20.5638V95.411C20.5638 94.747 20.4358 94.171 19.6438 94.171C19.0198 94.171 18.6038 94.659 18.6038 95.579V97.915ZM26.2515 96.003C26.2835 96.931 26.9395 97.379 27.5795 97.379C28.2195 97.379 28.5715 97.091 28.7555 96.667H29.5075C29.3075 97.411 28.6275 98.019 27.5795 98.019C26.2195 98.019 25.4675 97.043 25.4675 95.771C25.4675 94.411 26.3795 93.539 27.5555 93.539C28.8675 93.539 29.6595 94.643 29.5635 96.003H26.2515ZM26.2595 95.379H28.7955C28.7795 94.771 28.3235 94.163 27.5555 94.163C26.9075 94.163 26.3235 94.515 26.2595 95.379ZM33.584 94.867C33.472 94.355 33.072 94.155 32.568 94.155C32.144 94.155 31.664 94.307 31.664 94.699C31.664 95.043 31.904 95.203 32.32 95.283L32.928 95.403C33.712 95.555 34.4 95.851 34.4 96.683C34.4 97.531 33.632 98.019 32.648 98.019C31.52 98.019 30.88 97.275 30.8 96.523H31.568C31.68 97.075 32.024 97.403 32.664 97.403C33.216 97.403 33.664 97.163 33.664 96.763C33.664 96.331 33.256 96.147 32.792 96.051L32.152 95.923C31.568 95.803 30.928 95.531 30.928 94.731C30.928 93.971 31.696 93.531 32.648 93.531C33.576 93.531 34.208 94.051 34.344 94.867H33.584ZM38.4795 94.867C38.3675 94.355 37.9675 94.155 37.4635 94.155C37.0395 94.155 36.5595 94.307 36.5595 94.699C36.5595 95.043 36.7995 95.203 37.2155 95.283L37.8235 95.403C38.6075 95.555 39.2955 95.851 39.2955 96.683C39.2955 97.531 38.5275 98.019 37.5435 98.019C36.4155 98.019 35.7755 97.275 35.6955 96.523H36.4635C36.5755 97.075 36.9195 97.403 37.5595 97.403C38.1115 97.403 38.5595 97.163 38.5595 96.763C38.5595 96.331 38.1515 96.147 37.6875 96.051L37.0475 95.923C36.4635 95.803 35.8235 95.531 35.8235 94.731C35.8235 93.971 36.5915 93.531 37.5435 93.531C38.4715 93.531 39.1035 94.051 39.2395 94.867H38.4795ZM40.6551 96.779C40.6551 95.763 41.7991 95.467 43.5671 95.267V95.163C43.5671 94.379 43.1271 94.115 42.5911 94.115C41.9911 94.115 41.6391 94.443 41.6071 94.971H40.8551C40.9271 94.043 41.7431 93.523 42.5831 93.523C43.7671 93.523 44.3031 94.091 44.2951 95.299L44.2871 96.291C44.2791 97.011 44.3191 97.507 44.3991 97.915H43.6631C43.6391 97.755 43.6151 97.579 43.6071 97.323C43.3431 97.763 42.8951 98.019 42.1351 98.019C41.3271 98.019 40.6551 97.571 40.6551 96.779ZM43.6231 95.843C42.3031 95.979 41.4631 96.171 41.4631 96.763C41.4631 97.171 41.7751 97.443 42.2951 97.443C42.9751 97.443 43.6231 97.131 43.6231 96.115V95.843ZM48.9682 93.611H49.6962V97.339C49.6962 98.219 49.5362 98.579 49.2882 98.851C48.9762 99.211 48.4402 99.419 47.8002 99.419C46.8242 99.419 46.1682 98.971 46.0322 98.099H46.8082C46.9042 98.483 47.1362 98.779 47.8082 98.779C48.2002 98.779 48.4962 98.667 48.6882 98.459C48.8482 98.291 48.9682 98.091 48.9682 97.507V97.099C48.7042 97.555 48.2882 97.843 47.6002 97.843C46.6482 97.843 45.7762 97.075 45.7762 95.691C45.7762 94.315 46.6482 93.539 47.6002 93.539C48.2882 93.539 48.7042 93.835 48.9682 94.291V93.611ZM47.7842 94.163C47.0722 94.163 46.5682 94.715 46.5682 95.691C46.5682 96.675 47.0722 97.227 47.7842 97.227C48.4322 97.227 49.0002 96.787 49.0002 95.691C49.0002 94.603 48.4322 94.163 47.7842 94.163ZM52.0261 96.003C52.0581 96.931 52.7141 97.379 53.3541 97.379C53.9941 97.379 54.3461 97.091 54.5301 96.667H55.2821C55.0821 97.411 54.4021 98.019 53.3541 98.019C51.9941 98.019 51.2421 97.043 51.2421 95.771C51.2421 94.411 52.1541 93.539 53.3301 93.539C54.6421 93.539 55.4341 94.643 55.3381 96.003H52.0261ZM52.0341 95.379H54.5701C54.5541 94.771 54.0981 94.163 53.3301 94.163C52.6821 94.163 52.0981 94.515 52.0341 95.379ZM63.0538 95.051H62.3178C62.2138 94.539 61.7658 94.179 61.2058 94.179C60.5578 94.179 59.9658 94.683 59.9658 95.763C59.9658 96.859 60.5658 97.379 61.2058 97.379C61.8138 97.379 62.2458 96.971 62.3498 96.515H63.1018C62.9578 97.323 62.1818 98.019 61.1818 98.019C59.9498 98.019 59.1738 97.083 59.1738 95.771C59.1738 94.491 59.9818 93.539 61.2538 93.539C62.2938 93.539 62.9578 94.323 63.0538 95.051ZM68.5024 95.779C68.5024 97.339 67.4384 98.019 66.4384 98.019C65.4384 98.019 64.3744 97.339 64.3744 95.779C64.3744 94.219 65.4384 93.539 66.4384 93.539C67.4384 93.539 68.5024 94.219 68.5024 95.779ZM66.4384 97.379C67.0944 97.379 67.7264 96.883 67.7264 95.779C67.7264 94.635 67.0944 94.179 66.4384 94.179C65.7824 94.179 65.1504 94.603 65.1504 95.779C65.1504 96.923 65.7824 97.379 66.4384 97.379ZM70.7936 94.259C71.0416 93.851 71.4576 93.539 72.1856 93.539C73.2256 93.539 73.6016 94.211 73.6016 95.195V97.915H72.8736V95.411C72.8736 94.747 72.7616 94.171 71.9296 94.171C71.2256 94.171 70.7936 94.659 70.7936 95.579V97.915H70.0656V93.611H70.7936V94.259ZM75.591 92.531H76.319V93.611H77.135V94.195H76.319V96.747C76.319 97.195 76.351 97.307 76.767 97.307H77.135V97.915H76.607C75.783 97.915 75.591 97.731 75.591 96.835V94.195H74.911V93.611H75.591V92.531ZM78.4209 96.779C78.4209 95.763 79.5649 95.467 81.3329 95.267V95.163C81.3329 94.379 80.8929 94.115 80.3569 94.115C79.7569 94.115 79.4049 94.443 79.3729 94.971H78.6209C78.6929 94.043 79.5089 93.523 80.3489 93.523C81.5329 93.523 82.0689 94.091 82.0609 95.299L82.0529 96.291C82.0449 97.011 82.0849 97.507 82.1649 97.915H81.4289C81.4049 97.755 81.3809 97.579 81.3729 97.323C81.1089 97.763 80.6609 98.019 79.9009 98.019C79.0929 98.019 78.4209 97.571 78.4209 96.779ZM81.3889 95.843C80.0689 95.979 79.2289 96.171 79.2289 96.763C79.2289 97.171 79.5409 97.443 80.0609 97.443C80.7409 97.443 81.3889 97.131 81.3889 96.115V95.843ZM84.5661 92.115V92.995H83.8381V92.115H84.5661ZM84.5661 93.611V97.915H83.8381V93.611H84.5661ZM87.1413 94.259C87.3893 93.851 87.8053 93.539 88.5333 93.539C89.5733 93.539 89.9493 94.211 89.9493 95.195V97.915H89.2213V95.411C89.2213 94.747 89.1093 94.171 88.2773 94.171C87.5733 94.171 87.1413 94.659 87.1413 95.579V97.915H86.4133V93.611H87.1413V94.259ZM94.1948 94.867C94.0828 94.355 93.6828 94.155 93.1788 94.155C92.7548 94.155 92.2748 94.307 92.2748 94.699C92.2748 95.043 92.5148 95.203 92.9308 95.283L93.5388 95.403C94.3228 95.555 95.0108 95.851 95.0108 96.683C95.0108 97.531 94.2428 98.019 93.2588 98.019C92.1308 98.019 91.4908 97.275 91.4108 96.523H92.1788C92.2908 97.075 92.6348 97.403 93.2748 97.403C93.8268 97.403 94.2748 97.163 94.2748 96.763C94.2748 96.331 93.8668 96.147 93.4028 96.051L92.7628 95.923C92.1788 95.803 91.5388 95.531 91.5388 94.731C91.5388 93.971 92.3068 93.531 93.2588 93.531C94.1868 93.531 94.8188 94.051 94.9548 94.867H94.1948ZM20.3398 104.867C20.2278 104.355 19.8278 104.155 19.3238 104.155C18.8998 104.155 18.4198 104.307 18.4198 104.699C18.4198 105.043 18.6598 105.203 19.0758 105.283L19.6838 105.403C20.4678 105.555 21.1558 105.851 21.1558 106.683C21.1558 107.531 20.3878 108.019 19.4038 108.019C18.2758 108.019 17.6358 107.275 17.5558 106.523H18.3238C18.4358 107.075 18.7798 107.403 19.4198 107.403C19.9718 107.403 20.4198 107.163 20.4198 106.763C20.4198 106.331 20.0118 106.147 19.5478 106.051L18.9078 105.923C18.3238 105.803 17.6838 105.531 17.6838 104.731C17.6838 103.971 18.4518 103.531 19.4038 103.531C20.3318 103.531 20.9638 104.051 21.0998 104.867H20.3398ZM23.2593 106.003C23.2913 106.931 23.9473 107.379 24.5873 107.379C25.2273 107.379 25.5793 107.091 25.7633 106.667H26.5153C26.3153 107.411 25.6353 108.019 24.5873 108.019C23.2273 108.019 22.4753 107.043 22.4753 105.771C22.4753 104.411 23.3873 103.539 24.5633 103.539C25.8753 103.539 26.6673 104.643 26.5713 106.003H23.2593ZM23.2673 105.379H25.8033C25.7873 104.771 25.3313 104.163 24.5633 104.163C23.9153 104.163 23.3313 104.515 23.2673 105.379ZM28.8402 104.259C29.0882 103.851 29.5042 103.539 30.2322 103.539C31.2722 103.539 31.6482 104.211 31.6482 105.195V107.915H30.9202V105.411C30.9202 104.747 30.8082 104.171 29.9762 104.171C29.2722 104.171 28.8402 104.659 28.8402 105.579V107.915H28.1122V103.611H28.8402V104.259ZM35.8936 104.867C35.7816 104.355 35.3816 104.155 34.8776 104.155C34.4536 104.155 33.9736 104.307 33.9736 104.699C33.9736 105.043 34.2136 105.203 34.6296 105.283L35.2376 105.403C36.0216 105.555 36.7096 105.851 36.7096 106.683C36.7096 107.531 35.9416 108.019 34.9576 108.019C33.8296 108.019 33.1896 107.275 33.1096 106.523H33.8776C33.9896 107.075 34.3336 107.403 34.9736 107.403C35.5256 107.403 35.9736 107.163 35.9736 106.763C35.9736 106.331 35.5656 106.147 35.1016 106.051L34.4616 105.923C33.8776 105.803 33.2376 105.531 33.2376 104.731C33.2376 103.971 34.0056 103.531 34.9576 103.531C35.8856 103.531 36.5176 104.051 36.6536 104.867H35.8936ZM39.0531 102.115V102.995H38.3251V102.115H39.0531ZM39.0531 103.611V107.915H38.3251V103.611H39.0531ZM41.1084 102.531H41.8364V103.611H42.6524V104.195H41.8364V106.747C41.8364 107.195 41.8684 107.307 42.2844 107.307H42.6524V107.915H42.1244C41.3004 107.915 41.1084 107.731 41.1084 106.835V104.195H40.4284V103.611H41.1084V102.531ZM45.0005 102.115V102.995H44.2725V102.115H45.0005ZM45.0005 103.611V107.915H44.2725V103.611H45.0005ZM48.2477 106.907L49.4157 103.611H50.1677L48.5437 107.915H47.8957L46.2717 103.611H47.0797L48.2477 106.907ZM51.8484 106.003C51.8804 106.931 52.5364 107.379 53.1764 107.379C53.8164 107.379 54.1684 107.091 54.3524 106.667H55.1044C54.9044 107.411 54.2244 108.019 53.1764 108.019C51.8164 108.019 51.0644 107.043 51.0644 105.771C51.0644 104.411 51.9764 103.539 53.1524 103.539C54.4644 103.539 55.2564 104.643 55.1604 106.003H51.8484ZM51.8564 105.379H54.3924C54.3764 104.771 53.9204 104.163 53.1524 104.163C52.5044 104.163 51.9204 104.515 51.8564 105.379ZM59.0361 106.779C59.0361 105.763 60.1801 105.467 61.9481 105.267V105.163C61.9481 104.379 61.5081 104.115 60.9721 104.115C60.3721 104.115 60.0201 104.443 59.9881 104.971H59.2361C59.3081 104.043 60.1241 103.523 60.9641 103.523C62.1481 103.523 62.6841 104.091 62.6761 105.299L62.6681 106.291C62.6601 107.011 62.7001 107.507 62.7801 107.915H62.0441C62.0201 107.755 61.9961 107.579 61.9881 107.323C61.7241 107.763 61.2761 108.019 60.5161 108.019C59.7081 108.019 59.0361 107.571 59.0361 106.779ZM62.0041 105.843C60.6841 105.979 59.8441 106.171 59.8441 106.763C59.8441 107.171 60.1561 107.443 60.6761 107.443C61.3561 107.443 62.0041 107.131 62.0041 106.115V105.843ZM65.1813 104.259C65.4293 103.851 65.8453 103.539 66.5733 103.539C67.6133 103.539 67.9893 104.211 67.9893 105.195V107.915H67.2613V105.411C67.2613 104.747 67.1493 104.171 66.3173 104.171C65.6133 104.171 65.1813 104.659 65.1813 105.579V107.915H64.4533V103.611H65.1813V104.259ZM72.7227 102.115H73.4507V107.915H72.7227V107.267C72.4587 107.723 72.0027 108.019 71.3147 108.019C70.3307 108.019 69.4747 107.203 69.4747 105.779C69.4747 104.363 70.3307 103.539 71.3147 103.539C72.0027 103.539 72.4587 103.835 72.7227 104.291V102.115ZM71.4987 104.163C70.7547 104.163 70.2667 104.755 70.2667 105.779C70.2667 106.803 70.7547 107.395 71.4987 107.395C72.1467 107.395 72.7547 106.915 72.7547 105.779C72.7547 104.643 72.1467 104.163 71.4987 104.163ZM21.4598 115.051H20.7238C20.6198 114.539 20.1718 114.179 19.6118 114.179C18.9638 114.179 18.3718 114.683 18.3718 115.763C18.3718 116.859 18.9718 117.379 19.6118 117.379C20.2198 117.379 20.6518 116.971 20.7558 116.515H21.5078C21.3638 117.323 20.5878 118.019 19.5878 118.019C18.3558 118.019 17.5798 117.083 17.5798 115.771C17.5798 114.491 18.3878 113.539 19.6598 113.539C20.6998 113.539 21.3638 114.323 21.4598 115.051ZM26.9084 115.779C26.9084 117.339 25.8444 118.019 24.8444 118.019C23.8444 118.019 22.7804 117.339 22.7804 115.779C22.7804 114.219 23.8444 113.539 24.8444 113.539C25.8444 113.539 26.9084 114.219 26.9084 115.779ZM24.8444 117.379C25.5004 117.379 26.1324 116.883 26.1324 115.779C26.1324 114.635 25.5004 114.179 24.8444 114.179C24.1884 114.179 23.5564 114.603 23.5564 115.779C23.5564 116.923 24.1884 117.379 24.8444 117.379ZM29.1996 114.259C29.4476 113.851 29.8636 113.539 30.5916 113.539C31.6316 113.539 32.0076 114.211 32.0076 115.195V117.915H31.2796V115.411C31.2796 114.747 31.1676 114.171 30.3356 114.171C29.6316 114.171 29.1996 114.659 29.1996 115.579V117.915H28.4716V113.611H29.1996V114.259ZM33.973 113.299C33.973 112.403 34.157 112.115 35.133 112.115H35.509V112.723H35.149C34.765 112.723 34.701 112.811 34.701 113.259V113.611H35.509V114.195H34.701V117.915H33.973V114.195H33.373V113.611H33.973V113.299ZM37.7172 112.115V112.995H36.9892V112.115H37.7172ZM37.7172 113.611V117.915H36.9892V113.611H37.7172ZM42.5164 112.115H43.2444V117.915H42.5164V117.267C42.2524 117.723 41.7964 118.019 41.1084 118.019C40.1244 118.019 39.2684 117.203 39.2684 115.779C39.2684 114.363 40.1244 113.539 41.1084 113.539C41.7964 113.539 42.2524 113.835 42.5164 114.291V112.115ZM41.2924 114.163C40.5484 114.163 40.0604 114.755 40.0604 115.779C40.0604 116.803 40.5484 117.395 41.2924 117.395C41.9404 117.395 42.5484 116.915 42.5484 115.779C42.5484 114.643 41.9404 114.163 41.2924 114.163ZM45.573 116.003C45.605 116.931 46.261 117.379 46.901 117.379C47.541 117.379 47.893 117.091 48.077 116.667H48.829C48.629 117.411 47.949 118.019 46.901 118.019C45.541 118.019 44.789 117.043 44.789 115.771C44.789 114.411 45.701 113.539 46.877 113.539C48.189 113.539 48.981 114.643 48.885 116.003H45.573ZM45.581 115.379H48.117C48.101 114.771 47.645 114.163 46.877 114.163C46.229 114.163 45.645 114.515 45.581 115.379ZM51.1538 114.259C51.4018 113.851 51.8178 113.539 52.5458 113.539C53.5858 113.539 53.9618 114.211 53.9618 115.195V117.915H53.2338V115.411C53.2338 114.747 53.1218 114.171 52.2898 114.171C51.5858 114.171 51.1538 114.659 51.1538 115.579V117.915H50.4258V113.611H51.1538V114.259ZM55.9512 112.531H56.6792V113.611H57.4952V114.195H56.6792V116.747C56.6792 117.195 56.7112 117.307 57.1272 117.307H57.4952V117.915H56.9672C56.1432 117.915 55.9512 117.731 55.9512 116.835V114.195H55.2712V113.611H55.9512V112.531ZM59.8433 112.115V112.995H59.1153V112.115H59.8433ZM59.8433 113.611V117.915H59.1153V113.611H59.8433ZM61.4346 116.779C61.4346 115.763 62.5786 115.467 64.3466 115.267V115.163C64.3466 114.379 63.9066 114.115 63.3706 114.115C62.7706 114.115 62.4186 114.443 62.3866 114.971H61.6346C61.7066 114.043 62.5226 113.523 63.3626 113.523C64.5466 113.523 65.0826 114.091 65.0746 115.299L65.0666 116.291C65.0586 117.011 65.0986 117.507 65.1786 117.915H64.4426C64.4186 117.755 64.3946 117.579 64.3866 117.323C64.1226 117.763 63.6746 118.019 62.9146 118.019C62.1066 118.019 61.4346 117.571 61.4346 116.779ZM64.4026 115.843C63.0826 115.979 62.2426 116.171 62.2426 116.763C62.2426 117.171 62.5546 117.443 63.0746 117.443C63.7546 117.443 64.4026 117.131 64.4026 116.115V115.843ZM67.5797 117.915H66.8517V112.115H67.5797V117.915ZM18.6038 122.115V122.995H17.8758V122.115H18.6038ZM18.6038 123.611V127.915H17.8758V123.611H18.6038ZM21.179 124.259C21.427 123.851 21.843 123.539 22.571 123.539C23.611 123.539 23.987 124.211 23.987 125.195V127.915H23.259V125.411C23.259 124.747 23.147 124.171 22.315 124.171C21.611 124.171 21.179 124.659 21.179 125.579V127.915H20.451V123.611H21.179V124.259ZM25.9524 123.299C25.9524 122.403 26.1364 122.115 27.1124 122.115H27.4884V122.723H27.1284C26.7444 122.723 26.6804 122.811 26.6804 123.259V123.611H27.4884V124.195H26.6804V127.915H25.9524V124.195H25.3524V123.611H25.9524V123.299ZM32.6604 125.779C32.6604 127.339 31.5964 128.019 30.5964 128.019C29.5964 128.019 28.5324 127.339 28.5324 125.779C28.5324 124.219 29.5964 123.539 30.5964 123.539C31.5964 123.539 32.6604 124.219 32.6604 125.779ZM30.5964 127.379C31.2524 127.379 31.8844 126.883 31.8844 125.779C31.8844 124.635 31.2524 124.179 30.5964 124.179C29.9404 124.179 29.3084 124.603 29.3084 125.779C29.3084 126.923 29.9404 127.379 30.5964 127.379ZM36.3676 124.371C36.2156 124.355 36.0796 124.339 35.9596 124.339C35.2876 124.339 34.9516 124.715 34.9516 125.659V127.915H34.2236V123.611H34.9356V124.363C35.1516 123.875 35.5916 123.603 36.1516 123.587C36.2236 123.587 36.2876 123.587 36.3676 123.595V124.371ZM38.4877 127.915H37.7597V123.611H38.4877V124.259C38.7357 123.851 39.1357 123.539 39.7837 123.539C40.4397 123.539 40.8317 123.827 41.0237 124.299C41.3677 123.771 41.8717 123.539 42.4717 123.539C43.4717 123.539 43.8637 124.211 43.8637 125.195V127.915H43.1357V125.411C43.1357 124.747 43.0077 124.171 42.2157 124.171C41.5917 124.171 41.1757 124.659 41.1757 125.579V127.915H40.4477V125.411C40.4477 124.747 40.3197 124.171 39.5277 124.171C38.9037 124.171 38.4877 124.659 38.4877 125.579V127.915ZM45.3915 126.779C45.3915 125.763 46.5355 125.467 48.3035 125.267V125.163C48.3035 124.379 47.8635 124.115 47.3275 124.115C46.7275 124.115 46.3755 124.443 46.3435 124.971H45.5915C45.6635 124.043 46.4795 123.523 47.3195 123.523C48.5035 123.523 49.0395 124.091 49.0315 125.299L49.0235 126.291C49.0155 127.011 49.0555 127.507 49.1355 127.915H48.3995C48.3755 127.755 48.3515 127.579 48.3435 127.323C48.0795 127.763 47.6315 128.019 46.8715 128.019C46.0635 128.019 45.3915 127.571 45.3915 126.779ZM48.3595 125.843C47.0395 125.979 46.1995 126.171 46.1995 126.763C46.1995 127.171 46.5115 127.443 47.0315 127.443C47.7115 127.443 48.3595 127.131 48.3595 126.115V125.843ZM51.0166 122.531H51.7446V123.611H52.5606V124.195H51.7446V126.747C51.7446 127.195 51.7766 127.307 52.1926 127.307H52.5606V127.915H52.0326C51.2086 127.915 51.0166 127.731 51.0166 126.835V124.195H50.3366V123.611H51.0166V122.531ZM54.9087 122.115V122.995H54.1807V122.115H54.9087ZM54.9087 123.611V127.915H54.1807V123.611H54.9087ZM60.604 125.779C60.604 127.339 59.54 128.019 58.54 128.019C57.54 128.019 56.476 127.339 56.476 125.779C56.476 124.219 57.54 123.539 58.54 123.539C59.54 123.539 60.604 124.219 60.604 125.779ZM58.54 127.379C59.196 127.379 59.828 126.883 59.828 125.779C59.828 124.635 59.196 124.179 58.54 124.179C57.884 124.179 57.252 124.603 57.252 125.779C57.252 126.923 57.884 127.379 58.54 127.379ZM62.8951 124.259C63.1431 123.851 63.5591 123.539 64.2871 123.539C65.3271 123.539 65.7031 124.211 65.7031 125.195V127.915H64.9751V125.411C64.9751 124.747 64.8631 124.171 64.0311 124.171C63.3271 124.171 62.8951 124.659 62.8951 125.579V127.915H62.1671V123.611H62.8951V124.259ZM70.8034 122.115V122.995H70.0754V122.115H70.8034ZM70.8034 123.611V127.915H70.0754V123.611H70.8034ZM73.3786 124.259C73.6266 123.851 74.0426 123.539 74.7706 123.539C75.8106 123.539 76.1866 124.211 76.1866 125.195V127.915H75.4586V125.411C75.4586 124.747 75.3466 124.171 74.5146 124.171C73.8106 124.171 73.3786 124.659 73.3786 125.579V127.915H72.6506V123.611H73.3786V124.259ZM78.176 122.531H78.904V123.611H79.72V124.195H78.904V126.747C78.904 127.195 78.936 127.307 79.352 127.307H79.72V127.915H79.192C78.368 127.915 78.176 127.731 78.176 126.835V124.195H77.496V123.611H78.176V122.531ZM81.7109 126.003C81.7429 126.931 82.3989 127.379 83.0389 127.379C83.6789 127.379 84.0309 127.091 84.2149 126.667H84.9669C84.7669 127.411 84.0869 128.019 83.0389 128.019C81.6789 128.019 80.9269 127.043 80.9269 125.771C80.9269 124.411 81.8389 123.539 83.0149 123.539C84.3269 123.539 85.1189 124.643 85.0229 126.003H81.7109ZM81.7189 125.379H84.2549C84.2389 124.771 83.7829 124.163 83.0149 124.163C82.3669 124.163 81.7829 124.515 81.7189 125.379ZM87.2918 124.259C87.5398 123.851 87.9558 123.539 88.6838 123.539C89.7238 123.539 90.0998 124.211 90.0998 125.195V127.915H89.3718V125.411C89.3718 124.747 89.2598 124.171 88.4278 124.171C87.7238 124.171 87.2918 124.659 87.2918 125.579V127.915H86.5638V123.611H87.2918V124.259ZM94.8332 122.115H95.5612V127.915H94.8332V127.267C94.5692 127.723 94.1132 128.019 93.4252 128.019C92.4412 128.019 91.5852 127.203 91.5852 125.779C91.5852 124.363 92.4412 123.539 93.4252 123.539C94.1132 123.539 94.5692 123.835 94.8332 124.291V122.115ZM93.6092 124.163C92.8652 124.163 92.3772 124.755 92.3772 125.779C92.3772 126.803 92.8652 127.395 93.6092 127.395C94.2572 127.395 94.8652 126.915 94.8652 125.779C94.8652 124.643 94.2572 124.163 93.6092 124.163ZM97.8897 126.003C97.9217 126.931 98.5777 127.379 99.2177 127.379C99.8577 127.379 100.21 127.091 100.394 126.667H101.146C100.946 127.411 100.266 128.019 99.2177 128.019C97.8577 128.019 97.1057 127.043 97.1057 125.771C97.1057 124.411 98.0177 123.539 99.1937 123.539C100.506 123.539 101.298 124.643 101.202 126.003H97.8897ZM97.8977 125.379H100.434C100.418 124.771 99.9617 124.163 99.1937 124.163C98.5457 124.163 97.9617 124.515 97.8977 125.379ZM105.734 122.115H106.462V127.915H105.734V127.267C105.47 127.723 105.014 128.019 104.326 128.019C103.342 128.019 102.486 127.203 102.486 125.779C102.486 124.363 103.342 123.539 104.326 123.539C105.014 123.539 105.47 123.835 105.734 124.291V122.115ZM104.51 124.163C103.766 124.163 103.278 124.755 103.278 125.779C103.278 126.803 103.766 127.395 104.51 127.395C105.158 127.395 105.766 126.915 105.766 125.779C105.766 124.643 105.158 124.163 104.51 124.163ZM21.7238 135.779C21.7238 137.339 20.6598 138.019 19.6598 138.019C18.6598 138.019 17.5958 137.339 17.5958 135.779C17.5958 134.219 18.6598 133.539 19.6598 133.539C20.6598 133.539 21.7238 134.219 21.7238 135.779ZM19.6598 137.379C20.3158 137.379 20.9478 136.883 20.9478 135.779C20.9478 134.635 20.3158 134.179 19.6598 134.179C19.0038 134.179 18.3718 134.603 18.3718 135.779C18.3718 136.923 19.0038 137.379 19.6598 137.379ZM24.015 134.259C24.263 133.851 24.679 133.539 25.407 133.539C26.447 133.539 26.823 134.211 26.823 135.195V137.915H26.095V135.411C26.095 134.747 25.983 134.171 25.151 134.171C24.447 134.171 24.015 134.659 24.015 135.579V137.915H23.287V133.611H24.015V134.259ZM29.3324 137.915H28.6044V132.115H29.3324V137.915ZM34.3316 133.611L32.7956 138.099C32.4836 139.035 32.2596 139.315 31.2996 139.315H30.9236V138.707H31.2196C31.6996 138.707 31.9316 138.675 32.1236 138.003L32.1556 137.915L30.6036 133.611H31.4116L32.5076 136.931L33.5716 133.611H34.3316ZM38.3734 133.299C38.3734 132.403 38.5574 132.115 39.5334 132.115H39.9094V132.723H39.5494C39.1654 132.723 39.1014 132.811 39.1014 133.259V133.611H39.9094V134.195H39.1014V137.915H38.3734V134.195H37.7734V133.611H38.3734V133.299ZM45.0814 135.779C45.0814 137.339 44.0174 138.019 43.0174 138.019C42.0174 138.019 40.9534 137.339 40.9534 135.779C40.9534 134.219 42.0174 133.539 43.0174 133.539C44.0174 133.539 45.0814 134.219 45.0814 135.779ZM43.0174 137.379C43.6734 137.379 44.3054 136.883 44.3054 135.779C44.3054 134.635 43.6734 134.179 43.0174 134.179C42.3614 134.179 41.7294 134.603 41.7294 135.779C41.7294 136.923 42.3614 137.379 43.0174 137.379ZM48.7886 134.371C48.6366 134.355 48.5006 134.339 48.3806 134.339C47.7086 134.339 47.3726 134.715 47.3726 135.659V137.915H46.6446V133.611H47.3566V134.363C47.5726 133.875 48.0126 133.603 48.5726 133.587C48.6446 133.587 48.7086 133.587 48.7886 133.595V134.371ZM52.5156 136.779C52.5156 135.763 53.6596 135.467 55.4276 135.267V135.163C55.4276 134.379 54.9876 134.115 54.4516 134.115C53.8516 134.115 53.4996 134.443 53.4676 134.971H52.7156C52.7876 134.043 53.6036 133.523 54.4436 133.523C55.6276 133.523 56.1636 134.091 56.1556 135.299L56.1476 136.291C56.1396 137.011 56.1796 137.507 56.2596 137.915H55.5236C55.4996 137.755 55.4756 137.579 55.4676 137.323C55.2036 137.763 54.7556 138.019 53.9956 138.019C53.1876 138.019 52.5156 137.571 52.5156 136.779ZM55.4836 135.843C54.1636 135.979 53.3236 136.171 53.3236 136.763C53.3236 137.171 53.6356 137.443 54.1556 137.443C54.8356 137.443 55.4836 137.131 55.4836 136.115V135.843ZM60.5967 137.299C60.3487 137.707 59.9567 138.019 59.2447 138.019C58.2447 138.019 57.8687 137.347 57.8687 136.363V133.611H58.5967V136.147C58.5967 136.811 58.7087 137.387 59.5007 137.387C60.1887 137.387 60.5967 136.899 60.5967 135.979V133.611H61.3247V137.915H60.5967V137.299ZM63.38 132.531H64.108V133.611H64.924V134.195H64.108V136.747C64.108 137.195 64.14 137.307 64.556 137.307H64.924V137.915H64.396C63.572 137.915 63.38 137.731 63.38 136.835V134.195H62.7V133.611H63.38V132.531ZM67.2721 134.259C67.5201 133.851 67.9361 133.539 68.6641 133.539C69.7041 133.539 70.0801 134.211 70.0801 135.195V137.915H69.3521V135.411C69.3521 134.747 69.2401 134.171 68.4081 134.171C67.7041 134.171 67.2721 134.659 67.2721 135.579V137.915H66.5441V132.115H67.2721V134.259ZM75.7095 135.779C75.7095 137.339 74.6455 138.019 73.6455 138.019C72.6455 138.019 71.5815 137.339 71.5815 135.779C71.5815 134.219 72.6455 133.539 73.6455 133.539C74.6455 133.539 75.7095 134.219 75.7095 135.779ZM73.6455 137.379C74.3015 137.379 74.9335 136.883 74.9335 135.779C74.9335 134.635 74.3015 134.179 73.6455 134.179C72.9895 134.179 72.3575 134.603 72.3575 135.779C72.3575 136.923 72.9895 137.379 73.6455 137.379ZM79.4167 134.371C79.2647 134.355 79.1287 134.339 79.0087 134.339C78.3367 134.339 78.0007 134.715 78.0007 135.659V137.915H77.2727V133.611H77.9847V134.363C78.2007 133.875 78.6407 133.603 79.2007 133.587C79.2727 133.587 79.3367 133.587 79.4167 133.595V134.371ZM81.5369 132.115V132.995H80.8089V132.115H81.5369ZM81.5369 133.611V137.915H80.8089V133.611H81.5369ZM83.0721 137.283L85.5601 134.243H83.2321V133.611H86.4081V134.243L83.9281 137.283H86.4561V137.915H83.0721V137.283ZM88.4708 136.003C88.5028 136.931 89.1588 137.379 89.7988 137.379C90.4388 137.379 90.7908 137.091 90.9748 136.667H91.7268C91.5268 137.411 90.8468 138.019 89.7988 138.019C88.4388 138.019 87.6868 137.043 87.6868 135.771C87.6868 134.411 88.5988 133.539 89.7748 133.539C91.0868 133.539 91.8788 134.643 91.7828 136.003H88.4708ZM88.4788 135.379H91.0148C90.9988 134.771 90.5428 134.163 89.7748 134.163C89.1268 134.163 88.5428 134.515 88.4788 135.379ZM96.3147 132.115H97.0427V137.915H96.3147V137.267C96.0507 137.723 95.5947 138.019 94.9067 138.019C93.9227 138.019 93.0667 137.203 93.0667 135.779C93.0667 134.363 93.9227 133.539 94.9067 133.539C95.5947 133.539 96.0507 133.835 96.3147 134.291V132.115ZM95.0907 134.163C94.3467 134.163 93.8587 134.755 93.8587 135.779C93.8587 136.803 94.3467 137.395 95.0907 137.395C95.7387 137.395 96.3467 136.915 96.3467 135.779C96.3467 134.643 95.7387 134.163 95.0907 134.163ZM20.0198 144.371C19.8678 144.355 19.7318 144.339 19.6118 144.339C18.9398 144.339 18.6038 144.715 18.6038 145.659V147.915H17.8758V143.611H18.5878V144.363C18.8038 143.875 19.2438 143.603 19.8038 143.587C19.8758 143.587 19.9398 143.587 20.0198 143.595V144.371ZM21.8218 146.003C21.8538 146.931 22.5098 147.379 23.1498 147.379C23.7898 147.379 24.1418 147.091 24.3258 146.667H25.0778C24.8778 147.411 24.1978 148.019 23.1498 148.019C21.7898 148.019 21.0378 147.043 21.0378 145.771C21.0378 144.411 21.9498 143.539 23.1258 143.539C24.4378 143.539 25.2298 144.643 25.1338 146.003H21.8218ZM21.8298 145.379H24.3658C24.3498 144.771 23.8938 144.163 23.1258 144.163C22.4778 144.163 21.8938 144.515 21.8298 145.379ZM30.2978 145.051H29.5618C29.4578 144.539 29.0098 144.179 28.4498 144.179C27.8018 144.179 27.2098 144.683 27.2098 145.763C27.2098 146.859 27.8098 147.379 28.4498 147.379C29.0578 147.379 29.4898 146.971 29.5938 146.515H30.3458C30.2018 147.323 29.4258 148.019 28.4258 148.019C27.1938 148.019 26.4178 147.083 26.4178 145.771C26.4178 144.491 27.2258 143.539 28.4978 143.539C29.5378 143.539 30.2018 144.323 30.2978 145.051ZM32.5873 142.115V142.995H31.8593V142.115H32.5873ZM32.5873 143.611V147.915H31.8593V143.611H32.5873ZM35.1625 143.611V144.291C35.4265 143.835 35.8825 143.539 36.5705 143.539C37.5545 143.539 38.4105 144.363 38.4105 145.779C38.4105 147.203 37.5545 148.019 36.5705 148.019C35.8825 148.019 35.4265 147.723 35.1625 147.267V149.315H34.4345V143.611H35.1625ZM36.3865 147.395C37.1305 147.395 37.6185 146.803 37.6185 145.779C37.6185 144.755 37.1305 144.163 36.3865 144.163C35.7385 144.163 35.1305 144.643 35.1305 145.779C35.1305 146.915 35.7385 147.395 36.3865 147.395ZM40.6831 142.115V142.995H39.9551V142.115H40.6831ZM40.6831 143.611V147.915H39.9551V143.611H40.6831ZM43.0183 146.003C43.0503 146.931 43.7063 147.379 44.3463 147.379C44.9863 147.379 45.3383 147.091 45.5223 146.667H46.2743C46.0743 147.411 45.3943 148.019 44.3463 148.019C42.9863 148.019 42.2343 147.043 42.2343 145.771C42.2343 144.411 43.1463 143.539 44.3223 143.539C45.6343 143.539 46.4263 144.643 46.3303 146.003H43.0183ZM43.0263 145.379H45.5623C45.5463 144.771 45.0903 144.163 44.3223 144.163C43.6743 144.163 43.0903 144.515 43.0263 145.379ZM48.5991 144.259C48.8471 143.851 49.2631 143.539 49.9911 143.539C51.0311 143.539 51.4071 144.211 51.4071 145.195V147.915H50.6791V145.411C50.6791 144.747 50.5671 144.171 49.7351 144.171C49.0311 144.171 48.5991 144.659 48.5991 145.579V147.915H47.8711V143.611H48.5991V144.259ZM53.3965 142.531H54.1245V143.611H54.9405V144.195H54.1245V146.747C54.1245 147.195 54.1565 147.307 54.5725 147.307H54.9405V147.915H54.4125C53.5885 147.915 53.3965 147.731 53.3965 146.835V144.195H52.7165V143.611H53.3965V142.531ZM58.9465 144.867C58.8345 144.355 58.4345 144.155 57.9305 144.155C57.5065 144.155 57.0265 144.307 57.0265 144.699C57.0265 145.043 57.2665 145.203 57.6825 145.283L58.2905 145.403C59.0745 145.555 59.7625 145.851 59.7625 146.683C59.7625 147.531 58.9945 148.019 58.0105 148.019C56.8825 148.019 56.2425 147.275 56.1625 146.523H56.9305C57.0425 147.075 57.3865 147.403 58.0265 147.403C58.5785 147.403 59.0265 147.163 59.0265 146.763C59.0265 146.331 58.6185 146.147 58.1545 146.051L57.5145 145.923C56.9305 145.803 56.2905 145.531 56.2905 144.731C56.2905 143.971 57.0585 143.531 58.0105 143.531C58.9385 143.531 59.5705 144.051 59.7065 144.867H58.9465ZM61.2439 147.915V146.995H62.1639V147.915H61.2439ZM19.1878 152.819H17.2998V152.115H21.8918V152.819H20.0038V157.915H19.1878V152.819ZM26.3693 155.779C26.3693 157.339 25.3053 158.019 24.3053 158.019C23.3053 158.019 22.2413 157.339 22.2413 155.779C22.2413 154.219 23.3053 153.539 24.3053 153.539C25.3053 153.539 26.3693 154.219 26.3693 155.779ZM24.3053 157.379C24.9613 157.379 25.5933 156.883 25.5933 155.779C25.5933 154.635 24.9613 154.179 24.3053 154.179C23.6493 154.179 23.0173 154.603 23.0173 155.779C23.0173 156.923 23.6493 157.379 24.3053 157.379ZM31.0114 156.003C31.0434 156.931 31.6994 157.379 32.3394 157.379C32.9794 157.379 33.3314 157.091 33.5154 156.667H34.2674C34.0674 157.411 33.3874 158.019 32.3394 158.019C30.9794 158.019 30.2274 157.043 30.2274 155.771C30.2274 154.411 31.1394 153.539 32.3154 153.539C33.6274 153.539 34.4194 154.643 34.3234 156.003H31.0114ZM31.0194 155.379H33.5554C33.5394 154.771 33.0834 154.163 32.3154 154.163C31.6674 154.163 31.0834 154.515 31.0194 155.379ZM36.5922 154.259C36.8402 153.851 37.2562 153.539 37.9842 153.539C39.0242 153.539 39.4002 154.211 39.4002 155.195V157.915H38.6722V155.411C38.6722 154.747 38.5602 154.171 37.7282 154.171C37.0242 154.171 36.5922 154.659 36.5922 155.579V157.915H35.8642V153.611H36.5922V154.259ZM43.6456 154.867C43.5336 154.355 43.1336 154.155 42.6296 154.155C42.2056 154.155 41.7256 154.307 41.7256 154.699C41.7256 155.043 41.9656 155.203 42.3816 155.283L42.9896 155.403C43.7736 155.555 44.4616 155.851 44.4616 156.683C44.4616 157.531 43.6936 158.019 42.7096 158.019C41.5816 158.019 40.9416 157.275 40.8616 156.523H41.6296C41.7416 157.075 42.0856 157.403 42.7256 157.403C43.2776 157.403 43.7256 157.163 43.7256 156.763C43.7256 156.331 43.3176 156.147 42.8536 156.051L42.2136 155.923C41.6296 155.803 40.9896 155.531 40.9896 154.731C40.9896 153.971 41.7576 153.531 42.7096 153.531C43.6376 153.531 44.2696 154.051 44.4056 154.867H43.6456ZM48.7412 157.299C48.4932 157.707 48.1012 158.019 47.3892 158.019C46.3892 158.019 46.0132 157.347 46.0132 156.363V153.611H46.7412V156.147C46.7412 156.811 46.8532 157.387 47.6452 157.387C48.3332 157.387 48.7412 156.899 48.7412 155.979V153.611H49.4692V157.915H48.7412V157.299ZM53.4604 154.371C53.3084 154.355 53.1724 154.339 53.0524 154.339C52.3804 154.339 52.0444 154.715 52.0444 155.659V157.915H51.3164V153.611H52.0284V154.363C52.2444 153.875 52.6844 153.603 53.2444 153.587C53.3164 153.587 53.3804 153.587 53.4604 153.595V154.371ZM55.2625 156.003C55.2945 156.931 55.9505 157.379 56.5905 157.379C57.2305 157.379 57.5825 157.091 57.7665 156.667H58.5185C58.3185 157.411 57.6385 158.019 56.5905 158.019C55.2305 158.019 54.4785 157.043 54.4785 155.771C54.4785 154.411 55.3905 153.539 56.5665 153.539C57.8785 153.539 58.6705 154.643 58.5745 156.003H55.2625ZM55.2705 155.379H57.8065C57.7905 154.771 57.3345 154.163 56.5665 154.163C55.9185 154.163 55.3345 154.515 55.2705 155.379ZM65.1702 154.867C65.0582 154.355 64.6582 154.155 64.1542 154.155C63.7302 154.155 63.2502 154.307 63.2502 154.699C63.2502 155.043 63.4902 155.203 63.9062 155.283L64.5142 155.403C65.2982 155.555 65.9862 155.851 65.9862 156.683C65.9862 157.531 65.2182 158.019 64.2342 158.019C63.1062 158.019 62.4662 157.275 62.3862 156.523H63.1542C63.2662 157.075 63.6102 157.403 64.2502 157.403C64.8022 157.403 65.2502 157.163 65.2502 156.763C65.2502 156.331 64.8422 156.147 64.3782 156.051L63.7382 155.923C63.1542 155.803 62.5142 155.531 62.5142 154.731C62.5142 153.971 63.2822 153.531 64.2342 153.531C65.1622 153.531 65.7942 154.051 65.9302 154.867H65.1702ZM68.0897 156.003C68.1217 156.931 68.7777 157.379 69.4177 157.379C70.0577 157.379 70.4097 157.091 70.5937 156.667H71.3457C71.1457 157.411 70.4657 158.019 69.4177 158.019C68.0577 158.019 67.3057 157.043 67.3057 155.771C67.3057 154.411 68.2177 153.539 69.3937 153.539C70.7057 153.539 71.4977 154.643 71.4017 156.003H68.0897ZM68.0977 155.379H70.6337C70.6177 154.771 70.1617 154.163 69.3937 154.163C68.7457 154.163 68.1617 154.515 68.0977 155.379ZM76.5656 155.051H75.8296C75.7256 154.539 75.2776 154.179 74.7176 154.179C74.0696 154.179 73.4776 154.683 73.4776 155.763C73.4776 156.859 74.0776 157.379 74.7176 157.379C75.3256 157.379 75.7576 156.971 75.8616 156.515H76.6136C76.4696 157.323 75.6936 158.019 74.6936 158.019C73.4616 158.019 72.6856 157.083 72.6856 155.771C72.6856 154.491 73.4936 153.539 74.7656 153.539C75.8056 153.539 76.4696 154.323 76.5656 155.051ZM80.7912 157.299C80.5432 157.707 80.1512 158.019 79.4392 158.019C78.4392 158.019 78.0632 157.347 78.0632 156.363V153.611H78.7912V156.147C78.7912 156.811 78.9032 157.387 79.6952 157.387C80.3832 157.387 80.7912 156.899 80.7912 155.979V153.611H81.5192V157.915H80.7912V157.299ZM85.5105 154.371C85.3585 154.355 85.2225 154.339 85.1025 154.339C84.4305 154.339 84.0945 154.715 84.0945 155.659V157.915H83.3665V153.611H84.0785V154.363C84.2945 153.875 84.7345 153.603 85.2945 153.587C85.3665 153.587 85.4305 153.587 85.5105 153.595V154.371ZM87.6306 152.115V152.995H86.9026V152.115H87.6306ZM87.6306 153.611V157.915H86.9026V153.611H87.6306ZM89.6859 152.531H90.4139V153.611H91.2299V154.195H90.4139V156.747C90.4139 157.195 90.4459 157.307 90.8619 157.307H91.2299V157.915H90.7019C89.8779 157.915 89.6859 157.731 89.6859 156.835V154.195H89.0059V153.611H89.6859V152.531ZM95.9238 153.611L94.3878 158.099C94.0758 159.035 93.8518 159.315 92.8918 159.315H92.5158V158.707H92.8118C93.2918 158.707 93.5238 158.675 93.7158 158.003L93.7478 157.915L92.1958 153.611H93.0038L94.0998 156.931L95.1638 153.611H95.9238ZM96.2129 156.995H97.1329V157.979L96.6449 159.027H96.1809L96.6049 157.915H96.2129V156.995ZM18.0838 162.531H18.8118V163.611H19.6278V164.195H18.8118V166.747C18.8118 167.195 18.8438 167.307 19.2598 167.307H19.6278V167.915H19.0998C18.2758 167.915 18.0838 167.731 18.0838 166.835V164.195H17.4038V163.611H18.0838V162.531ZM21.9759 164.259C22.2239 163.851 22.6399 163.539 23.3679 163.539C24.4079 163.539 24.7839 164.211 24.7839 165.195V167.915H24.0559V165.411C24.0559 164.747 23.9439 164.171 23.1119 164.171C22.4079 164.171 21.9759 164.659 21.9759 165.579V167.915H21.2479V162.115H21.9759V164.259ZM27.0533 166.003C27.0853 166.931 27.7413 167.379 28.3813 167.379C29.0213 167.379 29.3733 167.091 29.5573 166.667H30.3093C30.1093 167.411 29.4293 168.019 28.3813 168.019C27.0213 168.019 26.2693 167.043 26.2693 165.771C26.2693 164.411 27.1813 163.539 28.3573 163.539C29.6693 163.539 30.4613 164.643 30.3653 166.003H27.0533ZM27.0613 165.379H29.5973C29.5813 164.771 29.1253 164.163 28.3573 164.163C27.7093 164.163 27.1253 164.515 27.0613 165.379ZM38.081 165.051H37.345C37.241 164.539 36.793 164.179 36.233 164.179C35.585 164.179 34.993 164.683 34.993 165.763C34.993 166.859 35.593 167.379 36.233 167.379C36.841 167.379 37.273 166.971 37.377 166.515H38.129C37.985 167.323 37.209 168.019 36.209 168.019C34.977 168.019 34.201 167.083 34.201 165.771C34.201 164.491 35.009 163.539 36.281 163.539C37.321 163.539 37.985 164.323 38.081 165.051ZM43.5296 165.779C43.5296 167.339 42.4656 168.019 41.4656 168.019C40.4656 168.019 39.4016 167.339 39.4016 165.779C39.4016 164.219 40.4656 163.539 41.4656 163.539C42.4656 163.539 43.5296 164.219 43.5296 165.779ZM41.4656 167.379C42.1216 167.379 42.7536 166.883 42.7536 165.779C42.7536 164.635 42.1216 164.179 41.4656 164.179C40.8096 164.179 40.1776 164.603 40.1776 165.779C40.1776 166.923 40.8096 167.379 41.4656 167.379ZM45.8208 164.259C46.0688 163.851 46.4848 163.539 47.2128 163.539C48.2528 163.539 48.6288 164.211 48.6288 165.195V167.915H47.9008V165.411C47.9008 164.747 47.7888 164.171 46.9568 164.171C46.2528 164.171 45.8208 164.659 45.8208 165.579V167.915H45.0928V163.611H45.8208V164.259ZM50.6182 162.531H51.3462V163.611H52.1622V164.195H51.3462V166.747C51.3462 167.195 51.3782 167.307 51.7942 167.307H52.1622V167.915H51.6342C50.8102 167.915 50.6182 167.731 50.6182 166.835V164.195H49.9382V163.611H50.6182V162.531ZM54.1531 166.003C54.1851 166.931 54.8411 167.379 55.4811 167.379C56.1211 167.379 56.4731 167.091 56.6571 166.667H57.4091C57.2091 167.411 56.5291 168.019 55.4811 168.019C54.1211 168.019 53.3691 167.043 53.3691 165.771C53.3691 164.411 54.2811 163.539 55.4571 163.539C56.7691 163.539 57.5611 164.643 57.4651 166.003H54.1531ZM54.1611 165.379H56.6971C56.6811 164.771 56.2251 164.163 55.4571 164.163C54.8091 164.163 54.2251 164.515 54.1611 165.379ZM59.734 164.259C59.982 163.851 60.398 163.539 61.126 163.539C62.166 163.539 62.542 164.211 62.542 165.195V167.915H61.814V165.411C61.814 164.747 61.702 164.171 60.87 164.171C60.166 164.171 59.734 164.659 59.734 165.579V167.915H59.006V163.611H59.734V164.259ZM64.5314 162.531H65.2594V163.611H66.0754V164.195H65.2594V166.747C65.2594 167.195 65.2914 167.307 65.7074 167.307H66.0754V167.915H65.5474C64.7234 167.915 64.5314 167.731 64.5314 166.835V164.195H63.8514V163.611H64.5314V162.531ZM74.0562 165.779C74.0562 167.339 72.9922 168.019 71.9922 168.019C70.9922 168.019 69.9282 167.339 69.9282 165.779C69.9282 164.219 70.9922 163.539 71.9922 163.539C72.9922 163.539 74.0562 164.219 74.0562 165.779ZM71.9922 167.379C72.6482 167.379 73.2802 166.883 73.2802 165.779C73.2802 164.635 72.6482 164.179 71.9922 164.179C71.3362 164.179 70.7042 164.603 70.7042 165.779C70.7042 166.923 71.3362 167.379 71.9922 167.379ZM75.8424 163.299C75.8424 162.403 76.0264 162.115 77.0024 162.115H77.3784V162.723H77.0184C76.6344 162.723 76.5704 162.811 76.5704 163.259V163.611H77.3784V164.195H76.5704V167.915H75.8424V164.195H75.2424V163.611H75.8424V163.299ZM81.6575 162.531H82.3855V163.611H83.2015V164.195H82.3855V166.747C82.3855 167.195 82.4175 167.307 82.8335 167.307H83.2015V167.915H82.6735C81.8495 167.915 81.6575 167.731 81.6575 166.835V164.195H80.9775V163.611H81.6575V162.531ZM85.5496 164.259C85.7976 163.851 86.2136 163.539 86.9416 163.539C87.9816 163.539 88.3576 164.211 88.3576 165.195V167.915H87.6296V165.411C87.6296 164.747 87.5176 164.171 86.6856 164.171C85.9816 164.171 85.5496 164.659 85.5496 165.579V167.915H84.8216V162.115H85.5496V164.259ZM90.867 162.115V162.995H90.139V162.115H90.867ZM90.867 163.611V167.915H90.139V163.611H90.867ZM95.1782 164.867C95.0662 164.355 94.6662 164.155 94.1622 164.155C93.7382 164.155 93.2582 164.307 93.2582 164.699C93.2582 165.043 93.4982 165.203 93.9142 165.283L94.5222 165.403C95.3062 165.555 95.9942 165.851 95.9942 166.683C95.9942 167.531 95.2262 168.019 94.2422 168.019C93.1142 168.019 92.4742 167.275 92.3942 166.523H93.1622C93.2742 167.075 93.6182 167.403 94.2582 167.403C94.8102 167.403 95.2582 167.163 95.2582 166.763C95.2582 166.331 94.8502 166.147 94.3862 166.051L93.7462 165.923C93.1622 165.803 92.5222 165.531 92.5222 164.731C92.5222 163.971 93.2902 163.531 94.2422 163.531C95.1702 163.531 95.8022 164.051 95.9382 164.867H95.1782ZM18.3638 176.003C18.3958 176.931 19.0518 177.379 19.6918 177.379C20.3318 177.379 20.6838 177.091 20.8678 176.667H21.6198C21.4198 177.411 20.7398 178.019 19.6918 178.019C18.3318 178.019 17.5798 177.043 17.5798 175.771C17.5798 174.411 18.4918 173.539 19.6678 173.539C20.9798 173.539 21.7718 174.643 21.6758 176.003H18.3638ZM18.3718 175.379H20.9078C20.8918 174.771 20.4358 174.163 19.6678 174.163C19.0198 174.163 18.4358 174.515 18.3718 175.379ZM23.9447 177.915H23.2167V173.611H23.9447V174.259C24.1927 173.851 24.5927 173.539 25.2407 173.539C25.8967 173.539 26.2887 173.827 26.4807 174.299C26.8247 173.771 27.3287 173.539 27.9287 173.539C28.9287 173.539 29.3207 174.211 29.3207 175.195V177.915H28.5927V175.411C28.5927 174.747 28.4647 174.171 27.6727 174.171C27.0487 174.171 26.6327 174.659 26.6327 175.579V177.915H25.9047V175.411C25.9047 174.747 25.7767 174.171 24.9847 174.171C24.3607 174.171 23.9447 174.659 23.9447 175.579V177.915ZM30.8484 176.779C30.8484 175.763 31.9924 175.467 33.7604 175.267V175.163C33.7604 174.379 33.3204 174.115 32.7844 174.115C32.1844 174.115 31.8324 174.443 31.8004 174.971H31.0484C31.1204 174.043 31.9364 173.523 32.7764 173.523C33.9604 173.523 34.4964 174.091 34.4884 175.299L34.4804 176.291C34.4724 177.011 34.5124 177.507 34.5924 177.915H33.8564C33.8324 177.755 33.8084 177.579 33.8004 177.323C33.5364 177.763 33.0884 178.019 32.3284 178.019C31.5204 178.019 30.8484 177.571 30.8484 176.779ZM33.8164 175.843C32.4964 175.979 31.6564 176.171 31.6564 176.763C31.6564 177.171 31.9684 177.443 32.4884 177.443C33.1684 177.443 33.8164 177.131 33.8164 176.115V175.843ZM36.9935 172.115V172.995H36.2655V172.115H36.9935ZM36.9935 173.611V177.915H36.2655V173.611H36.9935ZM39.5688 177.915H38.8408V172.115H39.5688V177.915ZM44.7348 172.115V172.995H44.0068V172.115H44.7348ZM44.7348 173.611V177.915H44.0068V173.611H44.7348ZM49.0461 174.867C48.9341 174.355 48.5341 174.155 48.0301 174.155C47.6061 174.155 47.1261 174.307 47.1261 174.699C47.1261 175.043 47.3661 175.203 47.7821 175.283L48.3901 175.403C49.1741 175.555 49.8621 175.851 49.8621 176.683C49.8621 177.531 49.0941 178.019 48.1101 178.019C46.9821 178.019 46.3421 177.275 46.2621 176.523H47.0301C47.1421 177.075 47.4861 177.403 48.1261 177.403C48.6781 177.403 49.1261 177.163 49.1261 176.763C49.1261 176.331 48.7181 176.147 48.2541 176.051L47.6141 175.923C47.0301 175.803 46.3901 175.531 46.3901 174.731C46.3901 173.971 47.1581 173.531 48.1101 173.531C49.0381 173.531 49.6701 174.051 49.8061 174.867H49.0461ZM54.5565 176.003C54.5885 176.931 55.2445 177.379 55.8845 177.379C56.5245 177.379 56.8765 177.091 57.0605 176.667H57.8125C57.6125 177.411 56.9325 178.019 55.8845 178.019C54.5245 178.019 53.7725 177.043 53.7725 175.771C53.7725 174.411 54.6845 173.539 55.8605 173.539C57.1725 173.539 57.9645 174.643 57.8685 176.003H54.5565ZM54.5645 175.379H57.1005C57.0845 174.771 56.6285 174.163 55.8605 174.163C55.2125 174.163 54.6285 174.515 54.5645 175.379ZM60.1373 174.259C60.3853 173.851 60.8013 173.539 61.5293 173.539C62.5693 173.539 62.9453 174.211 62.9453 175.195V177.915H62.2173V175.411C62.2173 174.747 62.1053 174.171 61.2733 174.171C60.5693 174.171 60.1373 174.659 60.1373 175.579V177.915H59.4093V173.611H60.1373V174.259ZM68.3107 175.051H67.5747C67.4707 174.539 67.0227 174.179 66.4627 174.179C65.8147 174.179 65.2227 174.683 65.2227 175.763C65.2227 176.859 65.8227 177.379 66.4627 177.379C67.0707 177.379 67.5027 176.971 67.6067 176.515H68.3587C68.2147 177.323 67.4387 178.019 66.4387 178.019C65.2067 178.019 64.4307 177.083 64.4307 175.771C64.4307 174.491 65.2387 173.539 66.5107 173.539C67.5507 173.539 68.2147 174.323 68.3107 175.051ZM72.0163 174.371C71.8643 174.355 71.7283 174.339 71.6083 174.339C70.9363 174.339 70.6003 174.715 70.6003 175.659V177.915H69.8723V173.611H70.5843V174.363C70.8003 173.875 71.2403 173.603 71.8003 173.587C71.8723 173.587 71.9363 173.587 72.0163 173.595V174.371ZM76.5604 173.611L75.0244 178.099C74.7124 179.035 74.4884 179.315 73.5284 179.315H73.1524V178.707H73.4484C73.9284 178.707 74.1604 178.675 74.3524 178.003L74.3844 177.915L72.8324 173.611H73.6404L74.7364 176.931L75.8004 173.611H76.5604ZM78.5554 173.611V174.291C78.8194 173.835 79.2754 173.539 79.9634 173.539C80.9474 173.539 81.8034 174.363 81.8034 175.779C81.8034 177.203 80.9474 178.019 79.9634 178.019C79.2754 178.019 78.8194 177.723 78.5554 177.267V179.315H77.8274V173.611H78.5554ZM79.7794 177.395C80.5234 177.395 81.0114 176.803 81.0114 175.779C81.0114 174.755 80.5234 174.163 79.7794 174.163C79.1314 174.163 78.5234 174.643 78.5234 175.779C78.5234 176.915 79.1314 177.395 79.7794 177.395ZM83.5169 172.531H84.2449V173.611H85.0609V174.195H84.2449V176.747C84.2449 177.195 84.2769 177.307 84.6929 177.307H85.0609V177.915H84.5329C83.7089 177.915 83.5169 177.731 83.5169 176.835V174.195H82.8369V173.611H83.5169V172.531ZM87.0518 176.003C87.0838 176.931 87.7398 177.379 88.3798 177.379C89.0198 177.379 89.3718 177.091 89.5558 176.667H90.3078C90.1078 177.411 89.4278 178.019 88.3798 178.019C87.0198 178.019 86.2678 177.043 86.2678 175.771C86.2678 174.411 87.1798 173.539 88.3558 173.539C89.6678 173.539 90.4598 174.643 90.3638 176.003H87.0518ZM87.0598 175.379H89.5958C89.5798 174.771 89.1238 174.163 88.3558 174.163C87.7078 174.163 87.1238 174.515 87.0598 175.379ZM94.8957 172.115H95.6237V177.915H94.8957V177.267C94.6317 177.723 94.1757 178.019 93.4877 178.019C92.5037 178.019 91.6477 177.203 91.6477 175.779C91.6477 174.363 92.5037 173.539 93.4877 173.539C94.1757 173.539 94.6317 173.835 94.8957 174.291V172.115ZM93.6717 174.163C92.9277 174.163 92.4397 174.755 92.4397 175.779C92.4397 176.803 92.9277 177.395 93.6717 177.395C94.3197 177.395 94.9277 176.915 94.9277 175.779C94.9277 174.643 94.3197 174.163 93.6717 174.163ZM97.4082 177.915V176.995H98.3282V177.915H97.4082Z" fill="#333333"/>
</g>
<path d="M11.9824 123.637L59.6231 77.1392C62.3749 74.4533 66.7162 74.3693 69.5674 76.8872L69.8389 77.1392L117.479 123.637L11.9824 123.637Z" fill="#FAFAFA" stroke="#9F9F9F" stroke-width="0.5"/>
<rect x="47.2383" y="103.167" width="34.2745" height="34.2745" rx="17.1372" fill="#5466D9"/>
<g clip-path="url(#clip0_2032_66883)">
<path fill-rule="evenodd" clip-rule="evenodd" d="M63.9934 111.746C62.919 111.857 62.0016 112.3 61.2693 113.06C60.9534 113.389 60.7143 113.731 60.5144 114.14C60.364 114.448 60.2797 114.673 60.2069 114.961C60.0887 115.429 60.0904 115.404 60.0792 116.826L60.069 118.128L59.6593 118.139C59.3259 118.148 59.2237 118.157 59.1112 118.188C58.4588 118.366 58.0318 118.892 57.9483 119.622C57.9221 119.851 57.9222 127.189 57.9484 127.444C57.9926 127.874 58.1832 128.241 58.4941 128.494C58.6515 128.622 58.9349 128.762 59.1585 128.823L59.3406 128.873H64.394H69.4475L69.6114 128.831C70.2761 128.662 70.7198 128.126 70.8044 127.388C70.8287 127.176 70.828 119.809 70.8037 119.576C70.762 119.179 70.6353 118.9 70.3763 118.637C70.147 118.403 69.9367 118.284 69.5841 118.188C69.4756 118.158 69.3689 118.148 69.0651 118.139L68.6827 118.128L68.6724 116.826C68.6636 115.702 68.6579 115.501 68.6308 115.352C68.4645 114.441 68.0881 113.69 67.4823 113.06C66.8007 112.352 65.946 111.914 64.9685 111.771C64.742 111.738 64.2009 111.724 63.9934 111.746ZM64.1118 112.885C64.0817 112.889 63.9916 112.902 63.9115 112.912C63.0232 113.03 62.1687 113.593 61.6837 114.38C61.5013 114.676 61.3518 115.054 61.2811 115.397C61.2203 115.692 61.2055 116.059 61.2111 117.127L61.2163 118.128H64.3758H67.5354L67.5406 117.127C67.5476 115.785 67.5241 115.485 67.3781 115.051C67.2187 114.576 66.989 114.198 66.6442 113.842C66.163 113.345 65.5703 113.033 64.8857 112.917C64.7332 112.891 64.2183 112.87 64.1118 112.885ZM59.4772 119.284C59.2979 119.307 59.1953 119.387 59.1272 119.555L59.0856 119.658V123.537V127.416L59.1264 127.492C59.1795 127.591 59.2673 127.657 59.4054 127.7C59.5138 127.733 59.6494 127.734 64.3967 127.734C68.0564 127.734 69.2977 127.729 69.361 127.713C69.4674 127.686 69.5793 127.578 69.6296 127.452C69.6656 127.362 69.6661 127.313 69.6709 123.537C69.6742 120.882 69.6698 119.684 69.6563 119.619C69.6193 119.44 69.4844 119.33 69.2497 119.287C69.1287 119.264 59.6505 119.262 59.4772 119.284ZM64.1646 121.908C64.0585 121.949 63.9198 122.076 63.8603 122.188L63.8204 122.262V123.5V124.739L63.8652 124.826C63.9652 125.022 64.1534 125.137 64.3758 125.137C64.5982 125.137 64.7864 125.022 64.8864 124.826L64.9313 124.739V123.5V122.262L64.8914 122.188C64.8298 122.073 64.6934 121.949 64.5819 121.907C64.4558 121.86 64.2886 121.86 64.1646 121.908Z" fill="white"/>
</g>
<defs>
<clipPath id="clip0_2032_66883">
<rect width="17.1372" height="17.1372" fill="white" transform="translate(55.8071 111.735)"/>
</clipPath>
</defs>
</svg>
