<svg width="289" height="159" viewBox="0 0 289 159" fill="none" xmlns="http://www.w3.org/2000/svg">
<path d="M60.1696 16.5642H137.54C142.571 16.5642 146.649 20.6425 146.649 25.6734V123.776C146.649 128.807 142.571 132.885 137.54 132.885H60.1696V16.5642Z" fill="#333333" stroke="#E0E0E0" stroke-width="0.620538"/>
<rect x="63.8884" y="20.3571" width="16.5017" height="102.273" fill="#666666" stroke="#E0E0E0" stroke-width="0.620538"/>
<rect x="89.9431" y="46.5564" width="41.5606" height="23.2394" rx="1.14532" stroke="#E0E0E0" stroke-width="0.620538"/>
<rect x="100.75" y="54.4609" width="20.7071" height="1.95574" rx="0.977868" fill="#E0E0E0"/>
<rect x="97.3125" y="60.7188" width="27.226" height="1.95574" rx="0.977868" fill="#E0E0E0"/>
<path d="M63.6016 125.906H142.41V127.125C142.41 128.165 141.566 129.009 140.526 129.009H63.6016V125.906Z" fill="#666666"/>
<path fill-rule="evenodd" clip-rule="evenodd" d="M64.7435 87.8228C63.4681 87.0072 61.859 86.836 60.5765 87.4901C58.7366 88.4285 58.0565 90.117 58.2549 91.7471C58.457 93.4078 59.576 95.0114 61.4214 95.6661C61.9215 95.8436 62.1858 96.4009 62.0119 96.911C61.8379 97.4211 61.2915 97.6907 60.7915 97.5133C58.2271 96.6035 56.6403 94.3555 56.3522 91.988C56.0603 89.5899 57.1058 87.0737 59.719 85.7408C61.6962 84.7324 64.0176 85.0502 65.762 86.1658C67.5232 87.2922 68.8117 89.3088 68.5797 91.7931C68.5295 92.3308 68.0615 92.7251 67.5345 92.6739C67.0074 92.6227 66.6208 92.1453 66.671 91.6077C66.8225 89.9849 66.002 88.6278 64.7435 87.8228Z" fill="#E0E0E0"/>
<path fill-rule="evenodd" clip-rule="evenodd" d="M64.359 80.3892C63.0836 79.5736 61.4745 79.4024 60.1921 80.0565C58.98 80.6747 58.2709 81.6228 58.029 82.6798C57.7853 83.7452 57.9915 85.0355 58.8333 86.3597C59.1213 86.8128 58.9947 87.4184 58.5505 87.7122C58.1063 88.006 57.5126 87.8769 57.2246 87.4237C56.1492 85.7321 55.7803 83.9031 56.1619 82.2354C56.5453 80.5592 57.6619 79.1604 59.3346 78.3073C61.3117 77.2988 63.6331 77.6166 65.3775 78.7323C67.1387 79.8586 68.4272 81.8752 68.1952 84.3596C68.1451 84.8972 67.6771 85.2915 67.15 85.2403C66.6229 85.1891 66.2364 84.7118 66.2866 84.1741C66.4381 82.5513 65.6176 81.1942 64.359 80.3892Z" fill="#E0E0E0"/>
<path fill-rule="evenodd" clip-rule="evenodd" d="M64.2652 72.5689C62.9899 71.7533 61.3808 71.5821 60.0983 72.2362C58.8863 72.8544 58.1771 73.8025 57.9353 74.8595C57.6915 75.9249 57.8978 77.2152 58.7395 78.5394C59.0276 78.9925 58.901 79.598 58.4567 79.8919C58.0125 80.1857 57.4189 80.0565 57.1308 79.6034C56.0554 77.9118 55.6865 76.0828 56.0681 74.415C56.4516 72.7389 57.5682 71.3401 59.2408 70.4869C61.2179 69.4785 63.5393 69.7963 65.2838 70.9119C67.0449 72.0383 68.3334 74.0549 68.1015 76.5392C68.0513 77.0769 67.5833 77.4712 67.0563 77.42C66.5292 77.3688 66.1426 76.8915 66.1928 76.3538C66.3443 74.731 65.5238 73.3739 64.2652 72.5689Z" fill="#E0E0E0"/>
<path fill-rule="evenodd" clip-rule="evenodd" d="M64.648 65.1353C63.3727 64.3197 61.7636 64.1485 60.4811 64.8026C59.2691 65.4208 58.5599 66.3689 58.3181 67.4259C58.0743 68.4913 58.2806 69.7816 59.1223 71.1058C59.4104 71.5589 59.2838 72.1644 58.8396 72.4583C58.3953 72.7521 57.8017 72.6229 57.5136 72.1698C56.4383 70.4782 56.0693 68.6492 56.4509 66.9814C56.8344 65.3053 57.951 63.9065 59.6236 63.0533C61.6007 62.0449 63.9221 62.3627 65.6666 63.4783C67.4278 64.6047 68.7163 66.6213 68.4843 69.1056C68.4341 69.6433 67.9661 70.0376 67.4391 69.9864C66.912 69.9352 66.5254 69.4579 66.5756 68.9202C66.7271 67.2974 65.9066 65.9403 64.648 65.1353Z" fill="#E0E0E0"/>
<path fill-rule="evenodd" clip-rule="evenodd" d="M64.648 57.315C63.3727 56.4993 61.7636 56.3282 60.4811 56.9823C59.2691 57.6005 58.5599 58.5486 58.3181 59.6056C58.0743 60.6709 58.2806 61.9613 59.1223 63.2855C59.4104 63.7386 59.2838 64.3441 58.8396 64.638C58.3953 64.9318 57.8017 64.8026 57.5136 64.3495C56.4383 62.6579 56.0693 60.8289 56.4509 59.1611C56.8344 57.485 57.951 56.0862 59.6236 55.233C61.6007 54.2246 63.9221 54.5424 65.6666 55.658C67.4278 56.7844 68.7163 58.801 68.4843 61.2853C68.4341 61.823 67.9661 62.2173 67.4391 62.1661C66.912 62.1149 66.5254 61.6375 66.5756 61.0999C66.7271 59.4771 65.9066 58.1199 64.648 57.315Z" fill="#E0E0E0"/>
<path fill-rule="evenodd" clip-rule="evenodd" d="M64.648 49.1002C63.3727 48.2845 61.7636 48.1133 60.4811 48.7674C59.2691 49.3856 58.5599 50.3338 58.3181 51.3908C58.0743 52.4561 58.2806 53.7464 59.1223 55.0706C59.4104 55.5238 59.2838 56.1293 58.8396 56.4231C58.3953 56.7169 57.8017 56.5878 57.5136 56.1347C56.4383 54.443 56.0693 52.6141 56.4509 50.9463C56.8344 49.2702 57.951 47.8713 59.6236 47.0182C61.6007 46.0098 63.9221 46.3275 65.6666 47.4432C67.4278 48.5696 68.7163 50.5861 68.4843 53.0705C68.4341 53.6081 67.9661 54.0024 67.4391 53.9512C66.912 53.9 66.5254 53.4227 66.5756 52.8851C66.7271 51.2623 65.9066 49.9051 64.648 49.1002Z" fill="#E0E0E0"/>
<rect x="60.6016" y="94.8477" width="2.97779" height="4.93584" fill="#333333"/>
<path d="M145.002 158.997C202.187 158.997 248.544 156.411 248.544 153.221C248.544 150.031 202.187 147.445 145.002 147.445C87.8181 147.445 41.4609 150.031 41.4609 153.221C41.4609 156.411 87.8181 158.997 145.002 158.997Z" fill="#1A1A1A"/>
<path d="M184.189 41.8256L232.833 62.4989V97.249V120.227H135.251C130.923 120.227 127.404 116.646 127.404 112.216V62.5108L184.189 41.8256Z" fill="#333333" stroke="#E0E0E0" stroke-width="0.620538"/>
<path d="M141.495 78.9376H137.162C136.106 78.9376 135.25 78.0644 135.25 76.9875V72.5673C135.25 71.4904 136.106 70.6172 137.162 70.6172H141.495C142.551 70.6172 143.407 71.4904 143.407 72.5673V76.9875C143.407 78.0644 142.551 78.9376 141.495 78.9376Z" fill="#BBE2F6"/>
<path d="M157.808 78.9376H153.474C152.419 78.9376 151.562 78.0644 151.562 76.9875V72.5673C151.562 71.4904 152.419 70.6172 153.474 70.6172H157.808C158.863 70.6172 159.72 71.4904 159.72 72.5673V76.9875C159.72 78.0644 158.863 78.9376 157.808 78.9376Z" fill="#BBE2F6"/>
<path d="M174.12 78.9376H169.787C168.731 78.9376 167.875 78.0644 167.875 76.9875V72.5673C167.875 71.4904 168.731 70.6172 169.787 70.6172H174.12C175.176 70.6172 176.032 71.4904 176.032 72.5673V76.9875C176.032 78.0644 175.176 78.9376 174.12 78.9376Z" fill="#BBE2F6"/>
<path d="M190.441 78.9376H186.107C185.051 78.9376 184.195 78.0644 184.195 76.9875V72.5673C184.195 71.4904 185.051 70.6172 186.107 70.6172H190.441C191.496 70.6172 192.352 71.4904 192.352 72.5673V76.9875C192.352 78.0644 191.496 78.9376 190.441 78.9376Z" fill="#BBE2F6"/>
<path d="M190.441 95.1603H186.107C185.051 95.1603 184.195 94.2871 184.195 93.2101V88.79C184.195 87.713 185.051 86.8398 186.107 86.8398H190.441C191.496 86.8398 192.352 87.713 192.352 88.79V93.2101C192.352 94.2871 191.496 95.1603 190.441 95.1603Z" fill="#BBE2F6"/>
<path d="M207.167 95.1603H202.834C201.778 95.1603 200.922 94.2871 200.922 93.2101V88.79C200.922 87.713 201.778 86.8398 202.834 86.8398H207.167C208.223 86.8398 209.079 87.713 209.079 88.79V93.2101C209.079 94.2871 208.223 95.1603 207.167 95.1603Z" fill="#BBE2F6"/>
<path d="M222.55 95.1603H218.217C217.161 95.1603 216.305 94.2871 216.305 93.2101V88.79C216.305 87.713 217.161 86.8398 218.217 86.8398H222.55C223.606 86.8398 224.462 87.713 224.462 88.79V93.2101C224.462 94.2871 223.606 95.1603 222.55 95.1603Z" fill="#BBE2F6"/>
<path d="M206.753 78.9376H202.42C201.364 78.9376 200.508 78.0644 200.508 76.9875V72.5673C200.508 71.4904 201.364 70.6172 202.42 70.6172H206.753C207.809 70.6172 208.665 71.4904 208.665 72.5673V76.9875C208.665 78.0644 207.809 78.9376 206.753 78.9376Z" fill="#BBE2F6"/>
<path d="M223.066 78.9376H218.732C217.676 78.9376 216.82 78.0644 216.82 76.9875V72.5673C216.82 71.4904 217.676 70.6172 218.732 70.6172H223.066C224.121 70.6172 224.977 71.4904 224.977 72.5673V76.9875C224.977 78.0644 224.121 78.9376 223.066 78.9376Z" fill="#BBE2F6"/>
<path d="M141.495 95.5782H137.162C136.106 95.5782 135.25 94.7051 135.25 93.6281V89.2079C135.25 88.131 136.106 87.2578 137.162 87.2578H141.495C142.551 87.2578 143.407 88.131 143.407 89.2079V93.6281C143.407 94.7053 142.551 95.5782 141.495 95.5782Z" fill="#BBE2F6"/>
<path d="M157.808 95.5782H153.474C152.419 95.5782 151.562 94.7051 151.562 93.6281V89.2079C151.562 88.131 152.419 87.2578 153.474 87.2578H157.808C158.863 87.2578 159.72 88.131 159.72 89.2079V93.6281C159.72 94.7053 158.863 95.5782 157.808 95.5782Z" fill="#BBE2F6"/>
<path d="M174.12 95.5782H169.787C168.731 95.5782 167.875 94.7051 167.875 93.6281V89.2079C167.875 88.131 168.731 87.2578 169.787 87.2578H174.12C175.176 87.2578 176.032 88.131 176.032 89.2079V93.6281C176.032 94.7053 175.176 95.5782 174.12 95.5782Z" fill="#BBE2F6"/>
<path d="M141.495 112.219H137.162C136.106 112.219 135.25 111.346 135.25 110.269V105.849C135.25 104.772 136.106 103.898 137.162 103.898H141.495C142.551 103.898 143.407 104.772 143.407 105.849V110.269C143.407 111.346 142.551 112.219 141.495 112.219Z" fill="#BBE2F6"/>
<path d="M157.808 112.219H153.474C152.419 112.219 151.562 111.346 151.562 110.269V105.849C151.562 104.772 152.419 103.898 153.474 103.898H157.808C158.863 103.898 159.72 104.772 159.72 105.849V110.269C159.72 111.346 158.863 112.219 157.808 112.219Z" fill="#BBE2F6"/>
<path d="M174.12 112.219H169.787C168.731 112.219 167.875 111.346 167.875 110.269V105.849C167.875 104.772 168.731 103.898 169.787 103.898H174.12C175.176 103.898 176.032 104.772 176.032 105.849V110.269C176.032 111.346 175.176 112.219 174.12 112.219Z" fill="#BBE2F6"/>
<path d="M190.151 112.188H185.818C184.762 112.188 183.906 111.314 183.906 110.237V105.817C183.906 104.74 184.762 103.867 185.818 103.867H190.151C191.207 103.867 192.063 104.74 192.063 105.817V110.237C192.063 111.314 191.207 112.188 190.151 112.188Z" fill="#BBE2F6"/>
<path d="M206.956 112.188H202.623C201.567 112.188 200.711 111.314 200.711 110.237V105.817C200.711 104.74 201.567 103.867 202.623 103.867H206.956C208.012 103.867 208.868 104.74 208.868 105.817V110.237C208.868 111.314 208.012 112.188 206.956 112.188Z" fill="#BBE2F6"/>
<path d="M222.347 112.188H218.013C216.958 112.188 216.102 111.314 216.102 110.237V105.817C216.102 104.74 216.958 103.867 218.013 103.867H222.347C223.403 103.867 224.259 104.74 224.259 105.817V110.237C224.259 111.314 223.403 112.188 222.347 112.188Z" fill="#BBE2F6"/>
<path d="M232.833 41.4921V61.9832H127.404V41.4921C127.404 37.0624 130.923 33.4821 135.251 33.4821H224.987C229.315 33.4821 232.833 37.0624 232.833 41.4921Z" fill="#666666" stroke="#E0E0E0" stroke-width="0.620538"/>
<path d="M152.796 43.3721H147.487C146.467 43.3721 145.641 42.5289 145.641 41.4888C145.641 40.4487 146.467 39.6055 147.487 39.6055H152.796C153.816 39.6055 154.643 40.4487 154.643 41.4888C154.643 42.5289 153.816 43.3721 152.796 43.3721Z" fill="#9F9F9F"/>
<path d="M165.843 43.3721H160.534C159.514 43.3721 158.688 42.5289 158.688 41.4888C158.688 40.4487 159.514 39.6055 160.534 39.6055H165.843C166.863 39.6055 167.69 40.4487 167.69 41.4888C167.69 42.5289 166.863 43.3721 165.843 43.3721Z" fill="#9F9F9F"/>
<path d="M199.703 43.3721H194.393C193.373 43.3721 192.547 42.5289 192.547 41.4888C192.547 40.4487 193.373 39.6055 194.393 39.6055H199.703C200.723 39.6055 201.549 40.4487 201.549 41.4888C201.549 42.5289 200.723 43.3721 199.703 43.3721Z" fill="#9F9F9F"/>
<path d="M212.742 43.3721H207.432C206.412 43.3721 205.586 42.5289 205.586 41.4888C205.586 40.4487 206.413 39.6055 207.432 39.6055H212.742C213.762 39.6055 214.588 40.4487 214.588 41.4888C214.588 42.5289 213.762 43.3721 212.742 43.3721Z" fill="#9F9F9F"/>
<path d="M161.456 40.5017C161.43 43.1854 159.291 45.3425 156.668 45.3425C154.03 45.3425 151.881 43.159 151.881 40.4525V30.0518V30.0518C151.88 27.3453 154.03 25.1618 156.668 25.1618C159.307 25.1618 161.456 27.3453 161.456 30.0518V40.4525V40.5017Z" fill="#333333" stroke="#E0E0E0" stroke-width="0.620538"/>
<path d="M208.355 40.4525V40.5021C208.329 43.1856 206.189 45.3425 203.567 45.3425C200.929 45.3425 198.779 43.159 198.779 40.4525V30.0518C198.779 27.3453 200.928 25.1618 203.567 25.1618C206.205 25.1618 208.355 27.3453 208.355 30.0518V40.4525Z" fill="#333333" stroke="#E0E0E0" stroke-width="0.620538"/>
<rect x="204.146" y="89.9978" width="51.6294" height="51.6294" rx="25.8147" fill="#1A1A1A"/>
<path fill-rule="evenodd" clip-rule="evenodd" d="M226.65 106.592C228.548 105.911 230.61 105.831 232.555 106.365C234.499 106.899 236.232 108.02 237.516 109.575C237.803 109.923 237.754 110.438 237.406 110.725C237.058 111.012 236.544 110.963 236.257 110.615C235.187 109.319 233.743 108.385 232.122 107.94C230.502 107.495 228.783 107.561 227.202 108.129C225.62 108.697 224.252 109.739 223.285 111.113C222.318 112.487 221.798 114.126 221.797 115.807V116.285L223.669 114.413C223.988 114.094 224.505 114.094 224.823 114.413C225.142 114.732 225.142 115.249 224.823 115.568L221.6 118.791C221.45 118.965 221.228 119.076 220.98 119.076C220.733 119.076 220.511 118.965 220.361 118.791L217.138 115.568C216.819 115.249 216.819 114.732 217.138 114.413C217.456 114.094 217.973 114.094 218.292 114.413L220.164 116.285V115.807C220.165 113.79 220.789 111.822 221.95 110.173C223.111 108.524 224.752 107.274 226.65 106.592ZM238.941 113.357C239.158 113.357 239.366 113.443 239.519 113.597L242.784 116.862C243.103 117.181 243.103 117.698 242.784 118.017C242.465 118.336 241.949 118.336 241.63 118.017L239.752 116.139C239.689 117.984 239.106 119.777 238.066 121.308C236.965 122.931 235.401 124.186 233.578 124.91C231.755 125.634 229.756 125.794 227.841 125.37C225.926 124.945 224.182 123.956 222.836 122.529C222.526 122.201 222.541 121.685 222.869 121.375C223.197 121.066 223.714 121.081 224.023 121.409C225.145 122.597 226.598 123.422 228.194 123.776C229.79 124.13 231.456 123.996 232.975 123.392C234.494 122.789 235.797 121.743 236.716 120.391C237.569 119.134 238.053 117.666 238.118 116.152L236.253 118.017C235.934 118.336 235.417 118.336 235.098 118.017C234.78 117.698 234.78 117.181 235.098 116.862L238.364 113.597C238.517 113.443 238.725 113.357 238.941 113.357Z" fill="#0098FF"/>
<rect x="204.146" y="89.9978" width="51.6294" height="51.6294" rx="25.8147" stroke="#E0E0E0" stroke-width="0.620538"/>
<g filter="url(#filter0_d_9023_104909)">
<rect x="248.445" y="8" width="32.3567" height="33.0049" rx="6.53124" fill="white" shape-rendering="crispEdges"/>
<path opacity="0.50372" fill-rule="evenodd" clip-rule="evenodd" d="M260.359 14.4405C260.359 13.7057 261.077 13.1806 261.787 13.3967L273.92 17.0932C274.383 17.2342 274.699 17.6576 274.699 18.137V30.0496C274.699 30.7844 273.981 31.3095 273.272 31.0934L261.138 27.3969C260.675 27.2559 260.359 26.8326 260.359 26.3531V14.4405Z" fill="#C2F1F9"/>
<path opacity="0.8" fill-rule="evenodd" clip-rule="evenodd" d="M257.617 16.5226C257.617 15.7878 258.335 15.2626 259.045 15.4787L271.178 19.1752C271.641 19.3162 271.957 19.7396 271.957 20.2191V32.1316C271.957 32.8664 271.239 33.3916 270.529 33.1755L258.396 29.479C257.933 29.338 257.617 28.9146 257.617 28.4351V16.5226Z" fill="#8AE3F3"/>
<path fill-rule="evenodd" clip-rule="evenodd" d="M254.828 18.6007C254.828 17.8659 255.546 17.3408 256.256 17.5569L268.389 21.2533C268.852 21.3943 269.168 21.8177 269.168 22.2972V34.2097C269.168 34.9445 268.45 35.4697 267.74 35.2536L255.607 31.5571C255.144 31.4161 254.828 30.9927 254.828 30.5132V18.6007Z" fill="#36D0EB"/>
<path fill-rule="evenodd" clip-rule="evenodd" d="M258.785 28.7602L262.223 29.8153V29.3706L259.339 28.4944L260.87 26.9575C261.272 26.5462 261.553 26.1855 261.712 25.8767C261.872 25.5672 261.952 25.2628 261.952 24.9639C261.952 24.4337 261.81 23.9769 261.528 23.5947C261.245 23.2136 260.852 22.9577 260.349 22.8261C260.02 22.7399 259.727 22.7459 259.469 22.8439C259.211 22.9412 259.013 23.1161 258.873 23.3685C258.734 23.6203 258.664 23.9221 258.664 24.2742L259.113 24.3978C259.113 23.967 259.226 23.6473 259.454 23.438C259.681 23.2279 259.98 23.1714 260.349 23.2693C260.706 23.3639 260.987 23.5553 261.19 23.844C261.394 24.1334 261.495 24.4798 261.495 24.8828C261.495 25.1398 261.435 25.3874 261.315 25.6251C261.221 25.8097 261.069 26.0218 260.86 26.2608L260.666 26.4717L258.785 28.3648V28.7602ZM264.711 30.5788L265.164 30.7176V24.1543L265.088 24.1345L263.218 24.4596V24.9561L264.711 24.7029V30.5788Z" fill="white"/>
<path fill-rule="evenodd" clip-rule="evenodd" d="M260.089 28.3004L261.14 27.2444L261.14 27.2444L261.143 27.2418C261.558 26.8175 261.87 26.4231 262.057 26.0627L262.057 26.0624C262.241 25.7045 262.341 25.3366 262.341 24.9633C262.341 24.357 262.178 23.8129 261.837 23.3521L261.837 23.3516C261.493 22.8881 261.016 22.5828 260.431 22.4295C260.038 22.3265 259.653 22.3256 259.297 22.4608C258.943 22.5948 258.671 22.8385 258.487 23.1711C258.307 23.4954 258.227 23.8681 258.227 24.2736C258.227 24.4576 258.35 24.619 258.529 24.6682L258.978 24.7917C259.103 24.826 259.236 24.8007 259.339 24.7232C259.442 24.6458 259.503 24.5251 259.503 24.3971C259.503 24.0334 259.598 23.8422 259.712 23.7374L259.712 23.7368C259.811 23.6459 259.951 23.5934 260.219 23.6644C260.485 23.7351 260.682 23.8717 260.827 24.0777C260.975 24.2889 261.058 24.5506 261.058 24.8822C261.058 25.073 261.014 25.2577 260.921 25.4404M260.089 28.3004L262.321 28.9784C262.494 29.0312 262.613 29.19 262.613 29.37V29.8146C262.613 29.9448 262.55 30.0671 262.445 30.1443C262.339 30.2215 262.202 30.2444 262.077 30.2058L258.638 29.1508C258.465 29.0976 258.347 28.9391 258.347 28.7596V28.3641C258.347 28.2567 258.39 28.1535 258.466 28.0769L260.342 26.1896L260.526 25.9883C260.722 25.7646 260.849 25.5826 260.921 25.4404M264.993 23.7305C265.052 23.7202 265.113 23.7228 265.171 23.738L265.246 23.7578C265.427 23.8053 265.554 23.9679 265.554 24.1537V30.717C265.554 30.8471 265.491 30.9695 265.385 31.0467C265.28 31.1239 265.143 31.1467 265.018 31.1082L264.565 30.9694C264.392 30.9163 264.274 30.7577 264.274 30.5782V25.188L263.264 25.3592C263.144 25.3796 263.021 25.3464 262.928 25.2686C262.835 25.1908 262.781 25.0762 262.781 24.9555V24.459C262.781 24.2601 262.925 24.09 263.123 24.0556L264.993 23.7305Z" fill="white"/>
</g>
<g filter="url(#filter1_d_9023_104909)">
<rect x="9" y="84.7383" width="32.3567" height="33.0049" rx="6.53124" fill="white" shape-rendering="crispEdges"/>
<path fill-rule="evenodd" clip-rule="evenodd" d="M21.1406 89.8558C21.1406 89.1464 21.821 88.6395 22.4929 88.8481L33.9879 92.4164C34.4264 92.5525 34.7256 92.9612 34.7256 93.424V108.086C34.7256 108.796 34.0453 109.302 33.3733 109.094L21.8783 105.526C21.4398 105.389 21.1406 104.981 21.1406 104.518V89.8558Z" fill="#C79BFF" fill-opacity="0.3"/>
<path opacity="0.8" fill-rule="evenodd" clip-rule="evenodd" d="M18.5625 91.9651C18.5625 91.2558 19.2428 90.7489 19.9148 90.9575L31.4098 94.5258C31.8483 94.6619 32.1475 95.0706 32.1475 95.5334V110.196C32.1475 110.905 31.4672 111.412 30.7952 111.203L19.3002 107.635C18.8617 107.499 18.5625 107.09 18.5625 106.627V91.9651Z" fill="#CCAFEF"/>
<path fill-rule="evenodd" clip-rule="evenodd" d="M15.9375 94.0706C15.9375 93.3613 16.6178 92.8544 17.2898 93.063L28.7848 96.6312C29.2233 96.7674 29.5225 97.1761 29.5225 97.6389V112.301C29.5225 113.01 28.8422 113.517 28.1702 113.309L16.6752 109.74C16.2367 109.604 15.9375 109.196 15.9375 108.733V94.0706Z" fill="#9D66E1"/>
<path d="M23.7656 95.0703V101.994C23.7654 102.1 23.8291 102.197 23.9268 102.237C24.0246 102.278 24.1371 102.256 24.2118 102.18L25.2406 101.142C25.2651 101.117 25.2984 101.103 25.3331 101.103C25.3678 101.103 25.4011 101.117 25.4256 101.142L26.4544 102.845C26.5291 102.921 26.6417 102.944 26.7394 102.903C26.8372 102.862 26.9008 102.765 26.9006 102.659V96.0392L23.7656 95.0703Z" fill="#6129C6"/>
<path fill-rule="evenodd" clip-rule="evenodd" d="M15.9375 93.9895C15.9375 93.4235 16.5829 92.8768 17.2437 93.0473L18.6716 93.4917V110.358L16.5949 109.71C16.1979 109.55 15.9375 109.151 15.9375 108.786V93.9895Z" fill="#6129C6"/>
</g>
<defs>
<filter id="filter0_d_9023_104909" x="240.281" y="0.652352" width="48.6875" height="49.332" filterUnits="userSpaceOnUse" color-interpolation-filters="sRGB">
<feFlood flood-opacity="0" result="BackgroundImageFix"/>
<feColorMatrix in="SourceAlpha" type="matrix" values="0 0 0 0 0 0 0 0 0 0 0 0 0 0 0 0 0 0 127 0" result="hardAlpha"/>
<feOffset dy="0.816405"/>
<feGaussianBlur stdDeviation="4.08203"/>
<feComposite in2="hardAlpha" operator="out"/>
<feColorMatrix type="matrix" values="0 0 0 0 0 0 0 0 0 0 0 0 0 0 0 0 0 0 0.15 0"/>
<feBlend mode="normal" in2="BackgroundImageFix" result="effect1_dropShadow_9023_104909"/>
<feBlend mode="normal" in="SourceGraphic" in2="effect1_dropShadow_9023_104909" result="shape"/>
</filter>
<filter id="filter1_d_9023_104909" x="0.835947" y="77.3906" width="48.6875" height="49.332" filterUnits="userSpaceOnUse" color-interpolation-filters="sRGB">
<feFlood flood-opacity="0" result="BackgroundImageFix"/>
<feColorMatrix in="SourceAlpha" type="matrix" values="0 0 0 0 0 0 0 0 0 0 0 0 0 0 0 0 0 0 127 0" result="hardAlpha"/>
<feOffset dy="0.816405"/>
<feGaussianBlur stdDeviation="4.08203"/>
<feComposite in2="hardAlpha" operator="out"/>
<feColorMatrix type="matrix" values="0 0 0 0 0 0 0 0 0 0 0 0 0 0 0 0 0 0 0.15 0"/>
<feBlend mode="normal" in2="BackgroundImageFix" result="effect1_dropShadow_9023_104909"/>
<feBlend mode="normal" in="SourceGraphic" in2="effect1_dropShadow_9023_104909" result="shape"/>
</filter>
</defs>
</svg>
