<svg xmlns="http://www.w3.org/2000/svg" width="24" height="24" fill="none"><path fill="#000" fill-rule="evenodd" d="M12.133 1.067a5.333 5.333 0 1 0 0 10.666 5.333 5.333 0 0 0 0-10.666ZM5.733 6.4a6.4 6.4 0 1 1 12.8 0 6.4 6.4 0 0 1-12.8 0Z" clip-rule="evenodd"/><path fill="#000" fill-rule="evenodd" d="M12.133 14.4a9.066 9.066 0 0 0-9.05 8.533h18.101a9.066 9.066 0 0 0-9.05-8.533Zm-7.165 1.901a10.134 10.134 0 0 1 17.299 7.166.533.533 0 0 1-.534.533h-19.2A.533.533 0 0 1 2 23.467c0-2.688 1.068-5.265 2.968-7.166Z" clip-rule="evenodd"/></svg>