<svg width="24" height="24" viewBox="0 0 24 24" fill="none" xmlns="http://www.w3.org/2000/svg">
<path fill-rule="evenodd" clip-rule="evenodd" d="M12.1333 1.06667C9.18781 1.06667 6.8 3.45448 6.8 6.4C6.8 9.34552 9.18781 11.7333 12.1333 11.7333C15.0789 11.7333 17.4667 9.34552 17.4667 6.4C17.4667 3.45448 15.0789 1.06667 12.1333 1.06667ZM5.73333 6.4C5.73333 2.86538 8.59871 0 12.1333 0C15.668 0 18.5333 2.86538 18.5333 6.4C18.5333 9.93462 15.668 12.8 12.1333 12.8C8.59871 12.8 5.73333 9.93462 5.73333 6.4Z" fill="black"/>
<path fill-rule="evenodd" clip-rule="evenodd" d="M12.1333 14.4C9.7287 14.4 7.42256 15.3552 5.72223 17.0556C4.14804 18.6298 3.2125 20.7232 3.08235 22.9333H21.1843C21.0542 20.7232 20.1186 18.6298 18.5444 17.0556C16.8441 15.3552 14.538 14.4 12.1333 14.4ZM4.96798 16.3013C6.86835 14.401 9.44581 13.3333 12.1333 13.3333C14.8209 13.3333 17.3983 14.401 19.2987 16.3013C21.199 18.2017 22.2667 20.7791 22.2667 23.4667C22.2667 23.6081 22.2105 23.7438 22.1105 23.8438C22.0104 23.9438 21.8748 24 21.7333 24H2.53333C2.39188 24 2.25623 23.9438 2.15621 23.8438C2.05619 23.7438 2 23.6081 2 23.4667C2 20.7791 3.06762 18.2017 4.96798 16.3013Z" fill="black"/>
</svg>
