<svg width="24" height="24" viewBox="0 0 24 24" fill="none" xmlns="http://www.w3.org/2000/svg">
<g clip-path="url(#clip0_4693_49263)">
<path d="M5.42493 23.9944C4.22493 23.9944 3.09893 23.5284 2.25293 22.6834L1.31393 21.7444C-0.43407 19.9954 -0.43407 17.1504 1.31393 15.4024L7.41993 9.2944C8.26593 8.4484 9.39293 7.9834 10.5919 7.9834C11.7909 7.9834 12.9179 8.4494 13.7639 9.2944L14.7029 10.2344C14.8979 10.4294 14.8979 10.7464 14.7029 10.9414C14.6079 11.0354 14.4829 11.0874 14.3489 11.0874C14.2149 11.0874 14.0899 11.0354 13.9949 10.9414L13.0559 10.0014C12.3989 9.3444 11.5229 8.9824 10.5909 8.9824C9.65893 8.9824 8.78293 9.3444 8.12593 10.0014L2.01993 16.1084C0.66193 17.4674 0.66193 19.6774 2.01993 21.0364L2.95893 21.9754C3.61593 22.6324 4.49193 22.9944 5.42393 22.9944C6.35593 22.9944 7.23193 22.6324 7.88893 21.9754L12.1159 17.7484C12.2099 17.6544 12.3359 17.6024 12.4699 17.6024C12.6039 17.6024 12.7289 17.6544 12.8239 17.7484C13.0189 17.9434 13.0189 18.2604 12.8239 18.4554L8.59693 22.6824C7.75093 23.5284 6.62393 23.9944 5.42493 23.9944Z" fill="black"/>
<path d="M13.4089 16.0101C12.2099 16.0101 11.0839 15.5441 10.2379 14.6991C10.2329 14.6951 10.2239 14.6851 10.2199 14.6801L9.29688 13.7581C9.20288 13.6631 9.15088 13.5381 9.15088 13.4041C9.15088 13.2701 9.20288 13.1451 9.29788 13.0511C9.39188 12.9571 9.51688 12.9051 9.65088 12.9051C9.78488 12.9051 9.90988 12.9571 10.0049 13.0511L10.9439 13.9911C11.6049 14.6501 12.4789 15.0111 13.4079 15.0111C14.3399 15.0111 15.2159 14.6491 15.8729 13.9911L21.9789 7.88409C23.3369 6.52509 23.3369 4.31509 21.9789 2.95609L21.0429 2.02109C20.3799 1.35909 19.5049 0.996094 18.5749 0.996094C17.6429 0.996094 16.7679 1.35909 16.1099 2.01709L11.8829 6.24309C11.7889 6.33709 11.6629 6.38909 11.5289 6.38909C11.3949 6.38909 11.2699 6.33709 11.1749 6.24309C11.0799 6.14909 11.0299 6.02309 11.0299 5.89009C11.0299 5.75609 11.0819 5.63109 11.1769 5.53609L15.4039 1.31009C16.2509 0.463094 17.3769 -0.00390625 18.5749 -0.00390625C19.7719 -0.00390625 20.8969 0.461094 21.7429 1.30509L22.6869 2.24809C24.4349 3.99709 24.4349 6.84209 22.6869 8.59009L16.5809 14.6971C15.7349 15.5441 14.6079 16.0101 13.4089 16.0101Z" fill="black"/>
</g>
<defs>
<clipPath id="clip0_4693_49263">
<rect width="24" height="24" fill="white"/>
</clipPath>
</defs>
</svg>
