<svg width="24" height="24" viewBox="0 0 24 24" fill="none" xmlns="http://www.w3.org/2000/svg">
<path fill-rule="evenodd" clip-rule="evenodd" d="M1.49563 8.49563C2.45326 7.53799 3.75209 7 5.10639 7H6.6383C7.35335 7.00139 8.06103 7.15384 8.71306 7.44737C9.36508 7.7409 9.94773 8.16888 10.4228 8.70327C10.6102 8.91404 10.5913 9.2368 10.3805 9.42418C10.1697 9.61156 9.84696 9.5926 9.65957 9.38184C9.28007 8.95497 8.81465 8.6131 8.29382 8.37863C7.77313 8.14423 7.20881 8.02245 6.6378 8.02128H5.10639C4.02295 8.02128 2.98389 8.45167 2.21778 9.21778C1.45167 9.98389 1.02128 11.023 1.02128 12.1064C1.02128 13.1898 1.45167 14.2289 2.21778 14.995C2.98389 15.7611 4.02295 16.1915 5.10639 16.1915L6.63711 16.1915C6.63697 16.1915 6.63725 16.1915 6.63711 16.1915C7.20817 16.1901 7.77293 16.0682 8.29366 15.8338C8.81452 15.5993 9.28001 15.2575 9.65971 14.8308C9.84718 14.6201 10.1699 14.6013 10.3806 14.7887C10.5913 14.9762 10.6102 15.299 10.4227 15.5097C9.94745 16.0438 9.36482 16.4716 8.7129 16.7651C8.06097 17.0585 7.35444 17.2111 6.6395 17.2128L5.10639 17.2128C3.75209 17.2128 2.45326 16.6748 1.49563 15.7172C0.537993 14.7595 0 13.4607 0 12.1064C0 10.7521 0.537993 9.45326 1.49563 8.49563Z" fill="black"/>
<path fill-rule="evenodd" clip-rule="evenodd" d="M17.3617 7L18.8936 7C20.2479 7 21.5467 7.53799 22.5044 8.49563C23.462 9.45326 24 10.7521 24 12.1064C24 13.4607 23.462 14.7595 22.5044 15.7172C21.5467 16.6748 20.2479 17.2128 18.8936 17.2128L17.3606 17.2128C16.6456 17.2112 15.939 17.0587 15.287 16.7652C14.635 16.4717 14.0524 16.0438 13.5772 15.5096C13.3898 15.2989 13.4087 14.9761 13.6194 14.7887C13.8302 14.6012 14.1529 14.6201 14.3404 14.8309C14.72 15.2577 15.1854 15.5995 15.7063 15.834C16.227 16.0684 16.7913 16.1902 17.3623 16.1915C17.3622 16.1915 17.3625 16.1915 17.3623 16.1915H18.8936C19.9771 16.1915 21.0161 15.7611 21.7822 14.995C22.5483 14.2289 22.9787 13.1898 22.9787 12.1064C22.9787 11.023 22.5483 9.98389 21.7822 9.21778C21.0161 8.45167 19.9771 8.02128 18.8936 8.02128H17.3622C16.7912 8.02239 16.2268 8.14414 15.7061 8.37854C15.1853 8.61301 14.7199 8.9549 14.3405 9.3818C14.1531 9.59259 13.8303 9.61158 13.6196 9.42422C13.4088 9.23686 13.3898 8.9141 13.5771 8.70331C14.0522 8.16885 14.6349 7.74082 15.2869 7.44728C15.939 7.15374 16.6466 7.00131 17.3617 7Z" fill="black"/>
<path fill-rule="evenodd" clip-rule="evenodd" d="M6.12767 12.1054C6.12767 11.8234 6.35629 11.5948 6.63831 11.5948H17.3617C17.6437 11.5948 17.8724 11.8234 17.8724 12.1054C17.8724 12.3874 17.6437 12.616 17.3617 12.616H6.63831C6.35629 12.616 6.12767 12.3874 6.12767 12.1054Z" fill="black"/>
</svg>
