<svg width="24" height="24" viewBox="0 0 24 24" fill="none" xmlns="http://www.w3.org/2000/svg">
<path d="M15.1067 3.08975C14.604 2.61661 13.8129 2.64058 13.3398 3.1433C12.8666 3.64601 12.8906 4.43711 13.3933 4.91025L19.598 10.75H1.25C0.559644 10.75 0 11.3096 0 12C0 12.6904 0.559644 13.25 1.25 13.25H19.598L13.3933 19.0898C12.8906 19.5629 12.8666 20.354 13.3398 20.8567C13.8129 21.3594 14.604 21.3834 15.1067 20.9103L23.6067 12.9103C23.6295 12.8888 23.6514 12.8666 23.6723 12.8437C23.8778 12.6191 23.9949 12.3263 23.9998 12.0202C24 12.0135 24 12.0067 24 12C24 11.9933 24 11.9865 23.9998 11.9798C23.9943 11.6278 23.8432 11.3111 23.604 11.0872L15.1067 3.08975Z" fill="black"/>
</svg>
