<svg width="24" height="17" viewBox="0 0 24 17" fill="none" xmlns="http://www.w3.org/2000/svg">
<path fill-rule="evenodd" clip-rule="evenodd" d="M14.3756 14.7133C14.115 14.9692 13.9753 15.2986 13.9753 15.66C13.9753 16.0215 14.115 16.3508 14.3411 16.5706C14.479 16.7254 14.65 16.8424 14.8458 16.9132C15.0047 16.9707 15.1706 17 15.3396 17C15.5085 17 15.6745 16.9707 15.8334 16.9132C16.0292 16.8424 16.2002 16.7254 16.3031 16.6072L23.5997 9.45259C23.8612 9.19569 24 8.86405 24 8.5C24 8.13595 23.8612 7.80431 23.5997 7.54741L16.3036 0.393194C16.0429 0.13722 15.7076 0 15.3396 0C14.9716 0 14.6362 0.13722 14.3756 0.393192C14.115 0.649165 13.9753 0.978492 13.9753 1.33996C13.9753 1.70143 14.115 2.03075 14.3756 2.28673L19.3316 7.15422L1.37617 7.15422C1.00283 7.15422 0.662848 7.28958 0.400337 7.54741C0.137827 7.80523 0 8.13914 0 8.50583C0 8.86729 0.139713 9.19662 0.400337 9.45259C0.662848 9.71042 1.00283 9.84579 1.37617 9.84579L19.3316 9.84579L14.3756 14.7133Z" fill="white"/>
</svg>
