<svg width="215" height="148" viewBox="0 0 215 148" fill="none" xmlns="http://www.w3.org/2000/svg">
<path d="M42.8339 121.991L42.2894 120.903V120.903L41.8575 121.509V121.509L41.3931 122.192V122.192L40.9483 122.873V122.873L40.7102 123.25V123.25L40.466 123.647V123.647L40.219 124.06V124.06L39.9723 124.487V124.487L39.7291 124.924V124.924L39.4927 125.368V125.368L39.2663 125.816C39.2295 125.891 39.1933 125.966 39.1578 126.04L38.9524 126.487C38.1647 128.27 37.8098 129.946 38.8149 130.583C41.3278 132.177 46.3615 131.633 46.0558 129.657C46.0297 129.491 45.9818 129.292 45.9159 129.066L45.804 128.709V128.709L45.668 128.316V128.316L45.5108 127.895V127.895L45.3352 127.448V127.448L45.0435 126.743V126.743L44.7264 126.011V126.011L44.3938 125.269V125.269L43.9426 124.292V124.292L43.3985 123.147V123.147L42.8339 121.991V121.991Z" fill="#0B3547"/>
<path d="M20.0896 104.435L21.4817 105.061L20.8034 105.51L20.1243 105.939L19.6332 106.239L19.0916 106.558L18.509 106.889L18.1029 107.111L17.6858 107.332L17.2608 107.548L16.8308 107.757L16.3987 107.956L15.9673 108.142L15.5397 108.314C13.9111 108.937 12.4284 109.165 11.8299 108.314C10.2164 106.018 10.7205 101.395 12.699 101.662C12.9434 101.696 13.2596 101.772 13.6264 101.88L14.0093 101.998L14.4211 102.135L14.8573 102.289L15.5466 102.544L16.0228 102.727L16.9936 103.115L17.7193 103.414L19.0954 104L20.0896 104.435Z" fill="#0B3547"/>
<path d="M35.8234 134.748L51.1515 103.962L51.7784 103.657V103.657L52.2408 103.418V103.418L52.9735 103.021V103.021L53.4886 102.73V102.73L54.0555 102.398V102.398L54.4601 102.155V102.155L55.1043 101.756V101.756L55.7894 101.315V101.315L56.5117 100.834V100.834L57.0118 100.49V100.49L57.5255 100.128V100.128L58.0514 99.7466V99.7466L58.5885 99.3467V99.3467L59.1355 98.9279V98.9279L59.6914 98.4903V98.4903L60.2548 98.0336C64.7892 94.3038 69.9383 88.7398 72.9732 81.1332L73.8932 78.8491V78.8491L74.757 76.7463V76.7463L75.7208 74.4525V74.4525L76.6069 72.3978V72.3978L77.4168 70.5701V70.5701L77.9152 69.472V69.472L78.602 67.9962V67.9962L79.3128 66.5203V66.5203L79.7623 65.6181V65.6181L80.3121 64.5531V64.5531L80.8868 63.4956V63.4956L81.3571 62.686V62.686L81.6353 62.2421V62.2421L81.8094 61.9883V61.9883L84.5247 61.062V61.062L87.9212 59.885V59.885L92.0713 58.4192V58.4192L95.3952 57.2183V57.2183L96.8716 56.6748V56.6748L99.0335 55.8646V55.8646L100.749 55.2055V55.2055L102.041 54.6964V54.6964L102.952 54.3286V54.3286L104.074 53.8615V53.8615L104.836 53.5315V53.5315L105.304 53.3224V53.3224L105.735 53.1229V53.1229L106.129 52.9336V52.9336L106.482 52.7552V52.7552L106.793 52.5884C106.938 52.508 107.066 52.4322 107.176 52.3614C110.711 50.099 111.634 46.7219 110.254 46.0248C109.831 45.8103 108.989 45.7855 108.028 45.8535L107.577 45.8911C107.501 45.8983 107.424 45.906 107.347 45.9142L106.884 45.9676V45.9676L106.419 46.0289V46.0289L105.961 46.096V46.096L105.299 46.2028V46.2028L104.318 46.3797V46.3797L103.149 46.6187V46.6187L94.7534 34.4768L94.9378 34.4563V34.4563L95.2379 34.4103V34.4103L95.4312 34.3741V34.3741L95.6488 34.3276V34.3276L95.8875 34.2696V34.2696L96.144 34.199V34.199L96.4148 34.1147C96.461 34.0994 96.5076 34.0836 96.5547 34.067L96.841 33.9599C98.4354 33.3261 100.308 31.9375 99.9743 28.9335L99.6079 28.758V28.758L99.1939 28.5705C99.1211 28.5383 99.0464 28.5056 98.9698 28.4725L98.2323 28.1623V28.1623L97.4029 27.8294V27.8294L96.1676 27.3542V27.3542L94.8009 26.8477V26.8477L93.3209 26.3151V26.3151L91.7458 25.7615V25.7615L89.2445 24.903V24.903L87.0719 24.1727V24.1727L83.5225 23.0025V23.0025L80.0099 21.866V21.866L74.0283 19.9684V19.9684L67.8037 18.0377V18.0377L43.1431 32.9853V32.9853L42.6354 33.3106V33.3106L42.3182 33.5253C42.2667 33.5612 42.2159 33.597 42.1657 33.633L41.8724 33.8502C40.5861 34.8368 39.7502 35.9662 39.0253 38.2242L38.8659 38.7449C38.8133 38.925 38.7612 39.1116 38.7094 39.3053L38.5549 39.9075V39.9075L38.4015 40.5542C38.376 40.6658 38.3505 40.7793 38.325 40.8949L38.2125 41.4205V41.4205L38.1316 41.834V41.834L38.0393 42.3342V42.3342L37.8224 43.579V43.579L37.4967 45.5524V45.5524L37.0368 48.4506V48.4506L36.3308 53.0389V53.0389L35.1438 60.9571V60.9571L33.309 73.4694V73.4694L30.8379 90.6354V90.6354L11.2962 112.155L11.536 112.665V112.665L11.7847 113.16V113.16L12.0541 113.665V113.665L12.2996 114.103V114.103L12.688 114.762V114.762L13.0271 115.308V115.308L13.2768 115.697V115.697L13.546 116.104V116.104L13.8352 116.528V116.528L14.1447 116.969V116.969L14.4751 117.426V117.426L14.8268 117.898C14.9477 118.058 15.0722 118.22 15.2004 118.385L15.5962 118.886C15.664 118.971 15.7328 119.056 15.8026 119.142L16.2327 119.662V119.662L16.6863 120.195V120.195L17.1637 120.739V120.739L17.6656 121.294V121.294L18.1923 121.858C18.2822 121.953 18.3731 122.048 18.4651 122.144L19.03 122.722C19.2226 122.917 19.4195 123.112 19.6209 123.309L20.2383 123.903V123.903L20.8826 124.503C24.5014 127.824 29.3648 131.418 35.8234 134.748Z" fill="#EECEB5"/>
<path d="M96.4578 47.996L89.4777 55.4371L111.003 47.8019C110.635 49.1143 109.485 50.7661 107.466 52.0705L107.351 52.1426V52.1426L107.086 52.2963V52.2963L106.777 52.4622V52.4622L106.426 52.6398V52.6398L106.036 52.8282V52.8282L105.608 53.0269V53.0269L104.901 53.3427V53.3427L104.122 53.6777V53.6777L102.983 54.1503V54.1503L101.746 54.6476V54.6476L100.765 55.0336V55.0336L99.3977 55.5613V55.5613L97.2572 56.3696V56.3696L94.6934 57.3163V57.3163L90.0452 58.9903V58.9903L84.8042 60.8286V60.8286L82.3483 61.6741V61.6741L82.1274 62.0029V62.0029L81.9019 62.3673V62.3673L81.5941 62.8931V62.8931L81.2012 63.599V63.599L80.7205 64.504V64.504L80.4053 65.1177V65.1177L79.781 66.3737V66.3737L79.3818 67.2013V67.2013L78.8385 68.355V68.355L78.245 69.6473V69.6473L77.3278 71.7028V71.7028L76.4596 73.7062V73.7062L75.677 75.5549V75.5549L75.1813 76.7456V76.7456L74.3105 78.8703V78.8703L73.5733 80.7003V80.7003C71.3743 86.2122 68.0648 90.6473 64.6914 94.0844L64.1127 94.6638C63.5338 95.2335 62.9547 95.774 62.3808 96.2856L61.8088 96.7877V96.7877L61.2414 97.2707V97.2707L60.6798 97.7347V97.7347L60.1252 98.1797V98.1797L59.5786 98.6058V98.6058L59.0414 99.0132V99.0132L58.5147 99.4019V99.4019L57.9996 99.772V99.772L57.4973 100.124V100.124L56.7704 100.617V100.617L56.0789 101.068V101.068L55.4269 101.479V101.479L54.8181 101.85V101.85L54.2567 102.18V102.18L53.7465 102.47V102.47L53.1527 102.795V102.795L52.6665 103.051V103.051L51.942 103.408V103.408L36.7228 134.006C29.37 130.211 24.1103 126.066 20.4146 122.385L19.844 121.807C19.751 121.712 19.6591 121.617 19.5683 121.522L19.0358 120.957C18.8625 120.771 18.6933 120.586 18.5281 120.402L18.0449 119.858V119.858L17.5855 119.324V119.324L17.1496 118.802C17.0789 118.716 17.0091 118.63 16.9403 118.545L16.5387 118.042V118.042L16.1594 117.552C16.098 117.471 16.0375 117.392 15.978 117.312L15.6312 116.844V116.844L15.3056 116.39V116.39L15.0007 115.953V115.953L14.5811 115.328V115.328L14.3258 114.934V114.934L13.9785 114.376V114.376L13.77 114.029V114.029L13.4907 113.546V113.546L13.1782 112.977V112.977L12.9868 112.61V112.61L12.7076 112.037V112.037L12.5185 111.607V111.607L14.0613 109.899C14.5359 110.576 15.077 111.253 15.6691 111.925L16.1226 112.428V112.428L16.5937 112.928C16.6737 113.012 16.7543 113.095 16.8355 113.178L17.3306 113.674C17.5818 113.921 17.8382 114.167 18.0992 114.411L18.6268 114.898C18.7157 114.978 18.805 115.059 18.8947 115.139L19.4376 115.618V115.618L19.9889 116.091V116.091L20.547 116.559C20.6406 116.636 20.7343 116.713 20.8283 116.79L21.3942 117.247V117.247L21.9634 117.697V117.697L22.5345 118.139V118.139L23.3915 118.787V118.787L24.2447 119.414V119.414L24.809 119.82V119.82L25.645 120.409V120.409L26.1933 120.789V120.789L26.9986 121.336V121.336L28.0328 122.022V122.022L28.7725 122.503V122.503L29.9225 123.232V123.232L31.1379 123.981V123.981L32.5438 124.818V124.818L33.4552 125.339V125.339L46.0792 102.108L51.4099 58.9547V58.9547L52.4011 52.7304V52.7304L53.1699 48.0325V48.0325L53.564 45.7134V45.7134L53.7308 44.7717V44.7717L53.9278 43.7337V43.7337L53.9973 43.4165V43.4165L54.11 42.9571V42.9571L54.2301 42.4935C54.6072 41.0989 55.1574 39.6798 56.5235 38.5247L57.0403 38.1108V38.1108L57.792 37.49V37.49L59.3011 36.2134V36.2134L62.4314 33.553V33.553L63.7579 32.4379V32.4379L65.0544 31.3636V31.3636L65.9781 30.6126V30.6126L66.5594 30.1489V30.1489L67.106 29.7216C67.1939 29.6537 67.2801 29.5876 67.3645 29.5234L67.8478 29.1615C67.9243 29.1052 67.9988 29.0511 68.0712 28.9992L68.4776 28.7159C68.6036 28.631 68.7198 28.5561 68.8252 28.4921L70.3437 28.822V28.822L74.4767 29.7409V29.7409L76.4319 30.1621V30.1621L77.6631 30.4202V30.4202L79.346 30.7622V30.7622L80.6227 31.012V31.012L81.8978 31.2514V31.2514L82.7407 31.4032V31.4032L83.9848 31.6164V31.6164L84.7954 31.747V31.747L85.5863 31.867V31.867L86.354 31.9752V31.9752L87.0947 32.0704C87.3366 32.0998 87.5734 32.1269 87.8045 32.1514L88.4797 32.217V32.217L89.1167 32.2659C89.3222 32.2794 89.5206 32.2898 89.7115 32.2971C92.5856 32.4115 96.1467 31.7367 98.9925 31.0352L99.8657 30.8137C100.007 30.7769 100.145 30.7403 100.281 30.7039C99.7288 32.7982 97.8113 33.691 96.5059 34.0622L96.2054 34.1416V34.1416L95.9344 34.2031V34.2031L95.6991 34.2487V34.2487L95.4262 34.292V34.292L95.2357 34.3143V34.3143L99.5292 40.5616L94.7714 41.6104C96.8139 44.2677 98.8604 45.4779 100.46 46.0134L100.785 46.1148V46.1148L101.096 46.1985C101.146 46.211 101.196 46.2229 101.246 46.2341L101.534 46.294V46.294L101.807 46.34C101.851 46.3466 101.895 46.3527 101.938 46.3583L102.185 46.3862V46.3862L102.414 46.404V46.404L102.723 46.415V46.415L102.985 46.4118V46.4118L103.259 46.3942V46.3942L103.523 46.3583V46.3583C103.253 48.9511 101.322 49.2743 99.5472 48.9955L99.2167 48.9366V48.9366L98.8924 48.8661C98.839 48.8535 98.786 48.8405 98.7335 48.8272L98.4237 48.7437V48.7437L98.1269 48.6546V48.6546L97.8457 48.5625V48.5625L97.5828 48.4696V48.4696L97.2286 48.3345V48.3345L96.8452 48.1747V48.1747L96.5829 48.0562V48.0562L96.4578 47.996V47.996Z" fill="#E0A881"/>
<path d="M45.7864 129.045C35.9085 129.45 15.6157 118.152 13.0773 101.571C10.1361 101.104 5.23594 105.862 5.4728 109.152C10.9107 126.361 25.9873 135.416 38.2721 136.642C41.0922 136.619 46.1256 131.39 45.7864 129.045Z" fill="#10405B"/>
<path d="M124.287 0.0324444L84.1143 0.221655C82.2714 0.232797 80.5083 0.970462 79.2114 2.2729C77.9145 3.57535 77.1897 5.33628 77.1959 7.16954L77.6751 107.859C77.6863 109.692 78.4278 111.446 79.7371 112.736C81.0463 114.027 82.8164 114.748 84.6592 114.741L124.829 114.552C126.672 114.541 128.435 113.803 129.732 112.501C131.029 111.199 131.754 109.438 131.748 107.604L131.268 6.91486C131.257 5.08203 130.516 3.32834 129.207 2.03824C127.899 0.748139 126.129 0.0268455 124.287 0.0324444Z" fill="#E0E0E0"/>
<path d="M84.6441 112.771C83.3267 112.777 82.0605 112.263 81.1233 111.342C80.186 110.421 79.6541 109.168 79.6441 107.857L79.1649 7.16084C79.163 5.85043 79.6832 4.59266 80.6115 3.66299C81.5399 2.73331 82.8007 2.20749 84.1179 2.20068L89.7191 2.1743L89.7211 2.57929C89.726 3.62629 90.1479 4.62865 90.8944 5.3668C91.6408 6.10495 92.6509 6.51871 93.7033 6.51745L114.725 6.41843C115.779 6.4104 116.787 5.98778 117.529 5.24289C118.271 4.49799 118.686 3.49136 118.684 2.44288L118.682 2.03789L124.281 2.01152C125.597 2.00778 126.86 2.52267 127.795 3.4435C128.73 4.36434 129.26 5.61611 129.269 6.92485L129.748 107.621C129.752 108.93 129.233 110.187 128.307 111.116C127.381 112.046 126.123 112.573 124.807 112.581L84.6441 112.771Z" fill="white"/>
<rect x="0.231387" y="0.229206" width="43.7141" height="11.0364" rx="2.40163" transform="matrix(0.999989 -0.0047099 0.00475877 0.999989 82.4376 67.7906)" fill="white"/>
<rect x="0.231387" y="0.229206" width="43.7141" height="11.0364" rx="2.40163" transform="matrix(0.999989 -0.0047099 0.00475877 0.999989 82.4376 67.7906)" stroke="#E0E0E0" stroke-width="0.460587"/>
<path opacity="0.5" fill-rule="evenodd" clip-rule="evenodd" d="M87.1666 71.4101C87.1666 71.2376 87.3371 71.1144 87.5055 71.1651L90.3869 72.0328C90.4968 72.0658 90.5718 72.1652 90.5718 72.2778L90.5719 74.6892C90.5719 74.8617 90.4013 74.9849 90.2329 74.9342L87.3515 74.0666C87.2416 74.0335 87.1666 73.9341 87.1666 73.8215L87.1666 71.4101Z" fill="#FF9ABF"/>
<path opacity="0.8" fill-rule="evenodd" clip-rule="evenodd" d="M86.5117 71.8202C86.5117 71.6478 86.6822 71.5245 86.8507 71.5752L89.732 72.4429C89.842 72.476 89.917 72.5754 89.917 72.6879L89.917 75.0994C89.917 75.2719 89.7465 75.3951 89.5781 75.3444L86.6967 74.4767C86.5868 74.4436 86.5118 74.3442 86.5118 74.2317L86.5117 71.8202Z" fill="#F789B2"/>
<path fill-rule="evenodd" clip-rule="evenodd" d="M85.8569 72.3329C85.8569 72.1605 86.0274 72.0372 86.1958 72.0879L89.0772 72.9556C89.1871 72.9887 89.2621 73.0881 89.2621 73.2006L89.2622 75.6121C89.2622 75.7845 89.0916 75.9078 88.9232 75.8571L86.0419 74.9894C85.9319 74.9563 85.8569 74.8569 85.8569 74.7444L85.8569 72.3329Z" fill="#FF5B97"/>
<mask id="mask0_4679_4634" style="mask-type:luminance" maskUnits="userSpaceOnUse" x="85" y="72" width="5" height="4">
<path fill-rule="evenodd" clip-rule="evenodd" d="M85.8569 72.3327C85.8569 72.1602 86.0274 72.037 86.1958 72.0877L89.0772 72.9554C89.1871 72.9885 89.2621 73.0878 89.2621 73.2004L89.2622 75.6118C89.2622 75.7843 89.0916 75.9076 88.9232 75.8568L86.0419 74.9892C85.9319 74.9561 85.8569 74.8567 85.8569 74.7442L85.8569 72.3327Z" fill="white"/>
</mask>
<g mask="url(#mask0_4679_4634)">
<g style="mix-blend-mode:multiply">
<path fill-rule="evenodd" clip-rule="evenodd" d="M85.8569 71.8979L89.2621 72.9234L87.55 74.4161C87.4222 74.5275 87.2212 74.491 87.1429 74.342L85.8569 71.8979Z" fill="#F2357A"/>
</g>
</g>
<path d="M93.9725 71.3037L111.839 71.3041" stroke="#E0E0E0" stroke-width="1.11857" stroke-linecap="round"/>
<path d="M93.9726 74.0334L109.358 74.0338" stroke="#E0E0E0" stroke-width="0.460587" stroke-linecap="round"/>
<path d="M93.9726 75.5215L106.876 75.5218" stroke="#E0E0E0" stroke-width="0.460587" stroke-linecap="round"/>
<path d="M117.795 71.3054L123.999 71.3056" stroke="#E0E0E0" stroke-width="1.11857" stroke-linecap="round"/>
<rect x="0.231387" y="0.229206" width="43.7141" height="11.0364" rx="2.40163" transform="matrix(0.999989 -0.0047099 0.00475877 0.999989 82.5173 84.5514)" fill="white"/>
<rect x="0.231387" y="0.229206" width="43.7141" height="11.0364" rx="2.40163" transform="matrix(0.999989 -0.0047099 0.00475877 0.999989 82.5173 84.5514)" stroke="#E0E0E0" stroke-width="0.460587"/>
<path opacity="0.5" fill-rule="evenodd" clip-rule="evenodd" d="M87.2463 88.1706C87.2463 87.9981 87.4169 87.8749 87.5853 87.9256L90.4667 88.7933C90.5766 88.8263 90.6516 88.9257 90.6516 89.0383L90.6516 91.4497C90.6516 91.6222 90.4811 91.7454 90.3127 91.6947L87.4313 90.8271C87.3214 90.794 87.2464 90.6946 87.2464 90.582L87.2463 88.1706Z" fill="#FF9ABF"/>
<path opacity="0.8" fill-rule="evenodd" clip-rule="evenodd" d="M86.5915 88.5807C86.5915 88.4083 86.762 88.285 86.9305 88.3357L89.8118 89.2034C89.9217 89.2365 89.9967 89.3359 89.9967 89.4484L89.9968 91.8599C89.9968 92.0324 89.8263 92.1556 89.6578 92.1049L86.7765 91.2372C86.6666 91.2041 86.5916 91.1047 86.5916 90.9922L86.5915 88.5807Z" fill="#F789B2"/>
<path fill-rule="evenodd" clip-rule="evenodd" d="M85.9367 89.0934C85.9366 88.921 86.1072 88.7977 86.2756 88.8484L89.157 89.7161C89.2669 89.7492 89.3419 89.8486 89.3419 89.9611L89.3419 92.3726C89.342 92.545 89.1714 92.6683 89.003 92.6176L86.1216 91.7499C86.0117 91.7168 85.9367 91.6174 85.9367 91.5049L85.9367 89.0934Z" fill="#FF5B97"/>
<mask id="mask1_4679_4634" style="mask-type:luminance" maskUnits="userSpaceOnUse" x="85" y="88" width="5" height="5">
<path fill-rule="evenodd" clip-rule="evenodd" d="M85.9367 89.0934C85.9366 88.921 86.1072 88.7977 86.2756 88.8484L89.157 89.7161C89.2669 89.7492 89.3419 89.8486 89.3419 89.9611L89.3419 92.3726C89.342 92.545 89.1714 92.6683 89.003 92.6176L86.1216 91.7499C86.0117 91.7168 85.9367 91.6174 85.9367 91.5049L85.9367 89.0934Z" fill="white"/>
</mask>
<g mask="url(#mask1_4679_4634)">
<g style="mix-blend-mode:multiply">
<path fill-rule="evenodd" clip-rule="evenodd" d="M85.9366 88.6587L89.3419 89.6841L87.6298 91.1768C87.5019 91.2883 87.301 91.2517 87.2226 91.1028L85.9366 88.6587Z" fill="#F2357A"/>
</g>
</g>
<path d="M94.0523 88.0645L111.919 88.0649" stroke="#E0E0E0" stroke-width="1.11857" stroke-linecap="round"/>
<path d="M94.0523 90.7939L109.438 90.7943" stroke="#E0E0E0" stroke-width="0.460587" stroke-linecap="round"/>
<path d="M94.0524 92.2822L106.956 92.2825" stroke="#E0E0E0" stroke-width="0.460587" stroke-linecap="round"/>
<path d="M117.875 88.0659L124.079 88.0661" stroke="#E0E0E0" stroke-width="1.11857" stroke-linecap="round"/>
<path d="M39.3693 100.482L39.4745 101.562L41.4604 101.055L42.2493 100.843L42.8877 100.662L43.3337 100.529L43.7949 100.386L44.2704 100.232L44.7593 100.068L45.2605 99.8909L45.7732 99.7019L46.2964 99.4998C46.3844 99.4651 46.4728 99.4297 46.5616 99.3938L47.0988 99.1712C47.2792 99.0947 47.461 99.0157 47.644 98.9342L48.1965 98.6823C48.3817 98.5957 48.568 98.5066 48.7551 98.4147L49.319 98.1311C49.6965 97.9364 50.0769 97.7307 50.4589 97.513L51.033 97.1774C51.1288 97.12 51.2247 97.0617 51.3206 97.0027L51.8966 96.6393C56.1214 93.9038 60.3506 89.6105 62.9004 82.7366L64.1725 79.2793L65.5198 75.5434L66.6199 72.4149L67.2557 70.5617L67.9256 68.5574L68.5891 66.4929L69.0822 64.8641L69.3116 64.0448L69.4163 63.6308L71.1999 61.9648L73.8078 59.4842L75.7539 57.5997L77.3097 56.0697L78.6349 54.7471L79.6961 53.6726L80.7446 52.5951L81.5151 51.7912L82.266 50.996L82.9921 50.214L83.688 49.4495L84.1325 48.9517L84.5597 48.4651L84.968 47.9909L85.3557 47.5305L85.7214 47.0851L86.0635 46.6561C86.1184 46.586 86.1723 46.5167 86.2251 46.4481L86.5288 46.0462C86.7705 45.7192 86.9835 45.4128 87.1637 45.1303L87.6617 44.3157L88.0428 43.6768L88.5255 42.8401L88.8639 42.2248L89.0765 41.8207L89.2774 41.4216L89.4656 41.0277L89.6402 40.6393C89.6681 40.575 89.6954 40.511 89.7221 40.4472L89.8743 40.0672C90.9809 37.1759 90.6634 34.7983 86.8913 33.2759C84.9343 32.4861 82.4945 33.7271 79.8773 35.8279L79.3516 36.2592C79.1756 36.4065 78.999 36.5573 78.8217 36.7113L78.2882 37.1822C78.199 37.2621 78.1096 37.3427 78.0202 37.424L77.4822 37.9191L76.9419 38.4278L76.1284 39.2117L75.3128 40.0144L73.9537 41.3748L72.066 43.2725L71.2674 44.0638L70.7399 44.5787L69.9572 45.3272L69.4419 45.8071L68.9325 46.2693C67.4979 47.5519 66.1405 48.5967 64.9157 49.1906C64.6932 49.2985 64.4685 49.4039 64.2417 49.5072L63.5548 49.8114L62.8559 50.1055C62.7384 50.1538 62.6205 50.2018 62.5021 50.2495L61.7865 50.5331C61.6663 50.5799 61.5457 50.6266 61.4247 50.6731L58.0692 51.9367L57.3031 52.2313L56.5311 52.536L55.7541 52.8533C51.5977 54.5831 47.2551 56.9495 43.2283 61.5754C40.5058 64.6976 39.3103 71.2209 38.8745 78.1097L38.8119 79.1999L38.7612 80.2937C38.7463 80.6585 38.7332 81.0235 38.7219 81.3881L38.6931 82.4807L38.6743 83.5687L38.6647 84.6496C38.6639 84.829 38.6634 85.0079 38.6632 85.1865L38.6707 86.779L38.6946 88.3374L38.7184 89.353L38.7478 90.3467L38.801 91.7906L38.8414 92.7182L38.9079 94.0505L38.9793 95.3038L39.0785 96.8365L39.2011 98.5004L39.3693 100.482Z" fill="#EECEB5"/>
<rect x="99.9805" y="22.0496" width="114.625" height="34.6406" rx="4.86907" fill="white" stroke="#E0E0E0" stroke-width="0.789578"/>
<path opacity="0.5" fill-rule="evenodd" clip-rule="evenodd" d="M110.321 33.4861C110.321 33.0301 110.774 32.7042 111.222 32.8383L118.88 35.1322C119.172 35.2197 119.371 35.4824 119.371 35.78V42.1558C119.371 42.6118 118.918 42.9377 118.47 42.8036L110.812 40.5097C110.52 40.4222 110.321 40.1594 110.321 39.8619V33.4861Z" fill="#FF9ABF"/>
<path opacity="0.8" fill-rule="evenodd" clip-rule="evenodd" d="M108.581 34.5705C108.581 34.1146 109.034 33.7887 109.482 33.9228L117.139 36.2167C117.431 36.3042 117.631 36.5669 117.631 36.8644V43.2403C117.631 43.6963 117.177 44.0222 116.73 43.8881L109.072 41.5942C108.78 41.5067 108.581 41.2439 108.581 40.9464V34.5705Z" fill="#F789B2"/>
<path fill-rule="evenodd" clip-rule="evenodd" d="M106.84 35.926C106.84 35.47 107.293 35.1441 107.741 35.2782L115.399 37.5721C115.691 37.6596 115.89 37.9224 115.89 38.2199V44.5958C115.89 45.0517 115.437 45.3776 114.989 45.2435L107.332 42.9496C107.04 42.8621 106.84 42.5994 106.84 42.3019V35.926Z" fill="#FF5B97"/>
<mask id="mask2_4679_4634" style="mask-type:luminance" maskUnits="userSpaceOnUse" x="106" y="35" width="10" height="11">
<path fill-rule="evenodd" clip-rule="evenodd" d="M106.84 35.9258C106.84 35.4698 107.293 35.1439 107.741 35.278L115.399 37.5719C115.691 37.6594 115.89 37.9221 115.89 38.2197V44.5955C115.89 45.0515 115.437 45.3774 114.989 45.2433L107.332 42.9494C107.04 42.8619 106.84 42.5991 106.84 42.3016V35.9258Z" fill="white"/>
</mask>
<g mask="url(#mask2_4679_4634)">
<g style="mix-blend-mode:multiply">
<path fill-rule="evenodd" clip-rule="evenodd" d="M106.84 34.7759L115.89 37.4869L111.34 41.4336C111 41.7283 110.466 41.6317 110.258 41.2379L106.84 34.7759Z" fill="#F2357A"/>
</g>
</g>
<path d="M126.626 33.4666H174.111" stroke="#E0E0E0" stroke-width="1.97395" stroke-linecap="round"/>
<path d="M126.626 40.6838H167.516" stroke="#E0E0E0" stroke-width="0.789578" stroke-linecap="round"/>
<path d="M126.626 44.6206H160.921" stroke="#E0E0E0" stroke-width="0.789578" stroke-linecap="round"/>
<path d="M189.939 33.4656H206.427" stroke="#E0E0E0" stroke-width="1.97395" stroke-linecap="round"/>
</svg>
