<svg width="25" height="24" viewBox="0 0 25 24" fill="none" xmlns="http://www.w3.org/2000/svg">
<g clip-path="url(#clip0_20909_2930)">
<path d="M11.1074 19.75C5.90742 19.75 1.60742 15.45 1.60742 10.25C1.60742 5.05 5.90742 0.75 11.1074 0.75C16.3074 0.75 20.6074 5.05 20.6074 10.25" stroke="#CC3F6D" stroke-width="1.5" stroke-miterlimit="10" stroke-linecap="round" stroke-linejoin="round"/>
<path d="M11.9045 15.7496C9.60449 16.1496 7.50449 14.9496 6.60449 13.0496" stroke="#CC3F6D" stroke-width="1.5" stroke-miterlimit="10" stroke-linecap="round" stroke-linejoin="round"/>
<path d="M19.1045 23.2502C21.8659 23.2502 24.1045 21.0116 24.1045 18.2502C24.1045 15.4888 21.8659 13.2502 19.1045 13.2502C16.3431 13.2502 14.1045 15.4888 14.1045 18.2502C14.1045 21.0116 16.3431 23.2502 19.1045 23.2502Z" stroke="#CC3F6D" stroke-width="1.5" stroke-miterlimit="10" stroke-linecap="round" stroke-linejoin="round"/>
<path d="M19.1104 16.2502V20.2502" stroke="#CC3F6D" stroke-width="1.5" stroke-miterlimit="10" stroke-linecap="round" stroke-linejoin="round"/>
<path d="M17.1045 18.2498H21.1045" stroke="#CC3F6D" stroke-width="1.5" stroke-miterlimit="10" stroke-linecap="round" stroke-linejoin="round"/>
<path d="M7.41504 9.05786C7.20794 9.05786 7.04004 8.88996 7.04004 8.68286C7.04004 8.47575 7.20794 8.30786 7.41504 8.30786" stroke="#CC3F6D" stroke-width="1.5" stroke-linecap="round" stroke-linejoin="round"/>
<path d="M7.41504 9.05786C7.62215 9.05786 7.79004 8.88996 7.79004 8.68286C7.79004 8.47575 7.62215 8.30786 7.41504 8.30786" stroke="#CC3F6D" stroke-width="1.5" stroke-linecap="round" stroke-linejoin="round"/>
<path d="M14.915 9.05786C14.7079 9.05786 14.54 8.88996 14.54 8.68286C14.54 8.47575 14.7079 8.30786 14.915 8.30786" stroke="#CC3F6D" stroke-width="1.5" stroke-linecap="round" stroke-linejoin="round"/>
<path d="M14.915 9.05786C15.1221 9.05786 15.29 8.88996 15.29 8.68286C15.29 8.47575 15.1221 8.30786 14.915 8.30786" stroke="#CC3F6D" stroke-width="1.5" stroke-linecap="round" stroke-linejoin="round"/>
</g>
<defs>
<clipPath id="clip0_20909_2930">
<rect width="24" height="24" fill="white" transform="translate(0.857422)"/>
</clipPath>
</defs>
</svg>
