<svg width="161" height="132" viewBox="0 0 161 132" fill="none" xmlns="http://www.w3.org/2000/svg">
<path d="M63.7723 1.0579L0 37.5353V37.5974H136.291V37.5353L72.5184 1.0579C70.0558 -0.352633 66.2349 -0.352633 63.7723 1.0579Z" fill="#D8DEEF"/>
<rect y="37.5975" width="136.291" height="75.0962" fill="#D8DEEF"/>
<path d="M0.213835 37.6161L135.355 112.132C135.278 112.433 135.287 112.393 135.21 112.693H0.303129C0.136291 112.693 0 112.557 0 112.39V37.743C0 37.6326 0.117492 37.5621 0.213835 37.6161Z" fill="#EBEEF8"/>
<path d="M136.077 37.5839L68.1453 75.0403L135.355 112.1C135.278 112.398 135.287 112.363 135.21 112.661H135.987C136.154 112.661 136.291 112.525 136.291 112.358V37.7084C136.291 37.6004 136.173 37.5299 136.077 37.5839Z" fill="#F4F6FD"/>
<path fill-rule="evenodd" clip-rule="evenodd" d="M159.866 123.334L140.004 85.4023V85.4023C139.27 84.0022 137.82 83.125 136.239 83.125C134.658 83.125 133.208 84.0022 132.475 85.4023L112.61 123.334C111.92 124.651 111.969 126.234 112.739 127.506C113.509 128.778 114.888 129.556 116.376 129.556H156.1C157.588 129.556 158.967 128.778 159.737 127.506C160.507 126.234 160.556 124.651 159.866 123.334Z" fill="#D8DEEF"/>
<path fill-rule="evenodd" clip-rule="evenodd" d="M134.113 98.7324C134.113 97.5588 135.064 96.6074 136.238 96.6074C137.412 96.6074 138.363 97.5588 138.363 98.7324V111.482C138.363 112.656 137.412 113.607 136.238 113.607C135.064 113.607 134.113 112.656 134.113 111.482V98.7324Z" fill="white"/>
<path fill-rule="evenodd" clip-rule="evenodd" d="M136.344 123.191H136.285C134.543 123.186 133.117 121.807 133.05 120.067C133.02 119.226 133.328 118.408 133.907 117.796C134.485 117.185 135.286 116.832 136.127 116.816H136.187C137.928 116.818 139.357 118.194 139.425 119.934C139.459 120.777 139.151 121.598 138.571 122.211C137.991 122.824 137.188 123.178 136.344 123.191Z" fill="white"/>
</svg>
