<svg width="24" height="24" viewBox="0 0 24 24" fill="none" xmlns="http://www.w3.org/2000/svg">
<g clip-path="url(#clip0_4139_49192)">
<path d="M17.5 24C13.916 24 11 21.084 11 17.5C11 13.916 13.916 11 17.5 11C21.084 11 24 13.916 24 17.5C24 21.084 21.084 24 17.5 24ZM17.5 12C14.467 12 12 14.467 12 17.5C12 20.533 14.467 23 17.5 23C20.533 23 23 20.533 23 17.5C23 14.467 20.533 12 17.5 12Z" fill="black"/>
<path d="M17.5 21C17.224 21 17 20.776 17 20.5V18H14.5C14.224 18 14 17.776 14 17.5C14 17.224 14.224 17 14.5 17H17V14.5C17 14.224 17.224 14 17.5 14C17.776 14 18 14.224 18 14.5V17H20.5C20.776 17 21 17.224 21 17.5C21 17.776 20.776 18 20.5 18H18V20.5C18 20.775 17.776 21 17.5 21Z" fill="black"/>
<path d="M7.5 9.50098C4.881 9.50098 2.75 7.36998 2.75 4.75098C2.75 2.13198 4.881 0.000976562 7.5 0.000976562C10.119 0.000976562 12.25 2.13198 12.25 4.75098C12.25 7.36998 10.119 9.50098 7.5 9.50098ZM7.5 1.00098C5.432 1.00098 3.75 2.68298 3.75 4.75098C3.75 6.81898 5.432 8.50098 7.5 8.50098C9.568 8.50098 11.25 6.81898 11.25 4.75098C11.25 2.68298 9.568 1.00098 7.5 1.00098Z" fill="black"/>
<path d="M0.5 18C0.224 18 0 17.775 0 17.5C0 15.5 0.781 13.617 2.199 12.199C3.617 10.781 5.5 10 7.5 10C8.94 10 10.342 10.411 11.553 11.19C11.785 11.339 11.852 11.649 11.704 11.881C11.611 12.025 11.454 12.111 11.283 12.111C11.187 12.111 11.094 12.084 11.013 12.032C9.963 11.356 8.748 11 7.5 11C4.072 11 1.274 13.615 1.018 17H8.5C8.776 17 9 17.224 9 17.5C9 17.776 8.776 18 8.5 18H0.5Z" fill="black"/>
</g>
<defs>
<clipPath id="clip0_4139_49192">
<rect width="24" height="24" fill="white"/>
</clipPath>
</defs>
</svg>
