<svg width="112" height="80" viewBox="0 0 112 80" fill="none" xmlns="http://www.w3.org/2000/svg">
<rect x="11.75" y="30.6404" width="75.1757" height="49.1096" rx="5.75001" fill="#FAFAFA" stroke="#9F9F9F" stroke-width="0.5"/>
<path d="M51.9617 52.04L80.2568 79.75L18.4189 79.75L46.714 52.04C48.1719 50.6123 50.5038 50.6123 51.9617 52.04Z" fill="#FAFAFA" stroke="#9F9F9F" stroke-width="0.5"/>
<path d="M46.714 58.3504L18.4189 30.6404H80.2568L51.9616 58.3504C50.5037 59.7781 48.1719 59.7781 46.714 58.3504Z" fill="#F1F1F1" stroke="#9F9F9F" stroke-width="0.5"/>
<path d="M103.558 30.3088C103.558 40.6642 95.1507 49.0588 84.7792 49.0588C74.4078 49.0588 66 40.6642 66 30.3088C66 19.9535 74.4078 11.5588 84.7792 11.5588C95.1507 11.5588 103.558 19.9535 103.558 30.3088Z" fill="#FF8500"/>
<g clip-path="url(#clip0_4274_3820)">
<path d="M92.2546 38.606C92.1934 38.606 92.1322 38.583 92.0854 38.5363L91.7468 38.1992C91.7019 38.1543 91.677 38.0942 91.677 38.0302C91.677 37.9662 91.7019 37.906 91.7468 37.8612C93.7341 35.877 94.8282 33.2387 94.8282 30.4333C94.8282 27.6279 93.7332 24.9896 91.7468 23.0064C91.5603 22.8202 91.5603 22.5175 91.7468 22.3313C91.8367 22.2415 91.9572 22.1919 92.0854 22.1919C92.2135 22.1919 92.3331 22.2415 92.4239 22.3313C94.592 24.495 95.7855 27.373 95.7855 30.4333C95.7855 33.4936 94.592 36.3716 92.4239 38.5353C92.3761 38.583 92.3158 38.606 92.2546 38.606Z" fill="white"/>
<path d="M89.3775 35.9742C89.2493 35.9742 89.1298 35.9245 89.0389 35.8348C88.9481 35.745 88.8993 35.6247 88.8993 35.4967C88.8993 35.3688 88.949 35.2494 89.0389 35.1587C90.3032 33.8964 90.9995 32.2177 90.9995 30.4322C90.9995 28.6466 90.3032 26.9679 89.0389 25.7056C88.949 25.6158 88.8993 25.4955 88.8993 25.3676C88.8993 25.2396 88.949 25.1203 89.0389 25.0295C89.1288 24.9388 89.2493 24.8901 89.3775 24.8901C89.5056 24.8901 89.6252 24.9398 89.716 25.0295C91.1611 26.4723 91.9568 28.3907 91.9568 30.4312C91.9568 32.4717 91.1611 34.39 89.716 35.8328C89.6252 35.9245 89.5047 35.9742 89.3775 35.9742Z" fill="white"/>
<path d="M77.4865 38.6766C77.3469 38.6766 77.2159 38.6164 77.1241 38.5114C74.977 36.3687 73.7892 33.4946 73.7911 30.4323C73.7931 27.3691 74.9856 24.4922 77.1489 22.3323C77.2388 22.2415 77.3593 22.1919 77.4865 22.1919C77.6137 22.1919 77.7342 22.2415 77.8251 22.3313C78.0116 22.5175 78.0116 22.8202 77.8251 23.0064C75.8378 24.9906 74.7437 27.6279 74.7437 30.4333C74.7437 33.2368 75.8368 35.8731 77.8213 37.8564C77.9112 37.9423 77.9657 38.0684 77.9657 38.1982C77.9647 38.4627 77.7505 38.6766 77.4865 38.6766Z" fill="white"/>
<path d="M80.1944 35.9744C80.0662 35.9744 79.9467 35.9248 79.8558 35.835C78.4127 34.3942 77.6189 32.4758 77.6189 30.4334C77.6189 28.3909 78.4136 26.4726 79.8568 25.0317C79.9467 24.942 80.0672 24.8923 80.1953 24.8923C80.3235 24.8923 80.385 24.9657 80.4759 25.0565C80.5667 25.1472 80.6726 25.2418 80.6726 25.3698C80.6726 25.4977 80.6228 25.6161 80.5329 25.7068C79.2686 26.9692 78.5724 28.6478 78.5724 30.4334C78.5724 32.219 79.2686 33.8976 80.5329 35.16C80.6228 35.2497 80.6726 35.37 80.6726 35.498C80.6726 35.6259 80.6228 35.7453 80.5329 35.836C80.443 35.9267 80.3216 35.9744 80.1944 35.9744Z" fill="white"/>
<path d="M84.7849 41.7647C84.5209 41.7647 84.3067 41.5508 84.3067 41.2873V33.6111C82.6809 33.3772 81.4376 31.9659 81.4376 30.3064C81.4376 28.4635 82.9391 26.9644 84.7849 26.9644C86.6307 26.9644 88.1322 28.4635 88.1322 30.3064C88.1322 31.9659 86.8889 33.3772 85.2631 33.6111V41.2873C85.2631 41.5508 85.0489 41.7647 84.7849 41.7647ZM84.7849 27.9192C83.4661 27.9192 82.394 28.9896 82.394 30.3064C82.394 31.6231 83.4661 32.6935 84.7849 32.6935C86.1028 32.6935 87.1758 31.6231 87.1758 30.3064C87.1758 28.9896 86.1037 27.9192 84.7849 27.9192Z" fill="white"/>
<path fill-rule="evenodd" clip-rule="evenodd" d="M75.3991 19.9486C75.5838 19.7857 75.8658 19.803 76.029 19.9874L94.2 40.517C94.3632 40.7014 94.3458 40.983 94.1611 41.1459C93.9764 41.3089 93.6943 41.2915 93.5311 41.1071L84.4456 30.8424L75.3602 20.5776C75.1969 20.3932 75.2144 20.1116 75.3991 19.9486Z" fill="white"/>
</g>
<defs>
<clipPath id="clip0_4274_3820">
<rect width="22.9528" height="22.9167" fill="white" transform="translate(73.3035 18.8501)"/>
</clipPath>
</defs>
</svg>
