<svg width="114" height="80" viewBox="0 0 114 80" fill="none" xmlns="http://www.w3.org/2000/svg">
<rect x="0.906737" y="0.156249" width="93.4368" height="60.937" rx="7.34369" fill="#666666" stroke="#E0E0E0" stroke-width="0.312498"/>
<path d="M86.6874 61.2495L51.1175 26.5333C49.1752 24.6376 46.0752 24.6376 44.1329 26.5333L8.56297 61.2495" stroke="#E0E0E0" stroke-width="0.312498"/>
<path d="M44.242 34.6044L8.94678 0.156249H86.3036L51.0084 34.6044C49.1267 36.4409 46.1236 36.4409 44.242 34.6044Z" fill="#333333" stroke="#E0E0E0" stroke-width="0.312498"/>
<path d="M113.25 61.2499C113.25 71.6053 104.855 80.0001 94.4997 80.0001C84.1445 80.0001 75.7499 71.6053 75.7499 61.2499C75.7499 50.8945 84.1445 42.4998 94.4997 42.4998C104.855 42.4998 113.25 50.8945 113.25 61.2499Z" fill="#FFAA4C"/>
<g clip-path="url(#clip0_3557_17808)">
<path d="M101.963 69.547C101.902 69.547 101.841 69.5241 101.794 69.4773L101.456 69.1402C101.411 69.0954 101.387 69.0352 101.387 68.9712C101.387 68.9073 101.411 68.8471 101.456 68.8022C103.441 66.818 104.533 64.1797 104.533 61.3743C104.533 58.5689 103.44 55.9306 101.456 53.9473C101.27 53.7611 101.27 53.4584 101.456 53.2722C101.546 53.1825 101.666 53.1328 101.794 53.1328C101.922 53.1328 102.042 53.1825 102.132 53.2722C104.297 55.436 105.489 58.3139 105.489 61.3743C105.489 64.4346 104.297 67.3126 102.132 69.4764C102.085 69.5241 102.024 69.547 101.963 69.547Z" fill="#1A1A1A"/>
<path d="M99.0907 66.9152C98.9628 66.9152 98.8434 66.8655 98.7527 66.7758C98.662 66.686 98.6133 66.5657 98.6133 66.4377C98.6133 66.3098 98.6629 66.1904 98.7527 66.0997C100.015 64.8374 100.71 63.1587 100.71 61.3731C100.71 59.5875 100.015 57.9088 98.7527 56.6465C98.6629 56.5568 98.6133 56.4364 98.6133 56.3085C98.6133 56.1805 98.6629 56.0612 98.7527 55.9705C98.8424 55.8798 98.9628 55.8311 99.0907 55.8311C99.2187 55.8311 99.338 55.8807 99.4287 55.9705C100.872 57.4133 101.666 59.3316 101.666 61.3722C101.666 63.4127 100.872 65.331 99.4287 66.7739C99.338 66.8655 99.2177 66.9152 99.0907 66.9152Z" fill="#1A1A1A"/>
<path d="M87.2184 69.6177C87.079 69.6177 86.9482 69.5575 86.8565 69.4525C84.7128 67.3097 83.5269 64.4356 83.5288 61.3733C83.5307 58.3101 84.7214 55.4331 86.8814 53.2732C86.9711 53.1825 87.0914 53.1328 87.2184 53.1328C87.3454 53.1328 87.4657 53.1825 87.5564 53.2722C87.7426 53.4584 87.7426 53.7611 87.5564 53.9473C85.5722 55.9315 84.4799 58.5689 84.4799 61.3743C84.4799 64.1778 85.5713 66.8142 87.5526 68.7974C87.6424 68.8834 87.6968 69.0094 87.6968 69.1393C87.6959 69.4038 87.482 69.6177 87.2184 69.6177Z" fill="#1A1A1A"/>
<path d="M89.922 66.9155C89.7941 66.9155 89.6747 66.8658 89.584 66.7761C88.1431 65.3352 87.3506 63.4168 87.3506 61.3744C87.3506 59.3319 88.1441 57.4136 89.585 55.9727C89.6747 55.8829 89.795 55.8333 89.923 55.8333C90.051 55.8333 90.1124 55.9067 90.2031 55.9974C90.2938 56.0881 90.3995 56.1827 90.3995 56.3107C90.3995 56.4386 90.3498 56.557 90.2601 56.6478C88.9977 57.9101 88.3026 59.5888 88.3026 61.3744C88.3026 63.16 88.9977 64.8386 90.2601 66.101C90.3498 66.1907 90.3995 66.311 90.3995 66.439C90.3995 66.5669 90.3498 66.6863 90.2601 66.777C90.1703 66.8677 90.049 66.9155 89.922 66.9155Z" fill="#1A1A1A"/>
<path d="M94.5054 72.7057C94.2418 72.7057 94.0279 72.4919 94.0279 72.2283V64.5521C92.4047 64.3182 91.1633 62.9069 91.1633 61.2473C91.1633 59.4044 92.6625 57.9053 94.5054 57.9053C96.3483 57.9053 97.8474 59.4044 97.8474 61.2473C97.8474 62.9069 96.6061 64.3182 94.9828 64.5521V72.2283C94.9828 72.4919 94.7689 72.7057 94.5054 72.7057ZM94.5054 58.8601C93.1886 58.8601 92.1182 59.9306 92.1182 61.2473C92.1182 62.5641 93.1886 63.6345 94.5054 63.6345C95.8212 63.6345 96.8925 62.5641 96.8925 61.2473C96.8925 59.9306 95.8221 58.8601 94.5054 58.8601Z" fill="#1A1A1A"/>
<path fill-rule="evenodd" clip-rule="evenodd" d="M85.1342 50.889C85.3186 50.7261 85.6002 50.7435 85.7632 50.9279L103.906 71.4576C104.069 71.642 104.051 71.9236 103.867 72.0866C103.682 72.2495 103.401 72.2321 103.238 72.0477L94.1666 61.7829L85.0953 51.518C84.9324 51.3336 84.9498 51.052 85.1342 50.889Z" fill="#1A1A1A"/>
</g>
<defs>
<clipPath id="clip0_3557_17808">
<rect width="22.9168" height="22.9169" fill="white" transform="translate(83.0419 49.7908)"/>
</clipPath>
</defs>
</svg>
