<svg width="112" height="80" viewBox="0 0 112 80" fill="none" xmlns="http://www.w3.org/2000/svg">
<path d="M91.1014 0.338379H6.67131C3.1741 0.338379 0.33905 3.17343 0.33905 6.67064V57.3287C0.33905 60.8259 3.1741 63.661 6.67131 63.661H91.1014C94.5986 63.661 97.4337 60.8259 97.4337 57.3287V6.67064C97.4337 3.17343 94.5986 0.338379 91.1014 0.338379Z" fill="#333333"/>
<path fill-rule="evenodd" clip-rule="evenodd" d="M6.67127 0.676919C3.36112 0.676919 0.677713 3.36033 0.677713 6.67048V57.3285C0.677713 60.6387 3.36112 63.3221 6.67127 63.3221H91.1014C94.4116 63.3221 97.095 60.6387 97.095 57.3285V6.67048C97.095 3.36033 94.4116 0.676919 91.1014 0.676919H6.67127ZM0.000305176 6.67048C0.000305176 2.9862 2.987 -0.000488281 6.67127 -0.000488281H91.1014C94.7857 -0.000488281 97.7724 2.9862 97.7724 6.67048V57.3285C97.7724 61.0128 94.7857 63.9995 91.1014 63.9995H6.67127C2.987 63.9995 0.000305176 61.0128 0.000305176 57.3285V6.67048Z" fill="#666666"/>
<path d="M95.6639 2.51807L48.8869 40.4435L2.10983 2.51807" fill="#333333"/>
<path fill-rule="evenodd" clip-rule="evenodd" d="M1.84671 2.3046C1.96452 2.1593 2.17781 2.13701 2.32311 2.25482L48.8868 40.0073L95.4505 2.25482C95.5958 2.13701 95.8091 2.1593 95.9269 2.3046C96.0448 2.44991 96.0225 2.6632 95.8772 2.78101L49.1001 40.7065C48.9758 40.8073 48.7979 40.8073 48.6735 40.7065L1.89649 2.78101C1.75119 2.6632 1.7289 2.44991 1.84671 2.3046Z" fill="#666666"/>
<path fill-rule="evenodd" clip-rule="evenodd" d="M38.9384 32.0607C39.055 32.207 39.0309 32.4201 38.8846 32.5367L2.32091 61.6787C2.17463 61.7953 1.96153 61.7712 1.84494 61.6249C1.72835 61.4787 1.75242 61.2656 1.8987 61.149L38.4624 32.007C38.6087 31.8904 38.8218 31.9144 38.9384 32.0607Z" fill="#666666"/>
<path fill-rule="evenodd" clip-rule="evenodd" d="M58.8359 32.0607C58.9525 31.9144 59.1656 31.8904 59.3118 32.007L95.8755 61.149C96.0218 61.2656 96.0459 61.4787 95.9293 61.6249C95.8127 61.7712 95.5996 61.7953 95.4533 61.6787L58.8896 32.5367C58.7434 32.4201 58.7193 32.207 58.8359 32.0607Z" fill="#666666"/>
<path d="M112 59.9998C112 71.0455 103.046 79.9998 92 79.9998C80.9545 79.9998 72.0003 71.0455 72.0003 59.9998C72.0003 48.9541 80.9545 39.9998 92 39.9998C103.046 39.9998 112 48.9541 112 59.9998Z" fill="#FFAA4C"/>
<g clip-path="url(#clip0_1245_12444)">
<path d="M99.8163 68.6898C99.7523 68.6898 99.6883 68.6658 99.6393 68.6168L99.2853 68.2638C99.2383 68.2168 99.2123 68.1538 99.2123 68.0868C99.2123 68.0198 99.2383 67.9568 99.2853 67.9098C101.363 65.8318 102.507 63.0688 102.507 60.1308C102.507 57.1928 101.362 54.4298 99.2853 52.3528C99.0903 52.1578 99.0903 51.8408 99.2853 51.6458C99.3793 51.5518 99.5053 51.4998 99.6393 51.4998C99.7733 51.4998 99.8983 51.5518 99.9933 51.6458C102.26 53.9118 103.508 56.9258 103.508 60.1308C103.508 63.3358 102.26 66.3498 99.9933 68.6158C99.9433 68.6658 99.8803 68.6898 99.8163 68.6898Z" fill="#1A1A1A"/>
<path d="M96.8073 65.9337C96.6733 65.9337 96.5483 65.8817 96.4533 65.7877C96.3583 65.6937 96.3073 65.5677 96.3073 65.4337C96.3073 65.2997 96.3593 65.1747 96.4533 65.0797C97.7753 63.7577 98.5033 61.9997 98.5033 60.1297C98.5033 58.2597 97.7753 56.5017 96.4533 55.1797C96.3593 55.0857 96.3073 54.9597 96.3073 54.8257C96.3073 54.6917 96.3593 54.5667 96.4533 54.4717C96.5473 54.3767 96.6733 54.3257 96.8073 54.3257C96.9413 54.3257 97.0663 54.3777 97.1613 54.4717C98.6723 55.9827 99.5043 57.9917 99.5043 60.1287C99.5043 62.2657 98.6723 64.2747 97.1613 65.7857C97.0663 65.8817 96.9403 65.9337 96.8073 65.9337Z" fill="#1A1A1A"/>
<path d="M84.3743 68.7637C84.2283 68.7637 84.0913 68.7007 83.9953 68.5907C81.7503 66.3467 80.5083 63.3367 80.5103 60.1298C80.5123 56.9218 81.7593 53.9088 84.0213 51.6468C84.1153 51.5518 84.2413 51.4998 84.3743 51.4998C84.5073 51.4998 84.6333 51.5518 84.7283 51.6458C84.9233 51.8408 84.9233 52.1578 84.7283 52.3528C82.6503 54.4308 81.5063 57.1928 81.5063 60.1307C81.5063 63.0667 82.6493 65.8277 84.7243 67.9047C84.8183 67.9947 84.8753 68.1267 84.8753 68.2627C84.8743 68.5397 84.6503 68.7637 84.3743 68.7637Z" fill="#1A1A1A"/>
<path d="M87.2063 65.9336C87.0723 65.9336 86.9473 65.8816 86.8523 65.7876C85.3433 64.2786 84.5133 62.2696 84.5133 60.1306C84.5133 57.9916 85.3443 55.9826 86.8533 54.4736C86.9473 54.3796 87.0733 54.3276 87.2073 54.3276C87.3413 54.3276 87.4056 54.4045 87.5006 54.4995C87.5956 54.5945 87.7063 54.6936 87.7063 54.8276C87.7063 54.9616 87.6543 55.0856 87.5603 55.1806C86.2383 56.5026 85.5103 58.2606 85.5103 60.1306C85.5103 62.0006 86.2383 63.7586 87.5603 65.0806C87.6543 65.1746 87.7063 65.3006 87.7063 65.4346C87.7063 65.5686 87.6543 65.6936 87.5603 65.7886C87.4663 65.8836 87.3393 65.9336 87.2063 65.9336Z" fill="#1A1A1A"/>
<path d="M92.0063 71.9978C91.7303 71.9978 91.5063 71.7738 91.5063 71.4978V63.4588C89.8063 63.2138 88.5063 61.7358 88.5063 59.9978C88.5063 58.0678 90.0763 56.4978 92.0063 56.4978C93.9363 56.4978 95.5063 58.0678 95.5063 59.9978C95.5063 61.7358 94.2063 63.2138 92.5063 63.4588V71.4978C92.5063 71.7738 92.2823 71.9978 92.0063 71.9978ZM92.0063 57.4978C90.6273 57.4978 89.5063 58.6188 89.5063 59.9978C89.5063 61.3768 90.6273 62.4978 92.0063 62.4978C93.3843 62.4978 94.5063 61.3768 94.5063 59.9978C94.5063 58.6188 93.3853 57.4978 92.0063 57.4978Z" fill="#1A1A1A"/>
<path fill-rule="evenodd" clip-rule="evenodd" d="M82.1912 49.1502C82.3844 48.9795 82.6793 48.9977 82.85 49.1908L101.85 70.6909C102.021 70.884 102.002 71.1789 101.809 71.3496C101.616 71.5202 101.321 71.502 101.151 71.3089L91.6506 60.5589L82.1506 49.8089C81.9799 49.6158 81.9981 49.3209 82.1912 49.1502Z" fill="#1A1A1A"/>
</g>
<defs>
<clipPath id="clip0_1245_12444">
<rect width="24" height="24" fill="white" transform="translate(80.0003 47.9998)"/>
</clipPath>
</defs>
</svg>
