<svg width="24" height="24" viewBox="0 0 24 24" fill="none" xmlns="http://www.w3.org/2000/svg">
<path d="M8.5 12C7.121 12 6 10.879 6 9.5C6 8.121 7.121 7 8.5 7C9.879 7 11 8.121 11 9.5C11 10.879 9.879 12 8.5 12ZM8.5 8C7.673 8 7 8.673 7 9.5C7 10.327 7.673 11 8.5 11C9.327 11 10 10.327 10 9.5C10 8.673 9.327 8 8.5 8Z" fill="#00BCD4"/>
<path d="M5.49966 19.9998C5.31766 19.9998 5.15067 19.9008 5.06267 19.7418C4.97467 19.5838 4.97967 19.3888 5.07567 19.2348L8.08966 14.4128C8.16966 14.2858 8.27866 14.1758 8.40766 14.0948C8.56766 13.9948 8.75066 13.9428 8.93766 13.9428C9.01266 13.9428 9.08867 13.9518 9.16266 13.9688C9.42367 14.0288 9.64466 14.1868 9.78666 14.4128L10.4377 15.4558L12.6527 11.9128C12.7327 11.7848 12.8427 11.6738 12.9707 11.5948C13.1297 11.4958 13.3127 11.4438 13.4987 11.4438C13.8467 11.4438 14.1637 11.6198 14.3477 11.9138L18.9237 19.2358C19.0197 19.3898 19.0257 19.5838 18.9377 19.7428C18.8487 19.9008 18.6817 19.9998 18.4997 19.9998H5.49966ZM17.5977 18.9998L13.4997 12.4428L10.8607 16.6648C10.7687 16.8118 10.6097 16.8998 10.4367 16.8998C10.2627 16.8998 10.1047 16.8118 10.0127 16.6648L8.93766 14.9438L6.40166 18.9998H17.5977Z" fill="#00BCD4"/>
<path d="M3.5 24C2.673 24 2 23.327 2 22.5V1.5C2 0.673 2.673 0 3.5 0H16.793C17.194 0 17.57 0.156 17.854 0.439L21.561 4.146C21.844 4.43 22 4.807 22 5.207V22.5C22 23.327 21.327 24 20.5 24H3.5ZM3.5 1C3.224 1 3 1.224 3 1.5V22.5C3 22.776 3.224 23 3.5 23H20.5C20.776 23 21 22.776 21 22.5V5.207C21 5.074 20.948 4.948 20.854 4.853L17.147 1.146C17.053 1.053 16.925 1 16.793 1H3.5Z" fill="#00BCD4"/>
</svg>
