<?xml version="1.0" encoding="UTF-8" standalone="no"?>
<!DOCTYPE svg PUBLIC "-//W3C//DTD SVG 1.1//EN" "http://www.w3.org/Graphics/SVG/1.1/DTD/svg11.dtd">
<!-- Created with Vectornator (http://vectornator.io/) -->
<svg height="100%" stroke-miterlimit="10" style="fill-rule:nonzero;clip-rule:evenodd;stroke-linecap:round;stroke-linejoin:round;" version="1.1" viewBox="0 0 24 24" width="100%" xml:space="preserve" xmlns="http://www.w3.org/2000/svg" xmlns:xlink="http://www.w3.org/1999/xlink">
<defs/>
<g id="Sans-titre">
<g opacity="1">
<clipPath clip-rule="nonzero" id="ClipPath">
<path d="M0 0L24 0L24 0L24 24L24 24L0 24L0 24L0 0L0 0Z"/>
</clipPath>
<g clip-path="url(#ClipPath)">
<path d="M11.322 0.00686304C10.2546 0.099653 9.25146 0.45697 8.37772 1.05557C7.3732 1.74377 6.6506 2.63962 6.26616 3.67338C6.05742 4.2347 5.98188 4.66478 5.98166 5.29308C5.98132 6.23222 6.15902 7.0014 6.56748 7.82854C7.08762 8.88186 7.83486 9.72856 9.05326 10.6452C9.43092 10.9293 10.2289 11.4591 10.7044 11.7415L11.0263 11.9327L5.80814 11.9455L0.590004 11.9582L0.445696 12.0291C0.161106 12.1688 0.00644734 12.4173 0.00586102 12.7357C0.00524922 13.063 0.175101 13.3295 0.475292 13.4721L0.615496 13.5387L7.24334 13.5514L13.8712 13.5642L14.2026 13.766C16.4313 15.123 17.5367 16.3737 17.8369 17.8783C17.9066 18.2272 17.9315 18.8737 17.8873 19.1829C17.7293 20.2858 17.1556 21.1944 16.2327 21.803C15.8779 22.0372 15.4454 22.215 14.9648 22.3246L14.7124 22.382L10.6337 22.396L6.55506 22.4098L6.43492 22.4712C6.2869 22.5468 6.12106 22.7076 6.05114 22.8432C5.97724 22.9864 5.96118 23.2914 6.01844 23.4638C6.07584 23.6366 6.25192 23.829 6.43518 23.919L6.58056 23.9902L10.4298 23.9982C13.063 24.0036 14.3928 23.9972 14.639 23.978C17.4813 23.7566 19.6212 21.3482 19.509 18.4968C19.4434 16.8295 18.7799 15.4654 17.3883 14.1374C17.2485 14.004 17.0387 13.8179 16.9221 13.7238L16.71 13.5527L20.0448 13.5457L23.3796 13.5387L23.5198 13.4721C23.6986 13.3871 23.8406 13.2449 23.924 13.0671C24.0184 12.8658 24.016 12.5959 23.918 12.3956C23.8322 12.2203 23.6618 12.0661 23.478 11.9973C23.3406 11.9459 23.3018 11.9455 18.8052 11.9455L14.2709 11.9455L13.8799 11.7204C13.6648 11.5966 13.1389 11.2966 12.7113 11.0538C11.6613 10.4574 11.1261 10.1342 10.5955 9.77592C9.25734 8.87242 8.47548 8.07964 8.02138 7.16576C7.75938 6.63854 7.63776 6.20968 7.58746 5.63584C7.51478 4.80706 7.72944 4.05936 8.2387 3.36748C8.78174 2.62966 9.65728 2.03044 10.5852 1.76151C11.1307 1.60341 10.8634 1.6132 15.0693 1.59747L18.9186 1.58307L19.0401 1.52693C19.2108 1.44811 19.3999 1.24576 19.4647 1.07257C19.6082 0.688996 19.4345 0.255942 19.0642 0.0741102L18.9186 0.00258046L15.1713 0.000286218C13.1103-0.000962876 11.3781 0.00199413 11.322 0.00686304Z" fill="#666666" fill-rule="evenodd" opacity="1" stroke="none"/>
</g>
</g>
</g>
</svg>
