<svg width="12" height="12" viewBox="0 0 12 12" fill="none" xmlns="http://www.w3.org/2000/svg">
<g clip-path="url(#clip0_30_3368)">
<path fill-rule="evenodd" clip-rule="evenodd" d="M5.66101 0.00343152C5.12731 0.0498265 4.62573 0.228485 4.18886 0.527784C3.6866 0.871884 3.3253 1.31981 3.13308 1.83669C3.02871 2.11735 2.99094 2.33239 2.99083 2.64654C2.99066 3.11611 3.07951 3.5007 3.28374 3.91427C3.54381 4.44093 3.91743 4.86428 4.52663 5.32259C4.71546 5.46465 5.11443 5.72957 5.35218 5.87076L5.51314 5.96635L2.90407 5.97273L0.295002 5.9791L0.222848 6.01453C0.0805528 6.0844 0.00322367 6.20865 0.00293051 6.36785C0.00262461 6.53152 0.0875503 6.66474 0.237646 6.73604L0.307748 6.76934L3.62167 6.77571L6.93559 6.78209L7.10129 6.88298C8.21566 7.56151 8.76834 8.18687 8.91847 8.93913C8.9533 9.11362 8.96577 9.43686 8.94363 9.59145C8.86467 10.1429 8.57782 10.5972 8.11637 10.9015C7.93897 11.0186 7.72268 11.1075 7.48238 11.1623L7.35621 11.191L5.31687 11.198L3.27753 11.2049L3.21746 11.2356C3.14345 11.2734 3.06053 11.3538 3.02557 11.4216C2.98862 11.4932 2.98059 11.6457 3.00922 11.7319C3.03792 11.8183 3.12596 11.9145 3.21759 11.9595L3.29028 11.9951L5.2149 11.9991C6.53149 12.0018 7.19638 11.9986 7.31948 11.989C8.74063 11.8783 9.8106 10.6741 9.75451 9.24841C9.72171 8.41474 9.38993 7.73272 8.69413 7.06869C8.62424 7.00199 8.51936 6.90893 8.46103 6.86189L8.355 6.77635L10.0224 6.77285L11.6898 6.76934L11.7599 6.73604C11.8493 6.69355 11.9203 6.62247 11.962 6.53354C12.0092 6.43289 12.008 6.29795 11.959 6.1978C11.9161 6.11015 11.8309 6.03305 11.739 5.99864C11.6703 5.97294 11.6509 5.97273 9.40258 5.97273H7.13545L6.93993 5.86019C6.83239 5.7983 6.56947 5.64831 6.35566 5.52688C5.83064 5.2287 5.56307 5.06711 5.29775 4.88796C4.62867 4.43621 4.23774 4.03982 4.01069 3.58288C3.87969 3.31927 3.81888 3.10484 3.79373 2.81792C3.75739 2.40353 3.86472 2.02968 4.11935 1.68374C4.39087 1.31483 4.82864 1.01522 5.29262 0.880755C5.56534 0.801705 5.43169 0.806599 7.53465 0.798735L9.45928 0.791534L9.52005 0.763467C9.60539 0.724057 9.69994 0.62288 9.73234 0.536285C9.8041 0.344498 9.71725 0.127971 9.5321 0.0370551L9.45928 0.00129023L7.58563 0.000143109C6.55513 -0.000481438 5.68905 0.000997065 5.66101 0.00343152Z" fill="#666666"/>
</g>
<defs>
<clipPath id="clip0_30_3368">
<rect width="12" height="12" fill="white"/>
</clipPath>
</defs>
</svg>
