<svg width="24" height="24" viewBox="0 0 24 24" fill="none" xmlns="http://www.w3.org/2000/svg">
<path fill-rule="evenodd" clip-rule="evenodd" d="M12 24C18.6274 24 24 18.6274 24 12C24 5.37258 18.6274 0 12 0C5.37258 0 0 5.37258 0 12C0.00747569 18.6243 5.37568 23.9925 12 24ZM6.83478 9.04904C6.63884 8.85332 6.52874 8.58773 6.52874 8.31078C6.52874 8.03383 6.63884 7.76824 6.83478 7.57252L7.57252 6.83478C7.76824 6.63884 8.03383 6.52874 8.31078 6.52874C8.58773 6.52874 8.85332 6.63884 9.04904 6.83478L11.8153 9.6C11.8642 9.64907 11.9307 9.67664 12 9.67664C12.0693 9.67664 12.1358 9.64907 12.1847 9.6L14.951 6.83478C15.1467 6.63884 15.4123 6.52874 15.6892 6.52874C15.9662 6.52874 16.2318 6.63884 16.4275 6.83478L17.1652 7.57252C17.3612 7.76824 17.4713 8.03383 17.4713 8.31078C17.4713 8.58773 17.3612 8.85332 17.1652 9.04904L14.4 11.8153C14.3509 11.8642 14.3234 11.9307 14.3234 12C14.3234 12.0693 14.3509 12.1358 14.4 12.1847L17.1673 14.951C17.3632 15.1467 17.4733 15.4123 17.4733 15.6892C17.4733 15.9662 17.3632 16.2318 17.1673 16.4275L16.4296 17.1652C16.2338 17.3612 15.9683 17.4713 15.6913 17.4713C15.4144 17.4713 15.1488 17.3612 14.953 17.1652L12.1847 14.4C12.0823 14.299 11.9177 14.299 11.8153 14.4L9.04904 17.1652C8.85332 17.3612 8.58773 17.4713 8.31078 17.4713C8.03383 17.4713 7.76824 17.3612 7.57252 17.1652L6.83478 16.4275C6.63884 16.2318 6.52874 15.9662 6.52874 15.6892C6.52874 15.4123 6.63884 15.1467 6.83478 14.951L9.6 12.1847C9.64907 12.1358 9.67664 12.0693 9.67664 12C9.67664 11.9307 9.64907 11.8642 9.6 11.8153L6.83478 9.04904Z" fill="#333333"/>
<mask id="mask0_3897_51065" style="mask-type:alpha" maskUnits="userSpaceOnUse" x="0" y="0" width="24" height="24">
<path fill-rule="evenodd" clip-rule="evenodd" d="M12 24C18.6274 24 24 18.6274 24 12C24 5.37258 18.6274 0 12 0C5.37258 0 0 5.37258 0 12C0.00747569 18.6243 5.37568 23.9925 12 24ZM6.83478 9.04904C6.63884 8.85332 6.52874 8.58773 6.52874 8.31078C6.52874 8.03383 6.63884 7.76824 6.83478 7.57252L7.57252 6.83478C7.76824 6.63884 8.03383 6.52874 8.31078 6.52874C8.58773 6.52874 8.85332 6.63884 9.04904 6.83478L11.8153 9.6C11.8642 9.64907 11.9307 9.67664 12 9.67664C12.0693 9.67664 12.1358 9.64907 12.1847 9.6L14.951 6.83478C15.1467 6.63884 15.4123 6.52874 15.6892 6.52874C15.9662 6.52874 16.2318 6.63884 16.4275 6.83478L17.1652 7.57252C17.3612 7.76824 17.4713 8.03383 17.4713 8.31078C17.4713 8.58773 17.3612 8.85332 17.1652 9.04904L14.4 11.8153C14.3509 11.8642 14.3234 11.9307 14.3234 12C14.3234 12.0693 14.3509 12.1358 14.4 12.1847L17.1673 14.951C17.3632 15.1467 17.4733 15.4123 17.4733 15.6892C17.4733 15.9662 17.3632 16.2318 17.1673 16.4275L16.4296 17.1652C16.2338 17.3612 15.9683 17.4713 15.6913 17.4713C15.4144 17.4713 15.1488 17.3612 14.953 17.1652L12.1847 14.4C12.0823 14.299 11.9177 14.299 11.8153 14.4L9.04904 17.1652C8.85332 17.3612 8.58773 17.4713 8.31078 17.4713C8.03383 17.4713 7.76824 17.3612 7.57252 17.1652L6.83478 16.4275C6.63884 16.2318 6.52874 15.9662 6.52874 15.6892C6.52874 15.4123 6.63884 15.1467 6.83478 14.951L9.6 12.1847C9.64907 12.1358 9.67664 12.0693 9.67664 12C9.67664 11.9307 9.64907 11.8642 9.6 11.8153L6.83478 9.04904Z" fill="white"/>
</mask>
<g mask="url(#mask0_3897_51065)">
</g>
</svg>
