<svg width="24" height="24" viewBox="0 0 24 24" fill="none" xmlns="http://www.w3.org/2000/svg">
<g clip-path="url(#clip0_4954_34386)">
<path d="M12.0045 0C11.7856 0 11.5719 0.0661641 11.3919 0.189664C11.2119 0.313164 11.074 0.488088 10.997 0.691171L8.39358 8.00012H1.07935C0.859316 8.00011 0.644571 8.06692 0.464035 8.19156C0.283486 8.31621 0.145822 8.4927 0.0695899 8.69725C-0.00664265 8.90181 -0.0177819 9.1246 0.0376729 9.33562C0.0931277 9.54665 0.212471 9.7358 0.379702 9.87753L6.53285 14.9321L5.38259 18.3564L7.20523 16.3077L7.67042 14.9228C7.74053 14.7141 7.67414 14.4841 7.50324 14.3437L1.0794 9.0668H8.77435C9.00252 9.0668 9.2059 8.92421 9.28184 8.71098L12.0045 1.06702L14.5075 8.09963L15.3227 7.18327L13.0159 0.701508L13.012 0.69121C12.935 0.48813 12.7972 0.313166 12.6172 0.189664C12.4372 0.0661641 12.2235 0 12.0045 0Z" fill="#BC0055"/>
<path d="M15.9493 8.00012H17.3026L16.3536 9.0668H15.2326C15.1631 9.0668 15.0959 9.05357 15.0339 9.02913L15.9493 8.00012Z" fill="#BC0055"/>
<path d="M6.38427 18.7516L4.56164 20.8003L3.95821 22.5967L3.95711 22.6C3.90894 22.7466 3.89367 22.9009 3.9113 23.0525L5.56332 21.1955L6.38427 18.7516Z" fill="#BC0055"/>
<path d="M6.09165 22.1228L4.51688 23.8929C4.65949 23.9604 4.81613 23.9962 4.97579 23.9969C5.20263 23.9979 5.42401 23.9279 5.60828 23.7968L12.0034 19.1492L18.3912 23.7938C18.5754 23.9275 18.7976 23.9997 19.0259 24C19.2542 24.0003 19.4767 23.9287 19.6612 23.7954C19.8457 23.6622 19.9827 23.4743 20.0524 23.2589C20.1221 23.0434 20.1207 22.8114 20.0487 22.5967L17.4741 14.9321L23.6199 9.88277L23.6261 9.87748C23.7933 9.73575 23.9127 9.54664 23.9682 9.33562C24.0236 9.1246 24.0125 8.90181 23.9363 8.69725C23.86 8.4927 23.7224 8.31621 23.5418 8.19156C23.3613 8.06692 23.1465 8.00011 22.9265 8.00012H18.6559L17.7069 9.0668H22.9265L16.5037 14.3438C16.3328 14.4842 16.2664 14.7141 16.3365 14.9228L19.0274 22.9333L12.3218 18.0577C12.1324 17.92 11.8747 17.92 11.6852 18.0577L6.09165 22.1228Z" fill="#BC0055"/>
<path fill-rule="evenodd" clip-rule="evenodd" d="M2.86673 23.4659C2.66026 23.2779 2.64353 22.9562 2.82934 22.7474L20.2625 3.15187C20.4483 2.943 20.7663 2.92607 20.9728 3.11405C21.1792 3.30203 21.196 3.62374 21.0102 3.8326L3.57702 23.4281C3.3912 23.637 3.07319 23.6539 2.86673 23.4659Z" fill="#BC0055"/>
</g>
<defs>
<clipPath id="clip0_4954_34386">
<rect width="24" height="24" fill="white"/>
</clipPath>
</defs>
</svg>
