<svg width="24" height="24" viewBox="0 0 24 24" fill="none" xmlns="http://www.w3.org/2000/svg">
<g clip-path="url(#clip0_571_4082)">
<path d="M12.0043 0C11.7854 0 11.5716 0.0661641 11.3916 0.189664C11.2116 0.313164 11.0738 0.488088 10.9967 0.691171L8.39334 8.00012H1.0791C0.859072 8.00011 0.644327 8.06693 0.463791 8.19156C0.283242 8.31621 0.145578 8.4927 0.0693458 8.69725C-0.00688679 8.90181 -0.018026 9.1246 0.0374287 9.33562C0.0928835 9.54665 0.212227 9.7358 0.379458 9.87753L6.53261 14.9321L5.38235 18.3564L7.20498 16.3077L7.67018 14.9228C7.74029 14.7141 7.6739 14.4841 7.503 14.3437L1.07916 9.0668H8.7741C9.00228 9.0668 9.20565 8.92421 9.2816 8.71098L12.0043 1.06702L14.5073 8.09963L15.3225 7.18327L13.0157 0.701508L13.0118 0.69121C12.9347 0.48813 12.797 0.313166 12.617 0.189664C12.437 0.0661641 12.2232 0 12.0043 0Z" fill="white"/>
<path d="M15.9491 8.00012H17.3024L16.3534 9.0668H15.2323C15.1628 9.0668 15.0956 9.05357 15.0336 9.02913L15.9491 8.00012Z" fill="white"/>
<path d="M6.38403 18.7516L4.5614 20.8003L3.95797 22.5967L3.95686 22.6C3.9087 22.7466 3.89342 22.9009 3.91105 23.0525L5.56307 21.1955L6.38403 18.7516Z" fill="white"/>
<path d="M6.0914 22.1228L4.51664 23.8929C4.65925 23.9604 4.81588 23.9962 4.97555 23.9969C5.20239 23.9979 5.42376 23.9279 5.60804 23.7968L12.0031 19.1492L18.391 23.7938C18.5751 23.9275 18.7974 23.9997 19.0257 24C19.254 24.0003 19.4764 23.9287 19.6609 23.7955C19.8455 23.6622 19.9825 23.4743 20.0521 23.2589C20.1218 23.0434 20.1205 22.8114 20.0485 22.5967L17.4738 14.9321L23.6196 9.88277L23.6259 9.87748C23.7931 9.73575 23.9125 9.54665 23.9679 9.33562C24.0234 9.1246 24.0123 8.90181 23.936 8.69725C23.8598 8.4927 23.7221 8.31621 23.5416 8.19156C23.361 8.06693 23.1463 8.00011 22.9262 8.00012H18.6557L17.7067 9.0668H22.9262L16.5034 14.3438C16.3325 14.4842 16.2662 14.7141 16.3363 14.9228L19.0271 22.9333L12.3216 18.0577C12.1321 17.92 11.8744 17.92 11.685 18.0577L6.0914 22.1228Z" fill="white"/>
<path fill-rule="evenodd" clip-rule="evenodd" d="M2.86648 23.4659C2.66002 23.2779 2.64328 22.9562 2.8291 22.7474L20.2622 3.15187C20.4481 2.943 20.7661 2.92607 20.9725 3.11405C21.179 3.30203 21.1957 3.62374 21.0099 3.8326L3.57677 23.4281C3.39096 23.637 3.07295 23.6539 2.86648 23.4659Z" fill="white"/>
</g>
<defs>
<clipPath id="clip0_571_4082">
<rect width="24" height="24" fill="white"/>
</clipPath>
</defs>
</svg>
