<svg width="25" height="24" viewBox="0 0 25 24" fill="none" xmlns="http://www.w3.org/2000/svg">
<g clip-path="url(#clip0_677_4051)">
<path d="M13.0016 0C12.7827 0 12.5689 0.0661641 12.3889 0.189664C12.2089 0.313164 12.0711 0.488088 11.994 0.691171L9.39065 8.00012H2.07642C1.85639 8.00011 1.64164 8.06693 1.46111 8.19156C1.28056 8.31621 1.14289 8.4927 1.06666 8.69725C0.990428 8.90181 0.979288 9.1246 1.03474 9.33562C1.0902 9.54665 1.20954 9.7358 1.37677 9.87753L7.52992 14.9321L6.37966 18.3564L8.2023 16.3077L8.66749 14.9228C8.7376 14.7141 8.67121 14.4841 8.50031 14.3437L2.07647 9.0668H9.77142C9.99959 9.0668 10.203 8.92421 10.2789 8.71098L13.0016 1.06702L15.5046 8.09963L16.3198 7.18327L14.013 0.701508L14.0091 0.69121C13.932 0.48813 13.7943 0.313166 13.6143 0.189664C13.4343 0.0661641 13.2206 0 13.0016 0Z" fill="black"/>
<path d="M16.9464 8.00012H18.2997L17.3507 9.0668H16.2297C16.1601 9.0668 16.0929 9.05357 16.0309 9.02913L16.9464 8.00012Z" fill="black"/>
<path d="M7.38134 18.7516L5.55871 20.8003L4.95528 22.5967L4.95418 22.6C4.90601 22.7466 4.89074 22.9009 4.90837 23.0525L6.56039 21.1955L7.38134 18.7516Z" fill="black"/>
<path d="M7.08872 22.1228L5.51395 23.8929C5.65656 23.9604 5.8132 23.9962 5.97286 23.9969C6.1997 23.9979 6.42108 23.9279 6.60535 23.7968L13.0005 19.1492L19.3883 23.7938C19.5724 23.9275 19.7947 23.9997 20.023 24C20.2513 24.0003 20.4737 23.9287 20.6583 23.7955C20.8428 23.6622 20.9798 23.4743 21.0494 23.2589C21.1191 23.0434 21.1178 22.8114 21.0458 22.5967L18.4711 14.9321L24.6169 9.88277L24.6232 9.87748C24.7904 9.73575 24.9098 9.54665 24.9653 9.33562C25.0207 9.1246 25.0096 8.90181 24.9333 8.69725C24.8571 8.4927 24.7194 8.31621 24.5389 8.19156C24.3584 8.06693 24.1436 8.00011 23.9235 8.00012H19.653L18.704 9.0668H23.9235L17.5007 14.3438C17.3299 14.4842 17.2635 14.7141 17.3336 14.9228L20.0244 22.9333L13.3189 18.0577C13.1295 17.92 12.8717 17.92 12.6823 18.0577L7.08872 22.1228Z" fill="black"/>
<path fill-rule="evenodd" clip-rule="evenodd" d="M3.8638 23.4659C3.65733 23.2779 3.6406 22.9562 3.82641 22.7474L21.2596 3.15187C21.4454 2.943 21.7634 2.92607 21.9698 3.11405C22.1763 3.30203 22.1931 3.62374 22.0072 3.8326L4.57409 23.4281C4.38827 23.637 4.07026 23.6539 3.8638 23.4659Z" fill="black"/>
</g>
<defs>
<clipPath id="clip0_677_4051">
<rect width="24" height="24" fill="white" transform="translate(0.997314)"/>
</clipPath>
</defs>
</svg>
