<svg width="24" height="24" viewBox="0 0 24 24" fill="none" xmlns="http://www.w3.org/2000/svg">
<g clip-path="url(#clip0_674_3947)">
<path d="M11.533 1.57095C11.5688 1.47575 11.6328 1.39374 11.7164 1.33585C11.8 1.27796 11.8993 1.24695 12.001 1.24695C12.1027 1.24695 12.202 1.27796 12.2856 1.33585C12.3692 1.39374 12.4332 1.47575 12.469 1.57095L15 8.74695H22.148C22.2502 8.74694 22.35 8.77826 22.4338 8.83669C22.5177 8.89511 22.5817 8.97784 22.6171 9.07373C22.6525 9.16961 22.6576 9.27404 22.6319 9.37296C22.6061 9.47187 22.5507 9.56052 22.473 9.62695L16.5 14.5789L19 22.0889C19.0334 22.1896 19.034 22.2982 19.0016 22.3992C18.9693 22.5002 18.9056 22.5883 18.8199 22.6507C18.7342 22.7132 18.6309 22.7468 18.5248 22.7466C18.4188 22.7465 18.3155 22.7126 18.23 22.6499L12 18.0789L5.76699 22.6499C5.68139 22.7114 5.57856 22.7442 5.47319 22.7438C5.36782 22.7433 5.26529 22.7095 5.18024 22.6473C5.09519 22.5851 5.03197 22.4976 4.9996 22.3974C4.96723 22.2971 4.96736 22.1891 4.99999 22.0889L7.49999 14.5789L1.52599 9.62695C1.44831 9.56052 1.39285 9.47187 1.36709 9.37296C1.34133 9.27404 1.34651 9.16961 1.38192 9.07373C1.41733 8.97784 1.48128 8.89511 1.56515 8.83669C1.64902 8.77826 1.74878 8.74694 1.85099 8.74695H8.99999L11.533 1.57095Z" stroke="#9F9F9F" stroke-linecap="round" stroke-linejoin="round"/>
<line x1="2.96284" y1="22.2939" x2="20.2939" y2="3.03716" stroke="#9F9F9F" stroke-linecap="round"/>
</g>
<defs>
<clipPath id="clip0_674_3947">
<rect width="24" height="24" fill="white"/>
</clipPath>
</defs>
</svg>
