<svg width="24" height="24" viewBox="0 0 24 24" fill="none" xmlns="http://www.w3.org/2000/svg">
<g clip-path="url(#clip0_5737_13625)">
<path d="M12.2545 1.25C12.2477 1.25 12.2414 1.25209 12.2366 1.25539C12.2325 1.25821 12.2298 1.26165 12.2282 1.26499L10.0116 7.48546L9.20977 6.75645L11.2925 0.911573C11.3667 0.716128 11.4991 0.548592 11.6711 0.430689C11.8429 0.312827 12.0465 0.25 12.2545 0.25C12.4626 0.25 12.6661 0.312827 12.838 0.430689C13.0099 0.548594 13.1422 0.716168 13.2164 0.911611L13.2201 0.921324L15.7756 8.09896H22.9746C23.1837 8.09895 23.3882 8.16239 23.5606 8.28135C23.7331 8.40035 23.8653 8.5694 23.9387 8.76627C24.0121 8.9632 24.0229 9.1779 23.9694 9.38123C23.916 9.58451 23.8011 9.76591 23.6412 9.90142L23.6354 9.90634L17.8762 14.636L17.1284 13.9561L22.9959 9.13745C22.9994 9.13413 23.0014 9.13039 23.0023 9.12696C23.0033 9.12325 23.0031 9.11937 23.0017 9.11561C23.0003 9.11179 22.9974 9.10768 22.9927 9.1044C22.9878 9.10106 22.9815 9.09896 22.9747 9.09896H15.4229C15.2114 9.09896 15.0228 8.9659 14.9519 8.76667L12.2808 1.26497C12.2792 1.26163 12.2765 1.25821 12.2724 1.25539C12.2676 1.25209 12.2613 1.25 12.2545 1.25Z" fill="#BC0055"/>
<path fill-rule="evenodd" clip-rule="evenodd" d="M23.4631 21.061L2.0357 1.57924C1.83217 1.45395 1.5531 1.47325 1.37285 1.63714C1.16853 1.8229 1.16853 2.12409 1.37285 2.30985L7.74013 8.09896H1.53121C1.32211 8.09895 1.11761 8.16239 0.945237 8.28135C0.77279 8.40035 0.640547 8.56939 0.567146 8.76627C0.493725 8.9632 0.482959 9.1779 0.536413 9.38123C0.589856 9.58451 0.704677 9.76596 0.864635 9.90146L6.91548 14.8699L4.38412 22.4025L4.38308 22.4056C4.31541 22.6114 4.31512 22.8334 4.38227 23.0394C4.44939 23.2454 4.58022 23.4242 4.75515 23.551C4.93001 23.6777 5.14023 23.746 5.3558 23.747C5.57136 23.748 5.78219 23.6815 5.95816 23.5563L12.2534 18.9832L18.5417 23.5535C18.7175 23.6811 18.9292 23.7497 19.1462 23.75C19.3631 23.7503 19.575 23.6823 19.7512 23.5551C19.9275 23.4279 20.0592 23.2478 20.1263 23.0404C20.1934 22.8329 20.1922 22.6092 20.1228 22.4025L18.6492 18.0174L22.6595 21.6636C22.8638 21.8493 23.1951 21.8493 23.3994 21.6636C23.5796 21.4997 23.6009 21.246 23.4631 21.061ZM19.1748 22.7208L17.1301 16.6362L8.84 9.09896H1.53121C1.52435 9.09896 1.51803 9.10106 1.51321 9.1044C1.50844 9.10769 1.50556 9.11179 1.50414 9.11561C1.50274 9.11937 1.50257 9.12325 1.50355 9.12696C1.50445 9.13039 1.50646 9.13412 1.50998 9.13744L7.81658 14.3159C7.97702 14.4476 8.03937 14.6648 7.97324 14.8616L5.33307 22.7179C5.33197 22.7216 5.33186 22.7259 5.33305 22.7296C5.33433 22.7335 5.33709 22.7377 5.34187 22.7412C5.34671 22.7447 5.35313 22.747 5.36021 22.747C5.36692 22.747 5.37306 22.7451 5.37785 22.7419L11.9596 17.9606C12.1349 17.8333 12.3722 17.8333 12.5474 17.9607L19.129 22.7442C19.1339 22.7477 19.1404 22.75 19.1475 22.75C19.1546 22.75 19.1611 22.7477 19.166 22.7442C19.1708 22.7407 19.1736 22.7364 19.1749 22.7325C19.1761 22.7287 19.1761 22.7246 19.1748 22.7208Z" fill="#BC0055"/>
</g>
<defs>
<clipPath id="clip0_5737_13625">
<rect width="24" height="24" fill="white"/>
</clipPath>
</defs>
</svg>
