<svg width="24" height="24" viewBox="0 0 24 24" fill="none" xmlns="http://www.w3.org/2000/svg">
<path d="M12 15.9874C11.724 15.9874 11.5 15.7634 11.5 15.4874V14.3744C11.509 13.6614 12.02 13.0464 12.715 12.9084C14.186 12.5834 15.256 11.2464 15.254 9.7314C15.253 8.8624 14.913 8.0464 14.298 7.4334C13.684 6.8214 12.869 6.4844 12.002 6.4844C11.128 6.4854 10.312 6.8254 9.69901 7.4404C9.08601 8.0554 8.74901 8.8724 8.75001 9.7404C8.75001 10.0164 8.52601 10.2404 8.25101 10.2414C7.97501 10.2414 7.75101 10.0174 7.75001 9.7424C7.74801 8.6064 8.18901 7.5374 8.99101 6.7334C9.79301 5.9294 10.86 5.4854 11.996 5.4834C13.136 5.4834 14.202 5.9244 15.004 6.7244C15.808 7.5264 16.252 8.5934 16.254 9.7294C16.257 11.7104 14.855 13.4594 12.92 13.8874C12.678 13.9354 12.503 14.1424 12.5 14.3804V15.4874C12.5 15.7634 12.276 15.9874 12 15.9874Z" fill="black"/>
<path d="M12 18.9912C12.4142 18.9912 12.75 18.6554 12.75 18.2412C12.75 17.827 12.4142 17.4912 12 17.4912C11.5858 17.4912 11.25 17.827 11.25 18.2412C11.25 18.6554 11.5858 18.9912 12 18.9912Z" fill="black"/>
<path d="M12 24C5.383 24 0 18.617 0 12C0 5.383 5.383 0 12 0C18.617 0 24 5.383 24 12C24 18.617 18.617 24 12 24ZM12 1C5.935 1 1 5.935 1 12C1 18.065 5.935 23 12 23C18.065 23 23 18.065 23 12C23 5.935 18.065 1 12 1Z" fill="black"/>
</svg>
