<svg width="24" height="24" viewBox="0 0 24 24" fill="none" xmlns="http://www.w3.org/2000/svg">
<path fill-rule="evenodd" clip-rule="evenodd" d="M22.2612 0.0116326C22.1683 0.0219864 21.9461 0.0765838 21.7675 0.132972C20.3577 0.578003 1.45331 6.75156 1.32938 6.80741C0.686851 7.09687 0.181456 7.73699 0.0287618 8.45465C-0.0209411 8.68835 -0.00358539 9.2638 0.0605113 9.50604C0.257374 10.2503 0.855368 10.8816 1.58254 11.1127C1.67389 11.1418 3.75378 11.6454 6.2045 12.2318C8.65521 12.8182 10.6678 13.3061 10.6768 13.3158C10.6858 13.3256 11.1811 15.3596 11.7774 17.8358C12.3737 20.312 12.89 22.4139 12.9249 22.5067C13.1382 23.0752 13.556 23.5187 14.1348 23.7913C14.3633 23.899 14.5616 23.9522 14.8608 23.9862C15.8665 24.1004 16.8649 23.4968 17.2437 22.5456C17.3279 22.3343 23.8199 2.4433 23.9416 2.02362C24.0009 1.81947 24.0068 1.76205 23.995 1.50463C23.9796 1.16786 23.923 0.978506 23.7633 0.729366C23.6305 0.52203 23.5312 0.417065 23.3524 0.295051C23.1428 0.151993 23.0232 0.0973693 22.8198 0.0518022C22.5771 -0.00256172 22.4626 -0.0107877 22.2612 0.0116326ZM11.4008 5.22008C6.33505 6.87132 2.13356 8.24402 2.06419 8.27054C1.53383 8.4732 1.46786 9.20443 1.95294 9.50383C2.02155 9.54618 7.40656 10.8559 10.8595 11.67L11.1105 11.7292L15.8739 6.97174C18.4937 4.35514 20.6314 2.21507 20.6243 2.21606C20.6172 2.21704 16.4666 3.56885 11.4008 5.22008ZM17.0211 8.13721L12.2617 12.8924L13.3482 17.3964C13.9544 19.9091 14.4586 21.9471 14.4888 22.0061C14.5918 22.2078 14.8661 22.3769 15.0902 22.3769C15.3055 22.3769 15.6049 22.1992 15.7 22.015C15.7188 21.9785 17.0517 17.9084 18.6619 12.9703C22.1305 2.33327 21.789 3.38199 21.7843 3.38199C21.7843 3.38199 19.6387 5.52182 17.0211 8.13721Z" fill="#666666"/>
</svg>
