<svg width="24" height="24" viewBox="0 0 24 24" fill="none" xmlns="http://www.w3.org/2000/svg">
<path d="M3.5 24C2.673 24 2 23.327 2 22.5V1.5C2 0.673 2.673 0 3.5 0H16.793C17.194 0 17.57 0.156 17.854 0.439L21.561 4.146C21.844 4.43 22 4.807 22 5.207V22.5C22 23.327 21.327 24 20.5 24H3.5ZM3.5 1C3.224 1 3 1.224 3 1.5V22.5C3 22.776 3.224 23 3.5 23H20.5C20.776 23 21 22.776 21 22.5V5.207C21 5.074 20.948 4.948 20.854 4.853L17.147 1.146C17.053 1.053 16.925 1 16.793 1H11.072L11.485 4.049C11.555 4.611 11.381 5.177 11.008 5.603C10.635 6.028 10.098 6.272 9.533 6.274H9.47C8.904 6.273 8.366 6.028 7.994 5.604C7.621 5.177 7.447 4.611 7.517 4.049L7.818 1H3.5ZM8.51 4.16C8.475 4.449 8.561 4.733 8.746 4.945C8.929 5.154 9.193 5.274 9.471 5.274H9.532C9.809 5.273 10.073 5.153 10.256 4.944C10.441 4.733 10.527 4.452 10.493 4.173L10.063 1H8.823L8.51 4.16Z" fill="#607D8B"/>
<path d="M9.50488 8.75C9.9191 8.75 10.2549 8.41421 10.2549 8C10.2549 7.58579 9.9191 7.25 9.50488 7.25C9.09067 7.25 8.75488 7.58579 8.75488 8C8.75488 8.41421 9.09067 8.75 9.50488 8.75Z" fill="#607D8B"/>
<path d="M9.50488 11.25C9.9191 11.25 10.2549 10.9142 10.2549 10.5C10.2549 10.0858 9.9191 9.75 9.50488 9.75C9.09067 9.75 8.75488 10.0858 8.75488 10.5C8.75488 10.9142 9.09067 11.25 9.50488 11.25Z" fill="#607D8B"/>
<path d="M9.50488 13.75C9.9191 13.75 10.2549 13.4142 10.2549 13C10.2549 12.5858 9.9191 12.25 9.50488 12.25C9.09067 12.25 8.75488 12.5858 8.75488 13C8.75488 13.4142 9.09067 13.75 9.50488 13.75Z" fill="#607D8B"/>
<path d="M9.49512 16.25C9.08112 16.25 8.74512 15.914 8.74512 15.5C8.74512 15.086 9.08112 14.75 9.49512 14.75C9.90812 14.75 10.2441 15.085 10.2451 15.496C10.2451 15.914 9.90912 16.25 9.49512 16.25Z" fill="#607D8B"/>
<path d="M9.49512 18.771C9.08112 18.771 8.74512 18.435 8.74512 18.021C8.74512 17.607 9.08112 17.271 9.49512 17.271C9.90812 17.271 10.2441 17.606 10.2451 18.017C10.2451 18.435 9.90912 18.771 9.49512 18.771Z" fill="#607D8B"/>
<path d="M9.49512 21.312C9.08112 21.312 8.74512 20.976 8.74512 20.562C8.74512 20.148 9.08112 19.812 9.49512 19.812C9.70812 19.817 9.88412 19.89 10.0241 20.029C10.1661 20.17 10.2451 20.357 10.2451 20.558C10.2451 20.976 9.90912 21.312 9.49512 21.312Z" fill="#607D8B"/>
</svg>
