<svg width="24" height="24" viewBox="0 0 24 24" fill="none" xmlns="http://www.w3.org/2000/svg">
<g clip-path="url(#clip0_9195_61182)">
<path d="M17.638 24.005C16.974 24.005 16.316 23.896 15.683 23.68C13.994 23.104 12.649 21.787 12 20.154V21.998C12 22.274 11.776 22.498 11.5 22.498C11.224 22.498 11 22.274 11 21.998V18.498C11 18.222 11.224 17.998 11.5 17.998H15C15.276 17.998 15.5 18.222 15.5 18.498C15.5 18.774 15.276 18.998 15 18.998H12.687C13.06 20.739 14.31 22.155 16.006 22.733C16.535 22.913 17.084 23.005 17.639 23.005C19.812 23.005 21.743 21.624 22.444 19.57C22.513 19.367 22.703 19.231 22.917 19.231C22.972 19.231 23.027 19.24 23.079 19.259C23.204 19.301 23.306 19.391 23.365 19.511C23.424 19.631 23.433 19.767 23.389 19.893C22.552 22.352 20.24 24.005 17.638 24.005Z" fill="black"/>
<path d="M19.9998 16.998C19.7238 16.998 19.4998 16.774 19.4998 16.498C19.4998 16.222 19.7238 15.998 19.9998 15.998H22.3118C21.9388 14.257 20.6898 12.841 18.9938 12.263C18.4608 12.081 17.9078 11.989 17.3518 11.989C16.5758 11.989 15.8248 12.165 15.1188 12.511C13.9028 13.108 12.9928 14.144 12.5558 15.426C12.4868 15.629 12.2968 15.765 12.0828 15.765C12.0278 15.765 11.9728 15.756 11.9198 15.738C11.7948 15.696 11.6928 15.606 11.6338 15.486C11.5748 15.366 11.5658 15.231 11.6088 15.104C12.1328 13.569 13.2228 12.329 14.6778 11.614C15.5228 11.199 16.4218 10.988 17.3508 10.988C18.0168 10.988 18.6778 11.098 19.3158 11.316C21.0038 11.892 22.3498 13.209 22.9988 14.842V12.998C22.9988 12.722 23.2228 12.498 23.4988 12.498C23.7748 12.498 23.9988 12.722 23.9988 12.998V16.498C23.9988 16.774 23.7748 16.998 23.4988 16.998H19.9998V16.998Z" fill="black"/>
<path d="M7.5 9.49805C4.881 9.49805 2.75 7.36705 2.75 4.74805C2.75 2.12905 4.881 -0.00195312 7.5 -0.00195312C10.119 -0.00195312 12.25 2.12905 12.25 4.74805C12.25 7.36705 10.119 9.49805 7.5 9.49805ZM7.5 0.998047C5.432 0.998047 3.75 2.68005 3.75 4.74805C3.75 6.81605 5.432 8.49805 7.5 8.49805C9.568 8.49805 11.25 6.81605 11.25 4.74805C11.25 2.68005 9.568 0.998047 7.5 0.998047Z" fill="black"/>
<path d="M0.5 17.998C0.224 17.998 0 17.774 0 17.498C0 13.363 3.364 9.99805 7.5 9.99805C8.94 9.99805 10.342 10.409 11.553 11.188C11.785 11.337 11.852 11.647 11.704 11.879C11.611 12.023 11.454 12.109 11.283 12.109C11.187 12.109 11.094 12.082 11.013 12.03C9.963 11.355 8.748 10.999 7.5 10.999C4.073 10.999 1.274 13.614 1.019 16.999H8.5C8.776 16.999 9 17.223 9 17.499C9 17.775 8.776 17.999 8.5 17.999H0.5V17.998Z" fill="black"/>
</g>
<defs>
<clipPath id="clip0_9195_61182">
<rect width="24" height="24" fill="white"/>
</clipPath>
</defs>
</svg>
