<svg width="24" height="24" viewBox="0 0 24 24" fill="none" xmlns="http://www.w3.org/2000/svg">
<g clip-path="url(#clip0_4680_48924)">
<path d="M20.002 24C19.868 24 19.743 23.948 19.648 23.854L17.281 21.488C15.695 22.478 13.874 23.001 12.001 23.001C10.128 23.001 8.30795 22.479 6.72095 21.488L4.35395 23.854C4.26095 23.948 4.13495 24 4.00195 24C3.86895 24 3.74295 23.948 3.64795 23.854C3.45295 23.659 3.45295 23.342 3.64795 23.147L5.88795 20.907C3.44895 19.016 2.00195 16.082 2.00195 13.001C2.00195 7.48698 6.48795 3.00098 12.002 3.00098C17.516 3.00098 22.002 7.48698 22.002 13.001C22.002 16.082 20.554 19.016 18.115 20.907L20.355 23.147C20.55 23.342 20.55 23.659 20.355 23.854C20.261 23.948 20.135 24 20.002 24ZM12.002 4.00098C7.03895 4.00098 3.00195 8.03798 3.00195 13.001C3.00195 17.964 7.03895 22.001 12.002 22.001C16.965 22.001 21.002 17.964 21.002 13.001C21.002 8.03798 16.964 4.00098 12.002 4.00098Z" fill="black"/>
<path d="M15.6 13.001C15.8208 13.001 16 12.809 16 12.5724C16 12.3358 15.8208 12.1438 15.6 12.1438H12.8V7.42955C12.8 7.19298 12.6208 7.00098 12.4 7.00098C12.1792 7.00098 12 7.19298 12 7.42955V12.5724C12 12.809 12.1792 13.001 12.4 13.001H15.6Z" fill="black"/>
<path d="M1.89378 8.01128C1.77478 8.01128 1.65878 7.96828 1.56778 7.89028C1.24778 7.61528 0.96778 7.29728 0.73578 6.94328C-0.62222 4.87128 -0.0412197 2.08028 2.03078 0.722281C2.76378 0.242281 3.61278 -0.0117188 4.48778 -0.0117188C6.01178 -0.0117188 7.41978 0.746281 8.25178 2.01728C8.32478 2.12828 8.34978 2.26228 8.32278 2.39328C8.29578 2.52328 8.21878 2.63628 8.10778 2.70928C8.02578 2.76328 7.93078 2.79128 7.83378 2.79128C7.66478 2.79128 7.50778 2.70728 7.41578 2.56528C6.76778 1.57728 5.67378 0.988281 4.48778 0.988281C3.80878 0.988281 3.14778 1.18528 2.57878 1.55928C1.79878 2.07028 1.26378 2.85528 1.07378 3.76928C0.88378 4.68228 1.06078 5.61528 1.57278 6.39628C1.75278 6.67028 1.97078 6.91728 2.21978 7.13128C2.32078 7.21828 2.38278 7.33928 2.39278 7.47228C2.40278 7.60528 2.36078 7.73428 2.27378 7.83628C2.17878 7.94728 2.04078 8.01128 1.89378 8.01128Z" fill="black"/>
<path d="M22.108 8.01135C21.962 8.01135 21.824 7.94835 21.729 7.83735C21.642 7.73535 21.6 7.60535 21.61 7.47235C21.62 7.33935 21.682 7.21835 21.783 7.13135C22.032 6.91835 22.249 6.67035 22.43 6.39535C23.486 4.78435 23.034 2.61535 21.424 1.55935C20.852 1.18435 20.193 0.986352 19.517 0.986352C19.277 0.986352 19.035 1.01135 18.798 1.06035C17.884 1.25035 17.1 1.78535 16.588 2.56535C16.496 2.70635 16.339 2.79135 16.17 2.79135C16.072 2.79135 15.977 2.76335 15.896 2.70935C15.785 2.63635 15.708 2.52435 15.681 2.39335C15.654 2.26235 15.679 2.12935 15.753 2.01735C16.411 1.01335 17.42 0.326352 18.595 0.0813516C18.9 0.0183516 19.211 -0.0146484 19.519 -0.0146484C20.39 -0.0146484 21.239 0.240352 21.974 0.722352C22.976 1.37935 23.663 2.38935 23.908 3.56535C24.153 4.74135 23.926 5.94135 23.269 6.94335C23.037 7.29735 22.757 7.61635 22.436 7.89035C22.343 7.96835 22.228 8.01135 22.108 8.01135Z" fill="black"/>
</g>
<defs>
<clipPath id="clip0_4680_48924">
<rect width="24" height="24" fill="white"/>
</clipPath>
</defs>
</svg>
