<svg width="98" height="64" viewBox="0 0 98 64" fill="none" xmlns="http://www.w3.org/2000/svg">
<path d="M91.2151 0.338623H6.78496C3.28775 0.338623 0.452698 3.17367 0.452698 6.67088V57.329C0.452698 60.8262 3.28775 63.6612 6.78496 63.6612H91.2151C94.7123 63.6612 97.5473 60.8262 97.5473 57.329V6.67088C97.5473 3.17367 94.7123 0.338623 91.2151 0.338623Z" fill="#F5F5F5"/>
<path fill-rule="evenodd" clip-rule="evenodd" d="M6.78492 0.677163C3.47477 0.677163 0.79136 3.36057 0.79136 6.67072V57.3288C0.79136 60.6389 3.47477 63.3223 6.78492 63.3223H91.2151C94.5252 63.3223 97.2086 60.6389 97.2086 57.3288V6.67072C97.2086 3.36057 94.5252 0.677163 91.2151 0.677163H6.78492ZM0.113953 6.67072C0.113953 2.98645 3.10064 -0.000244141 6.78492 -0.000244141H91.2151C94.8993 -0.000244141 97.886 2.98645 97.886 6.67072V57.3288C97.886 61.0131 94.8993 63.9998 91.2151 63.9998H6.78492C3.10064 63.9998 0.113953 61.0131 0.113953 57.3288V6.67072Z" fill="#E0E0E0"/>
<path d="M95.7775 2.51831L49.0005 40.4438L2.22345 2.51831" fill="#F5F5F5"/>
<path fill-rule="evenodd" clip-rule="evenodd" d="M1.96039 2.30485C2.07819 2.15954 2.29149 2.13726 2.43679 2.25506L49.0005 40.0076L95.5642 2.25506C95.7095 2.13726 95.9228 2.15954 96.0406 2.30485C96.1584 2.45015 96.1361 2.66345 95.9908 2.78125L49.2138 40.7067C49.0895 40.8075 48.9115 40.8075 48.7872 40.7067L2.01017 2.78125C1.86487 2.66345 1.84258 2.45015 1.96039 2.30485Z" fill="#E0E0E0"/>
<path fill-rule="evenodd" clip-rule="evenodd" d="M39.052 32.061C39.1686 32.2072 39.1446 32.4203 38.9983 32.5369L2.43459 61.679C2.2883 61.7955 2.0752 61.7715 1.95861 61.6252C1.84202 61.4789 1.86609 61.2658 2.01238 61.1492L38.5761 32.0072C38.7224 31.8906 38.9355 31.9147 39.052 32.061Z" fill="#E0E0E0"/>
<path fill-rule="evenodd" clip-rule="evenodd" d="M58.9495 32.061C59.0661 31.9147 59.2792 31.8906 59.4255 32.0072L95.9892 61.1492C96.1355 61.2658 96.1595 61.4789 96.043 61.6252C95.9264 61.7715 95.7133 61.7955 95.567 61.679L59.0033 32.5369C58.857 32.4203 58.8329 32.2072 58.9495 32.061Z" fill="#E0E0E0"/>
</svg>
