<svg width="25" height="24" viewBox="0 0 25 24" fill="none" xmlns="http://www.w3.org/2000/svg">
<path d="M11.0031 8.4C11.3343 8.4 11.6031 8.1312 11.6031 7.8C11.6031 6.1464 12.9495 4.8 14.6031 4.8C14.9343 4.8 15.2031 4.5312 15.2031 4.2C15.2031 3.8688 14.9343 3.6 14.6031 3.6C12.9495 3.6 11.6031 2.2536 11.6031 0.6C11.6031 0.2688 11.3343 0 11.0031 0C10.6719 0 10.4031 0.2688 10.4031 0.6C10.4031 2.2536 9.05673 3.6 7.40313 3.6C7.07193 3.6 6.80313 3.8688 6.80313 4.2C6.80313 4.5312 7.07193 4.8 7.40313 4.8C9.05673 4.8 10.4031 6.1464 10.4031 7.8C10.4031 8.1312 10.6719 8.4 11.0031 8.4ZM12.4419 4.2C11.8539 4.5552 11.3583 5.0496 11.0031 5.6388C10.6479 5.0508 10.1535 4.5552 9.56432 4.2C10.1523 3.8448 10.6479 3.3504 11.0031 2.7612C11.3583 3.3492 11.8527 3.8448 12.4419 4.2Z" fill="#9C62FF"/>
<path d="M3.02551 19.1194L15.7287 6.41623C16.0683 6.07663 16.5195 5.89062 17.0019 5.89062C17.4843 5.89062 17.9355 6.07783 18.2751 6.41623L18.9783 7.11943C19.3179 7.45903 19.5039 7.91023 19.5039 8.39263C19.5039 8.87503 19.3167 9.32623 18.9783 9.66583L6.27511 22.369C5.93551 22.7086 5.48431 22.8946 5.00191 22.8946C4.51951 22.8946 4.0683 22.7074 3.7287 22.369L3.02551 21.6658C2.68591 21.3262 2.49991 20.875 2.49991 20.3926C2.49991 19.9102 2.68711 19.459 3.02551 19.1194ZM18.1287 7.96782L17.4255 7.26463C17.3127 7.15183 17.1627 7.09063 17.0007 7.09063C16.8387 7.09063 16.6887 7.15303 16.5759 7.26463L14.8491 8.99143L16.4007 10.543L18.1275 8.81623C18.3615 8.58223 18.3627 8.20182 18.1287 7.96782ZM3.87511 20.8174L4.57831 21.5206C4.6911 21.6334 4.84111 21.6946 5.00191 21.6946C5.16271 21.6946 5.31391 21.6322 5.42551 21.5206L15.5523 11.3938L14.0007 9.84223L3.87391 19.969C3.6399 20.203 3.6399 20.5834 3.87391 20.8174H3.87511Z" fill="#9C62FF"/>
<path d="M20.5996 6C20.9308 6 21.1996 5.7312 21.1996 5.4C21.1996 4.4076 22.0072 3.6 22.9996 3.6C23.3308 3.6 23.5996 3.3312 23.5996 3C23.5996 2.6688 23.3308 2.4 22.9996 2.4C22.0072 2.4 21.1996 1.5924 21.1996 0.6C21.1996 0.2688 20.9308 0 20.5996 0C20.2684 0 19.9996 0.2688 19.9996 0.6C19.9996 1.5924 19.192 2.4 18.1996 2.4C17.8684 2.4 17.5996 2.6688 17.5996 3C17.5996 3.3312 17.8684 3.6 18.1996 3.6C19.192 3.6 19.9996 4.4076 19.9996 5.4C19.9996 5.7312 20.2684 6 20.5996 6ZM21.202 3C20.974 3.1716 20.7712 3.3744 20.5996 3.6024C20.428 3.3744 20.2252 3.1716 19.9972 3C20.2252 2.8284 20.428 2.6256 20.5996 2.3976C20.7712 2.6256 20.974 2.8284 21.202 3Z" fill="#9C62FF"/>
<path d="M20.5996 18C20.9308 18 21.1996 17.7312 21.1996 17.4C21.1996 16.4076 22.0072 15.6 22.9996 15.6C23.3308 15.6 23.5996 15.3312 23.5996 15C23.5996 14.6688 23.3308 14.4 22.9996 14.4C22.0072 14.4 21.1996 13.5924 21.1996 12.6C21.1996 12.2688 20.9308 12 20.5996 12C20.2684 12 19.9996 12.2688 19.9996 12.6C19.9996 13.5924 19.192 14.4 18.1996 14.4C17.8684 14.4 17.5996 14.6688 17.5996 15C17.5996 15.3312 17.8684 15.6 18.1996 15.6C19.192 15.6 19.9996 16.4076 19.9996 17.4C19.9996 17.7312 20.2684 18 20.5996 18ZM21.202 15C20.974 15.1716 20.7712 15.3744 20.5996 15.6024C20.428 15.3744 20.2252 15.1716 19.9972 15C20.2252 14.8284 20.428 14.6256 20.5996 14.3976C20.7712 14.6256 20.974 14.8284 21.202 15Z" fill="#9C62FF"/>
</svg>
