<svg width="289" height="159" viewBox="0 0 289 159" fill="none" xmlns="http://www.w3.org/2000/svg">
<path d="M60.1618 16.5642H137.533C142.564 16.5642 146.643 20.6425 146.643 25.6735V123.777C146.643 128.808 142.564 132.887 137.533 132.887H60.1618V16.5642Z" fill="#F5F5F5" stroke="#9F9F9F" stroke-width="0.620546"/>
<rect x="63.8806" y="20.3611" width="16.502" height="102.274" fill="white" stroke="#9F9F9F" stroke-width="0.620546"/>
<rect x="89.9353" y="46.5603" width="41.5612" height="23.2397" rx="1.14533" stroke="#9F9F9F" stroke-width="0.620546"/>
<rect x="100.75" y="54.4609" width="20.7074" height="1.95576" rx="0.977881" fill="#9F9F9F"/>
<rect x="97.3047" y="60.7227" width="27.2264" height="1.95576" rx="0.977881" fill="#9F9F9F"/>
<path d="M63.9118 126.217H142.101V127.125C142.101 127.994 141.396 128.699 140.527 128.699H63.9118V126.217Z" fill="white" stroke="#9F9F9F" stroke-width="0.620546"/>
<path fill-rule="evenodd" clip-rule="evenodd" d="M64.7358 87.8229C63.4604 87.0072 61.8513 86.836 60.5688 87.4901C58.7288 88.4285 58.0487 90.1171 58.2471 91.7472C58.4492 93.408 59.5682 95.0115 61.4136 95.6663C61.9137 95.8437 62.1781 96.4011 62.0041 96.9111C61.8302 97.4212 61.2838 97.6909 60.7837 97.5135C58.2193 96.6036 56.6324 94.3556 56.3443 91.9881C56.0525 89.59 57.098 87.0737 59.7113 85.7408C61.6884 84.7324 64.0098 85.0502 65.7543 86.1659C67.5155 87.2923 68.804 89.3088 68.5721 91.7932C68.5219 92.3308 68.0539 92.7252 67.5268 92.674C66.9997 92.6228 66.6131 92.1454 66.6633 91.6078C66.8149 89.985 65.9943 88.6278 64.7358 87.8229Z" fill="#E0E0E0"/>
<path fill-rule="evenodd" clip-rule="evenodd" d="M64.3513 80.3932C63.0759 79.5775 61.4668 79.4063 60.1843 80.0604C58.9723 80.6786 58.2631 81.6268 58.0212 82.6838C57.7775 83.7492 57.9837 85.0395 58.8255 86.3637C59.1136 86.8168 58.987 87.4224 58.5427 87.7162C58.0985 88.01 57.5048 87.8809 57.2168 87.4278C56.1414 85.7361 55.7725 83.9071 56.1541 82.2393C56.5375 80.5632 57.6541 79.1643 59.3268 78.3112C61.3039 77.3027 63.6254 77.6205 65.3698 78.7362C67.131 79.8626 68.4195 81.8792 68.1876 84.3635C68.1374 84.9012 67.6694 85.2955 67.1423 85.2443C66.6153 85.1931 66.2287 84.7158 66.2789 84.1781C66.4304 82.5553 65.6099 81.1981 64.3513 80.3932Z" fill="#E0E0E0"/>
<path fill-rule="evenodd" clip-rule="evenodd" d="M64.2575 72.5689C62.9822 71.7533 61.373 71.5821 60.0906 72.2362C58.8785 72.8544 58.1693 73.8026 57.9275 74.8596C57.6837 75.9249 57.89 77.2153 58.7318 78.5395C59.0198 78.9926 58.8932 79.5982 58.449 79.892C58.0047 80.1858 57.4111 80.0567 57.123 79.6035C56.0476 77.9119 55.6787 76.0829 56.0603 74.4151C56.4438 72.739 57.5604 71.3401 59.233 70.487C61.2102 69.4785 63.5316 69.7963 65.2761 70.912C67.0373 72.0384 68.3258 74.055 68.0938 76.5393C68.0436 77.077 67.5757 77.4713 67.0486 77.4201C66.5215 77.3689 66.1349 76.8915 66.1851 76.3539C66.3366 74.7311 65.5161 73.3739 64.2575 72.5689Z" fill="#E0E0E0"/>
<path fill-rule="evenodd" clip-rule="evenodd" d="M64.6403 65.1393C63.365 64.3236 61.7558 64.1524 60.4734 64.8065C59.2613 65.4247 58.5521 66.3729 58.3103 67.4299C58.0666 68.4952 58.2728 69.7856 59.1146 71.1098C59.4026 71.5629 59.276 72.1685 58.8318 72.4623C58.3875 72.7561 57.7939 72.627 57.5058 72.1738C56.4304 70.4822 56.0615 68.6532 56.4431 66.9854C56.8266 65.3093 57.9432 63.9104 59.6159 63.0573C61.593 62.0488 63.9144 62.3666 65.6589 63.4823C67.4201 64.6087 68.7086 66.6253 68.4767 69.1096C68.4265 69.6473 67.9585 70.0416 67.4314 69.9904C66.9043 69.9392 66.5177 69.4619 66.5679 68.9242C66.7195 67.3014 65.8989 65.9442 64.6403 65.1393Z" fill="#E0E0E0"/>
<path fill-rule="evenodd" clip-rule="evenodd" d="M64.6403 57.315C63.365 56.4994 61.7558 56.3282 60.4734 56.9823C59.2613 57.6005 58.5521 58.5487 58.3103 59.6057C58.0666 60.671 58.2728 61.9614 59.1146 63.2856C59.4026 63.7387 59.276 64.3443 58.8318 64.6381C58.3875 64.9319 57.7939 64.8028 57.5058 64.3496C56.4304 62.658 56.0615 60.829 56.4431 59.1612C56.8266 57.485 57.9432 56.0862 59.6159 55.233C61.593 54.2246 63.9144 54.5424 65.6589 55.6581C67.4201 56.7845 68.7086 58.801 68.4767 61.2854C68.4265 61.8231 67.9585 62.2174 67.4314 62.1662C66.9043 62.115 66.5177 61.6376 66.5679 61.1C66.7195 59.4772 65.8989 58.12 64.6403 57.315Z" fill="#E0E0E0"/>
<path fill-rule="evenodd" clip-rule="evenodd" d="M64.6403 49.1002C63.365 48.2845 61.7558 48.1133 60.4734 48.7675C59.2613 49.3857 58.5521 50.3338 58.3103 51.3908C58.0666 52.4562 58.2728 53.7465 59.1146 55.0707C59.4026 55.5239 59.276 56.1294 58.8318 56.4232C58.3875 56.7171 57.7939 56.5879 57.5058 56.1348C56.4304 54.4431 56.0615 52.6142 56.4431 50.9463C56.8266 49.2702 57.9432 47.8713 59.6159 47.0182C61.593 46.0098 63.9144 46.3275 65.6589 47.4432C67.4201 48.5696 68.7086 50.5862 68.4767 53.0706C68.4265 53.6082 67.9585 54.0025 67.4314 53.9513C66.9043 53.9001 66.5177 53.4228 66.5679 52.8852C66.7195 51.2623 65.8989 49.9051 64.6403 49.1002Z" fill="#E0E0E0"/>
<rect x="60.5938" y="94.8516" width="2.97783" height="4.93591" fill="#F5F5F5"/>
<path d="M145.012 159.001C202.197 159.001 248.554 156.415 248.554 153.225C248.554 150.035 202.197 147.449 145.012 147.449C87.8265 147.449 41.4688 150.035 41.4688 153.225C41.4688 156.415 87.8265 159.001 145.012 159.001Z" fill="black" fill-opacity="0.05" style="mix-blend-mode:multiply"/>
<path d="M184.189 41.8178L232.835 62.4913V97.2419V120.22H135.251C130.923 120.22 127.404 116.639 127.404 112.209V62.5033L184.189 41.8178Z" fill="white" stroke="#9F9F9F" stroke-width="0.620546"/>
<path d="M141.503 78.9299H137.17C136.114 78.9299 135.258 78.0567 135.258 76.9798V72.5595C135.258 71.4826 136.114 70.6094 137.17 70.6094H141.503C142.559 70.6094 143.415 71.4826 143.415 72.5595V76.9798C143.415 78.0567 142.559 78.9299 141.503 78.9299Z" fill="#BBE2F6"/>
<path d="M157.816 78.9299H153.482C152.426 78.9299 151.57 78.0567 151.57 76.9798V72.5595C151.57 71.4826 152.426 70.6094 153.482 70.6094H157.816C158.871 70.6094 159.727 71.4826 159.727 72.5595V76.9798C159.727 78.0567 158.871 78.9299 157.816 78.9299Z" fill="#BBE2F6"/>
<path d="M174.128 78.9299H169.795C168.739 78.9299 167.883 78.0567 167.883 76.9798V72.5595C167.883 71.4826 168.739 70.6094 169.795 70.6094H174.128C175.184 70.6094 176.04 71.4826 176.04 72.5595V76.9798C176.04 78.0567 175.184 78.9299 174.128 78.9299Z" fill="#BBE2F6"/>
<path d="M190.448 78.9299H186.115C185.059 78.9299 184.203 78.0567 184.203 76.9798V72.5595C184.203 71.4826 185.059 70.6094 186.115 70.6094H190.448C191.504 70.6094 192.36 71.4826 192.36 72.5595V76.9798C192.36 78.0567 191.504 78.9299 190.448 78.9299Z" fill="#BBE2F6"/>
<path d="M190.448 95.1526H186.115C185.059 95.1526 184.203 94.2794 184.203 93.2024V88.7822C184.203 87.7052 185.059 86.832 186.115 86.832H190.448C191.504 86.832 192.36 87.7052 192.36 88.7822V93.2024C192.36 94.2794 191.504 95.1526 190.448 95.1526Z" fill="#BBE2F6"/>
<path d="M207.175 95.1526H202.842C201.786 95.1526 200.93 94.2794 200.93 93.2024V88.7822C200.93 87.7052 201.786 86.832 202.842 86.832H207.175C208.231 86.832 209.087 87.7052 209.087 88.7822V93.2024C209.087 94.2794 208.231 95.1526 207.175 95.1526Z" fill="#BBE2F6"/>
<path d="M222.558 95.1526H218.224C217.169 95.1526 216.312 94.2794 216.312 93.2024V88.7822C216.312 87.7052 217.169 86.832 218.224 86.832H222.558C223.614 86.832 224.47 87.7052 224.47 88.7822V93.2024C224.47 94.2794 223.614 95.1526 222.558 95.1526Z" fill="#BBE2F6"/>
<path d="M206.761 78.9299H202.427C201.372 78.9299 200.516 78.0567 200.516 76.9798V72.5595C200.516 71.4826 201.372 70.6094 202.427 70.6094H206.761C207.817 70.6094 208.673 71.4826 208.673 72.5595V76.9798C208.673 78.0567 207.817 78.9299 206.761 78.9299Z" fill="#BBE2F6"/>
<path d="M223.073 78.9299H218.74C217.684 78.9299 216.828 78.0567 216.828 76.9798V72.5595C216.828 71.4826 217.684 70.6094 218.74 70.6094H223.073C224.129 70.6094 224.985 71.4826 224.985 72.5595V76.9798C224.985 78.0567 224.129 78.9299 223.073 78.9299Z" fill="#BBE2F6"/>
<path d="M141.503 95.5705H137.17C136.114 95.5705 135.258 94.6974 135.258 93.6204V89.2001C135.258 88.1232 136.114 87.25 137.17 87.25H141.503C142.559 87.25 143.415 88.1232 143.415 89.2001V93.6204C143.415 94.6976 142.559 95.5705 141.503 95.5705Z" fill="#BBE2F6"/>
<path d="M157.816 95.5705H153.482C152.426 95.5705 151.57 94.6974 151.57 93.6204V89.2001C151.57 88.1232 152.426 87.25 153.482 87.25H157.816C158.871 87.25 159.727 88.1232 159.727 89.2001V93.6204C159.727 94.6976 158.871 95.5705 157.816 95.5705Z" fill="#BBE2F6"/>
<path d="M174.128 95.5705H169.795C168.739 95.5705 167.883 94.6974 167.883 93.6204V89.2001C167.883 88.1232 168.739 87.25 169.795 87.25H174.128C175.184 87.25 176.04 88.1232 176.04 89.2001V93.6204C176.04 94.6976 175.184 95.5705 174.128 95.5705Z" fill="#BBE2F6"/>
<path d="M141.503 112.211H137.17C136.114 112.211 135.258 111.338 135.258 110.261V105.841C135.258 104.764 136.114 103.891 137.17 103.891H141.503C142.559 103.891 143.415 104.764 143.415 105.841V110.261C143.415 111.338 142.559 112.211 141.503 112.211Z" fill="#BBE2F6"/>
<path d="M157.816 112.211H153.482C152.426 112.211 151.57 111.338 151.57 110.261V105.841C151.57 104.764 152.426 103.891 153.482 103.891H157.816C158.871 103.891 159.727 104.764 159.727 105.841V110.261C159.727 111.338 158.871 112.211 157.816 112.211Z" fill="#BBE2F6"/>
<path d="M174.128 112.211H169.795C168.739 112.211 167.883 111.338 167.883 110.261V105.841C167.883 104.764 168.739 103.891 169.795 103.891H174.128C175.184 103.891 176.04 104.764 176.04 105.841V110.261C176.04 111.338 175.184 112.211 174.128 112.211Z" fill="#BBE2F6"/>
<path d="M190.159 112.184H185.826C184.77 112.184 183.914 111.311 183.914 110.234V105.813C183.914 104.736 184.77 103.863 185.826 103.863H190.159C191.215 103.863 192.071 104.736 192.071 105.813V110.234C192.071 111.311 191.215 112.184 190.159 112.184Z" fill="#BBE2F6"/>
<path d="M206.964 112.184H202.631C201.575 112.184 200.719 111.311 200.719 110.234V105.813C200.719 104.736 201.575 103.863 202.631 103.863H206.964C208.02 103.863 208.876 104.736 208.876 105.813V110.234C208.876 111.311 208.02 112.184 206.964 112.184Z" fill="#BBE2F6"/>
<path d="M222.355 112.184H218.021C216.965 112.184 216.109 111.311 216.109 110.234V105.813C216.109 104.736 216.965 103.863 218.021 103.863H222.355C223.41 103.863 224.266 104.736 224.266 105.813V110.234C224.266 111.311 223.411 112.184 222.355 112.184Z" fill="#BBE2F6"/>
<path d="M232.835 41.4843V61.9758H127.404V41.4843C127.404 37.0546 130.923 33.4743 135.251 33.4743H224.988C229.316 33.4743 232.835 37.0546 232.835 41.4843Z" fill="#F5F5F5" stroke="#9F9F9F" stroke-width="0.620546"/>
<path d="M152.796 43.3644H147.487C146.467 43.3644 145.641 42.5212 145.641 41.481C145.641 40.4408 146.467 39.5977 147.487 39.5977H152.796C153.816 39.5977 154.643 40.4408 154.643 41.481C154.643 42.5212 153.816 43.3644 152.796 43.3644Z" fill="#666666"/>
<path d="M165.843 43.3644H160.534C159.514 43.3644 158.688 42.5212 158.688 41.481C158.688 40.4408 159.514 39.5977 160.534 39.5977H165.843C166.863 39.5977 167.69 40.4408 167.69 41.481C167.69 42.5212 166.863 43.3644 165.843 43.3644Z" fill="#666666"/>
<path d="M199.703 43.3644H194.393C193.373 43.3644 192.547 42.5212 192.547 41.481C192.547 40.4408 193.374 39.5977 194.393 39.5977H199.703C200.723 39.5977 201.549 40.4408 201.549 41.481C201.549 42.5212 200.723 43.3644 199.703 43.3644Z" fill="#666666"/>
<path d="M212.75 43.3644H207.44C206.42 43.3644 205.594 42.5212 205.594 41.481C205.594 40.4408 206.42 39.5977 207.44 39.5977H212.75C213.77 39.5977 214.596 40.4408 214.596 41.481C214.596 42.5212 213.77 43.3644 212.75 43.3644Z" fill="#666666"/>
<path d="M161.456 40.494C161.43 43.1778 159.291 45.3349 156.668 45.3349C154.03 45.3349 151.881 43.1514 151.881 40.4449V30.044V30.044C151.88 27.3375 154.03 25.154 156.668 25.154C159.307 25.154 161.456 27.3375 161.456 30.044V40.4449V40.494Z" fill="#F5F5F5" stroke="#9F9F9F" stroke-width="0.620546"/>
<path d="M208.355 40.4449V40.4944C208.329 43.178 206.19 45.3349 203.567 45.3349C200.929 45.3349 198.779 43.1514 198.779 40.4449V30.044C198.779 27.3375 200.928 25.154 203.567 25.154C206.205 25.154 208.355 27.3375 208.355 30.044V40.4449Z" fill="#F5F5F5" stroke="#9F9F9F" stroke-width="0.620546"/>
<rect x="204.162" y="89.9978" width="51.6301" height="51.6301" rx="25.815" fill="white"/>
<path fill-rule="evenodd" clip-rule="evenodd" d="M226.666 106.592C228.564 105.911 230.626 105.831 232.571 106.365C234.515 106.899 236.248 108.02 237.532 109.575C237.819 109.923 237.77 110.438 237.422 110.725C237.074 111.012 236.56 110.963 236.273 110.615C235.203 109.319 233.759 108.385 232.138 107.94C230.518 107.495 228.799 107.561 227.218 108.129C225.636 108.697 224.268 109.739 223.301 111.113C222.333 112.487 221.814 114.126 221.813 115.807V116.285L223.685 114.413C224.003 114.094 224.52 114.094 224.839 114.413C225.158 114.732 225.158 115.249 224.839 115.568L221.615 118.791C221.466 118.965 221.244 119.076 220.996 119.076C220.749 119.076 220.527 118.965 220.377 118.791L217.153 115.568C216.834 115.249 216.834 114.732 217.153 114.413C217.472 114.094 217.989 114.094 218.308 114.413L220.18 116.285V115.807C220.181 113.79 220.805 111.822 221.965 110.173C223.126 108.524 224.768 107.274 226.666 106.592ZM238.957 113.358C239.174 113.358 239.381 113.444 239.535 113.597L242.8 116.862C243.119 117.181 243.119 117.698 242.8 118.017C242.481 118.336 241.964 118.336 241.646 118.017L239.768 116.139C239.705 117.984 239.122 119.777 238.082 121.308C236.981 122.931 235.417 124.186 233.594 124.91C231.771 125.634 229.772 125.795 227.857 125.37C225.942 124.946 224.198 123.956 222.852 122.529C222.542 122.201 222.557 121.685 222.885 121.375C223.213 121.066 223.73 121.081 224.039 121.409C225.161 122.598 226.614 123.422 228.21 123.776C229.806 124.13 231.472 123.996 232.991 123.393C234.51 122.789 235.813 121.743 236.731 120.391C237.585 119.134 238.069 117.666 238.133 116.152L236.269 118.017C235.95 118.336 235.433 118.336 235.114 118.017C234.796 117.698 234.796 117.181 235.114 116.862L238.38 113.597C238.533 113.444 238.741 113.358 238.957 113.358Z" fill="#0098FF"/>
<rect x="204.162" y="89.9978" width="51.6301" height="51.6301" rx="25.815" stroke="#9F9F9F" stroke-width="0.620546"/>
<g filter="url(#filter0_d_8761_22919)">
<rect x="248.445" y="8" width="32.3571" height="33.0053" rx="6.53133" fill="white" shape-rendering="crispEdges"/>
<path opacity="0.50372" fill-rule="evenodd" clip-rule="evenodd" d="M260.367 14.4406C260.367 13.7057 261.085 13.1806 261.795 13.3967L273.928 17.0932C274.391 17.2342 274.707 17.6576 274.707 18.1371V30.0498C274.707 30.7846 273.989 31.3098 273.28 31.0937L261.146 27.3971C260.683 27.2561 260.367 26.8327 260.367 26.3533V14.4406Z" fill="#C2F1F9"/>
<path opacity="0.8" fill-rule="evenodd" clip-rule="evenodd" d="M257.625 16.5226C257.625 15.7878 258.343 15.2626 259.052 15.4787L271.186 19.1753C271.649 19.3163 271.965 19.7397 271.965 20.2191V32.1318C271.965 32.8666 271.247 33.3918 270.537 33.1757L258.404 29.4792C257.941 29.3381 257.625 28.9148 257.625 28.4353V16.5226Z" fill="#8AE3F3"/>
<path fill-rule="evenodd" clip-rule="evenodd" d="M254.836 18.6007C254.836 17.8659 255.554 17.3408 256.263 17.5569L268.397 21.2534C268.86 21.3944 269.176 21.8178 269.176 22.2973V34.21C269.176 34.9448 268.458 35.4699 267.748 35.2538L255.615 31.5573C255.152 31.4163 254.836 30.9929 254.836 30.5134V18.6007Z" fill="#36D0EB"/>
<path fill-rule="evenodd" clip-rule="evenodd" d="M258.793 28.7603L262.231 29.8153V29.3707L259.347 28.4945L260.877 26.9575C261.28 26.5463 261.561 26.1855 261.72 25.8768C261.88 25.5673 261.96 25.2628 261.96 24.964C261.96 24.4337 261.818 23.977 261.535 23.5947C261.253 23.2136 260.86 22.9577 260.357 22.8261C260.028 22.7399 259.734 22.7459 259.477 22.8439C259.219 22.9412 259.021 23.1161 258.881 23.3685C258.742 23.6204 258.672 23.9221 258.672 24.2743L259.121 24.3978C259.121 23.967 259.234 23.6473 259.462 23.438C259.689 23.2279 259.988 23.1714 260.357 23.2693C260.714 23.3639 260.994 23.5553 261.198 23.844C261.402 24.1334 261.503 24.4798 261.503 24.8829C261.503 25.1399 261.443 25.3874 261.322 25.6252C261.229 25.8098 261.077 26.0218 260.868 26.2608L260.674 26.4717L258.793 28.3648V28.7603ZM264.719 30.5789L265.172 30.7177V24.1543L265.096 24.1345L263.226 24.4596V24.9561L264.719 24.7029V30.5789Z" fill="white"/>
<path fill-rule="evenodd" clip-rule="evenodd" d="M260.096 28.3005L261.148 27.2445L261.148 27.2445L261.151 27.2418C261.566 26.8175 261.878 26.4231 262.064 26.0628L262.065 26.0624C262.249 25.7046 262.349 25.3367 262.349 24.9634C262.349 24.357 262.186 23.8129 261.845 23.3521L261.845 23.3516C261.501 22.8881 261.024 22.5828 260.439 22.4295C260.046 22.3265 259.661 22.3256 259.305 22.4608C258.951 22.5948 258.678 22.8385 258.494 23.1711C258.315 23.4955 258.234 23.8681 258.234 24.2737C258.234 24.4576 258.358 24.619 258.537 24.6683L258.986 24.7918C259.11 24.8261 259.244 24.8007 259.347 24.7233C259.45 24.6458 259.51 24.5252 259.51 24.3972C259.51 24.0334 259.606 23.8423 259.719 23.7374L259.72 23.7369C259.819 23.6459 259.959 23.5934 260.226 23.6644C260.493 23.7351 260.689 23.8717 260.835 24.0778C260.983 24.2889 261.066 24.5507 261.066 24.8823C261.066 25.0731 261.022 25.2578 260.929 25.4404M260.096 28.3005L262.328 28.9785C262.502 29.0313 262.621 29.1901 262.621 29.3701V29.8147C262.621 29.9449 262.558 30.0672 262.453 30.1444C262.347 30.2216 262.21 30.2445 262.085 30.2059L258.646 29.1509C258.473 29.0977 258.355 28.9391 258.355 28.7596V28.3642C258.355 28.2568 258.398 28.1536 258.474 28.077L260.349 26.1896L260.534 25.9883C260.73 25.7647 260.857 25.5826 260.929 25.4405M265.001 23.7305C265.06 23.7202 265.121 23.7228 265.178 23.738L265.254 23.7578C265.435 23.8054 265.562 23.9679 265.562 24.1537V30.7171C265.562 30.8472 265.499 30.9696 265.393 31.0468C265.288 31.124 265.151 31.1468 265.025 31.1083L264.573 30.9695C264.4 30.9164 264.282 30.7578 264.282 30.5783V25.188L263.272 25.3592C263.152 25.3796 263.029 25.3465 262.936 25.2686C262.843 25.1908 262.789 25.0763 262.789 24.9555V24.459C262.789 24.2602 262.933 24.09 263.131 24.0556L265.001 23.7305Z" fill="white"/>
</g>
<g filter="url(#filter1_d_8761_22919)">
<rect x="9" y="84.7383" width="32.3571" height="33.0053" rx="6.53133" fill="white" shape-rendering="crispEdges"/>
<path fill-rule="evenodd" clip-rule="evenodd" d="M21.1406 89.8558C21.1406 89.1465 21.821 88.6395 22.493 88.8481L33.9881 92.4164C34.4266 92.5526 34.7258 92.9613 34.7258 93.4241V108.086C34.7258 108.796 34.0454 109.303 33.3734 109.094L21.8783 105.526C21.4398 105.39 21.1406 104.981 21.1406 104.518V89.8558Z" fill="#C79BFF" fill-opacity="0.3"/>
<path opacity="0.8" fill-rule="evenodd" clip-rule="evenodd" d="M18.5625 91.9652C18.5625 91.2558 19.2428 90.7489 19.9148 90.9575L31.41 94.5258C31.8484 94.6619 32.1477 95.0706 32.1477 95.5335V110.196C32.1477 110.905 31.4673 111.412 30.7953 111.203L19.3002 107.635C18.8617 107.499 18.5625 107.09 18.5625 106.628V91.9652Z" fill="#CCAFEF"/>
<path fill-rule="evenodd" clip-rule="evenodd" d="M15.9375 94.0706C15.9375 93.3613 16.6178 92.8544 17.2898 93.063L28.785 96.6313C29.2234 96.7674 29.5227 97.1761 29.5227 97.639V112.301C29.5227 113.011 28.8423 113.518 28.1703 113.309L16.6752 109.741C16.2367 109.605 15.9375 109.196 15.9375 108.733V94.0706Z" fill="#9D66E1"/>
<path d="M23.7656 95.0703V101.994C23.7654 102.1 23.8291 102.197 23.9268 102.238C24.0246 102.278 24.1371 102.256 24.2118 102.18L25.2407 101.142C25.2652 101.117 25.2984 101.103 25.3331 101.103C25.3678 101.103 25.4011 101.117 25.4256 101.142L26.4544 102.845C26.5292 102.921 26.6417 102.944 26.7394 102.903C26.8372 102.862 26.9009 102.766 26.9007 102.659V96.0392L23.7656 95.0703Z" fill="#6129C6"/>
<path fill-rule="evenodd" clip-rule="evenodd" d="M15.9375 93.9895C15.9375 93.4235 16.5829 92.8768 17.2438 93.0473L18.6717 93.4917V110.358L16.5949 109.71C16.1979 109.55 15.9375 109.151 15.9375 108.786V93.9895Z" fill="#6129C6"/>
</g>
<defs>
<filter id="filter0_d_8761_22919" x="240.281" y="0.652258" width="48.6877" height="49.3322" filterUnits="userSpaceOnUse" color-interpolation-filters="sRGB">
<feFlood flood-opacity="0" result="BackgroundImageFix"/>
<feColorMatrix in="SourceAlpha" type="matrix" values="0 0 0 0 0 0 0 0 0 0 0 0 0 0 0 0 0 0 127 0" result="hardAlpha"/>
<feOffset dy="0.816416"/>
<feGaussianBlur stdDeviation="4.08208"/>
<feComposite in2="hardAlpha" operator="out"/>
<feColorMatrix type="matrix" values="0 0 0 0 0 0 0 0 0 0 0 0 0 0 0 0 0 0 0.15 0"/>
<feBlend mode="normal" in2="BackgroundImageFix" result="effect1_dropShadow_8761_22919"/>
<feBlend mode="normal" in="SourceGraphic" in2="effect1_dropShadow_8761_22919" result="shape"/>
</filter>
<filter id="filter1_d_8761_22919" x="0.835842" y="77.3905" width="48.6877" height="49.3322" filterUnits="userSpaceOnUse" color-interpolation-filters="sRGB">
<feFlood flood-opacity="0" result="BackgroundImageFix"/>
<feColorMatrix in="SourceAlpha" type="matrix" values="0 0 0 0 0 0 0 0 0 0 0 0 0 0 0 0 0 0 127 0" result="hardAlpha"/>
<feOffset dy="0.816416"/>
<feGaussianBlur stdDeviation="4.08208"/>
<feComposite in2="hardAlpha" operator="out"/>
<feColorMatrix type="matrix" values="0 0 0 0 0 0 0 0 0 0 0 0 0 0 0 0 0 0 0.15 0"/>
<feBlend mode="normal" in2="BackgroundImageFix" result="effect1_dropShadow_8761_22919"/>
<feBlend mode="normal" in="SourceGraphic" in2="effect1_dropShadow_8761_22919" result="shape"/>
</filter>
</defs>
</svg>
