<svg width="289" height="159" viewBox="0 0 289 159" fill="none" xmlns="http://www.w3.org/2000/svg">
<path d="M59.7712 16.5642H137.142C142.173 16.5642 146.251 20.6425 146.251 25.6734V123.776C146.251 128.807 142.173 132.885 137.142 132.885H59.7712V16.5642Z" fill="#333333" stroke="#E0E0E0" stroke-width="0.620538"/>
<rect x="63.49" y="20.3571" width="16.5017" height="102.273" fill="#666666" stroke="#E0E0E0" stroke-width="0.620538"/>
<rect x="89.5446" y="46.5564" width="41.5606" height="23.2394" rx="1.14532" stroke="#E0E0E0" stroke-width="0.620538"/>
<rect x="100.352" y="54.4609" width="20.7071" height="1.95574" rx="0.977868" fill="#E0E0E0"/>
<rect x="96.9141" y="60.7188" width="27.226" height="1.95574" rx="0.977868" fill="#E0E0E0"/>
<path d="M63.2031 125.906H142.011V127.125C142.011 128.165 141.168 129.009 140.128 129.009H63.2031V125.906Z" fill="#666666"/>
<path fill-rule="evenodd" clip-rule="evenodd" d="M64.345 87.8228C63.0697 87.0072 61.4606 86.836 60.1781 87.4901C58.3382 88.4285 57.6581 90.117 57.8564 91.7471C58.0585 93.4078 59.1776 95.0114 61.023 95.6661C61.523 95.8436 61.7874 96.4009 61.6134 96.911C61.4395 97.4211 60.8931 97.6907 60.393 97.5133C57.8287 96.6035 56.2418 94.3555 55.9537 91.988C55.6619 89.5899 56.7073 87.0737 59.3206 85.7408C61.2977 84.7324 63.6191 85.0502 65.3635 86.1658C67.1247 87.2922 68.4132 89.3088 68.1813 91.7931C68.1311 92.3308 67.6631 92.7251 67.136 92.6739C66.609 92.6227 66.2224 92.1453 66.2726 91.6077C66.4241 89.9849 65.6036 88.6278 64.345 87.8228Z" fill="#E0E0E0"/>
<path fill-rule="evenodd" clip-rule="evenodd" d="M63.9605 80.3892C62.6852 79.5736 61.0761 79.4024 59.7936 80.0565C58.5816 80.6747 57.8724 81.6228 57.6306 82.6798C57.3868 83.7452 57.5931 85.0355 58.4348 86.3597C58.7229 86.8128 58.5963 87.4184 58.1521 87.7122C57.7078 88.006 57.1142 87.8769 56.8261 87.4237C55.7508 85.7321 55.3818 83.9031 55.7634 82.2354C56.1469 80.5592 57.2635 79.1604 58.9361 78.3073C60.9132 77.2988 63.2346 77.6166 64.9791 78.7323C66.7403 79.8586 68.0288 81.8752 67.7968 84.3596C67.7466 84.8972 67.2786 85.2915 66.7516 85.2403C66.2245 85.1891 65.8379 84.7118 65.8881 84.1741C66.0396 82.5513 65.2191 81.1942 63.9605 80.3892Z" fill="#E0E0E0"/>
<path fill-rule="evenodd" clip-rule="evenodd" d="M63.8668 72.5689C62.5915 71.7533 60.9823 71.5821 59.6999 72.2362C58.4878 72.8544 57.7787 73.8025 57.5368 74.8595C57.2931 75.9249 57.4993 77.2152 58.3411 78.5394C58.6291 78.9925 58.5025 79.598 58.0583 79.8919C57.6141 80.1857 57.0204 80.0565 56.7324 79.6034C55.657 77.9118 55.2881 76.0828 55.6697 74.415C56.0532 72.7389 57.1697 71.3401 58.8424 70.4869C60.8195 69.4785 63.1409 69.7963 64.8853 70.9119C66.6465 72.0383 67.935 74.0549 67.7031 76.5392C67.6529 77.0769 67.1849 77.4712 66.6578 77.42C66.1308 77.3688 65.7442 76.8915 65.7944 76.3538C65.9459 74.731 65.1254 73.3739 63.8668 72.5689Z" fill="#E0E0E0"/>
<path fill-rule="evenodd" clip-rule="evenodd" d="M64.2496 65.1353C62.9743 64.3197 61.3651 64.1485 60.0827 64.8026C58.8707 65.4208 58.1615 66.3689 57.9196 67.4259C57.6759 68.4913 57.8821 69.7816 58.7239 71.1058C59.012 71.5589 58.8854 72.1644 58.4411 72.4583C57.9969 72.7521 57.4032 72.6229 57.1152 72.1698C56.0398 70.4782 55.6709 68.6492 56.0525 66.9814C56.436 65.3053 57.5526 63.9065 59.2252 63.0533C61.2023 62.0449 63.5237 62.3627 65.2681 63.4783C67.0293 64.6047 68.3178 66.6213 68.0859 69.1056C68.0357 69.6433 67.5677 70.0376 67.0406 69.9864C66.5136 69.9352 66.127 69.4579 66.1772 68.9202C66.3287 67.2974 65.5082 65.9403 64.2496 65.1353Z" fill="#E0E0E0"/>
<path fill-rule="evenodd" clip-rule="evenodd" d="M64.2496 57.315C62.9743 56.4993 61.3651 56.3282 60.0827 56.9823C58.8707 57.6005 58.1615 58.5486 57.9196 59.6056C57.6759 60.6709 57.8821 61.9613 58.7239 63.2855C59.012 63.7386 58.8854 64.3441 58.4411 64.638C57.9969 64.9318 57.4032 64.8026 57.1152 64.3495C56.0398 62.6579 55.6709 60.8289 56.0525 59.1611C56.436 57.485 57.5526 56.0862 59.2252 55.233C61.2023 54.2246 63.5237 54.5424 65.2681 55.658C67.0293 56.7844 68.3178 58.801 68.0859 61.2853C68.0357 61.823 67.5677 62.2173 67.0406 62.1661C66.5136 62.1149 66.127 61.6375 66.1772 61.0999C66.3287 59.4771 65.5082 58.1199 64.2496 57.315Z" fill="#E0E0E0"/>
<path fill-rule="evenodd" clip-rule="evenodd" d="M64.2496 49.1002C62.9743 48.2845 61.3651 48.1133 60.0827 48.7674C58.8707 49.3856 58.1615 50.3338 57.9196 51.3908C57.6759 52.4561 57.8821 53.7464 58.7239 55.0706C59.012 55.5238 58.8854 56.1293 58.4411 56.4231C57.9969 56.7169 57.4032 56.5878 57.1152 56.1347C56.0398 54.443 55.6709 52.6141 56.0525 50.9463C56.436 49.2702 57.5526 47.8713 59.2252 47.0182C61.2023 46.0098 63.5237 46.3275 65.2681 47.4432C67.0293 48.5696 68.3178 50.5861 68.0859 53.0705C68.0357 53.6081 67.5677 54.0024 67.0406 53.9512C66.5136 53.9 66.127 53.4227 66.1772 52.8851C66.3287 51.2623 65.5082 49.9051 64.2496 49.1002Z" fill="#E0E0E0"/>
<rect x="60.2031" y="94.8477" width="2.97779" height="4.93584" fill="#333333"/>
<path d="M144.604 158.997C201.788 158.997 248.146 156.411 248.146 153.221C248.146 150.031 201.788 147.445 144.604 147.445C87.4196 147.445 41.0625 150.031 41.0625 153.221C41.0625 156.411 87.4196 158.997 144.604 158.997Z" fill="#333333"/>
<path d="M183.79 41.8256L232.435 62.4989V97.249V120.227H134.852C130.524 120.227 127.006 116.646 127.006 112.216V62.5108L183.79 41.8256Z" fill="#333333" stroke="#E0E0E0" stroke-width="0.620538"/>
<path d="M141.097 78.9376H136.763C135.708 78.9376 134.852 78.0644 134.852 76.9875V72.5673C134.852 71.4904 135.708 70.6172 136.763 70.6172H141.097C142.153 70.6172 143.009 71.4904 143.009 72.5673V76.9875C143.009 78.0644 142.153 78.9376 141.097 78.9376Z" fill="#BBE2F6"/>
<path d="M157.409 78.9376H153.076C152.02 78.9376 151.164 78.0644 151.164 76.9875V72.5673C151.164 71.4904 152.02 70.6172 153.076 70.6172H157.409C158.465 70.6172 159.321 71.4904 159.321 72.5673V76.9875C159.321 78.0644 158.465 78.9376 157.409 78.9376Z" fill="#BBE2F6"/>
<path d="M173.722 78.9376H169.388C168.333 78.9376 167.477 78.0644 167.477 76.9875V72.5673C167.477 71.4904 168.333 70.6172 169.388 70.6172H173.722C174.778 70.6172 175.634 71.4904 175.634 72.5673V76.9875C175.634 78.0644 174.778 78.9376 173.722 78.9376Z" fill="#BBE2F6"/>
<path d="M190.042 78.9376H185.709C184.653 78.9376 183.797 78.0644 183.797 76.9875V72.5673C183.797 71.4904 184.653 70.6172 185.709 70.6172H190.042C191.098 70.6172 191.954 71.4904 191.954 72.5673V76.9875C191.954 78.0644 191.098 78.9376 190.042 78.9376Z" fill="#BBE2F6"/>
<path d="M190.042 95.1603H185.709C184.653 95.1603 183.797 94.2871 183.797 93.2101V88.79C183.797 87.713 184.653 86.8398 185.709 86.8398H190.042C191.098 86.8398 191.954 87.713 191.954 88.79V93.2101C191.954 94.2871 191.098 95.1603 190.042 95.1603Z" fill="#BBE2F6"/>
<path d="M206.769 95.1603H202.435C201.379 95.1603 200.523 94.2871 200.523 93.2101V88.79C200.523 87.713 201.379 86.8398 202.435 86.8398H206.769C207.824 86.8398 208.68 87.713 208.68 88.79V93.2101C208.68 94.2871 207.824 95.1603 206.769 95.1603Z" fill="#BBE2F6"/>
<path d="M222.151 95.1603H217.818C216.762 95.1603 215.906 94.2871 215.906 93.2101V88.79C215.906 87.713 216.762 86.8398 217.818 86.8398H222.151C223.207 86.8398 224.063 87.713 224.063 88.79V93.2101C224.063 94.2871 223.207 95.1603 222.151 95.1603Z" fill="#BBE2F6"/>
<path d="M206.355 78.9376H202.021C200.965 78.9376 200.109 78.0644 200.109 76.9875V72.5673C200.109 71.4904 200.965 70.6172 202.021 70.6172H206.355C207.41 70.6172 208.266 71.4904 208.266 72.5673V76.9875C208.266 78.0644 207.411 78.9376 206.355 78.9376Z" fill="#BBE2F6"/>
<path d="M222.667 78.9376H218.334C217.278 78.9376 216.422 78.0644 216.422 76.9875V72.5673C216.422 71.4904 217.278 70.6172 218.334 70.6172H222.667C223.723 70.6172 224.579 71.4904 224.579 72.5673V76.9875C224.579 78.0644 223.723 78.9376 222.667 78.9376Z" fill="#BBE2F6"/>
<path d="M141.097 95.5782H136.763C135.708 95.5782 134.852 94.7051 134.852 93.6281V89.2079C134.852 88.131 135.708 87.2578 136.763 87.2578H141.097C142.153 87.2578 143.009 88.131 143.009 89.2079V93.6281C143.009 94.7053 142.153 95.5782 141.097 95.5782Z" fill="#BBE2F6"/>
<path d="M157.409 95.5782H153.076C152.02 95.5782 151.164 94.7051 151.164 93.6281V89.2079C151.164 88.131 152.02 87.2578 153.076 87.2578H157.409C158.465 87.2578 159.321 88.131 159.321 89.2079V93.6281C159.321 94.7053 158.465 95.5782 157.409 95.5782Z" fill="#BBE2F6"/>
<path d="M173.722 95.5782H169.388C168.333 95.5782 167.477 94.7051 167.477 93.6281V89.2079C167.477 88.131 168.333 87.2578 169.388 87.2578H173.722C174.778 87.2578 175.634 88.131 175.634 89.2079V93.6281C175.634 94.7053 174.778 95.5782 173.722 95.5782Z" fill="#BBE2F6"/>
<path d="M141.097 112.219H136.763C135.708 112.219 134.852 111.346 134.852 110.269V105.849C134.852 104.772 135.708 103.898 136.763 103.898H141.097C142.153 103.898 143.009 104.772 143.009 105.849V110.269C143.009 111.346 142.153 112.219 141.097 112.219Z" fill="#BBE2F6"/>
<path d="M157.409 112.219H153.076C152.02 112.219 151.164 111.346 151.164 110.269V105.849C151.164 104.772 152.02 103.898 153.076 103.898H157.409C158.465 103.898 159.321 104.772 159.321 105.849V110.269C159.321 111.346 158.465 112.219 157.409 112.219Z" fill="#BBE2F6"/>
<path d="M173.722 112.219H169.388C168.333 112.219 167.477 111.346 167.477 110.269V105.849C167.477 104.772 168.333 103.898 169.388 103.898H173.722C174.778 103.898 175.634 104.772 175.634 105.849V110.269C175.634 111.346 174.778 112.219 173.722 112.219Z" fill="#BBE2F6"/>
<path d="M189.753 112.188H185.42C184.364 112.188 183.508 111.314 183.508 110.237V105.817C183.508 104.74 184.364 103.867 185.42 103.867H189.753C190.809 103.867 191.665 104.74 191.665 105.817V110.237C191.665 111.314 190.809 112.188 189.753 112.188Z" fill="#BBE2F6"/>
<path d="M206.558 112.188H202.224C201.169 112.188 200.312 111.314 200.312 110.237V105.817C200.312 104.74 201.169 103.867 202.224 103.867H206.558C207.613 103.867 208.47 104.74 208.47 105.817V110.237C208.47 111.314 207.614 112.188 206.558 112.188Z" fill="#BBE2F6"/>
<path d="M221.948 112.188H217.615C216.559 112.188 215.703 111.314 215.703 110.237V105.817C215.703 104.74 216.559 103.867 217.615 103.867H221.948C223.004 103.867 223.86 104.74 223.86 105.817V110.237C223.86 111.314 223.004 112.188 221.948 112.188Z" fill="#BBE2F6"/>
<path d="M232.435 41.4921V61.9832H127.006V41.4921C127.006 37.0624 130.524 33.4821 134.852 33.4821H224.589C228.916 33.4821 232.435 37.0624 232.435 41.4921Z" fill="#666666" stroke="#E0E0E0" stroke-width="0.620538"/>
<path d="M152.398 43.3721H147.089C146.069 43.3721 145.242 42.5289 145.242 41.4888C145.242 40.4487 146.069 39.6055 147.089 39.6055H152.398C153.418 39.6055 154.244 40.4487 154.244 41.4888C154.244 42.5289 153.418 43.3721 152.398 43.3721Z" fill="#9F9F9F"/>
<path d="M165.445 43.3721H160.135C159.115 43.3721 158.289 42.5289 158.289 41.4888C158.289 40.4487 159.116 39.6055 160.135 39.6055H165.445C166.465 39.6055 167.291 40.4487 167.291 41.4888C167.291 42.5289 166.465 43.3721 165.445 43.3721Z" fill="#9F9F9F"/>
<path d="M199.304 43.3721H193.995C192.975 43.3721 192.148 42.5289 192.148 41.4888C192.148 40.4487 192.975 39.6055 193.995 39.6055H199.304C200.324 39.6055 201.151 40.4487 201.151 41.4888C201.151 42.5289 200.324 43.3721 199.304 43.3721Z" fill="#9F9F9F"/>
<path d="M212.343 43.3721H207.034C206.014 43.3721 205.188 42.5289 205.188 41.4888C205.188 40.4487 206.014 39.6055 207.034 39.6055H212.343C213.363 39.6055 214.19 40.4487 214.19 41.4888C214.19 42.5289 213.363 43.3721 212.343 43.3721Z" fill="#9F9F9F"/>
<path d="M161.058 40.5018C161.032 43.1855 158.892 45.3425 156.27 45.3425C153.631 45.3425 151.482 43.159 151.482 40.4525V30.0518V30.0518C151.482 27.3453 153.631 25.1618 156.27 25.1618C158.908 25.1618 161.058 27.3453 161.058 30.0518V40.4525V40.5018Z" fill="#333333" stroke="#E0E0E0" stroke-width="0.620538"/>
<path d="M207.956 40.4525V40.5021C207.93 43.1856 205.791 45.3425 203.169 45.3425C200.53 45.3425 198.381 43.159 198.381 40.4525V30.0518C198.381 27.3453 200.53 25.1618 203.168 25.1618C205.807 25.1618 207.956 27.3453 207.956 30.0518V40.4525Z" fill="#333333" stroke="#E0E0E0" stroke-width="0.620538"/>
<rect x="203.748" y="89.9978" width="51.6294" height="51.6294" rx="25.8147" fill="#1A1A1A"/>
<path fill-rule="evenodd" clip-rule="evenodd" d="M226.252 106.592C228.15 105.911 230.212 105.831 232.156 106.365C234.101 106.899 235.833 108.02 237.117 109.575C237.404 109.923 237.355 110.438 237.008 110.725C236.66 111.012 236.145 110.963 235.858 110.615C234.788 109.319 233.345 108.385 231.724 107.94C230.103 107.495 228.385 107.561 226.803 108.129C225.222 108.697 223.854 109.739 222.887 111.113C221.919 112.487 221.4 114.126 221.398 115.807V116.285L223.27 114.413C223.589 114.094 224.106 114.094 224.425 114.413C224.744 114.732 224.744 115.249 224.425 115.568L221.201 118.791C221.051 118.965 220.83 119.076 220.582 119.076C220.334 119.076 220.113 118.965 219.963 118.791L216.739 115.568C216.42 115.249 216.42 114.732 216.739 114.413C217.058 114.094 217.575 114.094 217.894 114.413L219.766 116.285V115.807C219.767 113.79 220.391 111.822 221.551 110.173C222.712 108.524 224.354 107.274 226.252 106.592ZM238.543 113.357C238.759 113.357 238.967 113.443 239.12 113.597L242.386 116.862C242.705 117.181 242.705 117.698 242.386 118.017C242.067 118.336 241.55 118.336 241.231 118.017L239.354 116.139C239.291 117.984 238.707 119.777 237.668 121.308C236.566 122.931 235.003 124.186 233.179 124.91C231.356 125.634 229.358 125.794 227.443 125.37C225.528 124.945 223.784 123.956 222.437 122.529C222.128 122.201 222.143 121.685 222.471 121.375C222.799 121.066 223.316 121.081 223.625 121.409C224.747 122.597 226.2 123.422 227.796 123.776C229.392 124.13 231.057 123.996 232.577 123.392C234.096 122.789 235.399 121.743 236.317 120.391C237.17 119.134 237.655 117.666 237.719 116.152L235.855 118.017C235.536 118.336 235.019 118.336 234.7 118.017C234.381 117.698 234.381 117.181 234.7 116.862L237.966 113.597C238.119 113.443 238.326 113.357 238.543 113.357Z" fill="#0098FF"/>
<rect x="203.748" y="89.9978" width="51.6294" height="51.6294" rx="25.8147" stroke="#E0E0E0" stroke-width="0.620538"/>
<g filter="url(#filter0_d_9129_23890)">
<rect x="248.047" y="8" width="32.3567" height="33.0049" rx="6.53124" fill="#333333" shape-rendering="crispEdges"/>
<path opacity="0.50372" fill-rule="evenodd" clip-rule="evenodd" d="M259.961 14.4405C259.961 13.7057 260.679 13.1806 261.388 13.3967L273.522 17.0932C273.985 17.2342 274.301 17.6576 274.301 18.137V30.0496C274.301 30.7844 273.583 31.3095 272.873 31.0934L260.74 27.3969C260.277 27.2559 259.961 26.8326 259.961 26.3531V14.4405Z" fill="#C2F1F9"/>
<path opacity="0.8" fill-rule="evenodd" clip-rule="evenodd" d="M257.219 16.5226C257.219 15.7878 257.937 15.2626 258.646 15.4787L270.78 19.1752C271.243 19.3162 271.558 19.7396 271.558 20.2191V32.1316C271.558 32.8664 270.84 33.3916 270.131 33.1755L257.997 29.479C257.535 29.338 257.219 28.9146 257.219 28.4351V16.5226Z" fill="#8AE3F3"/>
<path fill-rule="evenodd" clip-rule="evenodd" d="M254.43 18.6007C254.43 17.8659 255.148 17.3408 255.857 17.5569L267.991 21.2533C268.454 21.3943 268.769 21.8177 268.769 22.2972V34.2097C268.769 34.9445 268.051 35.4697 267.342 35.2536L255.208 31.5571C254.746 31.4161 254.43 30.9927 254.43 30.5132V18.6007Z" fill="#36D0EB"/>
<path fill-rule="evenodd" clip-rule="evenodd" d="M258.386 28.7602L261.825 29.8153V29.3706L258.94 28.4944L260.471 26.9575C260.873 26.5462 261.154 26.1855 261.314 25.8767C261.473 25.5672 261.553 25.2628 261.553 24.9639C261.553 24.4337 261.412 23.9769 261.129 23.5947C260.846 23.2136 260.454 22.9577 259.951 22.8261C259.622 22.7399 259.328 22.7459 259.071 22.8439C258.813 22.9412 258.614 23.1161 258.475 23.3685C258.335 23.6203 258.266 23.9221 258.266 24.2742L258.714 24.3978C258.714 23.967 258.828 23.6473 259.055 23.438C259.283 23.2279 259.581 23.1714 259.951 23.2693C260.308 23.3639 260.588 23.5553 260.792 23.844C260.995 24.1334 261.097 24.4798 261.097 24.8828C261.097 25.1398 261.037 25.3874 260.916 25.6251C260.822 25.8097 260.671 26.0218 260.461 26.2608L260.268 26.4717L258.386 28.3648V28.7602ZM264.313 30.5788L264.765 30.7176V24.1543L264.69 24.1345L262.82 24.4596V24.9561L264.313 24.7029V30.5788Z" fill="white"/>
<path fill-rule="evenodd" clip-rule="evenodd" d="M259.69 28.3004L260.742 27.2444L260.742 27.2444L260.745 27.2418C261.159 26.8175 261.472 26.4231 261.658 26.0627L261.658 26.0624C261.843 25.7045 261.943 25.3366 261.943 24.9633C261.943 24.357 261.78 23.8129 261.439 23.3521L261.439 23.3516C261.095 22.8881 260.618 22.5828 260.033 22.4295C259.639 22.3265 259.255 22.3256 258.899 22.4608C258.544 22.5948 258.272 22.8385 258.088 23.1711C257.909 23.4954 257.828 23.8681 257.828 24.2736C257.828 24.4576 257.952 24.619 258.131 24.6682L258.58 24.7917C258.704 24.826 258.838 24.8007 258.941 24.7232C259.044 24.6458 259.104 24.5251 259.104 24.3971C259.104 24.0334 259.199 23.8422 259.313 23.7374L259.314 23.7368C259.412 23.6459 259.552 23.5934 259.82 23.6644C260.087 23.7351 260.283 23.8717 260.429 24.0777C260.577 24.2889 260.66 24.5506 260.66 24.8822C260.66 25.073 260.615 25.2577 260.523 25.4404M259.69 28.3004L261.922 28.9784C262.096 29.0312 262.214 29.19 262.214 29.37V29.8146C262.214 29.9448 262.152 30.0671 262.046 30.1443C261.94 30.2215 261.804 30.2444 261.678 30.2058L258.24 29.1508C258.067 29.0976 257.949 28.9391 257.949 28.7596V28.3641C257.949 28.2567 257.991 28.1535 258.068 28.0769L259.943 26.1896L260.128 25.9883C260.324 25.7646 260.45 25.5826 260.523 25.4404M264.595 23.7305C264.654 23.7202 264.714 23.7228 264.772 23.738L264.848 23.7578C265.029 23.8053 265.155 23.9679 265.155 24.1537V30.717C265.155 30.8471 265.093 30.9695 264.987 31.0467C264.881 31.1239 264.745 31.1467 264.619 31.1082L264.167 30.9694C263.994 30.9163 263.876 30.7577 263.876 30.5782V25.188L262.866 25.3592C262.746 25.3796 262.623 25.3464 262.53 25.2686C262.436 25.1908 262.383 25.0762 262.383 24.9555V24.459C262.383 24.2601 262.527 24.09 262.725 24.0556L264.595 23.7305Z" fill="white"/>
</g>
<g filter="url(#filter1_d_9129_23890)">
<rect x="8.60156" y="84.7383" width="32.3567" height="33.0049" rx="6.53124" fill="#333333" shape-rendering="crispEdges"/>
<path fill-rule="evenodd" clip-rule="evenodd" d="M20.7422 89.8558C20.7422 89.1464 21.4225 88.6395 22.0945 88.8481L33.5895 92.4164C34.028 92.5525 34.3272 92.9612 34.3272 93.424V108.086C34.3272 108.796 33.6468 109.302 32.9749 109.094L21.4799 105.526C21.0414 105.389 20.7422 104.981 20.7422 104.518V89.8558Z" fill="#C79BFF" fill-opacity="0.3"/>
<path opacity="0.8" fill-rule="evenodd" clip-rule="evenodd" d="M18.1641 91.9651C18.1641 91.2558 18.8444 90.7489 19.5164 90.9575L31.0114 94.5258C31.4498 94.6619 31.749 95.0706 31.749 95.5334V110.196C31.749 110.905 31.0687 111.412 30.3967 111.203L18.9017 107.635C18.4633 107.499 18.1641 107.09 18.1641 106.627V91.9651Z" fill="#CCAFEF"/>
<path fill-rule="evenodd" clip-rule="evenodd" d="M15.5391 94.0706C15.5391 93.3613 16.2194 92.8544 16.8914 93.063L28.3864 96.6312C28.8248 96.7674 29.124 97.1761 29.124 97.6389V112.301C29.124 113.01 28.4437 113.517 27.7717 113.309L16.2767 109.74C15.8383 109.604 15.5391 109.196 15.5391 108.733V94.0706Z" fill="#9D66E1"/>
<path d="M23.3672 95.0703V101.994C23.367 102.1 23.4307 102.197 23.5284 102.237C23.6261 102.278 23.7387 102.256 23.8134 102.18L24.8422 101.142C24.8667 101.117 24.9 101.103 24.9347 101.103C24.9694 101.103 25.0027 101.117 25.0272 101.142L26.056 102.845C26.1307 102.921 26.2432 102.944 26.341 102.903C26.4387 102.862 26.5024 102.765 26.5022 102.659V96.0392L23.3672 95.0703Z" fill="#6129C6"/>
<path fill-rule="evenodd" clip-rule="evenodd" d="M15.5391 93.9895C15.5391 93.4235 16.1844 92.8768 16.8453 93.0473L18.2732 93.4917V110.358L16.1965 109.71C15.7995 109.55 15.5391 109.151 15.5391 108.786V93.9895Z" fill="#6129C6"/>
</g>
<defs>
<filter id="filter0_d_9129_23890" x="239.883" y="0.652352" width="48.6875" height="49.332" filterUnits="userSpaceOnUse" color-interpolation-filters="sRGB">
<feFlood flood-opacity="0" result="BackgroundImageFix"/>
<feColorMatrix in="SourceAlpha" type="matrix" values="0 0 0 0 0 0 0 0 0 0 0 0 0 0 0 0 0 0 127 0" result="hardAlpha"/>
<feOffset dy="0.816405"/>
<feGaussianBlur stdDeviation="4.08203"/>
<feComposite in2="hardAlpha" operator="out"/>
<feColorMatrix type="matrix" values="0 0 0 0 0 0 0 0 0 0 0 0 0 0 0 0 0 0 0.15 0"/>
<feBlend mode="normal" in2="BackgroundImageFix" result="effect1_dropShadow_9129_23890"/>
<feBlend mode="normal" in="SourceGraphic" in2="effect1_dropShadow_9129_23890" result="shape"/>
</filter>
<filter id="filter1_d_9129_23890" x="0.43751" y="77.3906" width="48.6875" height="49.332" filterUnits="userSpaceOnUse" color-interpolation-filters="sRGB">
<feFlood flood-opacity="0" result="BackgroundImageFix"/>
<feColorMatrix in="SourceAlpha" type="matrix" values="0 0 0 0 0 0 0 0 0 0 0 0 0 0 0 0 0 0 127 0" result="hardAlpha"/>
<feOffset dy="0.816405"/>
<feGaussianBlur stdDeviation="4.08203"/>
<feComposite in2="hardAlpha" operator="out"/>
<feColorMatrix type="matrix" values="0 0 0 0 0 0 0 0 0 0 0 0 0 0 0 0 0 0 0.15 0"/>
<feBlend mode="normal" in2="BackgroundImageFix" result="effect1_dropShadow_9129_23890"/>
<feBlend mode="normal" in="SourceGraphic" in2="effect1_dropShadow_9129_23890" result="shape"/>
</filter>
</defs>
</svg>
