<svg width="81" height="80" viewBox="0 0 81 80" fill="none" xmlns="http://www.w3.org/2000/svg">
<path d="M13.7647 23.6995C12.7936 23.6995 12.0407 24.5481 12.1563 25.5124L18.483 78.2508C18.5807 79.065 19.2714 79.6778 20.0914 79.6778H61.5665C62.3865 79.6778 63.0772 79.065 63.1749 78.2508L69.5015 25.5124C69.6172 24.5481 68.8643 23.6995 67.8931 23.6995H13.7647Z" fill="#FAFAFA" stroke="#9F9F9F" stroke-width="0.296297"/>
<line x1="17.9814" y1="73.9261" x2="63.6112" y2="73.9261" stroke="#9F9F9F" stroke-width="0.296297"/>
<line x1="0.499878" y1="79.8519" x2="79.2899" y2="79.8518" stroke="#9F9F9F" stroke-width="0.296297"/>
<line x1="28.1145" y1="65.1497" x2="28.1145" y2="40.2151" stroke="#E0E0E0" stroke-width="0.296297" stroke-linecap="round"/>
<line x1="41.5785" y1="65.1497" x2="41.5785" y2="40.2151" stroke="#E0E0E0" stroke-width="0.296297" stroke-linecap="round"/>
<line x1="55.0425" y1="65.1497" x2="55.0425" y2="40.2151" stroke="#E0E0E0" stroke-width="0.296297" stroke-linecap="round"/>
<path d="M7.76671 23.0356C7.76672 22.602 8.11825 22.2504 8.55189 22.2504H73.1073C73.541 22.2504 73.8925 22.602 73.8925 23.0356V26.3893C73.8925 26.823 73.541 27.1745 73.1073 27.1745H8.55186C8.11822 27.1745 7.76668 26.823 7.76669 26.3893L7.76671 23.0356Z" fill="#F1F1F1" stroke="#9F9F9F" stroke-width="0.296297"/>
<mask id="path-8-inside-1_3557_18074" fill="white">
<path fill-rule="evenodd" clip-rule="evenodd" d="M27.2698 3.38694C26.6603 3.4332 26.2062 3.9646 26.2554 4.57385L27.0803 14.7841L32.057 14.4064L31.4854 7.33193L46.7961 6.16976L47.3677 13.2442L52.2219 12.8757L51.397 2.66544C51.3478 2.05619 50.8138 1.5998 50.2043 1.64607L27.2698 3.38694Z"/>
</mask>
<path fill-rule="evenodd" clip-rule="evenodd" d="M27.2698 3.38694C26.6603 3.4332 26.2062 3.9646 26.2554 4.57385L27.0803 14.7841L32.057 14.4064L31.4854 7.33193L46.7961 6.16976L47.3677 13.2442L52.2219 12.8757L51.397 2.66544C51.3478 2.05619 50.8138 1.5998 50.2043 1.64607L27.2698 3.38694Z" fill="#FAFAFA"/>
<path d="M27.2698 3.38694L27.246 3.0916L27.2698 3.38694ZM27.0803 14.7841L26.7848 14.8065L26.8087 15.1019L27.1042 15.0795L27.0803 14.7841ZM32.057 14.4064L32.0808 14.7017L32.3763 14.6793L32.3524 14.3839L32.057 14.4064ZM31.4854 7.33193L31.4616 7.03659L31.1661 7.05902L31.19 7.35436L31.4854 7.33193ZM46.7961 6.16976L47.0915 6.14733L47.0677 5.85199L46.7722 5.87442L46.7961 6.16976ZM47.3677 13.2442L47.0722 13.2666L47.0961 13.5619L47.3915 13.5395L47.3677 13.2442ZM52.2219 12.8757L52.2458 13.1711L52.5413 13.1486L52.5174 12.8533L52.2219 12.8757ZM50.2043 1.64607L50.2282 1.9414L50.2043 1.64607ZM26.5508 4.55142C26.5148 4.10528 26.8474 3.71615 27.2937 3.68227L27.246 3.0916C26.4733 3.15025 25.8975 3.82392 25.9599 4.59627L26.5508 4.55142ZM27.3757 14.7617L26.5508 4.55142L25.9599 4.59627L26.7848 14.8065L27.3757 14.7617ZM32.0331 14.111L27.0564 14.4888L27.1042 15.0795L32.0808 14.7017L32.0331 14.111ZM32.3524 14.3839L31.7809 7.3095L31.19 7.35436L31.7615 14.4288L32.3524 14.3839ZM31.5093 7.62726L46.82 6.46509L46.7722 5.87442L31.4616 7.03659L31.5093 7.62726ZM46.5007 6.19218L47.0722 13.2666L47.6631 13.2218L47.0915 6.14733L46.5007 6.19218ZM52.1981 12.5804L47.3438 12.9489L47.3915 13.5395L52.2458 13.1711L52.1981 12.5804ZM51.1016 2.68787L51.9265 12.8981L52.5174 12.8533L51.6925 2.64302L51.1016 2.68787ZM50.2282 1.9414C50.6745 1.90752 51.0655 2.24173 51.1016 2.68787L51.6925 2.64302C51.6301 1.87066 50.9531 1.29208 50.1805 1.35073L50.2282 1.9414ZM27.2937 3.68227L50.2282 1.9414L50.1805 1.35073L27.246 3.0916L27.2937 3.68227Z" fill="#9F9F9F" mask="url(#path-8-inside-1_3557_18074)"/>
<path d="M8.96479 12.2107C8.17567 12.2704 7.60924 12.9913 7.73779 13.7725L8.50685 18.4457C8.62118 19.1404 9.24901 19.6341 9.95078 19.5811L71.3935 14.9396C72.0957 14.8866 72.6372 14.3041 72.6385 13.6002L72.6477 8.86779C72.6492 8.07712 71.9745 7.45053 71.1858 7.51012L8.96479 12.2107Z" fill="#F1F1F1" stroke="#9F9F9F" stroke-width="0.296297"/>
<line x1="0.148148" y1="-0.148148" x2="3.17677" y2="-0.148148" transform="matrix(-0.899885 -0.436126 0.45844 -0.888725 4.98792 17.5276)" stroke="#9F9F9F" stroke-width="0.296297" stroke-linecap="round"/>
<line x1="0.648026" y1="20.2759" x2="3.34375" y2="20.2759" stroke="#9F9F9F" stroke-width="0.296297" stroke-linecap="round"/>
<line x1="0.148148" y1="-0.148148" x2="3.06633" y2="-0.148148" transform="matrix(0.659326 -0.751857 0.771791 0.635876 2.86877 25.2585)" stroke="#9F9F9F" stroke-width="0.296297" stroke-linecap="round"/>
<line x1="0.148148" y1="-0.148148" x2="4.28389" y2="-0.148148" transform="matrix(0.839371 -0.538143 -0.565372 -0.828511 74.829 15.885)" stroke="#9F9F9F" stroke-width="0.296297" stroke-linecap="round"/>
<line x1="0.148148" y1="-0.148148" x2="3.83947" y2="-0.148148" transform="matrix(-0.993157 0.116787 0.124192 0.992258 80.1399 18.188)" stroke="#9F9F9F" stroke-width="0.296297" stroke-linecap="round"/>
<line x1="0.148148" y1="-0.148148" x2="2.32007" y2="-0.148148" transform="matrix(-0.833209 -0.559591 0.579373 -0.810492 77.4061 21.4292)" stroke="#9F9F9F" stroke-width="0.296297" stroke-linecap="round"/>
</svg>
