<svg width="81" height="81" viewBox="0 0 81 81" fill="none" xmlns="http://www.w3.org/2000/svg">
<path d="M67.8931 23.5977H13.7647C12.7325 23.5977 11.9323 24.4996 12.0552 25.5245L18.3819 78.2629C18.4857 79.1283 19.2198 79.7797 20.0914 79.7797H61.5665C62.438 79.7797 63.1722 79.1283 63.276 78.2629L69.6026 25.5245C69.7256 24.4996 68.9253 23.5977 67.8931 23.5977Z" fill="#FAFAFA" stroke="#9F9F9F" stroke-width="0.5"/>
<line x1="17.9814" y1="73.8242" x2="63.6112" y2="73.8242" stroke="#9F9F9F" stroke-width="0.5"/>
<line x1="0.499878" y1="79.75" x2="79.2899" y2="79.75" stroke="#9F9F9F" stroke-width="0.5"/>
<line x1="28.0127" y1="65.0479" x2="28.0127" y2="40.317" stroke="#E0E0E0" stroke-width="0.5" stroke-linecap="round"/>
<line x1="41.4767" y1="65.0479" x2="41.4767" y2="40.317" stroke="#E0E0E0" stroke-width="0.5" stroke-linecap="round"/>
<line x1="54.9407" y1="65.0479" x2="54.9407" y2="40.317" stroke="#E0E0E0" stroke-width="0.5" stroke-linecap="round"/>
<path d="M8.55189 22.3523H73.1073C73.4847 22.3523 73.7907 22.6582 73.7907 23.0356V26.3893C73.7907 26.7667 73.4847 27.0727 73.1073 27.0727H8.55186C8.17447 27.0727 7.86853 26.7667 7.86854 26.3893L7.86856 23.0356C7.86857 22.6582 8.1745 22.3523 8.55189 22.3523Z" fill="#F1F1F1" stroke="#9F9F9F" stroke-width="0.5"/>
<mask id="path-8-inside-1_4270_2469" fill="white">
<path fill-rule="evenodd" clip-rule="evenodd" d="M27.2698 3.38694C26.6603 3.4332 26.2062 3.9646 26.2554 4.57385L27.0803 14.7841L32.057 14.4064L31.4854 7.33193L46.7961 6.16976L47.3677 13.2442L52.2219 12.8757L51.397 2.66544C51.3478 2.05619 50.8138 1.5998 50.2043 1.64607L27.2698 3.38694Z"/>
</mask>
<path fill-rule="evenodd" clip-rule="evenodd" d="M27.2698 3.38694C26.6603 3.4332 26.2062 3.9646 26.2554 4.57385L27.0803 14.7841L32.057 14.4064L31.4854 7.33193L46.7961 6.16976L47.3677 13.2442L52.2219 12.8757L51.397 2.66544C51.3478 2.05619 50.8138 1.5998 50.2043 1.64607L27.2698 3.38694Z" fill="#FAFAFA"/>
<path d="M26.2554 4.57385L25.7568 4.61169L26.2554 4.57385ZM27.0803 14.7841L26.5817 14.822L26.622 15.3203L27.1206 15.2825L27.0803 14.7841ZM32.057 14.4064L32.0972 14.9047L32.5958 14.8669L32.5555 14.3685L32.057 14.4064ZM31.4854 7.33193L31.4452 6.83355L30.9466 6.8714L30.9869 7.36977L31.4854 7.33193ZM46.7961 6.16976L47.2947 6.13191L47.2544 5.63354L46.7558 5.67138L46.7961 6.16976ZM47.3677 13.2442L46.8691 13.282L46.9094 13.7804L47.4079 13.7426L47.3677 13.2442ZM52.2219 12.8757L52.2622 13.3741L52.7608 13.3363L52.7205 12.8379L52.2219 12.8757ZM51.397 2.66544L50.8985 2.70329L51.397 2.66544ZM26.754 4.536C26.727 4.202 26.976 3.91067 27.3101 3.88531L27.2296 2.88856C26.3447 2.95572 25.6854 3.7272 25.7568 4.61169L26.754 4.536ZM27.5789 14.7463L26.754 4.536L25.7568 4.61169L26.5817 14.822L27.5789 14.7463ZM32.0167 13.908L27.04 14.2857L27.1206 15.2825L32.0972 14.9047L32.0167 13.908ZM32.5555 14.3685L31.984 7.29409L30.9869 7.36977L31.5584 14.4442L32.5555 14.3685ZM31.5257 7.83031L46.8364 6.66813L46.7558 5.67138L31.4452 6.83355L31.5257 7.83031ZM46.2975 6.2076L46.8691 13.282L47.8662 13.2063L47.2947 6.13191L46.2975 6.2076ZM52.1817 12.3773L47.3274 12.7458L47.4079 13.7426L52.2622 13.3741L52.1817 12.3773ZM50.8985 2.70329L51.7234 12.9136L52.7205 12.8379L51.8956 2.6276L50.8985 2.70329ZM50.2446 2.14444C50.5787 2.11908 50.8715 2.36928 50.8985 2.70329L51.8956 2.6276C51.8241 1.7431 51.0489 1.08053 50.1641 1.14769L50.2446 2.14444ZM27.3101 3.88531L50.2446 2.14444L50.1641 1.14769L27.2296 2.88856L27.3101 3.88531Z" fill="#9F9F9F" mask="url(#path-8-inside-1_4270_2469)"/>
<path d="M71.1776 7.4086L8.95663 12.1092C8.1081 12.1733 7.49902 12.9486 7.63726 13.7886L8.40632 18.4618C8.52925 19.2088 9.20434 19.7396 9.95895 19.6826L71.4017 15.0412C72.1567 14.9841 72.7389 14.3577 72.7404 13.6009L72.7496 8.86848C72.7512 8.01828 72.0258 7.34452 71.1776 7.4086Z" fill="#F1F1F1" stroke="#9F9F9F" stroke-width="0.5"/>
<line x1="0.25" y1="-0.25" x2="3.07492" y2="-0.25" transform="matrix(-0.899885 -0.436126 0.45844 -0.888725 4.98792 17.5276)" stroke="#9F9F9F" stroke-width="0.5" stroke-linecap="round"/>
<line x1="0.749878" y1="20.1741" x2="3.2419" y2="20.1741" stroke="#9F9F9F" stroke-width="0.5" stroke-linecap="round"/>
<line x1="0.25" y1="-0.25" x2="2.96448" y2="-0.25" transform="matrix(0.659326 -0.751857 0.771791 0.635876 2.86877 25.2585)" stroke="#9F9F9F" stroke-width="0.5" stroke-linecap="round"/>
<line x1="0.25" y1="-0.25" x2="4.18204" y2="-0.25" transform="matrix(0.839371 -0.538143 -0.565372 -0.828511 74.829 15.885)" stroke="#9F9F9F" stroke-width="0.5" stroke-linecap="round"/>
<line x1="0.25" y1="-0.25" x2="3.73762" y2="-0.25" transform="matrix(-0.993157 0.116787 0.124192 0.992258 80.1399 18.188)" stroke="#9F9F9F" stroke-width="0.5" stroke-linecap="round"/>
<line x1="0.25" y1="-0.25" x2="2.21822" y2="-0.25" transform="matrix(-0.833209 -0.559591 0.579373 -0.810492 77.4061 21.4292)" stroke="#9F9F9F" stroke-width="0.5" stroke-linecap="round"/>
</svg>
