<svg width="80" height="80" viewBox="0 0 80 80" fill="none" xmlns="http://www.w3.org/2000/svg">
<path d="M11.7946 25.4613C11.6896 24.5878 12.3731 23.8191 13.2548 23.8191H67.3418C68.2235 23.8191 68.907 24.5878 68.802 25.4613L62.4801 78.0424C62.3915 78.7799 61.7644 79.335 61.02 79.335H19.5766C18.8322 79.335 18.2051 78.7799 18.1164 78.0424L11.7946 25.4613Z" fill="#F5F5F5"/>
<path fill-rule="evenodd" clip-rule="evenodd" d="M13.2547 23.1543H67.3417C68.6227 23.1543 69.6159 24.2712 69.4633 25.5403L63.1415 78.1215C63.0126 79.1931 62.1016 79.9996 61.0199 79.9996H19.5766C18.4949 79.9996 17.5838 79.1931 17.4549 78.1215L11.1331 25.5403C10.9805 24.2712 11.9737 23.1543 13.2547 23.1543ZM13.2547 23.819C12.3731 23.819 11.6895 24.5877 11.7945 25.4612L18.1164 78.0423C18.205 78.7798 18.8321 79.3349 19.5766 79.3349H61.0199C61.7644 79.3349 62.3914 78.7798 62.4801 78.0423L68.8019 25.4612C68.9069 24.5877 68.2234 23.819 67.3417 23.819H13.2547Z" fill="#E0E0E0"/>
<path fill-rule="evenodd" clip-rule="evenodd" d="M63.618 73.8002H16.9786V73.1355H63.618V73.8002Z" fill="#E0E0E0"/>
<path fill-rule="evenodd" clip-rule="evenodd" d="M27.4084 65.1453C27.2244 65.1453 27.0753 64.9965 27.0753 64.8129L27.0753 40.3219C27.0753 40.1384 27.2244 39.9896 27.4084 39.9896C27.5923 39.9896 27.7415 40.1384 27.7415 40.3219L27.7415 64.8129C27.7415 64.9965 27.5924 65.1453 27.4084 65.1453Z" fill="#E0E0E0"/>
<path fill-rule="evenodd" clip-rule="evenodd" d="M40.8621 65.1453C40.6781 65.1453 40.529 64.9965 40.529 64.8129L40.529 40.3219C40.529 40.1384 40.6781 39.9896 40.8621 39.9896C41.046 39.9896 41.1951 40.1384 41.1951 40.3219L41.1951 64.8129C41.1951 64.9965 41.046 65.1453 40.8621 65.1453Z" fill="#E0E0E0"/>
<path fill-rule="evenodd" clip-rule="evenodd" d="M54.3157 65.1453C54.1318 65.1453 53.9827 64.9965 53.9827 64.8129L53.9827 40.3219C53.9827 40.1384 54.1318 39.9896 54.3157 39.9896C54.4997 39.9896 54.6488 40.1384 54.6488 40.3219L54.6488 64.8129C54.6488 64.9965 54.4997 65.1453 54.3157 65.1453Z" fill="#E0E0E0"/>
<path d="M7.11312 23.0092C7.11313 22.4952 7.53067 22.0786 8.04574 22.0786H72.5518C73.0669 22.0786 73.4844 22.4952 73.4844 23.0092V26.3529C73.4844 26.8668 73.0669 27.2834 72.5518 27.2834H8.04571C7.53064 27.2834 7.11309 26.8668 7.1131 26.3529L7.11312 23.0092Z" fill="#F5F5F5"/>
<path fill-rule="evenodd" clip-rule="evenodd" d="M72.5518 22.7433H8.04574C7.89858 22.7433 7.77928 22.8623 7.77928 23.0092L7.77926 26.3529C7.77926 26.4997 7.89855 26.6187 8.04571 26.6187H72.5518C72.699 26.6187 72.8183 26.4997 72.8183 26.3529V23.0092C72.8183 22.8623 72.699 22.7433 72.5518 22.7433ZM8.04574 22.0786C7.53067 22.0786 7.11313 22.4952 7.11312 23.0092L7.1131 26.3529C7.11309 26.8668 7.53064 27.2834 8.04571 27.2834H72.5518C73.0669 27.2834 73.4844 26.8668 73.4844 26.3529V23.0092C73.4844 22.4952 73.0669 22.0786 72.5518 22.0786H8.04574Z" fill="#E0E0E0"/>
<path fill-rule="evenodd" clip-rule="evenodd" d="M26.7496 3.41917C26.1406 3.46529 25.6867 3.99511 25.7359 4.60254L26.5602 14.7824L31.5331 14.4057L30.962 7.3526L46.2609 6.1939L46.832 13.247L51.6826 12.8797L50.8583 2.69983C50.8091 2.09239 50.2756 1.63737 49.6665 1.68349L26.7496 3.41917Z" fill="#F5F5F5"/>
<path fill-rule="evenodd" clip-rule="evenodd" d="M30.2441 6.74039L46.8715 5.48107L47.4426 12.5342L50.9647 12.2674L50.1941 2.75014C50.1745 2.5086 49.9624 2.32767 49.7202 2.34601L26.8032 4.08169C26.5611 4.10003 26.3806 4.3107 26.4002 4.55223L27.1708 14.0695L30.8152 13.7935L30.2441 6.74039ZM46.832 13.247L46.2609 6.1939L30.962 7.3526L31.5331 14.4057L26.5602 14.7824L25.7359 4.60254C25.6867 3.99511 26.1406 3.46529 26.7496 3.41917L49.6665 1.68349C50.2756 1.63737 50.8091 2.09239 50.8583 2.69983L51.6826 12.8797L46.832 13.247Z" fill="#E0E0E0"/>
<path d="M7.37857 13.7507C7.26418 13.0572 7.7682 12.4171 8.47038 12.3641L70.6438 7.67751C71.3456 7.62461 71.946 8.18092 71.9446 8.88291L71.9354 13.6012C71.9342 14.2261 71.4524 14.7433 70.8276 14.7904L9.43187 19.418C8.80743 19.4651 8.24877 19.0268 8.14704 18.41L7.37857 13.7507Z" fill="#F5F5F5"/>
<path fill-rule="evenodd" clip-rule="evenodd" d="M8.41695 11.7015L70.5904 7.01488C71.6805 6.9327 72.6131 7.79684 72.611 8.88729L72.6018 13.6056C72.5999 14.5763 71.8515 15.3797 70.881 15.4529L9.48526 20.0804C8.51527 20.1536 7.64748 19.4727 7.48946 18.5146L6.72099 13.8554C6.5433 12.778 7.32622 11.7837 8.41695 11.7015ZM8.47036 12.364C7.76818 12.417 7.26416 13.0571 7.37856 13.7506L8.14703 18.4099C8.24876 19.0267 8.80741 19.465 9.43186 19.4179L70.8276 14.7903C71.4524 14.7432 71.9342 14.226 71.9354 13.6011L71.9446 8.88281C71.9459 8.18082 71.3456 7.62451 70.6438 7.67742L8.47036 12.364Z" fill="#E0E0E0"/>
<path fill-rule="evenodd" clip-rule="evenodd" d="M71.9736 13.6891L8.00738 18.5082L7.954 17.8457L71.9202 13.0265L71.9736 13.6891Z" fill="#E0E0E0"/>
<path fill-rule="evenodd" clip-rule="evenodd" d="M4.3319 17.813C4.24756 17.9762 4.045 18.0435 3.87947 17.9635L1.48918 16.8076C1.32364 16.7275 1.25781 16.5304 1.34214 16.3673C1.42647 16.2042 1.62903 16.1368 1.79457 16.2169L4.18486 17.3727C4.3504 17.4528 4.41623 17.6499 4.3319 17.813Z" fill="#E0E0E0"/>
<path fill-rule="evenodd" clip-rule="evenodd" d="M5.47255e-09 20.0736C2.45015e-09 19.89 0.149125 19.7412 0.333079 19.7412L2.65666 19.7412C2.84061 19.7412 2.98974 19.89 2.98974 20.0736C2.98974 20.2571 2.84061 20.4059 2.65666 20.4059L0.333079 20.4059C0.149125 20.4059 8.49496e-09 20.2571 5.47255e-09 20.0736Z" fill="#E0E0E0"/>
<path fill-rule="evenodd" clip-rule="evenodd" d="M2.11003 25.015C1.96806 24.8983 1.95129 24.6918 2.07257 24.5538L3.75113 22.644C3.87242 22.506 4.08583 22.4887 4.22781 22.6054C4.36978 22.7221 4.38655 22.9286 4.26527 23.0666L2.58671 24.9765C2.46542 25.1145 2.25201 25.1318 2.11003 25.015Z" fill="#E0E0E0"/>
<path fill-rule="evenodd" clip-rule="evenodd" d="M74.4607 16.1551C74.5647 16.3071 74.7742 16.3503 74.9286 16.2516L78.0868 14.2313C78.2412 14.1325 78.282 13.9292 78.178 13.7771C78.074 13.625 77.8645 13.5818 77.7101 13.6806L74.552 15.7009C74.3976 15.7997 74.3567 16.003 74.4607 16.1551Z" fill="#E0E0E0"/>
<path fill-rule="evenodd" clip-rule="evenodd" d="M79.5378 17.8464C79.515 17.6642 79.3484 17.534 79.1657 17.5554L75.87 17.9421C75.6873 17.9635 75.5577 18.1286 75.5805 18.3107C75.6034 18.4928 75.77 18.6231 75.9527 18.6016L79.2484 18.2149C79.4311 18.1935 79.5607 18.0285 79.5378 17.8464Z" fill="#E0E0E0"/>
<path fill-rule="evenodd" clip-rule="evenodd" d="M76.6544 21.6769C76.5478 21.8257 76.3372 21.863 76.1839 21.7603L74.684 20.7552C74.5307 20.6525 74.4929 20.4486 74.5994 20.2999C74.706 20.1511 74.9167 20.1138 75.0699 20.2165L76.5699 21.2216C76.7231 21.3243 76.761 21.5282 76.6544 21.6769Z" fill="#E0E0E0"/>
</svg>
