<svg width="81" height="80" viewBox="0 0 81 80" fill="none" xmlns="http://www.w3.org/2000/svg">
<path d="M13.7647 23.6995C12.7936 23.6995 12.0407 24.5481 12.1563 25.5124L18.483 78.2509C18.5807 79.0651 19.2714 79.6779 20.0914 79.6779H61.5665C62.3865 79.6779 63.0772 79.0651 63.1749 78.2509L69.5016 25.5124C69.6172 24.5481 68.8643 23.6995 67.8932 23.6995H13.7647Z" fill="#333333" stroke="#E0E0E0" stroke-width="0.296297"/>
<line x1="17.9814" y1="73.9263" x2="63.6112" y2="73.9263" stroke="#E0E0E0" stroke-width="0.296297"/>
<line x1="0.499878" y1="79.8521" x2="79.2899" y2="79.8521" stroke="#E0E0E0" stroke-width="0.296297"/>
<line x1="28.1145" y1="65.1497" x2="28.1145" y2="40.2151" stroke="#666666" stroke-width="0.296297" stroke-linecap="round"/>
<line x1="41.5785" y1="65.1497" x2="41.5785" y2="40.2151" stroke="#666666" stroke-width="0.296297" stroke-linecap="round"/>
<line x1="55.0425" y1="65.1497" x2="55.0425" y2="40.2151" stroke="#666666" stroke-width="0.296297" stroke-linecap="round"/>
<path d="M7.76671 23.0356C7.76672 22.602 8.11825 22.2504 8.55189 22.2504H73.1074C73.541 22.2504 73.8926 22.602 73.8926 23.0356V26.3893C73.8926 26.823 73.541 27.1745 73.1074 27.1745H8.55187C8.11822 27.1745 7.76668 26.823 7.76669 26.3893L7.76671 23.0356Z" fill="#666666" stroke="#E0E0E0" stroke-width="0.296297"/>
<mask id="path-8-inside-1_3557_18124" fill="white">
<path fill-rule="evenodd" clip-rule="evenodd" d="M27.2698 3.38718C26.6603 3.43344 26.2062 3.96484 26.2554 4.57409L27.0803 14.7844L32.057 14.4066L31.4854 7.33217L46.7961 6.17L47.3677 13.2444L52.222 12.876L51.397 2.66569C51.3478 2.05644 50.8138 1.60005 50.2044 1.64631L27.2698 3.38718Z"/>
</mask>
<path fill-rule="evenodd" clip-rule="evenodd" d="M27.2698 3.38718C26.6603 3.43344 26.2062 3.96484 26.2554 4.57409L27.0803 14.7844L32.057 14.4066L31.4854 7.33217L46.7961 6.17L47.3677 13.2444L52.222 12.876L51.397 2.66569C51.3478 2.05644 50.8138 1.60005 50.2044 1.64631L27.2698 3.38718Z" fill="#333333"/>
<path d="M27.0803 14.7844L26.7848 14.8068L26.8087 15.1021L27.1042 15.0797L27.0803 14.7844ZM32.057 14.4066L32.0808 14.702L32.3763 14.6795L32.3524 14.3842L32.057 14.4066ZM31.4854 7.33217L31.4616 7.03684L31.1661 7.05926L31.19 7.3546L31.4854 7.33217ZM46.7961 6.17L47.0916 6.14757L47.0677 5.85224L46.7723 5.87466L46.7961 6.17ZM47.3677 13.2444L47.0722 13.2669L47.0961 13.5622L47.3915 13.5398L47.3677 13.2444ZM52.222 12.876L52.2458 13.1713L52.5413 13.1489L52.5174 12.8535L52.222 12.876ZM51.397 2.66569L51.6925 2.64326L51.397 2.66569ZM26.5508 4.55167C26.5148 4.10553 26.8474 3.71639 27.2937 3.68251L27.246 3.09185C26.4733 3.15049 25.8975 3.82416 25.9599 4.59652L26.5508 4.55167ZM27.3757 14.762L26.5508 4.55167L25.9599 4.59652L26.7848 14.8068L27.3757 14.762ZM32.0331 14.1113L27.0564 14.489L27.1042 15.0797L32.0808 14.702L32.0331 14.1113ZM32.3524 14.3842L31.7809 7.30975L31.19 7.3546L31.7615 14.429L32.3524 14.3842ZM31.5093 7.62751L46.82 6.46533L46.7723 5.87466L31.4616 7.03684L31.5093 7.62751ZM46.5007 6.19242L47.0722 13.2669L47.6631 13.222L47.0916 6.14757L46.5007 6.19242ZM52.1981 12.5806L47.3438 12.9491L47.3915 13.5398L52.2458 13.1713L52.1981 12.5806ZM51.1016 2.68811L51.9265 12.8984L52.5174 12.8535L51.6925 2.64326L51.1016 2.68811ZM50.2282 1.94164C50.6745 1.90777 51.0656 2.24197 51.1016 2.68811L51.6925 2.64326C51.6301 1.8709 50.9531 1.29232 50.1805 1.35097L50.2282 1.94164ZM27.2937 3.68251L50.2282 1.94164L50.1805 1.35097L27.246 3.09185L27.2937 3.68251Z" fill="#E0E0E0" mask="url(#path-8-inside-1_3557_18124)"/>
<path d="M8.9648 12.211C8.17567 12.2706 7.60924 12.9916 7.73779 13.7728L8.50685 18.446C8.62118 19.1407 9.24901 19.6343 9.95078 19.5813L71.3936 14.9399C72.0957 14.8869 72.6372 14.3043 72.6386 13.6004L72.6477 8.86803C72.6493 8.07736 71.9746 7.45077 71.1858 7.51036L8.9648 12.211Z" fill="#666666" stroke="#E0E0E0" stroke-width="0.296297"/>
<line x1="0.148149" y1="-0.148149" x2="3.17677" y2="-0.148149" transform="matrix(-0.899885 -0.436127 0.45844 -0.888726 4.98792 17.5276)" stroke="#E0E0E0" stroke-width="0.296297" stroke-linecap="round"/>
<line x1="0.648026" y1="20.2762" x2="3.34376" y2="20.2762" stroke="#E0E0E0" stroke-width="0.296297" stroke-linecap="round"/>
<line x1="0.148149" y1="-0.148149" x2="3.06634" y2="-0.148149" transform="matrix(0.659326 -0.751857 0.771791 0.635876 2.86877 25.2588)" stroke="#E0E0E0" stroke-width="0.296297" stroke-linecap="round"/>
<line x1="0.148149" y1="-0.148149" x2="4.2839" y2="-0.148149" transform="matrix(0.839371 -0.538143 -0.565372 -0.828511 74.8291 15.885)" stroke="#E0E0E0" stroke-width="0.296297" stroke-linecap="round"/>
<line x1="0.148149" y1="-0.148149" x2="3.83947" y2="-0.148149" transform="matrix(-0.993157 0.116787 0.124192 0.992258 80.14 18.188)" stroke="#E0E0E0" stroke-width="0.296297" stroke-linecap="round"/>
<line x1="0.148149" y1="-0.148149" x2="2.32008" y2="-0.148149" transform="matrix(-0.833209 -0.559591 0.579372 -0.810492 77.4061 21.4292)" stroke="#E0E0E0" stroke-width="0.296297" stroke-linecap="round"/>
</svg>
