<svg width="16" height="16" viewBox="0 0 16 16" fill="none" xmlns="http://www.w3.org/2000/svg">
<path fill-rule="evenodd" clip-rule="evenodd" d="M0 8C0 3.58172 3.58172 0 8 0C12.4183 0 16 3.58172 16 8C16 12.4183 12.4183 16 8 16C3.58172 16 0 12.4183 0 8ZM12.3923 4.86272C12.5635 4.64607 12.5267 4.33164 12.3101 4.16041C12.0934 3.98917 11.779 4.02599 11.6078 4.24263L6.37911 10.858L6.37323 10.8655C6.35403 10.8908 6.32907 10.9111 6.30042 10.9248C6.27178 10.9385 6.24028 10.9452 6.20855 10.9442C6.17682 10.9433 6.14578 10.9347 6.118 10.9194C6.09023 10.904 6.06652 10.8822 6.04886 10.8559L6.0421 10.846L4.40877 8.52801C4.24971 8.30227 3.93777 8.24822 3.71204 8.40728C3.48631 8.56634 3.43226 8.87827 3.59132 9.10401L5.22167 11.4178C5.32752 11.574 5.46874 11.703 5.63388 11.7944C5.801 11.8868 5.98778 11.9381 6.17869 11.9438C6.3696 11.9495 6.55911 11.9095 6.73145 11.8272C6.90216 11.7456 7.05113 11.6249 7.16622 11.4748L12.3923 4.86272Z" fill="black"/>
</svg>
