<svg width="24" height="24" viewBox="0 0 24 24" fill="none" xmlns="http://www.w3.org/2000/svg">
<g clip-path="url(#clip0_16777_12600)">
<path fill-rule="evenodd" clip-rule="evenodd" d="M9.57398 1.79927C11.4807 1.00455 13.5788 0.796614 15.6029 1.20176C17.6271 1.6069 19.4864 2.60693 20.9457 4.07538C22.405 5.54383 23.3988 7.41475 23.8014 9.45155C24.2041 11.4884 23.9974 13.5996 23.2076 15.5182C22.4179 17.4368 21.0804 19.0767 19.3644 20.2304C17.6484 21.3842 15.631 22 13.5672 22C13.279 22 13.0455 21.7649 13.0455 21.475C13.0455 21.1851 13.279 20.95 13.5672 20.95C15.4246 20.95 17.2403 20.3958 18.7847 19.3574C20.3291 18.319 21.5328 16.8431 22.2436 15.1164C22.9544 13.3896 23.1404 11.4895 22.778 9.6564C22.4157 7.82328 21.5212 6.13945 20.2078 4.81784C18.8944 3.49624 17.2211 2.59621 15.3993 2.23158C13.5776 1.86695 11.6893 2.05409 9.9733 2.76934C8.25727 3.48459 6.79055 4.69582 5.75863 6.24986C4.7267 7.80391 4.17591 9.63097 4.17591 11.5V11.6693L6.91369 8.52089C7.10344 8.30268 7.43305 8.28057 7.6499 8.4715C7.86676 8.66243 7.88873 8.99411 7.69899 9.21232L4.07097 13.3845C3.97575 13.5116 3.82449 13.5937 3.65417 13.5937C3.46019 13.5937 3.29094 13.4872 3.20103 13.3291L0.0896342 8.63282C-0.0702014 8.39157 -0.00541516 8.06561 0.234338 7.90478C0.474092 7.74394 0.798023 7.80913 0.957858 8.05039L3.13373 11.3346C3.16533 9.31565 3.77488 7.34736 4.89101 5.66652C6.03759 3.9398 7.66728 2.59399 9.57398 1.79927ZM13.5672 5.7229C13.8553 5.7229 14.0889 5.95795 14.0889 6.2479V11.4979H18.7846C19.0727 11.4979 19.3063 11.733 19.3063 12.0229C19.3063 12.3129 19.0727 12.5479 18.7846 12.5479H13.5672C13.279 12.5479 13.0455 12.3129 13.0455 12.0229V6.2479C13.0455 5.95795 13.279 5.7229 13.5672 5.7229Z" fill="#BC0055"/>
</g>
<defs>
<clipPath id="clip0_16777_12600">
<rect width="24" height="24" fill="white"/>
</clipPath>
</defs>
</svg>
