<svg width="24" height="24" viewBox="0 0 24 24" fill="none" xmlns="http://www.w3.org/2000/svg">
<path d="M9.94984 19.2L4 21L5.69995 14.7002L15.8699 3.93196C16.149 3.63649 16.4803 3.40211 16.8449 3.24221C17.2095 3.0823 17.6002 3 17.9949 3C18.3895 3 18.7803 3.0823 19.1449 3.24221C19.5095 3.40211 19.8408 3.63649 20.1198 3.93196C20.3989 4.22742 20.6202 4.57819 20.7712 4.96424C20.9223 5.35028 21 5.76404 21 6.1819C21 6.59975 20.9223 7.01351 20.7712 7.39956C20.6202 7.7856 20.3989 8.13637 20.1198 8.43184L9.94984 19.2Z" stroke="#0098FF" stroke-linecap="round" stroke-linejoin="round"/>
<path d="M14.9824 5.01758L19.0172 8.98252" stroke="#0098FF" stroke-linecap="round" stroke-linejoin="round"/>
<path d="M6 15.0352L10.0348 19.0001" stroke="#0098FF" stroke-linecap="round" stroke-linejoin="round"/>
</svg>
