<svg width="209" height="151" viewBox="0 0 209 151" fill="none" xmlns="http://www.w3.org/2000/svg">
<path d="M29.6094 89.8184H122.57V143.572C122.57 147.321 119.532 150.359 115.783 150.359H36.3966C32.6481 150.359 29.6094 147.321 29.6094 143.572V89.8184Z" fill="#666666" stroke="#9F9F9F" stroke-width="0.5"/>
<path d="M73.288 124.961L30.0632 89.8184H122.117L78.8917 124.961C77.2595 126.288 74.9202 126.288 73.288 124.961Z" fill="#666666" stroke="#9F9F9F" stroke-width="0.5"/>
<path d="M78.4775 62.0063L121.71 89.5713L30.4696 89.5713L73.7019 62.0063C75.1583 61.0777 77.0211 61.0777 78.4775 62.0063Z" fill="#666666" stroke="#9F9F9F" stroke-width="0.5"/>
<path d="M115.886 95.2076L115.978 95.1325V95.0138V72.1647C115.978 70.4476 114.586 69.0557 112.869 69.0557H38.2971C36.58 69.0557 35.188 70.4476 35.188 72.1647V94.2539V94.3729L35.2803 94.4479L75.932 127.501L76.0899 127.63L76.2476 127.501L115.886 95.2076Z" fill="#1A1A1A" stroke="#9F9F9F" stroke-width="0.5"/>
<path opacity="0.5" fill-rule="evenodd" clip-rule="evenodd" d="M69.1152 80.2127C69.1152 79.1452 70.1708 78.3823 71.2133 78.6962L89.0476 84.0663C89.7279 84.2712 90.1921 84.8862 90.1921 85.5828V100.509C90.1921 101.576 89.1365 102.339 88.094 102.025L70.2597 96.6552C69.5794 96.4503 69.1152 95.8352 69.1152 95.1387V80.2127Z" fill="#FF9ABF"/>
<path opacity="0.8" fill-rule="evenodd" clip-rule="evenodd" d="M65.062 82.7508C65.062 81.6833 66.1175 80.9204 67.1601 81.2343L84.9943 86.6044C85.6746 86.8092 86.1388 87.4243 86.1388 88.1209V103.047C86.1388 104.114 85.0833 104.877 84.0407 104.563L66.2065 99.1932C65.5262 98.9884 65.062 98.3733 65.062 97.6768V82.7508Z" fill="#F789B2"/>
<path fill-rule="evenodd" clip-rule="evenodd" d="M61.0088 85.9246C61.0088 84.8571 62.0643 84.0942 63.1069 84.4082L80.9411 89.7782C81.6214 89.9831 82.0856 90.5982 82.0856 91.2947V106.221C82.0856 107.288 81.0301 108.051 79.9875 107.737L62.1533 102.367C61.473 102.162 61.0088 101.547 61.0088 100.851V85.9246Z" fill="#FF5B97"/>
<mask id="mask0_17564_13230" style="mask-type:luminance" maskUnits="userSpaceOnUse" x="61" y="84" width="22" height="24">
<path fill-rule="evenodd" clip-rule="evenodd" d="M61.0088 85.9246C61.0088 84.8571 62.0643 84.0942 63.1069 84.4082L80.9411 89.7782C81.6214 89.9831 82.0856 90.5982 82.0856 91.2947V106.221C82.0856 107.288 81.0301 108.051 79.9875 107.737L62.1533 102.367C61.473 102.162 61.0088 101.547 61.0088 100.851V85.9246Z" fill="white"/>
</mask>
<g mask="url(#mask0_17564_13230)">
<g style="mix-blend-mode:multiply">
<path fill-rule="evenodd" clip-rule="evenodd" d="M61.0088 83.2334L82.0856 89.5799L71.4881 98.8194C70.6969 99.5092 69.4532 99.283 68.9681 98.361L61.0088 83.2334Z" fill="#F2357A"/>
</g>
</g>
<path d="M79.361 115.994L114.608 150.396L37.9093 150.396L73.1566 115.994C74.8819 114.31 77.6357 114.31 79.361 115.994Z" fill="#666666" stroke="#9F9F9F" stroke-width="0.5"/>
<path d="M201.291 61.2091L200.329 55.774L197.543 56.2676L198.505 61.7027L192.996 60.6531L192.536 63.3726L198.021 64.2852L195.617 69.3275L198.312 70.4516L200.601 65.2884L204.798 69.3026L206.616 67.3318L202.679 63.4598L207.608 60.7024L206.105 58.3308L201.291 61.2091Z" fill="#E5708F"/>
<path d="M10.5227 63.9602L8.02203 59.0394L5.49964 60.3213L8.00035 65.2421L2.42411 65.8386L2.7739 68.5745L8.2871 67.8539L7.45197 73.3773L10.358 73.6695L11.0474 68.0641L16.2298 70.6854L17.3965 68.2715L12.5049 65.7105L16.4196 61.6398L14.2917 59.8075L10.5227 63.9602Z" fill="#E5708F"/>
<path d="M66.1407 39.7679L66.9265 36.0541L65.0379 35.6545L64.2521 39.3682L61.0375 37.286L60.0485 38.9026L63.2829 40.8912L60.4685 43.491L61.8849 44.8993L64.6572 42.1928L66.2813 45.8296L67.9366 45.0387L66.4409 41.5595L70.2655 41.0645L69.9232 39.1662L66.1407 39.7679Z" fill="#FFB9C8"/>
<path d="M126.968 10.6955V5.17578H124.139V10.6955L118.898 8.70098L117.97 11.2985L123.211 13.1539L119.964 17.6995L122.423 19.2766L125.577 14.5918L129.009 19.2766L131.143 17.6531L127.943 13.1539L133.277 11.2985L132.21 8.70098L126.968 10.6955Z" fill="#EF8BA4"/>
<path d="M201.194 104.11V100.656H199.424V104.11L196.145 102.862L195.564 104.487L198.844 105.648L196.812 108.492L198.35 109.478L200.324 106.547L202.471 109.478L203.806 108.463L201.804 105.648L205.141 104.487L204.474 102.862L201.194 104.11Z" fill="#FFB9C8"/>
<path d="M148.772 44.3252L144.729 42.9322C143.491 42.4653 142.138 42.3641 140.828 42.6404C139.518 42.9167 138.305 43.5591 137.332 44.4922L130.152 51.6543C129.922 51.8947 129.764 52.1934 129.695 52.5159C129.627 52.8384 129.65 53.1718 129.762 53.4778C129.873 53.8057 130.065 54.099 130.32 54.3312C130.575 54.5634 130.885 54.7272 131.223 54.8079L140.974 57.0952" fill="#666666"/>
<path d="M148.772 44.3252L144.729 42.9322C143.491 42.4653 142.138 42.3641 140.828 42.6404C139.518 42.9167 138.305 43.5591 137.332 44.4922L130.152 51.6543C129.922 51.8947 129.764 52.1933 129.695 52.5159C129.627 52.8384 129.65 53.1718 129.762 53.4778C129.873 53.8057 130.065 54.099 130.32 54.3312C130.575 54.5634 130.885 54.7272 131.223 54.8079L140.974 57.0952L148.772 44.3252Z" stroke="#E0E0E0" stroke-width="0.5" stroke-linecap="round" stroke-linejoin="round"/>
<path d="M164.717 60.1621L166.11 64.2049C166.576 65.4426 166.678 66.7959 166.401 68.106C166.125 69.4161 165.483 70.6288 164.55 71.6019L157.387 78.7823C157.147 79.0114 156.848 79.1695 156.526 79.2384C156.203 79.3073 155.87 79.2843 155.564 79.172C155.236 79.0607 154.943 78.8689 154.711 78.6139C154.478 78.3589 154.315 78.0487 154.234 77.7112L151.947 67.9597" fill="#666666"/>
<path d="M164.717 60.1621L166.11 64.2049C166.576 65.4426 166.678 66.7959 166.401 68.106C166.125 69.4161 165.483 70.6288 164.55 71.6019L157.387 78.7823C157.147 79.0114 156.848 79.1695 156.526 79.2384C156.203 79.3073 155.87 79.2843 155.564 79.172C155.236 79.0607 154.943 78.8689 154.711 78.6139C154.478 78.3589 154.315 78.0487 154.234 77.7112L151.947 67.9597L164.717 60.1621Z" stroke="#E0E0E0" stroke-width="0.5" stroke-linecap="round" stroke-linejoin="round"/>
<path d="M191.148 35.9483C191.148 35.9433 191.148 35.9383 191.147 35.9333L190.468 18.4199C190.463 18.2894 190.358 18.1848 190.228 18.1797L172.716 17.5015C172.714 17.5014 172.711 17.5013 172.709 17.5013C172.706 17.5013 172.704 17.5013 172.701 17.5013C170.071 17.5557 167.496 18.2559 165.202 19.5403C162.908 20.8247 160.966 22.6539 159.547 24.8668L159.547 24.8667L159.543 24.8725L140.525 56.369C140.466 56.4674 140.481 56.5936 140.562 56.6749L151.943 68.0711C152.024 68.1525 152.151 68.1679 152.249 68.1085L183.746 49.1055L183.746 49.1056L183.751 49.1023C185.971 47.688 187.807 45.7477 189.097 43.4534C190.387 41.159 191.092 38.5812 191.148 35.9483Z" fill="#1A1A1A" stroke="#E0E0E0" stroke-width="0.5" stroke-linecap="round" stroke-linejoin="round"/>
<path d="M190.468 18.4196C190.463 18.2891 190.358 18.1845 190.228 18.1795L172.716 17.5012C172.601 17.4968 172.498 17.5708 172.466 17.6808C172.434 17.7908 172.481 17.9086 172.579 17.9666L172.706 17.751L172.579 17.9667L172.58 17.9668L172.581 17.9673L172.584 17.9694L172.599 17.9781L172.657 18.0125C172.708 18.043 172.784 18.0882 172.882 18.1471C173.078 18.2648 173.362 18.4373 173.713 18.6554C174.418 19.0918 175.394 19.7111 176.482 20.4423C178.662 21.9074 181.277 23.8124 183.056 25.5923C184.836 27.3722 186.741 29.9871 188.206 32.167C188.938 33.255 189.557 34.2312 189.993 34.9352C190.211 35.2872 190.384 35.571 190.502 35.7667C190.56 35.8646 190.606 35.9404 190.636 35.9916L190.671 36.0498L190.679 36.0645L190.681 36.0681L190.682 36.069L190.682 36.0692L190.898 35.9427L190.682 36.0692C190.74 36.1681 190.858 36.2148 190.968 36.1826C191.078 36.1504 191.152 36.0475 191.147 35.933L190.468 18.4196Z" fill="#666666" stroke="#E0E0E0" stroke-width="0.5" stroke-linecap="round" stroke-linejoin="round"/>
<path d="M170.422 44.5442C173.915 44.5442 176.747 41.7125 176.747 38.2193C176.747 34.7261 173.915 31.8943 170.422 31.8943C166.928 31.8943 164.097 34.7261 164.097 38.2193C164.097 41.7125 166.928 44.5442 170.422 44.5442Z" fill="#666666" stroke="#E0E0E0" stroke-width="0.5" stroke-linecap="round" stroke-linejoin="round"/>
<path d="M142.597 77.0746C141.857 77.814 140.626 78.3707 139.156 78.7815C137.694 79.1904 136.029 79.446 134.454 79.6046C132.881 79.763 131.404 79.8238 130.32 79.8449C129.778 79.8554 129.335 79.8561 129.027 79.8541C128.935 79.8535 128.855 79.8527 128.789 79.8518C128.788 79.7851 128.787 79.7053 128.786 79.6133C128.784 79.3059 128.785 78.8627 128.796 78.3209C128.817 77.2369 128.878 75.7598 129.036 74.1862C129.194 72.6112 129.45 70.9463 129.859 69.4841C130.27 68.0144 130.826 66.7832 131.566 66.0438C134.612 62.9977 139.551 62.9977 142.597 66.0438C145.643 69.0898 145.643 74.0285 142.597 77.0746Z" fill="#1A1A1A" stroke="#E0E0E0" stroke-width="0.5"/>
<path d="M140.157 73.6595C139.822 73.9948 139.25 74.2579 138.543 74.4557C137.842 74.6515 137.042 74.7748 136.28 74.8514C135.521 74.9279 134.807 74.9573 134.283 74.9675C134.027 74.9725 133.817 74.9729 133.669 74.972C133.668 74.8241 133.668 74.614 133.673 74.3583C133.684 73.8341 133.713 73.1203 133.79 72.3604C133.866 71.5992 133.989 70.7986 134.185 70.0983C134.383 69.3905 134.646 68.8188 134.981 68.4835C136.411 67.0542 138.728 67.0542 140.157 68.4835C141.587 69.9129 141.587 72.2302 140.157 73.6595Z" fill="#666666" stroke="#E0E0E0" stroke-width="0.5"/>
</svg>
