<svg width="209" height="152" viewBox="0 0 209 152" fill="none" xmlns="http://www.w3.org/2000/svg">
<path d="M29.6094 90.501H122.57V144.255C122.57 148.003 119.532 151.042 115.783 151.042H36.3966C32.6481 151.042 29.6094 148.003 29.6094 144.255V90.501Z" fill="#F1F1F1" stroke="#9F9F9F" stroke-width="0.5"/>
<path d="M73.288 125.643L30.0632 90.501H122.117L78.8917 125.643C77.2595 126.97 74.9202 126.97 73.288 125.643Z" fill="#F1F1F1" stroke="#9F9F9F" stroke-width="0.5"/>
<path d="M78.4775 62.6889L121.71 90.2539L30.4696 90.2539L73.7019 62.6889C75.1583 61.7603 77.0211 61.7603 78.4775 62.6889Z" fill="#F1F1F1" stroke="#9F9F9F" stroke-width="0.5"/>
<path d="M115.886 95.8902L115.978 95.8152V95.6964V72.8474C115.978 71.1303 114.586 69.7383 112.869 69.7383H38.2971C36.58 69.7383 35.188 71.1303 35.188 72.8474V94.9365V95.0555L35.2803 95.1305L75.932 128.184L76.0899 128.312L76.2476 128.184L115.886 95.8902Z" fill="white" stroke="#9F9F9F" stroke-width="0.5"/>
<path opacity="0.5" fill-rule="evenodd" clip-rule="evenodd" d="M69.1152 80.8953C69.1152 79.8278 70.1708 79.0649 71.2133 79.3789L89.0476 84.7489C89.7279 84.9538 90.1921 85.5689 90.1921 86.2654V101.191C90.1921 102.259 89.1365 103.022 88.094 102.708L70.2597 97.3378C69.5794 97.1329 69.1152 96.5178 69.1152 95.8213V80.8953Z" fill="#FF9ABF"/>
<path opacity="0.8" fill-rule="evenodd" clip-rule="evenodd" d="M65.062 83.4334C65.062 82.3659 66.1175 81.603 67.1601 81.9169L84.9943 87.287C85.6746 87.4919 86.1388 88.1069 86.1388 88.8035V103.729C86.1388 104.797 85.0833 105.56 84.0407 105.246L66.2065 99.8759C65.5262 99.671 65.062 99.0559 65.062 98.3594V83.4334Z" fill="#F789B2"/>
<path fill-rule="evenodd" clip-rule="evenodd" d="M61.0088 86.6072C61.0088 85.5397 62.0643 84.7768 63.1069 85.0908L80.9411 90.4608C81.6214 90.6657 82.0856 91.2808 82.0856 91.9773V106.903C82.0856 107.971 81.0301 108.734 79.9875 108.42L62.1533 103.05C61.473 102.845 61.0088 102.23 61.0088 101.533V86.6072Z" fill="#FF5B97"/>
<mask id="mask0_17564_13196" style="mask-type:luminance" maskUnits="userSpaceOnUse" x="61" y="85" width="22" height="24">
<path fill-rule="evenodd" clip-rule="evenodd" d="M61.0088 86.6072C61.0088 85.5397 62.0643 84.7768 63.1069 85.0908L80.9411 90.4608C81.6214 90.6657 82.0856 91.2808 82.0856 91.9773V106.903C82.0856 107.971 81.0301 108.734 79.9875 108.42L62.1533 103.05C61.473 102.845 61.0088 102.23 61.0088 101.533V86.6072Z" fill="white"/>
</mask>
<g mask="url(#mask0_17564_13196)">
<g style="mix-blend-mode:multiply">
<path fill-rule="evenodd" clip-rule="evenodd" d="M61.0088 83.916L82.0856 90.2625L71.4881 99.502C70.6969 100.192 69.4532 99.9656 68.9681 99.0437L61.0088 83.916Z" fill="#F2357A"/>
</g>
</g>
<path d="M79.361 116.677L114.608 151.078L37.9093 151.078L73.1566 116.677C74.8819 114.993 77.6357 114.993 79.361 116.677Z" fill="#F1F1F1" stroke="#9F9F9F" stroke-width="0.5"/>
<path d="M201.291 61.8917L200.329 56.4566L197.543 56.9502L198.505 62.3853L192.996 61.3357L192.536 64.0552L198.021 64.9678L195.617 70.0101L198.312 71.1342L200.601 65.971L204.798 69.9852L206.616 68.0144L202.679 64.1424L207.608 61.385L206.105 59.0134L201.291 61.8917Z" fill="#C82468"/>
<path d="M10.5227 64.6428L8.02203 59.722L5.49964 61.0039L8.00035 65.9247L2.42411 66.5212L2.7739 69.2571L8.2871 68.5365L7.45197 74.0599L10.358 74.3521L11.0474 68.7467L16.2298 71.3681L17.3965 68.9541L12.5049 66.3931L16.4196 62.3224L14.2917 60.4901L10.5227 64.6428Z" fill="#C82468"/>
<path d="M66.1407 40.4505L66.9265 36.7367L65.0379 36.3371L64.2521 40.0509L61.0375 37.9686L60.0485 39.5853L63.2829 41.5739L60.4685 44.1737L61.8849 45.5819L64.6572 42.8754L66.2813 46.5122L67.9366 45.7213L66.4409 42.2421L70.2655 41.7471L69.9232 39.8488L66.1407 40.4505Z" fill="#EF8BA4"/>
<path d="M126.968 11.3781V5.8584H124.139V11.3781L118.898 9.3836L117.97 11.9811L123.211 13.8365L119.964 18.3821L122.423 19.9592L125.577 15.2744L129.009 19.9592L131.143 18.3358L127.943 13.8365L133.277 11.9811L132.21 9.3836L126.968 11.3781Z" fill="#EF8BA4"/>
<path d="M201.194 104.792V101.339H199.424V104.792L196.145 103.544L195.564 105.169L198.844 106.33L196.812 109.174L198.35 110.161L200.324 107.23L202.471 110.161L203.806 109.145L201.804 106.33L205.141 105.169L204.474 103.544L201.194 104.792Z" fill="#EF8BA4"/>
<path d="M148.772 45.0078L144.729 43.6148C143.491 43.148 142.138 43.0467 140.828 43.323C139.518 43.5993 138.305 44.2417 137.332 45.1748L130.152 52.3369C129.922 52.5773 129.764 52.876 129.695 53.1985C129.627 53.5211 129.65 53.8544 129.762 54.1604C129.873 54.4884 130.065 54.7816 130.32 55.0138C130.575 55.246 130.885 55.4098 131.223 55.4905L140.974 57.7778" fill="#F1F1F1"/>
<path d="M148.772 45.0078L144.729 43.6148C143.491 43.148 142.138 43.0467 140.828 43.323C139.518 43.5993 138.305 44.2417 137.332 45.1748L130.152 52.3369C129.922 52.5773 129.764 52.876 129.695 53.1985C129.627 53.5211 129.65 53.8544 129.762 54.1604C129.873 54.4884 130.065 54.7816 130.32 55.0138C130.575 55.246 130.885 55.4098 131.223 55.4905L140.974 57.7778L148.772 45.0078Z" stroke="#9F9F9F" stroke-width="0.5" stroke-linecap="round" stroke-linejoin="round"/>
<path d="M164.717 60.8447L166.11 64.8875C166.576 66.1253 166.678 67.4785 166.401 68.7886C166.125 70.0988 165.483 71.3114 164.55 72.2845L157.387 79.4649C157.147 79.694 156.848 79.8521 156.526 79.921C156.203 79.99 155.87 79.9669 155.564 79.8546C155.236 79.7433 154.943 79.5515 154.711 79.2965C154.478 79.0415 154.315 78.7313 154.234 78.3939L151.947 68.6423" fill="#F1F1F1"/>
<path d="M164.717 60.8447L166.11 64.8875C166.576 66.1253 166.678 67.4785 166.401 68.7886C166.125 70.0988 165.483 71.3114 164.55 72.2845L157.387 79.4649C157.147 79.694 156.848 79.8521 156.526 79.921C156.203 79.99 155.87 79.9669 155.564 79.8546C155.236 79.7433 154.943 79.5515 154.711 79.2965C154.478 79.0415 154.315 78.7313 154.234 78.3939L151.947 68.6423L164.717 60.8447Z" stroke="#9F9F9F" stroke-width="0.5" stroke-linecap="round" stroke-linejoin="round"/>
<path d="M191.148 36.6309C191.148 36.6259 191.148 36.6209 191.147 36.6159L190.468 19.1025C190.463 18.972 190.358 18.8674 190.228 18.8624L172.716 18.1841C172.714 18.184 172.711 18.184 172.709 18.1839C172.706 18.1839 172.704 18.1839 172.701 18.184C170.071 18.2383 167.496 18.9385 165.202 20.2229C162.908 21.5073 160.966 23.3365 159.547 25.5494L159.547 25.5494L159.543 25.5551L140.525 57.0516C140.466 57.15 140.481 57.2762 140.562 57.3575L151.943 68.7537C152.024 68.8351 152.151 68.8505 152.249 68.7911L183.746 49.7882L183.746 49.7882L183.751 49.7849C185.971 48.3706 187.807 46.4304 189.097 44.136C190.387 41.8416 191.092 39.2639 191.148 36.6309Z" fill="white" stroke="#9F9F9F" stroke-width="0.5" stroke-linecap="round" stroke-linejoin="round"/>
<path d="M190.468 19.1022C190.463 18.9718 190.358 18.8672 190.228 18.8621L172.716 18.1838C172.601 18.1794 172.498 18.2534 172.466 18.3634C172.434 18.4734 172.481 18.5912 172.579 18.6492L172.706 18.4336L172.579 18.6493L172.58 18.6494L172.581 18.6499L172.584 18.6521L172.599 18.6607L172.657 18.6952C172.708 18.7256 172.784 18.7708 172.882 18.8297C173.078 18.9475 173.362 19.1199 173.713 19.338C174.418 19.7744 175.394 20.3937 176.482 21.1249C178.662 22.59 181.277 24.495 183.056 26.2749C184.836 28.0548 186.741 30.6697 188.206 32.8496C188.938 33.9377 189.557 34.9138 189.993 35.6178C190.211 35.9698 190.384 36.2537 190.502 36.4494C190.56 36.5472 190.606 36.623 190.636 36.6743L190.671 36.7324L190.679 36.7471L190.681 36.7507L190.682 36.7516L190.682 36.7518L190.898 36.6253L190.682 36.7519C190.74 36.8507 190.858 36.8974 190.968 36.8652C191.078 36.833 191.152 36.7302 191.147 36.6156L190.468 19.1022Z" fill="#F1F1F1" stroke="#9F9F9F" stroke-width="0.5" stroke-linecap="round" stroke-linejoin="round"/>
<path d="M170.422 45.2269C173.915 45.2269 176.747 42.3951 176.747 38.9019C176.747 35.4087 173.915 32.5769 170.422 32.5769C166.928 32.5769 164.097 35.4087 164.097 38.9019C164.097 42.3951 166.928 45.2269 170.422 45.2269Z" fill="#F1F1F1" stroke="#9F9F9F" stroke-width="0.5" stroke-linecap="round" stroke-linejoin="round"/>
<path d="M142.597 77.7572C141.857 78.4966 140.626 79.0533 139.156 79.4642C137.694 79.873 136.029 80.1286 134.454 80.2872C132.881 80.4456 131.404 80.5064 130.32 80.5275C129.778 80.5381 129.335 80.5387 129.027 80.5367C128.935 80.5361 128.855 80.5353 128.789 80.5344C128.788 80.4678 128.787 80.3879 128.786 80.2959C128.784 79.9885 128.785 79.5453 128.796 79.0035C128.817 77.9195 128.878 76.4425 129.036 74.8688C129.194 73.2939 129.45 71.629 129.859 70.1667C130.27 68.697 130.826 67.4658 131.566 66.7264C134.612 63.6803 139.551 63.6803 142.597 66.7264C145.643 69.7725 145.643 74.7111 142.597 77.7572Z" fill="white" stroke="#9F9F9F" stroke-width="0.5"/>
<path d="M140.157 74.3422C139.822 74.6774 139.25 74.9405 138.543 75.1383C137.842 75.3342 137.042 75.4574 136.28 75.534C135.521 75.6105 134.807 75.6399 134.283 75.6501C134.027 75.6551 133.817 75.6555 133.669 75.6546C133.668 75.5068 133.668 75.2966 133.673 75.0409C133.684 74.5167 133.713 73.8029 133.79 73.043C133.866 72.2819 133.989 71.4812 134.185 70.7809C134.383 70.0731 134.646 69.5014 134.981 69.1662C136.411 67.7368 138.728 67.7368 140.157 69.1662C141.587 70.5955 141.587 72.9128 140.157 74.3422Z" fill="#F1F1F1" stroke="#9F9F9F" stroke-width="0.5"/>
</svg>
