<svg width="290" height="276" viewBox="0 0 290 276" fill="none" xmlns="http://www.w3.org/2000/svg">
<path d="M180.334 72.2952H231.274C235.984 72.2952 239.838 68.4422 239.838 63.7299V62.0197C239.838 57.3098 235.984 53.4556 231.274 53.4556H193.508C188.797 53.4556 184.942 57.3098 184.942 62.0197V63.7299C184.942 68.4422 184.942 71.2679 180.334 72.2952Z" fill="#D8E8FD"/>
<path d="M198.673 57.3097V58.8023H197.193V57.3097H198.673ZM198.673 59.6356V66.3271H197.193V59.6356H198.673ZM201.819 57.3097V62.3222L204.294 59.6356H206.073L203.511 62.3844L206.359 66.3271H204.63L202.528 63.4291L201.819 64.1878V66.3271H200.339V57.3097H201.819ZM207.112 66.3271V64.6356H208.804V66.3271H207.112ZM211.767 66.3271H210.287V59.6356H211.767V60.5684C212.153 59.8719 212.812 59.4863 213.707 59.4863C214.74 59.4863 215.349 59.9217 215.66 60.6679C216.232 59.8222 217.016 59.4863 217.837 59.4863C219.416 59.4863 220.026 60.5311 220.026 62.1232V66.3271H218.546V62.4839C218.546 61.5759 218.459 60.6928 217.364 60.6928C216.27 60.6928 215.896 61.5635 215.896 62.7699V66.3271H214.416V62.4839C214.416 61.5759 214.329 60.6928 213.235 60.6928C212.14 60.6928 211.767 61.5635 211.767 62.7699V66.3271ZM222.628 63.4043C222.728 64.648 223.598 65.2575 224.444 65.2575C225.215 65.2575 225.825 64.9465 226.086 64.3247H227.541C227.23 65.3943 226.235 66.4888 224.506 66.4888C222.354 66.4888 221.123 64.847 221.123 62.9316C221.123 60.9167 222.504 59.4863 224.407 59.4863C226.459 59.4863 227.74 61.153 227.616 63.4043H222.628ZM222.628 62.3222H226.111C226.073 61.2774 225.277 60.6431 224.407 60.6431C223.71 60.6431 222.752 61.0535 222.628 62.3222Z" fill="#061C35"/>
<path d="M196.361 178.677H277.828C282.538 178.677 286.392 174.824 286.392 170.111V168.401C286.392 163.691 282.538 159.837 277.828 159.837H209.535C204.824 159.837 200.97 163.691 200.97 168.401V170.111C200.97 174.824 200.97 177.649 196.361 178.677Z" fill="#E7EFFD"/>
<path d="M214.363 164.009V165.502H212.882V164.009H214.363ZM214.363 166.335V173.027H212.882V166.335H214.363ZM217.508 164.009V169.022L219.984 166.335H221.762L219.2 169.084L222.048 173.027H220.319L218.217 170.129L217.508 170.887V173.027H216.028V164.009H217.508ZM224.165 173.027H222.684V166.335H224.165V167.268C224.55 166.571 225.209 166.186 226.105 166.186C227.137 166.186 227.747 166.621 228.058 167.367C228.63 166.522 229.413 166.186 230.234 166.186C231.814 166.186 232.423 167.231 232.423 168.823V173.027H230.943V169.183C230.943 168.275 230.856 167.392 229.762 167.392C228.667 167.392 228.294 168.263 228.294 169.469V173.027H226.814V169.183C226.814 168.275 226.727 167.392 225.632 167.392C224.538 167.392 224.165 168.263 224.165 169.469V173.027ZM233.57 171.186C233.57 169.519 235.623 169.096 238.073 168.848V168.723C238.073 167.579 237.414 167.231 236.68 167.231C235.934 167.231 235.374 167.629 235.337 168.437H233.881C233.981 167.069 235.113 166.136 236.73 166.136C238.334 166.136 239.59 166.87 239.553 169.009C239.553 169.345 239.528 170.129 239.528 170.738C239.528 171.584 239.603 172.467 239.727 173.027H238.371C238.322 172.741 238.272 172.579 238.247 172.119C237.824 172.84 237.028 173.188 236.046 173.188C234.59 173.188 233.57 172.405 233.57 171.186ZM238.11 169.88C235.996 170.079 235.138 170.377 235.138 171.148C235.138 171.733 235.623 172.081 236.369 172.081C237.463 172.081 238.11 171.522 238.11 170.39V169.88ZM242.53 164.009V165.502H241.05V164.009H242.53ZM242.53 166.335V173.027H241.05V166.335H242.53ZM245.676 173.027H244.196V164.009H245.676V173.027ZM247.155 173.027V171.335H248.846V173.027H247.155ZM255.932 168.624H254.489C254.365 167.915 253.743 167.417 252.934 167.417C252.014 167.417 251.181 168.101 251.181 169.681C251.181 171.273 252.026 171.957 252.897 171.957C253.618 171.957 254.352 171.634 254.539 170.738H255.982C255.683 172.305 254.302 173.188 252.872 173.188C250.932 173.188 249.651 171.683 249.651 169.693C249.651 167.703 250.944 166.186 252.934 166.186C254.389 166.186 255.683 167.131 255.932 168.624ZM263.3 169.693C263.3 172.106 261.633 173.188 260.004 173.188C258.375 173.188 256.708 172.106 256.708 169.693C256.708 167.28 258.375 166.186 260.004 166.186C261.633 166.186 263.3 167.28 263.3 169.693ZM260.004 171.982C260.937 171.982 261.77 171.236 261.77 169.693C261.77 168.151 260.937 167.392 260.004 167.392C259.071 167.392 258.238 168.151 258.238 169.693C258.238 171.236 259.071 171.982 260.004 171.982ZM265.996 173.027H264.516V166.335H265.996V167.268C266.382 166.571 267.041 166.186 267.937 166.186C268.969 166.186 269.579 166.621 269.89 167.367C270.462 166.522 271.245 166.186 272.066 166.186C273.646 166.186 274.255 167.231 274.255 168.823V173.027H272.775V169.183C272.775 168.275 272.688 167.392 271.594 167.392C270.499 167.392 270.126 168.263 270.126 169.469V173.027H268.646V169.183C268.646 168.275 268.559 167.392 267.464 167.392C266.37 167.392 265.996 168.263 265.996 169.469V173.027Z" fill="#061C35"/>
<path d="M77.3286 154.747H10.6625C5.95259 154.747 2.09839 150.894 2.09839 146.181V144.471C2.09839 139.761 5.95259 135.907 10.6625 135.907H64.1547C68.8658 135.907 72.72 139.761 72.72 144.471V146.181C72.72 150.894 72.72 153.719 77.3286 154.747Z" fill="#4CB7FF"/>
<path d="M13.2392 145.734C13.3387 146.978 14.2093 147.587 15.0551 147.587C15.8263 147.587 16.4357 147.276 16.6969 146.654H18.1521C17.8412 147.724 16.8462 148.818 15.1173 148.818C12.9656 148.818 11.7342 147.177 11.7342 145.261C11.7342 143.246 13.1148 141.816 15.0178 141.816C17.07 141.816 18.3511 143.483 18.2268 145.734H13.2392ZM13.2392 144.652H16.7218C16.6845 143.607 15.8884 142.973 15.0178 142.973C14.3213 142.973 13.3636 143.383 13.2392 144.652ZM19.6569 140.199H21.137V141.965H22.4803V143.035H21.137V146.679C21.137 147.363 21.2987 147.525 21.933 147.525H22.4679V148.657H21.3733C19.943 148.657 19.6569 148.271 19.6569 146.903V143.035H18.6619V141.965H19.6569V140.199ZM25.1525 139.639V141.132H23.6724V139.639H25.1525ZM25.1525 141.965V148.657H23.6724V141.965H25.1525ZM28.2984 139.639V144.652L30.7735 141.965H32.5521L29.9899 144.714L32.8382 148.657H31.1093L29.0073 145.759L28.2984 146.517V148.657H26.8183V139.639H28.2984ZM33.5915 148.657V146.965H35.2831V148.657H33.5915ZM42.3684 144.254H40.9256C40.8012 143.545 40.1793 143.047 39.3709 143.047C38.4505 143.047 37.6171 143.731 37.6171 145.311C37.6171 146.903 38.4629 147.587 39.3335 147.587C40.0549 147.587 40.7888 147.264 40.9753 146.368H42.4181C42.1196 147.935 40.739 148.818 39.3087 148.818C37.3684 148.818 36.0873 147.313 36.0873 145.323C36.0873 143.333 37.3808 141.816 39.3709 141.816C40.8261 141.816 42.1196 142.761 42.3684 144.254ZM49.7366 145.323C49.7366 147.736 48.07 148.818 46.4406 148.818C44.8112 148.818 43.1446 147.736 43.1446 145.323C43.1446 142.91 44.8112 141.816 46.4406 141.816C48.07 141.816 49.7366 142.91 49.7366 145.323ZM46.4406 147.612C47.3734 147.612 48.2068 146.866 48.2068 145.323C48.2068 143.781 47.3734 143.022 46.4406 143.022C45.5078 143.022 44.6744 143.781 44.6744 145.323C44.6744 146.866 45.5078 147.612 46.4406 147.612ZM52.4331 148.657H50.953V141.965H52.4331V142.898C52.8187 142.202 53.4779 141.816 54.3734 141.816C55.4057 141.816 56.0152 142.251 56.3261 142.998C56.8983 142.152 57.6819 141.816 58.5028 141.816C60.0824 141.816 60.6918 142.861 60.6918 144.453V148.657H59.2117V144.813C59.2117 143.905 59.1247 143.022 58.0301 143.022C56.9356 143.022 56.5625 143.893 56.5625 145.1V148.657H55.0824V144.813C55.0824 143.905 54.9953 143.022 53.9008 143.022C52.8062 143.022 52.4331 143.893 52.4331 145.1V148.657Z" fill="#061C35"/>
<path d="M156.049 20.6793L79.1663 30.2375C75.64 30.6807 72.4334 32.504 70.2496 35.3078C68.0658 38.1116 67.0829 41.667 67.5166 45.1943L91.5976 238.894C92.0407 242.42 93.8643 245.627 96.6681 247.81C99.472 249.994 103.027 250.977 106.555 250.543L183.434 240.985C186.96 240.542 190.166 238.719 192.35 235.915C194.534 233.111 195.517 229.556 195.083 226.029L171.002 32.3288C170.559 28.8035 168.736 25.5976 165.934 23.4139C163.131 21.2302 159.576 20.2468 156.049 20.6793Z" fill="#4C4C4C"/>
<path d="M106.119 246.746C103.598 247.059 101.055 246.36 99.0485 244.802C97.0418 243.244 95.735 240.953 95.4144 238.433L71.3318 44.7196C71.0267 42.1977 71.7334 39.6577 73.2972 37.6558C74.8611 35.6538 77.1545 34.3532 79.6753 34.0386L90.3951 32.7059L90.492 33.485C90.7423 35.4992 91.7808 37.332 93.38 38.5819C94.9791 39.8319 97.0085 40.3972 99.0236 40.1539L139.256 35.1521C141.273 34.8954 143.105 33.8513 144.354 32.2477C145.603 30.6442 146.167 28.6116 145.922 26.5939L145.825 25.8148L156.541 24.4826C159.059 24.1743 161.597 24.8762 163.599 26.4347C165.601 27.9932 166.904 30.2813 167.223 32.7983L191.306 226.512C191.613 229.03 190.91 231.568 189.35 233.569C187.791 235.57 185.502 236.872 182.985 237.19L106.119 246.746Z" fill="#191919"/>
<path d="M107.492 220.329C104.039 220.763 101.592 223.914 102.026 227.366C102.46 230.818 105.61 233.265 109.063 232.831C112.515 232.397 114.962 229.247 114.528 225.795C114.094 222.343 110.944 219.896 107.492 220.329Z" fill="#4C4C4C"/>
<path d="M105.95 228.389L105.393 223.952C105.233 222.677 106.145 221.502 107.421 221.342L107.811 221.293C109.087 221.132 110.262 222.045 110.422 223.32L110.979 227.757L105.95 228.389Z" fill="#340E00"/>
<path d="M111.108 227.745L105.836 228.403C105.041 228.752 104.53 229.596 104.643 230.5L104.812 231.839C106.022 232.638 107.511 233.025 109.062 232.83C110.613 232.635 111.96 231.891 112.935 230.819L112.766 229.479C112.653 228.581 111.958 227.893 111.108 227.745Z" fill="#824D65"/>
<path d="M110.502 227.733C109.438 227.867 109.313 226.874 109.198 225.961L109.055 224.822L107.057 225.073L107.2 226.213C107.315 227.125 107.369 228.127 106.376 228.252C106.18 228.277 105.994 228.329 105.822 228.405C106.44 229.289 107.514 229.81 108.658 229.666C109.801 229.522 110.712 228.754 111.093 227.747C110.902 227.714 110.703 227.708 110.502 227.733Z" fill="#EFD6CE"/>
<path d="M108.725 227.918C109.024 227.88 109.306 227.648 109.537 227.308C109.327 226.958 109.261 226.447 109.199 225.957L109.056 224.818L107.058 225.069L107.201 226.209C107.23 226.442 107.255 226.681 107.26 226.91C107.679 227.539 108.244 227.978 108.725 227.918Z" fill="#D3B6AE"/>
<path d="M109.291 223.328C109.008 223.607 108.597 223.839 108.113 223.965C107.484 224.128 106.877 224.074 106.457 223.86C106.447 224.063 106.17 224.502 106.091 224.546C106.069 224.635 106.062 224.738 106.076 224.848C106.113 225.143 106.284 225.364 106.459 225.347C106.812 226.407 107.675 227.344 108.366 227.258C109.056 227.171 109.66 226.049 109.74 224.935C109.914 224.908 110.025 224.651 109.988 224.356C109.974 224.25 109.944 224.154 109.902 224.075C109.672 223.98 109.386 223.625 109.291 223.328Z" fill="#EFD6CE"/>
<path d="M104.876 192.938C101.427 193.393 98.999 196.558 99.4541 200.008C99.9092 203.458 103.074 205.885 106.524 205.43C109.974 204.975 112.401 201.81 111.946 198.36C111.491 194.91 108.326 192.483 104.876 192.938Z" fill="#4C4C4C"/>
<path d="M108.5 199.978L108.492 199.985C108.492 199.983 108.492 199.981 108.492 199.979C108.301 199.947 107.508 199.708 107.301 199.602L104.259 199.959C104.091 200.156 103.397 200.593 103.225 200.669C103.225 200.67 103.226 200.671 103.226 200.671C102.437 201.027 101.741 202.041 101.86 202.941L102.157 204.391C103.392 205.233 104.928 205.641 106.526 205.43C108.13 205.219 109.512 204.421 110.487 203.281L110.399 201.814C110.281 200.918 109.351 200.12 108.5 199.978Z" fill="#4CB7FF"/>
<path d="M104.25 199.961C104.503 199.622 104.627 199.569 104.5 198.607C104.373 197.644 106.673 197.329 106.801 198.303C106.93 199.278 107.008 199.463 107.292 199.604C107.292 199.604 107.499 200.722 105.93 200.929C104.361 201.136 104.25 199.961 104.25 199.961Z" fill="#EFD6CE"/>
<path d="M105.508 200.148C105.689 200.237 105.932 200.2 106.101 200.178C106.274 200.155 106.519 200.126 106.673 199.99C106.789 199.888 106.927 199.67 107.056 199.39C106.95 199.217 106.888 198.917 106.807 198.299C106.678 197.324 104.379 197.64 104.506 198.602C104.53 198.787 104.545 198.939 104.552 199.065C104.87 199.598 105.262 200.028 105.508 200.148Z" fill="#D3B6AE"/>
<path d="M107.113 196.583C106.625 194.631 106.113 194.603 105.163 194.728C104.213 194.854 103.726 195.014 103.76 197.025C103.608 197.082 103.516 197.321 103.552 197.595C103.592 197.893 103.767 198.116 103.944 198.092C103.964 198.09 103.983 198.083 104 198.075C104.33 198.834 104.903 199.525 105.227 199.683C105.408 199.771 105.65 199.735 105.82 199.713C105.992 199.69 106.238 199.66 106.392 199.525C106.655 199.293 107.03 198.476 107.152 197.659C107.172 197.662 107.192 197.664 107.212 197.661C107.389 197.638 107.501 197.377 107.461 197.079C107.425 196.806 107.275 196.598 107.113 196.583Z" fill="#EFD6CE"/>
<path d="M104.127 197.738C104.059 197.222 104.063 197.204 104.105 196.929C105.635 196.476 106.035 195.894 106.443 195.637C106.833 195.96 106.876 196.659 106.969 197.363C107.231 197.326 106.946 196.643 107.216 196.608C107.018 195.352 107.09 194.923 106.331 194.453C105.579 193.987 104.646 194.368 103.994 194.885C103.368 195.382 103.542 195.683 103.723 197.05C104.015 197.086 103.869 197.772 104.127 197.738Z" fill="#838383"/>
<path d="M102.236 167.458C98.7893 167.939 96.3849 171.122 96.865 174.568C97.3452 178.014 100.528 180.418 103.974 179.938C107.421 179.458 109.825 176.275 109.345 172.829C108.865 169.383 105.682 166.978 102.236 167.458Z" fill="#4C4C4C"/>
<path d="M105.905 174.471L105.897 174.478C105.897 174.476 105.897 174.474 105.897 174.472C105.705 174.442 104.91 174.208 104.703 174.104L103.449 176.141L101.664 174.483C101.497 174.682 100.806 175.123 100.634 175.201C100.635 175.202 100.635 175.202 100.636 175.203C99.8489 175.564 99.1606 176.583 99.2858 177.482L99.5935 178.931C100.835 179.763 102.374 180.16 103.97 179.938C105.572 179.714 106.949 178.906 107.916 177.759L107.817 176.294C107.692 175.398 106.756 174.607 105.905 174.471Z" fill="#DFBDCC"/>
<path d="M101.676 174.481C101.926 174.14 102.049 174.087 101.915 173.125C101.781 172.164 104.079 171.831 104.214 172.805C104.35 173.779 104.43 173.963 104.714 174.102L103.46 176.14L101.676 174.481Z" fill="#875744"/>
<path opacity="0.256859" d="M102.914 174.665C103.095 174.753 103.338 174.714 103.507 174.69C103.679 174.666 103.925 174.635 104.078 174.499C104.193 174.395 104.329 174.177 104.456 173.896C104.348 173.723 104.285 173.423 104.199 172.806C104.063 171.833 101.766 172.165 101.9 173.127C101.925 173.312 101.942 173.463 101.949 173.589C102.272 174.12 102.666 174.547 102.914 174.665Z" fill="black"/>
<path d="M104.503 171.089C104.001 169.141 103.488 169.116 102.539 169.249C101.59 169.381 101.036 169.584 101.085 171.595C100.934 171.653 100.889 171.86 100.95 172.126C101.017 172.42 101.169 172.646 101.346 172.621C101.365 172.618 101.384 172.612 101.401 172.603C101.736 173.36 102.315 174.047 102.64 174.203C102.821 174.29 103.064 174.251 103.233 174.228C103.405 174.204 103.651 174.173 103.804 174.036C104.065 173.802 104.433 172.983 104.55 172.165C104.57 172.168 104.59 172.169 104.61 172.166C104.786 172.142 104.897 171.88 104.855 171.582C104.817 171.309 104.665 171.103 104.503 171.089Z" fill="#875744"/>
<path d="M101.519 172.263C101.447 171.748 101.345 171.1 101.438 170.824C101.531 170.548 103.15 169.641 104.089 170.455C104.243 170.876 104.259 171.164 104.357 171.868C104.616 171.832 104.317 171.154 104.587 171.116C104.619 170.488 104.728 168.554 102.276 168.834C101.661 168.904 101.057 168.912 101.057 168.912C101.057 168.912 100.818 169.353 100.831 170.012C100.844 170.67 101.082 171.595 101.082 171.595C101.373 171.628 101.26 172.299 101.519 172.263Z" fill="#241E20"/>
<path d="M99.5946 142.147C96.1457 142.607 93.7233 145.777 94.1839 149.225C94.6446 152.674 97.8138 155.097 101.263 154.636C104.712 154.175 107.134 151.006 106.673 147.557C106.213 144.108 103.044 141.686 99.5946 142.147Z" fill="#4C4C4C"/>
<path d="M98.1198 150.216L97.5279 145.784C97.3578 144.51 98.2608 143.329 99.5351 143.158L99.9257 143.106C101.2 142.936 102.382 143.839 102.552 145.113L103.144 149.545L98.1198 150.216Z" fill="#C6AC9F"/>
<path d="M103.277 149.538L98.0108 150.237C97.2179 150.592 96.7133 151.44 96.8338 152.342L97.0126 153.681C98.2289 154.47 99.7212 154.846 101.271 154.639C102.82 154.432 104.161 153.677 105.128 152.597L104.949 151.258C104.829 150.362 104.128 149.679 103.277 149.538Z" fill="#BF4C80"/>
<path d="M102.668 149.527C101.605 149.669 101.473 148.677 101.351 147.765L101.199 146.627L99.2025 146.893L99.3545 148.032C99.4763 148.944 99.5385 149.945 98.5459 150.078C98.3503 150.104 98.165 150.158 97.9932 150.235C98.6182 151.114 99.6964 151.626 100.84 151.474C101.981 151.321 102.886 150.546 103.259 149.536C103.068 149.504 102.869 149.5 102.668 149.527Z" fill="#EFD6CE"/>
<path d="M100.9 149.726C101.198 149.686 101.478 149.452 101.707 149.11C101.494 148.762 101.424 148.251 101.359 147.762L101.207 146.624L99.2102 146.891L99.3623 148.029C99.3934 148.262 99.4206 148.501 99.4271 148.73C99.8503 149.356 100.419 149.79 100.9 149.726Z" fill="#D3B6AE"/>
<path d="M101.403 145.124C101.122 145.405 100.712 145.64 100.229 145.77C99.6019 145.938 98.9943 145.889 98.5727 145.678C98.5649 145.881 98.2907 146.322 98.2126 146.367C98.1909 146.456 98.1849 146.559 98.1995 146.669C98.2389 146.964 98.4117 147.184 98.5868 147.165C98.9477 148.223 99.8181 149.153 100.508 149.061C101.198 148.968 101.793 147.842 101.864 146.728C102.038 146.699 102.147 146.442 102.107 146.147C102.093 146.041 102.062 145.945 102.019 145.866C101.789 145.773 101.5 145.42 101.403 145.124Z" fill="#EFD6CE"/>
<path d="M93.6488 93.9233C90.1999 94.3839 87.7775 97.5531 88.2381 101.002C88.6988 104.451 91.868 106.873 95.3169 106.412C98.7658 105.952 101.188 102.783 100.728 99.3339C100.267 95.885 97.0977 93.4626 93.6488 93.9233Z" fill="#4C4C4C"/>
<path d="M97.2734 100.961L97.2657 100.967C97.2655 100.965 97.2655 100.964 97.2653 100.962C97.0742 100.931 96.2806 100.692 96.0737 100.587L93.0328 100.948C92.8647 101.146 92.171 101.584 91.9992 101.661C91.9999 101.661 92.0002 101.662 92.0006 101.663C91.2116 102.02 90.5175 103.035 90.6377 103.934L90.9374 105.384C92.1735 106.224 93.7102 106.63 95.3079 106.416C96.9116 106.202 98.2926 105.402 99.2658 104.261L99.1752 102.794C99.0554 101.898 98.1243 101.102 97.2734 100.961Z" fill="#BD95A7"/>
<path d="M93.0338 100.945C93.2856 100.605 93.41 100.552 93.2815 99.5899C93.1529 98.6276 95.4518 98.3084 95.5819 99.2826C95.7121 100.257 95.7906 100.442 96.0743 100.583C96.0743 100.583 96.2837 101.7 94.715 101.91C93.1462 102.119 93.0338 100.945 93.0338 100.945Z" fill="#EFD6CE"/>
<path d="M94.2989 101.134C94.4801 101.223 94.7225 101.185 94.892 101.163C95.0642 101.14 95.3099 101.11 95.4634 100.974C95.5795 100.872 95.717 100.654 95.8452 100.373C95.7387 100.201 95.6768 99.9003 95.5943 99.2827C95.4642 98.3085 93.165 98.6277 93.2936 99.59C93.3183 99.775 93.3337 99.9262 93.3406 100.053C93.6598 100.585 94.0522 101.014 94.2989 101.134Z" fill="#D3B6AE"/>
<path d="M95.8933 97.5676C95.4018 95.6169 94.8897 95.5897 93.9399 95.7165C92.9901 95.8434 92.5032 96.004 92.5408 98.0154C92.3889 98.0721 92.2976 98.3119 92.3341 98.5853C92.374 98.8834 92.5499 99.1059 92.7271 99.0822C92.7468 99.0796 92.7652 99.0732 92.783 99.0648C93.1137 99.8234 93.6882 100.514 94.0121 100.671C94.1932 100.759 94.4357 100.722 94.6055 100.7C94.7774 100.677 95.0234 100.647 95.1769 100.511C95.4396 100.278 95.8129 99.4615 95.9342 98.644C95.9538 98.6473 95.9735 98.6486 95.9935 98.6459C96.1708 98.6223 96.2821 98.3614 96.2423 98.0633C96.2058 97.7899 96.0548 97.5825 95.8933 97.5676Z" fill="#EFD6CE"/>
<path d="M92.9066 98.7247C92.8376 98.2085 92.8414 98.1905 92.8833 97.9152C94.4116 97.4602 94.8116 96.8772 95.2192 96.6197C95.6089 96.942 95.6531 97.6411 95.7471 98.3453C96.0096 98.3077 95.7231 97.6255 95.9931 97.5894C95.7937 96.3335 95.8645 95.9044 95.1052 95.4358C94.352 94.9708 93.4199 95.3535 92.769 95.8719C92.1436 96.37 92.3183 96.6701 92.5015 98.0377C92.7929 98.0726 92.6482 98.7592 92.9066 98.7247Z" fill="#C6AC9F"/>
<path d="M151.492 88.7672L107.069 94.2625L107.456 97.3908L151.879 91.8956L151.492 88.7672Z" fill="#4C4C4C"/>
<path d="M131.151 98.9112L108.001 101.775L108.388 104.903L131.538 102.04L131.151 98.9112Z" fill="#4C4C4C"/>
<path d="M164.056 110.582L109.623 117.315L110.01 120.444L164.443 113.71L164.056 110.582Z" fill="#4C4C4C"/>
<path d="M138.922 121.319L110.555 124.828L110.942 127.956L139.309 124.447L138.922 121.319Z" fill="#4C4C4C"/>
<path d="M156.677 136.291L112.254 141.786L112.641 144.915L157.064 139.419L156.677 136.291Z" fill="#4C4C4C"/>
<path d="M136.337 146.435L113.187 149.299L113.574 152.427L136.724 149.563L136.337 146.435Z" fill="#4C4C4C"/>
<path d="M159.383 162.194L114.96 167.69L115.347 170.818L159.77 165.323L159.383 162.194Z" fill="#4C4C4C"/>
<path d="M139.043 172.338L115.893 175.202L116.28 178.331L139.43 175.467L139.043 172.338Z" fill="#4C4C4C"/>
<path d="M172.657 186.958L117.598 193.769L117.985 196.897L173.044 190.086L172.657 186.958Z" fill="#4C4C4C"/>
<path d="M147.221 197.732L118.528 201.281L118.915 204.41L147.608 200.86L147.221 197.732Z" fill="#4C4C4C"/>
<path d="M164.655 215.148L120.232 220.643L120.619 223.771L165.042 218.276L164.655 215.148Z" fill="#4C4C4C"/>
<path d="M144.315 225.291L121.165 228.155L121.552 231.283L144.702 228.419L144.315 225.291Z" fill="#4C4C4C"/>
<rect x="75.6228" y="80.0232" width="96.5113" height="9.45666" transform="rotate(-7.12135 75.6228 80.0232)" fill="#282828"/>
<path d="M81.5892 69.2063C81.4143 67.805 82.6662 66.4949 84.3855 66.2803L122.572 61.5131C124.291 61.2985 125.827 62.2605 126.002 63.6619C126.177 65.0632 124.925 66.3732 123.205 66.5879L85.019 71.3551C83.2997 71.5697 81.7642 70.6077 81.5892 69.2063Z" fill="#4C4C4C"/>
<path d="M156.447 221.863C156.804 224.722 159.411 226.75 162.27 226.393L176.158 224.659C179.017 224.303 181.045 221.696 180.688 218.837C180.331 215.978 177.724 213.95 174.866 214.306L160.977 216.04C158.118 216.397 156.09 219.004 156.447 221.863Z" fill="#4CB7FF"/>
<path d="M155.369 59.2544C155.603 61.124 157.371 62.4426 159.318 62.1994C161.266 61.9563 162.655 60.2436 162.422 58.374L162.387 58.0919C162.153 56.2222 160.385 54.9037 158.438 55.1468C156.49 55.39 155.101 57.1027 155.334 58.9723L155.369 59.2544Z" fill="#4CB7FF"/>
<path d="M97.3933 54.067C97.6109 55.8102 99.2005 57.047 100.944 56.8293L130.74 53.1095C132.484 52.8919 133.72 51.3023 133.503 49.559C133.285 47.8158 131.696 46.579 129.952 46.7967L100.156 50.5165C98.4124 50.7341 97.1757 52.3237 97.3933 54.067Z" fill="#4C4C4C"/>
<path d="M152.953 47.2381C153.161 48.9117 154.687 50.0989 156.361 49.89C158.034 49.6811 159.222 48.1551 159.013 46.4816L158.981 46.2291C158.772 44.5555 157.246 43.3683 155.573 43.5772C153.899 43.7861 152.712 45.3121 152.921 46.9856L152.953 47.2381Z" fill="#666666"/>
<path d="M143.373 48.1631C143.606 50.0327 145.374 51.3512 147.321 51.1081C149.269 50.865 150.659 49.1523 150.425 47.2826L150.39 47.0005C150.157 45.1309 148.389 43.8124 146.441 44.0555C144.493 44.2987 143.104 46.0114 143.337 47.881L143.373 48.1631Z" fill="#4CB7FF"/>
<path d="M79.7187 56.0217C79.9521 57.8914 81.7201 59.2099 83.6676 58.9668C85.6152 58.7236 87.0047 57.0109 86.7713 55.1413L86.7361 54.8592C86.5027 52.9896 84.7347 51.671 82.7872 51.9142C80.8397 52.1573 79.4501 53.87 79.6835 55.7396L79.7187 56.0217Z" fill="#4CB7FF"/>
<path d="M96.4445 116.715C92.9955 117.175 90.5731 120.345 91.0338 123.794C91.4944 127.243 94.6636 129.665 98.1126 129.204C101.561 128.743 103.984 125.574 103.523 122.125C103.062 118.677 99.8934 116.254 96.4445 116.715Z" fill="#4C4C4C"/>
<path d="M96.7761 117.675L96.3852 117.727C95.1112 117.897 94.2079 119.079 94.378 120.353L94.5525 121.659C94.7227 122.933 95.9045 123.836 97.1785 123.666L97.5694 123.614C98.8434 123.444 99.7465 122.262 99.5763 120.988L99.4018 119.682C99.2317 118.408 98.0501 117.504 96.7761 117.675Z" fill="#241E20"/>
<path d="M99.5183 124.096C98.4555 124.238 98.323 123.245 98.2012 122.334L98.0491 121.195L96.0528 121.462L96.2049 122.6C96.3267 123.512 96.3886 124.514 95.3963 124.646C95.2007 124.672 95.0154 124.726 94.8433 124.803C95.4683 125.682 96.5467 126.195 97.6899 126.042C98.8314 125.89 99.7361 125.114 100.11 124.105C99.9185 124.073 99.7198 124.069 99.5183 124.096Z" fill="#D7AD83"/>
<path d="M100.128 124.106C99.7545 125.116 98.8497 125.891 97.7082 126.044C96.565 126.197 95.4866 125.684 94.8616 124.805C94.0687 125.16 93.5641 126.008 93.6846 126.911L93.8634 128.249C95.0797 129.038 96.5717 129.414 98.1213 129.207C99.6707 129 101.012 128.246 101.978 127.165L101.8 125.827C101.68 124.93 100.979 124.247 100.128 124.106Z" fill="#4CB7FF"/>
<path d="M97.7497 124.295C98.0481 124.255 98.3283 124.02 98.5569 123.678C98.3436 123.33 98.2737 122.82 98.2084 122.331L98.0564 121.192L96.0601 121.459L96.2121 122.597C96.2433 122.831 96.2704 123.07 96.2769 123.298C96.7001 123.924 97.2688 124.359 97.7497 124.295Z" fill="#C59264"/>
<path d="M97.7059 119.479C97.5952 120.058 95.7214 120.853 95.2586 120.677C95.1093 120.737 95.019 120.973 95.0552 121.244C95.0946 121.539 95.2673 121.759 95.4427 121.74C95.8036 122.797 96.6741 123.728 97.3639 123.636C98.0534 123.543 98.6492 122.417 98.72 121.303C98.894 121.274 99.0027 121.017 98.9633 120.722C98.9494 120.617 98.9184 120.523 98.8772 120.445C98.6119 120.36 98.0054 120.028 97.7059 119.479Z" fill="#D7AD83"/>
<path d="M156.081 43.0491C154.082 43.3162 152.677 45.1537 152.944 47.1535C153.211 49.1532 155.049 50.5575 157.049 50.2904C159.048 50.0234 160.453 48.186 160.186 46.1863C159.919 44.1866 158.081 42.782 156.081 43.0491Z" fill="#4CB7FF"/>
<path d="M156.264 43.6094L156.037 43.6397C155.298 43.7384 154.775 44.4236 154.873 45.1623L154.974 45.9196C155.073 46.6585 155.758 47.1821 156.497 47.0834L156.724 47.0531C157.462 46.9545 157.986 46.2694 157.887 45.5306L157.786 44.7732C157.687 44.0345 157.002 43.5108 156.264 43.6094Z" fill="#D0BE7C"/>
<path d="M157.861 47.3295C157.245 47.4118 157.168 46.8366 157.098 46.308L157.01 45.6479L155.852 45.8025L155.94 46.4626C156.011 46.9912 156.047 47.5719 155.472 47.6487C155.358 47.6638 155.251 47.6952 155.151 47.7399C155.513 48.2496 156.139 48.5467 156.801 48.4582C157.463 48.3698 157.988 47.9202 158.204 47.3348C158.094 47.3164 157.978 47.3139 157.861 47.3295Z" fill="#EFD6CE"/>
<path d="M158.213 47.3322C157.996 47.9177 157.472 48.3671 156.81 48.4555C156.147 48.544 155.522 48.247 155.159 47.7372C154.7 47.9432 154.407 48.4349 154.477 48.9581L154.581 49.7341C155.286 50.1915 156.151 50.4095 157.049 50.2895C157.948 50.1696 158.725 49.7321 159.286 49.1057L159.182 48.3297C159.113 47.8099 158.706 47.4138 158.213 47.3322Z" fill="#FF5B97"/>
<path d="M156.832 47.4423C157.005 47.4192 157.167 47.2832 157.3 47.0848C157.176 46.8831 157.136 46.5871 157.098 46.3036L157.01 45.6435L155.852 45.7981L155.94 46.4582C155.958 46.5935 155.974 46.732 155.978 46.8647C156.223 47.2276 156.553 47.4795 156.832 47.4423Z" fill="#D3B6AE"/>
<path d="M156.815 44.6466C156.751 44.9822 155.665 45.4428 155.396 45.3412C155.31 45.3756 155.257 45.5124 155.278 45.6695C155.301 45.8405 155.401 45.9682 155.503 45.9575C155.712 46.5704 156.217 47.1098 156.617 47.0564C157.017 47.003 157.362 46.3501 157.403 45.7037C157.504 45.6873 157.567 45.5379 157.544 45.3668C157.536 45.3063 157.518 45.2518 157.494 45.2064C157.341 45.1573 156.989 44.9644 156.815 44.6466Z" fill="#EFD6CE"/>
<rect x="221.216" y="100.476" width="35.5366" height="35.5366" rx="3.55366" transform="rotate(-7.24 221.216 100.476)" fill="#333333"/>
<path opacity="0.50372" fill-rule="evenodd" clip-rule="evenodd" d="M234.964 105.803C234.863 105.01 235.566 104.344 236.361 104.48L249.967 106.807C250.486 106.895 250.885 107.309 250.951 107.827L252.584 120.687C252.685 121.48 251.982 122.145 251.187 122.009L237.581 119.683C237.062 119.594 236.663 119.18 236.597 118.663L234.964 105.803Z" fill="#C2F1F9"/>
<path opacity="0.8" fill-rule="evenodd" clip-rule="evenodd" d="M232.271 108.421C232.17 107.628 232.874 106.962 233.669 107.098L247.275 109.425C247.794 109.514 248.193 109.927 248.258 110.445L249.892 123.305C249.993 124.098 249.29 124.763 248.494 124.627L234.889 122.301C234.37 122.212 233.971 121.799 233.905 121.281L232.271 108.421Z" fill="#8AE3F3"/>
<path fill-rule="evenodd" clip-rule="evenodd" d="M229.579 111.039C229.478 110.246 230.181 109.581 230.977 109.717L244.582 112.043C245.101 112.132 245.5 112.546 245.566 113.063L247.2 125.923C247.3 126.716 246.597 127.382 245.802 127.246L232.196 124.919C231.677 124.831 231.278 124.417 231.213 123.899L229.579 111.039Z" fill="#36D0EB"/>
<path fill-rule="evenodd" clip-rule="evenodd" d="M235.215 121.465L239.071 122.133L239.01 121.653L235.776 121.103L237.218 119.233C237.596 118.734 237.85 118.306 237.98 117.951C238.109 117.595 238.154 117.256 238.113 116.933C238.04 116.361 237.825 115.887 237.467 115.513C237.11 115.14 236.651 114.918 236.09 114.845C235.723 114.797 235.407 114.844 235.142 114.985C234.877 115.125 234.687 115.341 234.571 115.633C234.455 115.924 234.421 116.259 234.469 116.639L234.97 116.711C234.911 116.246 234.99 115.885 235.207 115.628C235.424 115.37 235.738 115.268 236.151 115.323C236.549 115.377 236.878 115.545 237.137 115.828C237.396 116.113 237.554 116.473 237.609 116.908C237.644 117.185 237.613 117.461 237.516 117.734C237.44 117.946 237.305 118.196 237.112 118.483L236.932 118.737L235.16 121.039L235.215 121.465ZM241.862 122.616L242.37 122.704L241.469 115.618L241.385 115.607L239.411 116.215L239.479 116.751L241.056 116.273L241.862 122.616Z" fill="white"/>
<path fill-rule="evenodd" clip-rule="evenodd" d="M236.585 120.788L237.575 119.503L237.575 119.503L237.578 119.5C237.968 118.985 238.251 118.517 238.403 118.102L238.403 118.102C238.553 117.69 238.611 117.279 238.559 116.876C238.476 116.222 238.225 115.657 237.794 115.206L237.794 115.205C237.359 114.752 236.802 114.488 236.15 114.403C235.711 114.346 235.295 114.397 234.93 114.592C234.566 114.785 234.305 115.086 234.152 115.47C234.003 115.845 233.967 116.258 234.023 116.696C234.048 116.895 234.204 117.052 234.404 117.08L234.905 117.152C235.044 117.172 235.185 117.126 235.285 117.029C235.386 116.931 235.434 116.792 235.417 116.654C235.367 116.262 235.444 116.042 235.552 115.913L235.553 115.913C235.647 115.801 235.791 115.725 236.089 115.765C236.387 115.805 236.618 115.925 236.803 116.128C236.992 116.335 237.117 116.607 237.163 116.965C237.189 117.171 237.166 117.376 237.092 117.586M236.585 120.788L239.087 121.213C239.282 121.247 239.432 121.402 239.457 121.596L239.518 122.076C239.536 122.217 239.485 122.357 239.381 122.455C239.278 122.553 239.133 122.596 238.993 122.572L235.136 121.904C234.942 121.871 234.793 121.716 234.768 121.522L234.714 121.095C234.699 120.979 234.731 120.862 234.803 120.769L236.569 118.474L236.741 118.232C236.921 117.963 237.033 117.749 237.091 117.586M241.253 115.182C241.315 115.162 241.381 115.157 241.445 115.165L241.529 115.176C241.732 115.203 241.89 115.361 241.916 115.562L242.816 122.647C242.834 122.787 242.783 122.928 242.68 123.026C242.576 123.124 242.432 123.167 242.291 123.143L241.784 123.055C241.589 123.021 241.44 122.866 241.416 122.673L240.676 116.854L239.61 117.177C239.483 117.215 239.346 117.197 239.234 117.125C239.123 117.054 239.049 116.938 239.033 116.807L238.965 116.271C238.937 116.057 239.07 115.853 239.279 115.789L241.253 115.182Z" fill="white"/>
<rect y="32.0676" width="35.5366" height="35.5366" rx="7.10733" transform="rotate(-7.24 0 32.0676)" fill="#333333"/>
<path opacity="0.504232" fill-rule="evenodd" clip-rule="evenodd" d="M14.6339 37.2912C14.5262 36.4433 15.3166 35.7589 16.1406 35.9866L18.2972 36.5822C18.6273 36.6734 18.9025 36.9015 19.0533 37.2089L20.1697 39.4847C20.3494 39.8511 20.7035 40.1006 21.1091 40.1468L29.894 41.1477C30.4421 41.2101 30.8766 41.6389 30.9461 42.1861L32.2087 52.1247C32.3102 52.9237 31.6094 53.5929 30.8158 53.4549L17.2396 51.0958C16.7218 51.0058 16.3232 50.5887 16.257 50.0674L14.6339 37.2912Z" fill="#A2BFFF"/>
<path opacity="0.8" fill-rule="evenodd" clip-rule="evenodd" d="M11.9664 40.0434C11.8587 39.1955 12.6491 38.5111 13.4732 38.7388L15.6297 39.3344C15.9598 39.4256 16.235 39.6537 16.3858 39.9611L17.5022 42.2369C17.682 42.6033 18.036 42.8528 18.4416 42.899L27.2265 43.8999C27.7746 43.9623 28.2091 44.3911 28.2786 44.9383L29.5412 54.8769C29.6427 55.6759 28.942 56.345 28.1483 56.2071L14.5722 53.848C14.0543 53.758 13.6557 53.3409 13.5895 52.8196L11.9664 40.0434Z" fill="#A0BDFF"/>
<path fill-rule="evenodd" clip-rule="evenodd" d="M9.25355 42.4392C9.14583 41.5912 9.93618 40.9069 10.7603 41.1345L12.9168 41.7302C13.2469 41.8214 13.5221 42.0495 13.6729 42.3568L14.7893 44.6326C14.9691 44.999 15.3231 45.2486 15.7287 45.2948L24.5136 46.2956C25.0618 46.3581 25.4962 46.7869 25.5657 47.334L26.8283 57.2727C26.9298 58.0716 26.2291 58.7408 25.4354 58.6029L11.8593 56.2437C11.3414 56.1537 10.9428 55.7366 10.8766 55.2153L9.25355 42.4392Z" fill="#1A47FF"/>
<path fill-rule="evenodd" clip-rule="evenodd" d="M7.17429 48.5051C6.7395 47.64 7.45842 46.6436 8.4167 46.7831L22.0792 48.7713C22.4916 48.8313 22.8432 49.1014 23.0073 49.4845L26.598 57.8664C26.7851 58.303 26.4132 58.7731 25.9451 58.6917L11.582 56.1958C11.2083 56.1309 10.8876 55.8928 10.7173 55.554L7.17429 48.5051Z" fill="#5287FF"/>
<rect x="24.8757" y="239.957" width="35.5366" height="35.5366" rx="3.55366" transform="rotate(-7.24 24.8757 239.957)" fill="#333333"/>
<path fill-rule="evenodd" clip-rule="evenodd" d="M38.6901 243.801C38.5928 243.036 39.2577 242.395 40.0118 242.528L52.9103 244.804C53.4023 244.89 53.7814 245.291 53.8448 245.79L55.8556 261.618C55.9529 262.384 55.288 263.025 54.534 262.892L41.6354 260.616C41.1434 260.529 40.7644 260.129 40.7009 259.629L38.6901 243.801Z" fill="#C79BFF" fill-opacity="0.3"/>
<path opacity="0.8" fill-rule="evenodd" clip-rule="evenodd" d="M36.1591 246.436C36.0618 245.67 36.7267 245.029 37.4808 245.163L50.3793 247.438C50.8713 247.525 51.2504 247.925 51.3138 248.425L53.3246 264.253C53.4219 265.019 52.757 265.659 52.0029 265.526L39.1044 263.251C38.6124 263.164 38.2334 262.764 38.1699 262.264L36.1591 246.436Z" fill="#CCAFEF"/>
<path fill-rule="evenodd" clip-rule="evenodd" d="M33.6278 249.07C33.5306 248.304 34.1955 247.664 34.9495 247.797L47.848 250.072C48.3401 250.159 48.7191 250.559 48.7826 251.059L50.7934 266.887C50.8906 267.653 50.2257 268.294 49.4717 268.16L36.5732 265.885C36.0812 265.798 35.7021 265.398 35.6386 264.898L33.6278 249.07Z" fill="#9D66E1"/>
<path d="M42.2266 249.081L43.176 256.555C43.1905 256.67 43.2724 256.766 43.3835 256.796C43.4946 256.827 43.613 256.787 43.6833 256.695L44.6515 255.433C44.6746 255.403 44.7086 255.384 44.7461 255.379C44.7835 255.374 44.8213 255.384 44.8512 255.408L46.1955 257.106C46.2865 257.177 46.4111 257.186 46.511 257.129C46.6109 257.071 46.6664 256.958 46.6516 256.843L45.7438 249.697L42.2266 249.081Z" fill="#6129C6"/>
<path fill-rule="evenodd" clip-rule="evenodd" d="M33.6167 248.982C33.5391 248.371 34.1608 247.692 34.8976 247.785L36.5 248.069L38.8131 266.277L36.4823 265.862C36.0318 265.744 35.696 265.349 35.6459 264.955L33.6167 248.982Z" fill="#6129C6"/>
<path d="M22.6528 68.7017L26.9509 102.516C27.4459 106.41 31.0038 109.165 34.8977 108.671L71.2344 104.052" stroke="#E7EFFD" stroke-width="0.888416" stroke-linecap="round" stroke-dasharray="7.11 7.11"/>
<path d="M42.9495 233.944L38.6537 200.129C38.159 196.235 40.9147 192.677 44.8086 192.182L81.1456 187.566" stroke="#E7EFFD" stroke-width="0.888416" stroke-linecap="round" stroke-dasharray="7.11 7.11"/>
<path d="M219.626 119.955L186.135 124.209" stroke="#E7EFFD" stroke-width="0.888416" stroke-linecap="round" stroke-dasharray="7.11 7.11"/>
<path d="M82.8276 267.192L82.4579 264.282L80.9662 264.472L81.3359 267.382L78.439 266.681L78.1239 268.113L81.0115 268.74L79.6042 271.354L81.0058 272.02L82.3549 269.339L84.4783 271.579L85.4944 270.581L83.5058 268.423L86.1937 267.087L85.4573 265.79L82.8276 267.192Z" fill="#E7EFFD"/>
<path d="M236.978 210.561L236.608 207.651L235.117 207.84L235.486 210.75L232.589 210.05L232.274 211.481L235.162 212.108L233.755 214.722L235.156 215.389L236.505 212.708L238.629 214.948L239.645 213.949L237.656 211.792L240.344 210.456L239.608 209.158L236.978 210.561Z" fill="#E7EFFD"/>
<path d="M91.7116 3.33247L91.3419 0.422471L89.8502 0.611972L90.2199 3.52197L87.3231 2.8215L87.008 4.25304L89.8955 4.88015L88.4882 7.49408L89.8899 8.16086L91.2389 5.47978L93.3623 7.71972L94.3784 6.72094L92.3898 4.56328L95.0777 3.22787L94.3413 1.92991L91.7116 3.33247Z" fill="#E7EFFD"/>
<path d="M20.6384 121.492L20.2687 118.582L18.777 118.771L19.1467 121.681L16.2498 120.981L15.9347 122.412L18.8223 123.039L17.4149 125.653L18.8166 126.32L20.1657 123.639L22.289 125.879L23.3052 124.88L21.3165 122.722L24.0045 121.387L23.2681 120.089L20.6384 121.492Z" fill="#E7EFFD"/>
<path d="M205.509 243.982L205.029 240.203L203.092 240.449L203.572 244.228L199.81 243.319L199.401 245.178L203.151 245.992L201.323 249.387L203.143 250.253L204.895 246.771L207.653 249.68L208.973 248.383L206.39 245.581L209.881 243.847L208.924 242.161L205.509 243.982Z" fill="#D8E8FD"/>
<path d="M247.145 22.9374L246.514 17.9703L243.968 18.2938L244.599 23.2608L239.654 22.0652L239.116 24.5087L244.045 25.5791L241.643 30.0408L244.036 31.1789L246.338 26.6026L249.963 30.426L251.697 28.7211L248.303 25.0382L252.891 22.7588L251.634 20.5434L247.145 22.9374Z" fill="#E7EFFD"/>
</svg>
