<svg width="24" height="24" viewBox="0 0 24 24" fill="none" xmlns="http://www.w3.org/2000/svg">
<path fill-rule="evenodd" clip-rule="evenodd" d="M12.0043 0C11.7854 0 11.5716 0.0661641 11.3916 0.189664C11.2116 0.313164 11.0738 0.488088 10.9967 0.691171L8.39334 8.00012H1.0791C0.859072 8.00011 0.644327 8.06693 0.463791 8.19156C0.283242 8.31621 0.145578 8.4927 0.0693458 8.69725C-0.00688679 8.90181 -0.018026 9.1246 0.0374287 9.33562C0.0928835 9.54665 0.212227 9.7358 0.379458 9.87753L6.53261 14.9321L3.95797 22.5967L3.95686 22.6C3.88663 22.8137 3.88633 23.044 3.95601 23.2579C4.0257 23.4719 4.16181 23.6585 4.3449 23.7912C4.52798 23.9239 4.7487 23.9959 4.97555 23.9969C5.20239 23.9979 5.42376 23.9279 5.60804 23.7968L12.0031 19.1492L18.391 23.7938C18.5751 23.9275 18.7974 23.9997 19.0257 24C19.254 24.0003 19.4764 23.9287 19.6609 23.7955C19.8455 23.6622 19.9825 23.4743 20.0521 23.2589C20.1218 23.0434 20.1205 22.8114 20.0485 22.5967L17.4738 14.9321L23.6196 9.88277L23.6259 9.87748C23.7931 9.73575 23.9125 9.54664 23.9679 9.33562C24.0234 9.1246 24.0123 8.90181 23.936 8.69725C23.8598 8.4927 23.7221 8.31621 23.5416 8.19156C23.361 8.06693 23.1463 8.00011 22.9262 8.00012H15.6132L13.0157 0.701508L13.0118 0.69121C12.9347 0.48813 12.797 0.313166 12.617 0.189664C12.437 0.0661641 12.2232 0 12.0043 0Z" fill="black"/>
</svg>
