<svg width="16" height="16" viewBox="0 0 16 16" fill="none" xmlns="http://www.w3.org/2000/svg">
<path d="M8 0C6.41775 0 4.87103 0.469191 3.55544 1.34824C2.23985 2.22729 1.21447 3.47672 0.608967 4.93853C0.00346629 6.40034 -0.15496 8.00887 0.153721 9.56072C0.462403 11.1126 1.22433 12.538 2.34315 13.6568C3.46197 14.7757 4.88743 15.5376 6.43928 15.8463C7.99113 16.155 9.59966 15.9965 11.0615 15.391C12.5233 14.7855 13.7727 13.7601 14.6518 12.4446C15.5308 11.129 16 9.58225 16 8C15.9976 5.87899 15.154 3.84552 13.6543 2.34574C12.1545 0.845963 10.121 0.00235276 8 0ZM7.92356 12.7004C7.74775 12.7004 7.57589 12.6483 7.42972 12.5506C7.28354 12.453 7.16961 12.3141 7.10233 12.1517C7.03505 11.9893 7.01745 11.8106 7.05175 11.6381C7.08605 11.4657 7.1707 11.3073 7.29502 11.183C7.41933 11.0587 7.57772 10.974 7.75014 10.9397C7.92257 10.9054 8.1013 10.923 8.26372 10.9903C8.42614 11.0576 8.56497 11.1715 8.66264 11.3177C8.76031 11.4639 8.81244 11.6357 8.81244 11.8116C8.81244 12.0473 8.7188 12.2734 8.5521 12.4401C8.3854 12.6068 8.1593 12.7004 7.92356 12.7004ZM9.11022 8.57333C8.95575 8.6405 8.82426 8.75131 8.73188 8.89216C8.63951 9.03302 8.59027 9.19778 8.59022 9.36622C8.59022 9.54303 8.51999 9.7126 8.39496 9.83762C8.26994 9.96265 8.10037 10.0329 7.92356 10.0329C7.74675 10.0329 7.57718 9.96265 7.45215 9.83762C7.32713 9.7126 7.25689 9.54303 7.25689 9.36622C7.25694 8.93843 7.38176 8.51995 7.61606 8.16203C7.85035 7.80411 8.18396 7.52229 8.576 7.35111C8.84567 7.23349 9.07854 7.04516 9.24995 6.80604C9.42136 6.56693 9.52495 6.28592 9.54975 5.99276C9.57455 5.6996 9.51964 5.40519 9.39083 5.14068C9.26201 4.87617 9.0641 4.65139 8.81801 4.49015C8.57193 4.3289 8.28683 4.23717 7.99289 4.22468C7.69895 4.21218 7.40709 4.27937 7.14821 4.41915C6.88932 4.55892 6.67304 4.76608 6.52224 5.0187C6.37144 5.27132 6.29173 5.56001 6.29156 5.85422C6.29156 6.03103 6.22132 6.2006 6.0963 6.32562C5.97127 6.45065 5.8017 6.52089 5.62489 6.52089C5.44808 6.52089 5.27851 6.45065 5.15349 6.32562C5.02846 6.2006 4.95822 6.03103 4.95822 5.85422C4.95851 5.31969 5.10327 4.79518 5.37719 4.33617C5.65112 3.87717 6.04402 3.50074 6.51433 3.24672C6.98464 2.99269 7.51487 2.87051 8.04892 2.89311C8.58297 2.91571 9.10098 3.08224 9.54815 3.37509C9.99532 3.66793 10.355 4.07621 10.5892 4.55671C10.8234 5.03722 10.9233 5.57208 10.8784 6.10472C10.8335 6.63737 10.6455 7.14797 10.3343 7.58253C10.023 8.01708 9.60008 8.35942 9.11022 8.57333Z" fill="#666666"/>
</svg>
