<svg width="24" height="24" viewBox="0 0 24 24" fill="none" xmlns="http://www.w3.org/2000/svg">
<path d="M3.83785 13.3877C3.90254 13.3748 3.96943 13.3749 4.03414 13.3877C4.04387 13.3896 4.05295 13.394 4.06246 13.3965C4.14589 13.4181 4.22572 13.4592 4.29098 13.5244L7.22262 16.457C7.41774 16.6522 7.41747 16.9688 7.22262 17.1641C7.02736 17.3593 6.71085 17.3593 6.51559 17.1641L4.43649 15.085V23.2461C4.43635 23.5221 4.21255 23.7461 3.93649 23.7461C3.66046 23.746 3.43662 23.5221 3.43649 23.2461V15.0869L1.35836 17.1641C1.1631 17.3593 0.846585 17.3593 0.651329 17.1641C0.456104 16.9688 0.456098 16.6523 0.651329 16.457L3.58297 13.5244C3.64786 13.4597 3.72667 13.4182 3.80953 13.3965C3.81904 13.394 3.82814 13.3896 3.83785 13.3877Z" fill="#BC0055"/>
<path d="M23.2011 22.7461C23.4771 22.7462 23.7011 22.97 23.7011 23.2461C23.701 23.522 23.4771 23.7459 23.2011 23.7461H11.3066C11.0305 23.7461 10.8067 23.5221 10.8066 23.2461C10.8066 22.97 11.0305 22.7461 11.3066 22.7461H23.2011Z" fill="#BC0055"/>
<path d="M23.2011 18.3037C23.4771 18.3039 23.7011 18.5277 23.7011 18.8037C23.7009 19.0795 23.477 19.3036 23.2011 19.3037H11.3066C11.0306 19.3037 10.8069 19.0796 10.8066 18.8037C10.8066 18.5276 11.0305 18.3037 11.3066 18.3037H23.2011Z" fill="#BC0055"/>
<path d="M23.2011 13.6992C23.4773 13.6992 23.7011 13.9231 23.7011 14.1992C23.7011 14.4753 23.4773 14.6992 23.2011 14.6992H15.8711C15.5949 14.6992 15.3711 14.4754 15.3711 14.1992C15.3711 13.9231 15.5949 13.6992 15.8711 13.6992H23.2011Z" fill="#BC0055"/>
<path d="M3.93649 0.503906C4.2124 0.503906 4.43611 0.728085 4.43649 1.00391V8.92871L6.51559 6.84961C6.71081 6.65505 7.02754 6.65481 7.22262 6.84961C7.41772 7.04475 7.4175 7.36234 7.22262 7.55762L4.29098 10.4893C4.22577 10.5545 4.14583 10.5955 4.06246 10.6172C4.05293 10.6197 4.04389 10.624 4.03414 10.626C3.96934 10.6388 3.90263 10.6389 3.83785 10.626C3.82812 10.624 3.81906 10.6197 3.80953 10.6172C3.72658 10.5954 3.64789 10.5542 3.58297 10.4893L0.651329 7.55762C0.456067 7.36235 0.456067 7.04487 0.651329 6.84961C0.846548 6.65504 1.16328 6.65482 1.35836 6.84961L3.43649 8.92773V1.00391C3.43686 0.728113 3.66061 0.503952 3.93649 0.503906Z" fill="#BC0055"/>
<path d="M23.2011 9.30078C23.4772 9.30083 23.7011 9.52472 23.7011 9.80078C23.7011 10.0769 23.4772 10.3007 23.2011 10.3008H11.4726C11.1965 10.3007 10.9726 10.0769 10.9726 9.80078C10.9727 9.52472 11.1966 9.30083 11.4726 9.30078H23.2011Z" fill="#BC0055"/>
<path d="M23.2011 4.72656C23.4771 4.72672 23.7011 4.95051 23.7011 5.22656C23.701 5.5025 23.4771 5.72641 23.2011 5.72656H11.3066C11.0305 5.72656 10.8067 5.50259 10.8066 5.22656C10.8066 4.95042 11.0305 4.72656 11.3066 4.72656H23.2011Z" fill="#BC0055"/>
<path d="M23.2011 0.269531C23.4773 0.269552 23.7011 0.493402 23.7011 0.769531C23.701 1.04553 23.4772 1.26951 23.2011 1.26953H15.8711C15.595 1.26953 15.3712 1.04554 15.3711 0.769531C15.3711 0.493389 15.5949 0.269531 15.8711 0.269531H23.2011Z" fill="#BC0055"/>
</svg>
