<svg width="24" height="24" viewBox="0 0 24 24" fill="none" xmlns="http://www.w3.org/2000/svg">
<path d="M12 13C11.724 13 11.5 12.792 11.5 12.5357V1.58507L7.854 4.97064C7.759 5.05886 7.634 5.10714 7.5 5.10714C7.366 5.10714 7.241 5.05886 7.146 4.97064C7.051 4.88243 7 4.76636 7 4.64286C7 4.51936 7.052 4.40236 7.146 4.31414L11.646 0.135571C11.692 0.0928571 11.747 0.0585 11.808 0.0352857C11.87 0.0120714 11.934 0 12 0C12.066 0 12.13 0.0120714 12.191 0.0352857C12.253 0.0594286 12.307 0.0928571 12.354 0.135571L16.854 4.31414C16.948 4.40236 17 4.51843 17 4.64286C17 4.76729 16.948 4.88336 16.854 4.97157C16.76 5.05979 16.634 5.10714 16.5 5.10714C16.366 5.10714 16.241 5.05886 16.146 4.97157L12.5 1.58507V12.5357C12.5 12.7911 12.276 13 12 13Z" fill="black"/>
<path d="M4.58824 24C3.71259 24 3 23.327 3 22.5V9.5C3 8.673 3.71259 8 4.58824 8H8.82353C9.11577 8 9.35294 8.224 9.35294 8.5C9.35294 8.776 9.11577 9 8.82353 9H4.58824C4.296 9 4.05882 9.224 4.05882 9.5V22.5C4.05882 22.776 4.296 23 4.58824 23H19.4118C19.704 23 19.9412 22.776 19.9412 22.5V9.5C19.9412 9.224 19.704 9 19.4118 9H15.1765C14.8842 9 14.6471 8.776 14.6471 8.5C14.6471 8.224 14.8842 8 15.1765 8H19.4118C20.2874 8 21 8.673 21 9.5V22.5C21 23.327 20.2874 24 19.4118 24H4.58824Z" fill="black"/>
</svg>
