<svg width="17" height="16" viewBox="0 0 17 16" fill="none" xmlns="http://www.w3.org/2000/svg">
<g clip-path="url(#clip0_2473_12584)">
<path d="M8.00317 0C8.27932 0 8.50317 0.223858 8.50317 0.5V1.5C8.50317 1.77614 8.27932 2 8.00317 2C7.72703 2 7.50317 1.77614 7.50317 1.5V0.5C7.50317 0.223858 7.72703 0 8.00317 0Z" fill="black"/>
<path fill-rule="evenodd" clip-rule="evenodd" d="M5.50317 11.831C4.77362 11.4212 4.15985 10.8306 3.72201 10.1143C3.24062 9.32676 2.99147 8.41924 3.00325 7.49628L3.00328 7.49409C3.02587 6.17716 3.55888 4.92045 4.48995 3.98883C5.42102 3.05721 6.67742 2.52346 7.99433 2.50008C8.00025 2.49997 8.00616 2.49997 8.01208 2.50008C9.32849 2.52343 10.5845 3.05677 11.5154 3.98776C12.4464 4.91875 12.9798 6.17472 13.0031 7.49113L13.0032 7.49332C13.0155 8.41678 12.7666 9.32493 12.2852 10.1131C11.8473 10.83 11.2332 11.421 10.5032 11.8311V14.5C10.5032 14.8978 10.3451 15.2794 10.0638 15.5607C9.78253 15.842 9.401 16 9.00317 16H7.00317C6.60535 16 6.22382 15.842 5.94251 15.5607C5.66121 15.2794 5.50317 14.8978 5.50317 14.5V11.831ZM6.50317 12V13H9.50317V12H6.50317ZM6.50317 14V14.5C6.50317 14.6326 6.55585 14.7598 6.64962 14.8536C6.74339 14.9473 6.87057 15 7.00317 15H9.00317C9.13578 15 9.26296 14.9473 9.35673 14.8536C9.4505 14.7598 9.50317 14.6326 9.50317 14.5V14H6.50317ZM5.19727 4.69572C5.94304 3.94951 6.94866 3.5211 8.00321 3.50009C9.05736 3.52108 10.0626 3.94917 10.8083 4.69487C11.5559 5.44239 11.9842 6.45076 12.0033 7.50771C12.0129 8.24236 11.8148 8.96479 11.4318 9.59179C11.0685 10.1866 10.5527 10.6726 9.93887 11H6.06755C5.45408 10.6728 4.93856 10.1872 4.57524 9.5928C4.19228 8.96627 3.99399 8.24436 4.00315 7.51014C4.02158 6.45275 4.44967 5.44377 5.19727 4.69572Z" fill="black"/>
<path d="M1.00317 7C0.727031 7 0.503174 7.22386 0.503174 7.5C0.503174 7.77614 0.727031 8 1.00317 8H2.00317C2.27932 8 2.50317 7.77614 2.50317 7.5C2.50317 7.22386 2.27932 7 2.00317 7H1.00317Z" fill="black"/>
<path d="M2.14264 2.15356C2.33398 1.95445 2.6505 1.94814 2.84961 2.13947L3.58294 2.84414C3.78206 3.03547 3.78837 3.35199 3.59704 3.5511C3.40571 3.75022 3.08919 3.75653 2.89007 3.5652L2.15674 2.86053C1.95762 2.6692 1.95131 2.35268 2.14264 2.15356Z" fill="black"/>
<path d="M14.0032 7C13.727 7 13.5032 7.22386 13.5032 7.5C13.5032 7.77614 13.727 8 14.0032 8H15.0032C15.2793 8 15.5032 7.77614 15.5032 7.5C15.5032 7.22386 15.2793 7 15.0032 7H14.0032Z" fill="black"/>
<path d="M13.8636 2.15356C14.055 2.35268 14.0487 2.6692 13.8495 2.86053L13.1162 3.5652C12.9171 3.75653 12.6006 3.75022 12.4092 3.5511C12.2179 3.35199 12.2242 3.03547 12.4233 2.84414L13.1567 2.13947C13.3558 1.94814 13.6723 1.95445 13.8636 2.15356Z" fill="black"/>
</g>
<defs>
<clipPath id="clip0_2473_12584">
<rect width="16" height="16" fill="white" transform="translate(0.00317383)"/>
</clipPath>
</defs>
</svg>
