<svg width="24" height="24" viewBox="0 0 24 24" fill="none" xmlns="http://www.w3.org/2000/svg">
<path fill-rule="evenodd" clip-rule="evenodd" d="M22 3H8C7.44772 3 7 3.44772 7 4V19C7 19.5523 7.44772 20 8 20H22C22.5523 20 23 19.5523 23 19V4C23 3.44772 22.5523 3 22 3ZM8 2C6.89543 2 6 2.89543 6 4V19C6 20.1046 6.89543 21 8 21H22C23.1046 21 24 20.1046 24 19V4C24 2.89543 23.1046 2 22 2H8Z" fill="black"/>
<path fill-rule="evenodd" clip-rule="evenodd" d="M1 5.8H2.4C3.1732 5.8 3.8 5.1732 3.8 4.4C3.8 3.6268 3.1732 3 2.4 3C1.6268 3 1 3.6268 1 4.4V5.8ZM2.4 2C1.07452 2 0 3.07452 0 4.4V6.8H2.4C3.72548 6.8 4.8 5.72548 4.8 4.4C4.8 3.07452 3.72548 2 2.4 2Z" fill="black"/>
</svg>
