<svg width="405" height="311" viewBox="0 0 405 311" fill="none" xmlns="http://www.w3.org/2000/svg">
<g filter="url(#filter0_d_6552_62653)">
<rect x="5" y="5" width="394" height="300" rx="10" fill="white"/>
</g>
<mask id="mask0_6552_62653" style="mask-type:alpha" maskUnits="userSpaceOnUse" x="5" y="5" width="394" height="300">
<rect x="5" y="5" width="394" height="300" rx="10" fill="#C4C4C4"/>
</mask>
<g mask="url(#mask0_6552_62653)">
<g filter="url(#filter1_d_6552_62653)">
<path d="M400.002 5H14.9998C9.47693 5 4.99979 9.47715 4.99979 15V295C4.99979 300.523 9.47693 305 14.9998 305H400.002V5Z" fill="#1A1A1A"/>
</g>
<rect x="84.543" y="44.0845" width="221.025" height="7.28808" rx="3.64404" fill="#C4C4C4"/>
<rect x="84.543" y="19.4873" width="69.4128" height="12.7541" rx="6.37706" fill="#9F9F9F"/>
<rect x="84.543" y="58.6606" width="150.153" height="7.28808" rx="3.64404" fill="#C4C4C4"/>
<rect x="345.755" y="22.2202" width="37.4464" height="7.28806" rx="3.64403" fill="#C4C4C4"/>
<ellipse cx="51.7465" cy="34.0634" rx="14.6132" ry="14.5761" fill="#FC8878"/>
<mask id="mask1_6552_62653" style="mask-type:alpha" maskUnits="userSpaceOnUse" x="37" y="19" width="30" height="30">
<ellipse cx="51.7463" cy="34.0634" rx="14.6132" ry="14.5761" fill="#FFA82C"/>
</mask>
<g mask="url(#mask1_6552_62653)">
<path fill-rule="evenodd" clip-rule="evenodd" d="M51.3207 37.5745C54.3518 37.5745 56.809 35.1068 56.809 32.0627C56.809 29.0185 54.3518 26.5508 51.3207 26.5508C48.2897 26.5508 45.8325 29.0185 45.8325 32.0627C45.8325 35.1068 48.2897 37.5745 51.3207 37.5745ZM41.8411 48.5983C41.8471 43.3428 46.0878 39.0839 51.3207 39.0778C56.5537 39.0839 60.7944 43.3428 60.8004 48.5983C60.8004 48.875 60.577 49.0994 60.3015 49.0994H42.34C42.0644 49.0994 41.8411 48.875 41.8411 48.5983Z" fill="#4051B5"/>
</g>
<rect x="84.543" y="121.597" width="221.025" height="7.28808" rx="3.64404" fill="#C4C4C4"/>
<rect x="84.543" y="97" width="69.4128" height="12.7541" rx="6.37706" fill="#9F9F9F"/>
<rect x="84.543" y="136.173" width="150.153" height="7.28808" rx="3.64404" fill="#C4C4C4"/>
<rect x="345.755" y="99.7329" width="37.4464" height="7.28806" rx="3.64403" fill="#C4C4C4"/>
<ellipse cx="51.7465" cy="111.576" rx="14.6132" ry="14.5761" fill="#78D383"/>
<mask id="mask2_6552_62653" style="mask-type:alpha" maskUnits="userSpaceOnUse" x="37" y="97" width="30" height="30">
<ellipse cx="51.7463" cy="111.576" rx="14.6132" ry="14.5761" fill="#78D383"/>
</mask>
<g mask="url(#mask2_6552_62653)">
<path fill-rule="evenodd" clip-rule="evenodd" d="M51.3207 115.743C54.3518 115.743 56.809 113.275 56.809 110.231C56.809 107.187 54.3518 104.719 51.3207 104.719C48.2897 104.719 45.8325 107.187 45.8325 110.231C45.8325 113.275 48.2897 115.743 51.3207 115.743ZM41.8411 126.766C41.8471 121.511 46.0878 117.252 51.3207 117.246C56.5537 117.252 60.7944 121.511 60.8004 126.766C60.8004 127.043 60.577 127.267 60.3015 127.267H42.34C42.0644 127.267 41.8411 127.043 41.8411 126.766Z" fill="#275F86"/>
</g>
<rect x="84.543" y="199.597" width="221.025" height="7.28808" rx="3.64404" fill="#C4C4C4"/>
<rect x="84.543" y="175" width="69.4128" height="12.7541" rx="6.37706" fill="#9F9F9F"/>
<rect x="84.543" y="214.173" width="150.153" height="7.28808" rx="3.64404" fill="#C4C4C4"/>
<rect x="345.755" y="177.733" width="37.4464" height="7.28806" rx="3.64403" fill="#C4C4C4"/>
<ellipse cx="51.7465" cy="189.576" rx="14.6132" ry="14.5761" fill="#FFAA4C"/>
<mask id="mask3_6552_62653" style="mask-type:alpha" maskUnits="userSpaceOnUse" x="37" y="175" width="30" height="30">
<ellipse cx="51.7463" cy="189.576" rx="14.6132" ry="14.5761" fill="#FFAA4C"/>
</mask>
<g mask="url(#mask3_6552_62653)">
<path fill-rule="evenodd" clip-rule="evenodd" d="M51.3207 193.911C54.3518 193.911 56.809 191.444 56.809 188.4C56.809 185.355 54.3518 182.888 51.3207 182.888C48.2897 182.888 45.8325 185.355 45.8325 188.4C45.8325 191.444 48.2897 193.911 51.3207 193.911ZM41.8411 204.935C41.8471 199.68 46.0878 195.421 51.3207 195.415C56.5537 195.421 60.7944 199.68 60.8004 204.935C60.8004 205.212 60.577 205.436 60.3015 205.436H42.34C42.0644 205.436 41.8411 205.212 41.8411 204.935Z" fill="#4CB7FF"/>
</g>
<rect x="84.543" y="277.597" width="221.025" height="7.28808" rx="3.64404" fill="#C4C4C4"/>
<rect x="84.543" y="253" width="69.4128" height="12.7541" rx="6.37706" fill="#9F9F9F"/>
<rect x="84.543" y="292.173" width="150.153" height="7.28808" rx="3.64404" fill="#C4C4C4"/>
<rect x="345.755" y="255.733" width="37.4464" height="7.28806" rx="3.64403" fill="#C4C4C4"/>
<ellipse cx="51.7465" cy="267.576" rx="14.6132" ry="14.5761" fill="#C595CD"/>
<mask id="mask4_6552_62653" style="mask-type:alpha" maskUnits="userSpaceOnUse" x="37" y="253" width="30" height="30">
<ellipse cx="51.7463" cy="267.576" rx="14.6132" ry="14.5761" fill="#C595CD"/>
</mask>
<g mask="url(#mask4_6552_62653)">
<path fill-rule="evenodd" clip-rule="evenodd" d="M51.3205 272.08C54.3516 272.08 56.8087 269.612 56.8087 266.568C56.8087 263.524 54.3516 261.056 51.3205 261.056C48.2894 261.056 45.8323 263.524 45.8323 266.568C45.8323 269.612 48.2894 272.08 51.3205 272.08ZM41.8408 283.104C41.8469 277.848 46.0875 273.589 51.3205 273.583C56.5535 273.589 60.7941 277.848 60.8002 283.104C60.8002 283.38 60.5768 283.605 60.3012 283.605H42.3398C42.0642 283.605 41.8408 283.38 41.8408 283.104Z" fill="#006AB3"/>
</g>
</g>
<ellipse cx="22.7724" cy="34.7273" rx="3.73676" ry="3.72727" fill="#4CB7FF"/>
<ellipse cx="22.7724" cy="112.727" rx="3.73676" ry="3.72727" fill="#4CB7FF"/>
<ellipse cx="22.7724" cy="190.727" rx="3.73676" ry="3.72727" fill="#4CB7FF"/>
<ellipse cx="22.7724" cy="268.727" rx="3.73676" ry="3.72727" fill="#4CB7FF"/>
<defs>
<filter id="filter0_d_6552_62653" x="0.5" y="0.5" width="404" height="310" filterUnits="userSpaceOnUse" color-interpolation-filters="sRGB">
<feFlood flood-opacity="0" result="BackgroundImageFix"/>
<feColorMatrix in="SourceAlpha" type="matrix" values="0 0 0 0 0 0 0 0 0 0 0 0 0 0 0 0 0 0 127 0" result="hardAlpha"/>
<feOffset dx="0.5" dy="0.5"/>
<feGaussianBlur stdDeviation="2.5"/>
<feComposite in2="hardAlpha" operator="out"/>
<feColorMatrix type="matrix" values="0 0 0 0 0 0 0 0 0 0 0 0 0 0 0 0 0 0 0.1 0"/>
<feBlend mode="normal" in2="BackgroundImageFix" result="effect1_dropShadow_6552_62653"/>
<feBlend mode="normal" in="SourceGraphic" in2="effect1_dropShadow_6552_62653" result="shape"/>
</filter>
<filter id="filter1_d_6552_62653" x="1.99976" y="3" width="401.003" height="306" filterUnits="userSpaceOnUse" color-interpolation-filters="sRGB">
<feFlood flood-opacity="0" result="BackgroundImageFix"/>
<feColorMatrix in="SourceAlpha" type="matrix" values="0 0 0 0 0 0 0 0 0 0 0 0 0 0 0 0 0 0 127 0" result="hardAlpha"/>
<feOffset dy="1"/>
<feGaussianBlur stdDeviation="1.5"/>
<feComposite in2="hardAlpha" operator="out"/>
<feColorMatrix type="matrix" values="0 0 0 0 0 0 0 0 0 0 0 0 0 0 0 0 0 0 0.33 0"/>
<feBlend mode="normal" in2="BackgroundImageFix" result="effect1_dropShadow_6552_62653"/>
<feBlend mode="normal" in="SourceGraphic" in2="effect1_dropShadow_6552_62653" result="shape"/>
</filter>
</defs>
</svg>
