<?xml version="1.0" encoding="UTF-8" standalone="no"?>
<!DOCTYPE svg PUBLIC "-//W3C//DTD SVG 1.1//EN" "http://www.w3.org/Graphics/SVG/1.1/DTD/svg11.dtd">
<!-- Created with Vectornator (http://vectornator.io/) -->
<svg height="100%" stroke-miterlimit="10" style="fill-rule:nonzero;clip-rule:evenodd;stroke-linecap:round;stroke-linejoin:round;" version="1.1" viewBox="0 0 405 311" width="100%" xml:space="preserve" xmlns="http://www.w3.org/2000/svg" xmlns:vectornator="http://vectornator.io" xmlns:xlink="http://www.w3.org/1999/xlink">
<defs/>
<g id="Untitled" vectornator:layerName="Untitled">
<path d="M15 5L389 5C394.523 5 399 9.47715 399 15L399 295C399 300.523 394.523 305 389 305L15 305C9.47715 305 5 300.523 5 295L5 15C5 9.47715 9.47715 5 15 5Z" fill="#ffffff" fill-rule="evenodd" opacity="1" stroke="none"/>
<g opacity="1">
<clipPath id="ClipPath">
<path d="M15 5L389 5C394.523 5 399 9.47715 399 15L399 295C399 300.523 394.523 305 389 305L15 305C9.47715 305 5 300.523 5 295L5 15C5 9.47715 9.47715 5 15 5Z" fill-rule="evenodd"/>
</clipPath>
<g clip-path="url(#ClipPath)">
<path d="M400.002 5L14.9999 5C9.47704 5 4.99991 9.47715 4.99991 15L4.99991 295C4.99991 300.523 9.47706 305 14.9999 305L400.002 305L400.002 5Z" fill="#1a1a1a" fill-rule="evenodd" opacity="1" stroke="none"/>
<path d="M88.1871 44.0845L301.924 44.0845C303.937 44.0845 305.568 45.716 305.568 47.7285L305.568 47.7285C305.568 49.7411 303.937 51.3726 301.924 51.3726L88.1871 51.3726C86.1746 51.3726 84.5431 49.7411 84.5431 47.7285L84.5431 47.7285C84.5431 45.716 86.1746 44.0845 88.1871 44.0845Z" fill="#c4c4c4" fill-rule="evenodd" opacity="1" stroke="none"/>
<path d="M90.9202 19.4873L147.579 19.4873C151.101 19.4873 153.956 22.3424 153.956 25.8644L153.956 25.8643C153.956 29.3863 151.101 32.2414 147.579 32.2414L90.9202 32.2414C87.3982 32.2414 84.5431 29.3863 84.5431 25.8643L84.5431 25.8644C84.5431 22.3424 87.3982 19.4873 90.9202 19.4873Z" fill="#9f9f9f" fill-rule="evenodd" opacity="1" stroke="none"/>
<path d="M88.1871 58.6606L231.052 58.6606C233.065 58.6606 234.696 60.2921 234.696 62.3046L234.696 62.3046C234.696 64.3172 233.065 65.9487 231.052 65.9487L88.1871 65.9487C86.1746 65.9487 84.5431 64.3172 84.5431 62.3046L84.5431 62.3046C84.5431 60.2921 86.1746 58.6606 88.1871 58.6606Z" fill="#c4c4c4" fill-rule="evenodd" opacity="1" stroke="none"/>
<path d="M349.399 22.2202L379.557 22.2202C381.57 22.2202 383.201 23.8517 383.201 25.8642L383.201 25.8642C383.201 27.8768 381.57 29.5083 379.557 29.5083L349.399 29.5083C347.387 29.5083 345.755 27.8768 345.755 25.8642L345.755 25.8642C345.755 23.8517 347.387 22.2202 349.399 22.2202Z" fill="#c4c4c4" fill-rule="evenodd" opacity="1" stroke="none"/>
<path d="M37.1334 34.0634C37.1334 26.0132 43.676 19.4873 51.7466 19.4873C59.8172 19.4873 66.3598 26.0132 66.3598 34.0634C66.3598 42.1136 59.8172 48.6395 51.7466 48.6395C43.676 48.6395 37.1334 42.1136 37.1334 34.0634Z" fill="#fc8878" fill-rule="evenodd" opacity="1" stroke="none"/>
<g opacity="1">
<clipPath id="ClipPath_2">
<path d="M37.1332 34.0634C37.1332 26.0132 43.6758 19.4873 51.7464 19.4873C59.817 19.4873 66.3596 26.0132 66.3596 34.0634C66.3596 42.1136 59.817 48.6395 51.7464 48.6395C43.6758 48.6395 37.1332 42.1136 37.1332 34.0634Z" fill-rule="evenodd"/>
</clipPath>
<g clip-path="url(#ClipPath_2)">
<path d="M51.3207 37.5745C54.3518 37.5745 56.809 35.1068 56.809 32.0627C56.809 29.0185 54.3518 26.5508 51.3207 26.5508C48.2897 26.5508 45.8325 29.0185 45.8325 32.0627C45.8325 35.1068 48.2897 37.5745 51.3207 37.5745ZM41.8411 48.5983C41.8471 43.3428 46.0878 39.0839 51.3207 39.0778C56.5537 39.0839 60.7944 43.3428 60.8004 48.5983C60.8004 48.875 60.577 49.0994 60.3015 49.0994L42.34 49.0994C42.0644 49.0994 41.8411 48.875 41.8411 48.5983Z" fill="#4051b5" fill-rule="evenodd" opacity="1" stroke="none"/>
</g>
</g>
<path d="M88.1871 121.597L301.924 121.597C303.937 121.597 305.568 123.228 305.568 125.241L305.568 125.241C305.568 127.254 303.937 128.885 301.924 128.885L88.1871 128.885C86.1746 128.885 84.5431 127.254 84.5431 125.241L84.5431 125.241C84.5431 123.228 86.1746 121.597 88.1871 121.597Z" fill="#c4c4c4" fill-rule="evenodd" opacity="1" stroke="none"/>
<path d="M90.9202 97L147.579 97C151.101 97 153.956 99.8551 153.956 103.377L153.956 103.377C153.956 106.899 151.101 109.754 147.579 109.754L90.9202 109.754C87.3982 109.754 84.5431 106.899 84.5431 103.377L84.5431 103.377C84.5431 99.8551 87.3982 97 90.9202 97Z" fill="#9f9f9f" fill-rule="evenodd" opacity="1" stroke="none"/>
<path d="M88.1871 136.173L231.052 136.173C233.065 136.173 234.696 137.804 234.696 139.817L234.696 139.817C234.696 141.83 233.065 143.461 231.052 143.461L88.1871 143.461C86.1746 143.461 84.5431 141.83 84.5431 139.817L84.5431 139.817C84.5431 137.804 86.1746 136.173 88.1871 136.173Z" fill="#c4c4c4" fill-rule="evenodd" opacity="1" stroke="none"/>
<path d="M349.399 99.7329L379.557 99.7329C381.57 99.7329 383.201 101.364 383.201 103.377L383.201 103.377C383.201 105.389 381.57 107.021 379.557 107.021L349.399 107.021C347.387 107.021 345.755 105.389 345.755 103.377L345.755 103.377C345.755 101.364 347.387 99.7329 349.399 99.7329Z" fill="#c4c4c4" fill-rule="evenodd" opacity="1" stroke="none"/>
<path d="M37.1334 111.576C37.1334 103.526 43.676 96.9999 51.7466 96.9999C59.8172 96.9999 66.3598 103.526 66.3598 111.576C66.3598 119.626 59.8172 126.152 51.7466 126.152C43.676 126.152 37.1334 119.626 37.1334 111.576Z" fill="#78d383" fill-rule="evenodd" opacity="1" stroke="none"/>
<g opacity="1">
<clipPath id="ClipPath_3">
<path d="M37.1332 111.576C37.1332 103.526 43.6758 96.9999 51.7464 96.9999C59.817 96.9999 66.3596 103.526 66.3596 111.576C66.3596 119.626 59.817 126.152 51.7464 126.152C43.6758 126.152 37.1332 119.626 37.1332 111.576Z" fill-rule="evenodd"/>
</clipPath>
<g clip-path="url(#ClipPath_3)">
<path d="M51.3207 115.743C54.3518 115.743 56.809 113.275 56.809 110.231C56.809 107.187 54.3518 104.719 51.3207 104.719C48.2897 104.719 45.8325 107.187 45.8325 110.231C45.8325 113.275 48.2897 115.743 51.3207 115.743ZM41.8411 126.767C41.8471 121.511 46.0878 117.252 51.3207 117.246C56.5537 117.252 60.7944 121.511 60.8004 126.767C60.8004 127.043 60.577 127.268 60.3015 127.268L42.34 127.268C42.0644 127.268 41.8411 127.043 41.8411 126.767Z" fill="#275f86" fill-rule="evenodd" opacity="1" stroke="none"/>
</g>
</g>
<path d="M88.1871 199.597L301.924 199.597C303.937 199.597 305.568 201.228 305.568 203.241L305.568 203.241C305.568 205.254 303.937 206.885 301.924 206.885L88.1871 206.885C86.1746 206.885 84.5431 205.254 84.5431 203.241L84.5431 203.241C84.5431 201.228 86.1746 199.597 88.1871 199.597Z" fill="#c4c4c4" fill-rule="evenodd" opacity="1" stroke="none"/>
<path d="M90.9202 175L147.579 175C151.101 175 153.956 177.855 153.956 181.377L153.956 181.377C153.956 184.899 151.101 187.754 147.579 187.754L90.9202 187.754C87.3982 187.754 84.5431 184.899 84.5431 181.377L84.5431 181.377C84.5431 177.855 87.3982 175 90.9202 175Z" fill="#9f9f9f" fill-rule="evenodd" opacity="1" stroke="none"/>
<path d="M88.1871 214.173L231.052 214.173C233.065 214.173 234.696 215.804 234.696 217.817L234.696 217.817C234.696 219.83 233.065 221.461 231.052 221.461L88.1871 221.461C86.1746 221.461 84.5431 219.83 84.5431 217.817L84.5431 217.817C84.5431 215.804 86.1746 214.173 88.1871 214.173Z" fill="#c4c4c4" fill-rule="evenodd" opacity="1" stroke="none"/>
<path d="M349.399 177.733L379.557 177.733C381.57 177.733 383.201 179.364 383.201 181.377L383.201 181.377C383.201 183.39 381.57 185.021 379.557 185.021L349.399 185.021C347.387 185.021 345.755 183.39 345.755 181.377L345.755 181.377C345.755 179.364 347.387 177.733 349.399 177.733Z" fill="#c4c4c4" fill-rule="evenodd" opacity="1" stroke="none"/>
<path d="M37.1334 189.576C37.1334 181.526 43.676 175 51.7466 175C59.8172 175 66.3598 181.526 66.3598 189.576C66.3598 197.626 59.8172 204.152 51.7466 204.152C43.676 204.152 37.1334 197.626 37.1334 189.576Z" fill="#ffaa4c" fill-rule="evenodd" opacity="1" stroke="none"/>
<g opacity="1">
<clipPath id="ClipPath_4">
<path d="M37.1332 189.576C37.1332 181.526 43.6758 175 51.7464 175C59.817 175 66.3596 181.526 66.3596 189.576C66.3596 197.626 59.817 204.152 51.7464 204.152C43.6758 204.152 37.1332 197.626 37.1332 189.576Z" fill-rule="evenodd"/>
</clipPath>
<g clip-path="url(#ClipPath_4)">
<path d="M51.3207 193.911C54.3518 193.911 56.809 191.444 56.809 188.4C56.809 185.355 54.3518 182.888 51.3207 182.888C48.2897 182.888 45.8325 185.355 45.8325 188.4C45.8325 191.444 48.2897 193.911 51.3207 193.911ZM41.8411 204.935C41.8471 199.68 46.0878 195.421 51.3207 195.415C56.5537 195.421 60.7944 199.68 60.8004 204.935C60.8004 205.212 60.577 205.436 60.3015 205.436L42.34 205.436C42.0644 205.436 41.8411 205.212 41.8411 204.935Z" fill="#4cb7ff" fill-rule="evenodd" opacity="1" stroke="none"/>
</g>
</g>
<path d="M88.1871 277.597L301.924 277.597C303.937 277.597 305.568 279.228 305.568 281.241L305.568 281.241C305.568 283.254 303.937 284.885 301.924 284.885L88.1871 284.885C86.1746 284.885 84.5431 283.254 84.5431 281.241L84.5431 281.241C84.5431 279.228 86.1746 277.597 88.1871 277.597Z" fill="#c4c4c4" fill-rule="evenodd" opacity="1" stroke="none"/>
<path d="M90.9202 253L147.579 253C151.101 253 153.956 255.855 153.956 259.377L153.956 259.377C153.956 262.899 151.101 265.754 147.579 265.754L90.9202 265.754C87.3982 265.754 84.5431 262.899 84.5431 259.377L84.5431 259.377C84.5431 255.855 87.3982 253 90.9202 253Z" fill="#9f9f9f" fill-rule="evenodd" opacity="1" stroke="none"/>
<path d="M88.1871 292.173L231.052 292.173C233.065 292.173 234.696 293.804 234.696 295.817L234.696 295.817C234.696 297.83 233.065 299.461 231.052 299.461L88.1871 299.461C86.1746 299.461 84.5431 297.83 84.5431 295.817L84.5431 295.817C84.5431 293.804 86.1746 292.173 88.1871 292.173Z" fill="#c4c4c4" fill-rule="evenodd" opacity="1" stroke="none"/>
<path d="M349.399 255.733L379.557 255.733C381.57 255.733 383.201 257.364 383.201 259.377L383.201 259.377C383.201 261.39 381.57 263.021 379.557 263.021L349.399 263.021C347.386 263.021 345.755 261.39 345.755 259.377L345.755 259.377C345.755 257.364 347.386 255.733 349.399 255.733Z" fill="#c4c4c4" fill-rule="evenodd" opacity="1" stroke="none"/>
<path d="M37.1334 267.576C37.1334 259.526 43.676 253 51.7466 253C59.8172 253 66.3598 259.526 66.3598 267.576C66.3598 275.626 59.8172 282.152 51.7466 282.152C43.676 282.152 37.1334 275.626 37.1334 267.576Z" fill="#c595cd" fill-rule="evenodd" opacity="1" stroke="none"/>
<g opacity="1">
<clipPath id="ClipPath_5">
<path d="M37.1332 267.576C37.1332 259.526 43.6758 253 51.7464 253C59.817 253 66.3596 259.526 66.3596 267.576C66.3596 275.626 59.817 282.152 51.7464 282.152C43.6758 282.152 37.1332 275.626 37.1332 267.576Z" fill-rule="evenodd"/>
</clipPath>
<g clip-path="url(#ClipPath_5)">
<path d="M51.3207 272.08C54.3518 272.08 56.809 269.612 56.809 266.568C56.809 263.524 54.3518 261.056 51.3207 261.056C48.2897 261.056 45.8325 263.524 45.8325 266.568C45.8325 269.612 48.2897 272.08 51.3207 272.08ZM41.8411 283.104C41.8471 277.848 46.0878 273.589 51.3207 273.583C56.5537 273.589 60.7944 277.848 60.8004 283.104C60.8004 283.38 60.577 283.605 60.3015 283.605L42.34 283.605C42.0644 283.605 41.8411 283.38 41.8411 283.104Z" fill="#006ab3" fill-rule="evenodd" opacity="1" stroke="none"/>
</g>
</g>
</g>
</g>
<path d="M19.0356 34.7273C19.0356 32.6688 20.7086 31 22.7724 31C24.8362 31 26.5092 32.6688 26.5092 34.7273C26.5092 36.7858 24.8362 38.4546 22.7724 38.4546C20.7086 38.4546 19.0356 36.7858 19.0356 34.7273Z" fill="#4cb7ff" fill-rule="evenodd" opacity="1" stroke="none"/>
<path d="M19.0356 112.727C19.0356 110.668 20.7086 109 22.7724 109C24.8362 109 26.5092 110.668 26.5092 112.727C26.5092 114.786 24.8362 116.454 22.7724 116.454C20.7086 116.454 19.0356 114.786 19.0356 112.727Z" fill="#4cb7ff" fill-rule="evenodd" opacity="1" stroke="none"/>
<path d="M19.0356 190.727C19.0356 188.668 20.7086 187 22.7724 187C24.8362 187 26.5092 188.668 26.5092 190.727C26.5092 192.786 24.8362 194.454 22.7724 194.454C20.7086 194.454 19.0356 192.786 19.0356 190.727Z" fill="#4cb7ff" fill-rule="evenodd" opacity="1" stroke="none"/>
<path d="M19.0356 268.727C19.0356 266.668 20.7086 265 22.7724 265C24.8362 265 26.5092 266.668 26.5092 268.727C26.5092 270.786 24.8362 272.454 22.7724 272.454C20.7086 272.454 19.0356 270.786 19.0356 268.727Z" fill="#4cb7ff" fill-rule="evenodd" opacity="1" stroke="none"/>
</g>
</svg>
